<?xml version="1.0" standalone="no"?>
 <!DOCTYPE svg PUBLIC "-//W3C//DTD SVG 1.1//EN" 
 "http://www.w3.org/Graphics/SVG/1.1/DTD/svg11.dtd"> 
<svg
  xmlns:svg="http://www.w3.org/2000/svg"
  xmlns="http://www.w3.org/2000/svg"
  xmlns:xlink="http://www.w3.org/1999/xlink"
  version="1.1"
  width="29.700220cm" height="21.000720cm" viewBox="0 0 116930 82680">
<title>SVG Picture created as board-Dwgs_User.svg date 2021/03/29 15:50:41 </title>
  <desc>Picture generated by PCBNEW </desc>
<g style="fill:#000000; fill-opacity:1;stroke:#000000; stroke-opacity:1;
stroke-linecap:round; stroke-linejoin:round;"
 transform="translate(0 0) scale(1 1)">
</g>
<g style="fill:#000000; fill-opacity:0.0; 
stroke:#000000; stroke-width:-0.000787402; stroke-opacity:1; 
stroke-linecap:round; stroke-linejoin:round;">
</g>
<g style="fill:#000000; fill-opacity:0.0; 
stroke:#000000; stroke-width:118.11; stroke-opacity:1; 
stroke-linecap:round; stroke-linejoin:round;">
<path d="M96430.9 33898.6 A787.402 787.402 0.0 0 0 95643.5 33111.2" />
<path d="M95643.5 45473.4 A787.402 787.402 0.0 0 0 96430.9 44686" />
<path d="M96430 33898
L96430 44685
" />
</g>
<g style="fill:#000000; fill-opacity:0.0; 
stroke:#000000; stroke-width:78.7402; stroke-opacity:1; 
stroke-linecap:round; stroke-linejoin:round;">
</g>
<g style="fill:#000000; fill-opacity:1.0; 
stroke:#000000; stroke-width:78.7402; stroke-opacity:1; 
stroke-linecap:round; stroke-linejoin:round;">
<path style="fill:#000000; fill-opacity:1.0; 
stroke:#000000; stroke-width:78.7402; stroke-opacity:1; 
stroke-linecap:round; stroke-linejoin:round;fill-rule:evenodd;"
d="M 75013.6,42678.1
72651.4,42678.1
72651.4,41890.7
75013.6,41890.7
Z" /> 
<path style="fill:#000000; fill-opacity:1.0; 
stroke:#000000; stroke-width:78.7402; stroke-opacity:1; 
stroke-linecap:round; stroke-linejoin:round;fill-rule:evenodd;"
d="M 75013.6,40670.2
72651.4,40670.2
72651.4,39882.8
75013.6,39882.8
Z" /> 
<path style="fill:#000000; fill-opacity:1.0; 
stroke:#000000; stroke-width:78.7402; stroke-opacity:1; 
stroke-linecap:round; stroke-linejoin:round;fill-rule:evenodd;"
d="M 75013.6,38662.4
72651.4,38662.4
72651.4,37875
75013.6,37875
Z" /> 
<path style="fill:#000000; fill-opacity:1.0; 
stroke:#000000; stroke-width:78.7402; stroke-opacity:1; 
stroke-linecap:round; stroke-linejoin:round;fill-rule:evenodd;"
d="M 75013.6,36693.9
72651.4,36693.9
72651.4,35906.5
75013.6,35906.5
Z" /> 
</g>
<g style="fill:#000000; fill-opacity:0.0; 
stroke:#000000; stroke-width:118.11; stroke-opacity:1; 
stroke-linecap:round; stroke-linejoin:round;">
<path d="M81155.3 33111.2 A787.402 787.402 0.0 0 0 80367.9 33898.6" />
<path d="M79580.5 34922.2 A787.402 787.402 0.0 0 0 80367.9 34134.8" />
<path d="M80367.9 44686 A787.402 787.402 0.0 0 0 81155.3 45473.4" />
<path d="M80367.9 44528.5 A787.402 787.402 0.0 0 0 79580.5 43741.1" />
<path d="M72651.4 42953.7 A787.402 787.402 0.0 0 0 73438.8 43741.1" />
<path d="M73438.8 34922.2 A787.402 787.402 0.0 0 0 72651.4 35709.6" />
<path d="M80367 44685
L80367 44528
" />
<text x="87769.5" y="39075.8"
textLength="6377.77" font-size="1049.87" lengthAdjust="spacingAndGlyphs"
text-anchor="middle" opacity="0">USB-UART</text>
<path d="M84844 38250
L84844 38888
L84882 38963
L84919 39000
L84994 39038
L85144 39038
L85219 39000
L85257 38963
L85294 38888
L85294 38250
" />
<path d="M85632 39000
L85744 39038
L85932 39038
L86007 39000
L86044 38963
L86082 38888
L86082 38813
L86044 38738
L86007 38700
L85932 38663
L85782 38625
L85707 38588
L85669 38550
L85632 38475
L85632 38400
L85669 38325
L85707 38288
L85782 38250
L85969 38250
L86082 38288
" />
<path d="M86682 38625
L86794 38663
L86832 38700
L86869 38775
L86869 38888
L86832 38963
L86794 39000
L86719 39038
L86419 39038
L86419 38250
L86682 38250
L86757 38288
L86794 38325
L86832 38400
L86832 38475
L86794 38550
L86757 38588
L86682 38625
L86419 38625
" />
<path d="M87207 38738
L87806 38738
" />
<path d="M88181 38250
L88181 38888
L88219 38963
L88256 39000
L88331 39038
L88481 39038
L88556 39000
L88594 38963
L88631 38888
L88631 38250
" />
<path d="M88969 38813
L89344 38813
" />
<path d="M88894 39038
L89156 38250
L89419 39038
" />
<path d="M90131 39038
L89869 38663
" />
<path d="M89681 39038
L89681 38250
L89981 38250
L90056 38288
L90094 38325
L90131 38400
L90131 38513
L90094 38588
L90056 38625
L89981 38663
L89681 38663
" />
<path d="M90356 38250
L90806 38250
" />
<path d="M90581 39038
L90581 38250
" />
<text x="87769.5" y="40375"
textLength="4727.97" font-size="1049.87" lengthAdjust="spacingAndGlyphs"
text-anchor="middle" opacity="0">DONGLE</text>
<path d="M85669 40337
L85669 39550
L85857 39550
L85969 39587
L86044 39662
L86082 39737
L86119 39887
L86119 40000
L86082 40149
L86044 40224
L85969 40299
L85857 40337
L85669 40337
" />
<path d="M86607 39550
L86757 39550
L86832 39587
L86907 39662
L86944 39812
L86944 40075
L86907 40224
L86832 40299
L86757 40337
L86607 40337
L86532 40299
L86457 40224
L86419 40075
L86419 39812
L86457 39662
L86532 39587
L86607 39550
" />
<path d="M87282 40337
L87282 39550
L87731 40337
L87731 39550
" />
<path d="M88519 39587
L88444 39550
L88331 39550
L88219 39587
L88144 39662
L88106 39737
L88069 39887
L88069 40000
L88106 40149
L88144 40224
L88219 40299
L88331 40337
L88406 40337
L88519 40299
L88556 40262
L88556 40000
L88406 40000
" />
<path d="M89269 40337
L88894 40337
L88894 39550
" />
<path d="M89531 39925
L89794 39925
" />
<path d="M89906 40337
L89531 40337
L89531 39550
L89906 39550
" />
<path d="M95722 45473
L81155 45473
" />
<path d="M81155 33111
L95643 33111
" />
<path d="M80367 34134
L80367 33898
" />
<text x="75486" y="42756.9"
textLength="4465.5" font-size="1049.87" lengthAdjust="spacingAndGlyphs"
text-anchor="start" opacity="0">USB_TX</text>
<path d="M75750 41931
L75750 42569
L75787 42644
L75825 42681
L75900 42719
L76050 42719
L76125 42681
L76162 42644
L76200 42569
L76200 41931
" />
<path d="M76537 42681
L76650 42719
L76837 42719
L76912 42681
L76950 42644
L76987 42569
L76987 42494
L76950 42419
L76912 42381
L76837 42344
L76687 42306
L76612 42269
L76575 42231
L76537 42156
L76537 42081
L76575 42006
L76612 41969
L76687 41931
L76875 41931
L76987 41969
" />
<path d="M77587 42306
L77700 42344
L77737 42381
L77774 42456
L77774 42569
L77737 42644
L77700 42681
L77625 42719
L77325 42719
L77325 41931
L77587 41931
L77662 41969
L77700 42006
L77737 42081
L77737 42156
L77700 42231
L77662 42269
L77587 42306
L77325 42306
" />
<path d="M77924 42794
L78524 42794
" />
<path d="M78599 41931
L79049 41931
" />
<path d="M78824 42719
L78824 41931
" />
<path d="M79237 41931
L79762 42719
" />
<path d="M79762 41931
L79237 42719
" />
<text x="75486" y="40762.1"
textLength="4652.98" font-size="1049.87" lengthAdjust="spacingAndGlyphs"
text-anchor="start" opacity="0">USB_RX</text>
<path d="M75750 39937
L75750 40574
L75787 40649
L75825 40687
L75900 40724
L76050 40724
L76125 40687
L76162 40649
L76200 40574
L76200 39937
" />
<path d="M76537 40687
L76650 40724
L76837 40724
L76912 40687
L76950 40649
L76987 40574
L76987 40499
L76950 40424
L76912 40387
L76837 40349
L76687 40312
L76612 40274
L76575 40237
L76537 40162
L76537 40087
L76575 40012
L76612 39974
L76687 39937
L76875 39937
L76987 39974
" />
<path d="M77587 40312
L77700 40349
L77737 40387
L77774 40462
L77774 40574
L77737 40649
L77700 40687
L77625 40724
L77325 40724
L77325 39937
L77587 39937
L77662 39974
L77700 40012
L77737 40087
L77737 40162
L77700 40237
L77662 40274
L77587 40312
L77325 40312
" />
<path d="M77924 40799
L78524 40799
" />
<path d="M79162 40724
L78899 40349
" />
<path d="M78712 40724
L78712 39937
L79012 39937
L79087 39974
L79124 40012
L79162 40087
L79162 40199
L79124 40274
L79087 40312
L79012 40349
L78712 40349
" />
<path d="M79424 39937
L79949 40724
" />
<path d="M79949 39937
L79424 40724
" />
<text x="75486" y="38767.4"
textLength="5515.37" font-size="1049.87" lengthAdjust="spacingAndGlyphs"
text-anchor="start" opacity="0">USB_GND</text>
<path d="M75750 37942
L75750 38579
L75787 38654
L75825 38692
L75900 38729
L76050 38729
L76125 38692
L76162 38654
L76200 38579
L76200 37942
" />
<path d="M76537 38692
L76650 38729
L76837 38729
L76912 38692
L76950 38654
L76987 38579
L76987 38504
L76950 38429
L76912 38392
L76837 38354
L76687 38317
L76612 38279
L76575 38242
L76537 38167
L76537 38092
L76575 38017
L76612 37979
L76687 37942
L76875 37942
L76987 37979
" />
<path d="M77587 38317
L77700 38354
L77737 38392
L77774 38467
L77774 38579
L77737 38654
L77700 38692
L77625 38729
L77325 38729
L77325 37942
L77587 37942
L77662 37979
L77700 38017
L77737 38092
L77737 38167
L77700 38242
L77662 38279
L77587 38317
L77325 38317
" />
<path d="M77924 38804
L78524 38804
" />
<path d="M79124 37979
L79049 37942
L78937 37942
L78824 37979
L78749 38054
L78712 38129
L78674 38279
L78674 38392
L78712 38542
L78749 38617
L78824 38692
L78937 38729
L79012 38729
L79124 38692
L79162 38654
L79162 38392
L79012 38392
" />
<path d="M79499 38729
L79499 37942
L79949 38729
L79949 37942
" />
<path d="M80324 38729
L80324 37942
L80512 37942
L80624 37979
L80699 38054
L80737 38129
L80774 38279
L80774 38392
L80737 38542
L80699 38617
L80624 38692
L80512 38729
L80324 38729
" />
<text x="75486" y="36772.6"
textLength="4540.5" font-size="1049.87" lengthAdjust="spacingAndGlyphs"
text-anchor="start" opacity="0">USB_5V</text>
<path d="M75750 35947
L75750 36585
L75787 36660
L75825 36697
L75900 36735
L76050 36735
L76125 36697
L76162 36660
L76200 36585
L76200 35947
" />
<path d="M76537 36697
L76650 36735
L76837 36735
L76912 36697
L76950 36660
L76987 36585
L76987 36510
L76950 36435
L76912 36397
L76837 36360
L76687 36322
L76612 36285
L76575 36247
L76537 36172
L76537 36097
L76575 36022
L76612 35985
L76687 35947
L76875 35947
L76987 35985
" />
<path d="M77587 36322
L77700 36360
L77737 36397
L77774 36472
L77774 36585
L77737 36660
L77700 36697
L77625 36735
L77325 36735
L77325 35947
L77587 35947
L77662 35985
L77700 36022
L77737 36097
L77737 36172
L77700 36247
L77662 36285
L77587 36322
L77325 36322
" />
<path d="M77924 36810
L78524 36810
" />
<path d="M79087 35947
L78712 35947
L78674 36322
L78712 36285
L78787 36247
L78974 36247
L79049 36285
L79087 36322
L79124 36397
L79124 36585
L79087 36660
L79049 36697
L78974 36735
L78787 36735
L78712 36697
L78674 36660
" />
<path d="M79349 35947
L79612 36735
L79874 35947
" />
<path d="M73438 34922
L79580 34922
" />
<path d="M73438 43741
L79580 43741
" />
<path d="M72651 35709
L72651 42953
" />
</g>
<g style="fill:#000000; fill-opacity:0.0; 
stroke:#000000; stroke-width:78.7402; stroke-opacity:1; 
stroke-linecap:round; stroke-linejoin:round;">
<path d="M10289.1 57126.9 A2362.2 2362.2 0.0 0 0 12651.4 59489.1" />
<path d="M12651.4 22875 A2362.2 2362.2 0.0 0 0 10289.1 25237.2" />
<path d="M66982.1 25237.2 A2362.2 2362.2 0.0 0 0 64619.9 22875" />
<path d="M64619.9 59489.1 A2362.21 2362.21 0.0 0 0 66982.1 57126.9" />
<path d="M12651 59489
L64619 59489
" />
<path d="M10289 25237
L10289 57126
" />
<path d="M64619 22874
L12651 22874
" />
<path d="M66982 57126
L66982 25237
" />
<g >
</g>
<g >
</g>
<g >
</g>
<g >
</g>
<g >
</g>
<g >
</g>
<g >
</g>
<g >
</g>
<g >
</g>
<g >
</g>
<g >
</g>
<g >
</g>
<g >
</g>
<g >
</g>
<g >
</g>
<g >
</g>
<g >
</g>
<g >
</g>
<g >
</g>
<g >
</g>
<g >
</g>
<g >
</g>
<g >
</g>
<g >
</g>
<g >
</g>
<g >
</g>
<g >
</g>
<g >
</g>
<g >
</g>
<g >
</g>
<g >
</g>
<g >
</g>
<g >
</g>
<g >
</g>
<g >
</g>
<g >
</g>
<g >
</g>
<g >
</g>
<g >
</g>
<g >
</g>
<g >
</g>
<g >
</g>
<g >
</g>
<g >
</g>
<g >
</g>
<g >
</g>
<g >
</g>
<g >
</g>
<g >
</g>
<g >
</g>
</g> 
</svg>
