<?xml version="1.0" standalone="no"?>
 <!DOCTYPE svg PUBLIC "-//W3C//DTD SVG 1.1//EN" 
 "http://www.w3.org/Graphics/SVG/1.1/DTD/svg11.dtd"> 
<svg
  xmlns:svg="http://www.w3.org/2000/svg"
  xmlns="http://www.w3.org/2000/svg"
  xmlns:xlink="http://www.w3.org/1999/xlink"
  version="1.1"
  width="29.700220cm" height="21.000720cm" viewBox="0 0 116930 82680">
<title>SVG Picture created as board-B_SilkS.svg date 2021/03/29 15:50:40 </title>
  <desc>Picture generated by PCBNEW </desc>
<g style="fill:#000000; fill-opacity:1;stroke:#000000; stroke-opacity:1;
stroke-linecap:round; stroke-linejoin:round;"
 transform="translate(0 0) scale(1 1)">
</g>
<g style="fill:#000000; fill-opacity:0.0; 
stroke:#000000; stroke-width:-0.000787402; stroke-opacity:1; 
stroke-linecap:round; stroke-linejoin:round;">
</g>
<g style="fill:#000000; fill-opacity:0.0; 
stroke:#000000; stroke-width:118.11; stroke-opacity:1; 
stroke-linecap:round; stroke-linejoin:round;">
<g transform="rotate(-180 62163 42234.2)">
<text x="62163" y="42627.9"
transform="scale(-1 1) translate(-124325.951181 0)"
textLength="1383.76" font-size="1049.87" lengthAdjust="spacingAndGlyphs"
text-anchor="start" opacity="0">RX</text>
</g>
<path d="M62877 41877
L62614 42252
" />
<path d="M62427 41877
L62427 42665
L62727 42665
L62802 42627
L62839 42590
L62877 42515
L62877 42402
L62839 42327
L62802 42290
L62727 42252
L62427 42252
" />
<path d="M63139 42665
L63664 41877
" />
<path d="M63664 42665
L63139 41877
" />
<g transform="rotate(-180 62275.5 36407.4)">
<text x="62275.5" y="36801.1"
transform="scale(-1 1) translate(-124550.922835 0)"
textLength="1271.28" font-size="1049.87" lengthAdjust="spacingAndGlyphs"
text-anchor="start" opacity="0">5V</text>
</g>
<path d="M62914 36838
L62539 36838
L62502 36463
L62539 36501
L62614 36538
L62802 36538
L62877 36501
L62914 36463
L62952 36388
L62952 36201
L62914 36126
L62877 36088
L62802 36051
L62614 36051
L62539 36088
L62502 36126
" />
<path d="M63177 36838
L63439 36051
L63702 36838
" />
<g transform="rotate(-180 62350.5 40501.9)">
<text x="62350.5" y="40895.6"
transform="scale(-1 1) translate(-124700.903937 0)"
textLength="1196.29" font-size="1049.87" lengthAdjust="spacingAndGlyphs"
text-anchor="start" opacity="0">TX</text>
</g>
<path d="M62502 40933
L62952 40933
" />
<path d="M62727 40145
L62727 40933
" />
<path d="M63139 40933
L63664 40145
" />
<path d="M63664 40933
L63139 40145
" />
<g transform="rotate(-180 61300.6 38454.7)">
<text x="61300.6" y="38848.4"
transform="scale(-1 1) translate(-122601.166929 0)"
textLength="2246.16" font-size="1049.87" lengthAdjust="spacingAndGlyphs"
text-anchor="start" opacity="0">GND</text>
</g>
<path d="M61977 38848
L61902 38885
L61789 38885
L61677 38848
L61602 38773
L61564 38698
L61527 38548
L61527 38435
L61564 38285
L61602 38210
L61677 38135
L61789 38098
L61864 38098
L61977 38135
L62014 38173
L62014 38435
L61864 38435
" />
<path d="M62352 38098
L62352 38885
L62802 38098
L62802 38885
" />
<path d="M63177 38098
L63177 38885
L63364 38885
L63477 38848
L63552 38773
L63589 38698
L63627 38548
L63627 38435
L63589 38285
L63552 38210
L63477 38135
L63364 38098
L63177 38098
" />
<text x="52257.7" y="27667.3"
transform="scale(-1 1) translate(-104515.302362 0)"
textLength="633.858" font-size="1049.87" lengthAdjust="spacingAndGlyphs"
text-anchor="start" opacity="0">G</text>
<path d="M51580 26879
L51655 26842
L51768 26842
L51880 26879
L51955 26954
L51993 27029
L52030 27179
L52030 27292
L51993 27442
L51955 27517
L51880 27592
L51768 27629
L51693 27629
L51580 27592
L51543 27554
L51543 27292
L51693 27292
" />
<text x="48163.2" y="27667.3"
transform="scale(-1 1) translate(-96326.325984 0)"
textLength="633.858" font-size="1049.87" lengthAdjust="spacingAndGlyphs"
text-anchor="start" opacity="0">G</text>
<path d="M47486 26879
L47561 26842
L47673 26842
L47786 26879
L47861 26954
L47898 27029
L47936 27179
L47936 27292
L47898 27442
L47861 27517
L47786 27592
L47673 27629
L47598 27629
L47486 27592
L47448 27554
L47448 27292
L47598 27292
" />
<text x="50967.8" y="27667.3"
transform="scale(-1 1) translate(-101935.625197 0)"
textLength="2021.19" font-size="1049.87" lengthAdjust="spacingAndGlyphs"
text-anchor="start" opacity="0">1V8</text>
<path d="M50291 27629
L50741 27629
" />
<path d="M50516 27629
L50516 26842
L50591 26954
L50666 27029
L50741 27067
" />
<path d="M50066 26842
L49803 27629
L49541 26842
" />
<path d="M49166 27179
L49241 27142
L49278 27104
L49316 27029
L49316 26992
L49278 26917
L49241 26879
L49166 26842
L49016 26842
L48941 26879
L48903 26917
L48866 26992
L48866 27029
L48903 27104
L48941 27142
L49016 27179
L49166 27179
L49241 27217
L49278 27254
L49316 27329
L49316 27479
L49278 27554
L49241 27592
L49166 27629
L49016 27629
L48941 27592
L48903 27554
L48866 27479
L48866 27329
L48903 27254
L48941 27217
L49016 27179
" />
<text x="56194.7" y="27667.3"
transform="scale(-1 1) translate(-112389.318110 0)"
textLength="633.858" font-size="1049.87" lengthAdjust="spacingAndGlyphs"
text-anchor="start" opacity="0">G</text>
<path d="M55517 26879
L55592 26842
L55705 26842
L55817 26879
L55892 26954
L55930 27029
L55967 27179
L55967 27292
L55930 27442
L55892 27517
L55817 27592
L55705 27629
L55630 27629
L55517 27592
L55480 27554
L55480 27292
L55630 27292
" />
<text x="58721.8" y="27667.3"
transform="scale(-1 1) translate(-117443.686614 0)"
textLength="1271.28" font-size="1049.87" lengthAdjust="spacingAndGlyphs"
text-anchor="start" opacity="0">5V</text>
<path d="M58082 26842
L58457 26842
L58495 27217
L58457 27179
L58382 27142
L58195 27142
L58120 27179
L58082 27217
L58045 27292
L58045 27479
L58082 27554
L58120 27592
L58195 27629
L58382 27629
L58457 27592
L58495 27554
" />
<path d="M57820 26842
L57557 27629
L57295 26842
" />
<text x="54904.8" y="27667.3"
transform="scale(-1 1) translate(-109809.640945 0)"
textLength="2021.19" font-size="1049.87" lengthAdjust="spacingAndGlyphs"
text-anchor="start" opacity="0">3V3</text>
<path d="M54715 26842
L54228 26842
L54490 27142
L54378 27142
L54303 27179
L54265 27217
L54228 27292
L54228 27479
L54265 27554
L54303 27592
L54378 27629
L54603 27629
L54678 27592
L54715 27554
" />
<path d="M54003 26842
L53740 27629
L53478 26842
" />
<path d="M53290 26842
L52803 26842
L53065 27142
L52953 27142
L52878 27179
L52840 27217
L52803 27292
L52803 27479
L52840 27554
L52878 27592
L52953 27629
L53178 27629
L53253 27592
L53290 27554
" />
<g transform="rotate(-90 25414.8 54574.8)">
<text x="25414.8" y="54968.5"
transform="scale(-1 1) translate(-50829.513386 0)"
textLength="1271.28" font-size="1049.87" lengthAdjust="spacingAndGlyphs"
text-anchor="start" opacity="0">A5</text>
</g>
<path d="M25545 54801
L25545 55176
" />
<path d="M25770 54726
L24983 54989
L25770 55251
" />
<path d="M24983 55888
L24983 55513
L25358 55476
L25321 55513
L25283 55588
L25283 55776
L25321 55851
L25358 55888
L25433 55926
L25620 55926
L25695 55888
L25733 55851
L25770 55776
L25770 55588
L25733 55513
L25695 55476
" />
<g transform="rotate(-90 31245.3 54649.8)">
<text x="31245.3" y="55043.5"
transform="scale(-1 1) translate(-62490.555906 0)"
textLength="1196.29" font-size="1049.87" lengthAdjust="spacingAndGlyphs"
text-anchor="start" opacity="0">TX</text>
</g>
<path d="M30814 54801
L30814 55251
" />
<path d="M31601 55026
L30814 55026
" />
<path d="M30814 55439
L31601 55963
" />
<path d="M30814 55963
L31601 55439
" />
<g transform="rotate(-90 23446.3 54574.8)">
<text x="23446.3" y="54968.5"
transform="scale(-1 1) translate(-46892.505512 0)"
textLength="1271.28" font-size="1049.87" lengthAdjust="spacingAndGlyphs"
text-anchor="start" opacity="0">A6</text>
</g>
<path d="M23577 54801
L23577 55176
" />
<path d="M23802 54726
L23015 54989
L23802 55251
" />
<path d="M23015 55851
L23015 55701
L23052 55626
L23090 55588
L23202 55513
L23352 55476
L23652 55476
L23727 55513
L23764 55551
L23802 55626
L23802 55776
L23764 55851
L23727 55888
L23652 55926
L23465 55926
L23390 55888
L23352 55851
L23315 55776
L23315 55626
L23352 55551
L23390 55513
L23465 55476
" />
<g transform="rotate(-90 33288.8 54574.8)">
<text x="33288.8" y="54968.5"
transform="scale(-1 1) translate(-66577.544882 0)"
textLength="1271.28" font-size="1049.87" lengthAdjust="spacingAndGlyphs"
text-anchor="start" opacity="0">A1</text>
</g>
<path d="M33420 54801
L33420 55176
" />
<path d="M33644 54726
L32857 54989
L33644 55251
" />
<path d="M33644 55926
L33644 55476
" />
<path d="M33644 55701
L32857 55701
L32970 55626
L33045 55551
L33082 55476
" />
<g transform="rotate(-90 21241.5 54574.8)">
<text x="21241.5" y="54968.5"
transform="scale(-1 1) translate(-42483.056693 0)"
textLength="1271.28" font-size="1049.87" lengthAdjust="spacingAndGlyphs"
text-anchor="start" opacity="0">A7</text>
</g>
<path d="M21372 54801
L21372 55176
" />
<path d="M21597 54726
L20810 54989
L21597 55251
" />
<path d="M20810 55439
L20810 55963
L21597 55626
" />
<g transform="rotate(-90 29464.3 54462.3)">
<text x="29464.3" y="54856"
transform="scale(-1 1) translate(-58928.500787 0)"
textLength="1383.76" font-size="1049.87" lengthAdjust="spacingAndGlyphs"
text-anchor="start" opacity="0">RX</text>
</g>
<path d="M29820 55176
L29445 54914
" />
<path d="M29820 54726
L29033 54726
L29033 55026
L29070 55101
L29108 55139
L29183 55176
L29295 55176
L29370 55139
L29408 55101
L29445 55026
L29445 54726
" />
<path d="M29033 55439
L29820 55963
" />
<path d="M29033 55963
L29820 55439
" />
<g transform="rotate(-90 35257.3 54574.8)">
<text x="35257.3" y="54968.5"
transform="scale(-1 1) translate(-70514.552756 0)"
textLength="1271.28" font-size="1049.87" lengthAdjust="spacingAndGlyphs"
text-anchor="start" opacity="0">A0</text>
</g>
<path d="M35388 54801
L35388 55176
" />
<path d="M35613 54726
L34826 54989
L35613 55251
" />
<path d="M34826 55663
L34826 55738
L34863 55813
L34901 55851
L34976 55888
L35126 55926
L35313 55926
L35463 55888
L35538 55851
L35575 55813
L35613 55738
L35613 55663
L35575 55588
L35538 55551
L35463 55513
L35313 55476
L35126 55476
L34976 55513
L34901 55551
L34863 55588
L34826 55663
" />
<g transform="rotate(-90 27383.3 54574.8)">
<text x="27383.3" y="54968.5"
transform="scale(-1 1) translate(-54766.521260 0)"
textLength="1271.28" font-size="1049.87" lengthAdjust="spacingAndGlyphs"
text-anchor="start" opacity="0">A4</text>
</g>
<path d="M27514 54801
L27514 55176
" />
<path d="M27739 54726
L26952 54989
L27739 55251
" />
<path d="M27214 55851
L27739 55851
" />
<path d="M26914 55663
L27476 55476
L27476 55963
" />
<g transform="rotate(-90 41082 26423.4)">
<text x="41082" y="26817.1"
transform="scale(-1 1) translate(-82163.996850 0)"
textLength="1383.76" font-size="1049.87" lengthAdjust="spacingAndGlyphs"
text-anchor="start" opacity="0">B1</text>
</g>
<path d="M41025 26950
L41063 27062
L41100 27100
L41175 27137
L41288 27137
L41363 27100
L41400 27062
L41438 26987
L41438 26687
L40650 26687
L40650 26950
L40688 27025
L40725 27062
L40800 27100
L40875 27100
L40950 27062
L40988 27025
L41025 26950
L41025 26687
" />
<path d="M41438 27887
L41438 27437
" />
<path d="M41438 27662
L40650 27662
L40763 27587
L40838 27512
L40875 27437
" />
<g transform="rotate(-90 35069.1 26423.4)">
<text x="35069.1" y="26817.1"
transform="scale(-1 1) translate(-70138.229921 0)"
textLength="1383.76" font-size="1049.87" lengthAdjust="spacingAndGlyphs"
text-anchor="start" opacity="0">B4</text>
</g>
<path d="M35012 26950
L35050 27062
L35087 27100
L35162 27137
L35275 27137
L35350 27100
L35387 27062
L35425 26987
L35425 26687
L34637 26687
L34637 26950
L34675 27025
L34712 27062
L34787 27100
L34862 27100
L34937 27062
L34975 27025
L35012 26950
L35012 26687
" />
<path d="M34900 27812
L35425 27812
" />
<path d="M34600 27624
L35162 27437
L35162 27924
" />
<g transform="rotate(-90 25047.6 26423.4)">
<text x="25047.6" y="26817.1"
transform="scale(-1 1) translate(-50095.285039 0)"
textLength="1383.76" font-size="1049.87" lengthAdjust="spacingAndGlyphs"
text-anchor="start" opacity="0">B9</text>
</g>
<path d="M24991 26950
L25028 27062
L25066 27100
L25141 27137
L25253 27137
L25328 27100
L25366 27062
L25403 26987
L25403 26687
L24616 26687
L24616 26950
L24653 27025
L24691 27062
L24766 27100
L24841 27100
L24916 27062
L24953 27025
L24991 26950
L24991 26687
" />
<path d="M25403 27512
L25403 27662
L25366 27737
L25328 27774
L25216 27849
L25066 27887
L24766 27887
L24691 27849
L24653 27812
L24616 27737
L24616 27587
L24653 27512
L24691 27475
L24766 27437
L24953 27437
L25028 27475
L25066 27512
L25103 27587
L25103 27737
L25066 27812
L25028 27849
L24953 27887
" />
<g transform="rotate(-90 29056.2 26423.4)">
<text x="29056.2" y="26817.1"
transform="scale(-1 1) translate(-58112.462992 0)"
textLength="1383.76" font-size="1049.87" lengthAdjust="spacingAndGlyphs"
text-anchor="start" opacity="0">B7</text>
</g>
<path d="M28999 26950
L29037 27062
L29074 27100
L29149 27137
L29262 27137
L29337 27100
L29374 27062
L29412 26987
L29412 26687
L28625 26687
L28625 26950
L28662 27025
L28700 27062
L28775 27100
L28850 27100
L28924 27062
L28962 27025
L28999 26950
L28999 26687
" />
<path d="M28625 27400
L28625 27924
L29412 27587
" />
<g transform="rotate(-90 31060.5 26423.4)">
<text x="31060.5" y="26817.1"
transform="scale(-1 1) translate(-62121.051969 0)"
textLength="1383.76" font-size="1049.87" lengthAdjust="spacingAndGlyphs"
text-anchor="start" opacity="0">B6</text>
</g>
<path d="M31004 26950
L31041 27062
L31079 27100
L31154 27137
L31266 27137
L31341 27100
L31379 27062
L31416 26987
L31416 26687
L30629 26687
L30629 26950
L30666 27025
L30704 27062
L30779 27100
L30854 27100
L30929 27062
L30966 27025
L31004 26950
L31004 26687
" />
<path d="M30629 27812
L30629 27662
L30666 27587
L30704 27549
L30816 27475
L30966 27437
L31266 27437
L31341 27475
L31379 27512
L31416 27587
L31416 27737
L31379 27812
L31341 27849
L31266 27887
L31079 27887
L31004 27849
L30966 27812
L30929 27737
L30929 27587
L30966 27512
L31004 27475
L31079 27437
" />
<g transform="rotate(-90 21159 26423.4)">
<text x="21159" y="26817.1"
transform="scale(-1 1) translate(-42318.077165 0)"
textLength="2133.67" font-size="1049.87" lengthAdjust="spacingAndGlyphs"
text-anchor="start" opacity="0">B11</text>
</g>
<path d="M21102 26950
L21140 27062
L21177 27100
L21252 27137
L21365 27137
L21440 27100
L21477 27062
L21515 26987
L21515 26687
L20727 26687
L20727 26950
L20765 27025
L20802 27062
L20877 27100
L20952 27100
L21027 27062
L21065 27025
L21102 26950
L21102 26687
" />
<path d="M21515 27887
L21515 27437
" />
<path d="M21515 27662
L20727 27662
L20840 27587
L20915 27512
L20952 27437
" />
<path d="M21515 28637
L21515 28187
" />
<path d="M21515 28412
L20727 28412
L20840 28337
L20915 28262
L20952 28187
" />
<g transform="rotate(-90 33064.8 26423.4)">
<text x="33064.8" y="26817.1"
transform="scale(-1 1) translate(-66129.640945 0)"
textLength="1383.76" font-size="1049.87" lengthAdjust="spacingAndGlyphs"
text-anchor="start" opacity="0">B5</text>
</g>
<path d="M33008 26950
L33046 27062
L33083 27100
L33158 27137
L33271 27137
L33346 27100
L33383 27062
L33421 26987
L33421 26687
L32633 26687
L32633 26950
L32671 27025
L32708 27062
L32783 27100
L32858 27100
L32933 27062
L32971 27025
L33008 26950
L33008 26687
" />
<path d="M32633 27849
L32633 27475
L33008 27437
L32971 27475
L32933 27549
L32933 27737
L32971 27812
L33008 27849
L33083 27887
L33271 27887
L33346 27849
L33383 27812
L33421 27737
L33421 27549
L33383 27475
L33346 27437
" />
<g transform="rotate(-90 27051.9 26423.4)">
<text x="27051.9" y="26817.1"
transform="scale(-1 1) translate(-54103.874016 0)"
textLength="1383.76" font-size="1049.87" lengthAdjust="spacingAndGlyphs"
text-anchor="start" opacity="0">B8</text>
</g>
<path d="M26995 26950
L27033 27062
L27070 27100
L27145 27137
L27258 27137
L27333 27100
L27370 27062
L27408 26987
L27408 26687
L26620 26687
L26620 26950
L26658 27025
L26695 27062
L26770 27100
L26845 27100
L26920 27062
L26958 27025
L26995 26950
L26995 26687
" />
<path d="M26958 27587
L26920 27512
L26883 27475
L26808 27437
L26770 27437
L26695 27475
L26658 27512
L26620 27587
L26620 27737
L26658 27812
L26695 27849
L26770 27887
L26808 27887
L26883 27849
L26920 27812
L26958 27737
L26958 27587
L26995 27512
L27033 27475
L27108 27437
L27258 27437
L27333 27475
L27370 27512
L27408 27587
L27408 27737
L27370 27812
L27333 27849
L27258 27887
L27108 27887
L27033 27849
L26995 27812
L26958 27737
" />
<g transform="rotate(-90 37073.4 26423.4)">
<text x="37073.4" y="26817.1"
transform="scale(-1 1) translate(-74146.818898 0)"
textLength="1383.76" font-size="1049.87" lengthAdjust="spacingAndGlyphs"
text-anchor="start" opacity="0">B3</text>
</g>
<path d="M37017 26950
L37054 27062
L37092 27100
L37167 27137
L37279 27137
L37354 27100
L37392 27062
L37429 26987
L37429 26687
L36642 26687
L36642 26950
L36679 27025
L36717 27062
L36792 27100
L36867 27100
L36942 27062
L36979 27025
L37017 26950
L37017 26687
" />
<path d="M36642 27400
L36642 27887
L36942 27624
L36942 27737
L36979 27812
L37017 27849
L37092 27887
L37279 27887
L37354 27849
L37392 27812
L37429 27737
L37429 27512
L37392 27437
L37354 27400
" />
<g transform="rotate(-90 23163.2 26423.4)">
<text x="23163.2" y="26817.1"
transform="scale(-1 1) translate(-46326.325984 0)"
textLength="2133.67" font-size="1049.87" lengthAdjust="spacingAndGlyphs"
text-anchor="start" opacity="0">B10</text>
</g>
<path d="M23106 26950
L23144 27062
L23181 27100
L23256 27137
L23369 27137
L23444 27100
L23481 27062
L23519 26987
L23519 26687
L22731 26687
L22731 26950
L22769 27025
L22806 27062
L22881 27100
L22956 27100
L23031 27062
L23069 27025
L23106 26950
L23106 26687
" />
<path d="M23519 27887
L23519 27437
" />
<path d="M23519 27662
L22731 27662
L22844 27587
L22919 27512
L22956 27437
" />
<path d="M22731 28374
L22731 28449
L22769 28524
L22806 28562
L22881 28599
L23031 28637
L23219 28637
L23369 28599
L23444 28562
L23481 28524
L23519 28449
L23519 28374
L23481 28299
L23444 28262
L23369 28224
L23219 28187
L23031 28187
L22881 28224
L22806 28262
L22769 28299
L22731 28374
" />
<g transform="rotate(-90 39077.7 26423.4)">
<text x="39077.7" y="26817.1"
transform="scale(-1 1) translate(-78155.407874 0)"
textLength="1383.76" font-size="1049.87" lengthAdjust="spacingAndGlyphs"
text-anchor="start" opacity="0">B2</text>
</g>
<path d="M39021 26950
L39058 27062
L39096 27100
L39171 27137
L39283 27137
L39358 27100
L39396 27062
L39433 26987
L39433 26687
L38646 26687
L38646 26950
L38684 27025
L38721 27062
L38796 27100
L38871 27100
L38946 27062
L38983 27025
L39021 26950
L39021 26687
" />
<path d="M38721 27437
L38684 27475
L38646 27549
L38646 27737
L38684 27812
L38721 27849
L38796 27887
L38871 27887
L38983 27849
L39433 27400
L39433 27887
" />
<g transform="rotate(-90 43086.3 26423.4)">
<text x="43086.3" y="26817.1"
transform="scale(-1 1) translate(-86172.595276 0)"
textLength="1383.76" font-size="1049.87" lengthAdjust="spacingAndGlyphs"
text-anchor="start" opacity="0">B0</text>
</g>
<path d="M43030 26950
L43067 27062
L43105 27100
L43180 27137
L43292 27137
L43367 27100
L43405 27062
L43442 26987
L43442 26687
L42655 26687
L42655 26950
L42692 27025
L42730 27062
L42805 27100
L42880 27100
L42955 27062
L42992 27025
L43030 26950
L43030 26687
" />
<path d="M42655 27624
L42655 27699
L42692 27774
L42730 27812
L42805 27849
L42955 27887
L43142 27887
L43292 27849
L43367 27812
L43405 27774
L43442 27699
L43442 27624
L43405 27549
L43367 27512
L43292 27475
L43142 27437
L42955 27437
L42805 27475
L42730 27512
L42692 27549
L42655 27624
" />
<g transform="rotate(-180 15188.8 36249.9)">
<text x="15188.8" y="36643.6"
transform="scale(-1 1) translate(-30377.694488 0)"
textLength="2133.67" font-size="1049.87" lengthAdjust="spacingAndGlyphs"
text-anchor="start" opacity="0">B15</text>
</g>
<path d="M15715 36306
L15828 36268
L15865 36231
L15903 36156
L15903 36043
L15865 35968
L15828 35931
L15753 35893
L15453 35893
L15453 36681
L15715 36681
L15790 36643
L15828 36606
L15865 36531
L15865 36456
L15828 36381
L15790 36343
L15715 36306
L15453 36306
" />
<path d="M16652 35893
L16203 35893
" />
<path d="M16427 35893
L16427 36681
L16352 36568
L16277 36493
L16203 36456
" />
<path d="M17365 36681
L16990 36681
L16952 36306
L16990 36343
L17065 36381
L17252 36381
L17327 36343
L17365 36306
L17402 36231
L17402 36043
L17365 35968
L17327 35931
L17252 35893
L17065 35893
L16990 35931
L16952 35968
" />
<g transform="rotate(-180 15188.8 48375.9)">
<text x="15188.8" y="48769.6"
transform="scale(-1 1) translate(-30377.694488 0)"
textLength="2021.19" font-size="1049.87" lengthAdjust="spacingAndGlyphs"
text-anchor="start" opacity="0">A10</text>
</g>
<path d="M15415 48244
L15790 48244
" />
<path d="M15340 48019
L15603 48807
L15865 48019
" />
<path d="M16540 48019
L16090 48019
" />
<path d="M16315 48019
L16315 48807
L16240 48694
L16165 48619
L16090 48582
" />
<path d="M17027 48807
L17102 48807
L17177 48769
L17215 48732
L17252 48657
L17290 48507
L17290 48319
L17252 48169
L17215 48094
L17177 48057
L17102 48019
L17027 48019
L16952 48057
L16915 48094
L16877 48169
L16840 48319
L16840 48507
L16877 48657
L16915 48732
L16952 48769
L17027 48807
" />
<g transform="rotate(-180 15188.8 46328.7)">
<text x="15188.8" y="46722.4"
transform="scale(-1 1) translate(-30377.694488 0)"
textLength="2021.19" font-size="1049.87" lengthAdjust="spacingAndGlyphs"
text-anchor="start" opacity="0">A11</text>
</g>
<path d="M15415 46197
L15790 46197
" />
<path d="M15340 45972
L15603 46759
L15865 45972
" />
<path d="M16540 45972
L16090 45972
" />
<path d="M16315 45972
L16315 46759
L16240 46647
L16165 46572
L16090 46534
" />
<path d="M17290 45972
L16840 45972
" />
<path d="M17065 45972
L17065 46759
L16990 46647
L16915 46572
L16840 46534
" />
<g transform="rotate(-180 15188.8 50108.2)">
<text x="15188.8" y="50501.9"
transform="scale(-1 1) translate(-30377.694488 0)"
textLength="1271.28" font-size="1049.87" lengthAdjust="spacingAndGlyphs"
text-anchor="start" opacity="0">A9</text>
</g>
<path d="M15415 49976
L15790 49976
" />
<path d="M15340 49751
L15603 50539
L15865 49751
" />
<path d="M16165 49751
L16315 49751
L16390 49789
L16427 49826
L16502 49939
L16540 50089
L16540 50389
L16502 50464
L16465 50501
L16390 50539
L16240 50539
L16165 50501
L16128 50464
L16090 50389
L16090 50201
L16128 50126
L16165 50089
L16240 50051
L16390 50051
L16465 50089
L16502 50126
L16540 50201
" />
<g transform="rotate(-180 15188.8 32470.4)">
<text x="15188.8" y="32864.1"
transform="scale(-1 1) translate(-30377.694488 0)"
textLength="2133.67" font-size="1049.87" lengthAdjust="spacingAndGlyphs"
text-anchor="start" opacity="0">B13</text>
</g>
<path d="M15715 32526
L15828 32489
L15865 32451
L15903 32376
L15903 32264
L15865 32189
L15828 32151
L15753 32114
L15453 32114
L15453 32901
L15715 32901
L15790 32864
L15828 32826
L15865 32751
L15865 32676
L15828 32601
L15790 32564
L15715 32526
L15453 32526
" />
<path d="M16652 32114
L16203 32114
" />
<path d="M16427 32114
L16427 32901
L16352 32789
L16277 32714
L16203 32676
" />
<path d="M16915 32901
L17402 32901
L17140 32601
L17252 32601
L17327 32564
L17365 32526
L17402 32451
L17402 32264
L17365 32189
L17327 32151
L17252 32114
L17027 32114
L16952 32151
L16915 32189
" />
<g transform="rotate(-180 15188.8 44281.4)">
<text x="15188.8" y="44675.1"
transform="scale(-1 1) translate(-30377.694488 0)"
textLength="2021.19" font-size="1049.87" lengthAdjust="spacingAndGlyphs"
text-anchor="start" opacity="0">A12</text>
</g>
<path d="M15415 44150
L15790 44150
" />
<path d="M15340 43925
L15603 44712
L15865 43925
" />
<path d="M16540 43925
L16090 43925
" />
<path d="M16315 43925
L16315 44712
L16240 44600
L16165 44525
L16090 44487
" />
<path d="M16840 44637
L16877 44675
L16952 44712
L17140 44712
L17215 44675
L17252 44637
L17290 44562
L17290 44487
L17252 44375
L16802 43925
L17290 43925
" />
<g transform="rotate(-180 15188.8 42391.7)">
<text x="15188.8" y="42785.4"
transform="scale(-1 1) translate(-30377.694488 0)"
textLength="2021.19" font-size="1049.87" lengthAdjust="spacingAndGlyphs"
text-anchor="start" opacity="0">A13</text>
</g>
<path d="M15415 42260
L15790 42260
" />
<path d="M15340 42035
L15603 42822
L15865 42035
" />
<path d="M16540 42035
L16090 42035
" />
<path d="M16315 42035
L16315 42822
L16240 42710
L16165 42635
L16090 42597
" />
<path d="M16802 42822
L17290 42822
L17027 42522
L17140 42522
L17215 42485
L17252 42447
L17290 42372
L17290 42185
L17252 42110
L17215 42072
L17140 42035
L16915 42035
L16840 42072
L16802 42110
" />
<g transform="rotate(-180 16391.5 30423.2)">
<text x="16391.5" y="30816.9"
transform="scale(-1 1) translate(-32783.018898 0)"
textLength="2133.67" font-size="1049.87" lengthAdjust="spacingAndGlyphs"
text-anchor="middle" opacity="0">B12</text>
</g>
<path d="M15697 30479
L15810 30441
L15847 30404
L15885 30329
L15885 30216
L15847 30141
L15810 30104
L15735 30066
L15435 30066
L15435 30854
L15697 30854
L15772 30816
L15810 30779
L15847 30704
L15847 30629
L15810 30554
L15772 30516
L15697 30479
L15435 30479
" />
<path d="M16635 30066
L16185 30066
" />
<path d="M16410 30066
L16410 30854
L16335 30741
L16260 30666
L16185 30629
" />
<path d="M16935 30779
L16972 30816
L17047 30854
L17235 30854
L17310 30816
L17347 30779
L17385 30704
L17385 30629
L17347 30516
L16897 30066
L17385 30066
" />
<g transform="rotate(-180 15188.8 40344.4)">
<text x="15188.8" y="40738.1"
transform="scale(-1 1) translate(-30377.694488 0)"
textLength="2021.19" font-size="1049.87" lengthAdjust="spacingAndGlyphs"
text-anchor="start" opacity="0">A14</text>
</g>
<path d="M15415 40213
L15790 40213
" />
<path d="M15340 39988
L15603 40775
L15865 39988
" />
<path d="M16540 39988
L16090 39988
" />
<path d="M16315 39988
L16315 40775
L16240 40663
L16165 40588
L16090 40550
" />
<path d="M17215 40513
L17215 39988
" />
<path d="M17027 40813
L16840 40250
L17327 40250
" />
<g transform="rotate(-180 15188.8 38454.7)">
<text x="15188.8" y="38848.4"
transform="scale(-1 1) translate(-30377.694488 0)"
textLength="2021.19" font-size="1049.87" lengthAdjust="spacingAndGlyphs"
text-anchor="start" opacity="0">A15</text>
</g>
<path d="M15415 38323
L15790 38323
" />
<path d="M15340 38098
L15603 38885
L15865 38098
" />
<path d="M16540 38098
L16090 38098
" />
<path d="M16315 38098
L16315 38885
L16240 38773
L16165 38698
L16090 38660
" />
<path d="M17252 38885
L16877 38885
L16840 38510
L16877 38548
L16952 38585
L17140 38585
L17215 38548
L17252 38510
L17290 38435
L17290 38248
L17252 38173
L17215 38135
L17140 38098
L16952 38098
L16877 38135
L16840 38173
" />
<g transform="rotate(-180 15188.8 34360.2)">
<text x="15188.8" y="34753.9"
transform="scale(-1 1) translate(-30377.694488 0)"
textLength="2133.67" font-size="1049.87" lengthAdjust="spacingAndGlyphs"
text-anchor="start" opacity="0">B14</text>
</g>
<path d="M15715 34416
L15828 34378
L15865 34341
L15903 34266
L15903 34153
L15865 34078
L15828 34041
L15753 34003
L15453 34003
L15453 34791
L15715 34791
L15790 34753
L15828 34716
L15865 34641
L15865 34566
L15828 34491
L15790 34453
L15715 34416
L15453 34416
" />
<path d="M16652 34003
L16203 34003
" />
<path d="M16427 34003
L16427 34791
L16352 34678
L16277 34603
L16203 34566
" />
<path d="M17327 34528
L17327 34003
" />
<path d="M17140 34828
L16952 34266
L17440 34266
" />
<g transform="rotate(-180 15188.8 52155.4)">
<text x="15188.8" y="52549.1"
transform="scale(-1 1) translate(-30377.694488 0)"
textLength="1271.28" font-size="1049.87" lengthAdjust="spacingAndGlyphs"
text-anchor="start" opacity="0">A8</text>
</g>
<path d="M15415 52024
L15790 52024
" />
<path d="M15340 51799
L15603 52586
L15865 51799
" />
<path d="M16240 52249
L16165 52286
L16128 52324
L16090 52399
L16090 52436
L16128 52511
L16165 52549
L16240 52586
L16390 52586
L16465 52549
L16502 52511
L16540 52436
L16540 52399
L16502 52324
L16465 52286
L16390 52249
L16240 52249
L16165 52211
L16128 52174
L16090 52099
L16090 51949
L16128 51874
L16165 51836
L16240 51799
L16390 51799
L16465 51836
L16502 51874
L16540 51949
L16540 52099
L16502 52174
L16465 52211
L16390 52249
" />
</g>
<g style="fill:#000000; fill-opacity:0.0; 
stroke:#000000; stroke-width:94.4882; stroke-opacity:1; 
stroke-linecap:round; stroke-linejoin:round;">
<g transform="rotate(-90 67100.2 39557)">
<text x="67100.2" y="39872"
transform="scale(-1 1) translate(-134200.341732 0)"
textLength="6325.65" font-size="839.894" lengthAdjust="spacingAndGlyphs"
text-anchor="middle" opacity="0">JLCJLCJLCJLC</text>
</g>
<path d="M66755 36647
L67205 36647
L67295 36617
L67355 36557
L67385 36467
L67385 36407
" />
<path d="M67385 37247
L67385 36947
L66755 36947
" />
<path d="M67325 37817
L67355 37787
L67385 37697
L67385 37637
L67355 37547
L67295 37487
L67235 37457
L67115 37427
L67025 37427
L66905 37457
L66845 37487
L66785 37547
L66755 37637
L66755 37697
L66785 37787
L66815 37817
" />
<path d="M66755 38267
L67205 38267
L67295 38237
L67355 38177
L67385 38087
L67385 38027
" />
<path d="M67385 38867
L67385 38567
L66755 38567
" />
<path d="M67325 39437
L67355 39407
L67385 39317
L67385 39257
L67355 39167
L67295 39107
L67235 39077
L67115 39047
L67025 39047
L66905 39077
L66845 39107
L66785 39167
L66755 39257
L66755 39317
L66785 39407
L66815 39437
" />
<path d="M66755 39886
L67205 39886
L67295 39856
L67355 39796
L67385 39707
L67385 39647
" />
<path d="M67385 40486
L67385 40186
L66755 40186
" />
<path d="M67325 41056
L67355 41026
L67385 40936
L67385 40876
L67355 40786
L67295 40726
L67235 40696
L67115 40666
L67025 40666
L66905 40696
L66845 40726
L66785 40786
L66755 40876
L66755 40936
L66785 41026
L66815 41056
" />
<path d="M66755 41506
L67205 41506
L67295 41476
L67355 41416
L67385 41326
L67385 41266
" />
<path d="M67385 42106
L67385 41806
L66755 41806
" />
<path d="M67325 42676
L67355 42646
L67385 42556
L67385 42496
L67355 42406
L67295 42346
L67235 42316
L67115 42286
L67025 42286
L66905 42316
L66845 42346
L66785 42406
L66755 42496
L66755 42556
L66785 42646
L66815 42676
" />
<text x="62060.8" y="56714.5"
transform="scale(-1 1) translate(-124121.601575 0)"
textLength="11065.8" font-size="839.894" lengthAdjust="spacingAndGlyphs"
text-anchor="start" opacity="0">Board by Leandro Heck</text>
<path d="M61639 56354
L61549 56384
L61519 56414
L61489 56474
L61489 56564
L61519 56624
L61549 56654
L61609 56684
L61849 56684
L61849 56054
L61639 56054
L61579 56084
L61549 56114
L61519 56174
L61519 56234
L61549 56294
L61579 56324
L61639 56354
L61849 56354
" />
<path d="M61129 56684
L61189 56654
L61219 56624
L61249 56564
L61249 56384
L61219 56324
L61189 56294
L61129 56264
L61039 56264
L60979 56294
L60949 56324
L60919 56384
L60919 56564
L60949 56624
L60979 56654
L61039 56684
L61129 56684
" />
<path d="M60379 56684
L60379 56354
L60409 56294
L60469 56264
L60589 56264
L60649 56294
" />
<path d="M60379 56654
L60439 56684
L60589 56684
L60649 56654
L60679 56594
L60679 56534
L60649 56474
L60589 56444
L60439 56444
L60379 56414
" />
<path d="M60079 56684
L60079 56264
" />
<path d="M60079 56384
L60049 56324
L60019 56294
L59959 56264
L59899 56264
" />
<path d="M59419 56684
L59419 56054
" />
<path d="M59419 56654
L59479 56684
L59599 56684
L59659 56654
L59689 56624
L59719 56564
L59719 56384
L59689 56324
L59659 56294
L59599 56264
L59479 56264
L59419 56294
" />
<path d="M58639 56684
L58639 56054
" />
<path d="M58639 56294
L58579 56264
L58459 56264
L58399 56294
L58369 56324
L58339 56384
L58339 56564
L58369 56624
L58399 56654
L58459 56684
L58579 56684
L58639 56654
" />
<path d="M58129 56264
L57979 56684
" />
<path d="M57829 56264
L57979 56684
L58039 56834
L58069 56864
L58129 56894
" />
<path d="M56810 56684
L57109 56684
L57109 56054
" />
<path d="M56360 56654
L56420 56684
L56540 56684
L56600 56654
L56630 56594
L56630 56354
L56600 56294
L56540 56264
L56420 56264
L56360 56294
L56330 56354
L56330 56414
L56630 56474
" />
<path d="M55790 56684
L55790 56354
L55820 56294
L55880 56264
L56000 56264
L56060 56294
" />
<path d="M55790 56654
L55850 56684
L56000 56684
L56060 56654
L56090 56594
L56090 56534
L56060 56474
L56000 56444
L55850 56444
L55790 56414
" />
<path d="M55490 56264
L55490 56684
" />
<path d="M55490 56324
L55460 56294
L55400 56264
L55310 56264
L55250 56294
L55220 56354
L55220 56684
" />
<path d="M54650 56684
L54650 56054
" />
<path d="M54650 56654
L54710 56684
L54830 56684
L54890 56654
L54920 56624
L54950 56564
L54950 56384
L54920 56324
L54890 56294
L54830 56264
L54710 56264
L54650 56294
" />
<path d="M54350 56684
L54350 56264
" />
<path d="M54350 56384
L54320 56324
L54290 56294
L54230 56264
L54170 56264
" />
<path d="M53870 56684
L53930 56654
L53960 56624
L53990 56564
L53990 56384
L53960 56324
L53930 56294
L53870 56264
L53780 56264
L53720 56294
L53690 56324
L53660 56384
L53660 56564
L53690 56624
L53720 56654
L53780 56684
L53870 56684
" />
<path d="M52910 56684
L52910 56054
" />
<path d="M52910 56354
L52550 56354
" />
<path d="M52550 56684
L52550 56054
" />
<path d="M52010 56654
L52070 56684
L52190 56684
L52250 56654
L52280 56594
L52280 56354
L52250 56294
L52190 56264
L52070 56264
L52010 56294
L51980 56354
L51980 56414
L52280 56474
" />
<path d="M51440 56654
L51500 56684
L51620 56684
L51680 56654
L51710 56624
L51740 56564
L51740 56384
L51710 56324
L51680 56294
L51620 56264
L51500 56264
L51440 56294
" />
<path d="M51170 56684
L51170 56054
" />
<path d="M51110 56444
L50930 56684
" />
<path d="M50930 56264
L51170 56504
" />
<text x="62060.8" y="57753.9"
transform="scale(-1 1) translate(-124121.601575 0)"
textLength="9146.01" font-size="839.894" lengthAdjust="spacingAndGlyphs"
text-anchor="start" opacity="0">leoheck@gmail.com</text>
<path d="M61759 57723
L61819 57693
L61849 57633
L61849 57093
" />
<path d="M61279 57693
L61339 57723
L61459 57723
L61519 57693
L61549 57633
L61549 57393
L61519 57333
L61459 57303
L61339 57303
L61279 57333
L61249 57393
L61249 57453
L61549 57513
" />
<path d="M60889 57723
L60949 57693
L60979 57663
L61009 57603
L61009 57423
L60979 57363
L60949 57333
L60889 57303
L60799 57303
L60739 57333
L60709 57363
L60679 57423
L60679 57603
L60709 57663
L60739 57693
L60799 57723
L60889 57723
" />
<path d="M60409 57723
L60409 57093
" />
<path d="M60139 57723
L60139 57393
L60169 57333
L60229 57303
L60319 57303
L60379 57333
L60409 57363
" />
<path d="M59599 57693
L59659 57723
L59779 57723
L59839 57693
L59869 57633
L59869 57393
L59839 57333
L59779 57303
L59659 57303
L59599 57333
L59569 57393
L59569 57453
L59869 57513
" />
<path d="M59029 57693
L59089 57723
L59209 57723
L59269 57693
L59299 57663
L59329 57603
L59329 57423
L59299 57363
L59269 57333
L59209 57303
L59089 57303
L59029 57333
" />
<path d="M58759 57723
L58759 57093
" />
<path d="M58699 57483
L58519 57723
" />
<path d="M58519 57303
L58759 57543
" />
<path d="M57859 57423
L57889 57393
L57949 57363
L58009 57363
L58069 57393
L58099 57423
L58129 57483
L58129 57543
L58099 57603
L58069 57633
L58009 57663
L57949 57663
L57889 57633
L57859 57603
" />
<path d="M57859 57363
L57859 57603
L57829 57633
L57799 57633
L57739 57603
L57709 57543
L57709 57393
L57769 57303
L57859 57243
L57979 57213
L58099 57243
L58189 57303
L58249 57393
L58279 57513
L58249 57633
L58189 57723
L58099 57783
L57979 57813
L57859 57783
L57769 57723
" />
<path d="M57169 57303
L57169 57813
L57199 57873
L57229 57903
L57289 57933
L57379 57933
L57439 57903
" />
<path d="M57169 57693
L57229 57723
L57349 57723
L57409 57693
L57439 57663
L57469 57603
L57469 57423
L57439 57363
L57409 57333
L57349 57303
L57229 57303
L57169 57333
" />
<path d="M56870 57723
L56870 57303
" />
<path d="M56870 57363
L56840 57333
L56780 57303
L56690 57303
L56630 57333
L56600 57393
L56600 57723
" />
<path d="M56600 57393
L56570 57333
L56510 57303
L56420 57303
L56360 57333
L56330 57393
L56330 57723
" />
<path d="M55760 57723
L55760 57393
L55790 57333
L55850 57303
L55970 57303
L56030 57333
" />
<path d="M55760 57693
L55820 57723
L55970 57723
L56030 57693
L56060 57633
L56060 57573
L56030 57513
L55970 57483
L55820 57483
L55760 57453
" />
<path d="M55460 57723
L55460 57303
" />
<path d="M55460 57093
L55490 57123
L55460 57153
L55430 57123
L55460 57093
L55460 57153
" />
<path d="M55070 57723
L55130 57693
L55160 57633
L55160 57093
" />
<path d="M54830 57663
L54800 57693
L54830 57723
L54860 57693
L54830 57663
L54830 57723
" />
<path d="M54260 57693
L54320 57723
L54440 57723
L54500 57693
L54530 57663
L54560 57603
L54560 57423
L54530 57363
L54500 57333
L54440 57303
L54320 57303
L54260 57333
" />
<path d="M53900 57723
L53960 57693
L53990 57663
L54020 57603
L54020 57423
L53990 57363
L53960 57333
L53900 57303
L53810 57303
L53750 57333
L53720 57363
L53690 57423
L53690 57603
L53720 57663
L53750 57693
L53810 57723
L53900 57723
" />
<path d="M53420 57723
L53420 57303
" />
<path d="M53420 57363
L53390 57333
L53330 57303
L53240 57303
L53180 57333
L53150 57393
L53150 57723
" />
<path d="M53150 57393
L53120 57333
L53060 57303
L52970 57303
L52910 57333
L52880 57393
L52880 57723
" />
</g>
<g style="fill:#000000; fill-opacity:0.0; 
stroke:#000000; stroke-width:78.7402; stroke-opacity:1; 
stroke-linecap:round; stroke-linejoin:round;">
<path d="M11509.6 57352.3 A2362.2 2362.2 0.0 0 0 13871.8 59714.5" />
<path d="M13871.8 23100.3 A2362.2 2362.2 0.0 0 0 11509.6 25462.5" />
<path d="M68202.5 25462.5 A2362.2 2362.2 0.0 0 0 65840.3 23100.3" />
<path d="M65840.3 59714.5 A2362.21 2362.21 0.0 0 0 68202.5 57352.3" />
<path d="M13871 59714
L65840 59714
" />
<path d="M11509 25462
L11509 57352
" />
<path d="M65840 23100
L13871 23100
" />
<path d="M68202 57352
L68202 25462
" />
</g>
<g style="fill:#000000; fill-opacity:0.0; 
stroke:#000000; stroke-width:94.4882; stroke-opacity:1; 
stroke-linecap:round; stroke-linejoin:round;">
<path d="M31973 53994
L32384 53994
" />
<path d="M31973 52836
L32384 52836
" />
</g>
<g style="fill:#000000; fill-opacity:1.0; 
stroke:#000000; stroke-width:7.87402; stroke-opacity:1; 
stroke-linecap:round; stroke-linejoin:round;">
<path style="fill:#000000; fill-opacity:1.0; 
stroke:#000000; stroke-width:7.87402; stroke-opacity:1; 
stroke-linecap:round; stroke-linejoin:round;fill-rule:evenodd;"
d="M 49894.9,48777.7
49904.6,48873
49915.5,48887.8
50009.5,48935.9
50103.9,48911.2
50152,48830.8
50151,48801.4
50097.2,48707
50054.8,48683.2
49955.1,48699.6
Z" /> 
<path style="fill:#000000; fill-opacity:1.0; 
stroke:#000000; stroke-width:7.87402; stroke-opacity:1; 
stroke-linecap:round; stroke-linejoin:round;fill-rule:evenodd;"
d="M 49823.1,49182.4
49808.4,49226.1
49851.8,49295.7
49947.5,49346.4
50036.9,49347.8
50039.8,49346.2
50078.7,49280.3
50093.9,49221.6
50075.3,49111.6
49989.2,49076
49900.9,49105.7
Z" /> 
<path style="fill:#000000; fill-opacity:1.0; 
stroke:#000000; stroke-width:7.87402; stroke-opacity:1; 
stroke-linecap:round; stroke-linejoin:round;fill-rule:evenodd;"
d="M 50375.1,48843.5
50312.1,48943.6
50331.2,49017.6
50420.2,49080.9
50503.9,49066.7
50580.6,49014.4
50568.7,48931.8
50547.7,48892.6
50479.8,48809.2
50406.1,48821.3
Z" /> 
<path style="fill:#000000; fill-opacity:1.0; 
stroke:#000000; stroke-width:7.87402; stroke-opacity:1; 
stroke-linecap:round; stroke-linejoin:round;fill-rule:evenodd;"
d="M 52777.2,49110.2
52791.2,49222.6
52794.8,49229.1
52873.3,49283.8
52965.3,49262.8
53027.2,49185.7
53032.1,49121.8
52977,49029.6
52936.6,49008.1
52834.5,49025
Z" /> 
<path style="fill:#000000; fill-opacity:1.0; 
stroke:#000000; stroke-width:7.87402; stroke-opacity:1; 
stroke-linecap:round; stroke-linejoin:round;fill-rule:evenodd;"
d="M 48808.7,51443.3
48822.1,51532.7
48895.1,51581.6
49015.4,51599.7
49073.8,51534.6
49075.6,51528
49062.5,51422.9
48989.9,51352.4
48896.4,51353.5
48894,51354.9
Z" /> 
<path style="fill:#000000; fill-opacity:1.0; 
stroke:#000000; stroke-width:7.87402; stroke-opacity:1; 
stroke-linecap:round; stroke-linejoin:round;fill-rule:evenodd;"
d="M 48597.3,51774.4
48596,51777.7
48594.6,51886
48624.6,51932.1
48721.8,51951.8
48821.5,51903.1
48869.2,51812.5
48869.2,51812.1
48824.4,51743
48752.4,51708.7
48650.5,51702.7
Z" /> 
<path style="fill:#000000; fill-opacity:1.0; 
stroke:#000000; stroke-width:7.87402; stroke-opacity:1; 
stroke-linecap:round; stroke-linejoin:round;fill-rule:evenodd;"
d="M 53214.3,49192.5
53233,49265.9
53315.9,49327.7
53413.4,49317.8
53468.1,49250.9
53455.1,49162.3
53429.5,49106.1
53363.8,49052.3
53277.2,49092.4
Z" /> 
<path style="fill:#000000; fill-opacity:1.0; 
stroke:#000000; stroke-width:7.87402; stroke-opacity:1; 
stroke-linecap:round; stroke-linejoin:round;fill-rule:evenodd;"
d="M 53112.6,49572
53131.4,49645.3
53214.2,49707.1
53311.8,49697.3
53366.4,49630.3
53353.4,49541.7
53327.8,49485.6
53262.1,49431.8
53175.6,49471.9
Z" /> 
<path style="fill:#000000; fill-opacity:1.0; 
stroke:#000000; stroke-width:7.87402; stroke-opacity:1; 
stroke-linecap:round; stroke-linejoin:round;fill-rule:evenodd;"
d="M 48860.2,52066.3
48885,52177.4
48923.3,52220
49012.6,52238.8
49099.9,52186.2
49139.7,52092.9
49138.3,52074.1
49084.1,51964.7
48980,51952.9
48930.6,51975.3
Z" /> 
<path style="fill:#000000; fill-opacity:1.0; 
stroke:#000000; stroke-width:7.87402; stroke-opacity:1; 
stroke-linecap:round; stroke-linejoin:round;fill-rule:evenodd;"
d="M 50605.3,53563.8
50615,53659
50625.9,53673.8
50719.9,53721.9
50814.3,53697.2
50862.4,53616.8
50861.4,53587.4
50807.6,53493
50765.2,53469.2
50665.5,53485.6
Z" /> 
<path style="fill:#000000; fill-opacity:1.0; 
stroke:#000000; stroke-width:7.87402; stroke-opacity:1; 
stroke-linecap:round; stroke-linejoin:round;fill-rule:evenodd;"
d="M 53653.8,51953.8
53672.6,52027.2
53755.4,52089
53853,52079.1
53907.6,52012.2
53894.6,51923.6
53869,51867.4
53803.3,51813.6
53716.8,51853.7
Z" /> 
<path style="fill:#000000; fill-opacity:1.0; 
stroke:#000000; stroke-width:7.87402; stroke-opacity:1; 
stroke-linecap:round; stroke-linejoin:round;fill-rule:evenodd;"
d="M 50795.7,53889.7
50818,53990.1
50859.1,54031.5
50964,54062.2
51049.2,54007.1
51064.2,53972.3
51051.1,53867.2
50978.4,53796.7
50885,53797.8
50882.5,53799.2
Z" /> 
<path style="fill:#000000; fill-opacity:1.0; 
stroke:#000000; stroke-width:7.87402; stroke-opacity:1; 
stroke-linecap:round; stroke-linejoin:round;fill-rule:evenodd;"
d="M 51083.4,53724.9
51108.7,53826
51147.8,53864.8
51245.8,53890.8
51340.4,53850.1
51381.9,53766.6
51380.6,53752.3
51321.4,53641.4
51216.9,53615.7
51167.2,53634.9
Z" /> 
<path style="fill:#000000; fill-opacity:1.0; 
stroke:#000000; stroke-width:7.87402; stroke-opacity:1; 
stroke-linecap:round; stroke-linejoin:round;fill-rule:evenodd;"
d="M 53766.4,52261.6
53767.5,52271.1
53746.9,52324.2
53648.9,52340.9
53533.7,52380.3
53486.3,52463.5
53517,52551.8
53582.4,52593.3
53700,52613
53759.5,52546.4
53775,52481.3
53814.3,52397
53894.3,52390.9
53982.3,52378.6
54027.1,52289.1
54027.7,52181.6
53995.9,52136.2
53900,52131.6
53806.4,52183.4
Z" /> 
<path style="fill:#000000; fill-opacity:1.0; 
stroke:#000000; stroke-width:7.87402; stroke-opacity:1; 
stroke-linecap:round; stroke-linejoin:round;fill-rule:evenodd;"
d="M 50627.7,48528.8
50615.9,48643.2
50670.7,48791.6
50781.3,48902.1
50912.1,48940.7
50925.9,48939.2
50973.5,48949
51032.5,49002.1
51113.6,49112.8
51227.2,49295.1
51361.7,49524.6
51504.5,49773.6
51597.5,49943.5
51646.8,50051.2
51658.5,50113.3
51639,50146.8
51598.2,50167
51543.6,50172.9
51524.7,50165.8
51333.1,50276.4
51311.8,50322.5
51227.1,50387.7
51063.7,50487
51012,50517
50836,50614
50701.5,50679.5
50632.7,50701.8
50629,50700
50607.8,50627.5
50576.1,50477.7
50538.3,50277.1
50499.1,50052.6
50462.8,49831
50434.1,49638.8
50417.4,49502.9
50417.2,49450.1
50464.8,49479.7
50574.5,49568.6
50727,49700
50903.4,49857
51084.7,50022.9
51251.7,50181
51306.7,50234.6
51333.1,50276.4
51524.7,50165.8
51470.3,50145.3
51364.9,50074.7
51213.9,49951.4
51004.2,49765.8
50855.3,49630.4
50636.3,49432.1
50446.9,49264.8
50301.6,49140.9
50215.1,49073.1
50197.8,49064.2
50199.4,49120.3
50219.7,49266.6
50255.8,49484.1
50304.5,49754
50337.6,49928.5
50399,50252.5
50438.8,50485.3
50457.7,50644.4
50456.7,50747.6
50436.7,50812.3
50398.4,50856.3
50383.1,50868.3
50264.3,50957.2
49933.4,50384.1
49792,50135.5
49700.3,49961.6
49650.3,49842.3
49633.9,49757.2
49643.2,49686.2
49648.5,49668.4
49655,49508.8
49629,49444.5
49532.7,49500.1
49526,49615.7
49434.3,49722.2
49312.9,49729.1
49247.3,49691.2
49198.9,49592.9
49222,49478.4
49302.2,49401.5
49326.7,49394.9
49457.5,49414.6
49532.7,49500.1
49629,49444.5
49593.3,49356.3
49484.2,49256.9
49456.4,49246.8
49322.8,49256.4
49184.5,49329.1
49082.7,49436.2
49055.1,49525.6
49103.7,49718.7
49232.2,49836.5
49311.7,49862.8
49380.2,49885.8
49444.8,49933.9
49518.9,50024.2
49616.2,50173.9
49750,50400
49787.2,50464.2
50116.3,51034.1
49529.3,51373
49280.8,51518.9
49119.4,51620.6
49034.2,51686.1
49014.3,51723.5
49036,51738
49124.6,51752.6
49299.8,51773.7
49537.4,51798.7
49813.2,51824.9
49854.3,51828.6
50130.3,51858.1
50368.2,51892.8
50544.9,51928.8
50637.4,51962
50642.8,51966.7
50665,52013.1
50634.8,52064.1
50536.2,52135.9
50382.9,52227.3
50211.8,52324.6
50117.5,52368.8
50084.3,52362.9
49955,52437.5
49958.1,52469.2
49932.6,52487.3
49847.2,52490
49830.5,52482.9
49822.5,52451
49864.9,52437.8
49955,52437.5
50084.3,52362.9
50080.8,52362.3
50082.5,52307.6
50091.3,52265.1
50106.5,52157.7
50092.1,52138.6
49963,52213.2
49973.7,52269.5
49969.6,52273.5
49909,52263.5
49890.9,52254.8
49874,52218.8
49791.1,52266.7
49794.9,52300.3
49776.3,52379.9
49742.3,52385.4
49738,52378.9
49748.7,52318.5
49761.5,52291.3
49791.1,52266.7
49874,52218.8
49869.1,52208.3
49884.3,52194.5
49953.4,52201.1
49963,52213.2
50092.1,52138.6
50068.3,52106.8
49964.3,52073.4
49809.1,52074.5
49686.1,52147.7
49610.6,52264.9
49598,52397.5
49663.6,52517.3
49706.1,52549.8
49810.2,52676.8
49832.8,52757.5
49903.6,52905.5
50036.5,52980.3
50199.7,52968.3
50256.7,52941.7
50367.5,52833.2
50389.6,52707.5
50329.4,52613.2
50220.7,52676
50245.2,52725.9
50228.3,52807.5
50195.4,52848.8
50166.9,52828.4
50171.4,52772.9
50189.6,52723.8
50048.3,52805.4
50053.6,52855.2
50034.8,52856
49996.1,52802.2
49997.8,52791.8
50030.2,52781.9
50048.3,52805.4
50189.6,52723.8
50202,52690.4
50220.7,52676
50329.4,52613.2
50319.5,52597.6
50295.1,52581.1
50251.4,52543.3
50259.1,52523.3
50027,52657.3
50016.8,52695.3
49978.9,52685.1
49989.1,52647.2
50027,52657.3
50259.1,52523.3
50267.9,52500.5
50359,52435.2
50467.8,52370.8
50616.8,52292.6
50722.4,52251.9
50755.2,52252.9
50772.8,52318.8
50805.6,52471.3
50848.8,52687.6
50897.7,52944.4
50947.4,53189.6
50994.2,53381.4
51033,53501.5
51058.7,53531.5
51059.8,53529.8
51111.3,53431.8
51176.7,53298.1
51237.8,53181.3
51280.8,53120.4
51282,53119.5
51324.3,53152.3
51396.7,53254.3
51429,53307.9
51502.6,53469.9
51502.4,53589.6
51485.8,53628.5
51462.1,53775.3
51523.6,53915.1
51648,54013.6
51751.7,54039
51903.9,54019.1
52005.7,53929.5
52067.9,53755.3
52093.3,53580.2
52105.1,53505.3
51871.1,53640.4
51917,53751.8
51882.1,53847.2
51814.2,53891.3
51704.3,53899.4
51627.4,53818.2
51596.6,53703.8
51657.6,53619.9
51773.2,53582.9
51871.1,53640.4
52105.1,53505.3
52124,53385.1
52177.3,53266.9
52265,53193.5
52393.2,53155.3
52472.7,53204.8
52497.8,53327.3
52463,53508.1
52424.3,53609.2
52308.1,53874.3
52737.6,53624.1
53167.2,53374
52901.6,53330.8
52688,53269.6
52570.2,53173.4
52569.4,53171.9
52538.5,53064.2
52600.9,53014
52753.9,53023.2
52788.5,53030.8
52960.2,53071.1
52816.5,52822.2
52711.9,52663
52638.4,52606.6
52590.1,52650.6
52570.1,52728.7
52523.5,52837.1
52485.6,52873.7
52323.1,52967.5
52193.9,53042.1
52046.6,53083.6
51892.9,53076.4
51721.1,53036.1
51978.2,53481.3
51793.5,53439.3
51654.8,53385.8
51547.4,53279.6
51479.6,53173.2
51424.7,53065.3
51400.1,52964.5
51410.4,52849.9
51460.6,52700.9
51555.3,52496.7
51699.5,52216.4
51700.7,52214
51789.8,52044
52323.1,52967.5
52485.6,52873.7
52439.9,52870.7
52375.5,52806.6
52281.7,52667.9
52169.3,52479
52062,52286.7
51984.2,52134.4
51946.9,52044.6
51946.8,52030.1
52011.2,52027.6
52157.6,52035.3
52357.4,52051.4
52411,52056.4
52847.7,52098.5
52987.9,52341.4
53072.7,52512.2
53095.7,52644.4
53072.2,52765.2
53049.4,52964.5
53117.7,53102.5
53271.7,53171.7
53386.5,53177.9
53507.6,53167
53571.6,53125.6
53613.2,53021.6
53632.3,52952.3
53662.3,52801.6
53636.9,52709.5
53617.2,52696.4
53486.6,52771.8
53532.5,52883.2
53497.6,52978.6
53429.7,53022.7
53319.7,53030.8
53242.9,52949.7
53212.1,52835.3
53273,52751.4
53388.7,52714.4
53486.6,52771.8
53617.2,52696.4
53536.7,52643
53420.7,52597.6
53255.5,52512.6
53146.5,52378.8
53115.4,52318.6
53017.6,52114.9
53274.2,52134.1
53428,52137.7
53525.4,52124.9
53541.5,52113.4
53506.7,52063
53404.1,51956
53347.7,51902.1
53221.5,51975
53186.7,51988.7
53081,51985.3
52969.3,51967
52885.6,51910.3
52798.6,51789.4
52755.3,51716.3
52676.1,51571
52630.7,51471.8
52626.8,51447.4
52510.6,51514.5
52761.6,51949.3
52363.9,51920.3
52161.3,51902.5
52002.5,51883.2
51920,51866.2
51918,51865.2
51919.6,51825.3
51631.4,51991.7
51615.5,52048.8
51562.8,52173.5
51488,52334.7
51406.1,52501.8
51331.8,52643.9
51280.2,52730.1
51269.3,52742
51226.5,52707.7
51191,52651.8
51081.9,52714.8
51163.8,52891.2
51164.2,53020
51158.8,53034.1
51112.8,53119.4
51091.3,53139.1
51071.9,53086.5
51041.3,52955.8
51014.4,52819.8
50956.5,52505.6
51081.9,52714.8
51191,52651.8
51152.8,52591.8
51061,52415
51044.3,52380
50958.9,52192.3
50897.4,52046
50870.9,51967.6
50870.7,51962.3
50923.9,51952.8
51052.9,51950.5
51222.5,51954.3
51397.7,51962.6
51543.5,51974.2
51624.9,51987.7
51631.4,51991.7
51919.6,51825.3
51920.2,51809.7
51958.3,51685
52019.7,51521.9
52091.8,51351.2
52161.9,51203.9
52217.4,51110.5
52233.1,51095
52270.4,51132.8
52348.3,51246.9
52453.2,51416.7
52510.6,51514.5
52626.8,51447.4
52626.4,51445.3
52674.1,51473.8
52776,51560
52875.2,51652.1
53015.3,51784.5
53131.9,51891.2
53180.2,51933
53221.5,51975
53347.7,51902.1
53249.9,51808.8
53078.4,51653.3
52888.2,51483.1
52730.6,51339.3
52623.1,51238.2
52583.9,51197.1
52616.7,51152.9
52723,51074.2
52855.2,50992.4
53014.5,50903.3
53098,50868.6
53124.7,50885.1
53114.3,50946.8
53115.8,51090.7
53202.8,51171.6
53360.4,51177.4
53483.1,51134.5
53546.7,51039.8
53564.9,50980.6
53568.4,50957.6
53387.4,51062.1
53338.8,51059.3
53328.9,51056.8
53254.5,51015.7
53246.2,50989.5
53290.3,50983.3
53340.3,51014.3
53387.4,51062.1
53568.4,50957.6
53584.2,50851.6
53557.2,50798
53464.5,50851.4
53468.4,50885.1
53449.7,50964.7
53415.8,50970.2
53411.4,50963.7
53422.1,50903.3
53434.9,50876.1
53464.5,50851.4
53557.2,50798
53538.8,50761.4
53502.7,50728.7
53375.7,50802
53321.7,50819.8
53310.6,50821.6
53229.6,50817.5
53216.7,50796.1
53270.7,50772.1
53321.9,50779.1
53375.7,50802
53502.7,50728.7
53471.9,50700.9
53380.1,50604.1
53362.4,50535.7
53361.8,50475.4
53235.7,50548.2
53225.5,50586.2
53187.6,50576
53197.7,50538.1
53235.7,50548.2
53361.8,50475.4
53361.4,50437.5
53331.6,50392.5
53228.5,50452
53223.7,50458.9
53160.3,50450.4
53142.2,50441.8
53103.9,50403.9
53108.7,50397
53172.2,50405.5
53190.3,50414.1
53228.5,50452
53331.6,50392.5
53292.5,50333.5
53244.3,50301.6
53011.7,50435.9
53025.4,50477.2
53027.8,50560.2
53020.5,50576.2
52981,50546.7
52959.9,50515
52948.1,50436.4
52964.8,50415.9
53011.7,50435.9
53244.3,50301.6
53188.5,50264.5
53135.1,50255.7
52967.8,50293.2
52851.4,50377.7
52799.9,50485.3
52827.6,50591.8
52901.7,50653.2
52957.5,50689
52959.1,50723.9
52892.2,50773.7
52742.7,50854.3
52704.6,50874
52517.7,50961.8
52406.1,50990.7
52354.3,50966.2
52363.1,50894.4
52396.7,50793.1
52082.5,50974.5
52103.1,51042.8
52097.9,51057.2
52054.9,51140.8
51981.9,51288.9
51915,51427.4
51769.6,51731.2
51643.9,51548.2
51564.4,51405.2
51557.7,51293.2
51578.8,51234.9
51597.9,51080.8
51534.8,50934.9
51531,50931.6
51432,50988.8
51459.3,51112.3
51451.6,51150.3
51383.6,51252.7
51280.1,51263.6
51177.1,51183.1
51132.9,51059.6
51174.1,50961.8
51282.5,50923.9
51313.5,50927
51432,50988.8
51531,50931.6
51415,50830.2
51264,50799.8
51246.1,50802.4
51081.2,50874.9
51004.7,51014
51009.1,51189.5
51045,51301.4
51123.4,51358.6
51235,51386.2
51391.4,51440.4
51503.7,51553.6
51544,51618.1
51608.2,51742.9
51632.8,51819.4
51629.7,51828.3
51565.1,51832.1
51420.1,51827.7
51225.2,51816
51210.3,51815
50817.6,51786.3
50665.3,50960.2
50526.1,51040.6
50557.1,51131.7
50589.5,51274.1
50621.6,51435.1
50637.5,51542.4
50636.6,51567.7
50603.1,51529.3
50533.8,51421.7
50482.8,51335.7
50404.5,51187.7
50384.9,51102.8
50419.3,51052.5
50435.7,51042.1
50199.6,51178.5
50535.7,51760.7
50079.9,51721.2
49853.1,51699.9
49659.4,51678.7
49533.3,51661.5
49516.7,51658.3
49477.2,51638.9
49496.7,51601.8
49587.4,51536.2
49761.7,51431.4
49804.4,51406.7
50199.6,51178.5
50435.7,51042.1
50490.5,51018.1
50526.1,51040.6
50665.3,50960.2
50656.9,50915.1
51527.4,50411.9
51831.4,50701.3
51995.4,50865.3
52082.5,50974.5
52396.7,50793.1
52413.6,50742.2
52498.3,50528.9
52609.9,50273.6
52670.7,50142
52922.8,49606.2
52717.4,49724.8
52477.9,50245
52377.5,50461.7
52295.6,50636.1
52242.4,50746.5
52227.6,50774.4
52196.7,50735.6
52127.3,50625.4
52050.2,50494.9
52001.6,50410.7
51901.7,50468.4
52016.1,50675
51854,50544
51741.9,50449.9
51672.9,50385.6
51667.5,50379.1
51684.5,50326.7
51715.1,50303.5
51779.5,50304.2
51854.9,50389.5
51901.7,50468.4
52001.6,50410.7
51883.5,50206.3
52717.4,49724.8
52922.8,49606.2
53026.4,49386
51798.5,50059
51474.5,49497.8
51336.1,49255.7
51246.2,49086.9
51196.6,48968.8
51179.4,48879.1
51186.5,48795.2
51200.6,48731.8
51220.3,48565.6
51208.7,48537
51080.3,48611.2
51067.5,48722.1
50985.3,48788.8
50875.3,48796.9
50798.5,48715.8
50767.7,48601.4
50828.6,48517.5
50940.2,48476.3
51000.8,48498.2
51080.3,48611.2
51208.7,48537
51173.4,48449.7
51149.7,48422.8
51005.3,48336.9
50849,48334.7
50712.6,48403
Z" /> 
<path style="fill:#000000; fill-opacity:1.0; 
stroke:#000000; stroke-width:7.87402; stroke-opacity:1; 
stroke-linecap:round; stroke-linejoin:round;fill-rule:evenodd;"
d="M 49597.2,48595.8
49197.4,48933.1
48915.5,49237.5
48702,49543.3
48537,49885.2
48400.7,50298.3
48382.1,50366.1
48284.9,50802.2
48248.1,51185.2
48271.4,51555.3
48354.6,51952.5
48371.6,52014.8
48553.6,52516.3
48807.4,52953.9
49144.7,53353.7
49449.1,53635.6
49754.8,53849.1
50096.8,54014.1
50509.8,54150.4
50577.7,54169
51013.7,54266.2
51396.7,54303
51766.8,54279.7
52164.1,54196.5
52226.4,54179.5
52770.7,53974.2
53254.1,53678.2
53583,53393.2
53861.8,53086.6
54073.9,52773.7
54238.8,52420
54375.7,51991.3
54380.6,51973.4
54477.8,51537.4
54514.6,51154.4
54491.3,50784.3
54408.1,50387
54391,50324.7
54209.1,49823.3
54084.8,49608.9
53969.5,49675.5
54207.5,50192.9
54341.3,50728.9
54373.4,51271.2
54306.1,51807
54142.1,52324.1
53883.6,52809.8
53533.2,53251.7
53209.8,53548.1
52835.4,53790
52366.1,53994.8
52209.1,54047.9
51692.7,54156.2
51167.1,54161.9
50647.1,54071.2
50147.5,53890
49683.2,53624.4
49268.9,53280.2
48919.6,52863.6
48793.2,52664
48559.3,52153
48426.9,51618
48394.1,51073.7
48458.6,50534.6
48618.4,50015.3
48871.4,49530.2
49215.6,49094
49320.7,48989.5
49759.8,48645.9
50238.8,48398
50744.7,48244
51264.4,48181.9
51784.9,48209.9
52293.3,48325.9
52776.4,48528.2
53221.3,48814.7
53615,49183.5
53944.4,49632.8
53969.5,49675.5
54084.8,49608.9
53955.3,49385.6
53618,48985.8
53313.6,48704
53007.8,48490.5
52665.9,48325.5
52252.9,48189.1
52185,48170.6
51749,48073.3
51365.9,48036.5
50995.8,48059.8
50598.6,48143
50536.3,48160.1
50034.8,48342
Z" /> 
</g>
<g style="fill:#000000; fill-opacity:1.0; 
stroke:#000000; stroke-width:94.4882; stroke-opacity:1; 
stroke-linecap:round; stroke-linejoin:round;">
</g>
<g style="fill:#000000; fill-opacity:0.0; 
stroke:#000000; stroke-width:94.4882; stroke-opacity:1; 
stroke-linecap:round; stroke-linejoin:round;">
<path d="M34186 37564
L33139 37564
" />
<path d="M33139 37564
L33139 38612
" />
<path d="M33139 39612
L33139 41659
" />
<path d="M35234 41659
L33139 41659
" />
<path d="M35234 39612
L35234 41659
" />
<path d="M35234 39612
L33139 39612
" />
<path d="M34108 34714
L33005 34714
" />
<path d="M32454 35265
L32454 35738
" />
<path d="M33005 36289
L34108 36289
" />
<path d="M34659 35738
L34659 35265
" />
<path d="M34659.2 35265.7 A551.181 551.181 0.0 0 0 34108 34714.5" />
<path d="M34108 36289.3 A551.181 551.181 0.0 0 0 34659.2 35738.1" />
<path d="M32454.5 35738.1 A551.181 551.181 0.0 0 0 33005.7 36289.3" />
<path d="M33005.7 34714.5 A551.181 551.181 0.0 0 0 32454.5 35265.7" />
<path d="M54139 42438
L54139 41446
" />
<path d="M54139 37068
L54139 38060
" />
<path d="M57100 42438
L54139 42438
" />
<path d="M58871 37068
L54139 37068
" />
<path d="M54139 33777
L54139 32785
" />
<path d="M54139 28407
L54139 29399
" />
<path d="M57100 33777
L54139 33777
" />
<path d="M58871 28407
L54139 28407
" />
<path d="M51497 38187
L51497 37776
" />
<path d="M50340 38187
L50340 37776
" />
<path d="M51694 29526
L51694 29115
" />
<path d="M50537 29526
L50537 29115
" />
<path d="M37678 36298
L37678 35886
" />
<path d="M36521 36298
L36521 35886
" />
<path d="M27839 35686
L28250 35686
" />
<path d="M27839 34529
L28250 34529
" />
<path d="M19371 47124
L19371 46713
" />
<path d="M18214 47124
L18214 46713
" />
<path d="M43017 48091
L43017 48502
" />
<path d="M44174 48091
L44174 48502
" />
<path d="M57591 42915
L57179 42915
" />
<path d="M57591 44072
L57179 44072
" />
<path d="M43017 38839
L43017 39250
" />
<path d="M44174 38839
L44174 39250
" />
<path d="M26479 28427
L26067 28427
" />
<path d="M26479 29584
L26067 29584
" />
<path d="M24513 41989
L24513 42400
" />
<path d="M25671 41989
L25671 42400
" />
<path d="M18214 43170
L18214 43581
" />
<path d="M19371 43170
L19371 43581
" />
<path d="M44135 42400
L44135 41989
" />
<path d="M42978 42400
L42978 41989
" />
<path d="M37678 42400
L37678 41989
" />
<path d="M36521 42400
L36521 41989
" />
<path d="M30494 46537
L30083 46537
" />
<path d="M30494 47694
L30083 47694
" />
<path d="M57423 34253
L57012 34253
" />
<path d="M57423 35411
L57012 35411
" />
<g >
</g>
<g >
</g>
<g >
</g>
<g >
</g>
<g >
</g>
<g >
</g>
<g >
</g>
<g >
</g>
<g >
</g>
<g >
</g>
<g >
</g>
<g >
</g>
<g >
</g>
<g >
</g>
<g >
</g>
<g >
</g>
<g >
</g>
<g >
</g>
<g >
</g>
<g >
</g>
<g >
</g>
<g >
</g>
<g >
</g>
<g >
</g>
<g >
</g>
<g >
</g>
<g >
</g>
<g >
</g>
<g >
</g>
<g >
</g>
<g >
</g>
<g >
</g>
<g >
</g>
<g >
</g>
<g >
</g>
<g >
</g>
<g >
</g>
<g >
</g>
<g >
</g>
<g >
</g>
<g >
</g>
<g >
</g>
<g >
</g>
<g >
</g>
<g >
</g>
<g >
</g>
<g >
</g>
<g >
</g>
<g >
</g>
</g>
<g style="fill:#000000; fill-opacity:0.0; 
stroke:#000000; stroke-width:94.4882; stroke-opacity:1; 
stroke-linecap:round; stroke-linejoin:round;">
</g>
<g style="fill:#000000; fill-opacity:0.0; 
stroke:#000000; stroke-width:118.11; stroke-opacity:1; 
stroke-linecap:round; stroke-linejoin:round;">
<text x="29304.9" y="53809"
transform="scale(-1 1) translate(-58609.790551 0)"
textLength="1414.47" font-size="1049.87" lengthAdjust="spacingAndGlyphs"
text-anchor="middle" opacity="0">C8</text>
<path d="M29436 53696
L29473 53733
L29586 53771
L29661 53771
L29773 53733
L29848 53659
L29886 53584
L29923 53434
L29923 53321
L29886 53171
L29848 53096
L29773 53021
L29661 52984
L29586 52984
L29473 53021
L29436 53059
" />
<path d="M28986 53321
L29061 53284
L29098 53246
L29136 53171
L29136 53134
L29098 53059
L29061 53021
L28986 52984
L28836 52984
L28761 53021
L28723 53059
L28686 53134
L28686 53171
L28723 53246
L28761 53284
L28836 53321
L28986 53321
L29061 53359
L29098 53396
L29136 53471
L29136 53621
L29098 53696
L29061 53733
L28986 53771
L28836 53771
L28761 53733
L28723 53696
L28686 53621
L28686 53471
L28723 53396
L28761 53359
L28836 53321
" />
<text x="31982.1" y="41053.1"
transform="scale(-1 1) translate(-63964.121260 0)"
textLength="1271.28" font-size="1049.87" lengthAdjust="spacingAndGlyphs"
text-anchor="middle" opacity="0">DL</text>
<path d="M32506 41015
L32506 40228
L32319 40228
L32207 40265
L32132 40340
L32094 40415
L32057 40565
L32057 40678
L32094 40828
L32132 40903
L32207 40978
L32319 41015
L32506 41015
" />
<path d="M31344 41015
L31719 41015
L31719 40228
" />
<text x="31115.9" y="35856.2"
transform="scale(-1 1) translate(-62231.837795 0)"
textLength="1983.69" font-size="1049.87" lengthAdjust="spacingAndGlyphs"
text-anchor="middle" opacity="0">JP1</text>
<path d="M31772 35031
L31772 35593
L31809 35706
L31884 35781
L31997 35818
L32072 35818
" />
<path d="M31397 35818
L31397 35031
L31097 35031
L31022 35068
L30984 35106
L30947 35181
L30947 35293
L30984 35368
L31022 35406
L31097 35443
L31397 35443
" />
<path d="M30197 35818
L30647 35818
" />
<path d="M30422 35818
L30422 35031
L30497 35143
L30572 35218
L30647 35256
" />
<text x="53281.3" y="43533.4"
transform="scale(-1 1) translate(-106562.546457 0)"
textLength="1421.26" font-size="1049.87" lengthAdjust="spacingAndGlyphs"
text-anchor="middle" opacity="0">U2</text>
<path d="M53881 42708
L53881 43345
L53843 43420
L53806 43458
L53731 43495
L53581 43495
L53506 43458
L53468 43420
L53431 43345
L53431 42708
" />
<path d="M53093 42783
L53056 42745
L52981 42708
L52793 42708
L52718 42745
L52681 42783
L52643 42858
L52643 42933
L52681 43045
L53131 43495
L52643 43495
" />
<text x="53241.9" y="34911.4"
transform="scale(-1 1) translate(-106483.806299 0)"
textLength="1421.26" font-size="1049.87" lengthAdjust="spacingAndGlyphs"
text-anchor="middle" opacity="0">U3</text>
<path d="M53841 34086
L53841 34723
L53804 34798
L53766 34836
L53691 34873
L53541 34873
L53466 34836
L53429 34798
L53391 34723
L53391 34086
" />
<path d="M53091 34086
L52604 34086
L52866 34386
L52754 34386
L52679 34423
L52641 34461
L52604 34536
L52604 34723
L52641 34798
L52679 34836
L52754 34873
L52979 34873
L53054 34836
L53091 34798
" />
<g transform="rotate(-90 49501.7 38887.7)">
<text x="49501.7" y="39281.4"
transform="scale(-1 1) translate(-99003.491339 0)"
textLength="2133.67" font-size="1049.87" lengthAdjust="spacingAndGlyphs"
text-anchor="middle" opacity="0">C14</text>
</g>
<path d="M49782 38381
L49820 38344
L49857 38231
L49857 38156
L49820 38044
L49745 37969
L49670 37931
L49520 37894
L49408 37894
L49258 37931
L49183 37969
L49108 38044
L49070 38156
L49070 38231
L49108 38344
L49145 38381
" />
<path d="M49857 39131
L49857 38681
" />
<path d="M49857 38906
L49070 38906
L49183 38831
L49258 38756
L49295 38681
" />
<path d="M49333 39806
L49857 39806
" />
<path d="M49033 39618
L49595 39431
L49595 39918
" />
<g transform="rotate(-90 49619.9 30305.1)">
<text x="49619.9" y="30698.8"
transform="scale(-1 1) translate(-99239.711811 0)"
textLength="2133.67" font-size="1049.87" lengthAdjust="spacingAndGlyphs"
text-anchor="middle" opacity="0">C16</text>
</g>
<path d="M49901 29798
L49938 29761
L49976 29648
L49976 29573
L49938 29461
L49863 29386
L49788 29348
L49638 29311
L49526 29311
L49376 29348
L49301 29386
L49226 29461
L49188 29573
L49188 29648
L49226 29761
L49263 29798
" />
<path d="M49976 30548
L49976 30098
" />
<path d="M49976 30323
L49188 30323
L49301 30248
L49376 30173
L49413 30098
" />
<path d="M49188 31223
L49188 31073
L49226 30998
L49263 30961
L49376 30886
L49526 30848
L49826 30848
L49901 30886
L49938 30923
L49976 30998
L49976 31148
L49938 31223
L49901 31261
L49826 31298
L49638 31298
L49563 31261
L49526 31223
L49488 31148
L49488 30998
L49526 30923
L49563 30886
L49638 30848
" />
<g transform="rotate(-90 35761.6 36092.5)">
<text x="35761.6" y="36486.2"
transform="scale(-1 1) translate(-71523.176378 0)"
textLength="2133.67" font-size="1049.87" lengthAdjust="spacingAndGlyphs"
text-anchor="middle" opacity="0">C12</text>
</g>
<path d="M36042 35586
L36080 35548
L36117 35436
L36117 35361
L36080 35248
L36005 35173
L35930 35136
L35780 35098
L35667 35098
L35517 35136
L35442 35173
L35367 35248
L35330 35361
L35330 35436
L35367 35548
L35405 35586
" />
<path d="M36117 36336
L36117 35886
" />
<path d="M36117 36111
L35330 36111
L35442 36036
L35517 35961
L35555 35886
" />
<path d="M35405 36636
L35367 36673
L35330 36748
L35330 36936
L35367 37011
L35405 37048
L35480 37086
L35555 37086
L35667 37048
L36117 36598
L36117 37086
" />
<text x="26627.7" y="37116.1"
transform="scale(-1 1) translate(-53255.459843 0)"
textLength="2133.67" font-size="1049.87" lengthAdjust="spacingAndGlyphs"
text-anchor="middle" opacity="0">C11</text>
<path d="M27133 37003
L27171 37041
L27283 37078
L27358 37078
L27471 37041
L27546 36966
L27583 36891
L27621 36741
L27621 36628
L27583 36478
L27546 36403
L27471 36328
L27358 36291
L27283 36291
L27171 36328
L27133 36366
" />
<path d="M26384 37078
L26833 37078
" />
<path d="M26608 37078
L26608 36291
L26683 36403
L26758 36478
L26833 36516
" />
<path d="M25634 37078
L26084 37078
" />
<path d="M25859 37078
L25859 36291
L25934 36403
L26009 36478
L26084 36516
" />
<g transform="rotate(-90 18793.1 49950.7)">
<text x="18793.1" y="50344.4"
transform="scale(-1 1) translate(-37586.168504 0)"
textLength="2133.67" font-size="1049.87" lengthAdjust="spacingAndGlyphs"
text-anchor="middle" opacity="0">C10</text>
</g>
<path d="M19074 49444
L19111 49407
L19149 49294
L19149 49219
L19111 49107
L19036 49032
L18961 48994
L18811 48957
L18699 48957
L18549 48994
L18474 49032
L18399 49107
L18361 49219
L18361 49294
L18399 49407
L18436 49444
" />
<path d="M19149 50194
L19149 49744
" />
<path d="M19149 49969
L18361 49969
L18474 49894
L18549 49819
L18586 49744
" />
<path d="M18361 50681
L18361 50756
L18399 50831
L18436 50869
L18511 50906
L18661 50944
L18849 50944
L18999 50906
L19074 50869
L19111 50831
L19149 50756
L19149 50681
L19111 50606
L19074 50569
L18999 50531
L18849 50494
L18661 50494
L18511 50531
L18436 50569
L18399 50606
L18361 50681
" />
<g transform="rotate(-90 43832.5 51368)">
<text x="43832.5" y="51761.7"
transform="scale(-1 1) translate(-87664.908661 0)"
textLength="1383.76" font-size="1049.87" lengthAdjust="spacingAndGlyphs"
text-anchor="middle" opacity="0">C9</text>
</g>
<path d="M44113 51236
L44151 51199
L44188 51086
L44188 51011
L44151 50899
L44076 50824
L44001 50786
L43851 50749
L43738 50749
L43588 50786
L43513 50824
L43438 50899
L43401 51011
L43401 51086
L43438 51199
L43476 51236
" />
<path d="M44188 51611
L44188 51761
L44151 51836
L44113 51874
L44001 51949
L43851 51986
L43551 51986
L43476 51949
L43438 51911
L43401 51836
L43401 51686
L43438 51611
L43476 51574
L43551 51536
L43738 51536
L43813 51574
L43851 51611
L43888 51686
L43888 51836
L43851 51911
L43813 51949
L43738 51986
" />
<text x="60013.6" y="45147.6"
transform="scale(-1 1) translate(-120027.113386 0)"
textLength="2133.67" font-size="1049.87" lengthAdjust="spacingAndGlyphs"
text-anchor="middle" opacity="0">C13</text>
<path d="M60519 45035
L60557 45072
L60669 45110
L60744 45110
L60857 45072
L60932 44997
L60969 44922
L61007 44772
L61007 44660
L60969 44510
L60932 44435
L60857 44360
L60744 44322
L60669 44322
L60557 44360
L60519 44397
" />
<path d="M59769 45110
L60219 45110
" />
<path d="M59994 45110
L59994 44322
L60069 44435
L60144 44510
L60219 44547
" />
<path d="M59507 44322
L59019 44322
L59282 44622
L59169 44622
L59094 44660
L59057 44697
L59019 44772
L59019 44960
L59057 45035
L59094 45072
L59169 45110
L59394 45110
L59469 45072
L59507 45035
" />
<g transform="rotate(-90 45052.9 37982.2)">
<text x="45052.9" y="38375.9"
transform="scale(-1 1) translate(-90105.853543 0)"
textLength="1383.76" font-size="1049.87" lengthAdjust="spacingAndGlyphs"
text-anchor="middle" opacity="0">C7</text>
</g>
<path d="M45334 37850
L45371 37813
L45409 37701
L45409 37626
L45371 37513
L45296 37438
L45221 37401
L45071 37363
L44959 37363
L44809 37401
L44734 37438
L44659 37513
L44621 37626
L44621 37701
L44659 37813
L44696 37850
" />
<path d="M44621 38113
L44621 38638
L45409 38300
" />
<text x="28832.5" y="29557"
transform="scale(-1 1) translate(-57664.908661 0)"
textLength="1383.76" font-size="1049.87" lengthAdjust="spacingAndGlyphs"
text-anchor="middle" opacity="0">C6</text>
<path d="M28963 29444
L29001 29482
L29113 29519
L29188 29519
L29301 29482
L29376 29407
L29413 29332
L29451 29182
L29451 29069
L29413 28919
L29376 28844
L29301 28769
L29188 28732
L29113 28732
L29001 28769
L28963 28807
" />
<path d="M28288 28732
L28438 28732
L28513 28769
L28551 28807
L28626 28919
L28663 29069
L28663 29369
L28626 29444
L28588 29482
L28513 29519
L28363 29519
L28288 29482
L28251 29444
L28213 29369
L28213 29182
L28251 29107
L28288 29069
L28363 29032
L28513 29032
L28588 29069
L28626 29107
L28663 29182
" />
<g transform="rotate(-90 25210.4 44753.9)">
<text x="25210.4" y="45147.6"
transform="scale(-1 1) translate(-50420.814173 0)"
textLength="1383.76" font-size="1049.87" lengthAdjust="spacingAndGlyphs"
text-anchor="middle" opacity="0">C5</text>
</g>
<path d="M25491 44622
L25529 44585
L25566 44472
L25566 44397
L25529 44285
L25454 44210
L25379 44172
L25229 44135
L25116 44135
L24966 44172
L24891 44210
L24816 44285
L24779 44397
L24779 44472
L24816 44585
L24854 44622
" />
<path d="M24779 45335
L24779 44960
L25154 44922
L25116 44960
L25079 45035
L25079 45222
L25116 45297
L25154 45335
L25229 45372
L25416 45372
L25491 45335
L25529 45297
L25566 45222
L25566 45035
L25529 44960
L25491 44922
" />
<g transform="rotate(-90 18793.1 40816.9)">
<text x="18793.1" y="41210.6"
transform="scale(-1 1) translate(-37586.168504 0)"
textLength="1383.76" font-size="1049.87" lengthAdjust="spacingAndGlyphs"
text-anchor="middle" opacity="0">C4</text>
</g>
<path d="M19074 40685
L19111 40648
L19149 40535
L19149 40460
L19111 40348
L19036 40273
L18961 40235
L18811 40198
L18699 40198
L18549 40235
L18474 40273
L18399 40348
L18361 40460
L18361 40535
L18399 40648
L18436 40685
" />
<path d="M18624 41360
L19149 41360
" />
<path d="M18324 41173
L18886 40985
L18886 41473
" />
<g transform="rotate(-90 45052.9 42706.6)">
<text x="45052.9" y="43100.3"
transform="scale(-1 1) translate(-90105.853543 0)"
textLength="1383.76" font-size="1049.87" lengthAdjust="spacingAndGlyphs"
text-anchor="middle" opacity="0">C3</text>
</g>
<path d="M45334 42575
L45371 42537
L45409 42425
L45409 42350
L45371 42237
L45296 42162
L45221 42125
L45071 42087
L44959 42087
L44809 42125
L44734 42162
L44659 42237
L44621 42350
L44621 42425
L44659 42537
L44696 42575
" />
<path d="M44621 42837
L44621 43325
L44921 43062
L44921 43175
L44959 43250
L44996 43287
L45071 43325
L45259 43325
L45334 43287
L45371 43250
L45409 43175
L45409 42950
L45371 42875
L45334 42837
" />
<g transform="rotate(-90 37178.9 44753.9)">
<text x="37178.9" y="45147.6"
transform="scale(-1 1) translate(-74357.822047 0)"
textLength="1383.76" font-size="1049.87" lengthAdjust="spacingAndGlyphs"
text-anchor="middle" opacity="0">C2</text>
</g>
<path d="M37460 44622
L37497 44585
L37535 44472
L37535 44397
L37497 44285
L37422 44210
L37347 44172
L37197 44135
L37085 44135
L36935 44172
L36860 44210
L36785 44285
L36747 44397
L36747 44472
L36785 44585
L36822 44622
" />
<path d="M36822 44922
L36785 44960
L36747 45035
L36747 45222
L36785 45297
L36822 45335
L36897 45372
L36972 45372
L37085 45335
L37535 44885
L37535 45372
" />
<text x="27730.1" y="47509.8"
transform="scale(-1 1) translate(-55460.184252 0)"
textLength="1383.76" font-size="1049.87" lengthAdjust="spacingAndGlyphs"
text-anchor="middle" opacity="0">C1</text>
<path d="M27861 47397
L27898 47434
L28011 47472
L28086 47472
L28198 47434
L28273 47359
L28311 47284
L28348 47134
L28348 47022
L28311 46872
L28273 46797
L28198 46722
L28086 46684
L28011 46684
L27898 46722
L27861 46759
" />
<path d="M27111 47472
L27561 47472
" />
<path d="M27336 47472
L27336 46684
L27411 46797
L27486 46872
L27561 46909
" />
<text x="59383.6" y="36328.7"
transform="scale(-1 1) translate(-118767.270866 0)"
textLength="2133.67" font-size="1049.87" lengthAdjust="spacingAndGlyphs"
text-anchor="middle" opacity="0">C15</text>
<path d="M59889 36216
L59927 36253
L60039 36291
L60114 36291
L60227 36253
L60302 36178
L60339 36103
L60377 35953
L60377 35841
L60339 35691
L60302 35616
L60227 35541
L60114 35503
L60039 35503
L59927 35541
L59889 35578
" />
<path d="M59139 36291
L59589 36291
" />
<path d="M59364 36291
L59364 35503
L59439 35616
L59514 35691
L59589 35728
" />
<path d="M58427 35503
L58802 35503
L58839 35878
L58802 35841
L58727 35803
L58539 35803
L58465 35841
L58427 35878
L58390 35953
L58390 36141
L58427 36216
L58465 36253
L58539 36291
L58727 36291
L58802 36253
L58839 36216
" />
<g >
</g>
</g> 
</svg>
