<?xml version="1.0" standalone="no"?>
 <!DOCTYPE svg PUBLIC "-//W3C//DTD SVG 1.1//EN" 
 "http://www.w3.org/Graphics/SVG/1.1/DTD/svg11.dtd"> 
<svg
  xmlns:svg="http://www.w3.org/2000/svg"
  xmlns="http://www.w3.org/2000/svg"
  xmlns:xlink="http://www.w3.org/1999/xlink"
  version="1.1"
  width="29.700220cm" height="21.000720cm" viewBox="0 0 116930 82680">
<title>SVG Picture created as board-Cmts_User.svg date 2021/03/29 15:50:40 </title>
  <desc>Picture generated by PCBNEW </desc>
<g style="fill:#000000; fill-opacity:1;stroke:#000000; stroke-opacity:1;
stroke-linecap:round; stroke-linejoin:round;"
 transform="translate(0 0) scale(1 1)">
</g>
<g style="fill:#000000; fill-opacity:0.0; 
stroke:#000000; stroke-width:-0.000787402; stroke-opacity:1; 
stroke-linecap:round; stroke-linejoin:round;">
</g>
<g style="fill:#000000; fill-opacity:0.0; 
stroke:#000000; stroke-width:118.11; stroke-opacity:1; 
stroke-linecap:round; stroke-linejoin:round;">
<text x="72178.9" y="23986.2"
textLength="6827.71" font-size="1049.87" lengthAdjust="spacingAndGlyphs"
text-anchor="start" opacity="0">Layers = 4</text>
<path d="M72818 23948
L72443 23948
L72443 23161
" />
<path d="M73418 23948
L73418 23536
L73380 23461
L73305 23423
L73155 23423
L73080 23461
" />
<path d="M73418 23911
L73343 23948
L73155 23948
L73080 23911
L73043 23836
L73043 23761
L73080 23686
L73155 23648
L73343 23648
L73418 23611
" />
<path d="M73717 23423
L73905 23948
" />
<path d="M74092 23423
L73905 23948
L73830 24136
L73792 24173
L73717 24211
" />
<path d="M74692 23911
L74617 23948
L74467 23948
L74392 23911
L74355 23836
L74355 23536
L74392 23461
L74467 23423
L74617 23423
L74692 23461
L74730 23536
L74730 23611
L74355 23686
" />
<path d="M75067 23948
L75067 23423
" />
<path d="M75067 23573
L75105 23498
L75142 23461
L75217 23423
L75292 23423
" />
<path d="M75517 23911
L75592 23948
L75742 23948
L75817 23911
L75855 23836
L75855 23798
L75817 23723
L75742 23686
L75630 23686
L75555 23648
L75517 23573
L75517 23536
L75555 23461
L75630 23423
L75742 23423
L75817 23461
" />
<path d="M76792 23536
L77392 23536
" />
<path d="M77392 23761
L76792 23761
" />
<path d="M78704 23423
L78704 23948
" />
<path d="M78517 23123
L78329 23686
L78817 23686
" />
<text x="72178.9" y="25285.4"
textLength="9864.83" font-size="1049.87" lengthAdjust="spacingAndGlyphs"
text-anchor="start" opacity="0">Thickness = 1.6</text>
<path d="M72330 24460
L72780 24460
" />
<path d="M72555 25247
L72555 24460
" />
<path d="M73043 25247
L73043 24460
" />
<path d="M73380 25247
L73380 24835
L73343 24760
L73268 24722
L73155 24722
L73080 24760
L73043 24797
" />
<path d="M73755 25247
L73755 24722
" />
<path d="M73755 24460
L73717 24497
L73755 24535
L73792 24497
L73755 24460
L73755 24535
" />
<path d="M74467 25210
L74392 25247
L74242 25247
L74167 25210
L74130 25172
L74092 25097
L74092 24872
L74130 24797
L74167 24760
L74242 24722
L74392 24722
L74467 24760
" />
<path d="M74805 25247
L74805 24460
" />
<path d="M74880 24947
L75105 25247
" />
<path d="M75105 24722
L74805 25022
" />
<path d="M75442 24722
L75442 25247
" />
<path d="M75442 24797
L75480 24760
L75555 24722
L75667 24722
L75742 24760
L75780 24835
L75780 25247
" />
<path d="M76455 25210
L76380 25247
L76230 25247
L76155 25210
L76117 25135
L76117 24835
L76155 24760
L76230 24722
L76380 24722
L76455 24760
L76492 24835
L76492 24910
L76117 24985
" />
<path d="M76792 25210
L76867 25247
L77017 25247
L77092 25210
L77130 25135
L77130 25097
L77092 25022
L77017 24985
L76905 24985
L76830 24947
L76792 24872
L76792 24835
L76830 24760
L76905 24722
L77017 24722
L77092 24760
" />
<path d="M77430 25210
L77505 25247
L77655 25247
L77729 25210
L77767 25135
L77767 25097
L77729 25022
L77655 24985
L77542 24985
L77467 24947
L77430 24872
L77430 24835
L77467 24760
L77542 24722
L77655 24722
L77729 24760
" />
<path d="M78704 24835
L79304 24835
" />
<path d="M79304 25060
L78704 25060
" />
<path d="M80692 25247
L80242 25247
" />
<path d="M80467 25247
L80467 24460
L80392 24572
L80317 24647
L80242 24685
" />
<path d="M81029 25172
L81067 25210
L81029 25247
L80992 25210
L81029 25172
L81029 25247
" />
<path d="M81741 24460
L81592 24460
L81517 24497
L81479 24535
L81404 24647
L81367 24797
L81367 25097
L81404 25172
L81442 25210
L81517 25247
L81667 25247
L81741 25210
L81779 25172
L81816 25097
L81816 24910
L81779 24835
L81741 24797
L81667 24760
L81517 24760
L81442 24797
L81404 24835
L81367 24910
" />
<text x="72178.9" y="26584.6"
textLength="8777.47" font-size="1049.87" lengthAdjust="spacingAndGlyphs"
text-anchor="start" opacity="0">Color = Green</text>
<path d="M72893 26472
L72855 26509
L72743 26547
L72668 26547
L72555 26509
L72480 26434
L72443 26359
L72405 26209
L72405 26097
L72443 25947
L72480 25872
L72555 25797
L72668 25759
L72743 25759
L72855 25797
L72893 25834
" />
<path d="M73343 26547
L73268 26509
L73230 26472
L73193 26397
L73193 26172
L73230 26097
L73268 26059
L73343 26022
L73455 26022
L73530 26059
L73568 26097
L73605 26172
L73605 26397
L73568 26472
L73530 26509
L73455 26547
L73343 26547
" />
<path d="M74055 26547
L73980 26509
L73942 26434
L73942 25759
" />
<path d="M74467 26547
L74392 26509
L74355 26472
L74317 26397
L74317 26172
L74355 26097
L74392 26059
L74467 26022
L74580 26022
L74655 26059
L74692 26097
L74730 26172
L74730 26397
L74692 26472
L74655 26509
L74580 26547
L74467 26547
" />
<path d="M75067 26547
L75067 26022
" />
<path d="M75067 26172
L75105 26097
L75142 26059
L75217 26022
L75292 26022
" />
<path d="M76155 26134
L76755 26134
" />
<path d="M76755 26359
L76155 26359
" />
<path d="M78142 25797
L78067 25759
L77954 25759
L77842 25797
L77767 25872
L77729 25947
L77692 26097
L77692 26209
L77729 26359
L77767 26434
L77842 26509
L77954 26547
L78029 26547
L78142 26509
L78179 26472
L78179 26209
L78029 26209
" />
<path d="M78517 26547
L78517 26022
" />
<path d="M78517 26172
L78554 26097
L78592 26059
L78667 26022
L78742 26022
" />
<path d="M79304 26509
L79229 26547
L79079 26547
L79004 26509
L78967 26434
L78967 26134
L79004 26059
L79079 26022
L79229 26022
L79304 26059
L79342 26134
L79342 26209
L78967 26284
" />
<path d="M79979 26509
L79904 26547
L79754 26547
L79679 26509
L79642 26434
L79642 26134
L79679 26059
L79754 26022
L79904 26022
L79979 26059
L80017 26134
L80017 26209
L79642 26284
" />
<path d="M80354 26022
L80354 26547
" />
<path d="M80354 26097
L80392 26059
L80467 26022
L80579 26022
L80654 26059
L80692 26134
L80692 26547
" />
<text x="72178.9" y="27883.8"
textLength="37686.4" font-size="1049.87" lengthAdjust="spacingAndGlyphs"
text-anchor="start" opacity="0">Production Mark = Please use placeholder with JLCJLCJLCJLC</text>
<path d="M72443 27846
L72443 27058
L72743 27058
L72818 27096
L72855 27133
L72893 27208
L72893 27321
L72855 27396
L72818 27433
L72743 27471
L72443 27471
" />
<path d="M73230 27846
L73230 27321
" />
<path d="M73230 27471
L73268 27396
L73305 27358
L73380 27321
L73455 27321
" />
<path d="M73830 27846
L73755 27808
L73717 27771
L73680 27696
L73680 27471
L73717 27396
L73755 27358
L73830 27321
L73942 27321
L74017 27358
L74055 27396
L74092 27471
L74092 27696
L74055 27771
L74017 27808
L73942 27846
L73830 27846
" />
<path d="M74767 27846
L74767 27058
" />
<path d="M74767 27808
L74692 27846
L74542 27846
L74467 27808
L74430 27771
L74392 27696
L74392 27471
L74430 27396
L74467 27358
L74542 27321
L74692 27321
L74767 27358
" />
<path d="M75480 27321
L75480 27846
" />
<path d="M75142 27321
L75142 27733
L75180 27808
L75255 27846
L75367 27846
L75442 27808
L75480 27771
" />
<path d="M76192 27808
L76117 27846
L75967 27846
L75892 27808
L75855 27771
L75817 27696
L75817 27471
L75855 27396
L75892 27358
L75967 27321
L76117 27321
L76192 27358
" />
<path d="M76417 27321
L76717 27321
" />
<path d="M76530 27058
L76530 27733
L76567 27808
L76642 27846
L76717 27846
" />
<path d="M76980 27846
L76980 27321
" />
<path d="M76980 27058
L76942 27096
L76980 27133
L77017 27096
L76980 27058
L76980 27133
" />
<path d="M77467 27846
L77392 27808
L77355 27771
L77317 27696
L77317 27471
L77355 27396
L77392 27358
L77467 27321
L77580 27321
L77655 27358
L77692 27396
L77729 27471
L77729 27696
L77692 27771
L77655 27808
L77580 27846
L77467 27846
" />
<path d="M78067 27321
L78067 27846
" />
<path d="M78067 27396
L78104 27358
L78179 27321
L78292 27321
L78367 27358
L78404 27433
L78404 27846
" />
<path d="M79379 27846
L79379 27058
L79642 27621
L79904 27058
L79904 27846
" />
<path d="M80617 27846
L80617 27433
L80579 27358
L80504 27321
L80354 27321
L80279 27358
" />
<path d="M80617 27808
L80542 27846
L80354 27846
L80279 27808
L80242 27733
L80242 27658
L80279 27583
L80354 27546
L80542 27546
L80617 27508
" />
<path d="M80992 27846
L80992 27321
" />
<path d="M80992 27471
L81029 27396
L81067 27358
L81142 27321
L81217 27321
" />
<path d="M81479 27846
L81479 27058
" />
<path d="M81554 27546
L81779 27846
" />
<path d="M81779 27321
L81479 27621
" />
<path d="M82716 27433
L83316 27433
" />
<path d="M83316 27658
L82716 27658
" />
<path d="M84291 27846
L84291 27058
L84591 27058
L84666 27096
L84704 27133
L84741 27208
L84741 27321
L84704 27396
L84666 27433
L84591 27471
L84291 27471
" />
<path d="M85191 27846
L85116 27808
L85079 27733
L85079 27058
" />
<path d="M85791 27808
L85716 27846
L85566 27846
L85491 27808
L85454 27733
L85454 27433
L85491 27358
L85566 27321
L85716 27321
L85791 27358
L85828 27433
L85828 27508
L85454 27583
" />
<path d="M86503 27846
L86503 27433
L86466 27358
L86391 27321
L86241 27321
L86166 27358
" />
<path d="M86503 27808
L86428 27846
L86241 27846
L86166 27808
L86128 27733
L86128 27658
L86166 27583
L86241 27546
L86428 27546
L86503 27508
" />
<path d="M86841 27808
L86916 27846
L87066 27846
L87141 27808
L87178 27733
L87178 27696
L87141 27621
L87066 27583
L86953 27583
L86878 27546
L86841 27471
L86841 27433
L86878 27358
L86953 27321
L87066 27321
L87141 27358
" />
<path d="M87816 27808
L87741 27846
L87591 27846
L87516 27808
L87478 27733
L87478 27433
L87516 27358
L87591 27321
L87741 27321
L87816 27358
L87853 27433
L87853 27508
L87478 27583
" />
<path d="M89128 27321
L89128 27846
" />
<path d="M88791 27321
L88791 27733
L88828 27808
L88903 27846
L89016 27846
L89091 27808
L89128 27771
" />
<path d="M89466 27808
L89541 27846
L89691 27846
L89765 27808
L89803 27733
L89803 27696
L89765 27621
L89691 27583
L89578 27583
L89503 27546
L89466 27471
L89466 27433
L89503 27358
L89578 27321
L89691 27321
L89765 27358
" />
<path d="M90440 27808
L90365 27846
L90215 27846
L90140 27808
L90103 27733
L90103 27433
L90140 27358
L90215 27321
L90365 27321
L90440 27358
L90478 27433
L90478 27508
L90103 27583
" />
<path d="M91415 27321
L91415 28108
" />
<path d="M91415 27358
L91490 27321
L91640 27321
L91715 27358
L91753 27396
L91790 27471
L91790 27696
L91753 27771
L91715 27808
L91640 27846
L91490 27846
L91415 27808
" />
<path d="M92240 27846
L92165 27808
L92128 27733
L92128 27058
" />
<path d="M92878 27846
L92878 27433
L92840 27358
L92765 27321
L92615 27321
L92540 27358
" />
<path d="M92878 27808
L92803 27846
L92615 27846
L92540 27808
L92503 27733
L92503 27658
L92540 27583
L92615 27546
L92803 27546
L92878 27508
" />
<path d="M93590 27808
L93515 27846
L93365 27846
L93290 27808
L93253 27771
L93215 27696
L93215 27471
L93253 27396
L93290 27358
L93365 27321
L93515 27321
L93590 27358
" />
<path d="M94227 27808
L94152 27846
L94002 27846
L93927 27808
L93890 27733
L93890 27433
L93927 27358
L94002 27321
L94152 27321
L94227 27358
L94265 27433
L94265 27508
L93890 27583
" />
<path d="M94602 27846
L94602 27058
" />
<path d="M94940 27846
L94940 27433
L94902 27358
L94827 27321
L94715 27321
L94640 27358
L94602 27396
" />
<path d="M95427 27846
L95352 27808
L95315 27771
L95277 27696
L95277 27471
L95315 27396
L95352 27358
L95427 27321
L95540 27321
L95615 27358
L95652 27396
L95690 27471
L95690 27696
L95652 27771
L95615 27808
L95540 27846
L95427 27846
" />
<path d="M96140 27846
L96065 27808
L96027 27733
L96027 27058
" />
<path d="M96777 27846
L96777 27058
" />
<path d="M96777 27808
L96702 27846
L96552 27846
L96477 27808
L96440 27771
L96402 27696
L96402 27471
L96440 27396
L96477 27358
L96552 27321
L96702 27321
L96777 27358
" />
<path d="M97452 27808
L97377 27846
L97227 27846
L97152 27808
L97115 27733
L97115 27433
L97152 27358
L97227 27321
L97377 27321
L97452 27358
L97490 27433
L97490 27508
L97115 27583
" />
<path d="M97827 27846
L97827 27321
" />
<path d="M97827 27471
L97864 27396
L97902 27358
L97977 27321
L98052 27321
" />
<path d="M98839 27321
L98989 27846
L99139 27471
L99289 27846
L99439 27321
" />
<path d="M99739 27846
L99739 27321
" />
<path d="M99739 27058
L99702 27096
L99739 27133
L99777 27096
L99739 27058
L99739 27133
" />
<path d="M100002 27321
L100302 27321
" />
<path d="M100114 27058
L100114 27733
L100152 27808
L100227 27846
L100302 27846
" />
<path d="M100564 27846
L100564 27058
" />
<path d="M100902 27846
L100902 27433
L100864 27358
L100789 27321
L100677 27321
L100602 27358
L100564 27396
" />
<path d="M102101 27058
L102101 27621
L102064 27733
L101989 27808
L101876 27846
L101801 27846
" />
<path d="M102851 27846
L102476 27846
L102476 27058
" />
<path d="M103564 27771
L103526 27808
L103414 27846
L103339 27846
L103226 27808
L103151 27733
L103114 27658
L103076 27508
L103076 27396
L103114 27246
L103151 27171
L103226 27096
L103339 27058
L103414 27058
L103526 27096
L103564 27133
" />
<path d="M104126 27058
L104126 27621
L104089 27733
L104014 27808
L103901 27846
L103826 27846
" />
<path d="M104876 27846
L104501 27846
L104501 27058
" />
<path d="M105589 27771
L105551 27808
L105439 27846
L105364 27846
L105251 27808
L105176 27733
L105139 27658
L105101 27508
L105101 27396
L105139 27246
L105176 27171
L105251 27096
L105364 27058
L105439 27058
L105551 27096
L105589 27133
" />
<path d="M106151 27058
L106151 27621
L106113 27733
L106038 27808
L105926 27846
L105851 27846
" />
<path d="M106901 27846
L106526 27846
L106526 27058
" />
<path d="M107613 27771
L107576 27808
L107463 27846
L107388 27846
L107276 27808
L107201 27733
L107163 27658
L107126 27508
L107126 27396
L107163 27246
L107201 27171
L107276 27096
L107388 27058
L107463 27058
L107576 27096
L107613 27133
" />
<path d="M108176 27058
L108176 27621
L108138 27733
L108063 27808
L107951 27846
L107876 27846
" />
<path d="M108926 27846
L108551 27846
L108551 27058
" />
<path d="M109638 27771
L109601 27808
L109488 27846
L109413 27846
L109301 27808
L109226 27733
L109188 27658
L109151 27508
L109151 27396
L109188 27246
L109226 27171
L109301 27096
L109413 27058
L109488 27058
L109601 27096
L109638 27133
" />
</g>
<g style="fill:#000000; fill-opacity:0.0; 
stroke:#000000; stroke-width:78.7402; stroke-opacity:1; 
stroke-linecap:round; stroke-linejoin:round;">
<path d="M11509.6 57352.3 A2362.2 2362.2 0.0 0 0 13871.8 59714.5" />
<path d="M13871.8 23100.3 A2362.2 2362.2 0.0 0 0 11509.6 25462.5" />
<path d="M68202.5 25462.5 A2362.2 2362.2 0.0 0 0 65840.3 23100.3" />
<path d="M65840.3 59714.5 A2362.21 2362.21 0.0 0 0 68202.5 57352.3" />
<path d="M13871 59714
L65840 59714
" />
<path d="M11509 25462
L11509 57352
" />
<path d="M65840 23100
L13871 23100
" />
<path d="M68202 57352
L68202 25462
" />
</g>
<g style="fill:#000000; fill-opacity:0.0; 
stroke:#000000; stroke-width:118.11; stroke-opacity:1; 
stroke-linecap:round; stroke-linejoin:round;">
<circle cx="13871.8" cy="57352.3" r="1968.5" /> 
<circle cx="65840.3" cy="57276" r="1968.5" /> 
<circle cx="13871.8" cy="25462.5" r="1968.5" /> 
<circle cx="65840.3" cy="25462.5" r="1968.5" /> 
<g >
</g>
<g >
</g>
<g >
</g>
<g >
</g>
<g >
</g>
<g >
</g>
<g >
</g>
<g >
</g>
<g >
</g>
<g >
</g>
<g >
</g>
<g >
</g>
<g >
</g>
<g >
</g>
<g >
</g>
<g >
</g>
<g >
</g>
<g >
</g>
<g >
</g>
<g >
</g>
<g >
</g>
<g >
</g>
<g >
</g>
<g >
</g>
<g >
</g>
<g >
</g>
<g >
</g>
<g >
</g>
<g >
</g>
<g >
</g>
<g >
</g>
<g >
</g>
<g >
</g>
<g >
</g>
<g >
</g>
<g >
</g>
<g >
</g>
<g >
</g>
<g >
</g>
<g >
</g>
<g >
</g>
<g >
</g>
<g >
</g>
<g >
</g>
<g >
</g>
<g >
</g>
<g >
</g>
<g >
</g>
<g >
</g>
<g >
</g>
</g> 
</svg>
