<?xml version="1.0" standalone="no"?>
 <!DOCTYPE svg PUBLIC "-//W3C//DTD SVG 1.1//EN" 
 "http://www.w3.org/Graphics/SVG/1.1/DTD/svg11.dtd"> 
<svg
  xmlns:svg="http://www.w3.org/2000/svg"
  xmlns="http://www.w3.org/2000/svg"
  xmlns:xlink="http://www.w3.org/1999/xlink"
  version="1.1"
  width="29.700220cm" height="21.000720cm" viewBox="0 0 116930 82680">
<title>SVG Picture created as board-B_Mask.svg date 2021/03/29 15:50:42 </title>
  <desc>Picture generated by PCBNEW </desc>
<g style="fill:#000000; fill-opacity:1;stroke:#000000; stroke-opacity:1;
stroke-linecap:round; stroke-linejoin:round;"
 transform="translate(0 0) scale(1 1)">
</g>
<g style="fill:#000000; fill-opacity:0.0; 
stroke:#000000; stroke-width:-0.000787402; stroke-opacity:1; 
stroke-linecap:round; stroke-linejoin:round;">
</g>
<g style="fill:#000000; fill-opacity:0.0; 
stroke:#000000; stroke-width:78.7402; stroke-opacity:1; 
stroke-linecap:round; stroke-linejoin:round;">
<path d="M10289.1 57126.9 A2362.2 2362.2 0.0 0 0 12651.4 59489.1" />
<path d="M12651.4 22875 A2362.2 2362.2 0.0 0 0 10289.1 25237.2" />
<path d="M66982.1 25237.2 A2362.2 2362.2 0.0 0 0 64619.9 22875" />
<path d="M64619.9 59489.1 A2362.21 2362.21 0.0 0 0 66982.1 57126.9" />
<path d="M12651 59489
L64619 59489
" />
<path d="M10289 25237
L10289 57126
" />
<path d="M64619 22874
L12651 22874
" />
<path d="M66982 57126
L66982 25237
" />
<g >
</g>
<g style="fill:#000000; fill-opacity:0.0; 
stroke:#000000; stroke-width:0; stroke-opacity:1; 
stroke-linecap:round; stroke-linejoin:round;">
</g>
<g style="fill:#000000; fill-opacity:1.0; 
stroke:#000000; stroke-width:0; stroke-opacity:1; 
stroke-linecap:round; stroke-linejoin:round;">
<path style="fill:#000000; fill-opacity:1.0; 
stroke:#000000; stroke-width:0; stroke-opacity:1; 
stroke-linecap:round; stroke-linejoin:round;fill-rule:evenodd;"
d="M 32060.4,52620
32079.5,52622.8
32098.3,52627.5
32116.4,52634
32133.9,52642.3
32150.5,52652.2
32166,52663.7
32180.3,52676.7
32193.3,52691
32204.8,52706.5
32214.7,52723.1
32223,52740.6
32229.5,52758.8
32234.2,52777.5
32237,52796.6
32238,52815.9
32238,53563.9
32237,53583.2
32234.2,53602.3
32229.5,53621.1
32223,53639.3
32214.7,53656.7
32204.8,53673.3
32193.3,53688.8
32180.3,53703.1
32166,53716.1
32150.5,53727.6
32133.9,53737.5
32116.4,53745.8
32098.3,53752.3
32079.5,53757
32060.4,53759.8
32041.1,53760.8
31509.6,53760.8
31490.3,53759.8
31471.2,53757
31452.5,53752.3
31434.3,53745.8
31416.8,53737.5
31400.3,53727.6
31384.7,53716.1
31370.4,53703.1
31357.5,53688.8
31345.9,53673.3
31336,53656.7
31327.8,53639.3
31321.2,53621.1
31316.6,53602.3
31313.7,53583.2
31312.8,53563.9
31312.8,52815.9
31313.7,52796.6
31316.6,52777.5
31321.2,52758.8
31327.8,52740.6
31336,52723.1
31345.9,52706.5
31357.5,52691
31370.4,52676.7
31384.7,52663.7
31400.3,52652.2
31416.8,52642.3
31434.3,52634
31452.5,52627.5
31471.2,52622.8
31490.3,52620
31509.6,52619.1
32041.1,52619.1
Z" /> 
<path style="fill:#000000; fill-opacity:1.0; 
stroke:#000000; stroke-width:0; stroke-opacity:1; 
stroke-linecap:round; stroke-linejoin:round;fill-rule:evenodd;"
d="M 30426.6,52620
30445.7,52622.8
30464.4,52627.5
30482.6,52634
30500.1,52642.3
30516.6,52652.2
30532.1,52663.7
30546.5,52676.7
30559.4,52691
30570.9,52706.5
30580.9,52723.1
30589.1,52740.6
30595.6,52758.8
30600.3,52777.5
30603.2,52796.6
30604.1,52815.9
30604.1,53563.9
30603.2,53583.2
30600.3,53602.3
30595.6,53621.1
30589.1,53639.3
30580.9,53656.7
30570.9,53673.3
30559.4,53688.8
30546.5,53703.1
30532.1,53716.1
30516.6,53727.6
30500.1,53737.5
30482.6,53745.8
30464.4,53752.3
30445.7,53757
30426.6,53759.8
30407.3,53760.8
29875.8,53760.8
29856.5,53759.8
29837.4,53757
29818.6,53752.3
29800.4,53745.8
29783,53737.5
29766.4,53727.6
29750.9,53716.1
29736.6,53703.1
29723.6,53688.8
29712.1,53673.3
29702.2,53656.7
29693.9,53639.3
29687.4,53621.1
29682.7,53602.3
29679.9,53583.2
29678.9,53563.9
29678.9,52815.9
29679.9,52796.6
29682.7,52777.5
29687.4,52758.8
29693.9,52740.6
29702.2,52723.1
29712.1,52706.5
29723.6,52691
29736.6,52676.7
29750.9,52663.7
29766.4,52652.2
29783,52642.3
29800.4,52634
29818.6,52627.5
29837.4,52622.8
29856.5,52620
29875.8,52619.1
30407.3,52619.1
Z" /> 
</g>
<g >
</g>
<g style="fill:#000000; fill-opacity:1.0; 
stroke:#000000; stroke-width:0; stroke-opacity:1; 
stroke-linecap:round; stroke-linejoin:round;">
<circle cx="38013.6" cy="50985.2" r="560" /> 
</g>
<g style="fill:#000000; fill-opacity:1.0; 
stroke:#000000; stroke-width:118.11; stroke-opacity:1; 
stroke-linecap:round; stroke-linejoin:round;">
</g>
<g style="fill:#000000; fill-opacity:1.0; 
stroke:#000000; stroke-width:0; stroke-opacity:1; 
stroke-linecap:round; stroke-linejoin:round;">
<circle cx="36013.6" cy="50985.2" r="560" /> 
</g>
<g style="fill:#000000; fill-opacity:1.0; 
stroke:#000000; stroke-width:118.11; stroke-opacity:1; 
stroke-linecap:round; stroke-linejoin:round;">
</g>
<g style="fill:#000000; fill-opacity:1.0; 
stroke:#000000; stroke-width:0; stroke-opacity:1; 
stroke-linecap:round; stroke-linejoin:round;">
<circle cx="34013.6" cy="50985.2" r="560" /> 
</g>
<g style="fill:#000000; fill-opacity:1.0; 
stroke:#000000; stroke-width:118.11; stroke-opacity:1; 
stroke-linecap:round; stroke-linejoin:round;">
</g>
<g style="fill:#000000; fill-opacity:1.0; 
stroke:#000000; stroke-width:0; stroke-opacity:1; 
stroke-linecap:round; stroke-linejoin:round;">
<circle cx="32013.6" cy="50985.2" r="560" /> 
</g>
<g style="fill:#000000; fill-opacity:1.0; 
stroke:#000000; stroke-width:118.11; stroke-opacity:1; 
stroke-linecap:round; stroke-linejoin:round;">
</g>
<g style="fill:#000000; fill-opacity:1.0; 
stroke:#000000; stroke-width:0; stroke-opacity:1; 
stroke-linecap:round; stroke-linejoin:round;">
<circle cx="30013.6" cy="50985.2" r="560" /> 
</g>
<g style="fill:#000000; fill-opacity:1.0; 
stroke:#000000; stroke-width:118.11; stroke-opacity:1; 
stroke-linecap:round; stroke-linejoin:round;">
</g>
<g style="fill:#000000; fill-opacity:1.0; 
stroke:#000000; stroke-width:0; stroke-opacity:1; 
stroke-linecap:round; stroke-linejoin:round;">
<circle cx="28013.6" cy="50985.2" r="560" /> 
</g>
<g style="fill:#000000; fill-opacity:1.0; 
stroke:#000000; stroke-width:118.11; stroke-opacity:1; 
stroke-linecap:round; stroke-linejoin:round;">
</g>
<g style="fill:#000000; fill-opacity:1.0; 
stroke:#000000; stroke-width:0; stroke-opacity:1; 
stroke-linecap:round; stroke-linejoin:round;">
<circle cx="26013.6" cy="50985.2" r="560" /> 
</g>
<g style="fill:#000000; fill-opacity:1.0; 
stroke:#000000; stroke-width:118.11; stroke-opacity:1; 
stroke-linecap:round; stroke-linejoin:round;">
</g>
<g style="fill:#000000; fill-opacity:1.0; 
stroke:#000000; stroke-width:0; stroke-opacity:1; 
stroke-linecap:round; stroke-linejoin:round;">
<circle cx="24013.6" cy="50985.2" r="560" /> 
</g>
<g style="fill:#000000; fill-opacity:1.0; 
stroke:#000000; stroke-width:118.11; stroke-opacity:1; 
stroke-linecap:round; stroke-linejoin:round;">
</g>
<g style="fill:#000000; fill-opacity:1.0; 
stroke:#000000; stroke-width:0; stroke-opacity:1; 
stroke-linecap:round; stroke-linejoin:round;">
<circle cx="40013.6" cy="48985.2" r="560" /> 
</g>
<g style="fill:#000000; fill-opacity:1.0; 
stroke:#000000; stroke-width:118.11; stroke-opacity:1; 
stroke-linecap:round; stroke-linejoin:round;">
</g>
<g style="fill:#000000; fill-opacity:1.0; 
stroke:#000000; stroke-width:0; stroke-opacity:1; 
stroke-linecap:round; stroke-linejoin:round;">
<circle cx="36013.6" cy="48985.2" r="560" /> 
</g>
<g style="fill:#000000; fill-opacity:1.0; 
stroke:#000000; stroke-width:118.11; stroke-opacity:1; 
stroke-linecap:round; stroke-linejoin:round;">
</g>
<g style="fill:#000000; fill-opacity:1.0; 
stroke:#000000; stroke-width:0; stroke-opacity:1; 
stroke-linecap:round; stroke-linejoin:round;">
<circle cx="34013.6" cy="48985.2" r="560" /> 
</g>
<g style="fill:#000000; fill-opacity:1.0; 
stroke:#000000; stroke-width:118.11; stroke-opacity:1; 
stroke-linecap:round; stroke-linejoin:round;">
</g>
<g style="fill:#000000; fill-opacity:1.0; 
stroke:#000000; stroke-width:0; stroke-opacity:1; 
stroke-linecap:round; stroke-linejoin:round;">
<circle cx="32013.6" cy="48985.2" r="560" /> 
</g>
<g style="fill:#000000; fill-opacity:1.0; 
stroke:#000000; stroke-width:118.11; stroke-opacity:1; 
stroke-linecap:round; stroke-linejoin:round;">
</g>
<g style="fill:#000000; fill-opacity:1.0; 
stroke:#000000; stroke-width:0; stroke-opacity:1; 
stroke-linecap:round; stroke-linejoin:round;">
<circle cx="30013.6" cy="48985.2" r="560" /> 
</g>
<g style="fill:#000000; fill-opacity:1.0; 
stroke:#000000; stroke-width:118.11; stroke-opacity:1; 
stroke-linecap:round; stroke-linejoin:round;">
</g>
<g style="fill:#000000; fill-opacity:1.0; 
stroke:#000000; stroke-width:0; stroke-opacity:1; 
stroke-linecap:round; stroke-linejoin:round;">
<circle cx="28013.6" cy="48985.2" r="560" /> 
</g>
<g style="fill:#000000; fill-opacity:1.0; 
stroke:#000000; stroke-width:118.11; stroke-opacity:1; 
stroke-linecap:round; stroke-linejoin:round;">
</g>
<g style="fill:#000000; fill-opacity:1.0; 
stroke:#000000; stroke-width:0; stroke-opacity:1; 
stroke-linecap:round; stroke-linejoin:round;">
<circle cx="26013.6" cy="48985.2" r="560" /> 
</g>
<g style="fill:#000000; fill-opacity:1.0; 
stroke:#000000; stroke-width:118.11; stroke-opacity:1; 
stroke-linecap:round; stroke-linejoin:round;">
</g>
<g style="fill:#000000; fill-opacity:1.0; 
stroke:#000000; stroke-width:0; stroke-opacity:1; 
stroke-linecap:round; stroke-linejoin:round;">
<circle cx="24013.6" cy="48985.2" r="560" /> 
</g>
<g style="fill:#000000; fill-opacity:1.0; 
stroke:#000000; stroke-width:118.11; stroke-opacity:1; 
stroke-linecap:round; stroke-linejoin:round;">
</g>
<g style="fill:#000000; fill-opacity:1.0; 
stroke:#000000; stroke-width:0; stroke-opacity:1; 
stroke-linecap:round; stroke-linejoin:round;">
<circle cx="22013.6" cy="48985.2" r="560" /> 
</g>
<g style="fill:#000000; fill-opacity:1.0; 
stroke:#000000; stroke-width:118.11; stroke-opacity:1; 
stroke-linecap:round; stroke-linejoin:round;">
</g>
<g style="fill:#000000; fill-opacity:1.0; 
stroke:#000000; stroke-width:0; stroke-opacity:1; 
stroke-linecap:round; stroke-linejoin:round;">
<circle cx="20013.6" cy="48985.2" r="560" /> 
</g>
<g style="fill:#000000; fill-opacity:1.0; 
stroke:#000000; stroke-width:118.11; stroke-opacity:1; 
stroke-linecap:round; stroke-linejoin:round;">
</g>
<g style="fill:#000000; fill-opacity:1.0; 
stroke:#000000; stroke-width:0; stroke-opacity:1; 
stroke-linecap:round; stroke-linejoin:round;">
<circle cx="20013.6" cy="46985.2" r="560" /> 
</g>
<g style="fill:#000000; fill-opacity:1.0; 
stroke:#000000; stroke-width:118.11; stroke-opacity:1; 
stroke-linecap:round; stroke-linejoin:round;">
</g>
<g style="fill:#000000; fill-opacity:1.0; 
stroke:#000000; stroke-width:0; stroke-opacity:1; 
stroke-linecap:round; stroke-linejoin:round;">
<circle cx="20013.6" cy="44985.2" r="560" /> 
</g>
<g style="fill:#000000; fill-opacity:1.0; 
stroke:#000000; stroke-width:118.11; stroke-opacity:1; 
stroke-linecap:round; stroke-linejoin:round;">
</g>
<g style="fill:#000000; fill-opacity:1.0; 
stroke:#000000; stroke-width:0; stroke-opacity:1; 
stroke-linecap:round; stroke-linejoin:round;">
<circle cx="20013.6" cy="42985.2" r="560" /> 
</g>
<g style="fill:#000000; fill-opacity:1.0; 
stroke:#000000; stroke-width:118.11; stroke-opacity:1; 
stroke-linecap:round; stroke-linejoin:round;">
</g>
<g style="fill:#000000; fill-opacity:1.0; 
stroke:#000000; stroke-width:0; stroke-opacity:1; 
stroke-linecap:round; stroke-linejoin:round;">
<circle cx="20013.6" cy="40985.2" r="560" /> 
</g>
<g style="fill:#000000; fill-opacity:1.0; 
stroke:#000000; stroke-width:118.11; stroke-opacity:1; 
stroke-linecap:round; stroke-linejoin:round;">
</g>
<g style="fill:#000000; fill-opacity:1.0; 
stroke:#000000; stroke-width:0; stroke-opacity:1; 
stroke-linecap:round; stroke-linejoin:round;">
<circle cx="20013.6" cy="38985.2" r="560" /> 
</g>
<g style="fill:#000000; fill-opacity:1.0; 
stroke:#000000; stroke-width:118.11; stroke-opacity:1; 
stroke-linecap:round; stroke-linejoin:round;">
</g>
<g style="fill:#000000; fill-opacity:1.0; 
stroke:#000000; stroke-width:0; stroke-opacity:1; 
stroke-linecap:round; stroke-linejoin:round;">
<circle cx="20013.6" cy="36985.2" r="560" /> 
</g>
<g style="fill:#000000; fill-opacity:1.0; 
stroke:#000000; stroke-width:118.11; stroke-opacity:1; 
stroke-linecap:round; stroke-linejoin:round;">
</g>
<g style="fill:#000000; fill-opacity:1.0; 
stroke:#000000; stroke-width:0; stroke-opacity:1; 
stroke-linecap:round; stroke-linejoin:round;">
<circle cx="20013.6" cy="34985.2" r="560" /> 
</g>
<g style="fill:#000000; fill-opacity:1.0; 
stroke:#000000; stroke-width:118.11; stroke-opacity:1; 
stroke-linecap:round; stroke-linejoin:round;">
</g>
<g style="fill:#000000; fill-opacity:1.0; 
stroke:#000000; stroke-width:0; stroke-opacity:1; 
stroke-linecap:round; stroke-linejoin:round;">
<circle cx="20013.6" cy="32985.2" r="560" /> 
</g>
<g style="fill:#000000; fill-opacity:1.0; 
stroke:#000000; stroke-width:118.11; stroke-opacity:1; 
stroke-linecap:round; stroke-linejoin:round;">
</g>
<g style="fill:#000000; fill-opacity:1.0; 
stroke:#000000; stroke-width:0; stroke-opacity:1; 
stroke-linecap:round; stroke-linejoin:round;">
<circle cx="22013.6" cy="50985.2" r="560" /> 
</g>
<g style="fill:#000000; fill-opacity:1.0; 
stroke:#000000; stroke-width:118.11; stroke-opacity:1; 
stroke-linecap:round; stroke-linejoin:round;">
</g>
<g style="fill:#000000; fill-opacity:1.0; 
stroke:#000000; stroke-width:0; stroke-opacity:1; 
stroke-linecap:round; stroke-linejoin:round;">
<circle cx="22013.6" cy="46985.2" r="560" /> 
</g>
<g style="fill:#000000; fill-opacity:1.0; 
stroke:#000000; stroke-width:118.11; stroke-opacity:1; 
stroke-linecap:round; stroke-linejoin:round;">
</g>
<g style="fill:#000000; fill-opacity:1.0; 
stroke:#000000; stroke-width:0; stroke-opacity:1; 
stroke-linecap:round; stroke-linejoin:round;">
<circle cx="22013.6" cy="44985.2" r="560" /> 
</g>
<g style="fill:#000000; fill-opacity:1.0; 
stroke:#000000; stroke-width:118.11; stroke-opacity:1; 
stroke-linecap:round; stroke-linejoin:round;">
</g>
<g style="fill:#000000; fill-opacity:1.0; 
stroke:#000000; stroke-width:0; stroke-opacity:1; 
stroke-linecap:round; stroke-linejoin:round;">
<circle cx="22013.6" cy="42985.2" r="560" /> 
</g>
<g style="fill:#000000; fill-opacity:1.0; 
stroke:#000000; stroke-width:118.11; stroke-opacity:1; 
stroke-linecap:round; stroke-linejoin:round;">
</g>
<g style="fill:#000000; fill-opacity:1.0; 
stroke:#000000; stroke-width:0; stroke-opacity:1; 
stroke-linecap:round; stroke-linejoin:round;">
<circle cx="22013.6" cy="40985.2" r="560" /> 
</g>
<g style="fill:#000000; fill-opacity:1.0; 
stroke:#000000; stroke-width:118.11; stroke-opacity:1; 
stroke-linecap:round; stroke-linejoin:round;">
</g>
<g style="fill:#000000; fill-opacity:1.0; 
stroke:#000000; stroke-width:0; stroke-opacity:1; 
stroke-linecap:round; stroke-linejoin:round;">
<circle cx="22013.6" cy="38985.2" r="560" /> 
</g>
<g style="fill:#000000; fill-opacity:1.0; 
stroke:#000000; stroke-width:118.11; stroke-opacity:1; 
stroke-linecap:round; stroke-linejoin:round;">
</g>
<g style="fill:#000000; fill-opacity:1.0; 
stroke:#000000; stroke-width:0; stroke-opacity:1; 
stroke-linecap:round; stroke-linejoin:round;">
<circle cx="22013.6" cy="36985.2" r="560" /> 
</g>
<g style="fill:#000000; fill-opacity:1.0; 
stroke:#000000; stroke-width:118.11; stroke-opacity:1; 
stroke-linecap:round; stroke-linejoin:round;">
</g>
<g style="fill:#000000; fill-opacity:1.0; 
stroke:#000000; stroke-width:0; stroke-opacity:1; 
stroke-linecap:round; stroke-linejoin:round;">
<circle cx="22013.6" cy="34985.2" r="560" /> 
</g>
<g style="fill:#000000; fill-opacity:1.0; 
stroke:#000000; stroke-width:118.11; stroke-opacity:1; 
stroke-linecap:round; stroke-linejoin:round;">
</g>
<g style="fill:#000000; fill-opacity:1.0; 
stroke:#000000; stroke-width:0; stroke-opacity:1; 
stroke-linecap:round; stroke-linejoin:round;">
<circle cx="22013.6" cy="32985.2" r="560" /> 
</g>
<g style="fill:#000000; fill-opacity:1.0; 
stroke:#000000; stroke-width:118.11; stroke-opacity:1; 
stroke-linecap:round; stroke-linejoin:round;">
</g>
<g style="fill:#000000; fill-opacity:1.0; 
stroke:#000000; stroke-width:0; stroke-opacity:1; 
stroke-linecap:round; stroke-linejoin:round;">
<circle cx="22013.6" cy="30985.2" r="560" /> 
</g>
<g style="fill:#000000; fill-opacity:1.0; 
stroke:#000000; stroke-width:118.11; stroke-opacity:1; 
stroke-linecap:round; stroke-linejoin:round;">
</g>
<g style="fill:#000000; fill-opacity:1.0; 
stroke:#000000; stroke-width:0; stroke-opacity:1; 
stroke-linecap:round; stroke-linejoin:round;">
<circle cx="24013.6" cy="30985.2" r="560" /> 
</g>
<g style="fill:#000000; fill-opacity:1.0; 
stroke:#000000; stroke-width:118.11; stroke-opacity:1; 
stroke-linecap:round; stroke-linejoin:round;">
</g>
<g style="fill:#000000; fill-opacity:1.0; 
stroke:#000000; stroke-width:0; stroke-opacity:1; 
stroke-linecap:round; stroke-linejoin:round;">
<circle cx="26013.6" cy="30985.2" r="560" /> 
</g>
<g style="fill:#000000; fill-opacity:1.0; 
stroke:#000000; stroke-width:118.11; stroke-opacity:1; 
stroke-linecap:round; stroke-linejoin:round;">
</g>
<g style="fill:#000000; fill-opacity:1.0; 
stroke:#000000; stroke-width:0; stroke-opacity:1; 
stroke-linecap:round; stroke-linejoin:round;">
<circle cx="28013.6" cy="30985.2" r="560" /> 
</g>
<g style="fill:#000000; fill-opacity:1.0; 
stroke:#000000; stroke-width:118.11; stroke-opacity:1; 
stroke-linecap:round; stroke-linejoin:round;">
</g>
<g style="fill:#000000; fill-opacity:1.0; 
stroke:#000000; stroke-width:0; stroke-opacity:1; 
stroke-linecap:round; stroke-linejoin:round;">
<circle cx="30013.6" cy="30985.2" r="560" /> 
</g>
<g style="fill:#000000; fill-opacity:1.0; 
stroke:#000000; stroke-width:118.11; stroke-opacity:1; 
stroke-linecap:round; stroke-linejoin:round;">
</g>
<g style="fill:#000000; fill-opacity:1.0; 
stroke:#000000; stroke-width:0; stroke-opacity:1; 
stroke-linecap:round; stroke-linejoin:round;">
<circle cx="32013.6" cy="30985.2" r="560" /> 
</g>
<g style="fill:#000000; fill-opacity:1.0; 
stroke:#000000; stroke-width:118.11; stroke-opacity:1; 
stroke-linecap:round; stroke-linejoin:round;">
</g>
<g style="fill:#000000; fill-opacity:1.0; 
stroke:#000000; stroke-width:0; stroke-opacity:1; 
stroke-linecap:round; stroke-linejoin:round;">
<circle cx="34013.6" cy="30985.2" r="560" /> 
</g>
<g style="fill:#000000; fill-opacity:1.0; 
stroke:#000000; stroke-width:118.11; stroke-opacity:1; 
stroke-linecap:round; stroke-linejoin:round;">
</g>
<g style="fill:#000000; fill-opacity:1.0; 
stroke:#000000; stroke-width:0; stroke-opacity:1; 
stroke-linecap:round; stroke-linejoin:round;">
<circle cx="36013.6" cy="30985.2" r="560" /> 
</g>
<g style="fill:#000000; fill-opacity:1.0; 
stroke:#000000; stroke-width:118.11; stroke-opacity:1; 
stroke-linecap:round; stroke-linejoin:round;">
</g>
<g style="fill:#000000; fill-opacity:1.0; 
stroke:#000000; stroke-width:0; stroke-opacity:1; 
stroke-linecap:round; stroke-linejoin:round;">
<circle cx="38013.6" cy="30985.2" r="560" /> 
</g>
<g style="fill:#000000; fill-opacity:1.0; 
stroke:#000000; stroke-width:118.11; stroke-opacity:1; 
stroke-linecap:round; stroke-linejoin:round;">
</g>
<g style="fill:#000000; fill-opacity:1.0; 
stroke:#000000; stroke-width:0; stroke-opacity:1; 
stroke-linecap:round; stroke-linejoin:round;">
<circle cx="24013.6" cy="32985.2" r="560" /> 
</g>
<g style="fill:#000000; fill-opacity:1.0; 
stroke:#000000; stroke-width:118.11; stroke-opacity:1; 
stroke-linecap:round; stroke-linejoin:round;">
</g>
<g style="fill:#000000; fill-opacity:1.0; 
stroke:#000000; stroke-width:0; stroke-opacity:1; 
stroke-linecap:round; stroke-linejoin:round;">
<circle cx="26013.6" cy="32985.2" r="560" /> 
</g>
<g style="fill:#000000; fill-opacity:1.0; 
stroke:#000000; stroke-width:118.11; stroke-opacity:1; 
stroke-linecap:round; stroke-linejoin:round;">
</g>
<g style="fill:#000000; fill-opacity:1.0; 
stroke:#000000; stroke-width:0; stroke-opacity:1; 
stroke-linecap:round; stroke-linejoin:round;">
<circle cx="28013.6" cy="32985.2" r="560" /> 
</g>
<g style="fill:#000000; fill-opacity:1.0; 
stroke:#000000; stroke-width:118.11; stroke-opacity:1; 
stroke-linecap:round; stroke-linejoin:round;">
</g>
<g style="fill:#000000; fill-opacity:1.0; 
stroke:#000000; stroke-width:0; stroke-opacity:1; 
stroke-linecap:round; stroke-linejoin:round;">
<circle cx="30013.6" cy="32985.2" r="560" /> 
</g>
<g style="fill:#000000; fill-opacity:1.0; 
stroke:#000000; stroke-width:118.11; stroke-opacity:1; 
stroke-linecap:round; stroke-linejoin:round;">
</g>
<g style="fill:#000000; fill-opacity:1.0; 
stroke:#000000; stroke-width:0; stroke-opacity:1; 
stroke-linecap:round; stroke-linejoin:round;">
<circle cx="32013.6" cy="32985.2" r="560" /> 
</g>
<g style="fill:#000000; fill-opacity:1.0; 
stroke:#000000; stroke-width:118.11; stroke-opacity:1; 
stroke-linecap:round; stroke-linejoin:round;">
</g>
<g style="fill:#000000; fill-opacity:1.0; 
stroke:#000000; stroke-width:0; stroke-opacity:1; 
stroke-linecap:round; stroke-linejoin:round;">
<circle cx="34013.6" cy="32985.2" r="560" /> 
</g>
<g style="fill:#000000; fill-opacity:1.0; 
stroke:#000000; stroke-width:118.11; stroke-opacity:1; 
stroke-linecap:round; stroke-linejoin:round;">
</g>
<g style="fill:#000000; fill-opacity:1.0; 
stroke:#000000; stroke-width:0; stroke-opacity:1; 
stroke-linecap:round; stroke-linejoin:round;">
<circle cx="36013.6" cy="32985.2" r="560" /> 
</g>
<g style="fill:#000000; fill-opacity:1.0; 
stroke:#000000; stroke-width:118.11; stroke-opacity:1; 
stroke-linecap:round; stroke-linejoin:round;">
</g>
<g style="fill:#000000; fill-opacity:1.0; 
stroke:#000000; stroke-width:0; stroke-opacity:1; 
stroke-linecap:round; stroke-linejoin:round;">
<circle cx="38013.6" cy="32985.2" r="560" /> 
</g>
<g style="fill:#000000; fill-opacity:1.0; 
stroke:#000000; stroke-width:118.11; stroke-opacity:1; 
stroke-linecap:round; stroke-linejoin:round;">
</g>
<g style="fill:#000000; fill-opacity:1.0; 
stroke:#000000; stroke-width:0; stroke-opacity:1; 
stroke-linecap:round; stroke-linejoin:round;">
<circle cx="40013.6" cy="46985.2" r="560" /> 
</g>
<g style="fill:#000000; fill-opacity:1.0; 
stroke:#000000; stroke-width:118.11; stroke-opacity:1; 
stroke-linecap:round; stroke-linejoin:round;">
</g>
<g style="fill:#000000; fill-opacity:1.0; 
stroke:#000000; stroke-width:0; stroke-opacity:1; 
stroke-linecap:round; stroke-linejoin:round;">
<circle cx="40013.6" cy="44985.2" r="560" /> 
</g>
<g style="fill:#000000; fill-opacity:1.0; 
stroke:#000000; stroke-width:118.11; stroke-opacity:1; 
stroke-linecap:round; stroke-linejoin:round;">
</g>
<g style="fill:#000000; fill-opacity:1.0; 
stroke:#000000; stroke-width:0; stroke-opacity:1; 
stroke-linecap:round; stroke-linejoin:round;">
<circle cx="40013.6" cy="42985.2" r="560" /> 
</g>
<g style="fill:#000000; fill-opacity:1.0; 
stroke:#000000; stroke-width:118.11; stroke-opacity:1; 
stroke-linecap:round; stroke-linejoin:round;">
</g>
<g style="fill:#000000; fill-opacity:1.0; 
stroke:#000000; stroke-width:0; stroke-opacity:1; 
stroke-linecap:round; stroke-linejoin:round;">
<circle cx="40013.6" cy="32985.2" r="560" /> 
</g>
<g style="fill:#000000; fill-opacity:1.0; 
stroke:#000000; stroke-width:118.11; stroke-opacity:1; 
stroke-linecap:round; stroke-linejoin:round;">
</g>
<g style="fill:#000000; fill-opacity:1.0; 
stroke:#000000; stroke-width:0; stroke-opacity:1; 
stroke-linecap:round; stroke-linejoin:round;">
<circle cx="40013.6" cy="34985.2" r="560" /> 
</g>
<g style="fill:#000000; fill-opacity:1.0; 
stroke:#000000; stroke-width:118.11; stroke-opacity:1; 
stroke-linecap:round; stroke-linejoin:round;">
</g>
<g style="fill:#000000; fill-opacity:1.0; 
stroke:#000000; stroke-width:0; stroke-opacity:1; 
stroke-linecap:round; stroke-linejoin:round;">
<circle cx="40013.6" cy="36985.2" r="560" /> 
</g>
<g style="fill:#000000; fill-opacity:1.0; 
stroke:#000000; stroke-width:118.11; stroke-opacity:1; 
stroke-linecap:round; stroke-linejoin:round;">
</g>
<g style="fill:#000000; fill-opacity:1.0; 
stroke:#000000; stroke-width:0; stroke-opacity:1; 
stroke-linecap:round; stroke-linejoin:round;">
<circle cx="40013.6" cy="38985.2" r="560" /> 
</g>
<g style="fill:#000000; fill-opacity:1.0; 
stroke:#000000; stroke-width:118.11; stroke-opacity:1; 
stroke-linecap:round; stroke-linejoin:round;">
</g>
<g style="fill:#000000; fill-opacity:1.0; 
stroke:#000000; stroke-width:0; stroke-opacity:1; 
stroke-linecap:round; stroke-linejoin:round;">
<path style="fill:#000000; fill-opacity:1.0; 
stroke:#000000; stroke-width:0; stroke-opacity:1; 
stroke-linecap:round; stroke-linejoin:round;fill-rule:evenodd;"
d="M 39453.6,40425.2
40573.6,40425.2
40573.6,41545.2
39453.6,41545.2
Z" /> 
<circle cx="38013.6" cy="48985.2" r="560" /> 
</g>
<g style="fill:#000000; fill-opacity:1.0; 
stroke:#000000; stroke-width:118.11; stroke-opacity:1; 
stroke-linecap:round; stroke-linejoin:round;">
</g>
<g style="fill:#000000; fill-opacity:1.0; 
stroke:#000000; stroke-width:0; stroke-opacity:1; 
stroke-linecap:round; stroke-linejoin:round;">
<circle cx="38013.6" cy="46985.2" r="560" /> 
</g>
<g style="fill:#000000; fill-opacity:1.0; 
stroke:#000000; stroke-width:118.11; stroke-opacity:1; 
stroke-linecap:round; stroke-linejoin:round;">
</g>
<g style="fill:#000000; fill-opacity:1.0; 
stroke:#000000; stroke-width:0; stroke-opacity:1; 
stroke-linecap:round; stroke-linejoin:round;">
<circle cx="38013.6" cy="44985.2" r="560" /> 
</g>
<g style="fill:#000000; fill-opacity:1.0; 
stroke:#000000; stroke-width:118.11; stroke-opacity:1; 
stroke-linecap:round; stroke-linejoin:round;">
</g>
<g style="fill:#000000; fill-opacity:1.0; 
stroke:#000000; stroke-width:0; stroke-opacity:1; 
stroke-linecap:round; stroke-linejoin:round;">
<circle cx="38013.6" cy="42985.2" r="560" /> 
</g>
<g style="fill:#000000; fill-opacity:1.0; 
stroke:#000000; stroke-width:118.11; stroke-opacity:1; 
stroke-linecap:round; stroke-linejoin:round;">
</g>
<g style="fill:#000000; fill-opacity:1.0; 
stroke:#000000; stroke-width:0; stroke-opacity:1; 
stroke-linecap:round; stroke-linejoin:round;">
<circle cx="38013.6" cy="34985.2" r="560" /> 
</g>
<g style="fill:#000000; fill-opacity:1.0; 
stroke:#000000; stroke-width:118.11; stroke-opacity:1; 
stroke-linecap:round; stroke-linejoin:round;">
</g>
<g style="fill:#000000; fill-opacity:1.0; 
stroke:#000000; stroke-width:0; stroke-opacity:1; 
stroke-linecap:round; stroke-linejoin:round;">
<circle cx="38013.6" cy="36985.2" r="560" /> 
</g>
<g style="fill:#000000; fill-opacity:1.0; 
stroke:#000000; stroke-width:118.11; stroke-opacity:1; 
stroke-linecap:round; stroke-linejoin:round;">
</g>
<g style="fill:#000000; fill-opacity:1.0; 
stroke:#000000; stroke-width:0; stroke-opacity:1; 
stroke-linecap:round; stroke-linejoin:round;">
<circle cx="38013.6" cy="38985.2" r="560" /> 
</g>
<g style="fill:#000000; fill-opacity:1.0; 
stroke:#000000; stroke-width:118.11; stroke-opacity:1; 
stroke-linecap:round; stroke-linejoin:round;">
</g>
<g style="fill:#000000; fill-opacity:1.0; 
stroke:#000000; stroke-width:0; stroke-opacity:1; 
stroke-linecap:round; stroke-linejoin:round;">
<circle cx="38013.6" cy="40985.2" r="560" /> 
</g>
<g style="fill:#000000; fill-opacity:1.0; 
stroke:#000000; stroke-width:118.11; stroke-opacity:1; 
stroke-linecap:round; stroke-linejoin:round;">
</g>
<g >
</g>
<g style="fill:#000000; fill-opacity:1.0; 
stroke:#000000; stroke-width:118.11; stroke-opacity:1; 
stroke-linecap:round; stroke-linejoin:round;">
</g>
<g style="fill:#000000; fill-opacity:1.0; 
stroke:#000000; stroke-width:0; stroke-opacity:1; 
stroke-linecap:round; stroke-linejoin:round;">
<path style="fill:#000000; fill-opacity:1.0; 
stroke:#000000; stroke-width:0; stroke-opacity:1; 
stroke-linecap:round; stroke-linejoin:round;fill-rule:evenodd;"
d="M 37060.8,57796.2
35722.2,57796.2
35722.2,56457.6
37060.8,56457.6
Z" /> 
<circle cx="38391.5" cy="57126.9" r="669.291" /> 
<circle cx="40391.5" cy="57126.9" r="669.291" /> 
<circle cx="42391.5" cy="57126.9" r="669.291" /> 
<circle cx="44391.5" cy="57126.9" r="669.291" /> 
</g>
<g >
</g>
<g >
</g>
<g style="fill:#000000; fill-opacity:1.0; 
stroke:#000000; stroke-width:0; stroke-opacity:1; 
stroke-linecap:round; stroke-linejoin:round;">
<circle cx="46588.4" cy="25237.2" r="669.291" /> 
<circle cx="48588.4" cy="25237.2" r="669.291" /> 
<circle cx="50588.4" cy="25237.2" r="669.291" /> 
<circle cx="52588.4" cy="25237.2" r="669.291" /> 
<circle cx="54588.4" cy="25237.2" r="669.291" /> 
<path style="fill:#000000; fill-opacity:1.0; 
stroke:#000000; stroke-width:0; stroke-opacity:1; 
stroke-linecap:round; stroke-linejoin:round;fill-rule:evenodd;"
d="M 55919.1,24567.9
57257.7,24567.9
57257.7,25906.5
55919.1,25906.5
Z" /> 
</g>
<g >
</g>
<g style="fill:#000000; fill-opacity:1.0; 
stroke:#000000; stroke-width:0; stroke-opacity:1; 
stroke-linecap:round; stroke-linejoin:round;">
<circle cx="32966.3" cy="40386.8" r="669.291" /> 
<path style="fill:#000000; fill-opacity:1.0; 
stroke:#000000; stroke-width:0; stroke-opacity:1; 
stroke-linecap:round; stroke-linejoin:round;fill-rule:evenodd;"
d="M 33635.6,37717.5
33635.6,39056.1
32297,39056.1
32297,37717.5
Z" /> 
</g>
<g >
</g>
<g style="fill:#000000; fill-opacity:1.0; 
stroke:#000000; stroke-width:0; stroke-opacity:1; 
stroke-linecap:round; stroke-linejoin:round;">
<path style="fill:#000000; fill-opacity:1.0; 
stroke:#000000; stroke-width:0; stroke-opacity:1; 
stroke-linecap:round; stroke-linejoin:round;fill-rule:evenodd;"
d="M 31824.6,35866.6
31805.3,35866.6
31766.8,35862.8
31728.9,35855.3
31691.9,35844.1
31656.3,35829.3
31622.2,35811.1
31590.1,35789.6
31560.2,35765.1
31532.9,35737.8
31508.4,35707.9
31486.9,35675.8
31468.7,35641.7
31453.9,35606
31442.7,35569.1
31435.1,35531.2
31431.4,35492.7
31431.4,35473.4
31430.9,35473.4
31430.9,35079.7
31431.4,35079.7
31431.4,35060.4
31435.1,35021.9
31442.7,34984
31453.9,34947.1
31468.7,34911.4
31486.9,34877.3
31508.4,34845.2
31532.9,34815.3
31560.2,34788
31590.1,34763.5
31622.2,34742
31656.3,34723.8
31691.9,34709
31728.9,34697.8
31766.8,34690.2
31805.3,34686.5
31824.6,34686.5
31824.6,34686
32218.3,34686
32218.3,35867.1
31824.6,35867.1
Z" /> 
<path style="fill:#000000; fill-opacity:1.0; 
stroke:#000000; stroke-width:0; stroke-opacity:1; 
stroke-linecap:round; stroke-linejoin:round;fill-rule:evenodd;"
d="M 32454.5,34686
32848.2,34686
32848.2,34686.5
32867.5,34686.5
32906,34690.2
32943.9,34697.8
32980.8,34709
33016.5,34723.8
33050.6,34742
33082.7,34763.5
33112.6,34788
33139.9,34815.3
33164.4,34845.2
33185.9,34877.3
33204.1,34911.4
33218.9,34947.1
33230.1,34984
33237.6,35021.9
33241.4,35060.4
33241.4,35079.7
33241.9,35079.7
33241.9,35473.4
33241.4,35473.4
33241.4,35492.7
33237.6,35531.2
33230.1,35569.1
33218.9,35606
33204.1,35641.7
33185.9,35675.8
33164.4,35707.9
33139.9,35737.8
33112.6,35765.1
33082.7,35789.6
33050.6,35811.1
33016.5,35829.3
32980.8,35844.1
32943.9,35855.3
32906,35862.8
32867.5,35866.6
32848.2,35866.6
32848.2,35867.1
32454.5,35867.1
Z" /> 
</g>
<g >
</g>
<g style="fill:#000000; fill-opacity:1.0; 
stroke:#000000; stroke-width:0; stroke-opacity:1; 
stroke-linecap:round; stroke-linejoin:round;">
<path style="fill:#000000; fill-opacity:1.0; 
stroke:#000000; stroke-width:0; stroke-opacity:1; 
stroke-linecap:round; stroke-linejoin:round;fill-rule:evenodd;"
d="M 57690.7,37126.9
57690.7,38308
56115.9,38308
56115.9,37126.9
Z" /> 
<path style="fill:#000000; fill-opacity:1.0; 
stroke:#000000; stroke-width:0; stroke-opacity:1; 
stroke-linecap:round; stroke-linejoin:round;fill-rule:evenodd;"
d="M 57690.7,40749
57690.7,41930.1
56115.9,41930.1
56115.9,40749
Z" /> 
<path style="fill:#000000; fill-opacity:1.0; 
stroke:#000000; stroke-width:0; stroke-opacity:1; 
stroke-linecap:round; stroke-linejoin:round;fill-rule:evenodd;"
d="M 57690.7,38938
57690.7,40119.1
56115.9,40119.1
56115.9,38938
Z" /> 
<path style="fill:#000000; fill-opacity:1.0; 
stroke:#000000; stroke-width:0; stroke-opacity:1; 
stroke-linecap:round; stroke-linejoin:round;fill-rule:evenodd;"
d="M 52730.1,38032.4
52730.1,41024.6
51155.3,41024.6
51155.3,38032.4
Z" /> 
</g>
<g >
</g>
<g style="fill:#000000; fill-opacity:1.0; 
stroke:#000000; stroke-width:0; stroke-opacity:1; 
stroke-linecap:round; stroke-linejoin:round;">
<path style="fill:#000000; fill-opacity:1.0; 
stroke:#000000; stroke-width:0; stroke-opacity:1; 
stroke-linecap:round; stroke-linejoin:round;fill-rule:evenodd;"
d="M 57690.7,28465.5
57690.7,29646.6
56115.9,29646.6
56115.9,28465.5
Z" /> 
<path style="fill:#000000; fill-opacity:1.0; 
stroke:#000000; stroke-width:0; stroke-opacity:1; 
stroke-linecap:round; stroke-linejoin:round;fill-rule:evenodd;"
d="M 57690.7,32087.6
57690.7,33268.7
56115.9,33268.7
56115.9,32087.6
Z" /> 
<path style="fill:#000000; fill-opacity:1.0; 
stroke:#000000; stroke-width:0; stroke-opacity:1; 
stroke-linecap:round; stroke-linejoin:round;fill-rule:evenodd;"
d="M 57690.7,30276.5
57690.7,31457.6
56115.9,31457.6
56115.9,30276.5
Z" /> 
<path style="fill:#000000; fill-opacity:1.0; 
stroke:#000000; stroke-width:0; stroke-opacity:1; 
stroke-linecap:round; stroke-linejoin:round;fill-rule:evenodd;"
d="M 52730.1,29371
52730.1,32363.2
51155.3,32363.2
51155.3,29371
Z" /> 
</g>
<g >
</g>
<g style="fill:#000000; fill-opacity:1.0; 
stroke:#000000; stroke-width:0; stroke-opacity:1; 
stroke-linecap:round; stroke-linejoin:round;">
<circle cx="12651.4" cy="52158.4" r="669.291" /> 
<circle cx="12651.4" cy="50158.4" r="669.291" /> 
<circle cx="12651.4" cy="48158.4" r="669.291" /> 
<circle cx="12651.4" cy="46158.4" r="669.291" /> 
<circle cx="12651.4" cy="44158.4" r="669.291" /> 
<circle cx="12651.4" cy="42158.4" r="669.291" /> 
<circle cx="12651.4" cy="40158.4" r="669.291" /> 
<circle cx="12651.4" cy="38158.4" r="669.291" /> 
<circle cx="12651.4" cy="36158.4" r="669.291" /> 
<circle cx="12651.4" cy="34158.4" r="669.291" /> 
<circle cx="12651.4" cy="32158.4" r="669.291" /> 
<path style="fill:#000000; fill-opacity:1.0; 
stroke:#000000; stroke-width:0; stroke-opacity:1; 
stroke-linecap:round; stroke-linejoin:round;fill-rule:evenodd;"
d="M 11982.1,30827.7
11982.1,29489.1
13320.6,29489.1
13320.6,30827.7
Z" /> 
</g>
<g >
</g>
<g style="fill:#000000; fill-opacity:1.0; 
stroke:#000000; stroke-width:0; stroke-opacity:1; 
stroke-linecap:round; stroke-linejoin:round;">
<circle cx="41934.8" cy="25237.2" r="669.291" /> 
<circle cx="39934.8" cy="25237.2" r="669.291" /> 
<circle cx="37934.8" cy="25237.2" r="669.291" /> 
<circle cx="35934.8" cy="25237.2" r="669.291" /> 
<circle cx="33934.8" cy="25237.2" r="669.291" /> 
<circle cx="31934.8" cy="25237.2" r="669.291" /> 
<circle cx="29934.8" cy="25237.2" r="669.291" /> 
<circle cx="27934.8" cy="25237.2" r="669.291" /> 
<circle cx="25934.8" cy="25237.2" r="669.291" /> 
<circle cx="23934.8" cy="25237.2" r="669.291" /> 
<circle cx="21934.8" cy="25237.2" r="669.291" /> 
<path style="fill:#000000; fill-opacity:1.0; 
stroke:#000000; stroke-width:0; stroke-opacity:1; 
stroke-linecap:round; stroke-linejoin:round;fill-rule:evenodd;"
d="M 20604.1,25906.5
19265.5,25906.5
19265.5,24567.9
20604.1,24567.9
Z" /> 
</g>
<g >
</g>
<g style="fill:#000000; fill-opacity:1.0; 
stroke:#000000; stroke-width:0; stroke-opacity:1; 
stroke-linecap:round; stroke-linejoin:round;">
<circle cx="33934.8" cy="57126.9" r="669.291" /> 
<circle cx="31934.8" cy="57126.9" r="669.291" /> 
<circle cx="29934.8" cy="57126.9" r="669.291" /> 
<circle cx="27934.8" cy="57126.9" r="669.291" /> 
<circle cx="25934.8" cy="57126.9" r="669.291" /> 
<circle cx="23934.8" cy="57126.9" r="669.291" /> 
<circle cx="21934.8" cy="57126.9" r="669.291" /> 
<path style="fill:#000000; fill-opacity:1.0; 
stroke:#000000; stroke-width:0; stroke-opacity:1; 
stroke-linecap:round; stroke-linejoin:round;fill-rule:evenodd;"
d="M 20604.1,57796.2
19265.5,57796.2
19265.5,56457.6
20604.1,56457.6
Z" /> 
</g>
<g >
</g>
<g >
</g>
<g >
</g>
<g style="fill:#000000; fill-opacity:1.0; 
stroke:#000000; stroke-width:0; stroke-opacity:1; 
stroke-linecap:round; stroke-linejoin:round;">
<circle cx="12651.4" cy="57126.9" r="984.252" /> 
</g>
<g style="fill:#000000; fill-opacity:1.0; 
stroke:#000000; stroke-width:118.11; stroke-opacity:1; 
stroke-linecap:round; stroke-linejoin:round;">
</g>
<g >
</g>
<g style="fill:#000000; fill-opacity:1.0; 
stroke:#000000; stroke-width:118.11; stroke-opacity:1; 
stroke-linecap:round; stroke-linejoin:round;">
</g>
<g style="fill:#000000; fill-opacity:1.0; 
stroke:#000000; stroke-width:0; stroke-opacity:1; 
stroke-linecap:round; stroke-linejoin:round;">
<circle cx="64619.9" cy="57050.7" r="984.252" /> 
</g>
<g style="fill:#000000; fill-opacity:1.0; 
stroke:#000000; stroke-width:118.11; stroke-opacity:1; 
stroke-linecap:round; stroke-linejoin:round;">
</g>
<g >
</g>
<g style="fill:#000000; fill-opacity:1.0; 
stroke:#000000; stroke-width:118.11; stroke-opacity:1; 
stroke-linecap:round; stroke-linejoin:round;">
</g>
<g style="fill:#000000; fill-opacity:1.0; 
stroke:#000000; stroke-width:0; stroke-opacity:1; 
stroke-linecap:round; stroke-linejoin:round;">
<circle cx="12651.4" cy="25237.2" r="984.252" /> 
</g>
<g style="fill:#000000; fill-opacity:1.0; 
stroke:#000000; stroke-width:118.11; stroke-opacity:1; 
stroke-linecap:round; stroke-linejoin:round;">
</g>
<g >
</g>
<g style="fill:#000000; fill-opacity:1.0; 
stroke:#000000; stroke-width:118.11; stroke-opacity:1; 
stroke-linecap:round; stroke-linejoin:round;">
</g>
<g style="fill:#000000; fill-opacity:1.0; 
stroke:#000000; stroke-width:0; stroke-opacity:1; 
stroke-linecap:round; stroke-linejoin:round;">
<circle cx="64619.9" cy="25237.2" r="984.252" /> 
</g>
<g style="fill:#000000; fill-opacity:1.0; 
stroke:#000000; stroke-width:118.11; stroke-opacity:1; 
stroke-linecap:round; stroke-linejoin:round;">
</g>
<g >
</g>
<g >
</g>
<g >
</g>
<g >
</g>
<g >
</g>
<g >
</g>
<g >
</g>
<g style="fill:#000000; fill-opacity:1.0; 
stroke:#000000; stroke-width:118.11; stroke-opacity:1; 
stroke-linecap:round; stroke-linejoin:round;">
</g>
<g style="fill:#000000; fill-opacity:1.0; 
stroke:#000000; stroke-width:0; stroke-opacity:1; 
stroke-linecap:round; stroke-linejoin:round;">
<circle cx="63635.6" cy="42260.8" r="669.291" /> 
<circle cx="63635.6" cy="40260.8" r="669.291" /> 
<circle cx="63635.6" cy="38260.8" r="669.291" /> 
<path style="fill:#000000; fill-opacity:1.0; 
stroke:#000000; stroke-width:0; stroke-opacity:1; 
stroke-linecap:round; stroke-linejoin:round;fill-rule:evenodd;"
d="M 62966.3,36930.1
62966.3,35591.5
64304.9,35591.5
64304.9,36930.1
Z" /> 
</g>
<g >
</g>
<g >
</g>
<g >
</g>
<g >
</g>
<g style="fill:#000000; fill-opacity:1.0; 
stroke:#000000; stroke-width:0; stroke-opacity:1; 
stroke-linecap:round; stroke-linejoin:round;">
<path style="fill:#000000; fill-opacity:1.0; 
stroke:#000000; stroke-width:0; stroke-opacity:1; 
stroke-linecap:round; stroke-linejoin:round;fill-rule:evenodd;"
d="M 50091.9,36478.3
50111,36481.1
50129.8,36485.8
50147.9,36492.3
50165.4,36500.6
50182,36510.5
50197.5,36522
50211.8,36535
50224.8,36549.3
50236.3,36564.8
50246.2,36581.4
50254.5,36598.8
50261,36617
50265.7,36635.8
50268.5,36654.9
50269.5,36674.2
50269.5,37205.7
50268.5,37225
50265.7,37244.1
50261,37262.8
50254.5,37281
50246.2,37298.5
50236.3,37315
50224.8,37330.6
50211.8,37344.9
50197.5,37357.8
50182,37369.3
50165.4,37379.3
50147.9,37387.5
50129.8,37394
50111,37398.7
50091.9,37401.6
50072.6,37402.5
49324.6,37402.5
49305.3,37401.6
49286.2,37398.7
49267.4,37394
49249.2,37387.5
49231.8,37379.3
49215.2,37369.3
49199.7,37357.8
49185.4,37344.9
49172.4,37330.6
49160.9,37315
49151,37298.5
49142.7,37281
49136.2,37262.8
49131.5,37244.1
49128.7,37225
49127.7,37205.7
49127.7,36674.2
49128.7,36654.9
49131.5,36635.8
49136.2,36617
49142.7,36598.8
49151,36581.4
49160.9,36564.8
49172.4,36549.3
49185.4,36535
49199.7,36522
49215.2,36510.5
49231.8,36500.6
49249.2,36492.3
49267.4,36485.8
49286.2,36481.1
49305.3,36478.3
49324.6,36477.3
50072.6,36477.3
Z" /> 
<path style="fill:#000000; fill-opacity:1.0; 
stroke:#000000; stroke-width:0; stroke-opacity:1; 
stroke-linecap:round; stroke-linejoin:round;fill-rule:evenodd;"
d="M 50091.9,38112.1
50111,38115
50129.8,38119.7
50147.9,38126.2
50165.4,38134.4
50182,38144.4
50197.5,38155.9
50211.8,38168.8
50224.8,38183.2
50236.3,38198.7
50246.2,38215.2
50254.5,38232.7
50261,38250.9
50265.7,38269.6
50268.5,38288.7
50269.5,38308
50269.5,38839.5
50268.5,38858.8
50265.7,38877.9
50261,38896.7
50254.5,38914.9
50246.2,38932.3
50236.3,38948.9
50224.8,38964.4
50211.8,38978.7
50197.5,38991.7
50182,39003.2
50165.4,39013.1
50147.9,39021.4
50129.8,39027.9
50111,39032.6
50091.9,39035.4
50072.6,39036.4
49324.6,39036.4
49305.3,39035.4
49286.2,39032.6
49267.4,39027.9
49249.2,39021.4
49231.8,39013.1
49215.2,39003.2
49199.7,38991.7
49185.4,38978.7
49172.4,38964.4
49160.9,38948.9
49151,38932.3
49142.7,38914.9
49136.2,38896.7
49131.5,38877.9
49128.7,38858.8
49127.7,38839.5
49127.7,38308
49128.7,38288.7
49131.5,38269.6
49136.2,38250.9
49142.7,38232.7
49151,38215.2
49160.9,38198.7
49172.4,38183.2
49185.4,38168.8
49199.7,38155.9
49215.2,38144.4
49231.8,38134.4
49249.2,38126.2
49267.4,38119.7
49286.2,38115
49305.3,38112.1
49324.6,38111.2
50072.6,38111.2
Z" /> 
</g>
<g >
</g>
<g style="fill:#000000; fill-opacity:1.0; 
stroke:#000000; stroke-width:0; stroke-opacity:1; 
stroke-linecap:round; stroke-linejoin:round;">
<path style="fill:#000000; fill-opacity:1.0; 
stroke:#000000; stroke-width:0; stroke-opacity:1; 
stroke-linecap:round; stroke-linejoin:round;fill-rule:evenodd;"
d="M 50288.8,27816.9
50307.9,27819.7
50326.6,27824.4
50344.8,27830.9
50362.3,27839.2
50378.8,27849.1
50394.3,27860.6
50408.7,27873.6
50421.6,27887.9
50433.1,27903.4
50443.1,27920
50451.3,27937.4
50457.8,27955.6
50462.5,27974.4
50465.4,27993.5
50466.3,28012.8
50466.3,28544.3
50465.4,28563.6
50462.5,28582.7
50457.8,28601.4
50451.3,28619.6
50443.1,28637.1
50433.1,28653.6
50421.6,28669.1
50408.7,28683.5
50394.3,28696.4
50378.8,28707.9
50362.3,28717.9
50344.8,28726.1
50326.6,28732.6
50307.9,28737.3
50288.8,28740.2
50269.5,28741.1
49521.4,28741.1
49502.1,28740.2
49483,28737.3
49464.3,28732.6
49446.1,28726.1
49428.6,28717.9
49412.1,28707.9
49396.6,28696.4
49382.2,28683.5
49369.3,28669.1
49357.8,28653.6
49347.8,28637.1
49339.6,28619.6
49333.1,28601.4
49328.4,28582.7
49325.5,28563.6
49324.6,28544.3
49324.6,28012.8
49325.5,27993.5
49328.4,27974.4
49333.1,27955.6
49339.6,27937.4
49347.8,27920
49357.8,27903.4
49369.3,27887.9
49382.2,27873.6
49396.6,27860.6
49412.1,27849.1
49428.6,27839.2
49446.1,27830.9
49464.3,27824.4
49483,27819.7
49502.1,27816.9
49521.4,27815.9
50269.5,27815.9
Z" /> 
<path style="fill:#000000; fill-opacity:1.0; 
stroke:#000000; stroke-width:0; stroke-opacity:1; 
stroke-linecap:round; stroke-linejoin:round;fill-rule:evenodd;"
d="M 50288.8,29450.7
50307.9,29453.6
50326.6,29458.2
50344.8,29464.8
50362.3,29473
50378.8,29482.9
50394.3,29494.5
50408.7,29507.4
50421.6,29521.7
50433.1,29537.3
50443.1,29553.8
50451.3,29571.3
50457.8,29589.5
50462.5,29608.2
50465.4,29627.3
50466.3,29646.6
50466.3,30178.1
50465.4,30197.4
50462.5,30216.5
50457.8,30235.3
50451.3,30253.4
50443.1,30270.9
50433.1,30287.5
50421.6,30303
50408.7,30317.3
50394.3,30330.3
50378.8,30341.8
50362.3,30351.7
50344.8,30360
50326.6,30366.5
50307.9,30371.2
50288.8,30374
50269.5,30375
49521.4,30375
49502.1,30374
49483,30371.2
49464.3,30366.5
49446.1,30360
49428.6,30351.7
49412.1,30341.8
49396.6,30330.3
49382.2,30317.3
49369.3,30303
49357.8,30287.5
49347.8,30270.9
49339.6,30253.4
49333.1,30235.3
49328.4,30216.5
49325.5,30197.4
49324.6,30178.1
49324.6,29646.6
49325.5,29627.3
49328.4,29608.2
49333.1,29589.5
49339.6,29571.3
49347.8,29553.8
49357.8,29537.3
49369.3,29521.7
49382.2,29507.4
49396.6,29494.5
49412.1,29482.9
49428.6,29473
49446.1,29464.8
49464.3,29458.2
49483,29453.6
49502.1,29450.7
49521.4,29449.8
50269.5,29449.8
Z" /> 
</g>
<g >
</g>
<g >
</g>
<g style="fill:#000000; fill-opacity:1.0; 
stroke:#000000; stroke-width:0; stroke-opacity:1; 
stroke-linecap:round; stroke-linejoin:round;">
<path style="fill:#000000; fill-opacity:1.0; 
stroke:#000000; stroke-width:0; stroke-opacity:1; 
stroke-linecap:round; stroke-linejoin:round;fill-rule:evenodd;"
d="M 36273,34588.5
36292.1,34591.3
36310.9,34596
36329,34602.5
36346.5,34610.8
36363.1,34620.7
36378.6,34632.2
36392.9,34645.2
36405.9,34659.5
36417.4,34675
36427.3,34691.6
36435.6,34709.1
36442.1,34727.3
36446.8,34746
36449.6,34765.1
36450.6,34784.4
36450.6,35315.9
36449.6,35335.2
36446.8,35354.3
36442.1,35373.1
36435.6,35391.2
36427.3,35408.7
36417.4,35425.3
36405.9,35440.8
36392.9,35455.1
36378.6,35468.1
36363.1,35479.6
36346.5,35489.5
36329,35497.8
36310.9,35504.3
36292.1,35509
36273,35511.8
36253.7,35512.8
35505.7,35512.8
35486.4,35511.8
35467.3,35509
35448.5,35504.3
35430.4,35497.8
35412.9,35489.5
35396.3,35479.6
35380.8,35468.1
35366.5,35455.1
35353.5,35440.8
35342,35425.3
35332.1,35408.7
35323.8,35391.2
35317.3,35373.1
35312.6,35354.3
35309.8,35335.2
35308.8,35315.9
35308.8,34784.4
35309.8,34765.1
35312.6,34746
35317.3,34727.3
35323.8,34709.1
35332.1,34691.6
35342,34675
35353.5,34659.5
35366.5,34645.2
35380.8,34632.2
35396.3,34620.7
35412.9,34610.8
35430.4,34602.5
35448.5,34596
35467.3,34591.3
35486.4,34588.5
35505.7,34587.6
36253.7,34587.6
Z" /> 
<path style="fill:#000000; fill-opacity:1.0; 
stroke:#000000; stroke-width:0; stroke-opacity:1; 
stroke-linecap:round; stroke-linejoin:round;fill-rule:evenodd;"
d="M 36273,36222.4
36292.1,36225.2
36310.9,36229.9
36329,36236.4
36346.5,36244.7
36363.1,36254.6
36378.6,36266.1
36392.9,36279.1
36405.9,36293.4
36417.4,36308.9
36427.3,36325.5
36435.6,36342.9
36442.1,36361.1
36446.8,36379.9
36449.6,36399
36450.6,36418.3
36450.6,36949.8
36449.6,36969.1
36446.8,36988.2
36442.1,37006.9
36435.6,37025.1
36427.3,37042.6
36417.4,37059.1
36405.9,37074.6
36392.9,37089
36378.6,37101.9
36363.1,37113.4
36346.5,37123.4
36329,37131.6
36310.9,37138.1
36292.1,37142.8
36273,37145.7
36253.7,37146.6
35505.7,37146.6
35486.4,37145.7
35467.3,37142.8
35448.5,37138.1
35430.4,37131.6
35412.9,37123.4
35396.3,37113.4
35380.8,37101.9
35366.5,37089
35353.5,37074.6
35342,37059.1
35332.1,37042.6
35323.8,37025.1
35317.3,37006.9
35312.6,36988.2
35309.8,36969.1
35308.8,36949.8
35308.8,36418.3
35309.8,36399
35312.6,36379.9
35317.3,36361.1
35323.8,36342.9
35332.1,36325.5
35342,36308.9
35353.5,36293.4
35366.5,36279.1
35380.8,36266.1
35396.3,36254.6
35412.9,36244.7
35430.4,36236.4
35448.5,36229.9
35467.3,36225.2
35486.4,36222.4
35505.7,36221.4
36253.7,36221.4
Z" /> 
</g>
<g >
</g>
<g >
</g>
<g style="fill:#000000; fill-opacity:1.0; 
stroke:#000000; stroke-width:0; stroke-opacity:1; 
stroke-linecap:round; stroke-linejoin:round;">
<path style="fill:#000000; fill-opacity:1.0; 
stroke:#000000; stroke-width:0; stroke-opacity:1; 
stroke-linecap:round; stroke-linejoin:round;fill-rule:evenodd;"
d="M 27926.6,34312.9
27945.7,34315.8
27964.4,34320.4
27982.6,34327
28000.1,34335.2
28016.6,34345.1
28032.1,34356.7
28046.5,34369.6
28059.4,34383.9
28070.9,34399.5
28080.9,34416
28089.1,34433.5
28095.6,34451.7
28100.3,34470.4
28103.2,34489.5
28104.1,34508.8
28104.1,35256.9
28103.2,35276.1
28100.3,35295.3
28095.6,35314
28089.1,35332.2
28080.9,35349.6
28070.9,35366.2
28059.4,35381.7
28046.5,35396
28032.1,35409
28016.6,35420.5
28000.1,35430.5
27982.6,35438.7
27964.4,35445.2
27945.7,35449.9
27926.6,35452.8
27907.3,35453.7
27375.8,35453.7
27356.5,35452.8
27337.4,35449.9
27318.6,35445.2
27300.4,35438.7
27283,35430.5
27266.4,35420.5
27250.9,35409
27236.6,35396
27223.6,35381.7
27212.1,35366.2
27202.2,35349.6
27193.9,35332.2
27187.4,35314
27182.7,35295.3
27179.9,35276.1
27178.9,35256.9
27178.9,34508.8
27179.9,34489.5
27182.7,34470.4
27187.4,34451.7
27193.9,34433.5
27202.2,34416
27212.1,34399.5
27223.6,34383.9
27236.6,34369.6
27250.9,34356.7
27266.4,34345.1
27283,34335.2
27300.4,34327
27318.6,34320.4
27337.4,34315.8
27356.5,34312.9
27375.8,34312
27907.3,34312
Z" /> 
<path style="fill:#000000; fill-opacity:1.0; 
stroke:#000000; stroke-width:0; stroke-opacity:1; 
stroke-linecap:round; stroke-linejoin:round;fill-rule:evenodd;"
d="M 26292.7,34312.9
26311.8,34315.8
26330.5,34320.4
26348.7,34327
26366.2,34335.2
26382.8,34345.1
26398.3,34356.7
26412.6,34369.6
26425.6,34383.9
26437.1,34399.5
26447,34416
26455.3,34433.5
26461.8,34451.7
26466.5,34470.4
26469.3,34489.5
26470.2,34508.8
26470.2,35256.9
26469.3,35276.1
26466.5,35295.3
26461.8,35314
26455.3,35332.2
26447,35349.6
26437.1,35366.2
26425.6,35381.7
26412.6,35396
26398.3,35409
26382.8,35420.5
26366.2,35430.5
26348.7,35438.7
26330.5,35445.2
26311.8,35449.9
26292.7,35452.8
26273.4,35453.7
25741.9,35453.7
25722.6,35452.8
25703.5,35449.9
25684.8,35445.2
25666.6,35438.7
25649.1,35430.5
25632.5,35420.5
25617,35409
25602.7,35396
25589.7,35381.7
25578.2,35366.2
25568.3,35349.6
25560,35332.2
25553.5,35314
25548.8,35295.3
25546,35276.1
25545.1,35256.9
25545.1,34508.8
25546,34489.5
25548.8,34470.4
25553.5,34451.7
25560,34433.5
25568.3,34416
25578.2,34399.5
25589.7,34383.9
25602.7,34369.6
25617,34356.7
25632.5,34345.1
25649.1,34335.2
25666.6,34327
25684.8,34320.4
25703.5,34315.8
25722.6,34312.9
25741.9,34312
26273.4,34312
Z" /> 
</g>
<g >
</g>
<g >
</g>
<g style="fill:#000000; fill-opacity:1.0; 
stroke:#000000; stroke-width:0; stroke-opacity:1; 
stroke-linecap:round; stroke-linejoin:round;">
<path style="fill:#000000; fill-opacity:1.0; 
stroke:#000000; stroke-width:0; stroke-opacity:1; 
stroke-linecap:round; stroke-linejoin:round;fill-rule:evenodd;"
d="M 17965.9,45415.3
17985,45418.1
18003.8,45422.8
18022,45429.3
18039.4,45437.6
18056,45447.5
18071.5,45459
18085.8,45472
18098.8,45486.3
18110.3,45501.8
18120.2,45518.4
18128.5,45535.9
18135,45554
18139.7,45572.8
18142.5,45591.9
18143.5,45611.2
18143.5,46142.7
18142.5,46162
18139.7,46181.1
18135,46199.8
18128.5,46218
18120.2,46235.5
18110.3,46252
18098.8,46267.6
18085.8,46281.9
18071.5,46294.8
18056,46306.4
18039.4,46316.3
18022,46324.5
18003.8,46331.1
17985,46335.7
17965.9,46338.6
17946.6,46339.5
17198.6,46339.5
17179.3,46338.6
17160.2,46335.7
17141.5,46331.1
17123.3,46324.5
17105.8,46316.3
17089.2,46306.4
17073.7,46294.8
17059.4,46281.9
17046.4,46267.6
17034.9,46252
17025,46235.5
17016.7,46218
17010.2,46199.8
17005.5,46181.1
17002.7,46162
17001.7,46142.7
17001.7,45611.2
17002.7,45591.9
17005.5,45572.8
17010.2,45554
17016.7,45535.9
17025,45518.4
17034.9,45501.8
17046.4,45486.3
17059.4,45472
17073.7,45459
17089.2,45447.5
17105.8,45437.6
17123.3,45429.3
17141.5,45422.8
17160.2,45418.1
17179.3,45415.3
17198.6,45414.3
17946.6,45414.3
Z" /> 
<path style="fill:#000000; fill-opacity:1.0; 
stroke:#000000; stroke-width:0; stroke-opacity:1; 
stroke-linecap:round; stroke-linejoin:round;fill-rule:evenodd;"
d="M 17965.9,47049.1
17985,47052
18003.8,47056.7
18022,47063.2
18039.4,47071.4
18056,47081.4
18071.5,47092.9
18085.8,47105.8
18098.8,47120.2
18110.3,47135.7
18120.2,47152.2
18128.5,47169.7
18135,47187.9
18139.7,47206.6
18142.5,47225.7
18143.5,47245
18143.5,47776.5
18142.5,47795.8
18139.7,47814.9
18135,47833.7
18128.5,47851.9
18120.2,47869.3
18110.3,47885.9
18098.8,47901.4
18085.8,47915.7
18071.5,47928.7
18056,47940.2
18039.4,47950.1
18022,47958.4
18003.8,47964.9
17985,47969.6
17965.9,47972.4
17946.6,47973.4
17198.6,47973.4
17179.3,47972.4
17160.2,47969.6
17141.5,47964.9
17123.3,47958.4
17105.8,47950.1
17089.2,47940.2
17073.7,47928.7
17059.4,47915.7
17046.4,47901.4
17034.9,47885.9
17025,47869.3
17016.7,47851.9
17010.2,47833.7
17005.5,47814.9
17002.7,47795.8
17001.7,47776.5
17001.7,47245
17002.7,47225.7
17005.5,47206.6
17010.2,47187.9
17016.7,47169.7
17025,47152.2
17034.9,47135.7
17046.4,47120.2
17059.4,47105.8
17073.7,47092.9
17089.2,47081.4
17105.8,47071.4
17123.3,47063.2
17141.5,47056.7
17160.2,47052
17179.3,47049.1
17198.6,47048.2
17946.6,47048.2
Z" /> 
</g>
<g >
</g>
<g style="fill:#000000; fill-opacity:1.0; 
stroke:#000000; stroke-width:0; stroke-opacity:1; 
stroke-linecap:round; stroke-linejoin:round;">
<path style="fill:#000000; fill-opacity:1.0; 
stroke:#000000; stroke-width:0; stroke-opacity:1; 
stroke-linecap:round; stroke-linejoin:round;fill-rule:evenodd;"
d="M 42769.1,48427.1
42788.2,48429.9
42806.9,48434.6
42825.1,48441.1
42842.6,48449.4
42859.1,48459.3
42874.7,48470.8
42889,48483.8
42901.9,48498.1
42913.5,48513.6
42923.4,48530.2
42931.6,48547.7
42938.2,48565.9
42942.8,48584.6
42945.7,48603.7
42946.6,48623
42946.6,49154.5
42945.7,49173.8
42942.8,49192.9
42938.2,49211.6
42931.6,49229.8
42923.4,49247.3
42913.5,49263.9
42901.9,49279.4
42889,49293.7
42874.7,49306.7
42859.1,49318.2
42842.6,49328.1
42825.1,49336.4
42806.9,49342.9
42788.2,49347.6
42769.1,49350.4
42749.8,49351.3
42001.7,49351.3
41982.5,49350.4
41963.3,49347.6
41944.6,49342.9
41926.4,49336.4
41909,49328.1
41892.4,49318.2
41876.9,49306.7
41862.6,49293.7
41849.6,49279.4
41838.1,49263.9
41828.1,49247.3
41819.9,49229.8
41813.4,49211.6
41808.7,49192.9
41805.8,49173.8
41804.9,49154.5
41804.9,48623
41805.8,48603.7
41808.7,48584.6
41813.4,48565.9
41819.9,48547.7
41828.1,48530.2
41838.1,48513.6
41849.6,48498.1
41862.6,48483.8
41876.9,48470.8
41892.4,48459.3
41909,48449.4
41926.4,48441.1
41944.6,48434.6
41963.3,48429.9
41982.5,48427.1
42001.7,48426.1
42749.8,48426.1
Z" /> 
<path style="fill:#000000; fill-opacity:1.0; 
stroke:#000000; stroke-width:0; stroke-opacity:1; 
stroke-linecap:round; stroke-linejoin:round;fill-rule:evenodd;"
d="M 42769.1,46793.2
42788.2,46796.1
42806.9,46800.8
42825.1,46807.3
42842.6,46815.5
42859.1,46825.5
42874.7,46837
42889,46849.9
42901.9,46864.3
42913.5,46879.8
42923.4,46896.3
42931.6,46913.8
42938.2,46932
42942.8,46950.7
42945.7,46969.8
42946.6,46989.1
42946.6,47520.6
42945.7,47539.9
42942.8,47559
42938.2,47577.8
42931.6,47596
42923.4,47613.4
42913.5,47630
42901.9,47645.5
42889,47659.8
42874.7,47672.8
42859.1,47684.3
42842.6,47694.2
42825.1,47702.5
42806.9,47709
42788.2,47713.7
42769.1,47716.5
42749.8,47717.5
42001.7,47717.5
41982.5,47716.5
41963.3,47713.7
41944.6,47709
41926.4,47702.5
41909,47694.2
41892.4,47684.3
41876.9,47672.8
41862.6,47659.8
41849.6,47645.5
41838.1,47630
41828.1,47613.4
41819.9,47596
41813.4,47577.8
41808.7,47559
41805.8,47539.9
41804.9,47520.6
41804.9,46989.1
41805.8,46969.8
41808.7,46950.7
41813.4,46932
41819.9,46913.8
41828.1,46896.3
41838.1,46879.8
41849.6,46864.3
41862.6,46849.9
41876.9,46837
41892.4,46825.5
41909,46815.5
41926.4,46807.3
41944.6,46800.8
41963.3,46796.1
41982.5,46793.2
42001.7,46792.3
42749.8,46792.3
Z" /> 
</g>
<g >
</g>
<g style="fill:#000000; fill-opacity:1.0; 
stroke:#000000; stroke-width:0; stroke-opacity:1; 
stroke-linecap:round; stroke-linejoin:round;">
<path style="fill:#000000; fill-opacity:1.0; 
stroke:#000000; stroke-width:0; stroke-opacity:1; 
stroke-linecap:round; stroke-linejoin:round;fill-rule:evenodd;"
d="M 55633.2,42698.7
55652.4,42701.6
55671.1,42706.3
55689.3,42712.8
55706.7,42721
55723.3,42731
55738.8,42742.5
55753.1,42755.5
55766.1,42769.8
55777.6,42785.3
55787.6,42801.9
55795.8,42819.3
55802.3,42837.5
55807,42856.2
55809.9,42875.4
55810.8,42894.6
55810.8,43642.7
55809.9,43662
55807,43681.1
55802.3,43699.8
55795.8,43718
55787.6,43735.5
55777.6,43752
55766.1,43767.6
55753.1,43781.9
55738.8,43794.8
55723.3,43806.4
55706.7,43816.3
55689.3,43824.5
55671.1,43831.1
55652.4,43835.7
55633.2,43838.6
55614,43839.5
55082.5,43839.5
55063.2,43838.6
55044.1,43835.7
55025.3,43831.1
55007.1,43824.5
54989.7,43816.3
54973.1,43806.4
54957.6,43794.8
54943.3,43781.9
54930.3,43767.6
54918.8,43752
54908.8,43735.5
54900.6,43718
54894.1,43699.8
54889.4,43681.1
54886.6,43662
54885.6,43642.7
54885.6,42894.6
54886.6,42875.4
54889.4,42856.2
54894.1,42837.5
54900.6,42819.3
54908.8,42801.9
54918.8,42785.3
54930.3,42769.8
54943.3,42755.5
54957.6,42742.5
54973.1,42731
54989.7,42721
55007.1,42712.8
55025.3,42706.3
55044.1,42701.6
55063.2,42698.7
55082.5,42697.8
55614,42697.8
Z" /> 
<path style="fill:#000000; fill-opacity:1.0; 
stroke:#000000; stroke-width:0; stroke-opacity:1; 
stroke-linecap:round; stroke-linejoin:round;fill-rule:evenodd;"
d="M 57267.1,42698.7
57286.2,42701.6
57305,42706.3
57323.1,42712.8
57340.6,42721
57357.2,42731
57372.7,42742.5
57387,42755.5
57400,42769.8
57411.5,42785.3
57421.4,42801.9
57429.7,42819.3
57436.2,42837.5
57440.9,42856.2
57443.7,42875.4
57444.7,42894.6
57444.7,43642.7
57443.7,43662
57440.9,43681.1
57436.2,43699.8
57429.7,43718
57421.4,43735.5
57411.5,43752
57400,43767.6
57387,43781.9
57372.7,43794.8
57357.2,43806.4
57340.6,43816.3
57323.1,43824.5
57305,43831.1
57286.2,43835.7
57267.1,43838.6
57247.8,43839.5
56716.3,43839.5
56697,43838.6
56677.9,43835.7
56659.2,43831.1
56641,43824.5
56623.5,43816.3
56606.9,43806.4
56591.4,43794.8
56577.1,43781.9
56564.1,43767.6
56552.6,43752
56542.7,43735.5
56534.4,43718
56527.9,43699.8
56523.2,43681.1
56520.4,43662
56519.5,43642.7
56519.5,42894.6
56520.4,42875.4
56523.2,42856.2
56527.9,42837.5
56534.4,42819.3
56542.7,42801.9
56552.6,42785.3
56564.1,42769.8
56577.1,42755.5
56591.4,42742.5
56606.9,42731
56623.5,42721
56641,42712.8
56659.2,42706.3
56677.9,42701.6
56697,42698.7
56716.3,42697.8
57247.8,42697.8
Z" /> 
</g>
<g >
</g>
<g >
</g>
<g style="fill:#000000; fill-opacity:1.0; 
stroke:#000000; stroke-width:0; stroke-opacity:1; 
stroke-linecap:round; stroke-linejoin:round;">
<path style="fill:#000000; fill-opacity:1.0; 
stroke:#000000; stroke-width:0; stroke-opacity:1; 
stroke-linecap:round; stroke-linejoin:round;fill-rule:evenodd;"
d="M 42769.1,39175.1
42788.2,39178
42806.9,39182.7
42825.1,39189.2
42842.6,39197.4
42859.1,39207.4
42874.7,39218.9
42889,39231.8
42901.9,39246.1
42913.5,39261.7
42923.4,39278.2
42931.6,39295.7
42938.2,39313.9
42942.8,39332.6
42945.7,39351.7
42946.6,39371
42946.6,39902.5
42945.7,39921.8
42942.8,39940.9
42938.2,39959.7
42931.6,39977.9
42923.4,39995.3
42913.5,40011.9
42901.9,40027.4
42889,40041.7
42874.7,40054.7
42859.1,40066.2
42842.6,40076.1
42825.1,40084.4
42806.9,40090.9
42788.2,40095.6
42769.1,40098.4
42749.8,40099.4
42001.7,40099.4
41982.5,40098.4
41963.3,40095.6
41944.6,40090.9
41926.4,40084.4
41909,40076.1
41892.4,40066.2
41876.9,40054.7
41862.6,40041.7
41849.6,40027.4
41838.1,40011.9
41828.1,39995.3
41819.9,39977.9
41813.4,39959.7
41808.7,39940.9
41805.8,39921.8
41804.9,39902.5
41804.9,39371
41805.8,39351.7
41808.7,39332.6
41813.4,39313.9
41819.9,39295.7
41828.1,39278.2
41838.1,39261.7
41849.6,39246.1
41862.6,39231.8
41876.9,39218.9
41892.4,39207.4
41909,39197.4
41926.4,39189.2
41944.6,39182.7
41963.3,39178
41982.5,39175.1
42001.7,39174.2
42749.8,39174.2
Z" /> 
<path style="fill:#000000; fill-opacity:1.0; 
stroke:#000000; stroke-width:0; stroke-opacity:1; 
stroke-linecap:round; stroke-linejoin:round;fill-rule:evenodd;"
d="M 42769.1,37541.3
42788.2,37544.1
42806.9,37548.8
42825.1,37555.3
42842.6,37563.6
42859.1,37573.5
42874.7,37585
42889,37598
42901.9,37612.3
42913.5,37627.8
42923.4,37644.4
42931.6,37661.8
42938.2,37680
42942.8,37698.8
42945.7,37717.9
42946.6,37737.2
42946.6,38268.7
42945.7,38288
42942.8,38307.1
42938.2,38325.8
42931.6,38344
42923.4,38361.5
42913.5,38378
42901.9,38393.5
42889,38407.9
42874.7,38420.8
42859.1,38432.3
42842.6,38442.3
42825.1,38450.5
42806.9,38457
42788.2,38461.7
42769.1,38464.6
42749.8,38465.5
42001.7,38465.5
41982.5,38464.6
41963.3,38461.7
41944.6,38457
41926.4,38450.5
41909,38442.3
41892.4,38432.3
41876.9,38420.8
41862.6,38407.9
41849.6,38393.5
41838.1,38378
41828.1,38361.5
41819.9,38344
41813.4,38325.8
41808.7,38307.1
41805.8,38288
41804.9,38268.7
41804.9,37737.2
41805.8,37717.9
41808.7,37698.8
41813.4,37680
41819.9,37661.8
41828.1,37644.4
41838.1,37627.8
41849.6,37612.3
41862.6,37598
41876.9,37585
41892.4,37573.5
41909,37563.6
41926.4,37555.3
41944.6,37548.8
41963.3,37544.1
41982.5,37541.3
42001.7,37540.3
42749.8,37540.3
Z" /> 
</g>
<g >
</g>
<g style="fill:#000000; fill-opacity:1.0; 
stroke:#000000; stroke-width:0; stroke-opacity:1; 
stroke-linecap:round; stroke-linejoin:round;">
<path style="fill:#000000; fill-opacity:1.0; 
stroke:#000000; stroke-width:0; stroke-opacity:1; 
stroke-linecap:round; stroke-linejoin:round;fill-rule:evenodd;"
d="M 24521,28210.6
24540.1,28213.4
24558.9,28218.1
24577.1,28224.6
24594.5,28232.9
24611.1,28242.8
24626.6,28254.3
24640.9,28267.3
24653.9,28281.6
24665.4,28297.1
24675.4,28313.7
24683.6,28331.1
24690.1,28349.3
24694.8,28368.1
24697.6,28387.2
24698.6,28406.5
24698.6,29154.5
24697.6,29173.8
24694.8,29192.9
24690.1,29211.6
24683.6,29229.8
24675.4,29247.3
24665.4,29263.9
24653.9,29279.4
24640.9,29293.7
24626.6,29306.7
24611.1,29318.2
24594.5,29328.1
24577.1,29336.4
24558.9,29342.9
24540.1,29347.6
24521,29350.4
24501.7,29351.3
23970.2,29351.3
23951,29350.4
23931.8,29347.6
23913.1,29342.9
23894.9,29336.4
23877.5,29328.1
23860.9,29318.2
23845.4,29306.7
23831.1,29293.7
23818.1,29279.4
23806.6,29263.9
23796.6,29247.3
23788.4,29229.8
23781.9,29211.6
23777.2,29192.9
23774.3,29173.8
23773.4,29154.5
23773.4,28406.5
23774.3,28387.2
23777.2,28368.1
23781.9,28349.3
23788.4,28331.1
23796.6,28313.7
23806.6,28297.1
23818.1,28281.6
23831.1,28267.3
23845.4,28254.3
23860.9,28242.8
23877.5,28232.9
23894.9,28224.6
23913.1,28218.1
23931.8,28213.4
23951,28210.6
23970.2,28209.6
24501.7,28209.6
Z" /> 
<path style="fill:#000000; fill-opacity:1.0; 
stroke:#000000; stroke-width:0; stroke-opacity:1; 
stroke-linecap:round; stroke-linejoin:round;fill-rule:evenodd;"
d="M 26154.9,28210.6
26174,28213.4
26192.7,28218.1
26210.9,28224.6
26228.4,28232.9
26245,28242.8
26260.5,28254.3
26274.8,28267.3
26287.8,28281.6
26299.3,28297.1
26309.2,28313.7
26317.5,28331.1
26324,28349.3
26328.7,28368.1
26331.5,28387.2
26332.5,28406.5
26332.5,29154.5
26331.5,29173.8
26328.7,29192.9
26324,29211.6
26317.5,29229.8
26309.2,29247.3
26299.3,29263.9
26287.8,29279.4
26274.8,29293.7
26260.5,29306.7
26245,29318.2
26228.4,29328.1
26210.9,29336.4
26192.7,29342.9
26174,29347.6
26154.9,29350.4
26135.6,29351.3
25604.1,29351.3
25584.8,29350.4
25565.7,29347.6
25547,29342.9
25528.8,29336.4
25511.3,29328.1
25494.7,29318.2
25479.2,29306.7
25464.9,29293.7
25451.9,29279.4
25440.4,29263.9
25430.5,29247.3
25422.2,29229.8
25415.7,29211.6
25411,29192.9
25408.2,29173.8
25407.3,29154.5
25407.3,28406.5
25408.2,28387.2
25411,28368.1
25415.7,28349.3
25422.2,28331.1
25430.5,28313.7
25440.4,28297.1
25451.9,28281.6
25464.9,28267.3
25479.2,28254.3
25494.7,28242.8
25511.3,28232.9
25528.8,28224.6
25547,28218.1
25565.7,28213.4
25584.8,28210.6
25604.1,28209.6
26135.6,28209.6
Z" /> 
</g>
<g >
</g>
<g style="fill:#000000; fill-opacity:1.0; 
stroke:#000000; stroke-width:0; stroke-opacity:1; 
stroke-linecap:round; stroke-linejoin:round;">
<path style="fill:#000000; fill-opacity:1.0; 
stroke:#000000; stroke-width:0; stroke-opacity:1; 
stroke-linecap:round; stroke-linejoin:round;fill-rule:evenodd;"
d="M 24265.1,42324.7
24284.2,42327.6
24303,42332.3
24321.2,42338.8
24338.6,42347
24355.2,42357
24370.7,42368.5
24385,42381.4
24398,42395.8
24409.5,42411.3
24419.4,42427.8
24427.7,42445.3
24434.2,42463.5
24438.9,42482.2
24441.7,42501.3
24442.7,42520.6
24442.7,43052.1
24441.7,43071.4
24438.9,43090.5
24434.2,43109.3
24427.7,43127.5
24419.4,43144.9
24409.5,43161.5
24398,43177
24385,43191.3
24370.7,43204.3
24355.2,43215.8
24338.6,43225.7
24321.2,43234
24303,43240.5
24284.2,43245.2
24265.1,43248
24245.8,43249
23497.8,43249
23478.5,43248
23459.4,43245.2
23440.7,43240.5
23422.5,43234
23405,43225.7
23388.4,43215.8
23372.9,43204.3
23358.6,43191.3
23345.6,43177
23334.1,43161.5
23324.2,43144.9
23315.9,43127.5
23309.4,43109.3
23304.7,43090.5
23301.9,43071.4
23301,43052.1
23301,42520.6
23301.9,42501.3
23304.7,42482.2
23309.4,42463.5
23315.9,42445.3
23324.2,42427.8
23334.1,42411.3
23345.6,42395.8
23358.6,42381.4
23372.9,42368.5
23388.4,42357
23405,42347
23422.5,42338.8
23440.7,42332.3
23459.4,42327.6
23478.5,42324.7
23497.8,42323.8
24245.8,42323.8
Z" /> 
<path style="fill:#000000; fill-opacity:1.0; 
stroke:#000000; stroke-width:0; stroke-opacity:1; 
stroke-linecap:round; stroke-linejoin:round;fill-rule:evenodd;"
d="M 24265.1,40690.9
24284.2,40693.7
24303,40698.4
24321.2,40704.9
24338.6,40713.2
24355.2,40723.1
24370.7,40734.6
24385,40747.6
24398,40761.9
24409.5,40777.4
24419.4,40794
24427.7,40811.4
24434.2,40829.6
24438.9,40848.4
24441.7,40867.5
24442.7,40886.8
24442.7,41418.3
24441.7,41437.6
24438.9,41456.7
24434.2,41475.4
24427.7,41493.6
24419.4,41511.1
24409.5,41527.6
24398,41543.2
24385,41557.5
24370.7,41570.4
24355.2,41581.9
24338.6,41591.9
24321.2,41600.1
24303,41606.6
24284.2,41611.3
24265.1,41614.2
24245.8,41615.1
23497.8,41615.1
23478.5,41614.2
23459.4,41611.3
23440.7,41606.6
23422.5,41600.1
23405,41591.9
23388.4,41581.9
23372.9,41570.4
23358.6,41557.5
23345.6,41543.2
23334.1,41527.6
23324.2,41511.1
23315.9,41493.6
23309.4,41475.4
23304.7,41456.7
23301.9,41437.6
23301,41418.3
23301,40886.8
23301.9,40867.5
23304.7,40848.4
23309.4,40829.6
23315.9,40811.4
23324.2,40794
23334.1,40777.4
23345.6,40761.9
23358.6,40747.6
23372.9,40734.6
23388.4,40723.1
23405,40713.2
23422.5,40704.9
23440.7,40698.4
23459.4,40693.7
23478.5,40690.9
23497.8,40689.9
24245.8,40689.9
Z" /> 
</g>
<g >
</g>
<g style="fill:#000000; fill-opacity:1.0; 
stroke:#000000; stroke-width:0; stroke-opacity:1; 
stroke-linecap:round; stroke-linejoin:round;">
<path style="fill:#000000; fill-opacity:1.0; 
stroke:#000000; stroke-width:0; stroke-opacity:1; 
stroke-linecap:round; stroke-linejoin:round;fill-rule:evenodd;"
d="M 17965.9,43505.8
17985,43508.7
18003.8,43513.4
18022,43519.9
18039.4,43528.1
18056,43538.1
18071.5,43549.6
18085.8,43562.5
18098.8,43576.9
18110.3,43592.4
18120.2,43608.9
18128.5,43626.4
18135,43644.6
18139.7,43663.3
18142.5,43682.4
18143.5,43701.7
18143.5,44233.2
18142.5,44252.5
18139.7,44271.6
18135,44290.4
18128.5,44308.6
18120.2,44326
18110.3,44342.6
18098.8,44358.1
18085.8,44372.4
18071.5,44385.4
18056,44396.9
18039.4,44406.8
18022,44415.1
18003.8,44421.6
17985,44426.3
17965.9,44429.1
17946.6,44430.1
17198.6,44430.1
17179.3,44429.1
17160.2,44426.3
17141.5,44421.6
17123.3,44415.1
17105.8,44406.8
17089.2,44396.9
17073.7,44385.4
17059.4,44372.4
17046.4,44358.1
17034.9,44342.6
17025,44326
17016.7,44308.6
17010.2,44290.4
17005.5,44271.6
17002.7,44252.5
17001.7,44233.2
17001.7,43701.7
17002.7,43682.4
17005.5,43663.3
17010.2,43644.6
17016.7,43626.4
17025,43608.9
17034.9,43592.4
17046.4,43576.9
17059.4,43562.5
17073.7,43549.6
17089.2,43538.1
17105.8,43528.1
17123.3,43519.9
17141.5,43513.4
17160.2,43508.7
17179.3,43505.8
17198.6,43504.9
17946.6,43504.9
Z" /> 
<path style="fill:#000000; fill-opacity:1.0; 
stroke:#000000; stroke-width:0; stroke-opacity:1; 
stroke-linecap:round; stroke-linejoin:round;fill-rule:evenodd;"
d="M 17965.9,41872
17985,41874.8
18003.8,41879.5
18022,41886
18039.4,41894.3
18056,41904.2
18071.5,41915.7
18085.8,41928.7
18098.8,41943
18110.3,41958.5
18120.2,41975.1
18128.5,41992.5
18135,42010.7
18139.7,42029.5
18142.5,42048.6
18143.5,42067.9
18143.5,42599.4
18142.5,42618.7
18139.7,42637.8
18135,42656.5
18128.5,42674.7
18120.2,42692.2
18110.3,42708.7
18098.8,42724.3
18085.8,42738.6
18071.5,42751.5
18056,42763
18039.4,42773
18022,42781.2
18003.8,42787.7
17985,42792.4
17965.9,42795.3
17946.6,42796.2
17198.6,42796.2
17179.3,42795.3
17160.2,42792.4
17141.5,42787.7
17123.3,42781.2
17105.8,42773
17089.2,42763
17073.7,42751.5
17059.4,42738.6
17046.4,42724.3
17034.9,42708.7
17025,42692.2
17016.7,42674.7
17010.2,42656.5
17005.5,42637.8
17002.7,42618.7
17001.7,42599.4
17001.7,42067.9
17002.7,42048.6
17005.5,42029.5
17010.2,42010.7
17016.7,41992.5
17025,41975.1
17034.9,41958.5
17046.4,41943
17059.4,41928.7
17073.7,41915.7
17089.2,41904.2
17105.8,41894.3
17123.3,41886
17141.5,41879.5
17160.2,41874.8
17179.3,41872
17198.6,41871
17946.6,41871
Z" /> 
</g>
<g >
</g>
<g style="fill:#000000; fill-opacity:1.0; 
stroke:#000000; stroke-width:0; stroke-opacity:1; 
stroke-linecap:round; stroke-linejoin:round;">
<path style="fill:#000000; fill-opacity:1.0; 
stroke:#000000; stroke-width:0; stroke-opacity:1; 
stroke-linecap:round; stroke-linejoin:round;fill-rule:evenodd;"
d="M 42729.7,40690.9
42748.8,40693.7
42767.5,40698.4
42785.7,40704.9
42803.2,40713.2
42819.8,40723.1
42835.3,40734.6
42849.6,40747.6
42862.6,40761.9
42874.1,40777.4
42884,40794
42892.3,40811.4
42898.8,40829.6
42903.5,40848.4
42906.3,40867.5
42907.3,40886.8
42907.3,41418.3
42906.3,41437.6
42903.5,41456.7
42898.8,41475.4
42892.3,41493.6
42884,41511.1
42874.1,41527.6
42862.6,41543.2
42849.6,41557.5
42835.3,41570.4
42819.8,41581.9
42803.2,41591.9
42785.7,41600.1
42767.5,41606.6
42748.8,41611.3
42729.7,41614.2
42710.4,41615.1
41962.4,41615.1
41943.1,41614.2
41924,41611.3
41905.2,41606.6
41887,41600.1
41869.6,41591.9
41853,41581.9
41837.5,41570.4
41823.2,41557.5
41810.2,41543.2
41798.7,41527.6
41788.8,41511.1
41780.5,41493.6
41774,41475.4
41769.3,41456.7
41766.5,41437.6
41765.5,41418.3
41765.5,40886.8
41766.5,40867.5
41769.3,40848.4
41774,40829.6
41780.5,40811.4
41788.8,40794
41798.7,40777.4
41810.2,40761.9
41823.2,40747.6
41837.5,40734.6
41853,40723.1
41869.6,40713.2
41887,40704.9
41905.2,40698.4
41924,40693.7
41943.1,40690.9
41962.4,40689.9
42710.4,40689.9
Z" /> 
<path style="fill:#000000; fill-opacity:1.0; 
stroke:#000000; stroke-width:0; stroke-opacity:1; 
stroke-linecap:round; stroke-linejoin:round;fill-rule:evenodd;"
d="M 42729.7,42324.7
42748.8,42327.6
42767.5,42332.3
42785.7,42338.8
42803.2,42347
42819.8,42357
42835.3,42368.5
42849.6,42381.4
42862.6,42395.8
42874.1,42411.3
42884,42427.8
42892.3,42445.3
42898.8,42463.5
42903.5,42482.2
42906.3,42501.3
42907.3,42520.6
42907.3,43052.1
42906.3,43071.4
42903.5,43090.5
42898.8,43109.3
42892.3,43127.5
42884,43144.9
42874.1,43161.5
42862.6,43177
42849.6,43191.3
42835.3,43204.3
42819.8,43215.8
42803.2,43225.7
42785.7,43234
42767.5,43240.5
42748.8,43245.2
42729.7,43248
42710.4,43249
41962.4,43249
41943.1,43248
41924,43245.2
41905.2,43240.5
41887,43234
41869.6,43225.7
41853,43215.8
41837.5,43204.3
41823.2,43191.3
41810.2,43177
41798.7,43161.5
41788.8,43144.9
41780.5,43127.5
41774,43109.3
41769.3,43090.5
41766.5,43071.4
41765.5,43052.1
41765.5,42520.6
41766.5,42501.3
41769.3,42482.2
41774,42463.5
41780.5,42445.3
41788.8,42427.8
41798.7,42411.3
41810.2,42395.8
41823.2,42381.4
41837.5,42368.5
41853,42357
41869.6,42347
41887,42338.8
41905.2,42332.3
41924,42327.6
41943.1,42324.7
41962.4,42323.8
42710.4,42323.8
Z" /> 
</g>
<g >
</g>
<g style="fill:#000000; fill-opacity:1.0; 
stroke:#000000; stroke-width:0; stroke-opacity:1; 
stroke-linecap:round; stroke-linejoin:round;">
<path style="fill:#000000; fill-opacity:1.0; 
stroke:#000000; stroke-width:0; stroke-opacity:1; 
stroke-linecap:round; stroke-linejoin:round;fill-rule:evenodd;"
d="M 36273,40690.9
36292.1,40693.7
36310.9,40698.4
36329,40704.9
36346.5,40713.2
36363.1,40723.1
36378.6,40734.6
36392.9,40747.6
36405.9,40761.9
36417.4,40777.4
36427.3,40794
36435.6,40811.4
36442.1,40829.6
36446.8,40848.4
36449.6,40867.5
36450.6,40886.8
36450.6,41418.3
36449.6,41437.6
36446.8,41456.7
36442.1,41475.4
36435.6,41493.6
36427.3,41511.1
36417.4,41527.6
36405.9,41543.2
36392.9,41557.5
36378.6,41570.4
36363.1,41581.9
36346.5,41591.9
36329,41600.1
36310.9,41606.6
36292.1,41611.3
36273,41614.2
36253.7,41615.1
35505.7,41615.1
35486.4,41614.2
35467.3,41611.3
35448.5,41606.6
35430.4,41600.1
35412.9,41591.9
35396.3,41581.9
35380.8,41570.4
35366.5,41557.5
35353.5,41543.2
35342,41527.6
35332.1,41511.1
35323.8,41493.6
35317.3,41475.4
35312.6,41456.7
35309.8,41437.6
35308.8,41418.3
35308.8,40886.8
35309.8,40867.5
35312.6,40848.4
35317.3,40829.6
35323.8,40811.4
35332.1,40794
35342,40777.4
35353.5,40761.9
35366.5,40747.6
35380.8,40734.6
35396.3,40723.1
35412.9,40713.2
35430.4,40704.9
35448.5,40698.4
35467.3,40693.7
35486.4,40690.9
35505.7,40689.9
36253.7,40689.9
Z" /> 
<path style="fill:#000000; fill-opacity:1.0; 
stroke:#000000; stroke-width:0; stroke-opacity:1; 
stroke-linecap:round; stroke-linejoin:round;fill-rule:evenodd;"
d="M 36273,42324.7
36292.1,42327.6
36310.9,42332.3
36329,42338.8
36346.5,42347
36363.1,42357
36378.6,42368.5
36392.9,42381.4
36405.9,42395.8
36417.4,42411.3
36427.3,42427.8
36435.6,42445.3
36442.1,42463.5
36446.8,42482.2
36449.6,42501.3
36450.6,42520.6
36450.6,43052.1
36449.6,43071.4
36446.8,43090.5
36442.1,43109.3
36435.6,43127.5
36427.3,43144.9
36417.4,43161.5
36405.9,43177
36392.9,43191.3
36378.6,43204.3
36363.1,43215.8
36346.5,43225.7
36329,43234
36310.9,43240.5
36292.1,43245.2
36273,43248
36253.7,43249
35505.7,43249
35486.4,43248
35467.3,43245.2
35448.5,43240.5
35430.4,43234
35412.9,43225.7
35396.3,43215.8
35380.8,43204.3
35366.5,43191.3
35353.5,43177
35342,43161.5
35332.1,43144.9
35323.8,43127.5
35317.3,43109.3
35312.6,43090.5
35309.8,43071.4
35308.8,43052.1
35308.8,42520.6
35309.8,42501.3
35312.6,42482.2
35317.3,42463.5
35323.8,42445.3
35332.1,42427.8
35342,42411.3
35353.5,42395.8
35366.5,42381.4
35380.8,42368.5
35396.3,42357
35412.9,42347
35430.4,42338.8
35448.5,42332.3
35467.3,42327.6
35486.4,42324.7
35505.7,42323.8
36253.7,42323.8
Z" /> 
</g>
<g >
</g>
<g style="fill:#000000; fill-opacity:1.0; 
stroke:#000000; stroke-width:0; stroke-opacity:1; 
stroke-linecap:round; stroke-linejoin:round;">
<path style="fill:#000000; fill-opacity:1.0; 
stroke:#000000; stroke-width:0; stroke-opacity:1; 
stroke-linecap:round; stroke-linejoin:round;fill-rule:evenodd;"
d="M 28536.8,46320.8
28555.9,46323.6
28574.6,46328.3
28592.8,46334.8
28610.3,46343.1
28626.9,46353
28642.4,46364.5
28656.7,46377.5
28669.7,46391.8
28681.2,46407.3
28691.1,46423.9
28699.4,46441.4
28705.9,46459.6
28710.6,46478.3
28713.4,46497.4
28714.3,46516.7
28714.3,47264.7
28713.4,47284
28710.6,47303.1
28705.9,47321.9
28699.4,47340.1
28691.1,47357.5
28681.2,47374.1
28669.7,47389.6
28656.7,47403.9
28642.4,47416.9
28626.9,47428.4
28610.3,47438.3
28592.8,47446.6
28574.6,47453.1
28555.9,47457.8
28536.8,47460.6
28517.5,47461.6
27986,47461.6
27966.7,47460.6
27947.6,47457.8
27928.9,47453.1
27910.7,47446.6
27893.2,47438.3
27876.6,47428.4
27861.1,47416.9
27846.8,47403.9
27833.8,47389.6
27822.3,47374.1
27812.4,47357.5
27804.1,47340.1
27797.6,47321.9
27792.9,47303.1
27790.1,47284
27789.1,47264.7
27789.1,46516.7
27790.1,46497.4
27792.9,46478.3
27797.6,46459.6
27804.1,46441.4
27812.4,46423.9
27822.3,46407.3
27833.8,46391.8
27846.8,46377.5
27861.1,46364.5
27876.6,46353
27893.2,46343.1
27910.7,46334.8
27928.9,46328.3
27947.6,46323.6
27966.7,46320.8
27986,46319.8
28517.5,46319.8
Z" /> 
<path style="fill:#000000; fill-opacity:1.0; 
stroke:#000000; stroke-width:0; stroke-opacity:1; 
stroke-linecap:round; stroke-linejoin:round;fill-rule:evenodd;"
d="M 30170.6,46320.8
30189.8,46323.6
30208.5,46328.3
30226.7,46334.8
30244.1,46343.1
30260.7,46353
30276.2,46364.5
30290.5,46377.5
30303.5,46391.8
30315,46407.3
30325,46423.9
30333.2,46441.4
30339.7,46459.6
30344.4,46478.3
30347.3,46497.4
30348.2,46516.7
30348.2,47264.7
30347.3,47284
30344.4,47303.1
30339.7,47321.9
30333.2,47340.1
30325,47357.5
30315,47374.1
30303.5,47389.6
30290.5,47403.9
30276.2,47416.9
30260.7,47428.4
30244.1,47438.3
30226.7,47446.6
30208.5,47453.1
30189.8,47457.8
30170.6,47460.6
30151.4,47461.6
29619.9,47461.6
29600.6,47460.6
29581.5,47457.8
29562.7,47453.1
29544.5,47446.6
29527.1,47438.3
29510.5,47428.4
29495,47416.9
29480.7,47403.9
29467.7,47389.6
29456.2,47374.1
29446.2,47357.5
29438,47340.1
29431.5,47321.9
29426.8,47303.1
29424,47284
29423,47264.7
29423,46516.7
29424,46497.4
29426.8,46478.3
29431.5,46459.6
29438,46441.4
29446.2,46423.9
29456.2,46407.3
29467.7,46391.8
29480.7,46377.5
29495,46364.5
29510.5,46353
29527.1,46343.1
29544.5,46334.8
29562.7,46328.3
29581.5,46323.6
29600.6,46320.8
29619.9,46319.8
30151.4,46319.8
Z" /> 
</g>
<g >
</g>
<g style="fill:#000000; fill-opacity:1.0; 
stroke:#000000; stroke-width:0; stroke-opacity:1; 
stroke-linecap:round; stroke-linejoin:round;">
<path style="fill:#000000; fill-opacity:1.0; 
stroke:#000000; stroke-width:0; stroke-opacity:1; 
stroke-linecap:round; stroke-linejoin:round;fill-rule:evenodd;"
d="M 55465.9,34037.3
55485,34040.2
55503.8,34044.9
55522,34051.4
55539.4,34059.6
55556,34069.6
55571.5,34081.1
55585.8,34094
55598.8,34108.4
55610.3,34123.9
55620.2,34140.4
55628.5,34157.9
55635,34176.1
55639.7,34194.8
55642.5,34213.9
55643.5,34233.2
55643.5,34981.3
55642.5,35000.6
55639.7,35019.7
55635,35038.4
55628.5,35056.6
55620.2,35074.1
55610.3,35090.6
55598.8,35106.1
55585.8,35120.5
55571.5,35133.4
55556,35144.9
55539.4,35154.9
55522,35163.1
55503.8,35169.6
55485,35174.3
55465.9,35177.2
55446.6,35178.1
54915.1,35178.1
54895.8,35177.2
54876.7,35174.3
54858,35169.6
54839.8,35163.1
54822.3,35154.9
54805.8,35144.9
54790.3,35133.4
54775.9,35120.5
54763,35106.1
54751.5,35090.6
54741.5,35074.1
54733.3,35056.6
54726.8,35038.4
54722.1,35019.7
54719.2,35000.6
54718.3,34981.3
54718.3,34233.2
54719.2,34213.9
54722.1,34194.8
54726.8,34176.1
54733.3,34157.9
54741.5,34140.4
54751.5,34123.9
54763,34108.4
54775.9,34094
54790.3,34081.1
54805.8,34069.6
54822.3,34059.6
54839.8,34051.4
54858,34044.9
54876.7,34040.2
54895.8,34037.3
54915.1,34036.4
55446.6,34036.4
Z" /> 
<path style="fill:#000000; fill-opacity:1.0; 
stroke:#000000; stroke-width:0; stroke-opacity:1; 
stroke-linecap:round; stroke-linejoin:round;fill-rule:evenodd;"
d="M 57099.8,34037.3
57118.9,34040.2
57137.6,34044.9
57155.8,34051.4
57173.3,34059.6
57189.9,34069.6
57205.4,34081.1
57219.7,34094
57232.7,34108.4
57244.2,34123.9
57254.1,34140.4
57262.4,34157.9
57268.9,34176.1
57273.6,34194.8
57276.4,34213.9
57277.3,34233.2
57277.3,34981.3
57276.4,35000.6
57273.6,35019.7
57268.9,35038.4
57262.4,35056.6
57254.1,35074.1
57244.2,35090.6
57232.7,35106.1
57219.7,35120.5
57205.4,35133.4
57189.9,35144.9
57173.3,35154.9
57155.8,35163.1
57137.6,35169.6
57118.9,35174.3
57099.8,35177.2
57080.5,35178.1
56549,35178.1
56529.7,35177.2
56510.6,35174.3
56491.8,35169.6
56473.7,35163.1
56456.2,35154.9
56439.6,35144.9
56424.1,35133.4
56409.8,35120.5
56396.8,35106.1
56385.3,35090.6
56375.4,35074.1
56367.1,35056.6
56360.6,35038.4
56355.9,35019.7
56353.1,35000.6
56352.1,34981.3
56352.1,34233.2
56353.1,34213.9
56355.9,34194.8
56360.6,34176.1
56367.1,34157.9
56375.4,34140.4
56385.3,34123.9
56396.8,34108.4
56409.8,34094
56424.1,34081.1
56439.6,34069.6
56456.2,34059.6
56473.7,34051.4
56491.8,34044.9
56510.6,34040.2
56529.7,34037.3
56549,34036.4
57080.5,34036.4
Z" /> 
</g>
<g >
</g>
<g style="fill:#000000; fill-opacity:1.0; 
stroke:#000000; stroke-width:0; stroke-opacity:1; 
stroke-linecap:round; stroke-linejoin:round;">
<circle cx="45029.3" cy="43835.6" r="590.551" /> 
</g>
<g style="fill:#000000; fill-opacity:1.0; 
stroke:#000000; stroke-width:118.11; stroke-opacity:1; 
stroke-linecap:round; stroke-linejoin:round;">
</g>
<g style="fill:#000000; fill-opacity:1.0; 
stroke:#000000; stroke-width:0; stroke-opacity:1; 
stroke-linecap:round; stroke-linejoin:round;">
<circle cx="45029.3" cy="47678.1" r="590.551" /> 
</g>
<g style="fill:#000000; fill-opacity:1.0; 
stroke:#000000; stroke-width:118.11; stroke-opacity:1; 
stroke-linecap:round; stroke-linejoin:round;">
</g>
<g >
</g>
<g style="fill:#000000; fill-opacity:1.0; 
stroke:#000000; stroke-width:118.11; stroke-opacity:1; 
stroke-linecap:round; stroke-linejoin:round;">
</g>
<g style="fill:#000000; fill-opacity:1.0; 
stroke:#000000; stroke-width:0; stroke-opacity:1; 
stroke-linecap:round; stroke-linejoin:round;">
<circle cx="59344.3" cy="52914.3" r="787.402" /> 
</g>
<g style="fill:#000000; fill-opacity:1.0; 
stroke:#000000; stroke-width:118.11; stroke-opacity:1; 
stroke-linecap:round; stroke-linejoin:round;">
</g>
<g style="fill:#000000; fill-opacity:1.0; 
stroke:#000000; stroke-width:0; stroke-opacity:1; 
stroke-linecap:round; stroke-linejoin:round;">
<circle cx="59344.3" cy="49371" r="787.402" /> 
</g>
<g style="fill:#000000; fill-opacity:1.0; 
stroke:#000000; stroke-width:118.11; stroke-opacity:1; 
stroke-linecap:round; stroke-linejoin:round;">
</g>
<g style="fill:#000000; fill-opacity:1.0; 
stroke:#000000; stroke-width:0; stroke-opacity:1; 
stroke-linecap:round; stroke-linejoin:round;">
<circle cx="64462.4" cy="52914.3" r="787.402" /> 
</g>
<g style="fill:#000000; fill-opacity:1.0; 
stroke:#000000; stroke-width:118.11; stroke-opacity:1; 
stroke-linecap:round; stroke-linejoin:round;">
</g>
<g style="fill:#000000; fill-opacity:1.0; 
stroke:#000000; stroke-width:0; stroke-opacity:1; 
stroke-linecap:round; stroke-linejoin:round;">
<circle cx="64462.4" cy="49371" r="787.402" /> 
</g>
<g style="fill:#000000; fill-opacity:1.0; 
stroke:#000000; stroke-width:118.11; stroke-opacity:1; 
stroke-linecap:round; stroke-linejoin:round;">
</g>
<g >
</g>
<g >
</g>
<g >
</g>
</g> 
</svg>
