<?xml version="1.0" standalone="no"?>
 <!DOCTYPE svg PUBLIC "-//W3C//DTD SVG 1.1//EN" 
 "http://www.w3.org/Graphics/SVG/1.1/DTD/svg11.dtd"> 
<svg
  xmlns:svg="http://www.w3.org/2000/svg"
  xmlns="http://www.w3.org/2000/svg"
  xmlns:xlink="http://www.w3.org/1999/xlink"
  version="1.1"
  width="29.700220cm" height="21.000720cm" viewBox="0 0 116930 82680">
<title>SVG Picture created as board-B_Fab.svg date 2021/03/29 15:50:42 </title>
  <desc>Picture generated by PCBNEW </desc>
<g style="fill:#000000; fill-opacity:1;stroke:#000000; stroke-opacity:1;
stroke-linecap:round; stroke-linejoin:round;"
 transform="translate(0 0) scale(1 1)">
</g>
<g style="fill:#000000; fill-opacity:0.0; 
stroke:#000000; stroke-width:-0.000787402; stroke-opacity:1; 
stroke-linecap:round; stroke-linejoin:round;">
</g>
<g style="fill:#000000; fill-opacity:0.0; 
stroke:#000000; stroke-width:78.7402; stroke-opacity:1; 
stroke-linecap:round; stroke-linejoin:round;">
<path d="M10289.1 57126.9 A2362.2 2362.2 0.0 0 0 12651.4 59489.1" />
<path d="M12651.4 22875 A2362.2 2362.2 0.0 0 0 10289.1 25237.2" />
<path d="M66982.1 25237.2 A2362.2 2362.2 0.0 0 0 64619.9 22875" />
<path d="M64619.9 59489.1 A2362.21 2362.21 0.0 0 0 66982.1 57126.9" />
<path d="M12651 59489
L64619 59489
" />
<path d="M10289 25237
L10289 57126
" />
<path d="M64619 22874
L12651 22874
" />
<path d="M66982 57126
L66982 25237
" />
<path d="M31745 52697
L30171 52697
" />
<path d="M31745 53682
L31745 52697
" />
<path d="M30171 53682
L31745 53682
" />
<path d="M30171 52697
L30171 53682
" />
<path d="M33966 37386
L32466 37386
" />
<path d="M32466 37386
L31966 37886
" />
<path d="M31966 37886
L31966 41386
" />
<path d="M31966 41386
L33966 41386
" />
<path d="M33966 41386
L33966 37386
" />
<path d="M52966 36890
L52966 42166
" />
<path d="M55879 42166
L52966 42166
" />
<path d="M55052 36890
L52966 36890
" />
<path d="M55879 37717
L55879 42166
" />
<path d="M55879 37717
L55052 36890
" />
<path d="M52966 28229
L52966 33504
" />
<path d="M55879 33504
L52966 33504
" />
<path d="M55052 28229
L52966 28229
" />
<path d="M55879 29056
L55879 33504
" />
<path d="M55879 29056
L55052 28229
" />
<path d="M49206 36969
L49206 38544
" />
<path d="M50190 36969
L49206 36969
" />
<path d="M50190 38544
L50190 36969
" />
<path d="M49206 38544
L50190 38544
" />
<path d="M49403 28308
L49403 29882
" />
<path d="M50387 28308
L49403 28308
" />
<path d="M50387 29882
L50387 28308
" />
<path d="M49403 29882
L50387 29882
" />
<path d="M35387 35079
L35387 36654
" />
<path d="M36371 35079
L35387 35079
" />
<path d="M36371 36654
L36371 35079
" />
<path d="M35387 36654
L36371 36654
" />
<path d="M27611 34390
L26037 34390
" />
<path d="M27611 35374
L27611 34390
" />
<path d="M26037 35374
L27611 35374
" />
<path d="M26037 34390
L26037 35374
" />
<path d="M17080 45906
L17080 47481
" />
<path d="M18064 45906
L17080 45906
" />
<path d="M18064 47481
L18064 45906
" />
<path d="M17080 47481
L18064 47481
" />
<path d="M42867 48859
L42867 47284
" />
<path d="M41883 48859
L42867 48859
" />
<path d="M41883 47284
L41883 48859
" />
<path d="M42867 47284
L41883 47284
" />
<path d="M55377 43760
L56952 43760
" />
<path d="M55377 42776
L55377 43760
" />
<path d="M56952 42776
L55377 42776
" />
<path d="M56952 43760
L56952 42776
" />
<path d="M42867 39607
L42867 38032
" />
<path d="M41883 39607
L42867 39607
" />
<path d="M41883 38032
L41883 39607
" />
<path d="M42867 38032
L41883 38032
" />
<path d="M24265 29272
L25840 29272
" />
<path d="M24265 28288
L24265 29272
" />
<path d="M25840 28288
L24265 28288
" />
<path d="M25840 29272
L25840 28288
" />
<path d="M24363 42756
L24363 41182
" />
<path d="M23379 42756
L24363 42756
" />
<path d="M23379 41182
L23379 42756
" />
<path d="M24363 41182
L23379 41182
" />
<path d="M18064 43937
L18064 42363
" />
<path d="M17080 43937
L18064 43937
" />
<path d="M17080 42363
L17080 43937
" />
<path d="M18064 42363
L17080 42363
" />
<path d="M41844 41182
L41844 42756
" />
<path d="M42828 41182
L41844 41182
" />
<path d="M42828 42756
L42828 41182
" />
<path d="M41844 42756
L42828 42756
" />
<path d="M35387 41182
L35387 42756
" />
<path d="M36371 41182
L35387 41182
" />
<path d="M36371 42756
L36371 41182
" />
<path d="M35387 42756
L36371 42756
" />
<path d="M28281 47382
L29856 47382
" />
<path d="M28281 46398
L28281 47382
" />
<path d="M29856 46398
L28281 46398
" />
<path d="M29856 47382
L29856 46398
" />
<path d="M55210 35099
L56785 35099
" />
<path d="M55210 34115
L55210 35099
" />
<path d="M56785 34115
L55210 34115
" />
<path d="M56785 35099
L56785 34115
" />
<g >
</g>
<g >
</g>
<g >
</g>
<g >
</g>
<g >
</g>
<g >
</g>
<g >
</g>
<g >
</g>
<g >
</g>
<g >
</g>
<g >
</g>
<g >
</g>
<g >
</g>
<g >
</g>
<g >
</g>
<g >
</g>
<g >
</g>
<g >
</g>
<g >
</g>
<g >
</g>
<g >
</g>
<g >
</g>
<g >
</g>
<g >
</g>
<g >
</g>
<g >
</g>
<g >
</g>
<g >
</g>
<g >
</g>
<g >
</g>
<g >
</g>
<g >
</g>
<g >
</g>
<g >
</g>
<g >
</g>
<g >
</g>
<g >
</g>
<g >
</g>
<g >
</g>
<g >
</g>
<g >
</g>
<g >
</g>
<g >
</g>
<g >
</g>
<g >
</g>
<g >
</g>
<g >
</g>
<g >
</g>
<g >
</g>
</g>
<g style="fill:#000000; fill-opacity:0.0; 
stroke:#000000; stroke-width:78.7402; stroke-opacity:1; 
stroke-linecap:round; stroke-linejoin:round;">
</g>
<g style="fill:#000000; fill-opacity:0.0; 
stroke:#000000; stroke-width:118.11; stroke-opacity:1; 
stroke-linecap:round; stroke-linejoin:round;">
<text x="30958.4" y="52260.8"
transform="scale(-1 1) translate(-61916.877165 0)"
textLength="2839.3" font-size="1049.87" lengthAdjust="spacingAndGlyphs"
text-anchor="middle" opacity="0">100n</text>
<path d="M31839 52223
L32289 52223
" />
<path d="M32064 52223
L32064 51435
L32139 51548
L32214 51623
L32289 51660
" />
<path d="M31352 51435
L31277 51435
L31202 51473
L31164 51510
L31127 51585
L31089 51735
L31089 51923
L31127 52073
L31164 52148
L31202 52185
L31277 52223
L31352 52223
L31427 52185
L31464 52148
L31502 52073
L31539 51923
L31539 51735
L31502 51585
L31464 51510
L31427 51473
L31352 51435
" />
<path d="M30602 51435
L30527 51435
L30452 51473
L30414 51510
L30377 51585
L30339 51735
L30339 51923
L30377 52073
L30414 52148
L30452 52185
L30527 52223
L30602 52223
L30677 52185
L30714 52148
L30752 52073
L30789 51923
L30789 51735
L30752 51585
L30714 51510
L30677 51473
L30602 51435
" />
<path d="M30002 51698
L30002 52223
" />
<path d="M30002 51773
L29964 51735
L29889 51698
L29777 51698
L29702 51735
L29664 51810
L29664 52223
" />
</g>
<g style="fill:#000000; fill-opacity:0.0; 
stroke:#000000; stroke-width:62.9921; stroke-opacity:1; 
stroke-linecap:round; stroke-linejoin:round;">
<text x="30958.4" y="53583.6"
transform="scale(-1 1) translate(-61916.877165 0)"
textLength="1383.76" font-size="1049.87" lengthAdjust="spacingAndGlyphs"
text-anchor="middle" opacity="0">C8</text>
<path d="M31089 53471
L31127 53508
L31239 53546
L31314 53546
L31427 53508
L31502 53433
L31539 53358
L31577 53208
L31577 53096
L31539 52946
L31502 52871
L31427 52796
L31314 52758
L31239 52758
L31127 52796
L31089 52833
" />
<path d="M30639 53096
L30714 53058
L30752 53021
L30789 52946
L30789 52908
L30752 52833
L30714 52796
L30639 52758
L30489 52758
L30414 52796
L30377 52833
L30339 52908
L30339 52946
L30377 53021
L30414 53058
L30489 53096
L30639 53096
L30714 53133
L30752 53171
L30789 53246
L30789 53396
L30752 53471
L30714 53508
L30639 53546
L30489 53546
L30414 53508
L30377 53471
L30339 53396
L30339 53246
L30377 53171
L30414 53133
L30489 53096
" />
</g>
<g style="fill:#000000; fill-opacity:0.0; 
stroke:#000000; stroke-width:118.11; stroke-opacity:1; 
stroke-linecap:round; stroke-linejoin:round;">
<g transform="rotate(-90 32966.3 39386.8)">
<text x="32966.3" y="39780.5"
transform="scale(-1 1) translate(-65932.625197 0)"
textLength="1267.94" font-size="1049.87" lengthAdjust="spacingAndGlyphs"
text-anchor="middle" opacity="0">J6</text>
</g>
<path d="M32535 39124
L33097 39124
L33210 39086
L33285 39011
L33322 38899
L33322 38824
" />
<path d="M32535 39836
L32535 39686
L32572 39611
L32610 39574
L32722 39499
L32872 39461
L33172 39461
L33247 39499
L33285 39536
L33322 39611
L33322 39761
L33285 39836
L33247 39874
L33172 39911
L32985 39911
L32910 39874
L32872 39836
L32835 39761
L32835 39611
L32872 39536
L32910 39499
L32985 39461
" />
<text x="32336.4" y="37166.3"
transform="scale(-1 1) translate(-64672.782677 0)"
textLength="14244.7" font-size="1049.87" lengthAdjust="spacingAndGlyphs"
text-anchor="middle" opacity="0">SolderJumper_2_Bridged</text>
<path d="M39385 37091
L39273 37128
L39085 37128
L39010 37091
L38973 37053
L38935 36978
L38935 36903
L38973 36828
L39010 36791
L39085 36753
L39235 36716
L39310 36678
L39348 36641
L39385 36566
L39385 36491
L39348 36416
L39310 36378
L39235 36341
L39048 36341
L38935 36378
" />
<path d="M38485 37128
L38560 37091
L38598 37053
L38635 36978
L38635 36753
L38598 36678
L38560 36641
L38485 36603
L38373 36603
L38298 36641
L38260 36678
L38223 36753
L38223 36978
L38260 37053
L38298 37091
L38373 37128
L38485 37128
" />
<path d="M37773 37128
L37848 37091
L37885 37016
L37885 36341
" />
<path d="M37135 37128
L37135 36341
" />
<path d="M37135 37091
L37210 37128
L37360 37128
L37435 37091
L37473 37053
L37510 36978
L37510 36753
L37473 36678
L37435 36641
L37360 36603
L37210 36603
L37135 36641
" />
<path d="M36460 37091
L36535 37128
L36685 37128
L36760 37091
L36798 37016
L36798 36716
L36760 36641
L36685 36603
L36535 36603
L36460 36641
L36423 36716
L36423 36791
L36798 36866
" />
<path d="M36085 37128
L36085 36603
" />
<path d="M36085 36753
L36048 36678
L36010 36641
L35935 36603
L35860 36603
" />
<path d="M35373 36341
L35373 36903
L35411 37016
L35485 37091
L35598 37128
L35673 37128
" />
<path d="M34661 36603
L34661 37128
" />
<path d="M34998 36603
L34998 37016
L34961 37091
L34886 37128
L34773 37128
L34698 37091
L34661 37053
" />
<path d="M34286 37128
L34286 36603
" />
<path d="M34286 36678
L34248 36641
L34173 36603
L34061 36603
L33986 36641
L33948 36716
L33948 37128
" />
<path d="M33948 36716
L33911 36641
L33836 36603
L33723 36603
L33648 36641
L33611 36716
L33611 37128
" />
<path d="M33236 36603
L33236 37391
" />
<path d="M33236 36641
L33161 36603
L33011 36603
L32936 36641
L32898 36678
L32861 36753
L32861 36978
L32898 37053
L32936 37091
L33011 37128
L33161 37128
L33236 37091
" />
<path d="M32223 37091
L32298 37128
L32448 37128
L32523 37091
L32561 37016
L32561 36716
L32523 36641
L32448 36603
L32298 36603
L32223 36641
L32186 36716
L32186 36791
L32561 36866
" />
<path d="M31848 37128
L31848 36603
" />
<path d="M31848 36753
L31811 36678
L31773 36641
L31698 36603
L31623 36603
" />
<path d="M31548 37203
L30949 37203
" />
<path d="M30799 36416
L30761 36378
L30686 36341
L30499 36341
L30424 36378
L30386 36416
L30349 36491
L30349 36566
L30386 36678
L30836 37128
L30349 37128
" />
<path d="M30199 37203
L29599 37203
" />
<path d="M29149 36716
L29036 36753
L28999 36791
L28961 36866
L28961 36978
L28999 37053
L29036 37091
L29111 37128
L29411 37128
L29411 36341
L29149 36341
L29074 36378
L29036 36416
L28999 36491
L28999 36566
L29036 36641
L29074 36678
L29149 36716
L29411 36716
" />
<path d="M28624 37128
L28624 36603
" />
<path d="M28624 36753
L28586 36678
L28549 36641
L28474 36603
L28399 36603
" />
<path d="M28136 37128
L28136 36603
" />
<path d="M28136 36341
L28174 36378
L28136 36416
L28099 36378
L28136 36341
L28136 36416
" />
<path d="M27424 37128
L27424 36341
" />
<path d="M27424 37091
L27499 37128
L27649 37128
L27724 37091
L27761 37053
L27799 36978
L27799 36753
L27761 36678
L27724 36641
L27649 36603
L27499 36603
L27424 36641
" />
<path d="M26712 36603
L26712 37241
L26749 37316
L26787 37353
L26862 37391
L26974 37391
L27049 37353
" />
<path d="M26712 37091
L26787 37128
L26937 37128
L27012 37091
L27049 37053
L27087 36978
L27087 36753
L27049 36678
L27012 36641
L26937 36603
L26787 36603
L26712 36641
" />
<path d="M26037 37091
L26112 37128
L26262 37128
L26337 37091
L26374 37016
L26374 36716
L26337 36641
L26262 36603
L26112 36603
L26037 36641
L25999 36716
L25999 36791
L26374 36866
" />
<path d="M25324 37128
L25324 36341
" />
<path d="M25324 37091
L25399 37128
L25549 37128
L25624 37091
L25662 37053
L25699 36978
L25699 36753
L25662 36678
L25624 36641
L25549 36603
L25399 36603
L25324 36641
" />
<text x="54423" y="43465.5"
transform="scale(-1 1) translate(-108846.011024 0)"
textLength="7233.03" font-size="1049.87" lengthAdjust="spacingAndGlyphs"
text-anchor="middle" opacity="0">LM1117-3.3</text>
<path d="M57553 43428
L57928 43428
L57928 42640
" />
<path d="M57291 43428
L57291 42640
L57028 43203
L56766 42640
L56766 43428
" />
<path d="M55979 43428
L56429 43428
" />
<path d="M56204 43428
L56204 42640
L56279 42753
L56354 42828
L56429 42865
" />
<path d="M55229 43428
L55679 43428
" />
<path d="M55454 43428
L55454 42640
L55529 42753
L55604 42828
L55679 42865
" />
<path d="M54479 43428
L54929 43428
" />
<path d="M54704 43428
L54704 42640
L54779 42753
L54854 42828
L54929 42865
" />
<path d="M54216 42640
L53691 42640
L54029 43428
" />
<path d="M53391 43128
L52791 43128
" />
<path d="M52491 42640
L52004 42640
L52267 42940
L52154 42940
L52079 42978
L52042 43015
L52004 43090
L52004 43278
L52042 43353
L52079 43390
L52154 43428
L52379 43428
L52454 43390
L52491 43353
" />
<path d="M51667 43353
L51629 43390
L51667 43428
L51704 43390
L51667 43353
L51667 43428
" />
<path d="M51367 42640
L50879 42640
L51142 42940
L51029 42940
L50954 42978
L50917 43015
L50879 43090
L50879 43278
L50917 43353
L50954 43390
L51029 43428
L51254 43428
L51329 43390
L51367 43353
" />
</g>
<g style="fill:#000000; fill-opacity:0.0; 
stroke:#000000; stroke-width:94.4882; stroke-opacity:1; 
stroke-linecap:round; stroke-linejoin:round;">
<g transform="rotate(-90 54423 39528.5)">
<text x="54423" y="39922.2"
transform="scale(-1 1) translate(-108846.011024 0)"
textLength="1421.26" font-size="1049.87" lengthAdjust="spacingAndGlyphs"
text-anchor="middle" opacity="0">U2</text>
</g>
<path d="M53991 38928
L54629 38928
L54704 38966
L54741 39003
L54779 39078
L54779 39228
L54741 39303
L54704 39341
L54629 39378
L53991 39378
" />
<path d="M54066 39715
L54029 39753
L53991 39828
L53991 40015
L54029 40090
L54066 40128
L54141 40165
L54216 40165
L54329 40128
L54779 39678
L54779 40165
" />
</g>
<g style="fill:#000000; fill-opacity:0.0; 
stroke:#000000; stroke-width:118.11; stroke-opacity:1; 
stroke-linecap:round; stroke-linejoin:round;">
<text x="54423" y="34804.1"
transform="scale(-1 1) translate(-108846.011024 0)"
textLength="7263.74" font-size="1049.87" lengthAdjust="spacingAndGlyphs"
text-anchor="middle" opacity="0">LM1117-3.3</text>
<path d="M57553 34766
L57928 34766
L57928 33979
" />
<path d="M57291 34766
L57291 33979
L57028 34541
L56766 33979
L56766 34766
" />
<path d="M55979 34766
L56429 34766
" />
<path d="M56204 34766
L56204 33979
L56279 34091
L56354 34166
L56429 34204
" />
<path d="M55229 34766
L55679 34766
" />
<path d="M55454 34766
L55454 33979
L55529 34091
L55604 34166
L55679 34204
" />
<path d="M54479 34766
L54929 34766
" />
<path d="M54704 34766
L54704 33979
L54779 34091
L54854 34166
L54929 34204
" />
<path d="M54216 33979
L53691 33979
L54029 34766
" />
<path d="M53391 34466
L52791 34466
" />
<path d="M52491 33979
L52004 33979
L52267 34279
L52154 34279
L52079 34316
L52042 34354
L52004 34429
L52004 34616
L52042 34691
L52079 34729
L52154 34766
L52379 34766
L52454 34729
L52491 34691
" />
<path d="M51667 34691
L51629 34729
L51667 34766
L51704 34729
L51667 34691
L51667 34766
" />
<path d="M51367 33979
L50879 33979
L51142 34279
L51029 34279
L50954 34316
L50917 34354
L50879 34429
L50879 34616
L50917 34691
L50954 34729
L51029 34766
L51254 34766
L51329 34729
L51367 34691
" />
</g>
<g style="fill:#000000; fill-opacity:0.0; 
stroke:#000000; stroke-width:94.4882; stroke-opacity:1; 
stroke-linecap:round; stroke-linejoin:round;">
<g transform="rotate(-90 54423 30867.1)">
<text x="54423" y="31260.8"
transform="scale(-1 1) translate(-108846.011024 0)"
textLength="1421.26" font-size="1049.87" lengthAdjust="spacingAndGlyphs"
text-anchor="middle" opacity="0">U3</text>
</g>
<path d="M53991 30267
L54629 30267
L54704 30304
L54741 30342
L54779 30417
L54779 30567
L54741 30642
L54704 30679
L54629 30717
L53991 30717
" />
<path d="M53991 31017
L53991 31504
L54291 31242
L54291 31354
L54329 31429
L54366 31467
L54441 31504
L54629 31504
L54704 31467
L54741 31429
L54779 31354
L54779 31129
L54741 31054
L54704 31017
" />
</g>
<g style="fill:#000000; fill-opacity:0.0; 
stroke:#000000; stroke-width:118.11; stroke-opacity:1; 
stroke-linecap:round; stroke-linejoin:round;">
<g transform="rotate(-90 48375.8 37756.9)">
<text x="48375.8" y="38150.6"
transform="scale(-1 1) translate(-96751.522835 0)"
textLength="2089.39" font-size="1049.87" lengthAdjust="spacingAndGlyphs"
text-anchor="middle" opacity="0">10u</text>
</g>
<path d="M48731 37250
L48731 36800
" />
<path d="M48731 37025
L47944 37025
L48057 36950
L48132 36875
L48169 36800
" />
<path d="M47944 37738
L47944 37813
L47982 37888
L48019 37925
L48094 37963
L48244 38000
L48432 38000
L48581 37963
L48656 37925
L48694 37888
L48731 37813
L48731 37738
L48694 37663
L48656 37625
L48581 37588
L48432 37550
L48244 37550
L48094 37588
L48019 37625
L47982 37663
L47944 37738
" />
<path d="M48207 38675
L48731 38675
" />
<path d="M48207 38338
L48619 38338
L48694 38375
L48731 38450
L48731 38563
L48694 38637
L48656 38675
" />
</g>
<g style="fill:#000000; fill-opacity:0.0; 
stroke:#000000; stroke-width:62.9921; stroke-opacity:1; 
stroke-linecap:round; stroke-linejoin:round;">
<g transform="rotate(-90 49698.6 37756.9)">
<text x="49698.6" y="38150.6"
transform="scale(-1 1) translate(-99397.192126 0)"
textLength="2133.67" font-size="1049.87" lengthAdjust="spacingAndGlyphs"
text-anchor="middle" opacity="0">C14</text>
</g>
<path d="M49979 37250
L50017 37213
L50054 37100
L50054 37025
L50017 36913
L49942 36838
L49867 36800
L49717 36763
L49604 36763
L49454 36800
L49379 36838
L49304 36913
L49267 37025
L49267 37100
L49304 37213
L49342 37250
" />
<path d="M50054 38000
L50054 37550
" />
<path d="M50054 37775
L49267 37775
L49379 37700
L49454 37625
L49492 37550
" />
<path d="M49529 38675
L50054 38675
" />
<path d="M49229 38488
L49792 38300
L49792 38787
" />
</g>
<g style="fill:#000000; fill-opacity:0.0; 
stroke:#000000; stroke-width:118.11; stroke-opacity:1; 
stroke-linecap:round; stroke-linejoin:round;">
<g transform="rotate(-90 48572.6 29095.4)">
<text x="48572.6" y="29489.1"
transform="scale(-1 1) translate(-97145.223622 0)"
textLength="2130.33" font-size="1049.87" lengthAdjust="spacingAndGlyphs"
text-anchor="middle" opacity="0">10u</text>
</g>
<path d="M48928 28589
L48928 28139
" />
<path d="M48928 28364
L48141 28364
L48253 28289
L48328 28214
L48366 28139
" />
<path d="M48141 29076
L48141 29151
L48178 29226
L48216 29264
L48291 29301
L48441 29339
L48628 29339
L48778 29301
L48853 29264
L48891 29226
L48928 29151
L48928 29076
L48891 29001
L48853 28964
L48778 28926
L48628 28889
L48441 28889
L48291 28926
L48216 28964
L48178 29001
L48141 29076
" />
<path d="M48403 30014
L48928 30014
" />
<path d="M48403 29676
L48816 29676
L48891 29714
L48928 29789
L48928 29901
L48891 29976
L48853 30014
" />
</g>
<g style="fill:#000000; fill-opacity:0.0; 
stroke:#000000; stroke-width:62.9921; stroke-opacity:1; 
stroke-linecap:round; stroke-linejoin:round;">
<g transform="rotate(-90 49895.4 29095.4)">
<text x="49895.4" y="29489.1"
transform="scale(-1 1) translate(-99790.892913 0)"
textLength="2133.67" font-size="1049.87" lengthAdjust="spacingAndGlyphs"
text-anchor="middle" opacity="0">C16</text>
</g>
<path d="M50176 28589
L50214 28551
L50251 28439
L50251 28364
L50214 28251
L50139 28176
L50064 28139
L49914 28101
L49801 28101
L49651 28139
L49576 28176
L49501 28251
L49464 28364
L49464 28439
L49501 28551
L49539 28589
" />
<path d="M50251 29339
L50251 28889
" />
<path d="M50251 29114
L49464 29114
L49576 29039
L49651 28964
L49689 28889
" />
<path d="M49464 30014
L49464 29864
L49501 29789
L49539 29751
L49651 29676
L49801 29639
L50101 29639
L50176 29676
L50214 29714
L50251 29789
L50251 29939
L50214 30014
L50176 30051
L50101 30089
L49914 30089
L49839 30051
L49801 30014
L49764 29939
L49764 29789
L49801 29714
L49839 29676
L49914 29639
" />
</g>
<g style="fill:#000000; fill-opacity:0.0; 
stroke:#000000; stroke-width:118.11; stroke-opacity:1; 
stroke-linecap:round; stroke-linejoin:round;">
<g transform="rotate(-90 34556.9 35867.1)">
<text x="34556.9" y="36260.8"
transform="scale(-1 1) translate(-69113.727559 0)"
textLength="2880.24" font-size="1049.87" lengthAdjust="spacingAndGlyphs"
text-anchor="middle" opacity="0">100n</text>
</g>
<path d="M34913 34985
L34913 34536
" />
<path d="M34913 34760
L34125 34760
L34238 34685
L34313 34610
L34350 34536
" />
<path d="M34125 35473
L34125 35548
L34163 35623
L34200 35660
L34275 35698
L34425 35735
L34613 35735
L34763 35698
L34838 35660
L34875 35623
L34913 35548
L34913 35473
L34875 35398
L34838 35360
L34763 35323
L34613 35285
L34425 35285
L34275 35323
L34200 35360
L34163 35398
L34125 35473
" />
<path d="M34125 36223
L34125 36298
L34163 36373
L34200 36410
L34275 36448
L34425 36485
L34613 36485
L34763 36448
L34838 36410
L34875 36373
L34913 36298
L34913 36223
L34875 36148
L34838 36110
L34763 36073
L34613 36035
L34425 36035
L34275 36073
L34200 36110
L34163 36148
L34125 36223
" />
<path d="M34388 36823
L34913 36823
" />
<path d="M34463 36823
L34425 36860
L34388 36935
L34388 37048
L34425 37123
L34500 37160
L34913 37160
" />
</g>
<g style="fill:#000000; fill-opacity:0.0; 
stroke:#000000; stroke-width:62.9921; stroke-opacity:1; 
stroke-linecap:round; stroke-linejoin:round;">
<g transform="rotate(-90 35879.7 35867.1)">
<text x="35879.7" y="36260.8"
transform="scale(-1 1) translate(-71759.396850 0)"
textLength="2133.67" font-size="1049.87" lengthAdjust="spacingAndGlyphs"
text-anchor="middle" opacity="0">C12</text>
</g>
<path d="M36160 35360
L36198 35323
L36235 35210
L36235 35135
L36198 35023
L36123 34948
L36048 34910
L35898 34873
L35785 34873
L35635 34910
L35560 34948
L35485 35023
L35448 35135
L35448 35210
L35485 35323
L35523 35360
" />
<path d="M36235 36110
L36235 35660
" />
<path d="M36235 35885
L35448 35885
L35560 35810
L35635 35735
L35673 35660
" />
<path d="M35523 36410
L35485 36448
L35448 36523
L35448 36710
L35485 36785
L35523 36823
L35598 36860
L35673 36860
L35785 36823
L36235 36373
L36235 36860
" />
</g>
<g style="fill:#000000; fill-opacity:0.0; 
stroke:#000000; stroke-width:118.11; stroke-opacity:1; 
stroke-linecap:round; stroke-linejoin:round;">
<text x="26824.6" y="33953.7"
transform="scale(-1 1) translate(-53649.160630 0)"
textLength="2880.24" font-size="1049.87" lengthAdjust="spacingAndGlyphs"
text-anchor="middle" opacity="0">100n</text>
<path d="M27705 33916
L28155 33916
" />
<path d="M27930 33916
L27930 33128
L28005 33241
L28080 33316
L28155 33353
" />
<path d="M27218 33128
L27143 33128
L27068 33166
L27030 33203
L26993 33278
L26955 33428
L26955 33616
L26993 33766
L27030 33841
L27068 33878
L27143 33916
L27218 33916
L27293 33878
L27330 33841
L27368 33766
L27405 33616
L27405 33428
L27368 33278
L27330 33203
L27293 33166
L27218 33128
" />
<path d="M26468 33128
L26393 33128
L26318 33166
L26280 33203
L26243 33278
L26205 33428
L26205 33616
L26243 33766
L26280 33841
L26318 33878
L26393 33916
L26468 33916
L26543 33878
L26580 33841
L26618 33766
L26655 33616
L26655 33428
L26618 33278
L26580 33203
L26543 33166
L26468 33128
" />
<path d="M25868 33391
L25868 33916
" />
<path d="M25868 33466
L25830 33428
L25755 33391
L25643 33391
L25568 33428
L25530 33503
L25530 33916
" />
</g>
<g style="fill:#000000; fill-opacity:0.0; 
stroke:#000000; stroke-width:62.9921; stroke-opacity:1; 
stroke-linecap:round; stroke-linejoin:round;">
<text x="26824.6" y="35276.5"
transform="scale(-1 1) translate(-53649.160630 0)"
textLength="2133.67" font-size="1049.87" lengthAdjust="spacingAndGlyphs"
text-anchor="middle" opacity="0">C11</text>
<path d="M27330 35164
L27368 35201
L27480 35239
L27555 35239
L27668 35201
L27743 35126
L27780 35051
L27818 34901
L27818 34789
L27780 34639
L27743 34564
L27668 34489
L27555 34451
L27480 34451
L27368 34489
L27330 34526
" />
<path d="M26580 35239
L27030 35239
" />
<path d="M26805 35239
L26805 34451
L26880 34564
L26955 34639
L27030 34676
" />
<path d="M25830 35239
L26280 35239
" />
<path d="M26055 35239
L26055 34451
L26130 34564
L26205 34639
L26280 34676
" />
</g>
<g style="fill:#000000; fill-opacity:0.0; 
stroke:#000000; stroke-width:118.11; stroke-opacity:1; 
stroke-linecap:round; stroke-linejoin:round;">
<g transform="rotate(-90 16249.8 46693.9)">
<text x="16249.8" y="47087.6"
transform="scale(-1 1) translate(-32499.554331 0)"
textLength="2880.24" font-size="1049.87" lengthAdjust="spacingAndGlyphs"
text-anchor="middle" opacity="0">100n</text>
</g>
<path d="M16605 45812
L16605 45362
" />
<path d="M16605 45587
L15818 45587
L15931 45512
L16006 45437
L16043 45362
" />
<path d="M15818 46300
L15818 46375
L15856 46450
L15893 46487
L15968 46525
L16118 46562
L16306 46562
L16456 46525
L16530 46487
L16568 46450
L16605 46375
L16605 46300
L16568 46225
L16530 46187
L16456 46150
L16306 46112
L16118 46112
L15968 46150
L15893 46187
L15856 46225
L15818 46300
" />
<path d="M15818 47050
L15818 47125
L15856 47200
L15893 47237
L15968 47275
L16118 47312
L16306 47312
L16456 47275
L16530 47237
L16568 47200
L16605 47125
L16605 47050
L16568 46975
L16530 46937
L16456 46900
L16306 46862
L16118 46862
L15968 46900
L15893 46937
L15856 46975
L15818 47050
" />
<path d="M16081 47649
L16605 47649
" />
<path d="M16156 47649
L16118 47687
L16081 47762
L16081 47874
L16118 47949
L16193 47987
L16605 47987
" />
</g>
<g style="fill:#000000; fill-opacity:0.0; 
stroke:#000000; stroke-width:62.9921; stroke-opacity:1; 
stroke-linecap:round; stroke-linejoin:round;">
<g transform="rotate(-90 17572.6 46693.9)">
<text x="17572.6" y="47087.6"
transform="scale(-1 1) translate(-35145.223622 0)"
textLength="2133.67" font-size="1049.87" lengthAdjust="spacingAndGlyphs"
text-anchor="middle" opacity="0">C10</text>
</g>
<path d="M17853 46187
L17891 46150
L17928 46037
L17928 45962
L17891 45850
L17816 45775
L17741 45737
L17591 45700
L17478 45700
L17328 45737
L17253 45775
L17178 45850
L17141 45962
L17141 46037
L17178 46150
L17216 46187
" />
<path d="M17928 46937
L17928 46487
" />
<path d="M17928 46712
L17141 46712
L17253 46637
L17328 46562
L17366 46487
" />
<path d="M17141 47425
L17141 47500
L17178 47575
L17216 47612
L17291 47649
L17441 47687
L17628 47687
L17778 47649
L17853 47612
L17891 47575
L17928 47500
L17928 47425
L17891 47350
L17853 47312
L17778 47275
L17628 47237
L17441 47237
L17291 47275
L17216 47312
L17178 47350
L17141 47425
" />
</g>
<g style="fill:#000000; fill-opacity:0.0; 
stroke:#000000; stroke-width:118.11; stroke-opacity:1; 
stroke-linecap:round; stroke-linejoin:round;">
<g transform="rotate(-90 43698.6 48071.8)">
<text x="43698.6" y="48465.5"
transform="scale(-1 1) translate(-87397.192126 0)"
textLength="2880.24" font-size="1049.87" lengthAdjust="spacingAndGlyphs"
text-anchor="middle" opacity="0">100n</text>
</g>
<path d="M44054 47190
L44054 46740
" />
<path d="M44054 46965
L43267 46965
L43379 46890
L43454 46815
L43492 46740
" />
<path d="M43267 47678
L43267 47753
L43304 47828
L43342 47865
L43417 47903
L43567 47940
L43754 47940
L43904 47903
L43979 47865
L44017 47828
L44054 47753
L44054 47678
L44017 47603
L43979 47565
L43904 47528
L43754 47490
L43567 47490
L43417 47528
L43342 47565
L43304 47603
L43267 47678
" />
<path d="M43267 48428
L43267 48503
L43304 48578
L43342 48615
L43417 48652
L43567 48690
L43754 48690
L43904 48652
L43979 48615
L44017 48578
L44054 48503
L44054 48428
L44017 48353
L43979 48315
L43904 48278
L43754 48240
L43567 48240
L43417 48278
L43342 48315
L43304 48353
L43267 48428
" />
<path d="M43529 49027
L44054 49027
" />
<path d="M43604 49027
L43567 49065
L43529 49140
L43529 49252
L43567 49327
L43642 49365
L44054 49365
" />
</g>
<g style="fill:#000000; fill-opacity:0.0; 
stroke:#000000; stroke-width:62.9921; stroke-opacity:1; 
stroke-linecap:round; stroke-linejoin:round;">
<g transform="rotate(-90 42375.8 48071.8)">
<text x="42375.8" y="48465.5"
transform="scale(-1 1) translate(-84751.522835 0)"
textLength="1383.76" font-size="1049.87" lengthAdjust="spacingAndGlyphs"
text-anchor="middle" opacity="0">C9</text>
</g>
<path d="M42656 47940
L42694 47903
L42731 47790
L42731 47715
L42694 47603
L42619 47528
L42544 47490
L42394 47453
L42282 47453
L42132 47490
L42057 47528
L41982 47603
L41944 47715
L41944 47790
L41982 47903
L42019 47940
" />
<path d="M42731 48315
L42731 48465
L42694 48540
L42656 48578
L42544 48652
L42394 48690
L42094 48690
L42019 48652
L41982 48615
L41944 48540
L41944 48390
L41982 48315
L42019 48278
L42094 48240
L42282 48240
L42357 48278
L42394 48315
L42432 48390
L42432 48540
L42394 48615
L42357 48652
L42282 48690
" />
</g>
<g style="fill:#000000; fill-opacity:0.0; 
stroke:#000000; stroke-width:118.11; stroke-opacity:1; 
stroke-linecap:round; stroke-linejoin:round;">
<text x="56165.1" y="44985.2"
transform="scale(-1 1) translate(-112330.262992 0)"
textLength="2130.33" font-size="1049.87" lengthAdjust="spacingAndGlyphs"
text-anchor="middle" opacity="0">10u</text>
<path d="M56671 44947
L57121 44947
" />
<path d="M56896 44947
L56896 44160
L56971 44272
L57046 44347
L57121 44385
" />
<path d="M56183 44160
L56108 44160
L56033 44197
L55996 44235
L55958 44310
L55921 44460
L55921 44647
L55958 44797
L55996 44872
L56033 44910
L56108 44947
L56183 44947
L56258 44910
L56296 44872
L56333 44797
L56371 44647
L56371 44460
L56333 44310
L56296 44235
L56258 44197
L56183 44160
" />
<path d="M55246 44422
L55246 44947
" />
<path d="M55583 44422
L55583 44835
L55546 44910
L55471 44947
L55358 44947
L55283 44910
L55246 44872
" />
</g>
<g style="fill:#000000; fill-opacity:0.0; 
stroke:#000000; stroke-width:62.9921; stroke-opacity:1; 
stroke-linecap:round; stroke-linejoin:round;">
<text x="56165.1" y="43662.4"
transform="scale(-1 1) translate(-112330.262992 0)"
textLength="2133.67" font-size="1049.87" lengthAdjust="spacingAndGlyphs"
text-anchor="middle" opacity="0">C13</text>
<path d="M56671 43549
L56708 43587
L56821 43624
L56896 43624
L57008 43587
L57083 43512
L57121 43437
L57158 43287
L57158 43174
L57121 43024
L57083 42949
L57008 42874
L56896 42837
L56821 42837
L56708 42874
L56671 42912
" />
<path d="M55921 43624
L56371 43624
" />
<path d="M56146 43624
L56146 42837
L56221 42949
L56296 43024
L56371 43062
" />
<path d="M55658 42837
L55171 42837
L55433 43137
L55321 43137
L55246 43174
L55209 43212
L55171 43287
L55171 43474
L55209 43549
L55246 43587
L55321 43624
L55546 43624
L55621 43587
L55658 43549
" />
</g>
<g style="fill:#000000; fill-opacity:0.0; 
stroke:#000000; stroke-width:118.11; stroke-opacity:1; 
stroke-linecap:round; stroke-linejoin:round;">
<g transform="rotate(-90 43698.6 38819.8)">
<text x="43698.6" y="39213.5"
transform="scale(-1 1) translate(-87397.192126 0)"
textLength="2880.24" font-size="1049.87" lengthAdjust="spacingAndGlyphs"
text-anchor="middle" opacity="0">100n</text>
</g>
<path d="M44054 37938
L44054 37488
" />
<path d="M44054 37713
L43267 37713
L43379 37638
L43454 37563
L43492 37488
" />
<path d="M43267 38426
L43267 38501
L43304 38576
L43342 38613
L43417 38651
L43567 38688
L43754 38688
L43904 38651
L43979 38613
L44017 38576
L44054 38501
L44054 38426
L44017 38351
L43979 38313
L43904 38276
L43754 38238
L43567 38238
L43417 38276
L43342 38313
L43304 38351
L43267 38426
" />
<path d="M43267 39176
L43267 39251
L43304 39326
L43342 39363
L43417 39401
L43567 39438
L43754 39438
L43904 39401
L43979 39363
L44017 39326
L44054 39251
L44054 39176
L44017 39101
L43979 39063
L43904 39026
L43754 38988
L43567 38988
L43417 39026
L43342 39063
L43304 39101
L43267 39176
" />
<path d="M43529 39775
L44054 39775
" />
<path d="M43604 39775
L43567 39813
L43529 39888
L43529 40000
L43567 40075
L43642 40113
L44054 40113
" />
</g>
<g style="fill:#000000; fill-opacity:0.0; 
stroke:#000000; stroke-width:62.9921; stroke-opacity:1; 
stroke-linecap:round; stroke-linejoin:round;">
<g transform="rotate(-90 42375.8 38819.8)">
<text x="42375.8" y="39213.5"
transform="scale(-1 1) translate(-84751.522835 0)"
textLength="1383.76" font-size="1049.87" lengthAdjust="spacingAndGlyphs"
text-anchor="middle" opacity="0">C7</text>
</g>
<path d="M42656 38688
L42694 38651
L42731 38538
L42731 38463
L42694 38351
L42619 38276
L42544 38238
L42394 38201
L42282 38201
L42132 38238
L42057 38276
L41982 38351
L41944 38463
L41944 38538
L41982 38651
L42019 38688
" />
<path d="M41944 38951
L41944 39476
L42731 39138
" />
</g>
<g style="fill:#000000; fill-opacity:0.0; 
stroke:#000000; stroke-width:118.11; stroke-opacity:1; 
stroke-linecap:round; stroke-linejoin:round;">
<text x="25052.9" y="30497"
transform="scale(-1 1) translate(-50105.853543 0)"
textLength="2880.24" font-size="1049.87" lengthAdjust="spacingAndGlyphs"
text-anchor="middle" opacity="0">100n</text>
<path d="M25934 30459
L26384 30459
" />
<path d="M26159 30459
L26159 29672
L26234 29784
L26309 29859
L26384 29897
" />
<path d="M25446 29672
L25371 29672
L25296 29709
L25259 29747
L25221 29822
L25184 29972
L25184 30159
L25221 30309
L25259 30384
L25296 30422
L25371 30459
L25446 30459
L25521 30422
L25559 30384
L25596 30309
L25634 30159
L25634 29972
L25596 29822
L25559 29747
L25521 29709
L25446 29672
" />
<path d="M24696 29672
L24621 29672
L24546 29709
L24509 29747
L24471 29822
L24434 29972
L24434 30159
L24471 30309
L24509 30384
L24546 30422
L24621 30459
L24696 30459
L24771 30422
L24809 30384
L24846 30309
L24884 30159
L24884 29972
L24846 29822
L24809 29747
L24771 29709
L24696 29672
" />
<path d="M24096 29934
L24096 30459
" />
<path d="M24096 30009
L24059 29972
L23984 29934
L23871 29934
L23796 29972
L23759 30047
L23759 30459
" />
</g>
<g style="fill:#000000; fill-opacity:0.0; 
stroke:#000000; stroke-width:62.9921; stroke-opacity:1; 
stroke-linecap:round; stroke-linejoin:round;">
<text x="25052.9" y="29174.2"
transform="scale(-1 1) translate(-50105.853543 0)"
textLength="1383.76" font-size="1049.87" lengthAdjust="spacingAndGlyphs"
text-anchor="middle" opacity="0">C6</text>
<path d="M25184 29061
L25221 29099
L25334 29136
L25409 29136
L25521 29099
L25596 29024
L25634 28949
L25671 28799
L25671 28686
L25634 28536
L25596 28461
L25521 28386
L25409 28349
L25334 28349
L25221 28386
L25184 28424
" />
<path d="M24509 28349
L24659 28349
L24734 28386
L24771 28424
L24846 28536
L24884 28686
L24884 28986
L24846 29061
L24809 29099
L24734 29136
L24584 29136
L24509 29099
L24471 29061
L24434 28986
L24434 28799
L24471 28724
L24509 28686
L24584 28649
L24734 28649
L24809 28686
L24846 28724
L24884 28799
" />
</g>
<g style="fill:#000000; fill-opacity:0.0; 
stroke:#000000; stroke-width:118.11; stroke-opacity:1; 
stroke-linecap:round; stroke-linejoin:round;">
<g transform="rotate(-90 25194.7 41969.5)">
<text x="25194.7" y="42363.2"
transform="scale(-1 1) translate(-50389.318110 0)"
textLength="2880.24" font-size="1049.87" lengthAdjust="spacingAndGlyphs"
text-anchor="middle" opacity="0">100n</text>
</g>
<path d="M25550 41088
L25550 40638
" />
<path d="M25550 40863
L24763 40863
L24875 40788
L24950 40713
L24988 40638
" />
<path d="M24763 41575
L24763 41650
L24800 41725
L24838 41763
L24913 41800
L25063 41838
L25250 41838
L25400 41800
L25475 41763
L25513 41725
L25550 41650
L25550 41575
L25513 41500
L25475 41463
L25400 41425
L25250 41388
L25063 41388
L24913 41425
L24838 41463
L24800 41500
L24763 41575
" />
<path d="M24763 42325
L24763 42400
L24800 42475
L24838 42513
L24913 42550
L25063 42588
L25250 42588
L25400 42550
L25475 42513
L25513 42475
L25550 42400
L25550 42325
L25513 42250
L25475 42213
L25400 42175
L25250 42138
L25063 42138
L24913 42175
L24838 42213
L24800 42250
L24763 42325
" />
<path d="M25025 42925
L25550 42925
" />
<path d="M25100 42925
L25063 42963
L25025 43038
L25025 43150
L25063 43225
L25138 43263
L25550 43263
" />
</g>
<g style="fill:#000000; fill-opacity:0.0; 
stroke:#000000; stroke-width:62.9921; stroke-opacity:1; 
stroke-linecap:round; stroke-linejoin:round;">
<g transform="rotate(-90 23871.8 41969.5)">
<text x="23871.8" y="42363.2"
transform="scale(-1 1) translate(-47743.648819 0)"
textLength="1383.76" font-size="1049.87" lengthAdjust="spacingAndGlyphs"
text-anchor="middle" opacity="0">C5</text>
</g>
<path d="M24153 41838
L24190 41800
L24228 41688
L24228 41613
L24190 41500
L24115 41425
L24040 41388
L23890 41350
L23778 41350
L23628 41388
L23553 41425
L23478 41500
L23440 41613
L23440 41688
L23478 41800
L23515 41838
" />
<path d="M23440 42550
L23440 42175
L23815 42138
L23778 42175
L23740 42250
L23740 42438
L23778 42513
L23815 42550
L23890 42588
L24078 42588
L24153 42550
L24190 42513
L24228 42438
L24228 42250
L24190 42175
L24153 42138
" />
</g>
<g style="fill:#000000; fill-opacity:0.0; 
stroke:#000000; stroke-width:118.11; stroke-opacity:1; 
stroke-linecap:round; stroke-linejoin:round;">
<g transform="rotate(-90 18895.4 43150.6)">
<text x="18895.4" y="43544.3"
transform="scale(-1 1) translate(-37790.892913 0)"
textLength="2880.24" font-size="1049.87" lengthAdjust="spacingAndGlyphs"
text-anchor="middle" opacity="0">100n</text>
</g>
<path d="M19251 42269
L19251 41819
" />
<path d="M19251 42044
L18464 42044
L18576 41969
L18651 41894
L18689 41819
" />
<path d="M18464 42756
L18464 42831
L18501 42906
L18539 42944
L18614 42981
L18764 43019
L18951 43019
L19101 42981
L19176 42944
L19214 42906
L19251 42831
L19251 42756
L19214 42681
L19176 42644
L19101 42606
L18951 42569
L18764 42569
L18614 42606
L18539 42644
L18501 42681
L18464 42756
" />
<path d="M18464 43506
L18464 43581
L18501 43656
L18539 43694
L18614 43731
L18764 43769
L18951 43769
L19101 43731
L19176 43694
L19214 43656
L19251 43581
L19251 43506
L19214 43431
L19176 43394
L19101 43356
L18951 43319
L18764 43319
L18614 43356
L18539 43394
L18501 43431
L18464 43506
" />
<path d="M18726 44106
L19251 44106
" />
<path d="M18801 44106
L18764 44144
L18726 44219
L18726 44331
L18764 44406
L18839 44444
L19251 44444
" />
</g>
<g style="fill:#000000; fill-opacity:0.0; 
stroke:#000000; stroke-width:62.9921; stroke-opacity:1; 
stroke-linecap:round; stroke-linejoin:round;">
<g transform="rotate(-90 17572.6 43150.6)">
<text x="17572.6" y="43544.3"
transform="scale(-1 1) translate(-35145.223622 0)"
textLength="1383.76" font-size="1049.87" lengthAdjust="spacingAndGlyphs"
text-anchor="middle" opacity="0">C4</text>
</g>
<path d="M17853 43019
L17891 42981
L17928 42869
L17928 42794
L17891 42681
L17816 42606
L17741 42569
L17591 42531
L17478 42531
L17328 42569
L17253 42606
L17178 42681
L17141 42794
L17141 42869
L17178 42981
L17216 43019
" />
<path d="M17403 43694
L17928 43694
" />
<path d="M17103 43506
L17666 43319
L17666 43806
" />
</g>
<g style="fill:#000000; fill-opacity:0.0; 
stroke:#000000; stroke-width:118.11; stroke-opacity:1; 
stroke-linecap:round; stroke-linejoin:round;">
<g transform="rotate(-90 41013.6 41969.5)">
<text x="41013.6" y="42363.2"
transform="scale(-1 1) translate(-82027.113386 0)"
textLength="2880.24" font-size="1049.87" lengthAdjust="spacingAndGlyphs"
text-anchor="middle" opacity="0">100n</text>
</g>
<path d="M41369 41088
L41369 40638
" />
<path d="M41369 40863
L40582 40863
L40694 40788
L40769 40713
L40807 40638
" />
<path d="M40582 41575
L40582 41650
L40619 41725
L40657 41763
L40732 41800
L40882 41838
L41069 41838
L41219 41800
L41294 41763
L41332 41725
L41369 41650
L41369 41575
L41332 41500
L41294 41463
L41219 41425
L41069 41388
L40882 41388
L40732 41425
L40657 41463
L40619 41500
L40582 41575
" />
<path d="M40582 42325
L40582 42400
L40619 42475
L40657 42513
L40732 42550
L40882 42588
L41069 42588
L41219 42550
L41294 42513
L41332 42475
L41369 42400
L41369 42325
L41332 42250
L41294 42213
L41219 42175
L41069 42138
L40882 42138
L40732 42175
L40657 42213
L40619 42250
L40582 42325
" />
<path d="M40844 42925
L41369 42925
" />
<path d="M40919 42925
L40882 42963
L40844 43038
L40844 43150
L40882 43225
L40957 43263
L41369 43263
" />
</g>
<g style="fill:#000000; fill-opacity:0.0; 
stroke:#000000; stroke-width:62.9921; stroke-opacity:1; 
stroke-linecap:round; stroke-linejoin:round;">
<g transform="rotate(-90 42336.4 41969.5)">
<text x="42336.4" y="42363.2"
transform="scale(-1 1) translate(-84672.782677 0)"
textLength="1383.76" font-size="1049.87" lengthAdjust="spacingAndGlyphs"
text-anchor="middle" opacity="0">C3</text>
</g>
<path d="M42617 41838
L42655 41800
L42692 41688
L42692 41613
L42655 41500
L42580 41425
L42505 41388
L42355 41350
L42242 41350
L42092 41388
L42017 41425
L41942 41500
L41905 41613
L41905 41688
L41942 41800
L41980 41838
" />
<path d="M41905 42100
L41905 42588
L42205 42325
L42205 42438
L42242 42513
L42280 42550
L42355 42588
L42542 42588
L42617 42550
L42655 42513
L42692 42438
L42692 42213
L42655 42138
L42617 42100
" />
</g>
<g style="fill:#000000; fill-opacity:0.0; 
stroke:#000000; stroke-width:118.11; stroke-opacity:1; 
stroke-linecap:round; stroke-linejoin:round;">
<g transform="rotate(-90 34556.9 41969.5)">
<text x="34556.9" y="42363.2"
transform="scale(-1 1) translate(-69113.727559 0)"
textLength="2880.24" font-size="1049.87" lengthAdjust="spacingAndGlyphs"
text-anchor="middle" opacity="0">100n</text>
</g>
<path d="M34913 41088
L34913 40638
" />
<path d="M34913 40863
L34125 40863
L34238 40788
L34313 40713
L34350 40638
" />
<path d="M34125 41575
L34125 41650
L34163 41725
L34200 41763
L34275 41800
L34425 41838
L34613 41838
L34763 41800
L34838 41763
L34875 41725
L34913 41650
L34913 41575
L34875 41500
L34838 41463
L34763 41425
L34613 41388
L34425 41388
L34275 41425
L34200 41463
L34163 41500
L34125 41575
" />
<path d="M34125 42325
L34125 42400
L34163 42475
L34200 42513
L34275 42550
L34425 42588
L34613 42588
L34763 42550
L34838 42513
L34875 42475
L34913 42400
L34913 42325
L34875 42250
L34838 42213
L34763 42175
L34613 42138
L34425 42138
L34275 42175
L34200 42213
L34163 42250
L34125 42325
" />
<path d="M34388 42925
L34913 42925
" />
<path d="M34463 42925
L34425 42963
L34388 43038
L34388 43150
L34425 43225
L34500 43263
L34913 43263
" />
</g>
<g style="fill:#000000; fill-opacity:0.0; 
stroke:#000000; stroke-width:62.9921; stroke-opacity:1; 
stroke-linecap:round; stroke-linejoin:round;">
<g transform="rotate(-90 35879.7 41969.5)">
<text x="35879.7" y="42363.2"
transform="scale(-1 1) translate(-71759.396850 0)"
textLength="1383.76" font-size="1049.87" lengthAdjust="spacingAndGlyphs"
text-anchor="middle" opacity="0">C2</text>
</g>
<path d="M36160 41838
L36198 41800
L36235 41688
L36235 41613
L36198 41500
L36123 41425
L36048 41388
L35898 41350
L35785 41350
L35635 41388
L35560 41425
L35485 41500
L35448 41613
L35448 41688
L35485 41800
L35523 41838
" />
<path d="M35523 42138
L35485 42175
L35448 42250
L35448 42438
L35485 42513
L35523 42550
L35598 42588
L35673 42588
L35785 42550
L36235 42100
L36235 42588
" />
</g>
<g style="fill:#000000; fill-opacity:0.0; 
stroke:#000000; stroke-width:118.11; stroke-opacity:1; 
stroke-linecap:round; stroke-linejoin:round;">
<text x="29068.7" y="48607.2"
transform="scale(-1 1) translate(-58137.349606 0)"
textLength="2880.24" font-size="1049.87" lengthAdjust="spacingAndGlyphs"
text-anchor="middle" opacity="0">100n</text>
<path d="M29949 48569
L30399 48569
" />
<path d="M30174 48569
L30174 47782
L30249 47894
L30324 47969
L30399 48007
" />
<path d="M29462 47782
L29387 47782
L29312 47819
L29274 47857
L29237 47932
L29199 48082
L29199 48269
L29237 48419
L29274 48494
L29312 48532
L29387 48569
L29462 48569
L29537 48532
L29574 48494
L29612 48419
L29649 48269
L29649 48082
L29612 47932
L29574 47857
L29537 47819
L29462 47782
" />
<path d="M28712 47782
L28637 47782
L28562 47819
L28524 47857
L28487 47932
L28450 48082
L28450 48269
L28487 48419
L28524 48494
L28562 48532
L28637 48569
L28712 48569
L28787 48532
L28824 48494
L28862 48419
L28899 48269
L28899 48082
L28862 47932
L28824 47857
L28787 47819
L28712 47782
" />
<path d="M28112 48044
L28112 48569
" />
<path d="M28112 48119
L28075 48082
L28000 48044
L27887 48044
L27812 48082
L27775 48157
L27775 48569
" />
</g>
<g style="fill:#000000; fill-opacity:0.0; 
stroke:#000000; stroke-width:62.9921; stroke-opacity:1; 
stroke-linecap:round; stroke-linejoin:round;">
<text x="29068.7" y="47284.4"
transform="scale(-1 1) translate(-58137.349606 0)"
textLength="1383.76" font-size="1049.87" lengthAdjust="spacingAndGlyphs"
text-anchor="middle" opacity="0">C1</text>
<path d="M29199 47171
L29237 47209
L29349 47246
L29424 47246
L29537 47209
L29612 47134
L29649 47059
L29687 46909
L29687 46796
L29649 46646
L29612 46572
L29537 46497
L29424 46459
L29349 46459
L29237 46497
L29199 46534
" />
<path d="M28450 47246
L28899 47246
" />
<path d="M28674 47246
L28674 46459
L28749 46572
L28824 46646
L28899 46684
" />
</g>
<g style="fill:#000000; fill-opacity:0.0; 
stroke:#000000; stroke-width:118.11; stroke-opacity:1; 
stroke-linecap:round; stroke-linejoin:round;">
<text x="55997.8" y="36323.8"
transform="scale(-1 1) translate(-111995.617323 0)"
textLength="2130.33" font-size="1049.87" lengthAdjust="spacingAndGlyphs"
text-anchor="middle" opacity="0">10u</text>
<path d="M56503 36286
L56953 36286
" />
<path d="M56728 36286
L56728 35498
L56803 35611
L56878 35686
L56953 35723
" />
<path d="M56016 35498
L55941 35498
L55866 35536
L55829 35573
L55791 35648
L55754 35798
L55754 35986
L55791 36136
L55829 36211
L55866 36248
L55941 36286
L56016 36286
L56091 36248
L56129 36211
L56166 36136
L56204 35986
L56204 35798
L56166 35648
L56129 35573
L56091 35536
L56016 35498
" />
<path d="M55079 35761
L55079 36286
" />
<path d="M55416 35761
L55416 36173
L55379 36248
L55304 36286
L55191 36286
L55116 36248
L55079 36211
" />
</g>
<g style="fill:#000000; fill-opacity:0.0; 
stroke:#000000; stroke-width:62.9921; stroke-opacity:1; 
stroke-linecap:round; stroke-linejoin:round;">
<text x="55997.8" y="35000.9"
transform="scale(-1 1) translate(-111995.617323 0)"
textLength="2133.67" font-size="1049.87" lengthAdjust="spacingAndGlyphs"
text-anchor="middle" opacity="0">C15</text>
<path d="M56503 34888
L56541 34925
L56653 34963
L56728 34963
L56841 34925
L56916 34850
L56953 34775
L56991 34625
L56991 34513
L56953 34363
L56916 34288
L56841 34213
L56728 34176
L56653 34176
L56541 34213
L56503 34251
" />
<path d="M55754 34963
L56204 34963
" />
<path d="M55979 34963
L55979 34176
L56054 34288
L56129 34363
L56204 34401
" />
<path d="M55041 34176
L55416 34176
L55454 34551
L55416 34513
L55341 34476
L55154 34476
L55079 34513
L55041 34551
L55004 34625
L55004 34813
L55041 34888
L55079 34925
L55154 34963
L55341 34963
L55416 34925
L55454 34888
" />
<g >
</g>
</g> 
</svg>
