<?xml version="1.0" standalone="no"?>
 <!DOCTYPE svg PUBLIC "-//W3C//DTD SVG 1.1//EN" 
 "http://www.w3.org/Graphics/SVG/1.1/DTD/svg11.dtd"> 
<svg
  xmlns:svg="http://www.w3.org/2000/svg"
  xmlns="http://www.w3.org/2000/svg"
  xmlns:xlink="http://www.w3.org/1999/xlink"
  version="1.1"
  width="29.700220cm" height="21.000720cm" viewBox="0 0 116930 82680">
<title>SVG Picture created as board-B_CrtYd.svg date 2021/03/29 15:50:42 </title>
  <desc>Picture generated by PCBNEW </desc>
<g style="fill:#000000; fill-opacity:1;stroke:#000000; stroke-opacity:1;
stroke-linecap:round; stroke-linejoin:round;"
 transform="translate(0 0) scale(1 1)">
</g>
<g style="fill:#000000; fill-opacity:0.0; 
stroke:#000000; stroke-width:-0.000787402; stroke-opacity:1; 
stroke-linecap:round; stroke-linejoin:round;">
</g>
<g style="fill:#000000; fill-opacity:0.0; 
stroke:#000000; stroke-width:78.7402; stroke-opacity:1; 
stroke-linecap:round; stroke-linejoin:round;">
<path d="M10289.1 57126.9 A2362.2 2362.2 0.0 0 0 12651.4 59489.1" />
<path d="M12651.4 22875 A2362.2 2362.2 0.0 0 0 10289.1 25237.2" />
<path d="M66982.1 25237.2 A2362.2 2362.2 0.0 0 0 64619.9 22875" />
<path d="M64619.9 59489.1 A2362.21 2362.21 0.0 0 0 66982.1 57126.9" />
<path d="M12651 59489
L64619 59489
" />
<path d="M10289 25237
L10289 57126
" />
<path d="M64619 22874
L12651 22874
" />
<path d="M66982 57126
L66982 25237
" />
</g>
<g style="fill:#000000; fill-opacity:0.0; 
stroke:#000000; stroke-width:39.3701; stroke-opacity:1; 
stroke-linecap:round; stroke-linejoin:round;">
<path d="M32438 52418
L29478 52418
" />
<path d="M32438 53961
L32438 52418
" />
<path d="M29478 53961
L32438 53961
" />
<path d="M29478 52418
L29478 53961
" />
<path d="M34383 36969
L31588 36969
" />
<path d="M31588 36969
L31588 41772
" />
<path d="M31588 41772
L34383 41772
" />
<path d="M34383 41772
L34383 36969
" />
<path d="M33635 34292
L31037 34292
" />
<path d="M33635 34292
L33635 36260
" />
<path d="M31037 36260
L31037 34292
" />
<path d="M31037 36260
L33635 36260
" />
<path d="M57887 36693
L57887 42363
" />
<path d="M57887 42363
L50958 42363
" />
<path d="M50958 42363
L50958 36693
" />
<path d="M50958 36693
L57887 36693
" />
<path d="M57887 28032
L57887 33701
" />
<path d="M57887 33701
L50958 33701
" />
<path d="M50958 33701
L50958 28032
" />
<path d="M50958 28032
L57887 28032
" />
<path d="M48926 36276
L48926 39237
" />
<path d="M50470 36276
L48926 36276
" />
<path d="M50470 39237
L50470 36276
" />
<path d="M48926 39237
L50470 39237
" />
<path d="M49123 27615
L49123 30575
" />
<path d="M50667 27615
L49123 27615
" />
<path d="M50667 30575
L50667 27615
" />
<path d="M49123 30575
L50667 30575
" />
<path d="M35108 34386
L35108 37347
" />
<path d="M36651 34386
L35108 34386
" />
<path d="M36651 37347
L36651 34386
" />
<path d="M35108 37347
L36651 37347
" />
<path d="M28304 34111
L25344 34111
" />
<path d="M28304 35654
L28304 34111
" />
<path d="M25344 35654
L28304 35654
" />
<path d="M25344 34111
L25344 35654
" />
<path d="M16800 45213
L16800 48174
" />
<path d="M18344 45213
L16800 45213
" />
<path d="M18344 48174
L18344 45213
" />
<path d="M16800 48174
L18344 48174
" />
<path d="M43147 49552
L43147 46591
" />
<path d="M41604 49552
L43147 49552
" />
<path d="M41604 46591
L41604 49552
" />
<path d="M43147 46591
L41604 46591
" />
<path d="M54684 44040
L57645 44040
" />
<path d="M54684 42497
L54684 44040
" />
<path d="M57645 42497
L54684 42497
" />
<path d="M57645 44040
L57645 42497
" />
<path d="M43147 40300
L43147 37339
" />
<path d="M41604 40300
L43147 40300
" />
<path d="M41604 37339
L41604 40300
" />
<path d="M43147 37339
L41604 37339
" />
<path d="M23572 29552
L26533 29552
" />
<path d="M23572 28008
L23572 29552
" />
<path d="M26533 28008
L23572 28008
" />
<path d="M26533 29552
L26533 28008
" />
<path d="M24643 43449
L24643 40489
" />
<path d="M23100 43449
L24643 43449
" />
<path d="M23100 40489
L23100 43449
" />
<path d="M24643 40489
L23100 40489
" />
<path d="M18344 44630
L18344 41670
" />
<path d="M16800 44630
L18344 44630
" />
<path d="M16800 41670
L16800 44630
" />
<path d="M18344 41670
L16800 41670
" />
<path d="M41564 40489
L41564 43449
" />
<path d="M43108 40489
L41564 40489
" />
<path d="M43108 43449
L43108 40489
" />
<path d="M41564 43449
L43108 43449
" />
<path d="M35108 40489
L35108 43449
" />
<path d="M36651 40489
L35108 40489
" />
<path d="M36651 43449
L36651 40489
" />
<path d="M35108 43449
L36651 43449
" />
<path d="M27588 47662
L30548 47662
" />
<path d="M27588 46119
L27588 47662
" />
<path d="M30548 46119
L27588 46119
" />
<path d="M30548 47662
L30548 46119
" />
<path d="M54517 35378
L57478 35378
" />
<path d="M54517 33835
L54517 35378
" />
<path d="M57478 33835
L54517 33835
" />
<path d="M57478 35378
L57478 33835
" />
<g >
</g>
<g >
</g>
<g >
</g>
<g >
</g>
<g >
</g>
<g >
</g>
<g >
</g>
<g >
</g>
<g >
</g>
<g >
</g>
<g >
</g>
<g >
</g>
<g >
</g>
<g >
</g>
<g >
</g>
<g >
</g>
<g >
</g>
<g >
</g>
<g >
</g>
<g >
</g>
<g >
</g>
<g >
</g>
<g >
</g>
<g >
</g>
<g >
</g>
<g >
</g>
<g >
</g>
<g >
</g>
<g >
</g>
<g >
</g>
<g >
</g>
<g >
</g>
<g >
</g>
<g >
</g>
<g >
</g>
<g >
</g>
<g >
</g>
<g >
</g>
<g >
</g>
<g >
</g>
<g >
</g>
<g >
</g>
<g >
</g>
<g >
</g>
<g >
</g>
<g >
</g>
<g >
</g>
<g >
</g>
<g >
</g>
<g >
</g>
</g> 
</svg>
