<?xml version="1.0" standalone="no"?>
 <!DOCTYPE svg PUBLIC "-//W3C//DTD SVG 1.1//EN" 
 "http://www.w3.org/Graphics/SVG/1.1/DTD/svg11.dtd"> 
<svg
  xmlns:svg="http://www.w3.org/2000/svg"
  xmlns="http://www.w3.org/2000/svg"
  xmlns:xlink="http://www.w3.org/1999/xlink"
  version="1.1"
  width="29.700220cm" height="21.000720cm" viewBox="0 0 116930 82680">
<title>SVG Picture created as board-Cmts_User.svg date 2021/03/29 15:50:42 </title>
  <desc>Picture generated by PCBNEW </desc>
<g style="fill:#000000; fill-opacity:1;stroke:#000000; stroke-opacity:1;
stroke-linecap:round; stroke-linejoin:round;"
 transform="translate(0 0) scale(1 1)">
</g>
<g style="fill:#000000; fill-opacity:0.0; 
stroke:#000000; stroke-width:-0.000787402; stroke-opacity:1; 
stroke-linecap:round; stroke-linejoin:round;">
</g>
<g style="fill:#000000; fill-opacity:0.0; 
stroke:#000000; stroke-width:118.11; stroke-opacity:1; 
stroke-linecap:round; stroke-linejoin:round;">
<text x="70958.4" y="23760.8"
textLength="6827.71" font-size="1049.87" lengthAdjust="spacingAndGlyphs"
text-anchor="start" opacity="0">Layers = 4</text>
<path d="M71597 23723
L71222 23723
L71222 22935
" />
<path d="M72197 23723
L72197 23310
L72160 23235
L72085 23198
L71935 23198
L71860 23235
" />
<path d="M72197 23685
L72122 23723
L71935 23723
L71860 23685
L71822 23610
L71822 23535
L71860 23460
L71935 23423
L72122 23423
L72197 23385
" />
<path d="M72497 23198
L72685 23723
" />
<path d="M72872 23198
L72685 23723
L72610 23910
L72572 23948
L72497 23985
" />
<path d="M73472 23685
L73397 23723
L73247 23723
L73172 23685
L73134 23610
L73134 23310
L73172 23235
L73247 23198
L73397 23198
L73472 23235
L73509 23310
L73509 23385
L73134 23460
" />
<path d="M73847 23723
L73847 23198
" />
<path d="M73847 23348
L73884 23273
L73922 23235
L73997 23198
L74072 23198
" />
<path d="M74297 23685
L74372 23723
L74522 23723
L74597 23685
L74634 23610
L74634 23573
L74597 23498
L74522 23460
L74409 23460
L74334 23423
L74297 23348
L74297 23310
L74334 23235
L74409 23198
L74522 23198
L74597 23235
" />
<path d="M75572 23310
L76172 23310
" />
<path d="M76172 23535
L75572 23535
" />
<path d="M77484 23198
L77484 23723
" />
<path d="M77296 22898
L77109 23460
L77596 23460
" />
<text x="70958.4" y="25060"
textLength="9864.83" font-size="1049.87" lengthAdjust="spacingAndGlyphs"
text-anchor="start" opacity="0">Thickness = 1.6</text>
<path d="M71110 24235
L71560 24235
" />
<path d="M71335 25022
L71335 24235
" />
<path d="M71822 25022
L71822 24235
" />
<path d="M72160 25022
L72160 24610
L72122 24535
L72047 24497
L71935 24497
L71860 24535
L71822 24572
" />
<path d="M72535 25022
L72535 24497
" />
<path d="M72535 24235
L72497 24272
L72535 24310
L72572 24272
L72535 24235
L72535 24310
" />
<path d="M73247 24985
L73172 25022
L73022 25022
L72947 24985
L72909 24947
L72872 24872
L72872 24647
L72909 24572
L72947 24535
L73022 24497
L73172 24497
L73247 24535
" />
<path d="M73584 25022
L73584 24235
" />
<path d="M73659 24722
L73884 25022
" />
<path d="M73884 24497
L73584 24797
" />
<path d="M74222 24497
L74222 25022
" />
<path d="M74222 24572
L74259 24535
L74334 24497
L74447 24497
L74522 24535
L74559 24610
L74559 25022
" />
<path d="M75234 24985
L75159 25022
L75009 25022
L74934 24985
L74897 24910
L74897 24610
L74934 24535
L75009 24497
L75159 24497
L75234 24535
L75272 24610
L75272 24685
L74897 24760
" />
<path d="M75572 24985
L75647 25022
L75797 25022
L75872 24985
L75909 24910
L75909 24872
L75872 24797
L75797 24760
L75684 24760
L75609 24722
L75572 24647
L75572 24610
L75609 24535
L75684 24497
L75797 24497
L75872 24535
" />
<path d="M76209 24985
L76284 25022
L76434 25022
L76509 24985
L76547 24910
L76547 24872
L76509 24797
L76434 24760
L76322 24760
L76247 24722
L76209 24647
L76209 24610
L76247 24535
L76322 24497
L76434 24497
L76509 24535
" />
<path d="M77484 24610
L78084 24610
" />
<path d="M78084 24835
L77484 24835
" />
<path d="M79471 25022
L79021 25022
" />
<path d="M79246 25022
L79246 24235
L79171 24347
L79096 24422
L79021 24460
" />
<path d="M79809 24947
L79846 24985
L79809 25022
L79771 24985
L79809 24947
L79809 25022
" />
<path d="M80521 24235
L80371 24235
L80296 24272
L80259 24310
L80184 24422
L80146 24572
L80146 24872
L80184 24947
L80221 24985
L80296 25022
L80446 25022
L80521 24985
L80559 24947
L80596 24872
L80596 24685
L80559 24610
L80521 24572
L80446 24535
L80296 24535
L80221 24572
L80184 24610
L80146 24685
" />
<text x="70958.4" y="26359.2"
textLength="8777.47" font-size="1049.87" lengthAdjust="spacingAndGlyphs"
text-anchor="start" opacity="0">Color = Green</text>
<path d="M71672 26246
L71635 26284
L71522 26321
L71447 26321
L71335 26284
L71260 26209
L71222 26134
L71185 25984
L71185 25871
L71222 25721
L71260 25646
L71335 25571
L71447 25534
L71522 25534
L71635 25571
L71672 25609
" />
<path d="M72122 26321
L72047 26284
L72010 26246
L71972 26171
L71972 25946
L72010 25871
L72047 25834
L72122 25796
L72235 25796
L72310 25834
L72347 25871
L72385 25946
L72385 26171
L72347 26246
L72310 26284
L72235 26321
L72122 26321
" />
<path d="M72834 26321
L72759 26284
L72722 26209
L72722 25534
" />
<path d="M73247 26321
L73172 26284
L73134 26246
L73097 26171
L73097 25946
L73134 25871
L73172 25834
L73247 25796
L73359 25796
L73434 25834
L73472 25871
L73509 25946
L73509 26171
L73472 26246
L73434 26284
L73359 26321
L73247 26321
" />
<path d="M73847 26321
L73847 25796
" />
<path d="M73847 25946
L73884 25871
L73922 25834
L73997 25796
L74072 25796
" />
<path d="M74934 25909
L75534 25909
" />
<path d="M75534 26134
L74934 26134
" />
<path d="M76921 25571
L76846 25534
L76734 25534
L76622 25571
L76547 25646
L76509 25721
L76472 25871
L76472 25984
L76509 26134
L76547 26209
L76622 26284
L76734 26321
L76809 26321
L76921 26284
L76959 26246
L76959 25984
L76809 25984
" />
<path d="M77296 26321
L77296 25796
" />
<path d="M77296 25946
L77334 25871
L77371 25834
L77446 25796
L77521 25796
" />
<path d="M78084 26284
L78009 26321
L77859 26321
L77784 26284
L77746 26209
L77746 25909
L77784 25834
L77859 25796
L78009 25796
L78084 25834
L78121 25909
L78121 25984
L77746 26059
" />
<path d="M78759 26284
L78684 26321
L78534 26321
L78459 26284
L78421 26209
L78421 25909
L78459 25834
L78534 25796
L78684 25796
L78759 25834
L78796 25909
L78796 25984
L78421 26059
" />
<path d="M79134 25796
L79134 26321
" />
<path d="M79134 25871
L79171 25834
L79246 25796
L79359 25796
L79434 25834
L79471 25909
L79471 26321
" />
<text x="70958.4" y="27658.4"
textLength="37686.4" font-size="1049.87" lengthAdjust="spacingAndGlyphs"
text-anchor="start" opacity="0">Production Mark = Please use placeholder with JLCJLCJLCJLC</text>
<path d="M71222 27620
L71222 26833
L71522 26833
L71597 26871
L71635 26908
L71672 26983
L71672 27095
L71635 27170
L71597 27208
L71522 27245
L71222 27245
" />
<path d="M72010 27620
L72010 27095
" />
<path d="M72010 27245
L72047 27170
L72085 27133
L72160 27095
L72235 27095
" />
<path d="M72610 27620
L72535 27583
L72497 27545
L72460 27470
L72460 27245
L72497 27170
L72535 27133
L72610 27095
L72722 27095
L72797 27133
L72834 27170
L72872 27245
L72872 27470
L72834 27545
L72797 27583
L72722 27620
L72610 27620
" />
<path d="M73547 27620
L73547 26833
" />
<path d="M73547 27583
L73472 27620
L73322 27620
L73247 27583
L73209 27545
L73172 27470
L73172 27245
L73209 27170
L73247 27133
L73322 27095
L73472 27095
L73547 27133
" />
<path d="M74259 27095
L74259 27620
" />
<path d="M73922 27095
L73922 27508
L73959 27583
L74034 27620
L74147 27620
L74222 27583
L74259 27545
" />
<path d="M74972 27583
L74897 27620
L74747 27620
L74672 27583
L74634 27545
L74597 27470
L74597 27245
L74634 27170
L74672 27133
L74747 27095
L74897 27095
L74972 27133
" />
<path d="M75197 27095
L75497 27095
" />
<path d="M75309 26833
L75309 27508
L75347 27583
L75422 27620
L75497 27620
" />
<path d="M75759 27620
L75759 27095
" />
<path d="M75759 26833
L75722 26871
L75759 26908
L75797 26871
L75759 26833
L75759 26908
" />
<path d="M76247 27620
L76172 27583
L76134 27545
L76097 27470
L76097 27245
L76134 27170
L76172 27133
L76247 27095
L76359 27095
L76434 27133
L76472 27170
L76509 27245
L76509 27470
L76472 27545
L76434 27583
L76359 27620
L76247 27620
" />
<path d="M76846 27095
L76846 27620
" />
<path d="M76846 27170
L76884 27133
L76959 27095
L77071 27095
L77146 27133
L77184 27208
L77184 27620
" />
<path d="M78159 27620
L78159 26833
L78421 27395
L78684 26833
L78684 27620
" />
<path d="M79396 27620
L79396 27208
L79359 27133
L79284 27095
L79134 27095
L79059 27133
" />
<path d="M79396 27583
L79321 27620
L79134 27620
L79059 27583
L79021 27508
L79021 27433
L79059 27358
L79134 27320
L79321 27320
L79396 27283
" />
<path d="M79771 27620
L79771 27095
" />
<path d="M79771 27245
L79809 27170
L79846 27133
L79921 27095
L79996 27095
" />
<path d="M80259 27620
L80259 26833
" />
<path d="M80334 27320
L80559 27620
" />
<path d="M80559 27095
L80259 27395
" />
<path d="M81496 27208
L82096 27208
" />
<path d="M82096 27433
L81496 27433
" />
<path d="M83071 27620
L83071 26833
L83371 26833
L83446 26871
L83483 26908
L83521 26983
L83521 27095
L83483 27170
L83446 27208
L83371 27245
L83071 27245
" />
<path d="M83971 27620
L83896 27583
L83858 27508
L83858 26833
" />
<path d="M84571 27583
L84496 27620
L84346 27620
L84271 27583
L84233 27508
L84233 27208
L84271 27133
L84346 27095
L84496 27095
L84571 27133
L84608 27208
L84608 27283
L84233 27358
" />
<path d="M85283 27620
L85283 27208
L85245 27133
L85170 27095
L85020 27095
L84945 27133
" />
<path d="M85283 27583
L85208 27620
L85020 27620
L84945 27583
L84908 27508
L84908 27433
L84945 27358
L85020 27320
L85208 27320
L85283 27283
" />
<path d="M85620 27583
L85695 27620
L85845 27620
L85920 27583
L85958 27508
L85958 27470
L85920 27395
L85845 27358
L85733 27358
L85658 27320
L85620 27245
L85620 27208
L85658 27133
L85733 27095
L85845 27095
L85920 27133
" />
<path d="M86595 27583
L86520 27620
L86370 27620
L86295 27583
L86258 27508
L86258 27208
L86295 27133
L86370 27095
L86520 27095
L86595 27133
L86633 27208
L86633 27283
L86258 27358
" />
<path d="M87908 27095
L87908 27620
" />
<path d="M87570 27095
L87570 27508
L87608 27583
L87683 27620
L87795 27620
L87870 27583
L87908 27545
" />
<path d="M88245 27583
L88320 27620
L88470 27620
L88545 27583
L88583 27508
L88583 27470
L88545 27395
L88470 27358
L88358 27358
L88283 27320
L88245 27245
L88245 27208
L88283 27133
L88358 27095
L88470 27095
L88545 27133
" />
<path d="M89220 27583
L89145 27620
L88995 27620
L88920 27583
L88882 27508
L88882 27208
L88920 27133
L88995 27095
L89145 27095
L89220 27133
L89257 27208
L89257 27283
L88882 27358
" />
<path d="M90195 27095
L90195 27883
" />
<path d="M90195 27133
L90270 27095
L90420 27095
L90495 27133
L90532 27170
L90570 27245
L90570 27470
L90532 27545
L90495 27583
L90420 27620
L90270 27620
L90195 27583
" />
<path d="M91020 27620
L90945 27583
L90907 27508
L90907 26833
" />
<path d="M91657 27620
L91657 27208
L91620 27133
L91545 27095
L91395 27095
L91320 27133
" />
<path d="M91657 27583
L91582 27620
L91395 27620
L91320 27583
L91282 27508
L91282 27433
L91320 27358
L91395 27320
L91582 27320
L91657 27283
" />
<path d="M92370 27583
L92295 27620
L92145 27620
L92070 27583
L92032 27545
L91995 27470
L91995 27245
L92032 27170
L92070 27133
L92145 27095
L92295 27095
L92370 27133
" />
<path d="M93007 27583
L92932 27620
L92782 27620
L92707 27583
L92670 27508
L92670 27208
L92707 27133
L92782 27095
L92932 27095
L93007 27133
L93044 27208
L93044 27283
L92670 27358
" />
<path d="M93382 27620
L93382 26833
" />
<path d="M93719 27620
L93719 27208
L93682 27133
L93607 27095
L93494 27095
L93419 27133
L93382 27170
" />
<path d="M94207 27620
L94132 27583
L94094 27545
L94057 27470
L94057 27245
L94094 27170
L94132 27133
L94207 27095
L94319 27095
L94394 27133
L94432 27170
L94469 27245
L94469 27470
L94432 27545
L94394 27583
L94319 27620
L94207 27620
" />
<path d="M94919 27620
L94844 27583
L94807 27508
L94807 26833
" />
<path d="M95557 27620
L95557 26833
" />
<path d="M95557 27583
L95482 27620
L95332 27620
L95257 27583
L95219 27545
L95182 27470
L95182 27245
L95219 27170
L95257 27133
L95332 27095
L95482 27095
L95557 27133
" />
<path d="M96232 27583
L96157 27620
L96007 27620
L95932 27583
L95894 27508
L95894 27208
L95932 27133
L96007 27095
L96157 27095
L96232 27133
L96269 27208
L96269 27283
L95894 27358
" />
<path d="M96607 27620
L96607 27095
" />
<path d="M96607 27245
L96644 27170
L96682 27133
L96756 27095
L96831 27095
" />
<path d="M97619 27095
L97769 27620
L97919 27245
L98069 27620
L98219 27095
" />
<path d="M98519 27620
L98519 27095
" />
<path d="M98519 26833
L98481 26871
L98519 26908
L98556 26871
L98519 26833
L98519 26908
" />
<path d="M98781 27095
L99081 27095
" />
<path d="M98894 26833
L98894 27508
L98931 27583
L99006 27620
L99081 27620
" />
<path d="M99344 27620
L99344 26833
" />
<path d="M99681 27620
L99681 27208
L99644 27133
L99569 27095
L99456 27095
L99381 27133
L99344 27170
" />
<path d="M100881 26833
L100881 27395
L100843 27508
L100768 27583
L100656 27620
L100581 27620
" />
<path d="M101631 27620
L101256 27620
L101256 26833
" />
<path d="M102343 27545
L102306 27583
L102193 27620
L102118 27620
L102006 27583
L101931 27508
L101893 27433
L101856 27283
L101856 27170
L101893 27021
L101931 26946
L102006 26871
L102118 26833
L102193 26833
L102306 26871
L102343 26908
" />
<path d="M102906 26833
L102906 27395
L102868 27508
L102793 27583
L102681 27620
L102606 27620
" />
<path d="M103656 27620
L103281 27620
L103281 26833
" />
<path d="M104368 27545
L104331 27583
L104218 27620
L104143 27620
L104031 27583
L103956 27508
L103918 27433
L103881 27283
L103881 27170
L103918 27021
L103956 26946
L104031 26871
L104143 26833
L104218 26833
L104331 26871
L104368 26908
" />
<path d="M104930 26833
L104930 27395
L104893 27508
L104818 27583
L104706 27620
L104631 27620
" />
<path d="M105680 27620
L105305 27620
L105305 26833
" />
<path d="M106393 27545
L106355 27583
L106243 27620
L106168 27620
L106055 27583
L105980 27508
L105943 27433
L105905 27283
L105905 27170
L105943 27021
L105980 26946
L106055 26871
L106168 26833
L106243 26833
L106355 26871
L106393 26908
" />
<path d="M106955 26833
L106955 27395
L106918 27508
L106843 27583
L106730 27620
L106655 27620
" />
<path d="M107705 27620
L107330 27620
L107330 26833
" />
<path d="M108418 27545
L108380 27583
L108268 27620
L108193 27620
L108080 27583
L108005 27508
L107968 27433
L107930 27283
L107930 27170
L107968 27021
L108005 26946
L108080 26871
L108193 26833
L108268 26833
L108380 26871
L108418 26908
" />
</g>
<g style="fill:#000000; fill-opacity:0.0; 
stroke:#000000; stroke-width:78.7402; stroke-opacity:1; 
stroke-linecap:round; stroke-linejoin:round;">
<path d="M10289.1 57126.9 A2362.2 2362.2 0.0 0 0 12651.4 59489.1" />
<path d="M12651.4 22875 A2362.2 2362.2 0.0 0 0 10289.1 25237.2" />
<path d="M66982.1 25237.2 A2362.2 2362.2 0.0 0 0 64619.9 22875" />
<path d="M64619.9 59489.1 A2362.21 2362.21 0.0 0 0 66982.1 57126.9" />
<path d="M12651 59489
L64619 59489
" />
<path d="M10289 25237
L10289 57126
" />
<path d="M64619 22874
L12651 22874
" />
<path d="M66982 57126
L66982 25237
" />
</g>
<g style="fill:#000000; fill-opacity:0.0; 
stroke:#000000; stroke-width:118.11; stroke-opacity:1; 
stroke-linecap:round; stroke-linejoin:round;">
<circle cx="12651.4" cy="57126.9" r="1968.5" /> 
<circle cx="64619.9" cy="57050.7" r="1968.5" /> 
<circle cx="12651.4" cy="25237.2" r="1968.5" /> 
<circle cx="64619.9" cy="25237.2" r="1968.5" /> 
<g >
</g>
<g >
</g>
<g >
</g>
<g >
</g>
<g >
</g>
<g >
</g>
<g >
</g>
<g >
</g>
<g >
</g>
<g >
</g>
<g >
</g>
<g >
</g>
<g >
</g>
<g >
</g>
<g >
</g>
<g >
</g>
<g >
</g>
<g >
</g>
<g >
</g>
<g >
</g>
<g >
</g>
<g >
</g>
<g >
</g>
<g >
</g>
<g >
</g>
<g >
</g>
<g >
</g>
<g >
</g>
<g >
</g>
<g >
</g>
<g >
</g>
<g >
</g>
<g >
</g>
<g >
</g>
<g >
</g>
<g >
</g>
<g >
</g>
<g >
</g>
<g >
</g>
<g >
</g>
<g >
</g>
<g >
</g>
<g >
</g>
<g >
</g>
<g >
</g>
<g >
</g>
<g >
</g>
<g >
</g>
<g >
</g>
<g >
</g>
</g> 
</svg>
