<?xml version="1.0" standalone="no"?>
 <!DOCTYPE svg PUBLIC "-//W3C//DTD SVG 1.1//EN" 
 "http://www.w3.org/Graphics/SVG/1.1/DTD/svg11.dtd"> 
<svg
  xmlns:svg="http://www.w3.org/2000/svg"
  xmlns="http://www.w3.org/2000/svg"
  xmlns:xlink="http://www.w3.org/1999/xlink"
  version="1.1"
  width="29.700220cm" height="21.000720cm" viewBox="0 0 116930 82680">
<title>SVG Picture created as board-B_Paste.svg date 2021/03/29 15:50:44 </title>
  <desc>Picture generated by PCBNEW </desc>
<g style="fill:#000000; fill-opacity:1;stroke:#000000; stroke-opacity:1;
stroke-linecap:round; stroke-linejoin:round;"
 transform="translate(0 0) scale(1 1)">
</g>
<g style="fill:#000000; fill-opacity:0.0; 
stroke:#000000; stroke-width:-0.000787402; stroke-opacity:1; 
stroke-linecap:round; stroke-linejoin:round;">
</g>
<g style="fill:#000000; fill-opacity:0.0; 
stroke:#000000; stroke-width:78.7402; stroke-opacity:1; 
stroke-linecap:round; stroke-linejoin:round;">
<path d="M11509.6 57352.3 A2362.2 2362.2 0.0 0 0 13871.8 59714.5" />
<path d="M13871.8 23100.3 A2362.2 2362.2 0.0 0 0 11509.6 25462.5" />
<path d="M68202.5 25462.5 A2362.2 2362.2 0.0 0 0 65840.3 23100.3" />
<path d="M65840.3 59714.5 A2362.21 2362.21 0.0 0 0 68202.5 57352.3" />
<path d="M13871 59714
L65840 59714
" />
<path d="M11509 25462
L11509 57352
" />
<path d="M65840 23100
L13871 23100
" />
<path d="M68202 57352
L68202 25462
" />
<g >
</g>
<g style="fill:#000000; fill-opacity:0.0; 
stroke:#000000; stroke-width:0; stroke-opacity:1; 
stroke-linecap:round; stroke-linejoin:round;">
</g>
<g style="fill:#000000; fill-opacity:1.0; 
stroke:#000000; stroke-width:0; stroke-opacity:1; 
stroke-linecap:round; stroke-linejoin:round;">
<path style="fill:#000000; fill-opacity:1.0; 
stroke:#000000; stroke-width:0; stroke-opacity:1; 
stroke-linecap:round; stroke-linejoin:round;fill-rule:evenodd;"
d="M 33280.9,52845.4
33300,52848.2
33318.7,52852.9
33336.9,52859.4
33354.4,52867.7
33371,52877.6
33386.5,52889.1
33400.8,52902.1
33413.8,52916.4
33425.3,52931.9
33435.2,52948.5
33443.5,52965.9
33450,52984.1
33454.7,53002.9
33457.5,53022
33458.4,53041.3
33458.4,53789.3
33457.5,53808.6
33454.7,53827.7
33450,53846.4
33443.5,53864.6
33435.2,53882.1
33425.3,53898.7
33413.8,53914.2
33400.8,53928.5
33386.5,53941.5
33371,53953
33354.4,53962.9
33336.9,53971.2
33318.7,53977.7
33300,53982.4
33280.9,53985.2
33261.6,53986.2
32730.1,53986.2
32710.8,53985.2
32691.7,53982.4
32672.9,53977.7
32654.8,53971.2
32637.3,53962.9
32620.7,53953
32605.2,53941.5
32590.9,53928.5
32577.9,53914.2
32566.4,53898.7
32556.5,53882.1
32548.2,53864.6
32541.7,53846.4
32537,53827.7
32534.2,53808.6
32533.2,53789.3
32533.2,53041.3
32534.2,53022
32537,53002.9
32541.7,52984.1
32548.2,52965.9
32556.5,52948.5
32566.4,52931.9
32577.9,52916.4
32590.9,52902.1
32605.2,52889.1
32620.7,52877.6
32637.3,52867.7
32654.8,52859.4
32672.9,52852.9
32691.7,52848.2
32710.8,52845.4
32730.1,52844.4
33261.6,52844.4
Z" /> 
<path style="fill:#000000; fill-opacity:1.0; 
stroke:#000000; stroke-width:0; stroke-opacity:1; 
stroke-linecap:round; stroke-linejoin:round;fill-rule:evenodd;"
d="M 31647,52845.4
31666.1,52848.2
31684.9,52852.9
31703.1,52859.4
31720.5,52867.7
31737.1,52877.6
31752.6,52889.1
31766.9,52902.1
31779.9,52916.4
31791.4,52931.9
31801.3,52948.5
31809.6,52965.9
31816.1,52984.1
31820.8,53002.9
31823.6,53022
31824.6,53041.3
31824.6,53789.3
31823.6,53808.6
31820.8,53827.7
31816.1,53846.4
31809.6,53864.6
31801.3,53882.1
31791.4,53898.7
31779.9,53914.2
31766.9,53928.5
31752.6,53941.5
31737.1,53953
31720.5,53962.9
31703.1,53971.2
31684.9,53977.7
31666.1,53982.4
31647,53985.2
31627.7,53986.2
31096.2,53986.2
31076.9,53985.2
31057.8,53982.4
31039.1,53977.7
31020.9,53971.2
31003.4,53962.9
30986.9,53953
30971.4,53941.5
30957,53928.5
30944.1,53914.2
30932.6,53898.7
30922.6,53882.1
30914.4,53864.6
30907.9,53846.4
30903.2,53827.7
30900.3,53808.6
30899.4,53789.3
30899.4,53041.3
30900.3,53022
30903.2,53002.9
30907.9,52984.1
30914.4,52965.9
30922.6,52948.5
30932.6,52931.9
30944.1,52916.4
30957,52902.1
30971.4,52889.1
30986.9,52877.6
31003.4,52867.7
31020.9,52859.4
31039.1,52852.9
31057.8,52848.2
31076.9,52845.4
31096.2,52844.4
31627.7,52844.4
Z" /> 
</g>
<g >
</g>
<g >
</g>
<g >
</g>
<g >
</g>
<g >
</g>
<g >
</g>
<g >
</g>
<g style="fill:#000000; fill-opacity:1.0; 
stroke:#000000; stroke-width:0; stroke-opacity:1; 
stroke-linecap:round; stroke-linejoin:round;">
<path style="fill:#000000; fill-opacity:1.0; 
stroke:#000000; stroke-width:0; stroke-opacity:1; 
stroke-linecap:round; stroke-linejoin:round;fill-rule:evenodd;"
d="M 58911.2,37352.3
58911.2,38533.4
57336.4,38533.4
57336.4,37352.3
Z" /> 
<path style="fill:#000000; fill-opacity:1.0; 
stroke:#000000; stroke-width:0; stroke-opacity:1; 
stroke-linecap:round; stroke-linejoin:round;fill-rule:evenodd;"
d="M 58911.2,40974.3
58911.2,42155.4
57336.4,42155.4
57336.4,40974.3
Z" /> 
<path style="fill:#000000; fill-opacity:1.0; 
stroke:#000000; stroke-width:0; stroke-opacity:1; 
stroke-linecap:round; stroke-linejoin:round;fill-rule:evenodd;"
d="M 58911.2,39163.3
58911.2,40344.4
57336.4,40344.4
57336.4,39163.3
Z" /> 
<path style="fill:#000000; fill-opacity:1.0; 
stroke:#000000; stroke-width:0; stroke-opacity:1; 
stroke-linecap:round; stroke-linejoin:round;fill-rule:evenodd;"
d="M 53950.6,38257.8
53950.6,41249.9
52375.8,41249.9
52375.8,38257.8
Z" /> 
</g>
<g >
</g>
<g style="fill:#000000; fill-opacity:1.0; 
stroke:#000000; stroke-width:0; stroke-opacity:1; 
stroke-linecap:round; stroke-linejoin:round;">
<path style="fill:#000000; fill-opacity:1.0; 
stroke:#000000; stroke-width:0; stroke-opacity:1; 
stroke-linecap:round; stroke-linejoin:round;fill-rule:evenodd;"
d="M 58911.2,28690.9
58911.2,29872
57336.4,29872
57336.4,28690.9
Z" /> 
<path style="fill:#000000; fill-opacity:1.0; 
stroke:#000000; stroke-width:0; stroke-opacity:1; 
stroke-linecap:round; stroke-linejoin:round;fill-rule:evenodd;"
d="M 58911.2,32312.9
58911.2,33494
57336.4,33494
57336.4,32312.9
Z" /> 
<path style="fill:#000000; fill-opacity:1.0; 
stroke:#000000; stroke-width:0; stroke-opacity:1; 
stroke-linecap:round; stroke-linejoin:round;fill-rule:evenodd;"
d="M 58911.2,30501.9
58911.2,31683
57336.4,31683
57336.4,30501.9
Z" /> 
<path style="fill:#000000; fill-opacity:1.0; 
stroke:#000000; stroke-width:0; stroke-opacity:1; 
stroke-linecap:round; stroke-linejoin:round;fill-rule:evenodd;"
d="M 53950.6,29596.4
53950.6,32588.5
52375.8,32588.5
52375.8,29596.4
Z" /> 
</g>
<g >
</g>
<g >
</g>
<g >
</g>
<g >
</g>
<g >
</g>
<g >
</g>
<g >
</g>
<g >
</g>
<g >
</g>
<g >
</g>
<g >
</g>
<g >
</g>
<g >
</g>
<g >
</g>
<g >
</g>
<g >
</g>
<g >
</g>
<g >
</g>
<g >
</g>
<g >
</g>
<g style="fill:#000000; fill-opacity:1.0; 
stroke:#000000; stroke-width:0; stroke-opacity:1; 
stroke-linecap:round; stroke-linejoin:round;">
<path style="fill:#000000; fill-opacity:1.0; 
stroke:#000000; stroke-width:0; stroke-opacity:1; 
stroke-linecap:round; stroke-linejoin:round;fill-rule:evenodd;"
d="M 51312.4,36703.6
51331.5,36706.5
51350.2,36711.2
51368.4,36717.7
51385.9,36725.9
51402.4,36735.9
51418,36747.4
51432.3,36760.3
51445.3,36774.7
51456.8,36790.2
51466.7,36806.7
51475,36824.2
51481.5,36842.4
51486.2,36861.1
51489,36880.2
51489.9,36899.5
51489.9,37431
51489,37450.3
51486.2,37469.4
51481.5,37488.2
51475,37506.4
51466.7,37523.8
51456.8,37540.4
51445.3,37555.9
51432.3,37570.2
51418,37583.2
51402.4,37594.7
51385.9,37604.6
51368.4,37612.9
51350.2,37619.4
51331.5,37624.1
51312.4,37626.9
51293.1,37627.9
50545.1,37627.9
50525.8,37626.9
50506.6,37624.1
50487.9,37619.4
50469.7,37612.9
50452.3,37604.6
50435.7,37594.7
50420.2,37583.2
50405.9,37570.2
50392.9,37555.9
50381.4,37540.4
50371.4,37523.8
50363.2,37506.4
50356.7,37488.2
50352,37469.4
50349.2,37450.3
50348.2,37431
50348.2,36899.5
50349.2,36880.2
50352,36861.1
50356.7,36842.4
50363.2,36824.2
50371.4,36806.7
50381.4,36790.2
50392.9,36774.7
50405.9,36760.3
50420.2,36747.4
50435.7,36735.9
50452.3,36725.9
50469.7,36717.7
50487.9,36711.2
50506.6,36706.5
50525.8,36703.6
50545.1,36702.7
51293.1,36702.7
Z" /> 
<path style="fill:#000000; fill-opacity:1.0; 
stroke:#000000; stroke-width:0; stroke-opacity:1; 
stroke-linecap:round; stroke-linejoin:round;fill-rule:evenodd;"
d="M 51312.4,38337.5
51331.5,38340.3
51350.2,38345
51368.4,38351.5
51385.9,38359.8
51402.4,38369.7
51418,38381.2
51432.3,38394.2
51445.3,38408.5
51456.8,38424
51466.7,38440.6
51475,38458.1
51481.5,38476.3
51486.2,38495
51489,38514.1
51489.9,38533.4
51489.9,39064.9
51489,39084.2
51486.2,39103.3
51481.5,39122
51475,39140.2
51466.7,39157.7
51456.8,39174.3
51445.3,39189.8
51432.3,39204.1
51418,39217.1
51402.4,39228.6
51385.9,39238.5
51368.4,39246.8
51350.2,39253.3
51331.5,39258
51312.4,39260.8
51293.1,39261.7
50545.1,39261.7
50525.8,39260.8
50506.6,39258
50487.9,39253.3
50469.7,39246.8
50452.3,39238.5
50435.7,39228.6
50420.2,39217.1
50405.9,39204.1
50392.9,39189.8
50381.4,39174.3
50371.4,39157.7
50363.2,39140.2
50356.7,39122
50352,39103.3
50349.2,39084.2
50348.2,39064.9
50348.2,38533.4
50349.2,38514.1
50352,38495
50356.7,38476.3
50363.2,38458.1
50371.4,38440.6
50381.4,38424
50392.9,38408.5
50405.9,38394.2
50420.2,38381.2
50435.7,38369.7
50452.3,38359.8
50469.7,38351.5
50487.9,38345
50506.6,38340.3
50525.8,38337.5
50545.1,38336.5
51293.1,38336.5
Z" /> 
</g>
<g >
</g>
<g style="fill:#000000; fill-opacity:1.0; 
stroke:#000000; stroke-width:0; stroke-opacity:1; 
stroke-linecap:round; stroke-linejoin:round;">
<path style="fill:#000000; fill-opacity:1.0; 
stroke:#000000; stroke-width:0; stroke-opacity:1; 
stroke-linecap:round; stroke-linejoin:round;fill-rule:evenodd;"
d="M 51509.2,28042.2
51528.3,28045.1
51547.1,28049.8
51565.3,28056.3
51582.7,28064.5
51599.3,28074.4
51614.8,28086
51629.1,28098.9
51642.1,28113.2
51653.6,28128.8
51663.5,28145.3
51671.8,28162.8
51678.3,28181
51683,28199.7
51685.8,28218.8
51686.8,28238.1
51686.8,28769.6
51685.8,28788.9
51683,28808
51678.3,28826.8
51671.8,28845
51663.5,28862.4
51653.6,28879
51642.1,28894.5
51629.1,28908.8
51614.8,28921.8
51599.3,28933.3
51582.7,28943.2
51565.3,28951.5
51547.1,28958
51528.3,28962.7
51509.2,28965.5
51489.9,28966.5
50741.9,28966.5
50722.6,28965.5
50703.5,28962.7
50684.8,28958
50666.6,28951.5
50649.1,28943.2
50632.5,28933.3
50617,28921.8
50602.7,28908.8
50589.7,28894.5
50578.2,28879
50568.3,28862.4
50560,28845
50553.5,28826.8
50548.8,28808
50546,28788.9
50545.1,28769.6
50545.1,28238.1
50546,28218.8
50548.8,28199.7
50553.5,28181
50560,28162.8
50568.3,28145.3
50578.2,28128.8
50589.7,28113.2
50602.7,28098.9
50617,28086
50632.5,28074.4
50649.1,28064.5
50666.6,28056.3
50684.8,28049.8
50703.5,28045.1
50722.6,28042.2
50741.9,28041.3
51489.9,28041.3
Z" /> 
<path style="fill:#000000; fill-opacity:1.0; 
stroke:#000000; stroke-width:0; stroke-opacity:1; 
stroke-linecap:round; stroke-linejoin:round;fill-rule:evenodd;"
d="M 51509.2,29676.1
51528.3,29678.9
51547.1,29683.6
51565.3,29690.1
51582.7,29698.4
51599.3,29708.3
51614.8,29719.8
51629.1,29732.8
51642.1,29747.1
51653.6,29762.6
51663.5,29779.2
51671.8,29796.7
51678.3,29814.8
51683,29833.6
51685.8,29852.7
51686.8,29872
51686.8,30403.5
51685.8,30422.8
51683,30441.9
51678.3,30460.6
51671.8,30478.8
51663.5,30496.3
51653.6,30512.8
51642.1,30528.4
51629.1,30542.7
51614.8,30555.6
51599.3,30567.2
51582.7,30577.1
51565.3,30585.3
51547.1,30591.9
51528.3,30596.5
51509.2,30599.4
51489.9,30600.3
50741.9,30600.3
50722.6,30599.4
50703.5,30596.5
50684.8,30591.9
50666.6,30585.3
50649.1,30577.1
50632.5,30567.2
50617,30555.6
50602.7,30542.7
50589.7,30528.4
50578.2,30512.8
50568.3,30496.3
50560,30478.8
50553.5,30460.6
50548.8,30441.9
50546,30422.8
50545.1,30403.5
50545.1,29872
50546,29852.7
50548.8,29833.6
50553.5,29814.8
50560,29796.7
50568.3,29779.2
50578.2,29762.6
50589.7,29747.1
50602.7,29732.8
50617,29719.8
50632.5,29708.3
50649.1,29698.4
50666.6,29690.1
50684.8,29683.6
50703.5,29678.9
50722.6,29676.1
50741.9,29675.1
51489.9,29675.1
Z" /> 
</g>
<g >
</g>
<g >
</g>
<g style="fill:#000000; fill-opacity:1.0; 
stroke:#000000; stroke-width:0; stroke-opacity:1; 
stroke-linecap:round; stroke-linejoin:round;">
<path style="fill:#000000; fill-opacity:1.0; 
stroke:#000000; stroke-width:0; stroke-opacity:1; 
stroke-linecap:round; stroke-linejoin:round;fill-rule:evenodd;"
d="M 37493.5,34813.9
37512.6,34816.7
37531.3,34821.4
37549.5,34827.9
37567,34836.2
37583.6,34846.1
37599.1,34857.6
37613.4,34870.6
37626.4,34884.9
37637.9,34900.4
37647.8,34917
37656.1,34934.4
37662.6,34952.6
37667.3,34971.4
37670.1,34990.5
37671,35009.8
37671,35541.3
37670.1,35560.6
37667.3,35579.7
37662.6,35598.4
37656.1,35616.6
37647.8,35634.1
37637.9,35650.6
37626.4,35666.2
37613.4,35680.5
37599.1,35693.4
37583.6,35704.9
37567,35714.9
37549.5,35723.1
37531.3,35729.6
37512.6,35734.3
37493.5,35737.2
37474.2,35738.1
36726.2,35738.1
36706.9,35737.2
36687.8,35734.3
36669,35729.6
36650.8,35723.1
36633.4,35714.9
36616.8,35704.9
36601.3,35693.4
36587,35680.5
36574,35666.2
36562.5,35650.6
36552.5,35634.1
36544.3,35616.6
36537.8,35598.4
36533.1,35579.7
36530.3,35560.6
36529.3,35541.3
36529.3,35009.8
36530.3,34990.5
36533.1,34971.4
36537.8,34952.6
36544.3,34934.4
36552.5,34917
36562.5,34900.4
36574,34884.9
36587,34870.6
36601.3,34857.6
36616.8,34846.1
36633.4,34836.2
36650.8,34827.9
36669,34821.4
36687.8,34816.7
36706.9,34813.9
36726.2,34812.9
37474.2,34812.9
Z" /> 
<path style="fill:#000000; fill-opacity:1.0; 
stroke:#000000; stroke-width:0; stroke-opacity:1; 
stroke-linecap:round; stroke-linejoin:round;fill-rule:evenodd;"
d="M 37493.5,36447.7
37512.6,36450.6
37531.3,36455.3
37549.5,36461.8
37567,36470
37583.6,36480
37599.1,36491.5
37613.4,36504.4
37626.4,36518.8
37637.9,36534.3
37647.8,36550.8
37656.1,36568.3
37662.6,36586.5
37667.3,36605.2
37670.1,36624.3
37671,36643.6
37671,37175.1
37670.1,37194.4
37667.3,37213.5
37662.6,37232.3
37656.1,37250.5
37647.8,37267.9
37637.9,37284.5
37626.4,37300
37613.4,37314.3
37599.1,37327.3
37583.6,37338.8
37567,37348.7
37549.5,37357
37531.3,37363.5
37512.6,37368.2
37493.5,37371
37474.2,37372
36726.2,37372
36706.9,37371
36687.8,37368.2
36669,37363.5
36650.8,37357
36633.4,37348.7
36616.8,37338.8
36601.3,37327.3
36587,37314.3
36574,37300
36562.5,37284.5
36552.5,37267.9
36544.3,37250.5
36537.8,37232.3
36533.1,37213.5
36530.3,37194.4
36529.3,37175.1
36529.3,36643.6
36530.3,36624.3
36533.1,36605.2
36537.8,36586.5
36544.3,36568.3
36552.5,36550.8
36562.5,36534.3
36574,36518.8
36587,36504.4
36601.3,36491.5
36616.8,36480
36633.4,36470
36650.8,36461.8
36669,36455.3
36687.8,36450.6
36706.9,36447.7
36726.2,36446.8
37474.2,36446.8
Z" /> 
</g>
<g >
</g>
<g >
</g>
<g style="fill:#000000; fill-opacity:1.0; 
stroke:#000000; stroke-width:0; stroke-opacity:1; 
stroke-linecap:round; stroke-linejoin:round;">
<path style="fill:#000000; fill-opacity:1.0; 
stroke:#000000; stroke-width:0; stroke-opacity:1; 
stroke-linecap:round; stroke-linejoin:round;fill-rule:evenodd;"
d="M 29147,34538.3
29166.1,34541.1
29184.9,34545.8
29203.1,34552.3
29220.5,34560.6
29237.1,34570.5
29252.6,34582
29266.9,34595
29279.9,34609.3
29291.4,34624.8
29301.3,34641.4
29309.6,34658.9
29316.1,34677
29320.8,34695.8
29323.6,34714.9
29324.6,34734.2
29324.6,35482.2
29323.6,35501.5
29320.8,35520.6
29316.1,35539.4
29309.6,35557.6
29301.3,35575
29291.4,35591.6
29279.9,35607.1
29266.9,35621.4
29252.6,35634.4
29237.1,35645.9
29220.5,35655.8
29203.1,35664.1
29184.9,35670.6
29166.1,35675.3
29147,35678.1
29127.7,35679.1
28596.2,35679.1
28576.9,35678.1
28557.8,35675.3
28539.1,35670.6
28520.9,35664.1
28503.4,35655.8
28486.9,35645.9
28471.4,35634.4
28457,35621.4
28444.1,35607.1
28432.6,35591.6
28422.6,35575
28414.4,35557.6
28407.9,35539.4
28403.2,35520.6
28400.3,35501.5
28399.4,35482.2
28399.4,34734.2
28400.3,34714.9
28403.2,34695.8
28407.9,34677
28414.4,34658.9
28422.6,34641.4
28432.6,34624.8
28444.1,34609.3
28457,34595
28471.4,34582
28486.9,34570.5
28503.4,34560.6
28520.9,34552.3
28539.1,34545.8
28557.8,34541.1
28576.9,34538.3
28596.2,34537.3
29127.7,34537.3
Z" /> 
<path style="fill:#000000; fill-opacity:1.0; 
stroke:#000000; stroke-width:0; stroke-opacity:1; 
stroke-linecap:round; stroke-linejoin:round;fill-rule:evenodd;"
d="M 27513.2,34538.3
27532.3,34541.1
27551,34545.8
27569.2,34552.3
27586.7,34560.6
27603.2,34570.5
27618.8,34582
27633.1,34595
27646,34609.3
27657.5,34624.8
27667.5,34641.4
27675.7,34658.9
27682.2,34677
27686.9,34695.8
27689.8,34714.9
27690.7,34734.2
27690.7,35482.2
27689.8,35501.5
27686.9,35520.6
27682.2,35539.4
27675.7,35557.6
27667.5,35575
27657.5,35591.6
27646,35607.1
27633.1,35621.4
27618.8,35634.4
27603.2,35645.9
27586.7,35655.8
27569.2,35664.1
27551,35670.6
27532.3,35675.3
27513.2,35678.1
27493.9,35679.1
26962.4,35679.1
26943.1,35678.1
26924,35675.3
26905.2,35670.6
26887,35664.1
26869.6,35655.8
26853,35645.9
26837.5,35634.4
26823.2,35621.4
26810.2,35607.1
26798.7,35591.6
26788.8,35575
26780.5,35557.6
26774,35539.4
26769.3,35520.6
26766.5,35501.5
26765.5,35482.2
26765.5,34734.2
26766.5,34714.9
26769.3,34695.8
26774,34677
26780.5,34658.9
26788.8,34641.4
26798.7,34624.8
26810.2,34609.3
26823.2,34595
26837.5,34582
26853,34570.5
26869.6,34560.6
26887,34552.3
26905.2,34545.8
26924,34541.1
26943.1,34538.3
26962.4,34537.3
27493.9,34537.3
Z" /> 
</g>
<g >
</g>
<g >
</g>
<g style="fill:#000000; fill-opacity:1.0; 
stroke:#000000; stroke-width:0; stroke-opacity:1; 
stroke-linecap:round; stroke-linejoin:round;">
<path style="fill:#000000; fill-opacity:1.0; 
stroke:#000000; stroke-width:0; stroke-opacity:1; 
stroke-linecap:round; stroke-linejoin:round;fill-rule:evenodd;"
d="M 19186.4,45640.6
19205.5,45643.5
19224.2,45648.2
19242.4,45654.7
19259.9,45662.9
19276.5,45672.9
19292,45684.4
19306.3,45697.4
19319.3,45711.7
19330.8,45727.2
19340.7,45743.8
19349,45761.2
19355.5,45779.4
19360.2,45798.1
19363,45817.3
19364,45836.5
19364,46368
19363,46387.3
19360.2,46406.4
19355.5,46425.2
19349,46443.4
19340.7,46460.8
19330.8,46477.4
19319.3,46492.9
19306.3,46507.2
19292,46520.2
19276.5,46531.7
19259.9,46541.7
19242.4,46549.9
19224.2,46556.4
19205.5,46561.1
19186.4,46563.9
19167.1,46564.9
18419.1,46564.9
18399.8,46563.9
18380.7,46561.1
18361.9,46556.4
18343.7,46549.9
18326.3,46541.7
18309.7,46531.7
18294.2,46520.2
18279.9,46507.2
18266.9,46492.9
18255.4,46477.4
18245.5,46460.8
18237.2,46443.4
18230.7,46425.2
18226,46406.4
18223.2,46387.3
18222.2,46368
18222.2,45836.5
18223.2,45817.3
18226,45798.1
18230.7,45779.4
18237.2,45761.2
18245.5,45743.8
18255.4,45727.2
18266.9,45711.7
18279.9,45697.4
18294.2,45684.4
18309.7,45672.9
18326.3,45662.9
18343.7,45654.7
18361.9,45648.2
18380.7,45643.5
18399.8,45640.6
18419.1,45639.7
19167.1,45639.7
Z" /> 
<path style="fill:#000000; fill-opacity:1.0; 
stroke:#000000; stroke-width:0; stroke-opacity:1; 
stroke-linecap:round; stroke-linejoin:round;fill-rule:evenodd;"
d="M 19186.4,47274.5
19205.5,47277.3
19224.2,47282
19242.4,47288.5
19259.9,47296.8
19276.5,47306.7
19292,47318.2
19306.3,47331.2
19319.3,47345.5
19330.8,47361
19340.7,47377.6
19349,47395.1
19355.5,47413.3
19360.2,47432
19363,47451.1
19364,47470.4
19364,48001.9
19363,48021.2
19360.2,48040.3
19355.5,48059
19349,48077.2
19340.7,48094.7
19330.8,48111.3
19319.3,48126.8
19306.3,48141.1
19292,48154.1
19276.5,48165.6
19259.9,48175.5
19242.4,48183.8
19224.2,48190.3
19205.5,48195
19186.4,48197.8
19167.1,48198.8
18419.1,48198.8
18399.8,48197.8
18380.7,48195
18361.9,48190.3
18343.7,48183.8
18326.3,48175.5
18309.7,48165.6
18294.2,48154.1
18279.9,48141.1
18266.9,48126.8
18255.4,48111.3
18245.5,48094.7
18237.2,48077.2
18230.7,48059
18226,48040.3
18223.2,48021.2
18222.2,48001.9
18222.2,47470.4
18223.2,47451.1
18226,47432
18230.7,47413.3
18237.2,47395.1
18245.5,47377.6
18255.4,47361
18266.9,47345.5
18279.9,47331.2
18294.2,47318.2
18309.7,47306.7
18326.3,47296.8
18343.7,47288.5
18361.9,47282
18380.7,47277.3
18399.8,47274.5
18419.1,47273.6
19167.1,47273.6
Z" /> 
</g>
<g >
</g>
<g style="fill:#000000; fill-opacity:1.0; 
stroke:#000000; stroke-width:0; stroke-opacity:1; 
stroke-linecap:round; stroke-linejoin:round;">
<path style="fill:#000000; fill-opacity:1.0; 
stroke:#000000; stroke-width:0; stroke-opacity:1; 
stroke-linecap:round; stroke-linejoin:round;fill-rule:evenodd;"
d="M 43989.5,48652.5
44008.7,48655.3
44027.4,48660
44045.6,48666.5
44063,48674.8
44079.6,48684.7
44095.1,48696.2
44109.4,48709.2
44122.4,48723.5
44133.9,48739
44143.9,48755.6
44152.1,48773
44158.6,48791.2
44163.3,48810
44166.2,48829.1
44167.1,48848.4
44167.1,49379.9
44166.2,49399.2
44163.3,49418.3
44158.6,49437
44152.1,49455.2
44143.9,49472.7
44133.9,49489.2
44122.4,49504.7
44109.4,49519.1
44095.1,49532
44079.6,49543.5
44063,49553.5
44045.6,49561.7
44027.4,49568.2
44008.7,49572.9
43989.5,49575.8
43970.2,49576.7
43222.2,49576.7
43202.9,49575.8
43183.8,49572.9
43165.1,49568.2
43146.9,49561.7
43129.4,49553.5
43112.9,49543.5
43097.3,49532
43083,49519.1
43070.1,49504.7
43058.5,49489.2
43048.6,49472.7
43040.4,49455.2
43033.8,49437
43029.2,49418.3
43026.3,49399.2
43025.4,49379.9
43025.4,48848.4
43026.3,48829.1
43029.2,48810
43033.8,48791.2
43040.4,48773
43048.6,48755.6
43058.5,48739
43070.1,48723.5
43083,48709.2
43097.3,48696.2
43112.9,48684.7
43129.4,48674.8
43146.9,48666.5
43165.1,48660
43183.8,48655.3
43202.9,48652.5
43222.2,48651.5
43970.2,48651.5
Z" /> 
<path style="fill:#000000; fill-opacity:1.0; 
stroke:#000000; stroke-width:0; stroke-opacity:1; 
stroke-linecap:round; stroke-linejoin:round;fill-rule:evenodd;"
d="M 43989.5,47018.6
44008.7,47021.4
44027.4,47026.1
44045.6,47032.6
44063,47040.9
44079.6,47050.8
44095.1,47062.3
44109.4,47075.3
44122.4,47089.6
44133.9,47105.1
44143.9,47121.7
44152.1,47139.2
44158.6,47157.4
44163.3,47176.1
44166.2,47195.2
44167.1,47214.5
44167.1,47746
44166.2,47765.3
44163.3,47784.4
44158.6,47803.1
44152.1,47821.3
44143.9,47838.8
44133.9,47855.4
44122.4,47870.9
44109.4,47885.2
44095.1,47898.2
44079.6,47909.7
44063,47919.6
44045.6,47927.9
44027.4,47934.4
44008.7,47939.1
43989.5,47941.9
43970.2,47942.8
43222.2,47942.8
43202.9,47941.9
43183.8,47939.1
43165.1,47934.4
43146.9,47927.9
43129.4,47919.6
43112.9,47909.7
43097.3,47898.2
43083,47885.2
43070.1,47870.9
43058.5,47855.4
43048.6,47838.8
43040.4,47821.3
43033.8,47803.1
43029.2,47784.4
43026.3,47765.3
43025.4,47746
43025.4,47214.5
43026.3,47195.2
43029.2,47176.1
43033.8,47157.4
43040.4,47139.2
43048.6,47121.7
43058.5,47105.1
43070.1,47089.6
43083,47075.3
43097.3,47062.3
43112.9,47050.8
43129.4,47040.9
43146.9,47032.6
43165.1,47026.1
43183.8,47021.4
43202.9,47018.6
43222.2,47017.7
43970.2,47017.7
Z" /> 
</g>
<g >
</g>
<g style="fill:#000000; fill-opacity:1.0; 
stroke:#000000; stroke-width:0; stroke-opacity:1; 
stroke-linecap:round; stroke-linejoin:round;">
<path style="fill:#000000; fill-opacity:1.0; 
stroke:#000000; stroke-width:0; stroke-opacity:1; 
stroke-linecap:round; stroke-linejoin:round;fill-rule:evenodd;"
d="M 56853.7,42924.1
56872.8,42926.9
56891.6,42931.6
56909.8,42938.1
56927.2,42946.4
56943.8,42956.3
56959.3,42967.8
56973.6,42980.8
56986.6,42995.1
56998.1,43010.6
57008,43027.2
57016.3,43044.7
57022.8,43062.9
57027.5,43081.6
57030.3,43100.7
57031.3,43120
57031.3,43868
57030.3,43887.3
57027.5,43906.4
57022.8,43925.2
57016.3,43943.4
57008,43960.8
56998.1,43977.4
56986.6,43992.9
56973.6,44007.2
56959.3,44020.2
56943.8,44031.7
56927.2,44041.7
56909.8,44049.9
56891.6,44056.4
56872.8,44061.1
56853.7,44063.9
56834.4,44064.9
56302.9,44064.9
56283.6,44063.9
56264.5,44061.1
56245.8,44056.4
56227.6,44049.9
56210.1,44041.7
56193.6,44031.7
56178,44020.2
56163.7,44007.2
56150.8,43992.9
56139.3,43977.4
56129.3,43960.8
56121.1,43943.4
56114.6,43925.2
56109.9,43906.4
56107,43887.3
56106.1,43868
56106.1,43120
56107,43100.7
56109.9,43081.6
56114.6,43062.9
56121.1,43044.7
56129.3,43027.2
56139.3,43010.6
56150.8,42995.1
56163.7,42980.8
56178,42967.8
56193.6,42956.3
56210.1,42946.4
56227.6,42938.1
56245.8,42931.6
56264.5,42926.9
56283.6,42924.1
56302.9,42923.2
56834.4,42923.2
Z" /> 
<path style="fill:#000000; fill-opacity:1.0; 
stroke:#000000; stroke-width:0; stroke-opacity:1; 
stroke-linecap:round; stroke-linejoin:round;fill-rule:evenodd;"
d="M 58487.6,42924.1
58506.7,42926.9
58525.4,42931.6
58543.6,42938.1
58561.1,42946.4
58577.6,42956.3
58593.2,42967.8
58607.5,42980.8
58620.4,42995.1
58632,43010.6
58641.9,43027.2
58650.1,43044.7
58656.7,43062.9
58661.3,43081.6
58664.2,43100.7
58665.1,43120
58665.1,43868
58664.2,43887.3
58661.3,43906.4
58656.7,43925.2
58650.1,43943.4
58641.9,43960.8
58632,43977.4
58620.4,43992.9
58607.5,44007.2
58593.2,44020.2
58577.6,44031.7
58561.1,44041.7
58543.6,44049.9
58525.4,44056.4
58506.7,44061.1
58487.6,44063.9
58468.3,44064.9
57936.8,44064.9
57917.5,44063.9
57898.4,44061.1
57879.6,44056.4
57861.5,44049.9
57844,44041.7
57827.4,44031.7
57811.9,44020.2
57797.6,44007.2
57784.6,43992.9
57773.1,43977.4
57763.2,43960.8
57754.9,43943.4
57748.4,43925.2
57743.7,43906.4
57740.9,43887.3
57739.9,43868
57739.9,43120
57740.9,43100.7
57743.7,43081.6
57748.4,43062.9
57754.9,43044.7
57763.2,43027.2
57773.1,43010.6
57784.6,42995.1
57797.6,42980.8
57811.9,42967.8
57827.4,42956.3
57844,42946.4
57861.5,42938.1
57879.6,42931.6
57898.4,42926.9
57917.5,42924.1
57936.8,42923.2
58468.3,42923.2
Z" /> 
</g>
<g >
</g>
<g >
</g>
<g style="fill:#000000; fill-opacity:1.0; 
stroke:#000000; stroke-width:0; stroke-opacity:1; 
stroke-linecap:round; stroke-linejoin:round;">
<path style="fill:#000000; fill-opacity:1.0; 
stroke:#000000; stroke-width:0; stroke-opacity:1; 
stroke-linecap:round; stroke-linejoin:round;fill-rule:evenodd;"
d="M 43989.5,39400.5
44008.7,39403.3
44027.4,39408
44045.6,39414.5
44063,39422.8
44079.6,39432.7
44095.1,39444.2
44109.4,39457.2
44122.4,39471.5
44133.9,39487
44143.9,39503.6
44152.1,39521.1
44158.6,39539.2
44163.3,39558
44166.2,39577.1
44167.1,39596.4
44167.1,40127.9
44166.2,40147.2
44163.3,40166.3
44158.6,40185
44152.1,40203.2
44143.9,40220.7
44133.9,40237.3
44122.4,40252.8
44109.4,40267.1
44095.1,40280.1
44079.6,40291.6
44063,40301.5
44045.6,40309.8
44027.4,40316.3
44008.7,40321
43989.5,40323.8
43970.2,40324.7
43222.2,40324.7
43202.9,40323.8
43183.8,40321
43165.1,40316.3
43146.9,40309.8
43129.4,40301.5
43112.9,40291.6
43097.3,40280.1
43083,40267.1
43070.1,40252.8
43058.5,40237.3
43048.6,40220.7
43040.4,40203.2
43033.8,40185
43029.2,40166.3
43026.3,40147.2
43025.4,40127.9
43025.4,39596.4
43026.3,39577.1
43029.2,39558
43033.8,39539.2
43040.4,39521.1
43048.6,39503.6
43058.5,39487
43070.1,39471.5
43083,39457.2
43097.3,39444.2
43112.9,39432.7
43129.4,39422.8
43146.9,39414.5
43165.1,39408
43183.8,39403.3
43202.9,39400.5
43222.2,39399.5
43970.2,39399.5
Z" /> 
<path style="fill:#000000; fill-opacity:1.0; 
stroke:#000000; stroke-width:0; stroke-opacity:1; 
stroke-linecap:round; stroke-linejoin:round;fill-rule:evenodd;"
d="M 43989.5,37766.6
44008.7,37769.5
44027.4,37774.2
44045.6,37780.7
44063,37788.9
44079.6,37798.9
44095.1,37810.4
44109.4,37823.3
44122.4,37837.7
44133.9,37853.2
44143.9,37869.7
44152.1,37887.2
44158.6,37905.4
44163.3,37924.1
44166.2,37943.2
44167.1,37962.5
44167.1,38494
44166.2,38513.3
44163.3,38532.4
44158.6,38551.2
44152.1,38569.4
44143.9,38586.8
44133.9,38603.4
44122.4,38618.9
44109.4,38633.2
44095.1,38646.2
44079.6,38657.7
44063,38667.6
44045.6,38675.9
44027.4,38682.4
44008.7,38687.1
43989.5,38689.9
43970.2,38690.9
43222.2,38690.9
43202.9,38689.9
43183.8,38687.1
43165.1,38682.4
43146.9,38675.9
43129.4,38667.6
43112.9,38657.7
43097.3,38646.2
43083,38633.2
43070.1,38618.9
43058.5,38603.4
43048.6,38586.8
43040.4,38569.4
43033.8,38551.2
43029.2,38532.4
43026.3,38513.3
43025.4,38494
43025.4,37962.5
43026.3,37943.2
43029.2,37924.1
43033.8,37905.4
43040.4,37887.2
43048.6,37869.7
43058.5,37853.2
43070.1,37837.7
43083,37823.3
43097.3,37810.4
43112.9,37798.9
43129.4,37788.9
43146.9,37780.7
43165.1,37774.2
43183.8,37769.5
43202.9,37766.6
43222.2,37765.7
43970.2,37765.7
Z" /> 
</g>
<g >
</g>
<g style="fill:#000000; fill-opacity:1.0; 
stroke:#000000; stroke-width:0; stroke-opacity:1; 
stroke-linecap:round; stroke-linejoin:round;">
<path style="fill:#000000; fill-opacity:1.0; 
stroke:#000000; stroke-width:0; stroke-opacity:1; 
stroke-linecap:round; stroke-linejoin:round;fill-rule:evenodd;"
d="M 25741.5,28435.9
25760.6,28438.8
25779.4,28443.5
25797.5,28450
25815,28458.2
25831.6,28468.2
25847.1,28479.7
25861.4,28492.6
25874.4,28506.9
25885.9,28522.5
25895.8,28539
25904.1,28556.5
25910.6,28574.7
25915.3,28593.4
25918.1,28612.5
25919.1,28631.8
25919.1,29379.9
25918.1,29399.2
25915.3,29418.3
25910.6,29437
25904.1,29455.2
25895.8,29472.7
25885.9,29489.2
25874.4,29504.7
25861.4,29519.1
25847.1,29532
25831.6,29543.5
25815,29553.5
25797.5,29561.7
25779.4,29568.2
25760.6,29572.9
25741.5,29575.8
25722.2,29576.7
25190.7,29576.7
25171.4,29575.8
25152.3,29572.9
25133.6,29568.2
25115.4,29561.7
25097.9,29553.5
25081.4,29543.5
25065.8,29532
25051.5,29519.1
25038.6,29504.7
25027,29489.2
25017.1,29472.7
25008.9,29455.2
25002.3,29437
24997.7,29418.3
24994.8,29399.2
24993.9,29379.9
24993.9,28631.8
24994.8,28612.5
24997.7,28593.4
25002.3,28574.7
25008.9,28556.5
25017.1,28539
25027,28522.5
25038.6,28506.9
25051.5,28492.6
25065.8,28479.7
25081.4,28468.2
25097.9,28458.2
25115.4,28450
25133.6,28443.5
25152.3,28438.8
25171.4,28435.9
25190.7,28435
25722.2,28435
Z" /> 
<path style="fill:#000000; fill-opacity:1.0; 
stroke:#000000; stroke-width:0; stroke-opacity:1; 
stroke-linecap:round; stroke-linejoin:round;fill-rule:evenodd;"
d="M 27375.4,28435.9
27394.5,28438.8
27413.2,28443.5
27431.4,28450
27448.9,28458.2
27465.4,28468.2
27481,28479.7
27495.3,28492.6
27508.2,28506.9
27519.8,28522.5
27529.7,28539
27537.9,28556.5
27544.5,28574.7
27549.1,28593.4
27552,28612.5
27552.9,28631.8
27552.9,29379.9
27552,29399.2
27549.1,29418.3
27544.5,29437
27537.9,29455.2
27529.7,29472.7
27519.8,29489.2
27508.2,29504.7
27495.3,29519.1
27481,29532
27465.4,29543.5
27448.9,29553.5
27431.4,29561.7
27413.2,29568.2
27394.5,29572.9
27375.4,29575.8
27356.1,29576.7
26824.6,29576.7
26805.3,29575.8
26786.2,29572.9
26767.4,29568.2
26749.2,29561.7
26731.8,29553.5
26715.2,29543.5
26699.7,29532
26685.4,29519.1
26672.4,29504.7
26660.9,29489.2
26651,29472.7
26642.7,29455.2
26636.2,29437
26631.5,29418.3
26628.7,29399.2
26627.7,29379.9
26627.7,28631.8
26628.7,28612.5
26631.5,28593.4
26636.2,28574.7
26642.7,28556.5
26651,28539
26660.9,28522.5
26672.4,28506.9
26685.4,28492.6
26699.7,28479.7
26715.2,28468.2
26731.8,28458.2
26749.2,28450
26767.4,28443.5
26786.2,28438.8
26805.3,28435.9
26824.6,28435
27356.1,28435
Z" /> 
</g>
<g >
</g>
<g style="fill:#000000; fill-opacity:1.0; 
stroke:#000000; stroke-width:0; stroke-opacity:1; 
stroke-linecap:round; stroke-linejoin:round;">
<path style="fill:#000000; fill-opacity:1.0; 
stroke:#000000; stroke-width:0; stroke-opacity:1; 
stroke-linecap:round; stroke-linejoin:round;fill-rule:evenodd;"
d="M 25485.6,42550.1
25504.7,42552.9
25523.5,42557.6
25541.6,42564.1
25559.1,42572.4
25575.7,42582.3
25591.2,42593.8
25605.5,42606.8
25618.5,42621.1
25630,42636.6
25639.9,42653.2
25648.2,42670.7
25654.7,42688.9
25659.4,42707.6
25662.2,42726.7
25663.2,42746
25663.2,43277.5
25662.2,43296.8
25659.4,43315.9
25654.7,43334.6
25648.2,43352.8
25639.9,43370.3
25630,43386.9
25618.5,43402.4
25605.5,43416.7
25591.2,43429.7
25575.7,43441.2
25559.1,43451.1
25541.6,43459.4
25523.5,43465.9
25504.7,43470.6
25485.6,43473.4
25466.3,43474.3
24718.3,43474.3
24699,43473.4
24679.9,43470.6
24661.1,43465.9
24642.9,43459.4
24625.5,43451.1
24608.9,43441.2
24593.4,43429.7
24579.1,43416.7
24566.1,43402.4
24554.6,43386.9
24544.7,43370.3
24536.4,43352.8
24529.9,43334.6
24525.2,43315.9
24522.4,43296.8
24521.4,43277.5
24521.4,42746
24522.4,42726.7
24525.2,42707.6
24529.9,42688.9
24536.4,42670.7
24544.7,42653.2
24554.6,42636.6
24566.1,42621.1
24579.1,42606.8
24593.4,42593.8
24608.9,42582.3
24625.5,42572.4
24642.9,42564.1
24661.1,42557.6
24679.9,42552.9
24699,42550.1
24718.3,42549.1
25466.3,42549.1
Z" /> 
<path style="fill:#000000; fill-opacity:1.0; 
stroke:#000000; stroke-width:0; stroke-opacity:1; 
stroke-linecap:round; stroke-linejoin:round;fill-rule:evenodd;"
d="M 25485.6,40916.2
25504.7,40919.1
25523.5,40923.8
25541.6,40930.3
25559.1,40938.5
25575.7,40948.5
25591.2,40960
25605.5,40972.9
25618.5,40987.3
25630,41002.8
25639.9,41019.3
25648.2,41036.8
25654.7,41055
25659.4,41073.7
25662.2,41092.8
25663.2,41112.1
25663.2,41643.6
25662.2,41662.9
25659.4,41682
25654.7,41700.8
25648.2,41719
25639.9,41736.4
25630,41753
25618.5,41768.5
25605.5,41782.8
25591.2,41795.8
25575.7,41807.3
25559.1,41817.2
25541.6,41825.5
25523.5,41832
25504.7,41836.7
25485.6,41839.5
25466.3,41840.5
24718.3,41840.5
24699,41839.5
24679.9,41836.7
24661.1,41832
24642.9,41825.5
24625.5,41817.2
24608.9,41807.3
24593.4,41795.8
24579.1,41782.8
24566.1,41768.5
24554.6,41753
24544.7,41736.4
24536.4,41719
24529.9,41700.8
24525.2,41682
24522.4,41662.9
24521.4,41643.6
24521.4,41112.1
24522.4,41092.8
24525.2,41073.7
24529.9,41055
24536.4,41036.8
24544.7,41019.3
24554.6,41002.8
24566.1,40987.3
24579.1,40972.9
24593.4,40960
24608.9,40948.5
24625.5,40938.5
24642.9,40930.3
24661.1,40923.8
24679.9,40919.1
24699,40916.2
24718.3,40915.3
25466.3,40915.3
Z" /> 
</g>
<g >
</g>
<g style="fill:#000000; fill-opacity:1.0; 
stroke:#000000; stroke-width:0; stroke-opacity:1; 
stroke-linecap:round; stroke-linejoin:round;">
<path style="fill:#000000; fill-opacity:1.0; 
stroke:#000000; stroke-width:0; stroke-opacity:1; 
stroke-linecap:round; stroke-linejoin:round;fill-rule:evenodd;"
d="M 19186.4,43731.2
19205.5,43734
19224.2,43738.7
19242.4,43745.2
19259.9,43753.5
19276.5,43763.4
19292,43774.9
19306.3,43787.9
19319.3,43802.2
19330.8,43817.7
19340.7,43834.3
19349,43851.8
19355.5,43870
19360.2,43888.7
19363,43907.8
19364,43927.1
19364,44458.6
19363,44477.9
19360.2,44497
19355.5,44515.7
19349,44533.9
19340.7,44551.4
19330.8,44568
19319.3,44583.5
19306.3,44597.8
19292,44610.8
19276.5,44622.3
19259.9,44632.2
19242.4,44640.5
19224.2,44647
19205.5,44651.7
19186.4,44654.5
19167.1,44655.4
18419.1,44655.4
18399.8,44654.5
18380.7,44651.7
18361.9,44647
18343.7,44640.5
18326.3,44632.2
18309.7,44622.3
18294.2,44610.8
18279.9,44597.8
18266.9,44583.5
18255.4,44568
18245.5,44551.4
18237.2,44533.9
18230.7,44515.7
18226,44497
18223.2,44477.9
18222.2,44458.6
18222.2,43927.1
18223.2,43907.8
18226,43888.7
18230.7,43870
18237.2,43851.8
18245.5,43834.3
18255.4,43817.7
18266.9,43802.2
18279.9,43787.9
18294.2,43774.9
18309.7,43763.4
18326.3,43753.5
18343.7,43745.2
18361.9,43738.7
18380.7,43734
18399.8,43731.2
18419.1,43730.3
19167.1,43730.3
Z" /> 
<path style="fill:#000000; fill-opacity:1.0; 
stroke:#000000; stroke-width:0; stroke-opacity:1; 
stroke-linecap:round; stroke-linejoin:round;fill-rule:evenodd;"
d="M 19186.4,42097.3
19205.5,42100.2
19224.2,42104.9
19242.4,42111.4
19259.9,42119.6
19276.5,42129.6
19292,42141.1
19306.3,42154
19319.3,42168.4
19330.8,42183.9
19340.7,42200.4
19349,42217.9
19355.5,42236.1
19360.2,42254.8
19363,42273.9
19364,42293.2
19364,42824.7
19363,42844
19360.2,42863.1
19355.5,42881.9
19349,42900.1
19340.7,42917.5
19330.8,42934.1
19319.3,42949.6
19306.3,42963.9
19292,42976.9
19276.5,42988.4
19259.9,42998.3
19242.4,43006.6
19224.2,43013.1
19205.5,43017.8
19186.4,43020.6
19167.1,43021.6
18419.1,43021.6
18399.8,43020.6
18380.7,43017.8
18361.9,43013.1
18343.7,43006.6
18326.3,42998.3
18309.7,42988.4
18294.2,42976.9
18279.9,42963.9
18266.9,42949.6
18255.4,42934.1
18245.5,42917.5
18237.2,42900.1
18230.7,42881.9
18226,42863.1
18223.2,42844
18222.2,42824.7
18222.2,42293.2
18223.2,42273.9
18226,42254.8
18230.7,42236.1
18237.2,42217.9
18245.5,42200.4
18255.4,42183.9
18266.9,42168.4
18279.9,42154
18294.2,42141.1
18309.7,42129.6
18326.3,42119.6
18343.7,42111.4
18361.9,42104.9
18380.7,42100.2
18399.8,42097.3
18419.1,42096.4
19167.1,42096.4
Z" /> 
</g>
<g >
</g>
<g style="fill:#000000; fill-opacity:1.0; 
stroke:#000000; stroke-width:0; stroke-opacity:1; 
stroke-linecap:round; stroke-linejoin:round;">
<path style="fill:#000000; fill-opacity:1.0; 
stroke:#000000; stroke-width:0; stroke-opacity:1; 
stroke-linecap:round; stroke-linejoin:round;fill-rule:evenodd;"
d="M 43950.2,40916.2
43969.3,40919.1
43988,40923.8
44006.2,40930.3
44023.7,40938.5
44040.2,40948.5
44055.8,40960
44070.1,40972.9
44083,40987.3
44094.6,41002.8
44104.5,41019.3
44112.7,41036.8
44119.3,41055
44123.9,41073.7
44126.8,41092.8
44127.7,41112.1
44127.7,41643.6
44126.8,41662.9
44123.9,41682
44119.3,41700.8
44112.7,41719
44104.5,41736.4
44094.6,41753
44083,41768.5
44070.1,41782.8
44055.8,41795.8
44040.2,41807.3
44023.7,41817.2
44006.2,41825.5
43988,41832
43969.3,41836.7
43950.2,41839.5
43930.9,41840.5
43182.8,41840.5
43163.6,41839.5
43144.4,41836.7
43125.7,41832
43107.5,41825.5
43090.1,41817.2
43073.5,41807.3
43058,41795.8
43043.7,41782.8
43030.7,41768.5
43019.2,41753
43009.2,41736.4
43001,41719
42994.5,41700.8
42989.8,41682
42986.9,41662.9
42986,41643.6
42986,41112.1
42986.9,41092.8
42989.8,41073.7
42994.5,41055
43001,41036.8
43009.2,41019.3
43019.2,41002.8
43030.7,40987.3
43043.7,40972.9
43058,40960
43073.5,40948.5
43090.1,40938.5
43107.5,40930.3
43125.7,40923.8
43144.4,40919.1
43163.6,40916.2
43182.8,40915.3
43930.9,40915.3
Z" /> 
<path style="fill:#000000; fill-opacity:1.0; 
stroke:#000000; stroke-width:0; stroke-opacity:1; 
stroke-linecap:round; stroke-linejoin:round;fill-rule:evenodd;"
d="M 43950.2,42550.1
43969.3,42552.9
43988,42557.6
44006.2,42564.1
44023.7,42572.4
44040.2,42582.3
44055.8,42593.8
44070.1,42606.8
44083,42621.1
44094.6,42636.6
44104.5,42653.2
44112.7,42670.7
44119.3,42688.9
44123.9,42707.6
44126.8,42726.7
44127.7,42746
44127.7,43277.5
44126.8,43296.8
44123.9,43315.9
44119.3,43334.6
44112.7,43352.8
44104.5,43370.3
44094.6,43386.9
44083,43402.4
44070.1,43416.7
44055.8,43429.7
44040.2,43441.2
44023.7,43451.1
44006.2,43459.4
43988,43465.9
43969.3,43470.6
43950.2,43473.4
43930.9,43474.3
43182.8,43474.3
43163.6,43473.4
43144.4,43470.6
43125.7,43465.9
43107.5,43459.4
43090.1,43451.1
43073.5,43441.2
43058,43429.7
43043.7,43416.7
43030.7,43402.4
43019.2,43386.9
43009.2,43370.3
43001,43352.8
42994.5,43334.6
42989.8,43315.9
42986.9,43296.8
42986,43277.5
42986,42746
42986.9,42726.7
42989.8,42707.6
42994.5,42688.9
43001,42670.7
43009.2,42653.2
43019.2,42636.6
43030.7,42621.1
43043.7,42606.8
43058,42593.8
43073.5,42582.3
43090.1,42572.4
43107.5,42564.1
43125.7,42557.6
43144.4,42552.9
43163.6,42550.1
43182.8,42549.1
43930.9,42549.1
Z" /> 
</g>
<g >
</g>
<g style="fill:#000000; fill-opacity:1.0; 
stroke:#000000; stroke-width:0; stroke-opacity:1; 
stroke-linecap:round; stroke-linejoin:round;">
<path style="fill:#000000; fill-opacity:1.0; 
stroke:#000000; stroke-width:0; stroke-opacity:1; 
stroke-linecap:round; stroke-linejoin:round;fill-rule:evenodd;"
d="M 37493.5,40916.2
37512.6,40919.1
37531.3,40923.8
37549.5,40930.3
37567,40938.5
37583.6,40948.5
37599.1,40960
37613.4,40972.9
37626.4,40987.3
37637.9,41002.8
37647.8,41019.3
37656.1,41036.8
37662.6,41055
37667.3,41073.7
37670.1,41092.8
37671,41112.1
37671,41643.6
37670.1,41662.9
37667.3,41682
37662.6,41700.8
37656.1,41719
37647.8,41736.4
37637.9,41753
37626.4,41768.5
37613.4,41782.8
37599.1,41795.8
37583.6,41807.3
37567,41817.2
37549.5,41825.5
37531.3,41832
37512.6,41836.7
37493.5,41839.5
37474.2,41840.5
36726.2,41840.5
36706.9,41839.5
36687.8,41836.7
36669,41832
36650.8,41825.5
36633.4,41817.2
36616.8,41807.3
36601.3,41795.8
36587,41782.8
36574,41768.5
36562.5,41753
36552.5,41736.4
36544.3,41719
36537.8,41700.8
36533.1,41682
36530.3,41662.9
36529.3,41643.6
36529.3,41112.1
36530.3,41092.8
36533.1,41073.7
36537.8,41055
36544.3,41036.8
36552.5,41019.3
36562.5,41002.8
36574,40987.3
36587,40972.9
36601.3,40960
36616.8,40948.5
36633.4,40938.5
36650.8,40930.3
36669,40923.8
36687.8,40919.1
36706.9,40916.2
36726.2,40915.3
37474.2,40915.3
Z" /> 
<path style="fill:#000000; fill-opacity:1.0; 
stroke:#000000; stroke-width:0; stroke-opacity:1; 
stroke-linecap:round; stroke-linejoin:round;fill-rule:evenodd;"
d="M 37493.5,42550.1
37512.6,42552.9
37531.3,42557.6
37549.5,42564.1
37567,42572.4
37583.6,42582.3
37599.1,42593.8
37613.4,42606.8
37626.4,42621.1
37637.9,42636.6
37647.8,42653.2
37656.1,42670.7
37662.6,42688.9
37667.3,42707.6
37670.1,42726.7
37671,42746
37671,43277.5
37670.1,43296.8
37667.3,43315.9
37662.6,43334.6
37656.1,43352.8
37647.8,43370.3
37637.9,43386.9
37626.4,43402.4
37613.4,43416.7
37599.1,43429.7
37583.6,43441.2
37567,43451.1
37549.5,43459.4
37531.3,43465.9
37512.6,43470.6
37493.5,43473.4
37474.2,43474.3
36726.2,43474.3
36706.9,43473.4
36687.8,43470.6
36669,43465.9
36650.8,43459.4
36633.4,43451.1
36616.8,43441.2
36601.3,43429.7
36587,43416.7
36574,43402.4
36562.5,43386.9
36552.5,43370.3
36544.3,43352.8
36537.8,43334.6
36533.1,43315.9
36530.3,43296.8
36529.3,43277.5
36529.3,42746
36530.3,42726.7
36533.1,42707.6
36537.8,42688.9
36544.3,42670.7
36552.5,42653.2
36562.5,42636.6
36574,42621.1
36587,42606.8
36601.3,42593.8
36616.8,42582.3
36633.4,42572.4
36650.8,42564.1
36669,42557.6
36687.8,42552.9
36706.9,42550.1
36726.2,42549.1
37474.2,42549.1
Z" /> 
</g>
<g >
</g>
<g style="fill:#000000; fill-opacity:1.0; 
stroke:#000000; stroke-width:0; stroke-opacity:1; 
stroke-linecap:round; stroke-linejoin:round;">
<path style="fill:#000000; fill-opacity:1.0; 
stroke:#000000; stroke-width:0; stroke-opacity:1; 
stroke-linecap:round; stroke-linejoin:round;fill-rule:evenodd;"
d="M 29757.3,46546.2
29776.4,46549
29795.1,46553.7
29813.3,46560.2
29830.8,46568.5
29847.3,46578.4
29862.8,46589.9
29877.2,46602.9
29890.1,46617.2
29901.6,46632.7
29911.6,46649.3
29919.8,46666.7
29926.3,46684.9
29931,46703.7
29933.9,46722.8
29934.8,46742.1
29934.8,47490.1
29933.9,47509.4
29931,47528.5
29926.3,47547.2
29919.8,47565.4
29911.6,47582.9
29901.6,47599.5
29890.1,47615
29877.2,47629.3
29862.8,47642.3
29847.3,47653.8
29830.8,47663.7
29813.3,47672
29795.1,47678.5
29776.4,47683.2
29757.3,47686
29738,47686.9
29206.5,47686.9
29187.2,47686
29168.1,47683.2
29149.3,47678.5
29131.1,47672
29113.7,47663.7
29097.1,47653.8
29081.6,47642.3
29067.3,47629.3
29054.3,47615
29042.8,47599.5
29032.9,47582.9
29024.6,47565.4
29018.1,47547.2
29013.4,47528.5
29010.6,47509.4
29009.6,47490.1
29009.6,46742.1
29010.6,46722.8
29013.4,46703.7
29018.1,46684.9
29024.6,46666.7
29032.9,46649.3
29042.8,46632.7
29054.3,46617.2
29067.3,46602.9
29081.6,46589.9
29097.1,46578.4
29113.7,46568.5
29131.1,46560.2
29149.3,46553.7
29168.1,46549
29187.2,46546.2
29206.5,46545.2
29738,46545.2
Z" /> 
<path style="fill:#000000; fill-opacity:1.0; 
stroke:#000000; stroke-width:0; stroke-opacity:1; 
stroke-linecap:round; stroke-linejoin:round;fill-rule:evenodd;"
d="M 31391.1,46546.2
31410.2,46549
31429,46553.7
31447.2,46560.2
31464.6,46568.5
31481.2,46578.4
31496.7,46589.9
31511,46602.9
31524,46617.2
31535.5,46632.7
31545.4,46649.3
31553.7,46666.7
31560.2,46684.9
31564.9,46703.7
31567.7,46722.8
31568.7,46742.1
31568.7,47490.1
31567.7,47509.4
31564.9,47528.5
31560.2,47547.2
31553.7,47565.4
31545.4,47582.9
31535.5,47599.5
31524,47615
31511,47629.3
31496.7,47642.3
31481.2,47653.8
31464.6,47663.7
31447.2,47672
31429,47678.5
31410.2,47683.2
31391.1,47686
31371.8,47686.9
30840.3,47686.9
30821,47686
30801.9,47683.2
30783.2,47678.5
30765,47672
30747.5,47663.7
30731,47653.8
30715.4,47642.3
30701.1,47629.3
30688.2,47615
30676.7,47599.5
30666.7,47582.9
30658.5,47565.4
30652,47547.2
30647.3,47528.5
30644.4,47509.4
30643.5,47490.1
30643.5,46742.1
30644.4,46722.8
30647.3,46703.7
30652,46684.9
30658.5,46666.7
30666.7,46649.3
30676.7,46632.7
30688.2,46617.2
30701.1,46602.9
30715.4,46589.9
30731,46578.4
30747.5,46568.5
30765,46560.2
30783.2,46553.7
30801.9,46549
30821,46546.2
30840.3,46545.2
31371.8,46545.2
Z" /> 
</g>
<g >
</g>
<g style="fill:#000000; fill-opacity:1.0; 
stroke:#000000; stroke-width:0; stroke-opacity:1; 
stroke-linecap:round; stroke-linejoin:round;">
<path style="fill:#000000; fill-opacity:1.0; 
stroke:#000000; stroke-width:0; stroke-opacity:1; 
stroke-linecap:round; stroke-linejoin:round;fill-rule:evenodd;"
d="M 56686.4,34262.7
56705.5,34265.5
56724.2,34270.2
56742.4,34276.7
56759.9,34285
56776.5,34294.9
56792,34306.4
56806.3,34319.4
56819.3,34333.7
56830.8,34349.2
56840.7,34365.8
56849,34383.3
56855.5,34401.5
56860.2,34420.2
56863,34439.3
56864,34458.6
56864,35206.6
56863,35225.9
56860.2,35245
56855.5,35263.8
56849,35282
56840.7,35299.4
56830.8,35316
56819.3,35331.5
56806.3,35345.8
56792,35358.8
56776.5,35370.3
56759.9,35380.2
56742.4,35388.5
56724.2,35395
56705.5,35399.7
56686.4,35402.5
56667.1,35403.5
56135.6,35403.5
56116.3,35402.5
56097.2,35399.7
56078.5,35395
56060.3,35388.5
56042.8,35380.2
56026.2,35370.3
56010.7,35358.8
55996.4,35345.8
55983.4,35331.5
55971.9,35316
55962,35299.4
55953.7,35282
55947.2,35263.8
55942.5,35245
55939.7,35225.9
55938.8,35206.6
55938.8,34458.6
55939.7,34439.3
55942.5,34420.2
55947.2,34401.5
55953.7,34383.3
55962,34365.8
55971.9,34349.2
55983.4,34333.7
55996.4,34319.4
56010.7,34306.4
56026.2,34294.9
56042.8,34285
56060.3,34276.7
56078.5,34270.2
56097.2,34265.5
56116.3,34262.7
56135.6,34261.7
56667.1,34261.7
Z" /> 
<path style="fill:#000000; fill-opacity:1.0; 
stroke:#000000; stroke-width:0; stroke-opacity:1; 
stroke-linecap:round; stroke-linejoin:round;fill-rule:evenodd;"
d="M 58320.3,34262.7
58339.4,34265.5
58358.1,34270.2
58376.3,34276.7
58393.8,34285
58410.3,34294.9
58425.8,34306.4
58440.2,34319.4
58453.1,34333.7
58464.6,34349.2
58474.6,34365.8
58482.8,34383.3
58489.3,34401.5
58494,34420.2
58496.9,34439.3
58497.8,34458.6
58497.8,35206.6
58496.9,35225.9
58494,35245
58489.3,35263.8
58482.8,35282
58474.6,35299.4
58464.6,35316
58453.1,35331.5
58440.2,35345.8
58425.8,35358.8
58410.3,35370.3
58393.8,35380.2
58376.3,35388.5
58358.1,35395
58339.4,35399.7
58320.3,35402.5
58301,35403.5
57769.5,35403.5
57750.2,35402.5
57731.1,35399.7
57712.3,35395
57694.1,35388.5
57676.7,35380.2
57660.1,35370.3
57644.6,35358.8
57630.3,35345.8
57617.3,35331.5
57605.8,35316
57595.9,35299.4
57587.6,35282
57581.1,35263.8
57576.4,35245
57573.6,35225.9
57572.6,35206.6
57572.6,34458.6
57573.6,34439.3
57576.4,34420.2
57581.1,34401.5
57587.6,34383.3
57595.9,34365.8
57605.8,34349.2
57617.3,34333.7
57630.3,34319.4
57644.6,34306.4
57660.1,34294.9
57676.7,34285
57694.1,34276.7
57712.3,34270.2
57731.1,34265.5
57750.2,34262.7
57769.5,34261.7
58301,34261.7
Z" /> 
</g>
<g >
</g>
<g >
</g>
<g >
</g>
<g >
</g>
<g >
</g>
</g> 
</svg>
