<?xml version="1.0" standalone="no"?>
 <!DOCTYPE svg PUBLIC "-//W3C//DTD SVG 1.1//EN" 
 "http://www.w3.org/Graphics/SVG/1.1/DTD/svg11.dtd"> 
<svg
  xmlns:svg="http://www.w3.org/2000/svg"
  xmlns="http://www.w3.org/2000/svg"
  xmlns:xlink="http://www.w3.org/1999/xlink"
  version="1.1"
  width="29.700220cm" height="21.000720cm" viewBox="0 0 116930 82680">
<title>SVG Picture created as board-B_Fab.svg date 2021/03/29 15:50:44 </title>
  <desc>Picture generated by PCBNEW </desc>
<g style="fill:#000000; fill-opacity:1;stroke:#000000; stroke-opacity:1;
stroke-linecap:round; stroke-linejoin:round;"
 transform="translate(0 0) scale(1 1)">
</g>
<g style="fill:#000000; fill-opacity:0.0; 
stroke:#000000; stroke-width:-0.000787402; stroke-opacity:1; 
stroke-linecap:round; stroke-linejoin:round;">
</g>
<g style="fill:#000000; fill-opacity:0.0; 
stroke:#000000; stroke-width:78.7402; stroke-opacity:1; 
stroke-linecap:round; stroke-linejoin:round;">
<path d="M11509.6 57352.3 A2362.2 2362.2 0.0 0 0 13871.8 59714.5" />
<path d="M13871.8 23100.3 A2362.2 2362.2 0.0 0 0 11509.6 25462.5" />
<path d="M68202.5 25462.5 A2362.2 2362.2 0.0 0 0 65840.3 23100.3" />
<path d="M65840.3 59714.5 A2362.21 2362.21 0.0 0 0 68202.5 57352.3" />
<path d="M13871 59714
L65840 59714
" />
<path d="M11509 25462
L11509 57352
" />
<path d="M65840 23100
L13871 23100
" />
<path d="M68202 57352
L68202 25462
" />
<path d="M32966 52923
L31391 52923
" />
<path d="M32966 53907
L32966 52923
" />
<path d="M31391 53907
L32966 53907
" />
<path d="M31391 52923
L31391 53907
" />
<path d="M35186 37612
L33686 37612
" />
<path d="M33686 37612
L33186 38112
" />
<path d="M33186 38112
L33186 41612
" />
<path d="M33186 41612
L35186 41612
" />
<path d="M35186 41612
L35186 37612
" />
<path d="M54186 37116
L54186 42391
" />
<path d="M57100 42391
L54186 42391
" />
<path d="M56273 37116
L54186 37116
" />
<path d="M57100 37942
L57100 42391
" />
<path d="M57100 37942
L56273 37116
" />
<path d="M54186 28454
L54186 33730
" />
<path d="M57100 33730
L54186 33730
" />
<path d="M56273 28454
L54186 28454
" />
<path d="M57100 29281
L57100 33730
" />
<path d="M57100 29281
L56273 28454
" />
<path d="M50426 37194
L50426 38769
" />
<path d="M51411 37194
L50426 37194
" />
<path d="M51411 38769
L51411 37194
" />
<path d="M50426 38769
L51411 38769
" />
<path d="M50623 28533
L50623 30108
" />
<path d="M51608 28533
L50623 28533
" />
<path d="M51608 30108
L51608 28533
" />
<path d="M50623 30108
L51608 30108
" />
<path d="M36608 35305
L36608 36879
" />
<path d="M37592 35305
L36608 35305
" />
<path d="M37592 36879
L37592 35305
" />
<path d="M36608 36879
L37592 36879
" />
<path d="M28832 34616
L27257 34616
" />
<path d="M28832 35600
L28832 34616
" />
<path d="M27257 35600
L28832 35600
" />
<path d="M27257 34616
L27257 35600
" />
<path d="M18300 46131
L18300 47706
" />
<path d="M19285 46131
L18300 46131
" />
<path d="M19285 47706
L19285 46131
" />
<path d="M18300 47706
L19285 47706
" />
<path d="M44088 49084
L44088 47509
" />
<path d="M43104 49084
L44088 49084
" />
<path d="M43104 47509
L43104 49084
" />
<path d="M44088 47509
L43104 47509
" />
<path d="M56598 43986
L58173 43986
" />
<path d="M56598 43001
L56598 43986
" />
<path d="M58173 43001
L56598 43001
" />
<path d="M58173 43986
L58173 43001
" />
<path d="M44088 39832
L44088 38257
" />
<path d="M43104 39832
L44088 39832
" />
<path d="M43104 38257
L43104 39832
" />
<path d="M44088 38257
L43104 38257
" />
<path d="M25485 29497
L27060 29497
" />
<path d="M25485 28513
L25485 29497
" />
<path d="M27060 28513
L25485 28513
" />
<path d="M27060 29497
L27060 28513
" />
<path d="M25584 42982
L25584 41407
" />
<path d="M24600 42982
L25584 42982
" />
<path d="M24600 41407
L24600 42982
" />
<path d="M25584 41407
L24600 41407
" />
<path d="M19285 44163
L19285 42588
" />
<path d="M18300 44163
L19285 44163
" />
<path d="M18300 42588
L18300 44163
" />
<path d="M19285 42588
L18300 42588
" />
<path d="M43064 41407
L43064 42982
" />
<path d="M44048 41407
L43064 41407
" />
<path d="M44048 42982
L44048 41407
" />
<path d="M43064 42982
L44048 42982
" />
<path d="M36608 41407
L36608 42982
" />
<path d="M37592 41407
L36608 41407
" />
<path d="M37592 42982
L37592 41407
" />
<path d="M36608 42982
L37592 42982
" />
<path d="M29501 47608
L31076 47608
" />
<path d="M29501 46623
L29501 47608
" />
<path d="M31076 46623
L29501 46623
" />
<path d="M31076 47608
L31076 46623
" />
<path d="M56430 35324
L58005 35324
" />
<path d="M56430 34340
L56430 35324
" />
<path d="M58005 34340
L56430 34340
" />
<path d="M58005 35324
L58005 34340
" />
<g >
</g>
<g >
</g>
<g >
</g>
<g >
</g>
<g >
</g>
<g >
</g>
<g >
</g>
<g >
</g>
<g >
</g>
<g >
</g>
<g >
</g>
<g >
</g>
<g >
</g>
<g >
</g>
<g >
</g>
<g >
</g>
<g >
</g>
<g >
</g>
<g >
</g>
<g >
</g>
<g >
</g>
<g >
</g>
<g >
</g>
<g >
</g>
<g >
</g>
<g >
</g>
<g >
</g>
<g >
</g>
<g >
</g>
<g >
</g>
<g >
</g>
<g >
</g>
<g >
</g>
<g >
</g>
<g >
</g>
<g >
</g>
<g >
</g>
<g >
</g>
<g >
</g>
<g >
</g>
<g >
</g>
<g >
</g>
<g >
</g>
<g >
</g>
<g >
</g>
<g >
</g>
<g >
</g>
<g >
</g>
<g >
</g>
</g>
<g style="fill:#000000; fill-opacity:0.0; 
stroke:#000000; stroke-width:78.7402; stroke-opacity:1; 
stroke-linecap:round; stroke-linejoin:round;">
</g>
<g style="fill:#000000; fill-opacity:0.0; 
stroke:#000000; stroke-width:118.11; stroke-opacity:1; 
stroke-linecap:round; stroke-linejoin:round;">
<text x="32178.9" y="52486.2"
transform="scale(-1 1) translate(-64357.822047 0)"
textLength="2839.3" font-size="1049.87" lengthAdjust="spacingAndGlyphs"
text-anchor="middle" opacity="0">100n</text>
<path d="M33060 52448
L33509 52448
" />
<path d="M33285 52448
L33285 51661
L33360 51773
L33435 51848
L33509 51886
" />
<path d="M32572 51661
L32497 51661
L32422 51698
L32385 51736
L32347 51811
L32310 51961
L32310 52148
L32347 52298
L32385 52373
L32422 52411
L32497 52448
L32572 52448
L32647 52411
L32685 52373
L32722 52298
L32760 52148
L32760 51961
L32722 51811
L32685 51736
L32647 51698
L32572 51661
" />
<path d="M31822 51661
L31747 51661
L31672 51698
L31635 51736
L31597 51811
L31560 51961
L31560 52148
L31597 52298
L31635 52373
L31672 52411
L31747 52448
L31822 52448
L31897 52411
L31935 52373
L31972 52298
L32010 52148
L32010 51961
L31972 51811
L31935 51736
L31897 51698
L31822 51661
" />
<path d="M31222 51923
L31222 52448
" />
<path d="M31222 51998
L31185 51961
L31110 51923
L30997 51923
L30922 51961
L30885 52036
L30885 52448
" />
</g>
<g style="fill:#000000; fill-opacity:0.0; 
stroke:#000000; stroke-width:62.9921; stroke-opacity:1; 
stroke-linecap:round; stroke-linejoin:round;">
<text x="32178.9" y="53809"
transform="scale(-1 1) translate(-64357.822047 0)"
textLength="1383.76" font-size="1049.87" lengthAdjust="spacingAndGlyphs"
text-anchor="middle" opacity="0">C8</text>
<path d="M32310 53696
L32347 53733
L32460 53771
L32535 53771
L32647 53733
L32722 53659
L32760 53584
L32797 53434
L32797 53321
L32760 53171
L32722 53096
L32647 53021
L32535 52984
L32460 52984
L32347 53021
L32310 53059
" />
<path d="M31860 53321
L31935 53284
L31972 53246
L32010 53171
L32010 53134
L31972 53059
L31935 53021
L31860 52984
L31710 52984
L31635 53021
L31597 53059
L31560 53134
L31560 53171
L31597 53246
L31635 53284
L31710 53321
L31860 53321
L31935 53359
L31972 53396
L32010 53471
L32010 53621
L31972 53696
L31935 53733
L31860 53771
L31710 53771
L31635 53733
L31597 53696
L31560 53621
L31560 53471
L31597 53396
L31635 53359
L31710 53321
" />
</g>
<g style="fill:#000000; fill-opacity:0.0; 
stroke:#000000; stroke-width:118.11; stroke-opacity:1; 
stroke-linecap:round; stroke-linejoin:round;">
<g transform="rotate(-90 34186.8 39612.1)">
<text x="34186.8" y="40005.8"
transform="scale(-1 1) translate(-68373.570079 0)"
textLength="1267.94" font-size="1049.87" lengthAdjust="spacingAndGlyphs"
text-anchor="middle" opacity="0">J6</text>
</g>
<path d="M33755 39349
L34318 39349
L34430 39312
L34505 39237
L34542 39124
L34542 39049
" />
<path d="M33755 40062
L33755 39912
L33793 39837
L33830 39799
L33943 39724
L34093 39687
L34393 39687
L34467 39724
L34505 39762
L34542 39837
L34542 39987
L34505 40062
L34467 40099
L34393 40137
L34205 40137
L34130 40099
L34093 40062
L34055 39987
L34055 39837
L34093 39762
L34130 39724
L34205 39687
" />
<text x="33556.9" y="37391.7"
transform="scale(-1 1) translate(-67113.727559 0)"
textLength="14244.7" font-size="1049.87" lengthAdjust="spacingAndGlyphs"
text-anchor="middle" opacity="0">SolderJumper_2_Bridged</text>
<path d="M40605 37316
L40493 37354
L40306 37354
L40231 37316
L40193 37279
L40156 37204
L40156 37129
L40193 37054
L40231 37016
L40306 36979
L40456 36941
L40530 36904
L40568 36866
L40605 36791
L40605 36716
L40568 36641
L40530 36604
L40456 36566
L40268 36566
L40156 36604
" />
<path d="M39706 37354
L39781 37316
L39818 37279
L39856 37204
L39856 36979
L39818 36904
L39781 36866
L39706 36829
L39593 36829
L39518 36866
L39481 36904
L39443 36979
L39443 37204
L39481 37279
L39518 37316
L39593 37354
L39706 37354
" />
<path d="M38993 37354
L39068 37316
L39106 37241
L39106 36566
" />
<path d="M38356 37354
L38356 36566
" />
<path d="M38356 37316
L38431 37354
L38581 37354
L38656 37316
L38693 37279
L38731 37204
L38731 36979
L38693 36904
L38656 36866
L38581 36829
L38431 36829
L38356 36866
" />
<path d="M37681 37316
L37756 37354
L37906 37354
L37981 37316
L38018 37241
L38018 36941
L37981 36866
L37906 36829
L37756 36829
L37681 36866
L37643 36941
L37643 37016
L38018 37091
" />
<path d="M37306 37354
L37306 36829
" />
<path d="M37306 36979
L37268 36904
L37231 36866
L37156 36829
L37081 36829
" />
<path d="M36593 36566
L36593 37129
L36631 37241
L36706 37316
L36818 37354
L36893 37354
" />
<path d="M35881 36829
L35881 37354
" />
<path d="M36219 36829
L36219 37241
L36181 37316
L36106 37354
L35994 37354
L35919 37316
L35881 37279
" />
<path d="M35506 37354
L35506 36829
" />
<path d="M35506 36904
L35469 36866
L35394 36829
L35281 36829
L35206 36866
L35169 36941
L35169 37354
" />
<path d="M35169 36941
L35131 36866
L35056 36829
L34944 36829
L34869 36866
L34831 36941
L34831 37354
" />
<path d="M34456 36829
L34456 37616
" />
<path d="M34456 36866
L34381 36829
L34231 36829
L34156 36866
L34119 36904
L34081 36979
L34081 37204
L34119 37279
L34156 37316
L34231 37354
L34381 37354
L34456 37316
" />
<path d="M33444 37316
L33519 37354
L33669 37354
L33744 37316
L33781 37241
L33781 36941
L33744 36866
L33669 36829
L33519 36829
L33444 36866
L33406 36941
L33406 37016
L33781 37091
" />
<path d="M33069 37354
L33069 36829
" />
<path d="M33069 36979
L33031 36904
L32994 36866
L32919 36829
L32844 36829
" />
<path d="M32769 37429
L32169 37429
" />
<path d="M32019 36641
L31982 36604
L31907 36566
L31719 36566
L31644 36604
L31607 36641
L31569 36716
L31569 36791
L31607 36904
L32057 37354
L31569 37354
" />
<path d="M31419 37429
L30819 37429
" />
<path d="M30369 36941
L30257 36979
L30219 37016
L30182 37091
L30182 37204
L30219 37279
L30257 37316
L30332 37354
L30632 37354
L30632 36566
L30369 36566
L30294 36604
L30257 36641
L30219 36716
L30219 36791
L30257 36866
L30294 36904
L30369 36941
L30632 36941
" />
<path d="M29844 37354
L29844 36829
" />
<path d="M29844 36979
L29807 36904
L29769 36866
L29694 36829
L29619 36829
" />
<path d="M29357 37354
L29357 36829
" />
<path d="M29357 36566
L29394 36604
L29357 36641
L29319 36604
L29357 36566
L29357 36641
" />
<path d="M28644 37354
L28644 36566
" />
<path d="M28644 37316
L28719 37354
L28869 37354
L28944 37316
L28982 37279
L29019 37204
L29019 36979
L28982 36904
L28944 36866
L28869 36829
L28719 36829
L28644 36866
" />
<path d="M27932 36829
L27932 37466
L27970 37541
L28007 37579
L28082 37616
L28195 37616
L28270 37579
" />
<path d="M27932 37316
L28007 37354
L28157 37354
L28232 37316
L28270 37279
L28307 37204
L28307 36979
L28270 36904
L28232 36866
L28157 36829
L28007 36829
L27932 36866
" />
<path d="M27257 37316
L27332 37354
L27482 37354
L27557 37316
L27595 37241
L27595 36941
L27557 36866
L27482 36829
L27332 36829
L27257 36866
L27220 36941
L27220 37016
L27595 37091
" />
<path d="M26545 37354
L26545 36566
" />
<path d="M26545 37316
L26620 37354
L26770 37354
L26845 37316
L26882 37279
L26920 37204
L26920 36979
L26882 36904
L26845 36866
L26770 36829
L26620 36829
L26545 36866
" />
<text x="55643.5" y="43690.9"
transform="scale(-1 1) translate(-111286.955906 0)"
textLength="7233.03" font-size="1049.87" lengthAdjust="spacingAndGlyphs"
text-anchor="middle" opacity="0">LM1117-3.3</text>
<path d="M58774 43653
L59149 43653
L59149 42865
" />
<path d="M58511 43653
L58511 42865
L58249 43428
L57986 42865
L57986 43653
" />
<path d="M57199 43653
L57649 43653
" />
<path d="M57424 43653
L57424 42865
L57499 42978
L57574 43053
L57649 43090
" />
<path d="M56449 43653
L56899 43653
" />
<path d="M56674 43653
L56674 42865
L56749 42978
L56824 43053
L56899 43090
" />
<path d="M55699 43653
L56149 43653
" />
<path d="M55924 43653
L55924 42865
L55999 42978
L56074 43053
L56149 43090
" />
<path d="M55437 42865
L54912 42865
L55249 43653
" />
<path d="M54612 43353
L54012 43353
" />
<path d="M53712 42865
L53225 42865
L53487 43165
L53375 43165
L53300 43203
L53262 43240
L53225 43315
L53225 43503
L53262 43578
L53300 43615
L53375 43653
L53599 43653
L53674 43615
L53712 43578
" />
<path d="M52887 43578
L52850 43615
L52887 43653
L52925 43615
L52887 43578
L52887 43653
" />
<path d="M52587 42865
L52100 42865
L52362 43165
L52250 43165
L52175 43203
L52137 43240
L52100 43315
L52100 43503
L52137 43578
L52175 43615
L52250 43653
L52475 43653
L52550 43615
L52587 43578
" />
</g>
<g style="fill:#000000; fill-opacity:0.0; 
stroke:#000000; stroke-width:94.4882; stroke-opacity:1; 
stroke-linecap:round; stroke-linejoin:round;">
<g transform="rotate(-90 55643.5 39753.9)">
<text x="55643.5" y="40147.6"
transform="scale(-1 1) translate(-111286.955906 0)"
textLength="1421.26" font-size="1049.87" lengthAdjust="spacingAndGlyphs"
text-anchor="middle" opacity="0">U2</text>
</g>
<path d="M55212 39153
L55849 39153
L55924 39191
L55962 39228
L55999 39303
L55999 39453
L55962 39528
L55924 39566
L55849 39603
L55212 39603
" />
<path d="M55287 39941
L55249 39978
L55212 40053
L55212 40241
L55249 40316
L55287 40353
L55362 40391
L55437 40391
L55549 40353
L55999 39903
L55999 40391
" />
</g>
<g style="fill:#000000; fill-opacity:0.0; 
stroke:#000000; stroke-width:118.11; stroke-opacity:1; 
stroke-linecap:round; stroke-linejoin:round;">
<text x="55643.5" y="35029.5"
transform="scale(-1 1) translate(-111286.955906 0)"
textLength="7263.74" font-size="1049.87" lengthAdjust="spacingAndGlyphs"
text-anchor="middle" opacity="0">LM1117-3.3</text>
<path d="M58774 34991
L59149 34991
L59149 34204
" />
<path d="M58511 34991
L58511 34204
L58249 34766
L57986 34204
L57986 34991
" />
<path d="M57199 34991
L57649 34991
" />
<path d="M57424 34991
L57424 34204
L57499 34317
L57574 34392
L57649 34429
" />
<path d="M56449 34991
L56899 34991
" />
<path d="M56674 34991
L56674 34204
L56749 34317
L56824 34392
L56899 34429
" />
<path d="M55699 34991
L56149 34991
" />
<path d="M55924 34991
L55924 34204
L55999 34317
L56074 34392
L56149 34429
" />
<path d="M55437 34204
L54912 34204
L55249 34991
" />
<path d="M54612 34692
L54012 34692
" />
<path d="M53712 34204
L53225 34204
L53487 34504
L53375 34504
L53300 34542
L53262 34579
L53225 34654
L53225 34841
L53262 34916
L53300 34954
L53375 34991
L53599 34991
L53674 34954
L53712 34916
" />
<path d="M52887 34916
L52850 34954
L52887 34991
L52925 34954
L52887 34916
L52887 34991
" />
<path d="M52587 34204
L52100 34204
L52362 34504
L52250 34504
L52175 34542
L52137 34579
L52100 34654
L52100 34841
L52137 34916
L52175 34954
L52250 34991
L52475 34991
L52550 34954
L52587 34916
" />
</g>
<g style="fill:#000000; fill-opacity:0.0; 
stroke:#000000; stroke-width:94.4882; stroke-opacity:1; 
stroke-linecap:round; stroke-linejoin:round;">
<g transform="rotate(-90 55643.5 31092.5)">
<text x="55643.5" y="31486.2"
transform="scale(-1 1) translate(-111286.955906 0)"
textLength="1421.26" font-size="1049.87" lengthAdjust="spacingAndGlyphs"
text-anchor="middle" opacity="0">U3</text>
</g>
<path d="M55212 30492
L55849 30492
L55924 30530
L55962 30567
L55999 30642
L55999 30792
L55962 30867
L55924 30904
L55849 30942
L55212 30942
" />
<path d="M55212 31242
L55212 31729
L55512 31467
L55512 31579
L55549 31654
L55587 31692
L55662 31729
L55849 31729
L55924 31692
L55962 31654
L55999 31579
L55999 31354
L55962 31279
L55924 31242
" />
</g>
<g style="fill:#000000; fill-opacity:0.0; 
stroke:#000000; stroke-width:118.11; stroke-opacity:1; 
stroke-linecap:round; stroke-linejoin:round;">
<g transform="rotate(-90 49596.2 37982.2)">
<text x="49596.2" y="38375.9"
transform="scale(-1 1) translate(-99192.467717 0)"
textLength="2089.39" font-size="1049.87" lengthAdjust="spacingAndGlyphs"
text-anchor="middle" opacity="0">10u</text>
</g>
<path d="M49952 37476
L49952 37026
" />
<path d="M49952 37251
L49165 37251
L49277 37176
L49352 37101
L49390 37026
" />
<path d="M49165 37963
L49165 38038
L49202 38113
L49240 38150
L49315 38188
L49465 38225
L49652 38225
L49802 38188
L49877 38150
L49914 38113
L49952 38038
L49952 37963
L49914 37888
L49877 37850
L49802 37813
L49652 37775
L49465 37775
L49315 37813
L49240 37850
L49202 37888
L49165 37963
" />
<path d="M49427 38900
L49952 38900
" />
<path d="M49427 38563
L49839 38563
L49914 38600
L49952 38675
L49952 38788
L49914 38863
L49877 38900
" />
</g>
<g style="fill:#000000; fill-opacity:0.0; 
stroke:#000000; stroke-width:62.9921; stroke-opacity:1; 
stroke-linecap:round; stroke-linejoin:round;">
<g transform="rotate(-90 50919.1 37982.2)">
<text x="50919.1" y="38375.9"
transform="scale(-1 1) translate(-101838.137008 0)"
textLength="2133.67" font-size="1049.87" lengthAdjust="spacingAndGlyphs"
text-anchor="middle" opacity="0">C14</text>
</g>
<path d="M51200 37476
L51237 37438
L51275 37326
L51275 37251
L51237 37138
L51162 37063
L51087 37026
L50937 36988
L50825 36988
L50675 37026
L50600 37063
L50525 37138
L50487 37251
L50487 37326
L50525 37438
L50562 37476
" />
<path d="M51275 38225
L51275 37775
" />
<path d="M51275 38000
L50487 38000
L50600 37925
L50675 37850
L50712 37775
" />
<path d="M50750 38900
L51275 38900
" />
<path d="M50450 38713
L51012 38525
L51012 39013
" />
</g>
<g style="fill:#000000; fill-opacity:0.0; 
stroke:#000000; stroke-width:118.11; stroke-opacity:1; 
stroke-linecap:round; stroke-linejoin:round;">
<g transform="rotate(-90 49793.1 29320.8)">
<text x="49793.1" y="29714.5"
transform="scale(-1 1) translate(-99586.168504 0)"
textLength="2130.33" font-size="1049.87" lengthAdjust="spacingAndGlyphs"
text-anchor="middle" opacity="0">10u</text>
</g>
<path d="M50149 28814
L50149 28364
" />
<path d="M50149 28589
L49361 28589
L49474 28514
L49549 28439
L49586 28364
" />
<path d="M49361 29302
L49361 29377
L49399 29452
L49436 29489
L49511 29527
L49661 29564
L49849 29564
L49999 29527
L50074 29489
L50111 29452
L50149 29377
L50149 29302
L50111 29227
L50074 29189
L49999 29152
L49849 29114
L49661 29114
L49511 29152
L49436 29189
L49399 29227
L49361 29302
" />
<path d="M49624 30239
L50149 30239
" />
<path d="M49624 29901
L50036 29901
L50111 29939
L50149 30014
L50149 30126
L50111 30201
L50074 30239
" />
</g>
<g style="fill:#000000; fill-opacity:0.0; 
stroke:#000000; stroke-width:62.9921; stroke-opacity:1; 
stroke-linecap:round; stroke-linejoin:round;">
<g transform="rotate(-90 51115.9 29320.8)">
<text x="51115.9" y="29714.5"
transform="scale(-1 1) translate(-102231.837795 0)"
textLength="2133.67" font-size="1049.87" lengthAdjust="spacingAndGlyphs"
text-anchor="middle" opacity="0">C16</text>
</g>
<path d="M51397 28814
L51434 28777
L51472 28664
L51472 28589
L51434 28477
L51359 28402
L51284 28364
L51134 28327
L51022 28327
L50872 28364
L50797 28402
L50722 28477
L50684 28589
L50684 28664
L50722 28777
L50759 28814
" />
<path d="M51472 29564
L51472 29114
" />
<path d="M51472 29339
L50684 29339
L50797 29264
L50872 29189
L50909 29114
" />
<path d="M50684 30239
L50684 30089
L50722 30014
L50759 29976
L50872 29901
L51022 29864
L51322 29864
L51397 29901
L51434 29939
L51472 30014
L51472 30164
L51434 30239
L51397 30276
L51322 30314
L51134 30314
L51059 30276
L51022 30239
L50984 30164
L50984 30014
L51022 29939
L51059 29901
L51134 29864
" />
</g>
<g style="fill:#000000; fill-opacity:0.0; 
stroke:#000000; stroke-width:118.11; stroke-opacity:1; 
stroke-linecap:round; stroke-linejoin:round;">
<g transform="rotate(-90 35777.3 36092.5)">
<text x="35777.3" y="36486.2"
transform="scale(-1 1) translate(-71554.672441 0)"
textLength="2880.24" font-size="1049.87" lengthAdjust="spacingAndGlyphs"
text-anchor="middle" opacity="0">100n</text>
</g>
<path d="M36133 35211
L36133 34761
" />
<path d="M36133 34986
L35346 34986
L35458 34911
L35533 34836
L35571 34761
" />
<path d="M35346 35698
L35346 35773
L35383 35848
L35421 35886
L35496 35923
L35646 35961
L35833 35961
L35983 35923
L36058 35886
L36096 35848
L36133 35773
L36133 35698
L36096 35623
L36058 35586
L35983 35548
L35833 35511
L35646 35511
L35496 35548
L35421 35586
L35383 35623
L35346 35698
" />
<path d="M35346 36448
L35346 36523
L35383 36598
L35421 36636
L35496 36673
L35646 36711
L35833 36711
L35983 36673
L36058 36636
L36096 36598
L36133 36523
L36133 36448
L36096 36373
L36058 36336
L35983 36298
L35833 36261
L35646 36261
L35496 36298
L35421 36336
L35383 36373
L35346 36448
" />
<path d="M35608 37048
L36133 37048
" />
<path d="M35683 37048
L35646 37086
L35608 37161
L35608 37273
L35646 37348
L35721 37386
L36133 37386
" />
</g>
<g style="fill:#000000; fill-opacity:0.0; 
stroke:#000000; stroke-width:62.9921; stroke-opacity:1; 
stroke-linecap:round; stroke-linejoin:round;">
<g transform="rotate(-90 37100.2 36092.5)">
<text x="37100.2" y="36486.2"
transform="scale(-1 1) translate(-74200.341732 0)"
textLength="2133.67" font-size="1049.87" lengthAdjust="spacingAndGlyphs"
text-anchor="middle" opacity="0">C12</text>
</g>
<path d="M37381 35586
L37418 35548
L37456 35436
L37456 35361
L37418 35248
L37343 35173
L37268 35136
L37118 35098
L37006 35098
L36856 35136
L36781 35173
L36706 35248
L36668 35361
L36668 35436
L36706 35548
L36743 35586
" />
<path d="M37456 36336
L37456 35886
" />
<path d="M37456 36111
L36668 36111
L36781 36036
L36856 35961
L36893 35886
" />
<path d="M36743 36636
L36706 36673
L36668 36748
L36668 36936
L36706 37011
L36743 37048
L36818 37086
L36893 37086
L37006 37048
L37456 36598
L37456 37086
" />
</g>
<g style="fill:#000000; fill-opacity:0.0; 
stroke:#000000; stroke-width:118.11; stroke-opacity:1; 
stroke-linecap:round; stroke-linejoin:round;">
<text x="28045.1" y="34179.1"
transform="scale(-1 1) translate(-56090.105512 0)"
textLength="2880.24" font-size="1049.87" lengthAdjust="spacingAndGlyphs"
text-anchor="middle" opacity="0">100n</text>
<path d="M28926 34141
L29376 34141
" />
<path d="M29151 34141
L29151 33354
L29226 33466
L29301 33541
L29376 33579
" />
<path d="M28438 33354
L28363 33354
L28288 33391
L28251 33429
L28213 33504
L28176 33654
L28176 33841
L28213 33991
L28251 34066
L28288 34104
L28363 34141
L28438 34141
L28513 34104
L28551 34066
L28588 33991
L28626 33841
L28626 33654
L28588 33504
L28551 33429
L28513 33391
L28438 33354
" />
<path d="M27688 33354
L27613 33354
L27538 33391
L27501 33429
L27463 33504
L27426 33654
L27426 33841
L27463 33991
L27501 34066
L27538 34104
L27613 34141
L27688 34141
L27763 34104
L27801 34066
L27838 33991
L27876 33841
L27876 33654
L27838 33504
L27801 33429
L27763 33391
L27688 33354
" />
<path d="M27088 33616
L27088 34141
" />
<path d="M27088 33691
L27051 33654
L26976 33616
L26863 33616
L26788 33654
L26751 33729
L26751 34141
" />
</g>
<g style="fill:#000000; fill-opacity:0.0; 
stroke:#000000; stroke-width:62.9921; stroke-opacity:1; 
stroke-linecap:round; stroke-linejoin:round;">
<text x="28045.1" y="35501.9"
transform="scale(-1 1) translate(-56090.105512 0)"
textLength="2133.67" font-size="1049.87" lengthAdjust="spacingAndGlyphs"
text-anchor="middle" opacity="0">C11</text>
<path d="M28551 35389
L28588 35426
L28701 35464
L28776 35464
L28888 35426
L28963 35351
L29001 35276
L29038 35126
L29038 35014
L29001 34864
L28963 34789
L28888 34714
L28776 34677
L28701 34677
L28588 34714
L28551 34751
" />
<path d="M27801 35464
L28251 35464
" />
<path d="M28026 35464
L28026 34677
L28101 34789
L28176 34864
L28251 34901
" />
<path d="M27051 35464
L27501 35464
" />
<path d="M27276 35464
L27276 34677
L27351 34789
L27426 34864
L27501 34901
" />
</g>
<g style="fill:#000000; fill-opacity:0.0; 
stroke:#000000; stroke-width:118.11; stroke-opacity:1; 
stroke-linecap:round; stroke-linejoin:round;">
<g transform="rotate(-90 17470.2 46919.2)">
<text x="17470.2" y="47312.9"
transform="scale(-1 1) translate(-34940.499213 0)"
textLength="2880.24" font-size="1049.87" lengthAdjust="spacingAndGlyphs"
text-anchor="middle" opacity="0">100n</text>
</g>
<path d="M17826 46038
L17826 45588
" />
<path d="M17826 45813
L17039 45813
L17151 45738
L17226 45663
L17264 45588
" />
<path d="M17039 46525
L17039 46600
L17076 46675
L17114 46713
L17189 46750
L17339 46787
L17526 46787
L17676 46750
L17751 46713
L17788 46675
L17826 46600
L17826 46525
L17788 46450
L17751 46413
L17676 46375
L17526 46338
L17339 46338
L17189 46375
L17114 46413
L17076 46450
L17039 46525
" />
<path d="M17039 47275
L17039 47350
L17076 47425
L17114 47462
L17189 47500
L17339 47537
L17526 47537
L17676 47500
L17751 47462
L17788 47425
L17826 47350
L17826 47275
L17788 47200
L17751 47162
L17676 47125
L17526 47087
L17339 47087
L17189 47125
L17114 47162
L17076 47200
L17039 47275
" />
<path d="M17301 47875
L17826 47875
" />
<path d="M17376 47875
L17339 47912
L17301 47987
L17301 48100
L17339 48175
L17414 48212
L17826 48212
" />
</g>
<g style="fill:#000000; fill-opacity:0.0; 
stroke:#000000; stroke-width:62.9921; stroke-opacity:1; 
stroke-linecap:round; stroke-linejoin:round;">
<g transform="rotate(-90 18793.1 46919.2)">
<text x="18793.1" y="47312.9"
transform="scale(-1 1) translate(-37586.168504 0)"
textLength="2133.67" font-size="1049.87" lengthAdjust="spacingAndGlyphs"
text-anchor="middle" opacity="0">C10</text>
</g>
<path d="M19074 46413
L19111 46375
L19149 46263
L19149 46188
L19111 46075
L19036 46000
L18961 45963
L18811 45925
L18699 45925
L18549 45963
L18474 46000
L18399 46075
L18361 46188
L18361 46263
L18399 46375
L18436 46413
" />
<path d="M19149 47162
L19149 46713
" />
<path d="M19149 46937
L18361 46937
L18474 46862
L18549 46787
L18586 46713
" />
<path d="M18361 47650
L18361 47725
L18399 47800
L18436 47837
L18511 47875
L18661 47912
L18849 47912
L18999 47875
L19074 47837
L19111 47800
L19149 47725
L19149 47650
L19111 47575
L19074 47537
L18999 47500
L18849 47462
L18661 47462
L18511 47500
L18436 47537
L18399 47575
L18361 47650
" />
</g>
<g style="fill:#000000; fill-opacity:0.0; 
stroke:#000000; stroke-width:118.11; stroke-opacity:1; 
stroke-linecap:round; stroke-linejoin:round;">
<g transform="rotate(-90 44919.1 48297.2)">
<text x="44919.1" y="48690.9"
transform="scale(-1 1) translate(-89838.137008 0)"
textLength="2880.24" font-size="1049.87" lengthAdjust="spacingAndGlyphs"
text-anchor="middle" opacity="0">100n</text>
</g>
<path d="M45275 47416
L45275 46966
" />
<path d="M45275 47191
L44487 47191
L44600 47116
L44675 47041
L44712 46966
" />
<path d="M44487 47903
L44487 47978
L44525 48053
L44562 48090
L44637 48128
L44787 48165
L44975 48165
L45125 48128
L45200 48090
L45237 48053
L45275 47978
L45275 47903
L45237 47828
L45200 47790
L45125 47753
L44975 47716
L44787 47716
L44637 47753
L44562 47790
L44525 47828
L44487 47903
" />
<path d="M44487 48653
L44487 48728
L44525 48803
L44562 48840
L44637 48878
L44787 48915
L44975 48915
L45125 48878
L45200 48840
L45237 48803
L45275 48728
L45275 48653
L45237 48578
L45200 48540
L45125 48503
L44975 48465
L44787 48465
L44637 48503
L44562 48540
L44525 48578
L44487 48653
" />
<path d="M44750 49253
L45275 49253
" />
<path d="M44825 49253
L44787 49290
L44750 49365
L44750 49478
L44787 49553
L44862 49590
L45275 49590
" />
</g>
<g style="fill:#000000; fill-opacity:0.0; 
stroke:#000000; stroke-width:62.9921; stroke-opacity:1; 
stroke-linecap:round; stroke-linejoin:round;">
<g transform="rotate(-90 43596.2 48297.2)">
<text x="43596.2" y="48690.9"
transform="scale(-1 1) translate(-87192.467717 0)"
textLength="1383.76" font-size="1049.87" lengthAdjust="spacingAndGlyphs"
text-anchor="middle" opacity="0">C9</text>
</g>
<path d="M43877 48165
L43914 48128
L43952 48015
L43952 47940
L43914 47828
L43839 47753
L43764 47716
L43614 47678
L43502 47678
L43352 47716
L43277 47753
L43202 47828
L43165 47940
L43165 48015
L43202 48128
L43240 48165
" />
<path d="M43952 48540
L43952 48690
L43914 48765
L43877 48803
L43764 48878
L43614 48915
L43315 48915
L43240 48878
L43202 48840
L43165 48765
L43165 48615
L43202 48540
L43240 48503
L43315 48465
L43502 48465
L43577 48503
L43614 48540
L43652 48615
L43652 48765
L43614 48840
L43577 48878
L43502 48915
" />
</g>
<g style="fill:#000000; fill-opacity:0.0; 
stroke:#000000; stroke-width:118.11; stroke-opacity:1; 
stroke-linecap:round; stroke-linejoin:round;">
<text x="57385.6" y="45210.6"
transform="scale(-1 1) translate(-114771.207874 0)"
textLength="2130.33" font-size="1049.87" lengthAdjust="spacingAndGlyphs"
text-anchor="middle" opacity="0">10u</text>
<path d="M57891 45173
L58341 45173
" />
<path d="M58116 45173
L58116 44385
L58191 44498
L58266 44573
L58341 44610
" />
<path d="M57404 44385
L57329 44385
L57254 44423
L57216 44460
L57179 44535
L57141 44685
L57141 44873
L57179 45023
L57216 45098
L57254 45135
L57329 45173
L57404 45173
L57479 45135
L57516 45098
L57554 45023
L57591 44873
L57591 44685
L57554 44535
L57516 44460
L57479 44423
L57404 44385
" />
<path d="M56466 44648
L56466 45173
" />
<path d="M56804 44648
L56804 45060
L56766 45135
L56691 45173
L56579 45173
L56504 45135
L56466 45098
" />
</g>
<g style="fill:#000000; fill-opacity:0.0; 
stroke:#000000; stroke-width:62.9921; stroke-opacity:1; 
stroke-linecap:round; stroke-linejoin:round;">
<text x="57385.6" y="43887.7"
transform="scale(-1 1) translate(-114771.207874 0)"
textLength="2133.67" font-size="1049.87" lengthAdjust="spacingAndGlyphs"
text-anchor="middle" opacity="0">C13</text>
<path d="M57891 43775
L57929 43812
L58041 43850
L58116 43850
L58229 43812
L58304 43737
L58341 43662
L58379 43512
L58379 43400
L58341 43250
L58304 43175
L58229 43100
L58116 43062
L58041 43062
L57929 43100
L57891 43137
" />
<path d="M57141 43850
L57591 43850
" />
<path d="M57366 43850
L57366 43062
L57441 43175
L57516 43250
L57591 43287
" />
<path d="M56879 43062
L56391 43062
L56654 43362
L56541 43362
L56466 43400
L56429 43437
L56391 43512
L56391 43700
L56429 43775
L56466 43812
L56541 43850
L56766 43850
L56841 43812
L56879 43775
" />
</g>
<g style="fill:#000000; fill-opacity:0.0; 
stroke:#000000; stroke-width:118.11; stroke-opacity:1; 
stroke-linecap:round; stroke-linejoin:round;">
<g transform="rotate(-90 44919.1 39045.2)">
<text x="44919.1" y="39438.9"
transform="scale(-1 1) translate(-89838.137008 0)"
textLength="2880.24" font-size="1049.87" lengthAdjust="spacingAndGlyphs"
text-anchor="middle" opacity="0">100n</text>
</g>
<path d="M45275 38164
L45275 37714
" />
<path d="M45275 37939
L44487 37939
L44600 37864
L44675 37789
L44712 37714
" />
<path d="M44487 38651
L44487 38726
L44525 38801
L44562 38838
L44637 38876
L44787 38913
L44975 38913
L45125 38876
L45200 38838
L45237 38801
L45275 38726
L45275 38651
L45237 38576
L45200 38539
L45125 38501
L44975 38464
L44787 38464
L44637 38501
L44562 38539
L44525 38576
L44487 38651
" />
<path d="M44487 39401
L44487 39476
L44525 39551
L44562 39588
L44637 39626
L44787 39663
L44975 39663
L45125 39626
L45200 39588
L45237 39551
L45275 39476
L45275 39401
L45237 39326
L45200 39288
L45125 39251
L44975 39213
L44787 39213
L44637 39251
L44562 39288
L44525 39326
L44487 39401
" />
<path d="M44750 40001
L45275 40001
" />
<path d="M44825 40001
L44787 40038
L44750 40113
L44750 40226
L44787 40301
L44862 40338
L45275 40338
" />
</g>
<g style="fill:#000000; fill-opacity:0.0; 
stroke:#000000; stroke-width:62.9921; stroke-opacity:1; 
stroke-linecap:round; stroke-linejoin:round;">
<g transform="rotate(-90 43596.2 39045.2)">
<text x="43596.2" y="39438.9"
transform="scale(-1 1) translate(-87192.467717 0)"
textLength="1383.76" font-size="1049.87" lengthAdjust="spacingAndGlyphs"
text-anchor="middle" opacity="0">C7</text>
</g>
<path d="M43877 38913
L43914 38876
L43952 38763
L43952 38689
L43914 38576
L43839 38501
L43764 38464
L43614 38426
L43502 38426
L43352 38464
L43277 38501
L43202 38576
L43165 38689
L43165 38763
L43202 38876
L43240 38913
" />
<path d="M43165 39176
L43165 39701
L43952 39363
" />
</g>
<g style="fill:#000000; fill-opacity:0.0; 
stroke:#000000; stroke-width:118.11; stroke-opacity:1; 
stroke-linecap:round; stroke-linejoin:round;">
<text x="26273.4" y="30722.4"
transform="scale(-1 1) translate(-52546.798425 0)"
textLength="2880.24" font-size="1049.87" lengthAdjust="spacingAndGlyphs"
text-anchor="middle" opacity="0">100n</text>
<path d="M27154 30684
L27604 30684
" />
<path d="M27379 30684
L27379 29897
L27454 30009
L27529 30084
L27604 30122
" />
<path d="M26667 29897
L26592 29897
L26517 29934
L26479 29972
L26442 30047
L26404 30197
L26404 30384
L26442 30534
L26479 30609
L26517 30647
L26592 30684
L26667 30684
L26742 30647
L26779 30609
L26817 30534
L26854 30384
L26854 30197
L26817 30047
L26779 29972
L26742 29934
L26667 29897
" />
<path d="M25917 29897
L25842 29897
L25767 29934
L25729 29972
L25692 30047
L25654 30197
L25654 30384
L25692 30534
L25729 30609
L25767 30647
L25842 30684
L25917 30684
L25992 30647
L26029 30609
L26067 30534
L26104 30384
L26104 30197
L26067 30047
L26029 29972
L25992 29934
L25917 29897
" />
<path d="M25317 30159
L25317 30684
" />
<path d="M25317 30234
L25279 30197
L25204 30159
L25092 30159
L25017 30197
L24979 30272
L24979 30684
" />
</g>
<g style="fill:#000000; fill-opacity:0.0; 
stroke:#000000; stroke-width:62.9921; stroke-opacity:1; 
stroke-linecap:round; stroke-linejoin:round;">
<text x="26273.4" y="29399.5"
transform="scale(-1 1) translate(-52546.798425 0)"
textLength="1383.76" font-size="1049.87" lengthAdjust="spacingAndGlyphs"
text-anchor="middle" opacity="0">C6</text>
<path d="M26404 29287
L26442 29324
L26554 29362
L26629 29362
L26742 29324
L26817 29249
L26854 29174
L26892 29024
L26892 28912
L26854 28762
L26817 28687
L26742 28612
L26629 28574
L26554 28574
L26442 28612
L26404 28649
" />
<path d="M25729 28574
L25879 28574
L25954 28612
L25992 28649
L26067 28762
L26104 28912
L26104 29212
L26067 29287
L26029 29324
L25954 29362
L25804 29362
L25729 29324
L25692 29287
L25654 29212
L25654 29024
L25692 28949
L25729 28912
L25804 28874
L25954 28874
L26029 28912
L26067 28949
L26104 29024
" />
</g>
<g style="fill:#000000; fill-opacity:0.0; 
stroke:#000000; stroke-width:118.11; stroke-opacity:1; 
stroke-linecap:round; stroke-linejoin:round;">
<g transform="rotate(-90 26415.1 42194.8)">
<text x="26415.1" y="42588.5"
transform="scale(-1 1) translate(-52830.262992 0)"
textLength="2880.24" font-size="1049.87" lengthAdjust="spacingAndGlyphs"
text-anchor="middle" opacity="0">100n</text>
</g>
<path d="M26771 41313
L26771 40863
" />
<path d="M26771 41088
L25983 41088
L26096 41013
L26171 40938
L26208 40863
" />
<path d="M25983 41801
L25983 41876
L26021 41951
L26058 41988
L26133 42026
L26283 42063
L26471 42063
L26621 42026
L26696 41988
L26733 41951
L26771 41876
L26771 41801
L26733 41726
L26696 41688
L26621 41651
L26471 41613
L26283 41613
L26133 41651
L26058 41688
L26021 41726
L25983 41801
" />
<path d="M25983 42551
L25983 42626
L26021 42701
L26058 42738
L26133 42775
L26283 42813
L26471 42813
L26621 42775
L26696 42738
L26733 42701
L26771 42626
L26771 42551
L26733 42476
L26696 42438
L26621 42401
L26471 42363
L26283 42363
L26133 42401
L26058 42438
L26021 42476
L25983 42551
" />
<path d="M26246 43150
L26771 43150
" />
<path d="M26321 43150
L26283 43188
L26246 43263
L26246 43375
L26283 43450
L26358 43488
L26771 43488
" />
</g>
<g style="fill:#000000; fill-opacity:0.0; 
stroke:#000000; stroke-width:62.9921; stroke-opacity:1; 
stroke-linecap:round; stroke-linejoin:round;">
<g transform="rotate(-90 25092.3 42194.8)">
<text x="25092.3" y="42588.5"
transform="scale(-1 1) translate(-50184.593701 0)"
textLength="1383.76" font-size="1049.87" lengthAdjust="spacingAndGlyphs"
text-anchor="middle" opacity="0">C5</text>
</g>
<path d="M25373 42063
L25411 42026
L25448 41913
L25448 41838
L25411 41726
L25336 41651
L25261 41613
L25111 41576
L24998 41576
L24848 41613
L24773 41651
L24698 41726
L24661 41838
L24661 41913
L24698 42026
L24736 42063
" />
<path d="M24661 42775
L24661 42401
L25036 42363
L24998 42401
L24961 42476
L24961 42663
L24998 42738
L25036 42775
L25111 42813
L25298 42813
L25373 42775
L25411 42738
L25448 42663
L25448 42476
L25411 42401
L25373 42363
" />
</g>
<g style="fill:#000000; fill-opacity:0.0; 
stroke:#000000; stroke-width:118.11; stroke-opacity:1; 
stroke-linecap:round; stroke-linejoin:round;">
<g transform="rotate(-90 20115.9 43375.9)">
<text x="20115.9" y="43769.6"
transform="scale(-1 1) translate(-40231.837795 0)"
textLength="2880.24" font-size="1049.87" lengthAdjust="spacingAndGlyphs"
text-anchor="middle" opacity="0">100n</text>
</g>
<path d="M20472 42494
L20472 42044
" />
<path d="M20472 42269
L19684 42269
L19797 42194
L19872 42119
L19909 42044
" />
<path d="M19684 42982
L19684 43057
L19722 43132
L19759 43169
L19834 43207
L19984 43244
L20172 43244
L20322 43207
L20397 43169
L20434 43132
L20472 43057
L20472 42982
L20434 42907
L20397 42869
L20322 42832
L20172 42794
L19984 42794
L19834 42832
L19759 42869
L19722 42907
L19684 42982
" />
<path d="M19684 43732
L19684 43807
L19722 43882
L19759 43919
L19834 43957
L19984 43994
L20172 43994
L20322 43957
L20397 43919
L20434 43882
L20472 43807
L20472 43732
L20434 43657
L20397 43619
L20322 43582
L20172 43544
L19984 43544
L19834 43582
L19759 43619
L19722 43657
L19684 43732
" />
<path d="M19947 44332
L20472 44332
" />
<path d="M20022 44332
L19984 44369
L19947 44444
L19947 44557
L19984 44632
L20059 44669
L20472 44669
" />
</g>
<g style="fill:#000000; fill-opacity:0.0; 
stroke:#000000; stroke-width:62.9921; stroke-opacity:1; 
stroke-linecap:round; stroke-linejoin:round;">
<g transform="rotate(-90 18793.1 43375.9)">
<text x="18793.1" y="43769.6"
transform="scale(-1 1) translate(-37586.168504 0)"
textLength="1383.76" font-size="1049.87" lengthAdjust="spacingAndGlyphs"
text-anchor="middle" opacity="0">C4</text>
</g>
<path d="M19074 43244
L19111 43207
L19149 43094
L19149 43019
L19111 42907
L19036 42832
L18961 42794
L18811 42757
L18699 42757
L18549 42794
L18474 42832
L18399 42907
L18361 43019
L18361 43094
L18399 43207
L18436 43244
" />
<path d="M18624 43919
L19149 43919
" />
<path d="M18324 43732
L18886 43544
L18886 44032
" />
</g>
<g style="fill:#000000; fill-opacity:0.0; 
stroke:#000000; stroke-width:118.11; stroke-opacity:1; 
stroke-linecap:round; stroke-linejoin:round;">
<g transform="rotate(-90 42234 42194.8)">
<text x="42234" y="42588.5"
transform="scale(-1 1) translate(-84468.058268 0)"
textLength="2880.24" font-size="1049.87" lengthAdjust="spacingAndGlyphs"
text-anchor="middle" opacity="0">100n</text>
</g>
<path d="M42590 41313
L42590 40863
" />
<path d="M42590 41088
L41802 41088
L41915 41013
L41990 40938
L42027 40863
" />
<path d="M41802 41801
L41802 41876
L41840 41951
L41877 41988
L41952 42026
L42102 42063
L42290 42063
L42440 42026
L42515 41988
L42552 41951
L42590 41876
L42590 41801
L42552 41726
L42515 41688
L42440 41651
L42290 41613
L42102 41613
L41952 41651
L41877 41688
L41840 41726
L41802 41801
" />
<path d="M41802 42551
L41802 42626
L41840 42701
L41877 42738
L41952 42775
L42102 42813
L42290 42813
L42440 42775
L42515 42738
L42552 42701
L42590 42626
L42590 42551
L42552 42476
L42515 42438
L42440 42401
L42290 42363
L42102 42363
L41952 42401
L41877 42438
L41840 42476
L41802 42551
" />
<path d="M42065 43150
L42590 43150
" />
<path d="M42140 43150
L42102 43188
L42065 43263
L42065 43375
L42102 43450
L42177 43488
L42590 43488
" />
</g>
<g style="fill:#000000; fill-opacity:0.0; 
stroke:#000000; stroke-width:62.9921; stroke-opacity:1; 
stroke-linecap:round; stroke-linejoin:round;">
<g transform="rotate(-90 43556.9 42194.8)">
<text x="43556.9" y="42588.5"
transform="scale(-1 1) translate(-87113.727559 0)"
textLength="1383.76" font-size="1049.87" lengthAdjust="spacingAndGlyphs"
text-anchor="middle" opacity="0">C3</text>
</g>
<path d="M43838 42063
L43875 42026
L43913 41913
L43913 41838
L43875 41726
L43800 41651
L43725 41613
L43575 41576
L43463 41576
L43313 41613
L43238 41651
L43163 41726
L43125 41838
L43125 41913
L43163 42026
L43200 42063
" />
<path d="M43125 42326
L43125 42813
L43425 42551
L43425 42663
L43463 42738
L43500 42775
L43575 42813
L43763 42813
L43838 42775
L43875 42738
L43913 42663
L43913 42438
L43875 42363
L43838 42326
" />
</g>
<g style="fill:#000000; fill-opacity:0.0; 
stroke:#000000; stroke-width:118.11; stroke-opacity:1; 
stroke-linecap:round; stroke-linejoin:round;">
<g transform="rotate(-90 35777.3 42194.8)">
<text x="35777.3" y="42588.5"
transform="scale(-1 1) translate(-71554.672441 0)"
textLength="2880.24" font-size="1049.87" lengthAdjust="spacingAndGlyphs"
text-anchor="middle" opacity="0">100n</text>
</g>
<path d="M36133 41313
L36133 40863
" />
<path d="M36133 41088
L35346 41088
L35458 41013
L35533 40938
L35571 40863
" />
<path d="M35346 41801
L35346 41876
L35383 41951
L35421 41988
L35496 42026
L35646 42063
L35833 42063
L35983 42026
L36058 41988
L36096 41951
L36133 41876
L36133 41801
L36096 41726
L36058 41688
L35983 41651
L35833 41613
L35646 41613
L35496 41651
L35421 41688
L35383 41726
L35346 41801
" />
<path d="M35346 42551
L35346 42626
L35383 42701
L35421 42738
L35496 42775
L35646 42813
L35833 42813
L35983 42775
L36058 42738
L36096 42701
L36133 42626
L36133 42551
L36096 42476
L36058 42438
L35983 42401
L35833 42363
L35646 42363
L35496 42401
L35421 42438
L35383 42476
L35346 42551
" />
<path d="M35608 43150
L36133 43150
" />
<path d="M35683 43150
L35646 43188
L35608 43263
L35608 43375
L35646 43450
L35721 43488
L36133 43488
" />
</g>
<g style="fill:#000000; fill-opacity:0.0; 
stroke:#000000; stroke-width:62.9921; stroke-opacity:1; 
stroke-linecap:round; stroke-linejoin:round;">
<g transform="rotate(-90 37100.2 42194.8)">
<text x="37100.2" y="42588.5"
transform="scale(-1 1) translate(-74200.341732 0)"
textLength="1383.76" font-size="1049.87" lengthAdjust="spacingAndGlyphs"
text-anchor="middle" opacity="0">C2</text>
</g>
<path d="M37381 42063
L37418 42026
L37456 41913
L37456 41838
L37418 41726
L37343 41651
L37268 41613
L37118 41576
L37006 41576
L36856 41613
L36781 41651
L36706 41726
L36668 41838
L36668 41913
L36706 42026
L36743 42063
" />
<path d="M36743 42363
L36706 42401
L36668 42476
L36668 42663
L36706 42738
L36743 42775
L36818 42813
L36893 42813
L37006 42775
L37456 42326
L37456 42813
" />
</g>
<g style="fill:#000000; fill-opacity:0.0; 
stroke:#000000; stroke-width:118.11; stroke-opacity:1; 
stroke-linecap:round; stroke-linejoin:round;">
<text x="30289.1" y="48832.6"
transform="scale(-1 1) translate(-60578.294488 0)"
textLength="2880.24" font-size="1049.87" lengthAdjust="spacingAndGlyphs"
text-anchor="middle" opacity="0">100n</text>
<path d="M31170 48795
L31620 48795
" />
<path d="M31395 48795
L31395 48007
L31470 48120
L31545 48195
L31620 48232
" />
<path d="M30682 48007
L30607 48007
L30532 48045
L30495 48082
L30457 48157
L30420 48307
L30420 48495
L30457 48645
L30495 48720
L30532 48757
L30607 48795
L30682 48795
L30757 48757
L30795 48720
L30832 48645
L30870 48495
L30870 48307
L30832 48157
L30795 48082
L30757 48045
L30682 48007
" />
<path d="M29932 48007
L29857 48007
L29782 48045
L29745 48082
L29707 48157
L29670 48307
L29670 48495
L29707 48645
L29745 48720
L29782 48757
L29857 48795
L29932 48795
L30007 48757
L30045 48720
L30082 48645
L30120 48495
L30120 48307
L30082 48157
L30045 48082
L30007 48045
L29932 48007
" />
<path d="M29333 48270
L29333 48795
" />
<path d="M29333 48345
L29295 48307
L29220 48270
L29108 48270
L29033 48307
L28995 48382
L28995 48795
" />
</g>
<g style="fill:#000000; fill-opacity:0.0; 
stroke:#000000; stroke-width:62.9921; stroke-opacity:1; 
stroke-linecap:round; stroke-linejoin:round;">
<text x="30289.1" y="47509.8"
transform="scale(-1 1) translate(-60578.294488 0)"
textLength="1383.76" font-size="1049.87" lengthAdjust="spacingAndGlyphs"
text-anchor="middle" opacity="0">C1</text>
<path d="M30420 47397
L30457 47434
L30570 47472
L30645 47472
L30757 47434
L30832 47359
L30870 47284
L30907 47134
L30907 47022
L30870 46872
L30832 46797
L30757 46722
L30645 46684
L30570 46684
L30457 46722
L30420 46759
" />
<path d="M29670 47472
L30120 47472
" />
<path d="M29895 47472
L29895 46684
L29970 46797
L30045 46872
L30120 46909
" />
</g>
<g style="fill:#000000; fill-opacity:0.0; 
stroke:#000000; stroke-width:118.11; stroke-opacity:1; 
stroke-linecap:round; stroke-linejoin:round;">
<text x="57218.3" y="36549.1"
transform="scale(-1 1) translate(-114436.562205 0)"
textLength="2130.33" font-size="1049.87" lengthAdjust="spacingAndGlyphs"
text-anchor="middle" opacity="0">10u</text>
<path d="M57724 36511
L58174 36511
" />
<path d="M57949 36511
L57949 35724
L58024 35836
L58099 35911
L58174 35949
" />
<path d="M57237 35724
L57162 35724
L57087 35761
L57049 35799
L57012 35874
L56974 36024
L56974 36211
L57012 36361
L57049 36436
L57087 36474
L57162 36511
L57237 36511
L57312 36474
L57349 36436
L57387 36361
L57424 36211
L57424 36024
L57387 35874
L57349 35799
L57312 35761
L57237 35724
" />
<path d="M56299 35986
L56299 36511
" />
<path d="M56637 35986
L56637 36399
L56599 36474
L56524 36511
L56412 36511
L56337 36474
L56299 36436
" />
</g>
<g style="fill:#000000; fill-opacity:0.0; 
stroke:#000000; stroke-width:62.9921; stroke-opacity:1; 
stroke-linecap:round; stroke-linejoin:round;">
<text x="57218.3" y="35226.3"
transform="scale(-1 1) translate(-114436.562205 0)"
textLength="2133.67" font-size="1049.87" lengthAdjust="spacingAndGlyphs"
text-anchor="middle" opacity="0">C15</text>
<path d="M57724 35113
L57761 35151
L57874 35188
L57949 35188
L58061 35151
L58136 35076
L58174 35001
L58211 34851
L58211 34738
L58174 34588
L58136 34513
L58061 34438
L57949 34401
L57874 34401
L57761 34438
L57724 34476
" />
<path d="M56974 35188
L57424 35188
" />
<path d="M57199 35188
L57199 34401
L57274 34513
L57349 34588
L57424 34626
" />
<path d="M56262 34401
L56637 34401
L56674 34776
L56637 34738
L56562 34701
L56374 34701
L56299 34738
L56262 34776
L56224 34851
L56224 35038
L56262 35113
L56299 35151
L56374 35188
L56562 35188
L56637 35151
L56674 35113
" />
<g >
</g>
</g> 
</svg>
