<?xml version="1.0" standalone="no"?>
 <!DOCTYPE svg PUBLIC "-//W3C//DTD SVG 1.1//EN" 
 "http://www.w3.org/Graphics/SVG/1.1/DTD/svg11.dtd"> 
<svg
  xmlns:svg="http://www.w3.org/2000/svg"
  xmlns="http://www.w3.org/2000/svg"
  xmlns:xlink="http://www.w3.org/1999/xlink"
  version="1.1"
  width="29.700220cm" height="21.000720cm" viewBox="0 0 116930 82680">
<title>SVG Picture created as board-F_CrtYd.svg date 2021/03/29 15:50:44 </title>
  <desc>Picture generated by PCBNEW </desc>
<g style="fill:#000000; fill-opacity:1;stroke:#000000; stroke-opacity:1;
stroke-linecap:round; stroke-linejoin:round;"
 transform="translate(0 0) scale(1 1)">
</g>
<g style="fill:#000000; fill-opacity:0.0; 
stroke:#000000; stroke-width:-0.000787402; stroke-opacity:1; 
stroke-linecap:round; stroke-linejoin:round;">
</g>
<g style="fill:#000000; fill-opacity:0.0; 
stroke:#000000; stroke-width:78.7402; stroke-opacity:1; 
stroke-linecap:round; stroke-linejoin:round;">
<path d="M11509.6 57352.3 A2362.2 2362.2 0.0 0 0 13871.8 59714.5" />
<path d="M13871.8 23100.3 A2362.2 2362.2 0.0 0 0 11509.6 25462.5" />
<path d="M68202.5 25462.5 A2362.2 2362.2 0.0 0 0 65840.3 23100.3" />
<path d="M65840.3 59714.5 A2362.21 2362.21 0.0 0 0 68202.5 57352.3" />
<path d="M13871 59714
L65840 59714
" />
<path d="M11509 25462
L11509 57352
" />
<path d="M65840 23100
L13871 23100
" />
<path d="M68202 57352
L68202 25462
" />
</g>
<g style="fill:#000000; fill-opacity:0.0; 
stroke:#000000; stroke-width:39.3701; stroke-opacity:1; 
stroke-linecap:round; stroke-linejoin:round;">
<path d="M43832 53808
L43832 28612
" />
<path d="M18635 53808
L43832 53808
" />
<path d="M18635 28612
L18635 53808
" />
<path d="M43832 28612
L18635 28612
" />
<path d="M46982 58769
L36194 58769
" />
<path d="M46982 55974
L46982 58769
" />
<path d="M36194 55974
L46982 55974
" />
<path d="M36194 58769
L36194 55974
" />
<path d="M59226 24045
L59226 26840
" />
<path d="M59226 26840
L46430 26840
" />
<path d="M46430 26840
L46430 24045
" />
<path d="M46430 24045
L59226 24045
" />
<path d="M12454 28966
L15249 28966
" />
<path d="M15249 28966
L15249 53769
" />
<path d="M15249 53769
L12454 53769
" />
<path d="M12454 53769
L12454 28966
" />
<path d="M19737 26879
L19737 24084
" />
<path d="M19737 24084
L44541 24084
" />
<path d="M44541 24084
L44541 26879
" />
<path d="M44541 26879
L19737 26879
" />
<path d="M19737 58769
L19737 55974
" />
<path d="M19737 55974
L36548 55974
" />
<path d="M36548 55974
L36548 58769
" />
<path d="M36548 58769
L19737 58769
" />
<path d="M50682 52312
L54304 52312
" />
<path d="M50682 52312
L50682 54281
" />
<path d="M54304 54281
L54304 52312
" />
<path d="M54304 54281
L50682 54281
" />
<path d="M45879 52312
L49501 52312
" />
<path d="M45879 52312
L45879 54281
" />
<path d="M49501 54281
L49501 52312
" />
<path d="M49501 54281
L45879 54281
" />
<circle cx="13871.8" cy="57352.3" r="2165.35" /> 
<circle cx="65840.3" cy="57276" r="2165.35" /> 
<circle cx="13871.8" cy="25462.5" r="2165.35" /> 
<circle cx="65840.3" cy="25462.5" r="2165.35" /> 
<path d="M59974 39478
L61470 39478
" />
<path d="M61470 39478
L61470 42391
" />
<path d="M61470 42391
L59974 42391
" />
<path d="M59974 42391
L59974 39478
" />
<path d="M53871 42391
L52375 42391
" />
<path d="M52375 42391
L52375 39478
" />
<path d="M52375 39478
L53871 39478
" />
<path d="M53871 39478
L53871 42391
" />
<path d="M59974 33612
L59974 30698
" />
<path d="M61470 33612
L59974 33612
" />
<path d="M61470 30698
L61470 33612
" />
<path d="M59974 30698
L61470 30698
" />
<path d="M53871 30698
L53871 33612
" />
<path d="M52375 30698
L53871 30698
" />
<path d="M52375 33612
L52375 30698
" />
<path d="M53871 33612
L52375 33612
" />
<path d="M57021 42312
L54344 42312
" />
<path d="M54344 42312
L54344 39557
" />
<path d="M54344 39557
L57021 39557
" />
<path d="M57021 39557
L57021 42312
" />
<path d="M57021 30777
L57021 33533
" />
<path d="M54344 30777
L57021 30777
" />
<path d="M54344 33533
L54344 30777
" />
<path d="M57021 33533
L54344 33533
" />
<path d="M73163 35068
L63438 35068
" />
<path d="M73163 43887
L73163 35068
" />
<path d="M63438 43887
L73163 43887
" />
<path d="M63438 35068
L63438 43887
" />
<path d="M57769 39495
L59265 39495
" />
<path d="M59265 39495
L59265 42409
" />
<path d="M59265 42409
L57769 42409
" />
<path d="M57769 42409
L57769 39495
" />
<path d="M57769 33629
L57769 30716
" />
<path d="M59265 33629
L57769 33629
" />
<path d="M59265 30716
L59265 33629
" />
<path d="M57769 30716
L59265 30716
" />
<path d="M58478 50934
L55564 50934
" />
<path d="M58478 49438
L58478 50934
" />
<path d="M55564 49438
L58478 49438
" />
<path d="M55564 50934
L55564 49438
" />
<path d="M55564 47273
L58478 47273
" />
<path d="M55564 48769
L55564 47273
" />
<path d="M58478 48769
L55564 48769
" />
<path d="M58478 47273
L58478 48769
" />
<path d="M48816 49186
L48816 46226
" />
<path d="M50360 49186
L48816 49186
" />
<path d="M50360 46226
L50360 49186
" />
<path d="M48816 46226
L50360 46226
" />
<path d="M50360 43076
L50360 46037
" />
<path d="M48816 43076
L50360 43076
" />
<path d="M48816 46037
L48816 43076
" />
<path d="M50360 46037
L48816 46037
" />
<path d="M55541 51580
L58501 51580
" />
<path d="M55541 53123
L55541 51580
" />
<path d="M58501 53123
L55541 53123
" />
<path d="M58501 51580
L58501 53123
" />
<path d="M44045 41210
L44045 50738
" />
<path d="M48454 41210
L44045 41210
" />
<path d="M48454 50738
L48454 41210
" />
<path d="M44045 50738
L48454 50738
" />
<path d="M59383 54123
L59383 48612
" />
<path d="M59580 48415
L66667 48415
" />
<path d="M66863 48612
L66863 54123
" />
<path d="M66667 54320
L59580 54320
" />
<path d="M66863 48415
L66667 48415
" />
<path d="M66863 48612
L66863 48415
" />
<path d="M66863 54320
L66667 54320
" />
<path d="M66863 54123
L66863 54320
" />
<path d="M59383 54320
L59383 54123
" />
<path d="M59580 54320
L59383 54320
" />
<path d="M59383 48415
L59383 48612
" />
<path d="M59580 48415
L59383 48415
" />
<g >
</g>
<g >
</g>
<g >
</g>
<g >
</g>
<g >
</g>
<g >
</g>
<g >
</g>
<g >
</g>
<g >
</g>
<g >
</g>
<g >
</g>
<g >
</g>
<g >
</g>
<g >
</g>
<g >
</g>
<g >
</g>
<g >
</g>
<g >
</g>
<g >
</g>
<g >
</g>
<g >
</g>
<g >
</g>
<g >
</g>
<g >
</g>
<g >
</g>
<g >
</g>
<g >
</g>
<g >
</g>
<g >
</g>
<g >
</g>
<g >
</g>
<g >
</g>
<g >
</g>
<g >
</g>
<g >
</g>
<g >
</g>
<g >
</g>
<g >
</g>
<g >
</g>
<g >
</g>
<g >
</g>
<g >
</g>
<g >
</g>
<g >
</g>
<g >
</g>
<g >
</g>
<g >
</g>
<g >
</g>
<g >
</g>
<g >
</g>
</g> 
</svg>
