<?xml version="1.0" standalone="no"?>
 <!DOCTYPE svg PUBLIC "-//W3C//DTD SVG 1.1//EN" 
 "http://www.w3.org/Graphics/SVG/1.1/DTD/svg11.dtd"> 
<svg
  xmlns:svg="http://www.w3.org/2000/svg"
  xmlns="http://www.w3.org/2000/svg"
  xmlns:xlink="http://www.w3.org/1999/xlink"
  version="1.1"
  width="29.700220cm" height="21.000720cm" viewBox="0 0 116930 82680">
<title>SVG Picture created as board-F_Fab.svg date 2021/03/29 15:50:44 </title>
  <desc>Picture generated by PCBNEW </desc>
<g style="fill:#000000; fill-opacity:1;stroke:#000000; stroke-opacity:1;
stroke-linecap:round; stroke-linejoin:round;"
 transform="translate(0 0) scale(1 1)">
</g>
<g style="fill:#000000; fill-opacity:0.0; 
stroke:#000000; stroke-width:-0.000787402; stroke-opacity:1; 
stroke-linecap:round; stroke-linejoin:round;">
</g>
<g style="fill:#000000; fill-opacity:0.0; 
stroke:#000000; stroke-width:78.7402; stroke-opacity:1; 
stroke-linecap:round; stroke-linejoin:round;">
<path d="M11509.6 57352.3 A2362.2 2362.2 0.0 0 0 13871.8 59714.5" />
<path d="M13871.8 23100.3 A2362.2 2362.2 0.0 0 0 11509.6 25462.5" />
<path d="M68202.5 25462.5 A2362.2 2362.2 0.0 0 0 65840.3 23100.3" />
<path d="M65840.3 59714.5 A2362.21 2362.21 0.0 0 0 68202.5 57352.3" />
<path d="M13871 59714
L65840 59714
" />
<path d="M11509 25462
L11509 57352
" />
<path d="M65840 23100
L13871 23100
" />
<path d="M68202 57352
L68202 25462
" />
<path d="M42671 41210
L43458 41604
" />
<path d="M43458 40816
L42671 41210
" />
<path d="M41458 51434
L41458 30986
" />
<path d="M21009 51434
L41458 51434
" />
<path d="M21009 30986
L21009 51434
" />
<path d="M41458 30986
L21009 30986
" />
<path d="M43458 53434
L43458 29773
" />
<path d="M19009 53434
L43458 53434
" />
<path d="M19009 28986
L19009 53434
" />
<path d="M42671 28986
L19009 28986
" />
<path d="M43458 29773
L42671 28986
" />
<path d="M46611 58352
L36611 58352
" />
<path d="M46611 56352
L46611 58352
" />
<path d="M37111 56352
L46611 56352
" />
<path d="M36611 56852
L37111 56352
" />
<path d="M36611 58352
L36611 56852
" />
<path d="M58808 24462
L58808 25962
" />
<path d="M58808 25962
L58308 26462
" />
<path d="M58308 26462
L46808 26462
" />
<path d="M46808 26462
L46808 24462
" />
<path d="M46808 24462
L58808 24462
" />
<path d="M12871 29383
L14371 29383
" />
<path d="M14371 29383
L14871 29883
" />
<path d="M14871 29883
L14871 53383
" />
<path d="M14871 53383
L12871 53383
" />
<path d="M12871 53383
L12871 29383
" />
<path d="M20155 26462
L20155 24962
" />
<path d="M20155 24962
L20655 24462
" />
<path d="M20655 24462
L44155 24462
" />
<path d="M44155 24462
L44155 26462
" />
<path d="M44155 26462
L20155 26462
" />
<path d="M20155 58352
L20155 56852
" />
<path d="M20155 56852
L20655 56352
" />
<path d="M20655 56352
L36155 56352
" />
<path d="M36155 56352
L36155 58352
" />
<path d="M36155 58352
L20155 58352
" />
<path d="M60230 40147
L61214 40147
" />
<path d="M61214 40147
L61214 41722
" />
<path d="M61214 41722
L60230 41722
" />
<path d="M60230 41722
L60230 40147
" />
<path d="M53615 41722
L52631 41722
" />
<path d="M52631 41722
L52631 40147
" />
<path d="M52631 40147
L53615 40147
" />
<path d="M53615 40147
L53615 41722
" />
<path d="M60230 32942
L60230 31368
" />
<path d="M61214 32942
L60230 32942
" />
<path d="M61214 31368
L61214 32942
" />
<path d="M60230 31368
L61214 31368
" />
<path d="M53615 31368
L53615 32942
" />
<path d="M52631 31368
L53615 31368
" />
<path d="M52631 32942
L52631 31368
" />
<path d="M53615 32942
L52631 32942
" />
<path d="M56234 41683
L56234 39753
" />
<path d="M55800 42131
L55131 42131
" />
<path d="M56234 41683
L55800 42131
" />
<path d="M55131 42131
L55131 39738
" />
<path d="M56234 39738
L55131 39738
" />
<path d="M56234 30958
L55131 30958
" />
<path d="M55131 33352
L55131 30958
" />
<path d="M56234 32903
L55800 33352
" />
<path d="M55800 33352
L55131 33352
" />
<path d="M56234 32903
L56234 30974
" />
<path d="M68037 42738
L72761 42738
" />
<path d="M72761 42234
L72761 42738
" />
<path d="M68037 42234
L72761 42234
" />
<path d="M64604 42738
L66037 42738
" />
<path d="M64604 42234
L64604 42738
" />
<path d="M64604 42234
L66037 42234
" />
<path d="M68037 40738
L72761 40738
" />
<path d="M72761 40234
L72761 40738
" />
<path d="M68037 40234
L72761 40234
" />
<path d="M64604 40738
L66037 40738
" />
<path d="M64604 40234
L64604 40738
" />
<path d="M64604 40234
L66037 40234
" />
<path d="M68037 38738
L72761 38738
" />
<path d="M72761 38234
L72761 38738
" />
<path d="M68037 38234
L72761 38234
" />
<path d="M64604 38738
L66037 38738
" />
<path d="M64604 38234
L64604 38738
" />
<path d="M64604 38234
L66037 38234
" />
<path d="M68037 36738
L72761 36738
" />
<path d="M72761 36234
L72761 36738
" />
<path d="M68037 36234
L72761 36234
" />
<path d="M64604 36738
L66037 36738
" />
<path d="M64604 36234
L64604 36738
" />
<path d="M64604 36234
L66037 36234
" />
<path d="M66037 35986
L66537 35486
" />
<path d="M66037 43486
L66037 35986
" />
<path d="M68037 43486
L66037 43486
" />
<path d="M68037 35486
L68037 43486
" />
<path d="M66537 35486
L68037 35486
" />
<path d="M58989 41740
L58989 40401
" />
<path d="M58989 40401
L58753 40165
" />
<path d="M58753 40165
L58045 40165
" />
<path d="M58045 40165
L58045 41740
" />
<path d="M58045 41740
L58989 41740
" />
<path d="M58045 32960
L58989 32960
" />
<path d="M58045 31385
L58045 32960
" />
<path d="M58753 31385
L58045 31385
" />
<path d="M58989 31621
L58753 31385
" />
<path d="M58989 32960
L58989 31621
" />
<path d="M57808 50679
L56234 50679
" />
<path d="M57808 49694
L57808 50679
" />
<path d="M56234 49694
L57808 49694
" />
<path d="M56234 50679
L56234 49694
" />
<path d="M56234 47529
L57808 47529
" />
<path d="M56234 48513
L56234 47529
" />
<path d="M57808 48513
L56234 48513
" />
<path d="M57808 47529
L57808 48513
" />
<path d="M49096 48494
L49096 46919
" />
<path d="M50080 48494
L49096 48494
" />
<path d="M50080 46919
L50080 48494
" />
<path d="M49096 46919
L50080 46919
" />
<path d="M50080 43769
L50080 45344
" />
<path d="M49096 43769
L50080 43769
" />
<path d="M49096 45344
L49096 43769
" />
<path d="M50080 45344
L49096 45344
" />
<path d="M56234 51860
L57808 51860
" />
<path d="M56234 52844
L56234 51860
" />
<path d="M57808 52844
L56234 52844
" />
<path d="M57808 51860
L57808 52844
" />
<path d="M47824 48344
L47824 43620
" />
<path d="M44674 48344
L44674 43620
" />
<path d="M48080 48501
L48080 43462
" />
<path d="M44419 48501
L44419 43462
" />
<path d="M47824.6 43620 A1574.8 1574.8 0.0 0 0 44675 43620" />
<path d="M44675 48344.4 A1574.8 1574.8 0.0 0 0 47824.6 48344.4" />
<path d="M48080.5 43462.5 A1830.71 1830.71 0.0 0 0 44419.1 43462.5" />
<path d="M44419.1 48501.9 A1830.71 1830.71 0.0 0 0 48080.5 48501.9" />
<circle cx="63123.8" cy="51368" r="1587.06" /> 
<path d="M65485 53730
L63123 53730
" />
<path d="M65485 49005
L65485 53730
" />
<path d="M60761 49005
L65485 49005
" />
<path d="M60761 53730
L60761 49005
" />
<path d="M63123 53730
L60761 53730
" />
<g >
</g>
<g >
</g>
<g >
</g>
<g >
</g>
<g >
</g>
<g >
</g>
<g >
</g>
<g >
</g>
<g >
</g>
<g >
</g>
<g >
</g>
<g >
</g>
<g >
</g>
<g >
</g>
<g >
</g>
<g >
</g>
<g >
</g>
<g >
</g>
<g >
</g>
<g >
</g>
<g >
</g>
<g >
</g>
<g >
</g>
<g >
</g>
<g >
</g>
<g >
</g>
<g >
</g>
<g >
</g>
<g >
</g>
<g >
</g>
<g >
</g>
<g >
</g>
<g >
</g>
<g >
</g>
<g >
</g>
<g >
</g>
<g >
</g>
<g >
</g>
<g >
</g>
<g >
</g>
<g >
</g>
<g >
</g>
<g >
</g>
<g >
</g>
<g >
</g>
<g >
</g>
<g >
</g>
<g >
</g>
<g >
</g>
</g>
<g style="fill:#000000; fill-opacity:0.0; 
stroke:#000000; stroke-width:78.7402; stroke-opacity:1; 
stroke-linecap:round; stroke-linejoin:round;">
</g>
<g style="fill:#000000; fill-opacity:0.0; 
stroke:#000000; stroke-width:94.4882; stroke-opacity:1; 
stroke-linecap:round; stroke-linejoin:round;">
<g transform="rotate(-90 19884.4 30278)">
<text x="19884.4" y="30671.7"
textLength="1728.35" font-size="1049.87" lengthAdjust="spacingAndGlyphs"
text-anchor="middle" opacity="0">U1</text>
</g>
<path d="M19453 30877
L20090 30877
L20165 30840
L20203 30802
L20240 30727
L20240 30577
L20203 30502
L20165 30465
L20090 30427
L19453 30427
" />
<path d="M20240 29640
L20240 30090
" />
<path d="M20240 29865
L19453 29865
L19565 29940
L19640 30015
L19678 30090
" />
</g>
<g style="fill:#000000; fill-opacity:0.0; 
stroke:#000000; stroke-width:118.11; stroke-opacity:1; 
stroke-linecap:round; stroke-linejoin:round;">
<g transform="rotate(-90 47793.1 57352.3)">
<text x="47793.1" y="57746"
textLength="1697.64" font-size="1049.87" lengthAdjust="spacingAndGlyphs"
text-anchor="middle" opacity="0">H4</text>
</g>
<path d="M48149 57952
L47361 57952
" />
<path d="M47736 57952
L47736 57502
" />
<path d="M48149 57502
L47361 57502
" />
<path d="M47624 56789
L48149 56789
" />
<path d="M47324 56977
L47886 57164
L47886 56677
" />
<text x="41612" y="57746"
textLength="1503.37" font-size="1049.87" lengthAdjust="spacingAndGlyphs"
text-anchor="middle" opacity="0">J7</text>
<path d="M41349 56921
L41349 57483
L41312 57596
L41237 57671
L41124 57708
L41049 57708
" />
<path d="M41649 56921
L42174 56921
L41836 57708
" />
<g transform="rotate(-90 45627.7 25462.5)">
<text x="45627.7" y="25856.2"
textLength="2628.23" font-size="1049.87" lengthAdjust="spacingAndGlyphs"
text-anchor="middle" opacity="0">PWR</text>
</g>
<path d="M45983 26512
L45196 26512
L45196 26212
L45234 26137
L45271 26099
L45346 26062
L45459 26062
L45533 26099
L45571 26137
L45608 26212
L45608 26512
" />
<path d="M45196 25799
L45983 25612
L45421 25462
L45983 25312
L45196 25125
" />
<path d="M45983 24375
L45608 24637
" />
<path d="M45983 24825
L45196 24825
L45196 24525
L45234 24450
L45271 24412
L45346 24375
L45459 24375
L45533 24412
L45571 24450
L45608 24525
L45608 24825
" />
<text x="52808.8" y="25856.2"
textLength="1503.37" font-size="1049.87" lengthAdjust="spacingAndGlyphs"
text-anchor="middle" opacity="0">J5</text>
<path d="M52546 25031
L52546 25593
L52508 25706
L52433 25781
L52321 25818
L52246 25818
" />
<path d="M53296 25031
L52921 25031
L52883 25406
L52921 25368
L52996 25331
L53183 25331
L53258 25368
L53296 25406
L53333 25481
L53333 25668
L53296 25743
L53258 25781
L53183 25818
L52996 25818
L52921 25781
L52883 25743
" />
<text x="13871.8" y="54958.6"
textLength="1728.35" font-size="1049.87" lengthAdjust="spacingAndGlyphs"
text-anchor="middle" opacity="0">H2</text>
<path d="M13271 54921
L13271 54133
" />
<path d="M13271 54508
L13721 54508
" />
<path d="M13721 54921
L13721 54133
" />
<path d="M14059 54208
L14096 54171
L14171 54133
L14359 54133
L14434 54171
L14471 54208
L14509 54283
L14509 54358
L14471 54471
L14021 54921
L14509 54921
" />
<g transform="rotate(-90 13871.8 41383.8)">
<text x="13871.8" y="41777.5"
textLength="1503.37" font-size="1049.87" lengthAdjust="spacingAndGlyphs"
text-anchor="middle" opacity="0">J3</text>
</g>
<path d="M13440 41646
L14003 41646
L14115 41683
L14190 41758
L14228 41871
L14228 41946
" />
<path d="M13440 41346
L13440 40858
L13740 41121
L13740 41008
L13778 40933
L13815 40896
L13890 40858
L14078 40858
L14153 40896
L14190 40933
L14228 41008
L14228 41233
L14190 41308
L14153 41346
" />
<g transform="rotate(-90 45336.4 25462.5)">
<text x="45336.4" y="25856.2"
textLength="1728.35" font-size="1049.87" lengthAdjust="spacingAndGlyphs"
text-anchor="middle" opacity="0">H3</text>
</g>
<path d="M45692 26062
L44905 26062
" />
<path d="M45280 26062
L45280 25612
" />
<path d="M45692 25612
L44905 25612
" />
<path d="M44905 25312
L44905 24825
L45205 25087
L45205 24975
L45242 24900
L45280 24862
L45355 24825
L45542 24825
L45617 24862
L45655 24900
L45692 24975
L45692 25200
L45655 25275
L45617 25312
" />
<text x="32155.3" y="25856.2"
textLength="1503.37" font-size="1049.87" lengthAdjust="spacingAndGlyphs"
text-anchor="middle" opacity="0">J1</text>
<path d="M31892 25031
L31892 25593
L31855 25706
L31780 25781
L31667 25818
L31592 25818
" />
<path d="M32680 25818
L32230 25818
" />
<path d="M32455 25818
L32455 25031
L32380 25143
L32305 25218
L32230 25256
" />
<g transform="rotate(-90 37336.4 57352.3)">
<text x="37336.4" y="57746"
textLength="1728.35" font-size="1049.87" lengthAdjust="spacingAndGlyphs"
text-anchor="middle" opacity="0">H1</text>
</g>
<path d="M37692 57952
L36905 57952
" />
<path d="M37280 57952
L37280 57502
" />
<path d="M37692 57502
L36905 57502
" />
<path d="M37692 56714
L37692 57164
" />
<path d="M37692 56939
L36905 56939
L37017 57014
L37092 57089
L37130 57164
" />
<text x="28155.3" y="57746"
textLength="1503.37" font-size="1049.87" lengthAdjust="spacingAndGlyphs"
text-anchor="middle" opacity="0">J4</text>
<path d="M27892 56921
L27892 57483
L27855 57596
L27780 57671
L27667 57708
L27592 57708
" />
<path d="M28605 57183
L28605 57708
" />
<path d="M28417 56883
L28230 57446
L28717 57446
" />
<g transform="rotate(-90 59423 40935)">
<text x="59423" y="41328.7"
textLength="2403.26" font-size="1049.87" lengthAdjust="spacingAndGlyphs"
text-anchor="middle" opacity="0">330</text>
</g>
<path d="M58991 41947
L58991 41459
L59291 41722
L59291 41609
L59329 41534
L59366 41497
L59441 41459
L59629 41459
L59704 41497
L59741 41534
L59779 41609
L59779 41834
L59741 41909
L59704 41947
" />
<path d="M58991 41197
L58991 40710
L59291 40972
L59291 40859
L59329 40784
L59366 40747
L59441 40710
L59629 40710
L59704 40747
L59741 40784
L59779 40859
L59779 41084
L59741 41159
L59704 41197
" />
<path d="M58991 40222
L58991 40147
L59029 40072
L59066 40035
L59141 39997
L59291 39960
L59479 39960
L59629 39997
L59704 40035
L59741 40072
L59779 40147
L59779 40222
L59741 40297
L59704 40335
L59629 40372
L59479 40410
L59291 40410
L59141 40372
L59066 40335
L59029 40297
L58991 40222
" />
</g>
<g style="fill:#000000; fill-opacity:0.0; 
stroke:#000000; stroke-width:62.9921; stroke-opacity:1; 
stroke-linecap:round; stroke-linejoin:round;">
<g transform="rotate(-90 60722.2 40935)">
<text x="60722.2" y="41328.7"
textLength="1690.85" font-size="1049.87" lengthAdjust="spacingAndGlyphs"
text-anchor="middle" opacity="0">R2</text>
</g>
<path d="M61078 41066
L60703 41328
" />
<path d="M61078 41516
L60291 41516
L60291 41216
L60328 41141
L60366 41103
L60441 41066
L60553 41066
L60628 41103
L60665 41141
L60703 41216
L60703 41516
" />
<path d="M60366 40766
L60328 40728
L60291 40653
L60291 40466
L60328 40391
L60366 40353
L60441 40316
L60515 40316
L60628 40353
L61078 40803
L61078 40316
" />
</g>
<g style="fill:#000000; fill-opacity:0.0; 
stroke:#000000; stroke-width:118.11; stroke-opacity:1; 
stroke-linecap:round; stroke-linejoin:round;">
<g transform="rotate(-90 54423 40935)">
<text x="54423" y="41328.7"
textLength="1469.22" font-size="1049.87" lengthAdjust="spacingAndGlyphs"
text-anchor="middle" opacity="0">1k</text>
</g>
<path d="M54779 41028
L54779 41478
" />
<path d="M54779 41253
L53991 41253
L54104 41328
L54179 41403
L54216 41478
" />
<path d="M54779 40691
L53991 40691
" />
<path d="M54479 40616
L54779 40391
" />
<path d="M54254 40391
L54554 40691
" />
</g>
<g style="fill:#000000; fill-opacity:0.0; 
stroke:#000000; stroke-width:62.9921; stroke-opacity:1; 
stroke-linecap:round; stroke-linejoin:round;">
<g transform="rotate(-90 53123.8 40935)">
<text x="53123.8" y="41328.7"
textLength="1690.85" font-size="1049.87" lengthAdjust="spacingAndGlyphs"
text-anchor="middle" opacity="0">R6</text>
</g>
<path d="M53479 41066
L53105 41328
" />
<path d="M53479 41516
L52692 41516
L52692 41216
L52730 41141
L52767 41103
L52842 41066
L52955 41066
L53030 41103
L53067 41141
L53105 41216
L53105 41516
" />
<path d="M52692 40391
L52692 40541
L52730 40616
L52767 40653
L52880 40728
L53030 40766
L53330 40766
L53405 40728
L53442 40691
L53479 40616
L53479 40466
L53442 40391
L53405 40353
L53330 40316
L53142 40316
L53067 40353
L53030 40391
L52992 40466
L52992 40616
L53030 40691
L53067 40728
L53142 40766
" />
</g>
<g style="fill:#000000; fill-opacity:0.0; 
stroke:#000000; stroke-width:118.11; stroke-opacity:1; 
stroke-linecap:round; stroke-linejoin:round;">
<g transform="rotate(-90 59423 32155.4)">
<text x="59423" y="32549.1"
textLength="2331.61" font-size="1049.87" lengthAdjust="spacingAndGlyphs"
text-anchor="middle" opacity="0">330</text>
</g>
<path d="M58991 33167
L58991 32680
L59291 32942
L59291 32830
L59329 32755
L59366 32717
L59441 32680
L59629 32680
L59704 32717
L59741 32755
L59779 32830
L59779 33055
L59741 33130
L59704 33167
" />
<path d="M58991 32417
L58991 31930
L59291 32192
L59291 32080
L59329 32005
L59366 31967
L59441 31930
L59629 31930
L59704 31967
L59741 32005
L59779 32080
L59779 32305
L59741 32380
L59704 32417
" />
<path d="M58991 31443
L58991 31368
L59029 31293
L59066 31255
L59141 31218
L59291 31180
L59479 31180
L59629 31218
L59704 31255
L59741 31293
L59779 31368
L59779 31443
L59741 31518
L59704 31555
L59629 31593
L59479 31630
L59291 31630
L59141 31593
L59066 31555
L59029 31518
L58991 31443
" />
</g>
<g style="fill:#000000; fill-opacity:0.0; 
stroke:#000000; stroke-width:62.9921; stroke-opacity:1; 
stroke-linecap:round; stroke-linejoin:round;">
<g transform="rotate(-90 60722.2 32155.4)">
<text x="60722.2" y="32549.1"
textLength="1690.85" font-size="1049.87" lengthAdjust="spacingAndGlyphs"
text-anchor="middle" opacity="0">R1</text>
</g>
<path d="M61078 32286
L60703 32549
" />
<path d="M61078 32736
L60291 32736
L60291 32436
L60328 32361
L60366 32324
L60441 32286
L60553 32286
L60628 32324
L60665 32361
L60703 32436
L60703 32736
" />
<path d="M61078 31536
L61078 31986
" />
<path d="M61078 31761
L60291 31761
L60403 31836
L60478 31911
L60515 31986
" />
</g>
<g style="fill:#000000; fill-opacity:0.0; 
stroke:#000000; stroke-width:118.11; stroke-opacity:1; 
stroke-linecap:round; stroke-linejoin:round;">
<g transform="rotate(-90 54423 32155.4)">
<text x="54423" y="32549.1"
textLength="1469.22" font-size="1049.87" lengthAdjust="spacingAndGlyphs"
text-anchor="middle" opacity="0">1k</text>
</g>
<path d="M54779 32249
L54779 32699
" />
<path d="M54779 32474
L53991 32474
L54104 32549
L54179 32624
L54216 32699
" />
<path d="M54779 31911
L53991 31911
" />
<path d="M54479 31836
L54779 31611
" />
<path d="M54254 31611
L54554 31911
" />
</g>
<g style="fill:#000000; fill-opacity:0.0; 
stroke:#000000; stroke-width:62.9921; stroke-opacity:1; 
stroke-linecap:round; stroke-linejoin:round;">
<g transform="rotate(-90 53123.8 32155.4)">
<text x="53123.8" y="32549.1"
textLength="1690.85" font-size="1049.87" lengthAdjust="spacingAndGlyphs"
text-anchor="middle" opacity="0">R5</text>
</g>
<path d="M53479 32286
L53105 32549
" />
<path d="M53479 32736
L52692 32736
L52692 32436
L52730 32361
L52767 32324
L52842 32286
L52955 32286
L53030 32324
L53067 32361
L53105 32436
L53105 32736
" />
<path d="M52692 31574
L52692 31949
L53067 31986
L53030 31949
L52992 31874
L52992 31686
L53030 31611
L53067 31574
L53142 31536
L53330 31536
L53405 31574
L53442 31611
L53479 31686
L53479 31874
L53442 31949
L53405 31986
" />
</g>
<g style="fill:#000000; fill-opacity:0.0; 
stroke:#000000; stroke-width:118.11; stroke-opacity:1; 
stroke-linecap:round; stroke-linejoin:round;">
<text x="55682.8" y="39360.2"
textLength="6831.05" font-size="1049.87" lengthAdjust="spacingAndGlyphs"
text-anchor="middle" opacity="0">Q_NPN_BCE</text>
<path d="M53020 39397
L52945 39360
L52870 39285
L52758 39172
L52683 39135
L52608 39135
" />
<path d="M52645 39322
L52570 39285
L52495 39210
L52458 39060
L52458 38797
L52495 38647
L52570 38572
L52645 38535
L52795 38535
L52870 38572
L52945 38647
L52983 38797
L52983 39060
L52945 39210
L52870 39285
L52795 39322
L52645 39322
" />
<path d="M53133 39397
L53733 39397
" />
<path d="M53920 39322
L53920 38535
L54370 39322
L54370 38535
" />
<path d="M54745 39322
L54745 38535
L55045 38535
L55120 38572
L55157 38610
L55195 38685
L55195 38797
L55157 38872
L55120 38910
L55045 38947
L54745 38947
" />
<path d="M55532 39322
L55532 38535
L55982 39322
L55982 38535
" />
<path d="M56170 39397
L56770 39397
" />
<path d="M57220 38910
L57332 38947
L57370 38985
L57407 39060
L57407 39172
L57370 39247
L57332 39285
L57257 39322
L56957 39322
L56957 38535
L57220 38535
L57295 38572
L57332 38610
L57370 38685
L57370 38760
L57332 38835
L57295 38872
L57220 38910
L56957 38910
" />
<path d="M58195 39247
L58157 39285
L58045 39322
L57970 39322
L57857 39285
L57782 39210
L57745 39135
L57707 38985
L57707 38872
L57745 38722
L57782 38647
L57857 38572
L57970 38535
L58045 38535
L58157 38572
L58195 38610
" />
<path d="M58532 38910
L58794 38910
" />
<path d="M58907 39322
L58532 39322
L58532 38535
L58907 38535
" />
</g>
<g style="fill:#000000; fill-opacity:0.0; 
stroke:#000000; stroke-width:59.0551; stroke-opacity:1; 
stroke-linecap:round; stroke-linejoin:round;">
<g transform="rotate(-90 55682.8 40935)">
<text x="55682.8" y="41328.7"
textLength="1728.35" font-size="1049.87" lengthAdjust="spacingAndGlyphs"
text-anchor="middle" opacity="0">Q2</text>
</g>
<path d="M56114 41009
L56076 41084
L56001 41159
L55889 41272
L55851 41347
L55851 41422
" />
<path d="M56039 41384
L56001 41459
L55926 41534
L55776 41572
L55514 41572
L55364 41534
L55289 41459
L55251 41384
L55251 41234
L55289 41159
L55364 41084
L55514 41047
L55776 41047
L55926 41084
L56001 41159
L56039 41234
L56039 41384
" />
<path d="M55326 40747
L55289 40710
L55251 40635
L55251 40447
L55289 40372
L55326 40335
L55401 40297
L55476 40297
L55589 40335
L56039 40784
L56039 40297
" />
</g>
<g style="fill:#000000; fill-opacity:0.0; 
stroke:#000000; stroke-width:118.11; stroke-opacity:1; 
stroke-linecap:round; stroke-linejoin:round;">
<text x="55682.8" y="30580.6"
textLength="6825.93" font-size="1049.87" lengthAdjust="spacingAndGlyphs"
text-anchor="middle" opacity="0">Q_NPN_BCE</text>
<path d="M53020 30618
L52945 30580
L52870 30505
L52758 30393
L52683 30355
L52608 30355
" />
<path d="M52645 30543
L52570 30505
L52495 30430
L52458 30280
L52458 30018
L52495 29868
L52570 29793
L52645 29755
L52795 29755
L52870 29793
L52945 29868
L52983 30018
L52983 30280
L52945 30430
L52870 30505
L52795 30543
L52645 30543
" />
<path d="M53133 30618
L53733 30618
" />
<path d="M53920 30543
L53920 29755
L54370 30543
L54370 29755
" />
<path d="M54745 30543
L54745 29755
L55045 29755
L55120 29793
L55157 29830
L55195 29905
L55195 30018
L55157 30093
L55120 30130
L55045 30168
L54745 30168
" />
<path d="M55532 30543
L55532 29755
L55982 30543
L55982 29755
" />
<path d="M56170 30618
L56770 30618
" />
<path d="M57220 30130
L57332 30168
L57370 30205
L57407 30280
L57407 30393
L57370 30468
L57332 30505
L57257 30543
L56957 30543
L56957 29755
L57220 29755
L57295 29793
L57332 29830
L57370 29905
L57370 29980
L57332 30055
L57295 30093
L57220 30130
L56957 30130
" />
<path d="M58195 30468
L58157 30505
L58045 30543
L57970 30543
L57857 30505
L57782 30430
L57745 30355
L57707 30205
L57707 30093
L57745 29943
L57782 29868
L57857 29793
L57970 29755
L58045 29755
L58157 29793
L58195 29830
" />
<path d="M58532 30130
L58794 30130
" />
<path d="M58907 30543
L58532 30543
L58532 29755
L58907 29755
" />
</g>
<g style="fill:#000000; fill-opacity:0.0; 
stroke:#000000; stroke-width:59.0551; stroke-opacity:1; 
stroke-linecap:round; stroke-linejoin:round;">
<g transform="rotate(-90 55682.8 32155.4)">
<text x="55682.8" y="32549.1"
textLength="1728.35" font-size="1049.87" lengthAdjust="spacingAndGlyphs"
text-anchor="middle" opacity="0">Q1</text>
</g>
<path d="M56114 32230
L56076 32305
L56001 32380
L55889 32492
L55851 32567
L55851 32642
" />
<path d="M56039 32605
L56001 32680
L55926 32755
L55776 32792
L55514 32792
L55364 32755
L55289 32680
L55251 32605
L55251 32455
L55289 32380
L55364 32305
L55514 32267
L55776 32267
L55926 32305
L56001 32380
L56039 32455
L56039 32605
" />
<path d="M56039 31518
L56039 31967
" />
<path d="M56039 31742
L55251 31742
L55364 31817
L55439 31892
L55476 31967
" />
</g>
<g style="fill:#000000; fill-opacity:0.0; 
stroke:#000000; stroke-width:118.11; stroke-opacity:1; 
stroke-linecap:round; stroke-linejoin:round;">
<g transform="rotate(-90 67037.2 39486.2)">
<text x="67037.2" y="39879.9"
textLength="1426.6" font-size="1049.87" lengthAdjust="spacingAndGlyphs"
text-anchor="middle" opacity="0">J2</text>
</g>
<path d="M66605 39748
L67168 39748
L67280 39786
L67355 39861
L67393 39973
L67393 40048
" />
<path d="M66680 39411
L66643 39373
L66605 39298
L66605 39111
L66643 39036
L66680 38998
L66755 38961
L66830 38961
L66943 38998
L67393 39448
L67393 38961
" />
</g>
<g style="fill:#000000; fill-opacity:0.0; 
stroke:#000000; stroke-width:62.9921; stroke-opacity:1; 
stroke-linecap:round; stroke-linejoin:round;">
<g transform="rotate(-90 58517.5 40952.7)">
<text x="58517.5" y="41346.4"
textLength="1690.85" font-size="1049.87" lengthAdjust="spacingAndGlyphs"
text-anchor="middle" opacity="0">D1</text>
</g>
<path d="M58873 41533
L58086 41533
L58086 41346
L58123 41233
L58198 41158
L58273 41121
L58423 41083
L58536 41083
L58686 41121
L58761 41158
L58836 41233
L58873 41346
L58873 41533
" />
<path d="M58873 40334
L58873 40783
" />
<path d="M58873 40558
L58086 40558
L58198 40633
L58273 40708
L58311 40783
" />
<g transform="rotate(-90 58517.5 32173.2)">
<text x="58517.5" y="32566.9"
textLength="1619.2" font-size="1049.87" lengthAdjust="spacingAndGlyphs"
text-anchor="middle" opacity="0">D2</text>
</g>
<path d="M58873 32754
L58086 32754
L58086 32566
L58123 32454
L58198 32379
L58273 32341
L58423 32304
L58536 32304
L58686 32341
L58761 32379
L58836 32454
L58873 32566
L58873 32754
" />
<path d="M58161 32004
L58123 31966
L58086 31891
L58086 31704
L58123 31629
L58161 31591
L58236 31554
L58311 31554
L58423 31591
L58873 32041
L58873 31554
" />
</g>
<g style="fill:#000000; fill-opacity:0.0; 
stroke:#000000; stroke-width:118.11; stroke-opacity:1; 
stroke-linecap:round; stroke-linejoin:round;">
<text x="57021.4" y="51879.9"
textLength="1619.2" font-size="1049.87" lengthAdjust="spacingAndGlyphs"
text-anchor="middle" opacity="0">1K</text>
<path d="M56852 51842
L56402 51842
" />
<path d="M56627 51842
L56627 51054
L56552 51167
L56477 51242
L56402 51279
" />
<path d="M57190 51842
L57190 51054
" />
<path d="M57640 51842
L57302 51392
" />
<path d="M57640 51054
L57190 51504
" />
</g>
<g style="fill:#000000; fill-opacity:0.0; 
stroke:#000000; stroke-width:62.9921; stroke-opacity:1; 
stroke-linecap:round; stroke-linejoin:round;">
<text x="57021.4" y="50580.6"
textLength="1690.85" font-size="1049.87" lengthAdjust="spacingAndGlyphs"
text-anchor="middle" opacity="0">R4</text>
<path d="M56890 50543
L56627 50168
" />
<path d="M56440 50543
L56440 49755
L56740 49755
L56815 49793
L56852 49830
L56890 49905
L56890 50018
L56852 50093
L56815 50130
L56740 50168
L56440 50168
" />
<path d="M57565 50018
L57565 50543
" />
<path d="M57377 49718
L57190 50280
L57677 50280
" />
</g>
<g style="fill:#000000; fill-opacity:0.0; 
stroke:#000000; stroke-width:118.11; stroke-opacity:1; 
stroke-linecap:round; stroke-linejoin:round;">
<text x="57021.4" y="47116.1"
textLength="2369.1" font-size="1049.87" lengthAdjust="spacingAndGlyphs"
text-anchor="middle" opacity="0">10K</text>
<path d="M56477 47078
L56027 47078
" />
<path d="M56252 47078
L56252 46291
L56177 46403
L56102 46478
L56027 46516
" />
<path d="M56965 46291
L57040 46291
L57115 46328
L57152 46366
L57190 46441
L57227 46591
L57227 46778
L57190 46928
L57152 47003
L57115 47041
L57040 47078
L56965 47078
L56890 47041
L56852 47003
L56815 46928
L56777 46778
L56777 46591
L56815 46441
L56852 46366
L56890 46328
L56965 46291
" />
<path d="M57565 47078
L57565 46291
" />
<path d="M58015 47078
L57677 46628
" />
<path d="M58015 46291
L57565 46741
" />
</g>
<g style="fill:#000000; fill-opacity:0.0; 
stroke:#000000; stroke-width:62.9921; stroke-opacity:1; 
stroke-linecap:round; stroke-linejoin:round;">
<text x="57021.4" y="48415.3"
textLength="1690.85" font-size="1049.87" lengthAdjust="spacingAndGlyphs"
text-anchor="middle" opacity="0">R3</text>
<path d="M56890 48377
L56627 48002
" />
<path d="M56440 48377
L56440 47590
L56740 47590
L56815 47627
L56852 47665
L56890 47740
L56890 47852
L56852 47927
L56815 47965
L56740 48002
L56440 48002
" />
<path d="M57152 47590
L57640 47590
L57377 47890
L57490 47890
L57565 47927
L57602 47965
L57640 48040
L57640 48227
L57602 48302
L57565 48340
L57490 48377
L57265 48377
L57190 48340
L57152 48302
" />
</g>
<g style="fill:#000000; fill-opacity:0.0; 
stroke:#000000; stroke-width:118.11; stroke-opacity:1; 
stroke-linecap:round; stroke-linejoin:round;">
<g transform="rotate(-90 48265.5 47706.6)">
<text x="48265.5" y="48100.3"
textLength="2294.11" font-size="1049.87" lengthAdjust="spacingAndGlyphs"
text-anchor="middle" opacity="0">18n</text>
</g>
<path d="M48621 48212
L48621 48662
" />
<path d="M48621 48437
L47834 48437
L47946 48512
L48021 48587
L48059 48662
" />
<path d="M48171 47762
L48134 47837
L48096 47875
L48021 47912
L47984 47912
L47909 47875
L47871 47837
L47834 47762
L47834 47612
L47871 47537
L47909 47500
L47984 47462
L48021 47462
L48096 47500
L48134 47537
L48171 47612
L48171 47762
L48209 47837
L48246 47875
L48321 47912
L48471 47912
L48546 47875
L48584 47837
L48621 47762
L48621 47612
L48584 47537
L48546 47500
L48471 47462
L48321 47462
L48246 47500
L48209 47537
L48171 47612
" />
<path d="M48096 47125
L48621 47125
" />
<path d="M48171 47125
L48134 47087
L48096 47012
L48096 46900
L48134 46825
L48209 46787
L48621 46787
" />
</g>
<g style="fill:#000000; fill-opacity:0.0; 
stroke:#000000; stroke-width:62.9921; stroke-opacity:1; 
stroke-linecap:round; stroke-linejoin:round;">
<g transform="rotate(-90 49588.4 47706.6)">
<text x="49588.4" y="48100.3"
textLength="2440.76" font-size="1049.87" lengthAdjust="spacingAndGlyphs"
text-anchor="middle" opacity="0">C18</text>
</g>
<path d="M49869 48212
L49907 48250
L49944 48362
L49944 48437
L49907 48550
L49832 48625
L49757 48662
L49607 48700
L49494 48700
L49344 48662
L49269 48625
L49194 48550
L49157 48437
L49157 48362
L49194 48250
L49232 48212
" />
<path d="M49944 47462
L49944 47912
" />
<path d="M49944 47687
L49157 47687
L49269 47762
L49344 47837
L49382 47912
" />
<path d="M49494 47012
L49457 47087
L49419 47125
L49344 47162
L49307 47162
L49232 47125
L49194 47087
L49157 47012
L49157 46862
L49194 46787
L49232 46750
L49307 46713
L49344 46713
L49419 46750
L49457 46787
L49494 46862
L49494 47012
L49532 47087
L49569 47125
L49644 47162
L49794 47162
L49869 47125
L49907 47087
L49944 47012
L49944 46862
L49907 46787
L49869 46750
L49794 46713
L49644 46713
L49569 46750
L49532 46787
L49494 46862
" />
</g>
<g style="fill:#000000; fill-opacity:0.0; 
stroke:#000000; stroke-width:118.11; stroke-opacity:1; 
stroke-linecap:round; stroke-linejoin:round;">
<g transform="rotate(-90 50911.2 44557)">
<text x="50911.2" y="44950.7"
textLength="2294.11" font-size="1049.87" lengthAdjust="spacingAndGlyphs"
text-anchor="middle" opacity="0">18p</text>
</g>
<path d="M51267 45063
L51267 45513
" />
<path d="M51267 45288
L50479 45288
L50592 45363
L50667 45438
L50704 45513
" />
<path d="M50817 44613
L50779 44688
L50742 44725
L50667 44763
L50629 44763
L50554 44725
L50517 44688
L50479 44613
L50479 44463
L50517 44388
L50554 44350
L50629 44313
L50667 44313
L50742 44350
L50779 44388
L50817 44463
L50817 44613
L50854 44688
L50892 44725
L50967 44763
L51117 44763
L51192 44725
L51229 44688
L51267 44613
L51267 44463
L51229 44388
L51192 44350
L51117 44313
L50967 44313
L50892 44350
L50854 44388
L50817 44463
" />
<path d="M50742 43975
L51529 43975
" />
<path d="M50779 43975
L50742 43900
L50742 43750
L50779 43675
L50817 43638
L50892 43600
L51117 43600
L51192 43638
L51229 43675
L51267 43750
L51267 43900
L51229 43975
" />
</g>
<g style="fill:#000000; fill-opacity:0.0; 
stroke:#000000; stroke-width:62.9921; stroke-opacity:1; 
stroke-linecap:round; stroke-linejoin:round;">
<g transform="rotate(-90 49588.4 44557)">
<text x="49588.4" y="44950.7"
textLength="2440.76" font-size="1049.87" lengthAdjust="spacingAndGlyphs"
text-anchor="middle" opacity="0">C17</text>
</g>
<path d="M49869 45063
L49907 45100
L49944 45213
L49944 45288
L49907 45400
L49832 45475
L49757 45513
L49607 45550
L49494 45550
L49344 45513
L49269 45475
L49194 45400
L49157 45288
L49157 45213
L49194 45100
L49232 45063
" />
<path d="M49944 44313
L49944 44763
" />
<path d="M49944 44538
L49157 44538
L49269 44613
L49344 44688
L49382 44763
" />
<path d="M49157 44050
L49157 43525
L49944 43863
" />
</g>
<g style="fill:#000000; fill-opacity:0.0; 
stroke:#000000; stroke-width:118.11; stroke-opacity:1; 
stroke-linecap:round; stroke-linejoin:round;">
<text x="57021.4" y="51423.2"
textLength="3044.02" font-size="1049.87" lengthAdjust="spacingAndGlyphs"
text-anchor="middle" opacity="0">100n</text>
<path d="M56140 51385
L55690 51385
" />
<path d="M55915 51385
L55915 50598
L55840 50710
L55765 50785
L55690 50823
" />
<path d="M56627 50598
L56702 50598
L56777 50635
L56815 50673
L56852 50748
L56890 50898
L56890 51085
L56852 51235
L56815 51310
L56777 51348
L56702 51385
L56627 51385
L56552 51348
L56515 51310
L56477 51235
L56440 51085
L56440 50898
L56477 50748
L56515 50673
L56552 50635
L56627 50598
" />
<path d="M57377 50598
L57452 50598
L57527 50635
L57565 50673
L57602 50748
L57640 50898
L57640 51085
L57602 51235
L57565 51310
L57527 51348
L57452 51385
L57377 51385
L57302 51348
L57265 51310
L57227 51235
L57190 51085
L57190 50898
L57227 50748
L57265 50673
L57302 50635
L57377 50598
" />
<path d="M57977 50860
L57977 51385
" />
<path d="M57977 50935
L58015 50898
L58090 50860
L58202 50860
L58277 50898
L58315 50973
L58315 51385
" />
</g>
<g style="fill:#000000; fill-opacity:0.0; 
stroke:#000000; stroke-width:62.9921; stroke-opacity:1; 
stroke-linecap:round; stroke-linejoin:round;">
<text x="57021.4" y="52746"
textLength="2440.76" font-size="1049.87" lengthAdjust="spacingAndGlyphs"
text-anchor="middle" opacity="0">C19</text>
<path d="M56515 52633
L56477 52671
L56365 52708
L56290 52708
L56177 52671
L56102 52596
L56065 52521
L56027 52371
L56027 52258
L56065 52108
L56102 52033
L56177 51958
L56290 51921
L56365 51921
L56477 51958
L56515 51996
" />
<path d="M57265 52708
L56815 52708
" />
<path d="M57040 52708
L57040 51921
L56965 52033
L56890 52108
L56815 52146
" />
<path d="M57640 52708
L57790 52708
L57865 52671
L57902 52633
L57977 52521
L58015 52371
L58015 52071
L57977 51996
L57940 51958
L57865 51921
L57715 51921
L57640 51958
L57602 51996
L57565 52071
L57565 52258
L57602 52333
L57640 52371
L57715 52408
L57865 52408
L57940 52371
L57977 52333
L58015 52258
" />
</g>
<g style="fill:#000000; fill-opacity:0.0; 
stroke:#000000; stroke-width:118.11; stroke-opacity:1; 
stroke-linecap:round; stroke-linejoin:round;">
<g transform="rotate(-90 46249.8 45982.2)">
<text x="46249.8" y="46375.9"
textLength="1506.71" font-size="1049.87" lengthAdjust="spacingAndGlyphs"
text-anchor="middle" opacity="0">Y1</text>
</g>
<path d="M46231 46357
L46605 46357
" />
<path d="M45818 46619
L46231 46357
L45818 46094
" />
<path d="M46605 45419
L46605 45869
" />
<path d="M46605 45644
L45818 45644
L45931 45719
L46006 45794
L46043 45869
" />
</g>
<g style="fill:#000000; fill-opacity:0.0; 
stroke:#000000; stroke-width:94.4882; stroke-opacity:1; 
stroke-linecap:round; stroke-linejoin:round;">
<text x="63123.8" y="51761.7"
textLength="2553.24" font-size="1049.87" lengthAdjust="spacingAndGlyphs"
text-anchor="middle" opacity="0">SW1</text>
<path d="M62073 51686
L62186 51724
L62373 51724
L62448 51686
L62486 51649
L62523 51574
L62523 51499
L62486 51424
L62448 51386
L62373 51349
L62223 51311
L62148 51274
L62111 51236
L62073 51161
L62073 51086
L62111 51011
L62148 50974
L62223 50936
L62411 50936
L62523 50974
" />
<path d="M62786 50936
L62973 51724
L63123 51161
L63273 51724
L63461 50936
" />
<path d="M64173 51724
L63723 51724
" />
<path d="M63948 51724
L63948 50936
L63873 51049
L63798 51124
L63723 51161
" />
<g >
</g>
</g> 
</svg>
