<?xml version="1.0" standalone="no"?>
 <!DOCTYPE svg PUBLIC "-//W3C//DTD SVG 1.1//EN" 
 "http://www.w3.org/Graphics/SVG/1.1/DTD/svg11.dtd"> 
<svg
  xmlns:svg="http://www.w3.org/2000/svg"
  xmlns="http://www.w3.org/2000/svg"
  xmlns:xlink="http://www.w3.org/1999/xlink"
  version="1.1"
  width="29.700220cm" height="21.000720cm" viewBox="0 0 116930 82680">
<title>SVG Picture created as board-F_Mask.svg date 2021/03/29 15:50:38 </title>
  <desc>Picture generated by PCBNEW </desc>
<g style="fill:#000000; fill-opacity:1;stroke:#000000; stroke-opacity:1;
stroke-linecap:round; stroke-linejoin:round;"
 transform="translate(0 0) scale(1 1)">
</g>
<g style="fill:#000000; fill-opacity:0.0; 
stroke:#000000; stroke-width:-0.000787402; stroke-opacity:1; 
stroke-linecap:round; stroke-linejoin:round;">
</g>
<g style="fill:#000000; fill-opacity:0.0; 
stroke:#000000; stroke-width:78.7402; stroke-opacity:1; 
stroke-linecap:round; stroke-linejoin:round;">
<path d="M11509.6 57352.3 A2362.2 2362.2 0.0 0 0 13871.8 59714.5" />
<path d="M13871.8 23100.3 A2362.2 2362.2 0.0 0 0 11509.6 25462.5" />
<path d="M68202.5 25462.5 A2362.2 2362.2 0.0 0 0 65840.3 23100.3" />
<path d="M65840.3 59714.5 A2362.21 2362.21 0.0 0 0 68202.5 57352.3" />
<path d="M13871 59714
L65840 59714
" />
<path d="M11509 25462
L11509 57352
" />
<path d="M65840 23100
L13871 23100
" />
<path d="M68202 57352
L68202 25462
" />
<g >
</g>
<g >
</g>
<g style="fill:#000000; fill-opacity:0.0; 
stroke:#000000; stroke-width:78.7402; stroke-opacity:1; 
stroke-linecap:round; stroke-linejoin:round;">
</g>
<g style="fill:#000000; fill-opacity:1.0; 
stroke:#000000; stroke-width:0; stroke-opacity:1; 
stroke-linecap:round; stroke-linejoin:round;">
<circle cx="39234" cy="51210.6" r="560" /> 
</g>
<g style="fill:#000000; fill-opacity:1.0; 
stroke:#000000; stroke-width:118.11; stroke-opacity:1; 
stroke-linecap:round; stroke-linejoin:round;">
</g>
<g style="fill:#000000; fill-opacity:1.0; 
stroke:#000000; stroke-width:0; stroke-opacity:1; 
stroke-linecap:round; stroke-linejoin:round;">
<circle cx="37234" cy="51210.6" r="560" /> 
</g>
<g style="fill:#000000; fill-opacity:1.0; 
stroke:#000000; stroke-width:118.11; stroke-opacity:1; 
stroke-linecap:round; stroke-linejoin:round;">
</g>
<g style="fill:#000000; fill-opacity:1.0; 
stroke:#000000; stroke-width:0; stroke-opacity:1; 
stroke-linecap:round; stroke-linejoin:round;">
<circle cx="35234" cy="51210.6" r="560" /> 
</g>
<g style="fill:#000000; fill-opacity:1.0; 
stroke:#000000; stroke-width:118.11; stroke-opacity:1; 
stroke-linecap:round; stroke-linejoin:round;">
</g>
<g style="fill:#000000; fill-opacity:1.0; 
stroke:#000000; stroke-width:0; stroke-opacity:1; 
stroke-linecap:round; stroke-linejoin:round;">
<circle cx="33234" cy="51210.6" r="560" /> 
</g>
<g style="fill:#000000; fill-opacity:1.0; 
stroke:#000000; stroke-width:118.11; stroke-opacity:1; 
stroke-linecap:round; stroke-linejoin:round;">
</g>
<g style="fill:#000000; fill-opacity:1.0; 
stroke:#000000; stroke-width:0; stroke-opacity:1; 
stroke-linecap:round; stroke-linejoin:round;">
<circle cx="31234" cy="51210.6" r="560" /> 
</g>
<g style="fill:#000000; fill-opacity:1.0; 
stroke:#000000; stroke-width:118.11; stroke-opacity:1; 
stroke-linecap:round; stroke-linejoin:round;">
</g>
<g style="fill:#000000; fill-opacity:1.0; 
stroke:#000000; stroke-width:0; stroke-opacity:1; 
stroke-linecap:round; stroke-linejoin:round;">
<circle cx="29234" cy="51210.6" r="560" /> 
</g>
<g style="fill:#000000; fill-opacity:1.0; 
stroke:#000000; stroke-width:118.11; stroke-opacity:1; 
stroke-linecap:round; stroke-linejoin:round;">
</g>
<g style="fill:#000000; fill-opacity:1.0; 
stroke:#000000; stroke-width:0; stroke-opacity:1; 
stroke-linecap:round; stroke-linejoin:round;">
<circle cx="27234" cy="51210.6" r="560" /> 
</g>
<g style="fill:#000000; fill-opacity:1.0; 
stroke:#000000; stroke-width:118.11; stroke-opacity:1; 
stroke-linecap:round; stroke-linejoin:round;">
</g>
<g style="fill:#000000; fill-opacity:1.0; 
stroke:#000000; stroke-width:0; stroke-opacity:1; 
stroke-linecap:round; stroke-linejoin:round;">
<circle cx="25234" cy="51210.6" r="560" /> 
</g>
<g style="fill:#000000; fill-opacity:1.0; 
stroke:#000000; stroke-width:118.11; stroke-opacity:1; 
stroke-linecap:round; stroke-linejoin:round;">
</g>
<g style="fill:#000000; fill-opacity:1.0; 
stroke:#000000; stroke-width:0; stroke-opacity:1; 
stroke-linecap:round; stroke-linejoin:round;">
<circle cx="41234" cy="49210.6" r="560" /> 
</g>
<g style="fill:#000000; fill-opacity:1.0; 
stroke:#000000; stroke-width:118.11; stroke-opacity:1; 
stroke-linecap:round; stroke-linejoin:round;">
</g>
<g style="fill:#000000; fill-opacity:1.0; 
stroke:#000000; stroke-width:0; stroke-opacity:1; 
stroke-linecap:round; stroke-linejoin:round;">
<circle cx="37234" cy="49210.6" r="560" /> 
</g>
<g style="fill:#000000; fill-opacity:1.0; 
stroke:#000000; stroke-width:118.11; stroke-opacity:1; 
stroke-linecap:round; stroke-linejoin:round;">
</g>
<g style="fill:#000000; fill-opacity:1.0; 
stroke:#000000; stroke-width:0; stroke-opacity:1; 
stroke-linecap:round; stroke-linejoin:round;">
<circle cx="35234" cy="49210.6" r="560" /> 
</g>
<g style="fill:#000000; fill-opacity:1.0; 
stroke:#000000; stroke-width:118.11; stroke-opacity:1; 
stroke-linecap:round; stroke-linejoin:round;">
</g>
<g style="fill:#000000; fill-opacity:1.0; 
stroke:#000000; stroke-width:0; stroke-opacity:1; 
stroke-linecap:round; stroke-linejoin:round;">
<circle cx="33234" cy="49210.6" r="560" /> 
</g>
<g style="fill:#000000; fill-opacity:1.0; 
stroke:#000000; stroke-width:118.11; stroke-opacity:1; 
stroke-linecap:round; stroke-linejoin:round;">
</g>
<g style="fill:#000000; fill-opacity:1.0; 
stroke:#000000; stroke-width:0; stroke-opacity:1; 
stroke-linecap:round; stroke-linejoin:round;">
<circle cx="31234" cy="49210.6" r="560" /> 
</g>
<g style="fill:#000000; fill-opacity:1.0; 
stroke:#000000; stroke-width:118.11; stroke-opacity:1; 
stroke-linecap:round; stroke-linejoin:round;">
</g>
<g style="fill:#000000; fill-opacity:1.0; 
stroke:#000000; stroke-width:0; stroke-opacity:1; 
stroke-linecap:round; stroke-linejoin:round;">
<circle cx="29234" cy="49210.6" r="560" /> 
</g>
<g style="fill:#000000; fill-opacity:1.0; 
stroke:#000000; stroke-width:118.11; stroke-opacity:1; 
stroke-linecap:round; stroke-linejoin:round;">
</g>
<g style="fill:#000000; fill-opacity:1.0; 
stroke:#000000; stroke-width:0; stroke-opacity:1; 
stroke-linecap:round; stroke-linejoin:round;">
<circle cx="27234" cy="49210.6" r="560" /> 
</g>
<g style="fill:#000000; fill-opacity:1.0; 
stroke:#000000; stroke-width:118.11; stroke-opacity:1; 
stroke-linecap:round; stroke-linejoin:round;">
</g>
<g style="fill:#000000; fill-opacity:1.0; 
stroke:#000000; stroke-width:0; stroke-opacity:1; 
stroke-linecap:round; stroke-linejoin:round;">
<circle cx="25234" cy="49210.6" r="560" /> 
</g>
<g style="fill:#000000; fill-opacity:1.0; 
stroke:#000000; stroke-width:118.11; stroke-opacity:1; 
stroke-linecap:round; stroke-linejoin:round;">
</g>
<g style="fill:#000000; fill-opacity:1.0; 
stroke:#000000; stroke-width:0; stroke-opacity:1; 
stroke-linecap:round; stroke-linejoin:round;">
<circle cx="23234" cy="49210.6" r="560" /> 
</g>
<g style="fill:#000000; fill-opacity:1.0; 
stroke:#000000; stroke-width:118.11; stroke-opacity:1; 
stroke-linecap:round; stroke-linejoin:round;">
</g>
<g style="fill:#000000; fill-opacity:1.0; 
stroke:#000000; stroke-width:0; stroke-opacity:1; 
stroke-linecap:round; stroke-linejoin:round;">
<circle cx="21234" cy="49210.6" r="560" /> 
</g>
<g style="fill:#000000; fill-opacity:1.0; 
stroke:#000000; stroke-width:118.11; stroke-opacity:1; 
stroke-linecap:round; stroke-linejoin:round;">
</g>
<g style="fill:#000000; fill-opacity:1.0; 
stroke:#000000; stroke-width:0; stroke-opacity:1; 
stroke-linecap:round; stroke-linejoin:round;">
<circle cx="21234" cy="47210.6" r="560" /> 
</g>
<g style="fill:#000000; fill-opacity:1.0; 
stroke:#000000; stroke-width:118.11; stroke-opacity:1; 
stroke-linecap:round; stroke-linejoin:round;">
</g>
<g style="fill:#000000; fill-opacity:1.0; 
stroke:#000000; stroke-width:0; stroke-opacity:1; 
stroke-linecap:round; stroke-linejoin:round;">
<circle cx="21234" cy="45210.6" r="560" /> 
</g>
<g style="fill:#000000; fill-opacity:1.0; 
stroke:#000000; stroke-width:118.11; stroke-opacity:1; 
stroke-linecap:round; stroke-linejoin:round;">
</g>
<g style="fill:#000000; fill-opacity:1.0; 
stroke:#000000; stroke-width:0; stroke-opacity:1; 
stroke-linecap:round; stroke-linejoin:round;">
<circle cx="21234" cy="43210.6" r="560" /> 
</g>
<g style="fill:#000000; fill-opacity:1.0; 
stroke:#000000; stroke-width:118.11; stroke-opacity:1; 
stroke-linecap:round; stroke-linejoin:round;">
</g>
<g style="fill:#000000; fill-opacity:1.0; 
stroke:#000000; stroke-width:0; stroke-opacity:1; 
stroke-linecap:round; stroke-linejoin:round;">
<circle cx="21234" cy="41210.6" r="560" /> 
</g>
<g style="fill:#000000; fill-opacity:1.0; 
stroke:#000000; stroke-width:118.11; stroke-opacity:1; 
stroke-linecap:round; stroke-linejoin:round;">
</g>
<g style="fill:#000000; fill-opacity:1.0; 
stroke:#000000; stroke-width:0; stroke-opacity:1; 
stroke-linecap:round; stroke-linejoin:round;">
<circle cx="21234" cy="39210.6" r="560" /> 
</g>
<g style="fill:#000000; fill-opacity:1.0; 
stroke:#000000; stroke-width:118.11; stroke-opacity:1; 
stroke-linecap:round; stroke-linejoin:round;">
</g>
<g style="fill:#000000; fill-opacity:1.0; 
stroke:#000000; stroke-width:0; stroke-opacity:1; 
stroke-linecap:round; stroke-linejoin:round;">
<circle cx="21234" cy="37210.6" r="560" /> 
</g>
<g style="fill:#000000; fill-opacity:1.0; 
stroke:#000000; stroke-width:118.11; stroke-opacity:1; 
stroke-linecap:round; stroke-linejoin:round;">
</g>
<g style="fill:#000000; fill-opacity:1.0; 
stroke:#000000; stroke-width:0; stroke-opacity:1; 
stroke-linecap:round; stroke-linejoin:round;">
<circle cx="21234" cy="35210.6" r="560" /> 
</g>
<g style="fill:#000000; fill-opacity:1.0; 
stroke:#000000; stroke-width:118.11; stroke-opacity:1; 
stroke-linecap:round; stroke-linejoin:round;">
</g>
<g style="fill:#000000; fill-opacity:1.0; 
stroke:#000000; stroke-width:0; stroke-opacity:1; 
stroke-linecap:round; stroke-linejoin:round;">
<circle cx="21234" cy="33210.6" r="560" /> 
</g>
<g style="fill:#000000; fill-opacity:1.0; 
stroke:#000000; stroke-width:118.11; stroke-opacity:1; 
stroke-linecap:round; stroke-linejoin:round;">
</g>
<g style="fill:#000000; fill-opacity:1.0; 
stroke:#000000; stroke-width:0; stroke-opacity:1; 
stroke-linecap:round; stroke-linejoin:round;">
<circle cx="23234" cy="51210.6" r="560" /> 
</g>
<g style="fill:#000000; fill-opacity:1.0; 
stroke:#000000; stroke-width:118.11; stroke-opacity:1; 
stroke-linecap:round; stroke-linejoin:round;">
</g>
<g style="fill:#000000; fill-opacity:1.0; 
stroke:#000000; stroke-width:0; stroke-opacity:1; 
stroke-linecap:round; stroke-linejoin:round;">
<circle cx="23234" cy="47210.6" r="560" /> 
</g>
<g style="fill:#000000; fill-opacity:1.0; 
stroke:#000000; stroke-width:118.11; stroke-opacity:1; 
stroke-linecap:round; stroke-linejoin:round;">
</g>
<g style="fill:#000000; fill-opacity:1.0; 
stroke:#000000; stroke-width:0; stroke-opacity:1; 
stroke-linecap:round; stroke-linejoin:round;">
<circle cx="23234" cy="45210.6" r="560" /> 
</g>
<g style="fill:#000000; fill-opacity:1.0; 
stroke:#000000; stroke-width:118.11; stroke-opacity:1; 
stroke-linecap:round; stroke-linejoin:round;">
</g>
<g style="fill:#000000; fill-opacity:1.0; 
stroke:#000000; stroke-width:0; stroke-opacity:1; 
stroke-linecap:round; stroke-linejoin:round;">
<circle cx="23234" cy="43210.6" r="560" /> 
</g>
<g style="fill:#000000; fill-opacity:1.0; 
stroke:#000000; stroke-width:118.11; stroke-opacity:1; 
stroke-linecap:round; stroke-linejoin:round;">
</g>
<g style="fill:#000000; fill-opacity:1.0; 
stroke:#000000; stroke-width:0; stroke-opacity:1; 
stroke-linecap:round; stroke-linejoin:round;">
<circle cx="23234" cy="41210.6" r="560" /> 
</g>
<g style="fill:#000000; fill-opacity:1.0; 
stroke:#000000; stroke-width:118.11; stroke-opacity:1; 
stroke-linecap:round; stroke-linejoin:round;">
</g>
<g style="fill:#000000; fill-opacity:1.0; 
stroke:#000000; stroke-width:0; stroke-opacity:1; 
stroke-linecap:round; stroke-linejoin:round;">
<circle cx="23234" cy="39210.6" r="560" /> 
</g>
<g style="fill:#000000; fill-opacity:1.0; 
stroke:#000000; stroke-width:118.11; stroke-opacity:1; 
stroke-linecap:round; stroke-linejoin:round;">
</g>
<g style="fill:#000000; fill-opacity:1.0; 
stroke:#000000; stroke-width:0; stroke-opacity:1; 
stroke-linecap:round; stroke-linejoin:round;">
<circle cx="23234" cy="37210.6" r="560" /> 
</g>
<g style="fill:#000000; fill-opacity:1.0; 
stroke:#000000; stroke-width:118.11; stroke-opacity:1; 
stroke-linecap:round; stroke-linejoin:round;">
</g>
<g style="fill:#000000; fill-opacity:1.0; 
stroke:#000000; stroke-width:0; stroke-opacity:1; 
stroke-linecap:round; stroke-linejoin:round;">
<circle cx="23234" cy="35210.6" r="560" /> 
</g>
<g style="fill:#000000; fill-opacity:1.0; 
stroke:#000000; stroke-width:118.11; stroke-opacity:1; 
stroke-linecap:round; stroke-linejoin:round;">
</g>
<g style="fill:#000000; fill-opacity:1.0; 
stroke:#000000; stroke-width:0; stroke-opacity:1; 
stroke-linecap:round; stroke-linejoin:round;">
<circle cx="23234" cy="33210.6" r="560" /> 
</g>
<g style="fill:#000000; fill-opacity:1.0; 
stroke:#000000; stroke-width:118.11; stroke-opacity:1; 
stroke-linecap:round; stroke-linejoin:round;">
</g>
<g style="fill:#000000; fill-opacity:1.0; 
stroke:#000000; stroke-width:0; stroke-opacity:1; 
stroke-linecap:round; stroke-linejoin:round;">
<circle cx="23234" cy="31210.6" r="560" /> 
</g>
<g style="fill:#000000; fill-opacity:1.0; 
stroke:#000000; stroke-width:118.11; stroke-opacity:1; 
stroke-linecap:round; stroke-linejoin:round;">
</g>
<g style="fill:#000000; fill-opacity:1.0; 
stroke:#000000; stroke-width:0; stroke-opacity:1; 
stroke-linecap:round; stroke-linejoin:round;">
<circle cx="25234" cy="31210.6" r="560" /> 
</g>
<g style="fill:#000000; fill-opacity:1.0; 
stroke:#000000; stroke-width:118.11; stroke-opacity:1; 
stroke-linecap:round; stroke-linejoin:round;">
</g>
<g style="fill:#000000; fill-opacity:1.0; 
stroke:#000000; stroke-width:0; stroke-opacity:1; 
stroke-linecap:round; stroke-linejoin:round;">
<circle cx="27234" cy="31210.6" r="560" /> 
</g>
<g style="fill:#000000; fill-opacity:1.0; 
stroke:#000000; stroke-width:118.11; stroke-opacity:1; 
stroke-linecap:round; stroke-linejoin:round;">
</g>
<g style="fill:#000000; fill-opacity:1.0; 
stroke:#000000; stroke-width:0; stroke-opacity:1; 
stroke-linecap:round; stroke-linejoin:round;">
<circle cx="29234" cy="31210.6" r="560" /> 
</g>
<g style="fill:#000000; fill-opacity:1.0; 
stroke:#000000; stroke-width:118.11; stroke-opacity:1; 
stroke-linecap:round; stroke-linejoin:round;">
</g>
<g style="fill:#000000; fill-opacity:1.0; 
stroke:#000000; stroke-width:0; stroke-opacity:1; 
stroke-linecap:round; stroke-linejoin:round;">
<circle cx="31234" cy="31210.6" r="560" /> 
</g>
<g style="fill:#000000; fill-opacity:1.0; 
stroke:#000000; stroke-width:118.11; stroke-opacity:1; 
stroke-linecap:round; stroke-linejoin:round;">
</g>
<g style="fill:#000000; fill-opacity:1.0; 
stroke:#000000; stroke-width:0; stroke-opacity:1; 
stroke-linecap:round; stroke-linejoin:round;">
<circle cx="33234" cy="31210.6" r="560" /> 
</g>
<g style="fill:#000000; fill-opacity:1.0; 
stroke:#000000; stroke-width:118.11; stroke-opacity:1; 
stroke-linecap:round; stroke-linejoin:round;">
</g>
<g style="fill:#000000; fill-opacity:1.0; 
stroke:#000000; stroke-width:0; stroke-opacity:1; 
stroke-linecap:round; stroke-linejoin:round;">
<circle cx="35234" cy="31210.6" r="560" /> 
</g>
<g style="fill:#000000; fill-opacity:1.0; 
stroke:#000000; stroke-width:118.11; stroke-opacity:1; 
stroke-linecap:round; stroke-linejoin:round;">
</g>
<g style="fill:#000000; fill-opacity:1.0; 
stroke:#000000; stroke-width:0; stroke-opacity:1; 
stroke-linecap:round; stroke-linejoin:round;">
<circle cx="37234" cy="31210.6" r="560" /> 
</g>
<g style="fill:#000000; fill-opacity:1.0; 
stroke:#000000; stroke-width:118.11; stroke-opacity:1; 
stroke-linecap:round; stroke-linejoin:round;">
</g>
<g style="fill:#000000; fill-opacity:1.0; 
stroke:#000000; stroke-width:0; stroke-opacity:1; 
stroke-linecap:round; stroke-linejoin:round;">
<circle cx="39234" cy="31210.6" r="560" /> 
</g>
<g style="fill:#000000; fill-opacity:1.0; 
stroke:#000000; stroke-width:118.11; stroke-opacity:1; 
stroke-linecap:round; stroke-linejoin:round;">
</g>
<g style="fill:#000000; fill-opacity:1.0; 
stroke:#000000; stroke-width:0; stroke-opacity:1; 
stroke-linecap:round; stroke-linejoin:round;">
<circle cx="25234" cy="33210.6" r="560" /> 
</g>
<g style="fill:#000000; fill-opacity:1.0; 
stroke:#000000; stroke-width:118.11; stroke-opacity:1; 
stroke-linecap:round; stroke-linejoin:round;">
</g>
<g style="fill:#000000; fill-opacity:1.0; 
stroke:#000000; stroke-width:0; stroke-opacity:1; 
stroke-linecap:round; stroke-linejoin:round;">
<circle cx="27234" cy="33210.6" r="560" /> 
</g>
<g style="fill:#000000; fill-opacity:1.0; 
stroke:#000000; stroke-width:118.11; stroke-opacity:1; 
stroke-linecap:round; stroke-linejoin:round;">
</g>
<g style="fill:#000000; fill-opacity:1.0; 
stroke:#000000; stroke-width:0; stroke-opacity:1; 
stroke-linecap:round; stroke-linejoin:round;">
<circle cx="29234" cy="33210.6" r="560" /> 
</g>
<g style="fill:#000000; fill-opacity:1.0; 
stroke:#000000; stroke-width:118.11; stroke-opacity:1; 
stroke-linecap:round; stroke-linejoin:round;">
</g>
<g style="fill:#000000; fill-opacity:1.0; 
stroke:#000000; stroke-width:0; stroke-opacity:1; 
stroke-linecap:round; stroke-linejoin:round;">
<circle cx="31234" cy="33210.6" r="560" /> 
</g>
<g style="fill:#000000; fill-opacity:1.0; 
stroke:#000000; stroke-width:118.11; stroke-opacity:1; 
stroke-linecap:round; stroke-linejoin:round;">
</g>
<g style="fill:#000000; fill-opacity:1.0; 
stroke:#000000; stroke-width:0; stroke-opacity:1; 
stroke-linecap:round; stroke-linejoin:round;">
<circle cx="33234" cy="33210.6" r="560" /> 
</g>
<g style="fill:#000000; fill-opacity:1.0; 
stroke:#000000; stroke-width:118.11; stroke-opacity:1; 
stroke-linecap:round; stroke-linejoin:round;">
</g>
<g style="fill:#000000; fill-opacity:1.0; 
stroke:#000000; stroke-width:0; stroke-opacity:1; 
stroke-linecap:round; stroke-linejoin:round;">
<circle cx="35234" cy="33210.6" r="560" /> 
</g>
<g style="fill:#000000; fill-opacity:1.0; 
stroke:#000000; stroke-width:118.11; stroke-opacity:1; 
stroke-linecap:round; stroke-linejoin:round;">
</g>
<g style="fill:#000000; fill-opacity:1.0; 
stroke:#000000; stroke-width:0; stroke-opacity:1; 
stroke-linecap:round; stroke-linejoin:round;">
<circle cx="37234" cy="33210.6" r="560" /> 
</g>
<g style="fill:#000000; fill-opacity:1.0; 
stroke:#000000; stroke-width:118.11; stroke-opacity:1; 
stroke-linecap:round; stroke-linejoin:round;">
</g>
<g style="fill:#000000; fill-opacity:1.0; 
stroke:#000000; stroke-width:0; stroke-opacity:1; 
stroke-linecap:round; stroke-linejoin:round;">
<circle cx="39234" cy="33210.6" r="560" /> 
</g>
<g style="fill:#000000; fill-opacity:1.0; 
stroke:#000000; stroke-width:118.11; stroke-opacity:1; 
stroke-linecap:round; stroke-linejoin:round;">
</g>
<g style="fill:#000000; fill-opacity:1.0; 
stroke:#000000; stroke-width:0; stroke-opacity:1; 
stroke-linecap:round; stroke-linejoin:round;">
<circle cx="41234" cy="47210.6" r="560" /> 
</g>
<g style="fill:#000000; fill-opacity:1.0; 
stroke:#000000; stroke-width:118.11; stroke-opacity:1; 
stroke-linecap:round; stroke-linejoin:round;">
</g>
<g style="fill:#000000; fill-opacity:1.0; 
stroke:#000000; stroke-width:0; stroke-opacity:1; 
stroke-linecap:round; stroke-linejoin:round;">
<circle cx="41234" cy="45210.6" r="560" /> 
</g>
<g style="fill:#000000; fill-opacity:1.0; 
stroke:#000000; stroke-width:118.11; stroke-opacity:1; 
stroke-linecap:round; stroke-linejoin:round;">
</g>
<g style="fill:#000000; fill-opacity:1.0; 
stroke:#000000; stroke-width:0; stroke-opacity:1; 
stroke-linecap:round; stroke-linejoin:round;">
<circle cx="41234" cy="43210.6" r="560" /> 
</g>
<g style="fill:#000000; fill-opacity:1.0; 
stroke:#000000; stroke-width:118.11; stroke-opacity:1; 
stroke-linecap:round; stroke-linejoin:round;">
</g>
<g style="fill:#000000; fill-opacity:1.0; 
stroke:#000000; stroke-width:0; stroke-opacity:1; 
stroke-linecap:round; stroke-linejoin:round;">
<circle cx="41234" cy="33210.6" r="560" /> 
</g>
<g style="fill:#000000; fill-opacity:1.0; 
stroke:#000000; stroke-width:118.11; stroke-opacity:1; 
stroke-linecap:round; stroke-linejoin:round;">
</g>
<g style="fill:#000000; fill-opacity:1.0; 
stroke:#000000; stroke-width:0; stroke-opacity:1; 
stroke-linecap:round; stroke-linejoin:round;">
<circle cx="41234" cy="35210.6" r="560" /> 
</g>
<g style="fill:#000000; fill-opacity:1.0; 
stroke:#000000; stroke-width:118.11; stroke-opacity:1; 
stroke-linecap:round; stroke-linejoin:round;">
</g>
<g style="fill:#000000; fill-opacity:1.0; 
stroke:#000000; stroke-width:0; stroke-opacity:1; 
stroke-linecap:round; stroke-linejoin:round;">
<circle cx="41234" cy="37210.6" r="560" /> 
</g>
<g style="fill:#000000; fill-opacity:1.0; 
stroke:#000000; stroke-width:118.11; stroke-opacity:1; 
stroke-linecap:round; stroke-linejoin:round;">
</g>
<g style="fill:#000000; fill-opacity:1.0; 
stroke:#000000; stroke-width:0; stroke-opacity:1; 
stroke-linecap:round; stroke-linejoin:round;">
<circle cx="41234" cy="39210.6" r="560" /> 
</g>
<g style="fill:#000000; fill-opacity:1.0; 
stroke:#000000; stroke-width:118.11; stroke-opacity:1; 
stroke-linecap:round; stroke-linejoin:round;">
</g>
<g style="fill:#000000; fill-opacity:1.0; 
stroke:#000000; stroke-width:0; stroke-opacity:1; 
stroke-linecap:round; stroke-linejoin:round;">
<path style="fill:#000000; fill-opacity:1.0; 
stroke:#000000; stroke-width:0; stroke-opacity:1; 
stroke-linecap:round; stroke-linejoin:round;fill-rule:evenodd;"
d="M 40674,40650.6
41794,40650.6
41794,41770.6
40674,41770.6
Z" /> 
<circle cx="39234" cy="49210.6" r="560" /> 
</g>
<g style="fill:#000000; fill-opacity:1.0; 
stroke:#000000; stroke-width:118.11; stroke-opacity:1; 
stroke-linecap:round; stroke-linejoin:round;">
</g>
<g style="fill:#000000; fill-opacity:1.0; 
stroke:#000000; stroke-width:0; stroke-opacity:1; 
stroke-linecap:round; stroke-linejoin:round;">
<circle cx="39234" cy="47210.6" r="560" /> 
</g>
<g style="fill:#000000; fill-opacity:1.0; 
stroke:#000000; stroke-width:118.11; stroke-opacity:1; 
stroke-linecap:round; stroke-linejoin:round;">
</g>
<g style="fill:#000000; fill-opacity:1.0; 
stroke:#000000; stroke-width:0; stroke-opacity:1; 
stroke-linecap:round; stroke-linejoin:round;">
<circle cx="39234" cy="45210.6" r="560" /> 
</g>
<g style="fill:#000000; fill-opacity:1.0; 
stroke:#000000; stroke-width:118.11; stroke-opacity:1; 
stroke-linecap:round; stroke-linejoin:round;">
</g>
<g style="fill:#000000; fill-opacity:1.0; 
stroke:#000000; stroke-width:0; stroke-opacity:1; 
stroke-linecap:round; stroke-linejoin:round;">
<circle cx="39234" cy="43210.6" r="560" /> 
</g>
<g style="fill:#000000; fill-opacity:1.0; 
stroke:#000000; stroke-width:118.11; stroke-opacity:1; 
stroke-linecap:round; stroke-linejoin:round;">
</g>
<g style="fill:#000000; fill-opacity:1.0; 
stroke:#000000; stroke-width:0; stroke-opacity:1; 
stroke-linecap:round; stroke-linejoin:round;">
<circle cx="39234" cy="35210.6" r="560" /> 
</g>
<g style="fill:#000000; fill-opacity:1.0; 
stroke:#000000; stroke-width:118.11; stroke-opacity:1; 
stroke-linecap:round; stroke-linejoin:round;">
</g>
<g style="fill:#000000; fill-opacity:1.0; 
stroke:#000000; stroke-width:0; stroke-opacity:1; 
stroke-linecap:round; stroke-linejoin:round;">
<circle cx="39234" cy="37210.6" r="560" /> 
</g>
<g style="fill:#000000; fill-opacity:1.0; 
stroke:#000000; stroke-width:118.11; stroke-opacity:1; 
stroke-linecap:round; stroke-linejoin:round;">
</g>
<g style="fill:#000000; fill-opacity:1.0; 
stroke:#000000; stroke-width:0; stroke-opacity:1; 
stroke-linecap:round; stroke-linejoin:round;">
<circle cx="39234" cy="39210.6" r="560" /> 
</g>
<g style="fill:#000000; fill-opacity:1.0; 
stroke:#000000; stroke-width:118.11; stroke-opacity:1; 
stroke-linecap:round; stroke-linejoin:round;">
</g>
<g style="fill:#000000; fill-opacity:1.0; 
stroke:#000000; stroke-width:0; stroke-opacity:1; 
stroke-linecap:round; stroke-linejoin:round;">
<circle cx="39234" cy="41210.6" r="560" /> 
</g>
<g style="fill:#000000; fill-opacity:1.0; 
stroke:#000000; stroke-width:118.11; stroke-opacity:1; 
stroke-linecap:round; stroke-linejoin:round;">
</g>
<g >
</g>
<g style="fill:#000000; fill-opacity:1.0; 
stroke:#000000; stroke-width:118.11; stroke-opacity:1; 
stroke-linecap:round; stroke-linejoin:round;">
</g>
<g style="fill:#000000; fill-opacity:1.0; 
stroke:#000000; stroke-width:0; stroke-opacity:1; 
stroke-linecap:round; stroke-linejoin:round;">
<path style="fill:#000000; fill-opacity:1.0; 
stroke:#000000; stroke-width:0; stroke-opacity:1; 
stroke-linecap:round; stroke-linejoin:round;fill-rule:evenodd;"
d="M 38281.3,58021.6
36942.7,58021.6
36942.7,56683
38281.3,56683
Z" /> 
<circle cx="39612" cy="57352.3" r="669.291" /> 
<circle cx="41612" cy="57352.3" r="669.291" /> 
<circle cx="43612" cy="57352.3" r="669.291" /> 
<circle cx="45612" cy="57352.3" r="669.291" /> 
</g>
<g >
</g>
<g >
</g>
<g style="fill:#000000; fill-opacity:1.0; 
stroke:#000000; stroke-width:0; stroke-opacity:1; 
stroke-linecap:round; stroke-linejoin:round;">
<circle cx="47808.8" cy="25462.5" r="669.291" /> 
<circle cx="49808.8" cy="25462.5" r="669.291" /> 
<circle cx="51808.8" cy="25462.5" r="669.291" /> 
<circle cx="53808.8" cy="25462.5" r="669.291" /> 
<circle cx="55808.8" cy="25462.5" r="669.291" /> 
<path style="fill:#000000; fill-opacity:1.0; 
stroke:#000000; stroke-width:0; stroke-opacity:1; 
stroke-linecap:round; stroke-linejoin:round;fill-rule:evenodd;"
d="M 57139.5,24793.2
58478.1,24793.2
58478.1,26131.8
57139.5,26131.8
Z" /> 
</g>
<g >
</g>
<g style="fill:#000000; fill-opacity:1.0; 
stroke:#000000; stroke-width:0; stroke-opacity:1; 
stroke-linecap:round; stroke-linejoin:round;">
<circle cx="34186.8" cy="40612.1" r="669.291" /> 
<path style="fill:#000000; fill-opacity:1.0; 
stroke:#000000; stroke-width:0; stroke-opacity:1; 
stroke-linecap:round; stroke-linejoin:round;fill-rule:evenodd;"
d="M 34856.1,37942.8
34856.1,39281.4
33517.5,39281.4
33517.5,37942.8
Z" /> 
</g>
<g >
</g>
<g >
</g>
<g >
</g>
<g >
</g>
<g style="fill:#000000; fill-opacity:1.0; 
stroke:#000000; stroke-width:0; stroke-opacity:1; 
stroke-linecap:round; stroke-linejoin:round;">
<circle cx="13871.8" cy="52383.8" r="669.291" /> 
<circle cx="13871.8" cy="50383.8" r="669.291" /> 
<circle cx="13871.8" cy="48383.8" r="669.291" /> 
<circle cx="13871.8" cy="46383.8" r="669.291" /> 
<circle cx="13871.8" cy="44383.8" r="669.291" /> 
<circle cx="13871.8" cy="42383.8" r="669.291" /> 
<circle cx="13871.8" cy="40383.8" r="669.291" /> 
<circle cx="13871.8" cy="38383.8" r="669.291" /> 
<circle cx="13871.8" cy="36383.8" r="669.291" /> 
<circle cx="13871.8" cy="34383.8" r="669.291" /> 
<circle cx="13871.8" cy="32383.8" r="669.291" /> 
<path style="fill:#000000; fill-opacity:1.0; 
stroke:#000000; stroke-width:0; stroke-opacity:1; 
stroke-linecap:round; stroke-linejoin:round;fill-rule:evenodd;"
d="M 13202.5,31053.1
13202.5,29714.5
14541.1,29714.5
14541.1,31053.1
Z" /> 
</g>
<g >
</g>
<g style="fill:#000000; fill-opacity:1.0; 
stroke:#000000; stroke-width:0; stroke-opacity:1; 
stroke-linecap:round; stroke-linejoin:round;">
<circle cx="43155.3" cy="25462.5" r="669.291" /> 
<circle cx="41155.3" cy="25462.5" r="669.291" /> 
<circle cx="39155.3" cy="25462.5" r="669.291" /> 
<circle cx="37155.3" cy="25462.5" r="669.291" /> 
<circle cx="35155.3" cy="25462.5" r="669.291" /> 
<circle cx="33155.3" cy="25462.5" r="669.291" /> 
<circle cx="31155.3" cy="25462.5" r="669.291" /> 
<circle cx="29155.3" cy="25462.5" r="669.291" /> 
<circle cx="27155.3" cy="25462.5" r="669.291" /> 
<circle cx="25155.3" cy="25462.5" r="669.291" /> 
<circle cx="23155.3" cy="25462.5" r="669.291" /> 
<path style="fill:#000000; fill-opacity:1.0; 
stroke:#000000; stroke-width:0; stroke-opacity:1; 
stroke-linecap:round; stroke-linejoin:round;fill-rule:evenodd;"
d="M 21824.6,26131.8
20486,26131.8
20486,24793.2
21824.6,24793.2
Z" /> 
</g>
<g >
</g>
<g style="fill:#000000; fill-opacity:1.0; 
stroke:#000000; stroke-width:0; stroke-opacity:1; 
stroke-linecap:round; stroke-linejoin:round;">
<circle cx="35155.3" cy="57352.3" r="669.291" /> 
<circle cx="33155.3" cy="57352.3" r="669.291" /> 
<circle cx="31155.3" cy="57352.3" r="669.291" /> 
<circle cx="29155.3" cy="57352.3" r="669.291" /> 
<circle cx="27155.3" cy="57352.3" r="669.291" /> 
<circle cx="25155.3" cy="57352.3" r="669.291" /> 
<circle cx="23155.3" cy="57352.3" r="669.291" /> 
<path style="fill:#000000; fill-opacity:1.0; 
stroke:#000000; stroke-width:0; stroke-opacity:1; 
stroke-linecap:round; stroke-linejoin:round;fill-rule:evenodd;"
d="M 21824.6,58021.6
20486,58021.6
20486,56683
21824.6,56683
Z" /> 
</g>
<g >
</g>
<g style="fill:#000000; fill-opacity:1.0; 
stroke:#000000; stroke-width:0; stroke-opacity:1; 
stroke-linecap:round; stroke-linejoin:round;">
<path style="fill:#000000; fill-opacity:1.0; 
stroke:#000000; stroke-width:0; stroke-opacity:1; 
stroke-linecap:round; stroke-linejoin:round;fill-rule:evenodd;"
d="M 51903.3,53887.7
51470.2,53887.7
51470.2,53887.3
51450.9,53887.3
51412.5,53883.5
51374.6,53875.9
51337.6,53864.7
51301.9,53849.9
51267.8,53831.7
51235.7,53810.3
51205.9,53785.7
51178.5,53758.4
51154,53728.6
51132.6,53696.4
51114.3,53662.4
51099.6,53626.7
51088.3,53589.7
51080.8,53551.8
51077,53513.3
51077,53494
51076.5,53494
51076.5,53100.3
51077,53100.3
51077,53081
51080.8,53042.6
51088.3,53004.7
51099.6,52967.7
51114.3,52932
51132.6,52897.9
51154,52865.8
51178.5,52835.9
51205.9,52808.6
51235.7,52784.1
51267.8,52762.6
51301.9,52744.4
51337.6,52729.6
51374.6,52718.4
51412.5,52710.9
51450.9,52707.1
51470.2,52707.1
51470.2,52706.6
51903.3,52706.6
Z" /> 
<path style="fill:#000000; fill-opacity:1.0; 
stroke:#000000; stroke-width:0; stroke-opacity:1; 
stroke-linecap:round; stroke-linejoin:round;fill-rule:evenodd;"
d="M 52100.2,53887.7
52100.2,52706.6
52887.6,52706.6
52887.6,53887.7
Z" /> 
<path style="fill:#000000; fill-opacity:1.0; 
stroke:#000000; stroke-width:0; stroke-opacity:1; 
stroke-linecap:round; stroke-linejoin:round;fill-rule:evenodd;"
d="M 53517.5,52707.1
53536.8,52707.1
53575.3,52710.9
53613.2,52718.4
53650.1,52729.6
53685.8,52744.4
53719.9,52762.6
53752,52784.1
53781.9,52808.6
53809.2,52835.9
53833.7,52865.8
53855.2,52897.9
53873.4,52932
53888.2,52967.7
53899.4,53004.7
53906.9,53042.6
53910.7,53081
53910.7,53100.3
53911.2,53100.3
53911.2,53494
53910.7,53494
53910.7,53513.3
53906.9,53551.8
53899.4,53589.7
53888.2,53626.7
53873.4,53662.4
53855.2,53696.4
53833.7,53728.6
53809.2,53758.4
53781.9,53785.7
53752,53810.3
53719.9,53831.7
53685.8,53849.9
53650.1,53864.7
53613.2,53875.9
53575.3,53883.5
53536.8,53887.3
53517.5,53887.3
53517.5,53887.7
53084.4,53887.7
53084.4,52706.6
53517.5,52706.6
Z" /> 
</g>
<g >
</g>
<g style="fill:#000000; fill-opacity:1.0; 
stroke:#000000; stroke-width:0; stroke-opacity:1; 
stroke-linecap:round; stroke-linejoin:round;">
<path style="fill:#000000; fill-opacity:1.0; 
stroke:#000000; stroke-width:0; stroke-opacity:1; 
stroke-linecap:round; stroke-linejoin:round;fill-rule:evenodd;"
d="M 47100.2,53887.7
46667.1,53887.7
46667.1,53887.3
46647.8,53887.3
46609.3,53883.5
46571.4,53875.9
46534.5,53864.7
46498.8,53849.9
46464.7,53831.7
46432.6,53810.3
46402.7,53785.7
46375.4,53758.4
46350.9,53728.6
46329.4,53696.4
46311.2,53662.4
46296.4,53626.7
46285.2,53589.7
46277.7,53551.8
46273.9,53513.3
46273.9,53494
46273.4,53494
46273.4,53100.3
46273.9,53100.3
46273.9,53081
46277.7,53042.6
46285.2,53004.7
46296.4,52967.7
46311.2,52932
46329.4,52897.9
46350.9,52865.8
46375.4,52835.9
46402.7,52808.6
46432.6,52784.1
46464.7,52762.6
46498.8,52744.4
46534.5,52729.6
46571.4,52718.4
46609.3,52710.9
46647.8,52707.1
46667.1,52707.1
46667.1,52706.6
47100.2,52706.6
Z" /> 
<path style="fill:#000000; fill-opacity:1.0; 
stroke:#000000; stroke-width:0; stroke-opacity:1; 
stroke-linecap:round; stroke-linejoin:round;fill-rule:evenodd;"
d="M 47297,53887.7
47297,52706.6
48084.4,52706.6
48084.4,53887.7
Z" /> 
<path style="fill:#000000; fill-opacity:1.0; 
stroke:#000000; stroke-width:0; stroke-opacity:1; 
stroke-linecap:round; stroke-linejoin:round;fill-rule:evenodd;"
d="M 48714.3,52707.1
48733.7,52707.1
48772.1,52710.9
48810,52718.4
48847,52729.6
48882.7,52744.4
48916.7,52762.6
48948.9,52784.1
48978.7,52808.6
49006.1,52835.9
49030.6,52865.8
49052,52897.9
49070.2,52932
49085,52967.7
49096.2,53004.7
49103.8,53042.6
49107.6,53081
49107.6,53100.3
49108,53100.3
49108,53494
49107.6,53494
49107.6,53513.3
49103.8,53551.8
49096.2,53589.7
49085,53626.7
49070.2,53662.4
49052,53696.4
49030.6,53728.6
49006.1,53758.4
48978.7,53785.7
48948.9,53810.3
48916.7,53831.7
48882.7,53849.9
48847,53864.7
48810,53875.9
48772.1,53883.5
48733.7,53887.3
48714.3,53887.3
48714.3,53887.7
48281.3,53887.7
48281.3,52706.6
48714.3,52706.6
Z" /> 
</g>
<g >
</g>
<g style="fill:#000000; fill-opacity:1.0; 
stroke:#000000; stroke-width:0; stroke-opacity:1; 
stroke-linecap:round; stroke-linejoin:round;">
<circle cx="13871.8" cy="57352.3" r="984.252" /> 
</g>
<g style="fill:#000000; fill-opacity:1.0; 
stroke:#000000; stroke-width:118.11; stroke-opacity:1; 
stroke-linecap:round; stroke-linejoin:round;">
</g>
<g >
</g>
<g style="fill:#000000; fill-opacity:1.0; 
stroke:#000000; stroke-width:118.11; stroke-opacity:1; 
stroke-linecap:round; stroke-linejoin:round;">
</g>
<g style="fill:#000000; fill-opacity:1.0; 
stroke:#000000; stroke-width:0; stroke-opacity:1; 
stroke-linecap:round; stroke-linejoin:round;">
<circle cx="65840.3" cy="57276" r="984.252" /> 
</g>
<g style="fill:#000000; fill-opacity:1.0; 
stroke:#000000; stroke-width:118.11; stroke-opacity:1; 
stroke-linecap:round; stroke-linejoin:round;">
</g>
<g >
</g>
<g style="fill:#000000; fill-opacity:1.0; 
stroke:#000000; stroke-width:118.11; stroke-opacity:1; 
stroke-linecap:round; stroke-linejoin:round;">
</g>
<g style="fill:#000000; fill-opacity:1.0; 
stroke:#000000; stroke-width:0; stroke-opacity:1; 
stroke-linecap:round; stroke-linejoin:round;">
<circle cx="13871.8" cy="25462.5" r="984.252" /> 
</g>
<g style="fill:#000000; fill-opacity:1.0; 
stroke:#000000; stroke-width:118.11; stroke-opacity:1; 
stroke-linecap:round; stroke-linejoin:round;">
</g>
<g >
</g>
<g style="fill:#000000; fill-opacity:1.0; 
stroke:#000000; stroke-width:118.11; stroke-opacity:1; 
stroke-linecap:round; stroke-linejoin:round;">
</g>
<g style="fill:#000000; fill-opacity:1.0; 
stroke:#000000; stroke-width:0; stroke-opacity:1; 
stroke-linecap:round; stroke-linejoin:round;">
<circle cx="65840.3" cy="25462.5" r="984.252" /> 
</g>
<g style="fill:#000000; fill-opacity:1.0; 
stroke:#000000; stroke-width:118.11; stroke-opacity:1; 
stroke-linecap:round; stroke-linejoin:round;">
</g>
<g >
</g>
<g style="fill:#000000; fill-opacity:1.0; 
stroke:#000000; stroke-width:118.11; stroke-opacity:1; 
stroke-linecap:round; stroke-linejoin:round;">
</g>
<g style="fill:#000000; fill-opacity:1.0; 
stroke:#000000; stroke-width:0; stroke-opacity:1; 
stroke-linecap:round; stroke-linejoin:round;">
<path style="fill:#000000; fill-opacity:1.0; 
stroke:#000000; stroke-width:0; stroke-opacity:1; 
stroke-linecap:round; stroke-linejoin:round;fill-rule:evenodd;"
d="M 61095.8,39676.1
61115,39678.9
61133.7,39683.6
61151.9,39690.1
61169.3,39698.4
61185.9,39708.3
61201.4,39719.8
61215.7,39732.8
61228.7,39747.1
61240.2,39762.6
61250.2,39779.2
61258.4,39796.7
61264.9,39814.8
61269.6,39833.6
61272.5,39852.7
61273.4,39872
61273.4,40423.2
61272.5,40442.5
61269.6,40461.6
61264.9,40480.3
61258.4,40498.5
61250.2,40516
61240.2,40532.5
61228.7,40548
61215.7,40562.4
61201.4,40575.3
61185.9,40586.8
61169.3,40596.8
61151.9,40605
61133.7,40611.5
61115,40616.2
61095.8,40619.1
61076.5,40620
60367.9,40620
60348.6,40619.1
60329.5,40616.2
60310.7,40611.5
60292.6,40605
60275.1,40596.8
60258.5,40586.8
60243,40575.3
60228.7,40562.4
60215.7,40548
60204.2,40532.5
60194.3,40516
60186,40498.5
60179.5,40480.3
60174.8,40461.6
60172,40442.5
60171,40423.2
60171,39872
60172,39852.7
60174.8,39833.6
60179.5,39814.8
60186,39796.7
60194.3,39779.2
60204.2,39762.6
60215.7,39747.1
60228.7,39732.8
60243,39719.8
60258.5,39708.3
60275.1,39698.4
60292.6,39690.1
60310.7,39683.6
60329.5,39678.9
60348.6,39676.1
60367.9,39675.1
61076.5,39675.1
Z" /> 
<path style="fill:#000000; fill-opacity:1.0; 
stroke:#000000; stroke-width:0; stroke-opacity:1; 
stroke-linecap:round; stroke-linejoin:round;fill-rule:evenodd;"
d="M 61095.8,41250.9
61115,41253.7
61133.7,41258.4
61151.9,41264.9
61169.3,41273.2
61185.9,41283.1
61201.4,41294.6
61215.7,41307.6
61228.7,41321.9
61240.2,41337.4
61250.2,41354
61258.4,41371.5
61264.9,41389.6
61269.6,41408.4
61272.5,41427.5
61273.4,41446.8
61273.4,41998
61272.5,42017.3
61269.6,42036.4
61264.9,42055.1
61258.4,42073.3
61250.2,42090.8
61240.2,42107.3
61228.7,42122.8
61215.7,42137.2
61201.4,42150.1
61185.9,42161.6
61169.3,42171.6
61151.9,42179.8
61133.7,42186.3
61115,42191
61095.8,42193.9
61076.5,42194.8
60367.9,42194.8
60348.6,42193.9
60329.5,42191
60310.7,42186.3
60292.6,42179.8
60275.1,42171.6
60258.5,42161.6
60243,42150.1
60228.7,42137.2
60215.7,42122.8
60204.2,42107.3
60194.3,42090.8
60186,42073.3
60179.5,42055.1
60174.8,42036.4
60172,42017.3
60171,41998
60171,41446.8
60172,41427.5
60174.8,41408.4
60179.5,41389.6
60186,41371.5
60194.3,41354
60204.2,41337.4
60215.7,41321.9
60228.7,41307.6
60243,41294.6
60258.5,41283.1
60275.1,41273.2
60292.6,41264.9
60310.7,41258.4
60329.5,41253.7
60348.6,41250.9
60367.9,41249.9
61076.5,41249.9
Z" /> 
</g>
<g >
</g>
<g style="fill:#000000; fill-opacity:1.0; 
stroke:#000000; stroke-width:0; stroke-opacity:1; 
stroke-linecap:round; stroke-linejoin:round;">
<path style="fill:#000000; fill-opacity:1.0; 
stroke:#000000; stroke-width:0; stroke-opacity:1; 
stroke-linecap:round; stroke-linejoin:round;fill-rule:evenodd;"
d="M 53497.4,41250.9
53516.5,41253.7
53535.3,41258.4
53553.5,41264.9
53570.9,41273.2
53587.5,41283.1
53603,41294.6
53617.3,41307.6
53630.3,41321.9
53641.8,41337.4
53651.7,41354
53660,41371.5
53666.5,41389.6
53671.2,41408.4
53674,41427.5
53675,41446.8
53675,41998
53674,42017.3
53671.2,42036.4
53666.5,42055.1
53660,42073.3
53651.7,42090.8
53641.8,42107.3
53630.3,42122.8
53617.3,42137.2
53603,42150.1
53587.5,42161.6
53570.9,42171.6
53553.5,42179.8
53535.3,42186.3
53516.5,42191
53497.4,42193.9
53478.1,42194.8
52769.5,42194.8
52750.2,42193.9
52731.1,42191
52712.3,42186.3
52694.1,42179.8
52676.7,42171.6
52660.1,42161.6
52644.6,42150.1
52630.3,42137.2
52617.3,42122.8
52605.8,42107.3
52595.9,42090.8
52587.6,42073.3
52581.1,42055.1
52576.4,42036.4
52573.6,42017.3
52572.6,41998
52572.6,41446.8
52573.6,41427.5
52576.4,41408.4
52581.1,41389.6
52587.6,41371.5
52595.9,41354
52605.8,41337.4
52617.3,41321.9
52630.3,41307.6
52644.6,41294.6
52660.1,41283.1
52676.7,41273.2
52694.1,41264.9
52712.3,41258.4
52731.1,41253.7
52750.2,41250.9
52769.5,41249.9
53478.1,41249.9
Z" /> 
<path style="fill:#000000; fill-opacity:1.0; 
stroke:#000000; stroke-width:0; stroke-opacity:1; 
stroke-linecap:round; stroke-linejoin:round;fill-rule:evenodd;"
d="M 53497.4,39676.1
53516.5,39678.9
53535.3,39683.6
53553.5,39690.1
53570.9,39698.4
53587.5,39708.3
53603,39719.8
53617.3,39732.8
53630.3,39747.1
53641.8,39762.6
53651.7,39779.2
53660,39796.7
53666.5,39814.8
53671.2,39833.6
53674,39852.7
53675,39872
53675,40423.2
53674,40442.5
53671.2,40461.6
53666.5,40480.3
53660,40498.5
53651.7,40516
53641.8,40532.5
53630.3,40548
53617.3,40562.4
53603,40575.3
53587.5,40586.8
53570.9,40596.8
53553.5,40605
53535.3,40611.5
53516.5,40616.2
53497.4,40619.1
53478.1,40620
52769.5,40620
52750.2,40619.1
52731.1,40616.2
52712.3,40611.5
52694.1,40605
52676.7,40596.8
52660.1,40586.8
52644.6,40575.3
52630.3,40562.4
52617.3,40548
52605.8,40532.5
52595.9,40516
52587.6,40498.5
52581.1,40480.3
52576.4,40461.6
52573.6,40442.5
52572.6,40423.2
52572.6,39872
52573.6,39852.7
52576.4,39833.6
52581.1,39814.8
52587.6,39796.7
52595.9,39779.2
52605.8,39762.6
52617.3,39747.1
52630.3,39732.8
52644.6,39719.8
52660.1,39708.3
52676.7,39698.4
52694.1,39690.1
52712.3,39683.6
52731.1,39678.9
52750.2,39676.1
52769.5,39675.1
53478.1,39675.1
Z" /> 
</g>
<g >
</g>
<g style="fill:#000000; fill-opacity:1.0; 
stroke:#000000; stroke-width:0; stroke-opacity:1; 
stroke-linecap:round; stroke-linejoin:round;">
<path style="fill:#000000; fill-opacity:1.0; 
stroke:#000000; stroke-width:0; stroke-opacity:1; 
stroke-linecap:round; stroke-linejoin:round;fill-rule:evenodd;"
d="M 61095.8,32471.4
61115,32474.2
61133.7,32478.9
61151.9,32485.4
61169.3,32493.7
61185.9,32503.6
61201.4,32515.1
61215.7,32528.1
61228.7,32542.4
61240.2,32557.9
61250.2,32574.5
61258.4,32591.9
61264.9,32610.1
61269.6,32628.9
61272.5,32648
61273.4,32667.3
61273.4,33218.4
61272.5,33237.7
61269.6,33256.8
61264.9,33275.6
61258.4,33293.8
61250.2,33311.2
61240.2,33327.8
61228.7,33343.3
61215.7,33357.6
61201.4,33370.6
61185.9,33382.1
61169.3,33392
61151.9,33400.3
61133.7,33406.8
61115,33411.5
61095.8,33414.3
61076.5,33415.3
60367.9,33415.3
60348.6,33414.3
60329.5,33411.5
60310.7,33406.8
60292.6,33400.3
60275.1,33392
60258.5,33382.1
60243,33370.6
60228.7,33357.6
60215.7,33343.3
60204.2,33327.8
60194.3,33311.2
60186,33293.8
60179.5,33275.6
60174.8,33256.8
60172,33237.7
60171,33218.4
60171,32667.3
60172,32648
60174.8,32628.9
60179.5,32610.1
60186,32591.9
60194.3,32574.5
60204.2,32557.9
60215.7,32542.4
60228.7,32528.1
60243,32515.1
60258.5,32503.6
60275.1,32493.7
60292.6,32485.4
60310.7,32478.9
60329.5,32474.2
60348.6,32471.4
60367.9,32470.4
61076.5,32470.4
Z" /> 
<path style="fill:#000000; fill-opacity:1.0; 
stroke:#000000; stroke-width:0; stroke-opacity:1; 
stroke-linecap:round; stroke-linejoin:round;fill-rule:evenodd;"
d="M 61095.8,30896.6
61115,30899.4
61133.7,30904.1
61151.9,30910.6
61169.3,30918.8
61185.9,30928.8
61201.4,30940.3
61215.7,30953.3
61228.7,30967.6
61240.2,30983.1
61250.2,30999.7
61258.4,31017.1
61264.9,31035.3
61269.6,31054.1
61272.5,31073.2
61273.4,31092.5
61273.4,31643.6
61272.5,31662.9
61269.6,31682
61264.9,31700.8
61258.4,31719
61250.2,31736.4
61240.2,31753
61228.7,31768.5
61215.7,31782.8
61201.4,31795.8
61185.9,31807.3
61169.3,31817.2
61151.9,31825.5
61133.7,31832
61115,31836.7
61095.8,31839.5
61076.5,31840.5
60367.9,31840.5
60348.6,31839.5
60329.5,31836.7
60310.7,31832
60292.6,31825.5
60275.1,31817.2
60258.5,31807.3
60243,31795.8
60228.7,31782.8
60215.7,31768.5
60204.2,31753
60194.3,31736.4
60186,31719
60179.5,31700.8
60174.8,31682
60172,31662.9
60171,31643.6
60171,31092.5
60172,31073.2
60174.8,31054.1
60179.5,31035.3
60186,31017.1
60194.3,30999.7
60204.2,30983.1
60215.7,30967.6
60228.7,30953.3
60243,30940.3
60258.5,30928.8
60275.1,30918.8
60292.6,30910.6
60310.7,30904.1
60329.5,30899.4
60348.6,30896.6
60367.9,30895.6
61076.5,30895.6
Z" /> 
</g>
<g >
</g>
<g style="fill:#000000; fill-opacity:1.0; 
stroke:#000000; stroke-width:0; stroke-opacity:1; 
stroke-linecap:round; stroke-linejoin:round;">
<path style="fill:#000000; fill-opacity:1.0; 
stroke:#000000; stroke-width:0; stroke-opacity:1; 
stroke-linecap:round; stroke-linejoin:round;fill-rule:evenodd;"
d="M 53497.4,30896.6
53516.5,30899.4
53535.3,30904.1
53553.5,30910.6
53570.9,30918.8
53587.5,30928.8
53603,30940.3
53617.3,30953.3
53630.3,30967.6
53641.8,30983.1
53651.7,30999.7
53660,31017.1
53666.5,31035.3
53671.2,31054.1
53674,31073.2
53675,31092.5
53675,31643.6
53674,31662.9
53671.2,31682
53666.5,31700.8
53660,31719
53651.7,31736.4
53641.8,31753
53630.3,31768.5
53617.3,31782.8
53603,31795.8
53587.5,31807.3
53570.9,31817.2
53553.5,31825.5
53535.3,31832
53516.5,31836.7
53497.4,31839.5
53478.1,31840.5
52769.5,31840.5
52750.2,31839.5
52731.1,31836.7
52712.3,31832
52694.1,31825.5
52676.7,31817.2
52660.1,31807.3
52644.6,31795.8
52630.3,31782.8
52617.3,31768.5
52605.8,31753
52595.9,31736.4
52587.6,31719
52581.1,31700.8
52576.4,31682
52573.6,31662.9
52572.6,31643.6
52572.6,31092.5
52573.6,31073.2
52576.4,31054.1
52581.1,31035.3
52587.6,31017.1
52595.9,30999.7
52605.8,30983.1
52617.3,30967.6
52630.3,30953.3
52644.6,30940.3
52660.1,30928.8
52676.7,30918.8
52694.1,30910.6
52712.3,30904.1
52731.1,30899.4
52750.2,30896.6
52769.5,30895.6
53478.1,30895.6
Z" /> 
<path style="fill:#000000; fill-opacity:1.0; 
stroke:#000000; stroke-width:0; stroke-opacity:1; 
stroke-linecap:round; stroke-linejoin:round;fill-rule:evenodd;"
d="M 53497.4,32471.4
53516.5,32474.2
53535.3,32478.9
53553.5,32485.4
53570.9,32493.7
53587.5,32503.6
53603,32515.1
53617.3,32528.1
53630.3,32542.4
53641.8,32557.9
53651.7,32574.5
53660,32591.9
53666.5,32610.1
53671.2,32628.9
53674,32648
53675,32667.3
53675,33218.4
53674,33237.7
53671.2,33256.8
53666.5,33275.6
53660,33293.8
53651.7,33311.2
53641.8,33327.8
53630.3,33343.3
53617.3,33357.6
53603,33370.6
53587.5,33382.1
53570.9,33392
53553.5,33400.3
53535.3,33406.8
53516.5,33411.5
53497.4,33414.3
53478.1,33415.3
52769.5,33415.3
52750.2,33414.3
52731.1,33411.5
52712.3,33406.8
52694.1,33400.3
52676.7,33392
52660.1,33382.1
52644.6,33370.6
52630.3,33357.6
52617.3,33343.3
52605.8,33327.8
52595.9,33311.2
52587.6,33293.8
52581.1,33275.6
52576.4,33256.8
52573.6,33237.7
52572.6,33218.4
52572.6,32667.3
52573.6,32648
52576.4,32628.9
52581.1,32610.1
52587.6,32591.9
52595.9,32574.5
52605.8,32557.9
52617.3,32542.4
52630.3,32528.1
52644.6,32515.1
52660.1,32503.6
52676.7,32493.7
52694.1,32485.4
52712.3,32478.9
52731.1,32474.2
52750.2,32471.4
52769.5,32470.4
53478.1,32470.4
Z" /> 
</g>
<g >
</g>
<g style="fill:#000000; fill-opacity:1.0; 
stroke:#000000; stroke-width:0; stroke-opacity:1; 
stroke-linecap:round; stroke-linejoin:round;">
<path style="fill:#000000; fill-opacity:1.0; 
stroke:#000000; stroke-width:0; stroke-opacity:1; 
stroke-linecap:round; stroke-linejoin:round;fill-rule:evenodd;"
d="M 56824.6,41368
56824.6,41998
56115.9,41998
56115.9,41368
Z" /> 
<path style="fill:#000000; fill-opacity:1.0; 
stroke:#000000; stroke-width:0; stroke-opacity:1; 
stroke-linecap:round; stroke-linejoin:round;fill-rule:evenodd;"
d="M 56824.6,39872
56824.6,40501.9
56115.9,40501.9
56115.9,39872
Z" /> 
<path style="fill:#000000; fill-opacity:1.0; 
stroke:#000000; stroke-width:0; stroke-opacity:1; 
stroke-linecap:round; stroke-linejoin:round;fill-rule:evenodd;"
d="M 55249.8,40620
55249.8,41249.9
54541.1,41249.9
54541.1,40620
Z" /> 
</g>
<g >
</g>
<g style="fill:#000000; fill-opacity:1.0; 
stroke:#000000; stroke-width:0; stroke-opacity:1; 
stroke-linecap:round; stroke-linejoin:round;">
<path style="fill:#000000; fill-opacity:1.0; 
stroke:#000000; stroke-width:0; stroke-opacity:1; 
stroke-linecap:round; stroke-linejoin:round;fill-rule:evenodd;"
d="M 55249.8,31840.5
55249.8,32470.4
54541.1,32470.4
54541.1,31840.5
Z" /> 
<path style="fill:#000000; fill-opacity:1.0; 
stroke:#000000; stroke-width:0; stroke-opacity:1; 
stroke-linecap:round; stroke-linejoin:round;fill-rule:evenodd;"
d="M 56824.6,31092.5
56824.6,31722.4
56115.9,31722.4
56115.9,31092.5
Z" /> 
<path style="fill:#000000; fill-opacity:1.0; 
stroke:#000000; stroke-width:0; stroke-opacity:1; 
stroke-linecap:round; stroke-linejoin:round;fill-rule:evenodd;"
d="M 56824.6,32588.5
56824.6,33218.4
56115.9,33218.4
56115.9,32588.5
Z" /> 
</g>
<g >
</g>
<g style="fill:#000000; fill-opacity:1.0; 
stroke:#000000; stroke-width:0; stroke-opacity:1; 
stroke-linecap:round; stroke-linejoin:round;">
<circle cx="64856.1" cy="42486.2" r="669.291" /> 
<circle cx="64856.1" cy="40486.2" r="669.291" /> 
<circle cx="64856.1" cy="38486.2" r="669.291" /> 
<path style="fill:#000000; fill-opacity:1.0; 
stroke:#000000; stroke-width:0; stroke-opacity:1; 
stroke-linecap:round; stroke-linejoin:round;fill-rule:evenodd;"
d="M 64186.8,37155.4
64186.8,35816.9
65525.4,35816.9
65525.4,37155.4
Z" /> 
</g>
<g >
</g>
<g style="fill:#000000; fill-opacity:1.0; 
stroke:#000000; stroke-width:0; stroke-opacity:1; 
stroke-linecap:round; stroke-linejoin:round;">
<path style="fill:#000000; fill-opacity:1.0; 
stroke:#000000; stroke-width:0; stroke-opacity:1; 
stroke-linecap:round; stroke-linejoin:round;fill-rule:evenodd;"
d="M 58891.1,39693.8
58910.2,39696.6
58929,39701.3
58947.2,39707.8
58964.6,39716.1
58981.2,39726
58996.7,39737.5
59011,39750.5
59024,39764.8
59035.5,39780.3
59045.4,39796.9
59053.7,39814.4
59060.2,39832.6
59064.9,39851.3
59067.7,39870.4
59068.7,39889.7
59068.7,40401.5
59067.7,40420.8
59064.9,40439.9
59060.2,40458.7
59053.7,40476.8
59045.4,40494.3
59035.5,40510.9
59024,40526.4
59011,40540.7
58996.7,40553.7
58981.2,40565.2
58964.6,40575.1
58947.2,40583.4
58929,40589.9
58910.2,40594.6
58891.1,40597.4
58871.8,40598.4
58163.2,40598.4
58143.9,40597.4
58124.8,40594.6
58106,40589.9
58087.8,40583.4
58070.4,40575.1
58053.8,40565.2
58038.3,40553.7
58024,40540.7
58011,40526.4
57999.5,40510.9
57989.6,40494.3
57981.3,40476.8
57974.8,40458.7
57970.1,40439.9
57967.3,40420.8
57966.3,40401.5
57966.3,39889.7
57967.3,39870.4
57970.1,39851.3
57974.8,39832.6
57981.3,39814.4
57989.6,39796.9
57999.5,39780.3
58011,39764.8
58024,39750.5
58038.3,39737.5
58053.8,39726
58070.4,39716.1
58087.8,39707.8
58106,39701.3
58124.8,39696.6
58143.9,39693.8
58163.2,39692.8
58871.8,39692.8
Z" /> 
<path style="fill:#000000; fill-opacity:1.0; 
stroke:#000000; stroke-width:0; stroke-opacity:1; 
stroke-linecap:round; stroke-linejoin:round;fill-rule:evenodd;"
d="M 58891.1,41308
58910.2,41310.8
58929,41315.5
58947.2,41322
58964.6,41330.3
58981.2,41340.2
58996.7,41351.7
59011,41364.7
59024,41379
59035.5,41394.5
59045.4,41411.1
59053.7,41428.5
59060.2,41446.7
59064.9,41465.5
59067.7,41484.6
59068.7,41503.9
59068.7,42015.7
59067.7,42035
59064.9,42054.1
59060.2,42072.8
59053.7,42091
59045.4,42108.5
59035.5,42125
59024,42140.6
59011,42154.9
58996.7,42167.9
58981.2,42179.4
58964.6,42189.3
58947.2,42197.5
58929,42204.1
58910.2,42208.8
58891.1,42211.6
58871.8,42212.5
58163.2,42212.5
58143.9,42211.6
58124.8,42208.8
58106,42204.1
58087.8,42197.5
58070.4,42189.3
58053.8,42179.4
58038.3,42167.9
58024,42154.9
58011,42140.6
57999.5,42125
57989.6,42108.5
57981.3,42091
57974.8,42072.8
57970.1,42054.1
57967.3,42035
57966.3,42015.7
57966.3,41503.9
57967.3,41484.6
57970.1,41465.5
57974.8,41446.7
57981.3,41428.5
57989.6,41411.1
57999.5,41394.5
58011,41379
58024,41364.7
58038.3,41351.7
58053.8,41340.2
58070.4,41330.3
58087.8,41322
58106,41315.5
58124.8,41310.8
58143.9,41308
58163.2,41307
58871.8,41307
Z" /> 
</g>
<g >
</g>
<g style="fill:#000000; fill-opacity:1.0; 
stroke:#000000; stroke-width:0; stroke-opacity:1; 
stroke-linecap:round; stroke-linejoin:round;">
<path style="fill:#000000; fill-opacity:1.0; 
stroke:#000000; stroke-width:0; stroke-opacity:1; 
stroke-linecap:round; stroke-linejoin:round;fill-rule:evenodd;"
d="M 58891.1,32528.4
58910.2,32531.3
58929,32536
58947.2,32542.5
58964.6,32550.7
58981.2,32560.7
58996.7,32572.2
59011,32585.2
59024,32599.5
59035.5,32615
59045.4,32631.5
59053.7,32649
59060.2,32667.2
59064.9,32685.9
59067.7,32705
59068.7,32724.3
59068.7,33236.2
59067.7,33255.5
59064.9,33274.6
59060.2,33293.3
59053.7,33311.5
59045.4,33329
59035.5,33345.5
59024,33361
59011,33375.4
58996.7,33388.3
58981.2,33399.8
58964.6,33409.8
58947.2,33418
58929,33424.5
58910.2,33429.2
58891.1,33432.1
58871.8,33433
58163.2,33433
58143.9,33432.1
58124.8,33429.2
58106,33424.5
58087.8,33418
58070.4,33409.8
58053.8,33399.8
58038.3,33388.3
58024,33375.4
58011,33361
57999.5,33345.5
57989.6,33329
57981.3,33311.5
57974.8,33293.3
57970.1,33274.6
57967.3,33255.5
57966.3,33236.2
57966.3,32724.3
57967.3,32705
57970.1,32685.9
57974.8,32667.2
57981.3,32649
57989.6,32631.5
57999.5,32615
58011,32599.5
58024,32585.2
58038.3,32572.2
58053.8,32560.7
58070.4,32550.7
58087.8,32542.5
58106,32536
58124.8,32531.3
58143.9,32528.4
58163.2,32527.5
58871.8,32527.5
Z" /> 
<path style="fill:#000000; fill-opacity:1.0; 
stroke:#000000; stroke-width:0; stroke-opacity:1; 
stroke-linecap:round; stroke-linejoin:round;fill-rule:evenodd;"
d="M 58891.1,30914.3
58910.2,30917.1
58929,30921.8
58947.2,30928.3
58964.6,30936.6
58981.2,30946.5
58996.7,30958
59011,30971
59024,30985.3
59035.5,31000.8
59045.4,31017.4
59053.7,31034.8
59060.2,31053
59064.9,31071.8
59067.7,31090.9
59068.7,31110.2
59068.7,31622
59067.7,31641.3
59064.9,31660.4
59060.2,31679.1
59053.7,31697.3
59045.4,31714.8
59035.5,31731.3
59024,31746.9
59011,31761.2
58996.7,31774.2
58981.2,31785.7
58964.6,31795.6
58947.2,31803.8
58929,31810.4
58910.2,31815.1
58891.1,31817.9
58871.8,31818.8
58163.2,31818.8
58143.9,31817.9
58124.8,31815.1
58106,31810.4
58087.8,31803.8
58070.4,31795.6
58053.8,31785.7
58038.3,31774.2
58024,31761.2
58011,31746.9
57999.5,31731.3
57989.6,31714.8
57981.3,31697.3
57974.8,31679.1
57970.1,31660.4
57967.3,31641.3
57966.3,31622
57966.3,31110.2
57967.3,31090.9
57970.1,31071.8
57974.8,31053
57981.3,31034.8
57989.6,31017.4
57999.5,31000.8
58011,30985.3
58024,30971
58038.3,30958
58053.8,30946.5
58070.4,30936.6
58087.8,30928.3
58106,30921.8
58124.8,30917.1
58143.9,30914.3
58163.2,30913.3
58871.8,30913.3
Z" /> 
</g>
<g >
</g>
<g style="fill:#000000; fill-opacity:1.0; 
stroke:#000000; stroke-width:0; stroke-opacity:1; 
stroke-linecap:round; stroke-linejoin:round;">
<path style="fill:#000000; fill-opacity:1.0; 
stroke:#000000; stroke-width:0; stroke-opacity:1; 
stroke-linecap:round; stroke-linejoin:round;fill-rule:evenodd;"
d="M 58103.7,49636.7
58122.8,49639.5
58141.6,49644.2
58159.8,49650.7
58177.2,49659
58193.8,49668.9
58209.3,49680.4
58223.6,49693.4
58236.6,49707.7
58248.1,49723.2
58258,49739.8
58266.3,49757.3
58272.8,49775.5
58277.5,49794.2
58280.3,49813.3
58281.3,49832.6
58281.3,50541.3
58280.3,50560.6
58277.5,50579.7
58272.8,50598.4
58266.3,50616.6
58258,50634.1
58248.1,50650.6
58236.6,50666.2
58223.6,50680.5
58209.3,50693.4
58193.8,50704.9
58177.2,50714.9
58159.8,50723.1
58141.6,50729.6
58122.8,50734.3
58103.7,50737.2
58084.4,50738.1
57533.2,50738.1
57513.9,50737.2
57494.8,50734.3
57476.1,50729.6
57457.9,50723.1
57440.4,50714.9
57423.9,50704.9
57408.4,50693.4
57394,50680.5
57381.1,50666.2
57369.6,50650.6
57359.6,50634.1
57351.4,50616.6
57344.9,50598.4
57340.2,50579.7
57337.3,50560.6
57336.4,50541.3
57336.4,49832.6
57337.3,49813.3
57340.2,49794.2
57344.9,49775.5
57351.4,49757.3
57359.6,49739.8
57369.6,49723.2
57381.1,49707.7
57394,49693.4
57408.4,49680.4
57423.9,49668.9
57440.4,49659
57457.9,49650.7
57476.1,49644.2
57494.8,49639.5
57513.9,49636.7
57533.2,49635.8
58084.4,49635.8
Z" /> 
<path style="fill:#000000; fill-opacity:1.0; 
stroke:#000000; stroke-width:0; stroke-opacity:1; 
stroke-linecap:round; stroke-linejoin:round;fill-rule:evenodd;"
d="M 56528.9,49636.7
56548,49639.5
56566.8,49644.2
56585,49650.7
56602.4,49659
56619,49668.9
56634.5,49680.4
56648.8,49693.4
56661.8,49707.7
56673.3,49723.2
56683.2,49739.8
56691.5,49757.3
56698,49775.5
56702.7,49794.2
56705.5,49813.3
56706.5,49832.6
56706.5,50541.3
56705.5,50560.6
56702.7,50579.7
56698,50598.4
56691.5,50616.6
56683.2,50634.1
56673.3,50650.6
56661.8,50666.2
56648.8,50680.5
56634.5,50693.4
56619,50704.9
56602.4,50714.9
56585,50723.1
56566.8,50729.6
56548,50734.3
56528.9,50737.2
56509.6,50738.1
55958.4,50738.1
55939.1,50737.2
55920,50734.3
55901.3,50729.6
55883.1,50723.1
55865.6,50714.9
55849.1,50704.9
55833.6,50693.4
55819.2,50680.5
55806.3,50666.2
55794.8,50650.6
55784.8,50634.1
55776.6,50616.6
55770.1,50598.4
55765.4,50579.7
55762.5,50560.6
55761.6,50541.3
55761.6,49832.6
55762.5,49813.3
55765.4,49794.2
55770.1,49775.5
55776.6,49757.3
55784.8,49739.8
55794.8,49723.2
55806.3,49707.7
55819.2,49693.4
55833.6,49680.4
55849.1,49668.9
55865.6,49659
55883.1,49650.7
55901.3,49644.2
55920,49639.5
55939.1,49636.7
55958.4,49635.8
56509.6,49635.8
Z" /> 
</g>
<g >
</g>
<g >
</g>
<g >
</g>
<g style="fill:#000000; fill-opacity:1.0; 
stroke:#000000; stroke-width:0; stroke-opacity:1; 
stroke-linecap:round; stroke-linejoin:round;">
<path style="fill:#000000; fill-opacity:1.0; 
stroke:#000000; stroke-width:0; stroke-opacity:1; 
stroke-linecap:round; stroke-linejoin:round;fill-rule:evenodd;"
d="M 56528.9,47471.4
56548,47474.2
56566.8,47478.9
56585,47485.4
56602.4,47493.7
56619,47503.6
56634.5,47515.1
56648.8,47528.1
56661.8,47542.4
56673.3,47557.9
56683.2,47574.5
56691.5,47591.9
56698,47610.1
56702.7,47628.9
56705.5,47648
56706.5,47667.3
56706.5,48375.9
56705.5,48395.2
56702.7,48414.3
56698,48433.1
56691.5,48451.3
56683.2,48468.7
56673.3,48485.3
56661.8,48500.8
56648.8,48515.1
56634.5,48528.1
56619,48539.6
56602.4,48549.5
56585,48557.8
56566.8,48564.3
56548,48569
56528.9,48571.8
56509.6,48572.8
55958.4,48572.8
55939.1,48571.8
55920,48569
55901.3,48564.3
55883.1,48557.8
55865.6,48549.5
55849.1,48539.6
55833.6,48528.1
55819.2,48515.1
55806.3,48500.8
55794.8,48485.3
55784.8,48468.7
55776.6,48451.3
55770.1,48433.1
55765.4,48414.3
55762.5,48395.2
55761.6,48375.9
55761.6,47667.3
55762.5,47648
55765.4,47628.9
55770.1,47610.1
55776.6,47591.9
55784.8,47574.5
55794.8,47557.9
55806.3,47542.4
55819.2,47528.1
55833.6,47515.1
55849.1,47503.6
55865.6,47493.7
55883.1,47485.4
55901.3,47478.9
55920,47474.2
55939.1,47471.4
55958.4,47470.4
56509.6,47470.4
Z" /> 
<path style="fill:#000000; fill-opacity:1.0; 
stroke:#000000; stroke-width:0; stroke-opacity:1; 
stroke-linecap:round; stroke-linejoin:round;fill-rule:evenodd;"
d="M 58103.7,47471.4
58122.8,47474.2
58141.6,47478.9
58159.8,47485.4
58177.2,47493.7
58193.8,47503.6
58209.3,47515.1
58223.6,47528.1
58236.6,47542.4
58248.1,47557.9
58258,47574.5
58266.3,47591.9
58272.8,47610.1
58277.5,47628.9
58280.3,47648
58281.3,47667.3
58281.3,48375.9
58280.3,48395.2
58277.5,48414.3
58272.8,48433.1
58266.3,48451.3
58258,48468.7
58248.1,48485.3
58236.6,48500.8
58223.6,48515.1
58209.3,48528.1
58193.8,48539.6
58177.2,48549.5
58159.8,48557.8
58141.6,48564.3
58122.8,48569
58103.7,48571.8
58084.4,48572.8
57533.2,48572.8
57513.9,48571.8
57494.8,48569
57476.1,48564.3
57457.9,48557.8
57440.4,48549.5
57423.9,48539.6
57408.4,48528.1
57394,48515.1
57381.1,48500.8
57369.6,48485.3
57359.6,48468.7
57351.4,48451.3
57344.9,48433.1
57340.2,48414.3
57337.3,48395.2
57336.4,48375.9
57336.4,47667.3
57337.3,47648
57340.2,47628.9
57344.9,47610.1
57351.4,47591.9
57359.6,47574.5
57369.6,47557.9
57381.1,47542.4
57394,47528.1
57408.4,47515.1
57423.9,47503.6
57440.4,47493.7
57457.9,47485.4
57476.1,47478.9
57494.8,47474.2
57513.9,47471.4
57533.2,47470.4
58084.4,47470.4
Z" /> 
</g>
<g >
</g>
<g >
</g>
<g style="fill:#000000; fill-opacity:1.0; 
stroke:#000000; stroke-width:0; stroke-opacity:1; 
stroke-linecap:round; stroke-linejoin:round;">
<path style="fill:#000000; fill-opacity:1.0; 
stroke:#000000; stroke-width:0; stroke-opacity:1; 
stroke-linecap:round; stroke-linejoin:round;fill-rule:evenodd;"
d="M 49981.7,48061.9
50000.8,48064.7
50019.5,48069.4
50037.7,48075.9
50055.2,48084.2
50071.7,48094.1
50087.3,48105.6
50101.6,48118.6
50114.5,48132.9
50126.1,48148.4
50136,48165
50144.2,48182.5
50150.7,48200.7
50155.4,48219.4
50158.3,48238.5
50159.2,48257.8
50159.2,48789.3
50158.3,48808.6
50155.4,48827.7
50150.7,48846.4
50144.2,48864.6
50136,48882.1
50126.1,48898.7
50114.5,48914.2
50101.6,48928.5
50087.3,48941.5
50071.7,48953
50055.2,48962.9
50037.7,48971.2
50019.5,48977.7
50000.8,48982.4
49981.7,48985.2
49962.4,48986.2
49214.3,48986.2
49195,48985.2
49175.9,48982.4
49157.2,48977.7
49139,48971.2
49121.5,48962.9
49105,48953
49089.5,48941.5
49075.1,48928.5
49062.2,48914.2
49050.7,48898.7
49040.7,48882.1
49032.5,48864.6
49026,48846.4
49021.3,48827.7
49018.4,48808.6
49017.5,48789.3
49017.5,48257.8
49018.4,48238.5
49021.3,48219.4
49026,48200.7
49032.5,48182.5
49040.7,48165
49050.7,48148.4
49062.2,48132.9
49075.1,48118.6
49089.5,48105.6
49105,48094.1
49121.5,48084.2
49139,48075.9
49157.2,48069.4
49175.9,48064.7
49195,48061.9
49214.3,48061
49962.4,48061
Z" /> 
<path style="fill:#000000; fill-opacity:1.0; 
stroke:#000000; stroke-width:0; stroke-opacity:1; 
stroke-linecap:round; stroke-linejoin:round;fill-rule:evenodd;"
d="M 49981.7,46428
50000.8,46430.9
50019.5,46435.6
50037.7,46442.1
50055.2,46450.3
50071.7,46460.3
50087.3,46471.8
50101.6,46484.8
50114.5,46499.1
50126.1,46514.6
50136,46531.2
50144.2,46548.6
50150.7,46566.8
50155.4,46585.5
50158.3,46604.7
50159.2,46624
50159.2,47155.4
50158.3,47174.7
50155.4,47193.9
50150.7,47212.6
50144.2,47230.8
50136,47248.2
50126.1,47264.8
50114.5,47280.3
50101.6,47294.6
50087.3,47307.6
50071.7,47319.1
50055.2,47329.1
50037.7,47337.3
50019.5,47343.8
50000.8,47348.5
49981.7,47351.3
49962.4,47352.3
49214.3,47352.3
49195,47351.3
49175.9,47348.5
49157.2,47343.8
49139,47337.3
49121.5,47329.1
49105,47319.1
49089.5,47307.6
49075.1,47294.6
49062.2,47280.3
49050.7,47264.8
49040.7,47248.2
49032.5,47230.8
49026,47212.6
49021.3,47193.9
49018.4,47174.7
49017.5,47155.4
49017.5,46624
49018.4,46604.7
49021.3,46585.5
49026,46566.8
49032.5,46548.6
49040.7,46531.2
49050.7,46514.6
49062.2,46499.1
49075.1,46484.8
49089.5,46471.8
49105,46460.3
49121.5,46450.3
49139,46442.1
49157.2,46435.6
49175.9,46430.9
49195,46428
49214.3,46427.1
49962.4,46427.1
Z" /> 
</g>
<g >
</g>
<g >
</g>
<g style="fill:#000000; fill-opacity:1.0; 
stroke:#000000; stroke-width:0; stroke-opacity:1; 
stroke-linecap:round; stroke-linejoin:round;">
<path style="fill:#000000; fill-opacity:1.0; 
stroke:#000000; stroke-width:0; stroke-opacity:1; 
stroke-linecap:round; stroke-linejoin:round;fill-rule:evenodd;"
d="M 49981.7,43278.4
50000.8,43281.3
50019.5,43286
50037.7,43292.5
50055.2,43300.7
50071.7,43310.7
50087.3,43322.2
50101.6,43335.2
50114.5,43349.5
50126.1,43365
50136,43381.6
50144.2,43399
50150.7,43417.2
50155.4,43435.9
50158.3,43455.1
50159.2,43474.3
50159.2,44005.8
50158.3,44025.1
50155.4,44044.2
50150.7,44063
50144.2,44081.2
50136,44098.6
50126.1,44115.2
50114.5,44130.7
50101.6,44145
50087.3,44158
50071.7,44169.5
50055.2,44179.4
50037.7,44187.7
50019.5,44194.2
50000.8,44198.9
49981.7,44201.7
49962.4,44202.7
49214.3,44202.7
49195,44201.7
49175.9,44198.9
49157.2,44194.2
49139,44187.7
49121.5,44179.4
49105,44169.5
49089.5,44158
49075.1,44145
49062.2,44130.7
49050.7,44115.2
49040.7,44098.6
49032.5,44081.2
49026,44063
49021.3,44044.2
49018.4,44025.1
49017.5,44005.8
49017.5,43474.3
49018.4,43455.1
49021.3,43435.9
49026,43417.2
49032.5,43399
49040.7,43381.6
49050.7,43365
49062.2,43349.5
49075.1,43335.2
49089.5,43322.2
49105,43310.7
49121.5,43300.7
49139,43292.5
49157.2,43286
49175.9,43281.3
49195,43278.4
49214.3,43277.5
49962.4,43277.5
Z" /> 
<path style="fill:#000000; fill-opacity:1.0; 
stroke:#000000; stroke-width:0; stroke-opacity:1; 
stroke-linecap:round; stroke-linejoin:round;fill-rule:evenodd;"
d="M 49981.7,44912.3
50000.8,44915.1
50019.5,44919.8
50037.7,44926.3
50055.2,44934.6
50071.7,44944.5
50087.3,44956
50101.6,44969
50114.5,44983.3
50126.1,44998.8
50136,45015.4
50144.2,45032.9
50150.7,45051.1
50155.4,45069.8
50158.3,45088.9
50159.2,45108.2
50159.2,45639.7
50158.3,45659
50155.4,45678.1
50150.7,45696.8
50144.2,45715
50136,45732.5
50126.1,45749.1
50114.5,45764.6
50101.6,45778.9
50087.3,45791.9
50071.7,45803.4
50055.2,45813.3
50037.7,45821.6
50019.5,45828.1
50000.8,45832.8
49981.7,45835.6
49962.4,45836.5
49214.3,45836.5
49195,45835.6
49175.9,45832.8
49157.2,45828.1
49139,45821.6
49121.5,45813.3
49105,45803.4
49089.5,45791.9
49075.1,45778.9
49062.2,45764.6
49050.7,45749.1
49040.7,45732.5
49032.5,45715
49026,45696.8
49021.3,45678.1
49018.4,45659
49017.5,45639.7
49017.5,45108.2
49018.4,45088.9
49021.3,45069.8
49026,45051.1
49032.5,45032.9
49040.7,45015.4
49050.7,44998.8
49062.2,44983.3
49075.1,44969
49089.5,44956
49105,44944.5
49121.5,44934.6
49139,44926.3
49157.2,44919.8
49175.9,44915.1
49195,44912.3
49214.3,44911.4
49962.4,44911.4
Z" /> 
</g>
<g >
</g>
<g >
</g>
<g >
</g>
<g >
</g>
<g style="fill:#000000; fill-opacity:1.0; 
stroke:#000000; stroke-width:0; stroke-opacity:1; 
stroke-linecap:round; stroke-linejoin:round;">
<path style="fill:#000000; fill-opacity:1.0; 
stroke:#000000; stroke-width:0; stroke-opacity:1; 
stroke-linecap:round; stroke-linejoin:round;fill-rule:evenodd;"
d="M 56489.5,51782.4
56508.7,51785.2
56527.4,51789.9
56545.6,51796.4
56563,51804.7
56579.6,51814.6
56595.1,51826.1
56609.4,51839.1
56622.4,51853.4
56633.9,51868.9
56643.9,51885.5
56652.1,51903
56658.6,51921.1
56663.3,51939.9
56666.2,51959
56667.1,51978.3
56667.1,52726.3
56666.2,52745.6
56663.3,52764.7
56658.6,52783.5
56652.1,52801.6
56643.9,52819.1
56633.9,52835.7
56622.4,52851.2
56609.4,52865.5
56595.1,52878.5
56579.6,52890
56563,52899.9
56545.6,52908.2
56527.4,52914.7
56508.7,52919.4
56489.5,52922.2
56470.2,52923.2
55938.8,52923.2
55919.5,52922.2
55900.3,52919.4
55881.6,52914.7
55863.4,52908.2
55846,52899.9
55829.4,52890
55813.9,52878.5
55799.6,52865.5
55786.6,52851.2
55775.1,52835.7
55765.1,52819.1
55756.9,52801.6
55750.4,52783.5
55745.7,52764.7
55742.9,52745.6
55741.9,52726.3
55741.9,51978.3
55742.9,51959
55745.7,51939.9
55750.4,51921.1
55756.9,51903
55765.1,51885.5
55775.1,51868.9
55786.6,51853.4
55799.6,51839.1
55813.9,51826.1
55829.4,51814.6
55846,51804.7
55863.4,51796.4
55881.6,51789.9
55900.3,51785.2
55919.5,51782.4
55938.8,51781.4
56470.2,51781.4
Z" /> 
<path style="fill:#000000; fill-opacity:1.0; 
stroke:#000000; stroke-width:0; stroke-opacity:1; 
stroke-linecap:round; stroke-linejoin:round;fill-rule:evenodd;"
d="M 58123.4,51782.4
58142.5,51785.2
58161.3,51789.9
58179.4,51796.4
58196.9,51804.7
58213.5,51814.6
58229,51826.1
58243.3,51839.1
58256.3,51853.4
58267.8,51868.9
58277.7,51885.5
58286,51903
58292.5,51921.1
58297.2,51939.9
58300,51959
58301,51978.3
58301,52726.3
58300,52745.6
58297.2,52764.7
58292.5,52783.5
58286,52801.6
58277.7,52819.1
58267.8,52835.7
58256.3,52851.2
58243.3,52865.5
58229,52878.5
58213.5,52890
58196.9,52899.9
58179.4,52908.2
58161.3,52914.7
58142.5,52919.4
58123.4,52922.2
58104.1,52923.2
57572.6,52923.2
57553.3,52922.2
57534.2,52919.4
57515.5,52914.7
57497.3,52908.2
57479.8,52899.9
57463.2,52890
57447.7,52878.5
57433.4,52865.5
57420.4,52851.2
57408.9,52835.7
57399,52819.1
57390.7,52801.6
57384.2,52783.5
57379.5,52764.7
57376.7,52745.6
57375.8,52726.3
57375.8,51978.3
57376.7,51959
57379.5,51939.9
57384.2,51921.1
57390.7,51903
57399,51885.5
57408.9,51868.9
57420.4,51853.4
57433.4,51839.1
57447.7,51826.1
57463.2,51814.6
57479.8,51804.7
57497.3,51796.4
57515.5,51789.9
57534.2,51785.2
57553.3,51782.4
57572.6,51781.4
58104.1,51781.4
Z" /> 
</g>
<g >
</g>
<g >
</g>
<g >
</g>
<g >
</g>
<g >
</g>
<g >
</g>
<g >
</g>
<g >
</g>
<g >
</g>
<g style="fill:#000000; fill-opacity:1.0; 
stroke:#000000; stroke-width:0; stroke-opacity:1; 
stroke-linecap:round; stroke-linejoin:round;">
<circle cx="46249.8" cy="44061" r="590.551" /> 
</g>
<g style="fill:#000000; fill-opacity:1.0; 
stroke:#000000; stroke-width:118.11; stroke-opacity:1; 
stroke-linecap:round; stroke-linejoin:round;">
</g>
<g style="fill:#000000; fill-opacity:1.0; 
stroke:#000000; stroke-width:0; stroke-opacity:1; 
stroke-linecap:round; stroke-linejoin:round;">
<circle cx="46249.8" cy="47903.5" r="590.551" /> 
</g>
<g style="fill:#000000; fill-opacity:1.0; 
stroke:#000000; stroke-width:118.11; stroke-opacity:1; 
stroke-linecap:round; stroke-linejoin:round;">
</g>
<g >
</g>
<g style="fill:#000000; fill-opacity:1.0; 
stroke:#000000; stroke-width:118.11; stroke-opacity:1; 
stroke-linecap:round; stroke-linejoin:round;">
</g>
<g style="fill:#000000; fill-opacity:1.0; 
stroke:#000000; stroke-width:0; stroke-opacity:1; 
stroke-linecap:round; stroke-linejoin:round;">
<circle cx="60564.7" cy="53139.7" r="787.402" /> 
</g>
<g style="fill:#000000; fill-opacity:1.0; 
stroke:#000000; stroke-width:118.11; stroke-opacity:1; 
stroke-linecap:round; stroke-linejoin:round;">
</g>
<g style="fill:#000000; fill-opacity:1.0; 
stroke:#000000; stroke-width:0; stroke-opacity:1; 
stroke-linecap:round; stroke-linejoin:round;">
<circle cx="60564.7" cy="49596.4" r="787.402" /> 
</g>
<g style="fill:#000000; fill-opacity:1.0; 
stroke:#000000; stroke-width:118.11; stroke-opacity:1; 
stroke-linecap:round; stroke-linejoin:round;">
</g>
<g style="fill:#000000; fill-opacity:1.0; 
stroke:#000000; stroke-width:0; stroke-opacity:1; 
stroke-linecap:round; stroke-linejoin:round;">
<circle cx="65682.8" cy="53139.7" r="787.402" /> 
</g>
<g style="fill:#000000; fill-opacity:1.0; 
stroke:#000000; stroke-width:118.11; stroke-opacity:1; 
stroke-linecap:round; stroke-linejoin:round;">
</g>
<g style="fill:#000000; fill-opacity:1.0; 
stroke:#000000; stroke-width:0; stroke-opacity:1; 
stroke-linecap:round; stroke-linejoin:round;">
<circle cx="65682.8" cy="49596.4" r="787.402" /> 
</g>
<g style="fill:#000000; fill-opacity:1.0; 
stroke:#000000; stroke-width:118.11; stroke-opacity:1; 
stroke-linecap:round; stroke-linejoin:round;">
</g>
<g >
</g>
<g >
</g>
<g >
</g>
</g> 
</svg>
