<?xml version="1.0" standalone="no"?>
 <!DOCTYPE svg PUBLIC "-//W3C//DTD SVG 1.1//EN" 
 "http://www.w3.org/Graphics/SVG/1.1/DTD/svg11.dtd"> 
<svg
  xmlns:svg="http://www.w3.org/2000/svg"
  xmlns="http://www.w3.org/2000/svg"
  xmlns:xlink="http://www.w3.org/1999/xlink"
  version="1.1"
  width="29.700220cm" height="21.000720cm" viewBox="0 0 116930 82680">
<title>SVG Picture created as board-B_CrtYd.svg date 2021/03/29 15:50:40 </title>
  <desc>Picture generated by PCBNEW </desc>
<g style="fill:#000000; fill-opacity:1;stroke:#000000; stroke-opacity:1;
stroke-linecap:round; stroke-linejoin:round;"
 transform="translate(0 0) scale(1 1)">
</g>
<g style="fill:#000000; fill-opacity:0.0; 
stroke:#000000; stroke-width:-0.000787402; stroke-opacity:1; 
stroke-linecap:round; stroke-linejoin:round;">
</g>
<g style="fill:#000000; fill-opacity:0.0; 
stroke:#000000; stroke-width:78.7402; stroke-opacity:1; 
stroke-linecap:round; stroke-linejoin:round;">
<path d="M11509.6 57352.3 A2362.2 2362.2 0.0 0 0 13871.8 59714.5" />
<path d="M13871.8 23100.3 A2362.2 2362.2 0.0 0 0 11509.6 25462.5" />
<path d="M68202.5 25462.5 A2362.2 2362.2 0.0 0 0 65840.3 23100.3" />
<path d="M65840.3 59714.5 A2362.21 2362.21 0.0 0 0 68202.5 57352.3" />
<path d="M13871 59714
L65840 59714
" />
<path d="M11509 25462
L11509 57352
" />
<path d="M65840 23100
L13871 23100
" />
<path d="M68202 57352
L68202 25462
" />
</g>
<g style="fill:#000000; fill-opacity:0.0; 
stroke:#000000; stroke-width:39.3701; stroke-opacity:1; 
stroke-linecap:round; stroke-linejoin:round;">
<path d="M30698 52643
L30698 54186
" />
<path d="M30698 54186
L33659 54186
" />
<path d="M33659 54186
L33659 52643
" />
<path d="M33659 52643
L30698 52643
" />
<path d="M35604 41997
L35604 37194
" />
<path d="M32808 41997
L35604 41997
" />
<path d="M32808 37194
L32808 41997
" />
<path d="M35604 37194
L32808 37194
" />
<path d="M32257 36486
L34856 36486
" />
<path d="M32257 36486
L32257 34517
" />
<path d="M34856 34517
L34856 36486
" />
<path d="M34856 34517
L32257 34517
" />
<path d="M52178 36919
L59108 36919
" />
<path d="M52178 42588
L52178 36919
" />
<path d="M59108 42588
L52178 42588
" />
<path d="M59108 36919
L59108 42588
" />
<path d="M52178 28257
L59108 28257
" />
<path d="M52178 33927
L52178 28257
" />
<path d="M59108 33927
L52178 33927
" />
<path d="M59108 28257
L59108 33927
" />
<path d="M50147 39462
L51690 39462
" />
<path d="M51690 39462
L51690 36501
" />
<path d="M51690 36501
L50147 36501
" />
<path d="M50147 36501
L50147 39462
" />
<path d="M50344 30801
L51887 30801
" />
<path d="M51887 30801
L51887 27840
" />
<path d="M51887 27840
L50344 27840
" />
<path d="M50344 27840
L50344 30801
" />
<path d="M36328 37572
L37871 37572
" />
<path d="M37871 37572
L37871 34612
" />
<path d="M37871 34612
L36328 34612
" />
<path d="M36328 34612
L36328 37572
" />
<path d="M26564 34336
L26564 35879
" />
<path d="M26564 35879
L29525 35879
" />
<path d="M29525 35879
L29525 34336
" />
<path d="M29525 34336
L26564 34336
" />
<path d="M18021 48399
L19564 48399
" />
<path d="M19564 48399
L19564 45438
" />
<path d="M19564 45438
L18021 45438
" />
<path d="M18021 45438
L18021 48399
" />
<path d="M44367 46816
L42824 46816
" />
<path d="M42824 46816
L42824 49777
" />
<path d="M42824 49777
L44367 49777
" />
<path d="M44367 49777
L44367 46816
" />
<path d="M58865 44265
L58865 42722
" />
<path d="M58865 42722
L55905 42722
" />
<path d="M55905 42722
L55905 44265
" />
<path d="M55905 44265
L58865 44265
" />
<path d="M44367 37564
L42824 37564
" />
<path d="M42824 37564
L42824 40525
" />
<path d="M42824 40525
L44367 40525
" />
<path d="M44367 40525
L44367 37564
" />
<path d="M27753 29777
L27753 28234
" />
<path d="M27753 28234
L24793 28234
" />
<path d="M24793 28234
L24793 29777
" />
<path d="M24793 29777
L27753 29777
" />
<path d="M25863 40714
L24320 40714
" />
<path d="M24320 40714
L24320 43675
" />
<path d="M24320 43675
L25863 43675
" />
<path d="M25863 43675
L25863 40714
" />
<path d="M19564 41895
L18021 41895
" />
<path d="M18021 41895
L18021 44856
" />
<path d="M18021 44856
L19564 44856
" />
<path d="M19564 44856
L19564 41895
" />
<path d="M42785 43675
L44328 43675
" />
<path d="M44328 43675
L44328 40714
" />
<path d="M44328 40714
L42785 40714
" />
<path d="M42785 40714
L42785 43675
" />
<path d="M36328 43675
L37871 43675
" />
<path d="M37871 43675
L37871 40714
" />
<path d="M37871 40714
L36328 40714
" />
<path d="M36328 40714
L36328 43675
" />
<path d="M31769 47887
L31769 46344
" />
<path d="M31769 46344
L28808 46344
" />
<path d="M28808 46344
L28808 47887
" />
<path d="M28808 47887
L31769 47887
" />
<path d="M58698 35604
L58698 34060
" />
<path d="M58698 34060
L55737 34060
" />
<path d="M55737 34060
L55737 35604
" />
<path d="M55737 35604
L58698 35604
" />
<g >
</g>
<g >
</g>
<g >
</g>
<g >
</g>
<g >
</g>
<g >
</g>
<g >
</g>
<g >
</g>
<g >
</g>
<g >
</g>
<g >
</g>
<g >
</g>
<g >
</g>
<g >
</g>
<g >
</g>
<g >
</g>
<g >
</g>
<g >
</g>
<g >
</g>
<g >
</g>
<g >
</g>
<g >
</g>
<g >
</g>
<g >
</g>
<g >
</g>
<g >
</g>
<g >
</g>
<g >
</g>
<g >
</g>
<g >
</g>
<g >
</g>
<g >
</g>
<g >
</g>
<g >
</g>
<g >
</g>
<g >
</g>
<g >
</g>
<g >
</g>
<g >
</g>
<g >
</g>
<g >
</g>
<g >
</g>
<g >
</g>
<g >
</g>
<g >
</g>
<g >
</g>
<g >
</g>
<g >
</g>
<g >
</g>
<g >
</g>
</g> 
</svg>
