<?xml version="1.0" standalone="no"?>
 <!DOCTYPE svg PUBLIC "-//W3C//DTD SVG 1.1//EN" 
 "http://www.w3.org/Graphics/SVG/1.1/DTD/svg11.dtd"> 
<svg
  xmlns:svg="http://www.w3.org/2000/svg"
  xmlns="http://www.w3.org/2000/svg"
  xmlns:xlink="http://www.w3.org/1999/xlink"
  version="1.1"
  width="29.700220cm" height="21.000720cm" viewBox="0 0 116930 82680">
<title>SVG Picture created as board-F_SilkS.svg date 2021/03/29 15:50:40 </title>
  <desc>Picture generated by PCBNEW </desc>
<g style="fill:#000000; fill-opacity:1;stroke:#000000; stroke-opacity:1;
stroke-linecap:round; stroke-linejoin:round;"
 transform="translate(0 0) scale(1 1)">
</g>
<g style="fill:#000000; fill-opacity:0.0; 
stroke:#000000; stroke-width:-0.000787402; stroke-opacity:1; 
stroke-linecap:round; stroke-linejoin:round;">
</g>
<g style="fill:#000000; fill-opacity:0.0; 
stroke:#000000; stroke-width:78.7402; stroke-opacity:1; 
stroke-linecap:round; stroke-linejoin:round;">
<text x="59029.3" y="58533.4"
textLength="6809.15" font-size="839.894" lengthAdjust="spacingAndGlyphs"
text-anchor="middle" opacity="0">January, 2021</text>
<path d="M55954 57873
L55954 58323
L55924 58413
L55864 58473
L55774 58503
L55714 58503
" />
<path d="M56524 58503
L56524 58173
L56494 58113
L56434 58083
L56314 58083
L56254 58113
" />
<path d="M56524 58473
L56464 58503
L56314 58503
L56254 58473
L56224 58413
L56224 58353
L56254 58293
L56314 58263
L56464 58263
L56524 58233
" />
<path d="M56824 58083
L56824 58503
" />
<path d="M56824 58143
L56854 58113
L56914 58083
L57004 58083
L57064 58113
L57094 58173
L57094 58503
" />
<path d="M57664 58083
L57664 58503
" />
<path d="M57394 58083
L57394 58413
L57424 58473
L57484 58503
L57574 58503
L57634 58473
L57664 58443
" />
<path d="M58234 58503
L58234 58173
L58204 58113
L58144 58083
L58024 58083
L57964 58113
" />
<path d="M58234 58473
L58174 58503
L58024 58503
L57964 58473
L57934 58413
L57934 58353
L57964 58293
L58024 58263
L58174 58263
L58234 58233
" />
<path d="M58534 58503
L58534 58083
" />
<path d="M58534 58203
L58564 58143
L58594 58113
L58654 58083
L58714 58083
" />
<path d="M58864 58083
L59014 58503
" />
<path d="M59164 58083
L59014 58503
L58954 58653
L58924 58683
L58864 58713
" />
<path d="M59434 58473
L59434 58503
L59404 58563
L59374 58593
" />
<path d="M60154 57933
L60184 57903
L60244 57873
L60394 57873
L60454 57903
L60484 57933
L60514 57993
L60514 58053
L60484 58143
L60124 58503
L60514 58503
" />
<path d="M60904 57873
L60964 57873
L61024 57903
L61054 57933
L61084 57993
L61114 58113
L61114 58263
L61084 58383
L61054 58443
L61024 58473
L60964 58503
L60904 58503
L60844 58473
L60814 58443
L60784 58383
L60754 58263
L60754 58113
L60784 57993
L60814 57933
L60844 57903
L60904 57873
" />
<path d="M61354 57933
L61384 57903
L61444 57873
L61593 57873
L61653 57903
L61683 57933
L61713 57993
L61713 58053
L61683 58143
L61324 58503
L61713 58503
" />
<path d="M62313 58503
L61953 58503
" />
<path d="M62133 58503
L62133 57873
L62073 57963
L62013 58023
L61953 58053
" />
</g>
<g style="fill:#000000; fill-opacity:0.0; 
stroke:#000000; stroke-width:118.11; stroke-opacity:1; 
stroke-linecap:round; stroke-linejoin:round;">
<text x="62389.8" y="42706.6"
textLength="1639.67" font-size="1049.87" lengthAdjust="spacingAndGlyphs"
text-anchor="start" opacity="0">RX</text>
<path d="M63104 42669
L62841 42294
" />
<path d="M62654 42669
L62654 41881
L62954 41881
L63029 41919
L63066 41956
L63104 42031
L63104 42144
L63066 42219
L63029 42256
L62954 42294
L62654 42294
" />
<path d="M63366 41881
L63891 42669
" />
<path d="M63891 41881
L63366 42669
" />
<text x="62100.2" y="36879.9"
textLength="1578.37" font-size="1049.87" lengthAdjust="spacingAndGlyphs"
text-anchor="start" opacity="0">5V</text>
<path d="M62739 36054
L62364 36054
L62326 36429
L62364 36392
L62439 36354
L62626 36354
L62701 36392
L62739 36429
L62776 36504
L62776 36692
L62739 36767
L62701 36804
L62626 36842
L62439 36842
L62364 36804
L62326 36767
" />
<path d="M63001 36054
L63264 36842
L63526 36054
" />
<text x="61527.4" y="38927.1"
textLength="2553.24" font-size="1049.87" lengthAdjust="spacingAndGlyphs"
text-anchor="start" opacity="0">GND</text>
<path d="M62204 38139
L62129 38102
L62016 38102
L61904 38139
L61829 38214
L61791 38289
L61754 38439
L61754 38552
L61791 38702
L61829 38777
L61904 38852
L62016 38889
L62091 38889
L62204 38852
L62241 38814
L62241 38552
L62091 38552
" />
<path d="M62579 38889
L62579 38102
L63029 38889
L63029 38102
" />
<path d="M63403 38889
L63403 38102
L63591 38102
L63703 38139
L63778 38214
L63816 38289
L63853 38439
L63853 38552
L63816 38702
L63778 38777
L63703 38852
L63591 38889
L63403 38889
" />
<text x="62577.3" y="40974.3"
textLength="1503.37" font-size="1049.87" lengthAdjust="spacingAndGlyphs"
text-anchor="start" opacity="0">TX</text>
<path d="M62729 40149
L63179 40149
" />
<path d="M62954 40936
L62954 40149
" />
<path d="M63366 40149
L63891 40936
" />
<path d="M63891 40149
L63366 40936
" />
<text x="47257.7" y="27667.3"
textLength="940.945" font-size="1049.87" lengthAdjust="spacingAndGlyphs"
text-anchor="start" opacity="0">G</text>
<path d="M47934 26879
L47859 26842
L47746 26842
L47634 26879
L47559 26954
L47521 27029
L47484 27179
L47484 27292
L47521 27442
L47559 27517
L47634 27592
L47746 27629
L47821 27629
L47934 27592
L47971 27554
L47971 27292
L47821 27292
" />
<text x="51352.1" y="27667.3"
textLength="940.945" font-size="1049.87" lengthAdjust="spacingAndGlyphs"
text-anchor="start" opacity="0">G</text>
<path d="M52028 26879
L51953 26842
L51841 26842
L51728 26879
L51653 26954
L51616 27029
L51578 27179
L51578 27292
L51616 27442
L51653 27517
L51728 27592
L51841 27629
L51916 27629
L52028 27592
L52066 27554
L52066 27292
L51916 27292
" />
<text x="55289.1" y="27667.3"
textLength="940.945" font-size="1049.87" lengthAdjust="spacingAndGlyphs"
text-anchor="start" opacity="0">G</text>
<path d="M55965 26879
L55890 26842
L55778 26842
L55665 26879
L55590 26954
L55553 27029
L55515 27179
L55515 27292
L55553 27442
L55590 27517
L55665 27592
L55778 27629
L55853 27629
L55965 27592
L56003 27554
L56003 27292
L55853 27292
" />
<text x="57178.9" y="27667.3"
textLength="1578.37" font-size="1049.87" lengthAdjust="spacingAndGlyphs"
text-anchor="start" opacity="0">5V</text>
<path d="M57818 26842
L57443 26842
L57405 27217
L57443 27179
L57518 27142
L57705 27142
L57780 27179
L57818 27217
L57855 27292
L57855 27479
L57818 27554
L57780 27592
L57705 27629
L57518 27629
L57443 27592
L57405 27554
" />
<path d="M58080 26842
L58343 27629
L58605 26842
" />
<text x="52612" y="27667.3"
textLength="2328.27" font-size="1049.87" lengthAdjust="spacingAndGlyphs"
text-anchor="start" opacity="0">3V3</text>
<path d="M52801 26842
L53288 26842
L53026 27142
L53138 27142
L53213 27179
L53251 27217
L53288 27292
L53288 27479
L53251 27554
L53213 27592
L53138 27629
L52913 27629
L52838 27592
L52801 27554
" />
<path d="M53513 26842
L53776 27629
L54038 26842
" />
<path d="M54226 26842
L54713 26842
L54451 27142
L54563 27142
L54638 27179
L54676 27217
L54713 27292
L54713 27479
L54676 27554
L54638 27592
L54563 27629
L54338 27629
L54263 27592
L54226 27554
" />
<text x="48675" y="27667.3"
textLength="2328.27" font-size="1049.87" lengthAdjust="spacingAndGlyphs"
text-anchor="start" opacity="0">1V8</text>
<path d="M49351 27629
L48901 27629
" />
<path d="M49126 27629
L49126 26842
L49051 26954
L48976 27029
L48901 27067
" />
<path d="M49576 26842
L49839 27629
L50101 26842
" />
<path d="M50476 27179
L50401 27142
L50364 27104
L50326 27029
L50326 26992
L50364 26917
L50401 26879
L50476 26842
L50626 26842
L50701 26879
L50738 26917
L50776 26992
L50776 27029
L50738 27104
L50701 27142
L50626 27179
L50476 27179
L50401 27217
L50364 27254
L50326 27329
L50326 27479
L50364 27554
L50401 27592
L50476 27629
L50626 27629
L50701 27592
L50738 27554
L50776 27479
L50776 27329
L50738 27254
L50701 27217
L50626 27179
" />
<g transform="rotate(-90 25124.5 28161.3)">
<text x="25124.5" y="28555"
textLength="1690.85" font-size="1049.87" lengthAdjust="spacingAndGlyphs"
text-anchor="start" opacity="0">B9</text>
</g>
<path d="M25068 27634
L25105 27522
L25143 27484
L25218 27447
L25330 27447
L25405 27484
L25443 27522
L25480 27597
L25480 27897
L24693 27897
L24693 27634
L24730 27559
L24768 27522
L24843 27484
L24918 27484
L24993 27522
L25030 27559
L25068 27634
L25068 27897
" />
<path d="M25480 27072
L25480 26922
L25443 26847
L25405 26809
L25293 26734
L25143 26697
L24843 26697
L24768 26734
L24730 26772
L24693 26847
L24693 26997
L24730 27072
L24768 27109
L24843 27147
L25030 27147
L25105 27109
L25143 27072
L25180 26997
L25180 26847
L25143 26772
L25105 26734
L25030 26697
" />
<g transform="rotate(-90 27128.8 28161.3)">
<text x="27128.8" y="28555"
textLength="1690.85" font-size="1049.87" lengthAdjust="spacingAndGlyphs"
text-anchor="start" opacity="0">B8</text>
</g>
<path d="M27072 27634
L27110 27522
L27147 27484
L27222 27447
L27335 27447
L27410 27484
L27447 27522
L27485 27597
L27485 27897
L26697 27897
L26697 27634
L26735 27559
L26772 27522
L26847 27484
L26922 27484
L26997 27522
L27035 27559
L27072 27634
L27072 27897
" />
<path d="M27035 26997
L26997 27072
L26960 27109
L26885 27147
L26847 27147
L26772 27109
L26735 27072
L26697 26997
L26697 26847
L26735 26772
L26772 26734
L26847 26697
L26885 26697
L26960 26734
L26997 26772
L27035 26847
L27035 26997
L27072 27072
L27110 27109
L27185 27147
L27335 27147
L27410 27109
L27447 27072
L27485 26997
L27485 26847
L27447 26772
L27410 26734
L27335 26697
L27185 26697
L27110 26734
L27072 26772
L27035 26847
" />
<g transform="rotate(-90 23120.2 28911.2)">
<text x="23120.2" y="29304.9"
textLength="2440.76" font-size="1049.87" lengthAdjust="spacingAndGlyphs"
text-anchor="start" opacity="0">B10</text>
</g>
<path d="M23063 28384
L23101 28271
L23138 28234
L23213 28196
L23326 28196
L23401 28234
L23438 28271
L23476 28346
L23476 28646
L22689 28646
L22689 28384
L22726 28309
L22764 28271
L22838 28234
L22913 28234
L22988 28271
L23026 28309
L23063 28384
L23063 28646
" />
<path d="M23476 27447
L23476 27897
" />
<path d="M23476 27672
L22689 27672
L22801 27747
L22876 27822
L22913 27897
" />
<path d="M22689 26959
L22689 26884
L22726 26809
L22764 26772
L22838 26734
L22988 26697
L23176 26697
L23326 26734
L23401 26772
L23438 26809
L23476 26884
L23476 26959
L23438 27034
L23401 27072
L23326 27109
L23176 27147
L22988 27147
L22838 27109
L22764 27072
L22726 27034
L22689 26959
" />
<g transform="rotate(-90 29133.1 28161.3)">
<text x="29133.1" y="28555"
textLength="1690.85" font-size="1049.87" lengthAdjust="spacingAndGlyphs"
text-anchor="start" opacity="0">B7</text>
</g>
<path d="M29076 27634
L29114 27522
L29151 27484
L29226 27447
L29339 27447
L29414 27484
L29451 27522
L29489 27597
L29489 27897
L28701 27897
L28701 27634
L28739 27559
L28776 27522
L28851 27484
L28926 27484
L29001 27522
L29039 27559
L29076 27634
L29076 27897
" />
<path d="M28701 27184
L28701 26659
L29489 26997
" />
<g transform="rotate(-90 21115.9 28911.2)">
<text x="21115.9" y="29304.9"
textLength="2440.76" font-size="1049.87" lengthAdjust="spacingAndGlyphs"
text-anchor="start" opacity="0">B11</text>
</g>
<path d="M21059 28384
L21097 28271
L21134 28234
L21209 28196
L21322 28196
L21397 28234
L21434 28271
L21472 28346
L21472 28646
L20684 28646
L20684 28384
L20722 28309
L20759 28271
L20834 28234
L20909 28234
L20984 28271
L21022 28309
L21059 28384
L21059 28646
" />
<path d="M21472 27447
L21472 27897
" />
<path d="M21472 27672
L20684 27672
L20797 27747
L20872 27822
L20909 27897
" />
<path d="M21472 26697
L21472 27147
" />
<path d="M21472 26922
L20684 26922
L20797 26997
L20872 27072
L20909 27147
" />
<g transform="rotate(-90 33141.7 28161.3)">
<text x="33141.7" y="28555"
textLength="1690.85" font-size="1049.87" lengthAdjust="spacingAndGlyphs"
text-anchor="start" opacity="0">B5</text>
</g>
<path d="M33085 27634
L33122 27522
L33160 27484
L33235 27447
L33347 27447
L33422 27484
L33460 27522
L33497 27597
L33497 27897
L32710 27897
L32710 27634
L32747 27559
L32785 27522
L32860 27484
L32935 27484
L33010 27522
L33047 27559
L33085 27634
L33085 27897
" />
<path d="M32710 26734
L32710 27109
L33085 27147
L33047 27109
L33010 27034
L33010 26847
L33047 26772
L33085 26734
L33160 26697
L33347 26697
L33422 26734
L33460 26772
L33497 26847
L33497 27034
L33460 27109
L33422 27147
" />
<g transform="rotate(-90 39154.6 28161.3)">
<text x="39154.6" y="28555"
textLength="1690.85" font-size="1049.87" lengthAdjust="spacingAndGlyphs"
text-anchor="start" opacity="0">B2</text>
</g>
<path d="M39098 27634
L39135 27522
L39173 27484
L39248 27447
L39360 27447
L39435 27484
L39473 27522
L39510 27597
L39510 27897
L38723 27897
L38723 27634
L38760 27559
L38798 27522
L38873 27484
L38948 27484
L39023 27522
L39060 27559
L39098 27634
L39098 27897
" />
<path d="M38798 27147
L38760 27109
L38723 27034
L38723 26847
L38760 26772
L38798 26734
L38873 26697
L38948 26697
L39060 26734
L39510 27184
L39510 26697
" />
<g transform="rotate(-90 31137.4 28161.3)">
<text x="31137.4" y="28555"
textLength="1690.85" font-size="1049.87" lengthAdjust="spacingAndGlyphs"
text-anchor="start" opacity="0">B6</text>
</g>
<path d="M31081 27634
L31118 27522
L31156 27484
L31231 27447
L31343 27447
L31418 27484
L31456 27522
L31493 27597
L31493 27897
L30706 27897
L30706 27634
L30743 27559
L30781 27522
L30856 27484
L30931 27484
L31006 27522
L31043 27559
L31081 27634
L31081 27897
" />
<path d="M30706 26772
L30706 26922
L30743 26997
L30781 27034
L30893 27109
L31043 27147
L31343 27147
L31418 27109
L31456 27072
L31493 26997
L31493 26847
L31456 26772
L31418 26734
L31343 26697
L31156 26697
L31081 26734
L31043 26772
L31006 26847
L31006 26997
L31043 27072
L31081 27109
L31156 27147
" />
<g transform="rotate(-90 41158.9 28161.3)">
<text x="41158.9" y="28555"
textLength="1690.85" font-size="1049.87" lengthAdjust="spacingAndGlyphs"
text-anchor="start" opacity="0">B1</text>
</g>
<path d="M41102 27634
L41140 27522
L41177 27484
L41252 27447
L41365 27447
L41440 27484
L41477 27522
L41515 27597
L41515 27897
L40727 27897
L40727 27634
L40765 27559
L40802 27522
L40877 27484
L40952 27484
L41027 27522
L41065 27559
L41102 27634
L41102 27897
" />
<path d="M41515 26697
L41515 27147
" />
<path d="M41515 26922
L40727 26922
L40840 26997
L40915 27072
L40952 27147
" />
<g transform="rotate(-90 37150.3 28161.3)">
<text x="37150.3" y="28555"
textLength="1690.85" font-size="1049.87" lengthAdjust="spacingAndGlyphs"
text-anchor="start" opacity="0">B3</text>
</g>
<path d="M37094 27634
L37131 27522
L37169 27484
L37244 27447
L37356 27447
L37431 27484
L37468 27522
L37506 27597
L37506 27897
L36719 27897
L36719 27634
L36756 27559
L36794 27522
L36869 27484
L36944 27484
L37019 27522
L37056 27559
L37094 27634
L37094 27897
" />
<path d="M36719 27184
L36719 26697
L37019 26959
L37019 26847
L37056 26772
L37094 26734
L37169 26697
L37356 26697
L37431 26734
L37468 26772
L37506 26847
L37506 27072
L37468 27147
L37431 27184
" />
<g transform="rotate(-90 43163.2 28161.3)">
<text x="43163.2" y="28555"
textLength="1690.85" font-size="1049.87" lengthAdjust="spacingAndGlyphs"
text-anchor="start" opacity="0">B0</text>
</g>
<path d="M43106 27634
L43144 27522
L43181 27484
L43256 27447
L43369 27447
L43444 27484
L43481 27522
L43519 27597
L43519 27897
L42731 27897
L42731 27634
L42769 27559
L42806 27522
L42881 27484
L42956 27484
L43031 27522
L43069 27559
L43106 27634
L43106 27897
" />
<path d="M42731 26959
L42731 26884
L42769 26809
L42806 26772
L42881 26734
L43031 26697
L43219 26697
L43369 26734
L43444 26772
L43481 26809
L43519 26884
L43519 26959
L43481 27034
L43444 27072
L43369 27109
L43219 27147
L43031 27147
L42881 27109
L42806 27072
L42769 27034
L42731 26959
" />
<g transform="rotate(-90 35146 28161.3)">
<text x="35146" y="28555"
textLength="1690.85" font-size="1049.87" lengthAdjust="spacingAndGlyphs"
text-anchor="start" opacity="0">B4</text>
</g>
<path d="M35089 27634
L35127 27522
L35164 27484
L35239 27447
L35352 27447
L35427 27484
L35464 27522
L35502 27597
L35502 27897
L34714 27897
L34714 27634
L34752 27559
L34789 27522
L34864 27484
L34939 27484
L35014 27522
L35052 27559
L35089 27634
L35089 27897
" />
<path d="M34977 26772
L35502 26772
" />
<path d="M34677 26959
L35239 27147
L35239 26659
" />
<g transform="rotate(-90 35131.7 56192.8)">
<text x="35131.7" y="56586.5"
textLength="1578.37" font-size="1049.87" lengthAdjust="spacingAndGlyphs"
text-anchor="start" opacity="0">A0</text>
</g>
<path d="M35262 55966
L35262 55591
" />
<path d="M35487 56040
L34700 55778
L35487 55516
" />
<path d="M34700 55103
L34700 55028
L34737 54953
L34775 54916
L34850 54878
L35000 54841
L35187 54841
L35337 54878
L35412 54916
L35450 54953
L35487 55028
L35487 55103
L35450 55178
L35412 55216
L35337 55253
L35187 55291
L35000 55291
L34850 55253
L34775 55216
L34737 55178
L34700 55103
" />
<g transform="rotate(-90 27257.7 56192.8)">
<text x="27257.7" y="56586.5"
textLength="1578.37" font-size="1049.87" lengthAdjust="spacingAndGlyphs"
text-anchor="start" opacity="0">A4</text>
</g>
<path d="M27388 55966
L27388 55591
" />
<path d="M27613 56040
L26826 55778
L27613 55516
" />
<path d="M27088 54916
L27613 54916
" />
<path d="M26788 55103
L27351 55291
L27351 54803
" />
<g transform="rotate(-90 23320.6 56192.8)">
<text x="23320.6" y="56586.5"
textLength="1578.37" font-size="1049.87" lengthAdjust="spacingAndGlyphs"
text-anchor="start" opacity="0">A6</text>
</g>
<path d="M23451 55966
L23451 55591
" />
<path d="M23676 56040
L22889 55778
L23676 55516
" />
<path d="M22889 54916
L22889 55066
L22926 55141
L22964 55178
L23076 55253
L23226 55291
L23526 55291
L23601 55253
L23639 55216
L23676 55141
L23676 54991
L23639 54916
L23601 54878
L23526 54841
L23339 54841
L23264 54878
L23226 54916
L23189 54991
L23189 55141
L23226 55216
L23264 55253
L23339 55291
" />
<g transform="rotate(-90 33163.2 56192.8)">
<text x="33163.2" y="56586.5"
textLength="1578.37" font-size="1049.87" lengthAdjust="spacingAndGlyphs"
text-anchor="start" opacity="0">A1</text>
</g>
<path d="M33294 55966
L33294 55591
" />
<path d="M33519 56040
L32731 55778
L33519 55516
" />
<path d="M33519 54841
L33519 55291
" />
<path d="M33519 55066
L32731 55066
L32844 55141
L32919 55216
L32956 55291
" />
<g transform="rotate(-90 21115.9 56092.5)">
<text x="21115.9" y="56486.2"
textLength="1578.37" font-size="1049.87" lengthAdjust="spacingAndGlyphs"
text-anchor="start" opacity="0">A7</text>
</g>
<path d="M21247 55865
L21247 55490
" />
<path d="M21472 55940
L20684 55678
L21472 55415
" />
<path d="M20684 55228
L20684 54703
L21472 55040
" />
<g transform="rotate(-90 31194.7 56192.8)">
<text x="31194.7" y="56586.5"
textLength="1503.37" font-size="1049.87" lengthAdjust="spacingAndGlyphs"
text-anchor="start" opacity="0">TX</text>
</g>
<path d="M30763 56040
L30763 55591
" />
<path d="M31550 55816
L30763 55816
" />
<path d="M30763 55403
L31550 54878
" />
<path d="M30763 54878
L31550 55403
" />
<g transform="rotate(-90 29226.2 56192.8)">
<text x="29226.2" y="56586.5"
textLength="1690.85" font-size="1049.87" lengthAdjust="spacingAndGlyphs"
text-anchor="start" opacity="0">RX</text>
</g>
<path d="M29582 55478
L29207 55741
" />
<path d="M29582 55928
L28794 55928
L28794 55628
L28832 55553
L28869 55516
L28944 55478
L29057 55478
L29132 55516
L29169 55553
L29207 55628
L29207 55928
" />
<path d="M28794 55216
L29582 54691
" />
<path d="M28794 54691
L29582 55216
" />
<g transform="rotate(-90 25289.1 56192.8)">
<text x="25289.1" y="56586.5"
textLength="1578.37" font-size="1049.87" lengthAdjust="spacingAndGlyphs"
text-anchor="start" opacity="0">A5</text>
</g>
<path d="M25420 55966
L25420 55591
" />
<path d="M25645 56040
L24857 55778
L25645 55516
" />
<path d="M24857 54878
L24857 55253
L25232 55291
L25195 55253
L25157 55178
L25157 54991
L25195 54916
L25232 54878
L25307 54841
L25495 54841
L25570 54878
L25607 54916
L25645 54991
L25645 55178
L25607 55253
L25570 55291
" />
<text x="15188.8" y="52549.1"
textLength="1578.37" font-size="1049.87" lengthAdjust="spacingAndGlyphs"
text-anchor="start" opacity="0">A8</text>
<path d="M15415 52286
L15790 52286
" />
<path d="M15340 52511
L15603 51724
L15865 52511
" />
<path d="M16240 52061
L16165 52024
L16128 51986
L16090 51911
L16090 51874
L16128 51799
L16165 51761
L16240 51724
L16390 51724
L16465 51761
L16502 51799
L16540 51874
L16540 51911
L16502 51986
L16465 52024
L16390 52061
L16240 52061
L16165 52099
L16128 52136
L16090 52211
L16090 52361
L16128 52436
L16165 52474
L16240 52511
L16390 52511
L16465 52474
L16502 52436
L16540 52361
L16540 52211
L16502 52136
L16465 52099
L16390 52061
" />
<text x="15188.8" y="50501.9"
textLength="1578.37" font-size="1049.87" lengthAdjust="spacingAndGlyphs"
text-anchor="start" opacity="0">A9</text>
<path d="M15415 50239
L15790 50239
" />
<path d="M15340 50464
L15603 49677
L15865 50464
" />
<path d="M16165 50464
L16315 50464
L16390 50426
L16427 50389
L16502 50276
L16540 50126
L16540 49826
L16502 49751
L16465 49714
L16390 49677
L16240 49677
L16165 49714
L16128 49751
L16090 49826
L16090 50014
L16128 50089
L16165 50126
L16240 50164
L16390 50164
L16465 50126
L16502 50089
L16540 50014
" />
<text x="15188.8" y="48769.6"
textLength="2328.27" font-size="1049.87" lengthAdjust="spacingAndGlyphs"
text-anchor="start" opacity="0">A10</text>
<path d="M15415 48507
L15790 48507
" />
<path d="M15340 48732
L15603 47944
L15865 48732
" />
<path d="M16540 48732
L16090 48732
" />
<path d="M16315 48732
L16315 47944
L16240 48057
L16165 48132
L16090 48169
" />
<path d="M17027 47944
L17102 47944
L17177 47982
L17215 48019
L17252 48094
L17290 48244
L17290 48432
L17252 48582
L17215 48657
L17177 48694
L17102 48732
L17027 48732
L16952 48694
L16915 48657
L16877 48582
L16840 48432
L16840 48244
L16877 48094
L16915 48019
L16952 47982
L17027 47944
" />
<text x="15188.8" y="46722.4"
textLength="2328.27" font-size="1049.87" lengthAdjust="spacingAndGlyphs"
text-anchor="start" opacity="0">A11</text>
<path d="M15415 46459
L15790 46459
" />
<path d="M15340 46684
L15603 45897
L15865 46684
" />
<path d="M16540 46684
L16090 46684
" />
<path d="M16315 46684
L16315 45897
L16240 46009
L16165 46084
L16090 46122
" />
<path d="M17290 46684
L16840 46684
" />
<path d="M17065 46684
L17065 45897
L16990 46009
L16915 46084
L16840 46122
" />
<text x="15188.8" y="44675.1"
textLength="2328.27" font-size="1049.87" lengthAdjust="spacingAndGlyphs"
text-anchor="start" opacity="0">A12</text>
<path d="M15415 44412
L15790 44412
" />
<path d="M15340 44637
L15603 43850
L15865 44637
" />
<path d="M16540 44637
L16090 44637
" />
<path d="M16315 44637
L16315 43850
L16240 43962
L16165 44037
L16090 44075
" />
<path d="M16840 43925
L16877 43887
L16952 43850
L17140 43850
L17215 43887
L17252 43925
L17290 44000
L17290 44075
L17252 44187
L16802 44637
L17290 44637
" />
<text x="15188.8" y="42785.4"
textLength="2328.27" font-size="1049.87" lengthAdjust="spacingAndGlyphs"
text-anchor="start" opacity="0">A13</text>
<path d="M15415 42522
L15790 42522
" />
<path d="M15340 42747
L15603 41960
L15865 42747
" />
<path d="M16540 42747
L16090 42747
" />
<path d="M16315 42747
L16315 41960
L16240 42072
L16165 42147
L16090 42185
" />
<path d="M16802 41960
L17290 41960
L17027 42260
L17140 42260
L17215 42297
L17252 42335
L17290 42410
L17290 42597
L17252 42672
L17215 42710
L17140 42747
L16915 42747
L16840 42710
L16802 42672
" />
<text x="15188.8" y="40738.1"
textLength="2328.27" font-size="1049.87" lengthAdjust="spacingAndGlyphs"
text-anchor="start" opacity="0">A14</text>
<path d="M15415 40475
L15790 40475
" />
<path d="M15340 40700
L15603 39913
L15865 40700
" />
<path d="M16540 40700
L16090 40700
" />
<path d="M16315 40700
L16315 39913
L16240 40025
L16165 40100
L16090 40138
" />
<path d="M17215 40175
L17215 40700
" />
<path d="M17027 39875
L16840 40438
L17327 40438
" />
<text x="15188.8" y="38848.4"
textLength="2328.27" font-size="1049.87" lengthAdjust="spacingAndGlyphs"
text-anchor="start" opacity="0">A15</text>
<path d="M15415 38585
L15790 38585
" />
<path d="M15340 38810
L15603 38023
L15865 38810
" />
<path d="M16540 38810
L16090 38810
" />
<path d="M16315 38810
L16315 38023
L16240 38135
L16165 38210
L16090 38248
" />
<path d="M17252 38023
L16877 38023
L16840 38398
L16877 38360
L16952 38323
L17140 38323
L17215 38360
L17252 38398
L17290 38473
L17290 38660
L17252 38735
L17215 38773
L17140 38810
L16952 38810
L16877 38773
L16840 38735
" />
<text x="15188.8" y="36643.6"
textLength="2440.76" font-size="1049.87" lengthAdjust="spacingAndGlyphs"
text-anchor="start" opacity="0">B15</text>
<path d="M15715 36193
L15828 36231
L15865 36268
L15903 36343
L15903 36456
L15865 36531
L15828 36568
L15753 36606
L15453 36606
L15453 35818
L15715 35818
L15790 35856
L15828 35893
L15865 35968
L15865 36043
L15828 36118
L15790 36156
L15715 36193
L15453 36193
" />
<path d="M16652 36606
L16203 36606
" />
<path d="M16427 36606
L16427 35818
L16352 35931
L16277 36006
L16203 36043
" />
<path d="M17365 35818
L16990 35818
L16952 36193
L16990 36156
L17065 36118
L17252 36118
L17327 36156
L17365 36193
L17402 36268
L17402 36456
L17365 36531
L17327 36568
L17252 36606
L17065 36606
L16990 36568
L16952 36531
" />
<text x="15188.8" y="34753.9"
textLength="2440.76" font-size="1049.87" lengthAdjust="spacingAndGlyphs"
text-anchor="start" opacity="0">B14</text>
<path d="M15715 34303
L15828 34341
L15865 34378
L15903 34453
L15903 34566
L15865 34641
L15828 34678
L15753 34716
L15453 34716
L15453 33928
L15715 33928
L15790 33966
L15828 34003
L15865 34078
L15865 34153
L15828 34228
L15790 34266
L15715 34303
L15453 34303
" />
<path d="M16652 34716
L16203 34716
" />
<path d="M16427 34716
L16427 33928
L16352 34041
L16277 34116
L16203 34153
" />
<path d="M17327 34191
L17327 34716
" />
<path d="M17140 33891
L16952 34453
L17440 34453
" />
<text x="15188.8" y="32864.1"
textLength="2440.76" font-size="1049.87" lengthAdjust="spacingAndGlyphs"
text-anchor="start" opacity="0">B13</text>
<path d="M15715 32414
L15828 32451
L15865 32489
L15903 32564
L15903 32676
L15865 32751
L15828 32789
L15753 32826
L15453 32826
L15453 32039
L15715 32039
L15790 32076
L15828 32114
L15865 32189
L15865 32264
L15828 32339
L15790 32376
L15715 32414
L15453 32414
" />
<path d="M16652 32826
L16203 32826
" />
<path d="M16427 32826
L16427 32039
L16352 32151
L16277 32226
L16203 32264
" />
<path d="M16915 32039
L17402 32039
L17140 32339
L17252 32339
L17327 32376
L17365 32414
L17402 32489
L17402 32676
L17365 32751
L17327 32789
L17252 32826
L17027 32826
L16952 32789
L16915 32751
" />
<text x="16391.5" y="30816.9"
textLength="2440.76" font-size="1049.87" lengthAdjust="spacingAndGlyphs"
text-anchor="middle" opacity="0">B12</text>
<path d="M15697 30366
L15810 30404
L15847 30441
L15885 30516
L15885 30629
L15847 30704
L15810 30741
L15735 30779
L15435 30779
L15435 29991
L15697 29991
L15772 30029
L15810 30066
L15847 30141
L15847 30216
L15810 30291
L15772 30329
L15697 30366
L15435 30366
" />
<path d="M16635 30779
L16185 30779
" />
<path d="M16410 30779
L16410 29991
L16335 30104
L16260 30179
L16185 30216
" />
<path d="M16935 30066
L16972 30029
L17047 29991
L17235 29991
L17310 30029
L17347 30066
L17385 30141
L17385 30216
L17347 30329
L16897 30779
L17385 30779
" />
</g>
<g style="fill:#000000; fill-opacity:0.0; 
stroke:#000000; stroke-width:94.4882; stroke-opacity:1; 
stroke-linecap:round; stroke-linejoin:round;">
<text x="55249.8" y="57509.8"
textLength="14551.7" font-size="1049.87" lengthAdjust="spacingAndGlyphs"
text-anchor="middle" opacity="0">ASSoC Evaluation Board</text>
<path d="M48200 57247
L48575 57247
" />
<path d="M48125 57472
L48388 56684
L48650 57472
" />
<path d="M48875 57434
L48988 57472
L49175 57472
L49250 57434
L49288 57397
L49325 57322
L49325 57247
L49288 57172
L49250 57134
L49175 57097
L49025 57059
L48950 57022
L48913 56984
L48875 56909
L48875 56834
L48913 56759
L48950 56722
L49025 56684
L49213 56684
L49325 56722
" />
<path d="M49625 57434
L49737 57472
L49925 57472
L50000 57434
L50037 57397
L50075 57322
L50075 57247
L50037 57172
L50000 57134
L49925 57097
L49775 57059
L49700 57022
L49662 56984
L49625 56909
L49625 56834
L49662 56759
L49700 56722
L49775 56684
L49962 56684
L50075 56722
" />
<path d="M50525 57472
L50450 57434
L50412 57397
L50375 57322
L50375 57097
L50412 57022
L50450 56984
L50525 56947
L50637 56947
L50712 56984
L50750 57022
L50787 57097
L50787 57322
L50750 57397
L50712 57434
L50637 57472
L50525 57472
" />
<path d="M51575 57397
L51537 57434
L51425 57472
L51350 57472
L51237 57434
L51162 57359
L51125 57284
L51087 57134
L51087 57022
L51125 56872
L51162 56797
L51237 56722
L51350 56684
L51425 56684
L51537 56722
L51575 56759
" />
<path d="M52512 57059
L52775 57059
" />
<path d="M52887 57472
L52512 57472
L52512 56684
L52887 56684
" />
<path d="M53150 56947
L53337 57472
L53524 56947
" />
<path d="M54162 57472
L54162 57059
L54124 56984
L54049 56947
L53899 56947
L53824 56984
" />
<path d="M54162 57434
L54087 57472
L53899 57472
L53824 57434
L53787 57359
L53787 57284
L53824 57209
L53899 57172
L54087 57172
L54162 57134
" />
<path d="M54649 57472
L54574 57434
L54537 57359
L54537 56684
" />
<path d="M55287 56947
L55287 57472
" />
<path d="M54949 56947
L54949 57359
L54987 57434
L55062 57472
L55174 57472
L55249 57434
L55287 57397
" />
<path d="M55999 57472
L55999 57059
L55962 56984
L55887 56947
L55737 56947
L55662 56984
" />
<path d="M55999 57434
L55924 57472
L55737 57472
L55662 57434
L55624 57359
L55624 57284
L55662 57209
L55737 57172
L55924 57172
L55999 57134
" />
<path d="M56262 56947
L56562 56947
" />
<path d="M56374 56684
L56374 57359
L56412 57434
L56487 57472
L56562 57472
" />
<path d="M56824 57472
L56824 56947
" />
<path d="M56824 56684
L56787 56722
L56824 56759
L56862 56722
L56824 56684
L56824 56759
" />
<path d="M57312 57472
L57237 57434
L57199 57397
L57162 57322
L57162 57097
L57199 57022
L57237 56984
L57312 56947
L57424 56947
L57499 56984
L57536 57022
L57574 57097
L57574 57322
L57536 57397
L57499 57434
L57424 57472
L57312 57472
" />
<path d="M57911 56947
L57911 57472
" />
<path d="M57911 57022
L57949 56984
L58024 56947
L58136 56947
L58211 56984
L58249 57059
L58249 57472
" />
<path d="M59486 57059
L59599 57097
L59636 57134
L59674 57209
L59674 57322
L59636 57397
L59599 57434
L59524 57472
L59224 57472
L59224 56684
L59486 56684
L59561 56722
L59599 56759
L59636 56834
L59636 56909
L59599 56984
L59561 57022
L59486 57059
L59224 57059
" />
<path d="M60124 57472
L60049 57434
L60011 57397
L59974 57322
L59974 57097
L60011 57022
L60049 56984
L60124 56947
L60236 56947
L60311 56984
L60349 57022
L60386 57097
L60386 57322
L60349 57397
L60311 57434
L60236 57472
L60124 57472
" />
<path d="M61061 57472
L61061 57059
L61024 56984
L60949 56947
L60799 56947
L60724 56984
" />
<path d="M61061 57434
L60986 57472
L60799 57472
L60724 57434
L60686 57359
L60686 57284
L60724 57209
L60799 57172
L60986 57172
L61061 57134
" />
<path d="M61436 57472
L61436 56947
" />
<path d="M61436 57097
L61473 57022
L61511 56984
L61586 56947
L61661 56947
" />
<path d="M62261 57472
L62261 56684
" />
<path d="M62261 57434
L62186 57472
L62036 57472
L61961 57434
L61923 57397
L61886 57322
L61886 57097
L61923 57022
L61961 56984
L62036 56947
L62186 56947
L62261 56984
" />
</g>
<g style="fill:#000000; fill-opacity:0.0; 
stroke:#000000; stroke-width:78.7402; stroke-opacity:1; 
stroke-linecap:round; stroke-linejoin:round;">
<path d="M11509.6 57352.3 A2362.2 2362.2 0.0 0 0 13871.8 59714.5" />
<path d="M13871.8 23100.3 A2362.2 2362.2 0.0 0 0 11509.6 25462.5" />
<path d="M68202.5 25462.5 A2362.2 2362.2 0.0 0 0 65840.3 23100.3" />
<path d="M65840.3 59714.5 A2362.21 2362.21 0.0 0 0 68202.5 57352.3" />
<path d="M13871 59714
L65840 59714
" />
<path d="M11509 25462
L11509 57352
" />
<path d="M65840 23100
L13871 23100
" />
<path d="M68202 57352
L68202 25462
" />
</g>
<g style="fill:#000000; fill-opacity:0.0; 
stroke:#000000; stroke-width:94.4882; stroke-opacity:1; 
stroke-linecap:round; stroke-linejoin:round;">
<path d="M43537 40423
L43537 29694
" />
<path d="M43537 29694
L42749 28907
" />
<path d="M42749 28907
L18930 28907
" />
<path d="M18930 28907
L18930 53513
" />
<path d="M18930 53513
L43537 53513
" />
<path d="M43537 53513
L43537 41997
" />
<path d="M38611 58399
L38611 56305
" />
<path d="M38611 58399
L46659 58399
" />
<path d="M46659 58399
L46659 56305
" />
<path d="M38611 56305
L46659 56305
" />
<path d="M36564 56305
L37611 56305
" />
<path d="M36564 57352
L36564 56305
" />
<path d="M58856 25462
L58856 26509
" />
<path d="M58856 26509
L57808 26509
" />
<path d="M56808 26509
L46761 26509
" />
<path d="M46761 24415
L46761 26509
" />
<path d="M56808 24415
L46761 24415
" />
<path d="M56808 24415
L56808 26509
" />
<path d="M13871 29336
L14919 29336
" />
<path d="M14919 29336
L14919 30383
" />
<path d="M14919 31383
L14919 53431
" />
<path d="M12824 53431
L14919 53431
" />
<path d="M12824 31383
L12824 53431
" />
<path d="M12824 31383
L14919 31383
" />
<path d="M20108 25462
L20108 24415
" />
<path d="M20108 24415
L21155 24415
" />
<path d="M22155 24415
L44202 24415
" />
<path d="M44202 26509
L44202 24415
" />
<path d="M22155 26509
L44202 26509
" />
<path d="M22155 26509
L22155 24415
" />
<path d="M20108 57352
L20108 56305
" />
<path d="M20108 56305
L21155 56305
" />
<path d="M22155 56305
L36202 56305
" />
<path d="M36202 58399
L36202 56305
" />
<path d="M22155 58399
L36202 58399
" />
<path d="M22155 58399
L22155 56305
" />
<path d="M51391 52509
L53596 52509
" />
<path d="M54108 53060
L54108 53533
" />
<path d="M53596 54084
L51391 54084
" />
<path d="M50879 53533
L50879 53060
" />
<path d="M51548 54242
L51312 54478
" />
<path d="M51312 54478
L51785 54478
" />
<path d="M51548 54242
L51785 54478
" />
<path d="M51430.9 52509.8 A551.181 551.181 0.0 0 0 50879.7 53061" />
<path d="M50879.7 53533.4 A551.181 551.181 0.0 0 0 51430.9 54084.6" />
<path d="M53556.9 54084.6 A551.181 551.181 0.0 0 0 54108 53533.4" />
<path d="M54108 53061 A551.181 551.181 0.0 0 0 53556.9 52509.8" />
<path d="M46588 52509
L48793 52509
" />
<path d="M49304 53060
L49304 53533
" />
<path d="M48793 54084
L46588 54084
" />
<path d="M46076 53533
L46076 53060
" />
<path d="M46745 54242
L46509 54478
" />
<path d="M46509 54478
L46982 54478
" />
<path d="M46745 54242
L46982 54478
" />
<path d="M46627.7 52509.8 A551.181 551.181 0.0 0 0 46076.5 53061" />
<path d="M46076.5 53533.4 A551.181 551.181 0.0 0 0 46627.7 54084.6" />
<path d="M48753.7 54084.6 A551.181 551.181 0.0 0 0 49304.9 53533.4" />
<path d="M49304.9 53061 A551.181 551.181 0.0 0 0 48753.7 52509.8" />
<path d="M60143 40756
L60143 41113
" />
<path d="M61300 40756
L61300 41113
" />
<path d="M53702 41113
L53702 40756
" />
<path d="M52545 41113
L52545 40756
" />
<path d="M61300 31976
L61300 32334
" />
<path d="M60143 31976
L60143 32334
" />
<path d="M52545 32334
L52545 31976
" />
<path d="M53702 32334
L53702 31976
" />
<path d="M55084 39690
L56234 39690
" />
<path d="M55084 42179
L56785 42179
" />
<path d="M55084 42179
L55084 41446
" />
<path d="M55084 39690
L55084 40423
" />
<path d="M55084 30911
L55084 31643
" />
<path d="M55084 33399
L55084 32667
" />
<path d="M55084 33399
L56785 33399
" />
<path d="M55084 30911
L56234 30911
" />
<path d="M65989 35438
L65989 43533
" />
<path d="M65989 43533
L68084 43533
" />
<path d="M68084 43533
L68084 35438
" />
<path d="M68084 35438
L65989 35438
" />
<path d="M68084 36186
L72808 36186
" />
<path d="M72808 36186
L72808 36785
" />
<path d="M72808 36785
L68084 36785
" />
<path d="M68084 36234
L72808 36234
" />
<path d="M68084 36328
L72808 36328
" />
<path d="M68084 36423
L72808 36423
" />
<path d="M68084 36517
L72808 36517
" />
<path d="M68084 36612
L72808 36612
" />
<path d="M68084 36706
L72808 36706
" />
<path d="M65730 36186
L65989 36186
" />
<path d="M65730 36785
L65989 36785
" />
<path d="M65989 37486
L68084 37486
" />
<path d="M68084 38186
L72808 38186
" />
<path d="M72808 38186
L72808 38785
" />
<path d="M72808 38785
L68084 38785
" />
<path d="M65677 38186
L65989 38186
" />
<path d="M65677 38785
L65989 38785
" />
<path d="M65989 39486
L68084 39486
" />
<path d="M68084 40186
L72808 40186
" />
<path d="M72808 40186
L72808 40785
" />
<path d="M72808 40785
L68084 40785
" />
<path d="M65677 40186
L65989 40186
" />
<path d="M65677 40785
L65989 40785
" />
<path d="M65989 41486
L68084 41486
" />
<path d="M68084 42186
L72808 42186
" />
<path d="M72808 42186
L72808 42785
" />
<path d="M72808 42785
L68084 42785
" />
<path d="M65677 42186
L65989 42186
" />
<path d="M65677 42785
L65989 42785
" />
<path d="M63856 36486
L63856 35486
" />
<path d="M63856 35486
L64856 35486
" />
<path d="M57761 39488
L57761 41740
" />
<path d="M59273 39488
L57761 39488
" />
<path d="M59273 41740
L59273 39488
" />
<path d="M59273 32960
L59273 30708
" />
<path d="M59273 30708
L57761 30708
" />
<path d="M57761 30708
L57761 32960
" />
<path d="M56842 49608
L57200 49608
" />
<path d="M56842 50765
L57200 50765
" />
<path d="M57200 48600
L56842 48600
" />
<path d="M57200 47442
L56842 47442
" />
<path d="M50167 47500
L50167 47912
" />
<path d="M49009 47500
L49009 47912
" />
<path d="M49009 44762
L49009 44351
" />
<path d="M50167 44762
L50167 44351
" />
<path d="M57227 52931
L56815 52931
" />
<path d="M57227 51773
L56815 51773
" />
<path d="M44261 48501
L44261 43462
" />
<path d="M48237 48501
L48237 43462
" />
<path d="M48238 43462.5 A1988.19 1988.19 0.0 0 0 44261.6 43462.5" />
<path d="M44261.6 48501.9 A1988.19 1988.19 0.0 0 0 48238 48501.9" />
<path d="M64895 48808
L61352 48808
" />
<path d="M65879 51958
L65879 50777
" />
<path d="M61352 53927
L64895 53927
" />
<path d="M60367 50777
L60367 51958
" />
<g >
</g>
<g >
</g>
<g >
</g>
<g >
</g>
<g >
</g>
<g >
</g>
<g >
</g>
<g >
</g>
<g >
</g>
<g >
</g>
<g >
</g>
<g >
</g>
<g >
</g>
<g >
</g>
<g >
</g>
<g >
</g>
<g >
</g>
<g >
</g>
<g >
</g>
<g >
</g>
<g >
</g>
<g >
</g>
<g >
</g>
<g >
</g>
<g >
</g>
<g >
</g>
<g >
</g>
<g >
</g>
<g >
</g>
<g >
</g>
<g >
</g>
<g >
</g>
<g >
</g>
<g >
</g>
<g >
</g>
<g >
</g>
<g >
</g>
<g >
</g>
<g >
</g>
<g >
</g>
<g >
</g>
<g >
</g>
<g >
</g>
<g >
</g>
<g >
</g>
<g >
</g>
<g >
</g>
<g >
</g>
<g >
</g>
</g>
<g style="fill:#000000; fill-opacity:0.0; 
stroke:#000000; stroke-width:94.4882; stroke-opacity:1; 
stroke-linecap:round; stroke-linejoin:round;">
</g>
<g style="fill:#000000; fill-opacity:0.0; 
stroke:#000000; stroke-width:118.11; stroke-opacity:1; 
stroke-linecap:round; stroke-linejoin:round;">
<g transform="rotate(-90 44423 29215.8)">
<text x="44423" y="29609.5"
textLength="1697.64" font-size="1049.87" lengthAdjust="spacingAndGlyphs"
text-anchor="middle" opacity="0">U1</text>
</g>
<path d="M43991 29815
L44629 29815
L44704 29778
L44741 29740
L44779 29665
L44779 29515
L44741 29440
L44704 29403
L44629 29365
L43991 29365
" />
<path d="M44779 28578
L44779 29028
" />
<path d="M44779 28803
L43991 28803
L44104 28878
L44179 28953
L44216 29028
" />
<g transform="rotate(-90 45997.8 30265.7)">
<text x="45997.8" y="30659.4"
textLength="3828.08" font-size="1049.87" lengthAdjust="spacingAndGlyphs"
text-anchor="middle" opacity="0">ASSoC</text>
</g>
<path d="M46129 31952
L46129 31578
" />
<path d="M46354 32027
L45566 31765
L46354 31503
" />
<path d="M46316 31278
L46354 31165
L46354 30978
L46316 30903
L46279 30865
L46204 30828
L46129 30828
L46054 30865
L46016 30903
L45979 30978
L45941 31128
L45904 31203
L45866 31240
L45791 31278
L45716 31278
L45641 31240
L45604 31203
L45566 31128
L45566 30940
L45604 30828
" />
<path d="M46316 30528
L46354 30415
L46354 30228
L46316 30153
L46279 30115
L46204 30078
L46129 30078
L46054 30115
L46016 30153
L45979 30228
L45941 30378
L45904 30453
L45866 30490
L45791 30528
L45716 30528
L45641 30490
L45604 30453
L45566 30378
L45566 30190
L45604 30078
" />
<path d="M46354 29628
L46316 29703
L46279 29740
L46204 29778
L45979 29778
L45904 29740
L45866 29703
L45829 29628
L45829 29515
L45866 29440
L45904 29403
L45979 29365
L46204 29365
L46279 29403
L46316 29440
L46354 29515
L46354 29628
" />
<path d="M46279 28578
L46316 28615
L46354 28728
L46354 28803
L46316 28915
L46241 28990
L46166 29028
L46016 29065
L45904 29065
L45754 29028
L45679 28990
L45604 28915
L45566 28803
L45566 28728
L45604 28615
L45641 28578
" />
</g>
<g style="fill:#000000; fill-opacity:0.0; 
stroke:#000000; stroke-width:94.4882; stroke-opacity:1; 
stroke-linecap:round; stroke-linejoin:round;">
<text x="57887.6" y="56328.7"
textLength="9339.9" font-size="1049.87" lengthAdjust="spacingAndGlyphs"
text-anchor="middle" opacity="0">GAPH - PUCRS</text>
<path d="M53894 55541
L53819 55503
L53706 55503
L53594 55541
L53519 55616
L53481 55691
L53444 55841
L53444 55953
L53481 56103
L53519 56178
L53594 56253
L53706 56291
L53781 56291
L53894 56253
L53931 56216
L53931 55953
L53781 55953
" />
<path d="M54231 56066
L54606 56066
" />
<path d="M54156 56291
L54419 55503
L54681 56291
" />
<path d="M54944 56291
L54944 55503
L55244 55503
L55319 55541
L55356 55578
L55394 55653
L55394 55766
L55356 55841
L55319 55878
L55244 55916
L54944 55916
" />
<path d="M55731 56291
L55731 55503
" />
<path d="M55731 55878
L56181 55878
" />
<path d="M56181 56291
L56181 55503
" />
<path d="M57156 55991
L57756 55991
" />
<path d="M58731 56291
L58731 55503
L59031 55503
L59106 55541
L59143 55578
L59181 55653
L59181 55766
L59143 55841
L59106 55878
L59031 55916
L58731 55916
" />
<path d="M59518 55503
L59518 56141
L59556 56216
L59593 56253
L59668 56291
L59818 56291
L59893 56253
L59931 56216
L59968 56141
L59968 55503
" />
<path d="M60793 56216
L60755 56253
L60643 56291
L60568 56291
L60456 56253
L60381 56178
L60343 56103
L60306 55953
L60306 55841
L60343 55691
L60381 55616
L60456 55541
L60568 55503
L60643 55503
L60755 55541
L60793 55578
" />
<path d="M61580 56291
L61318 55916
" />
<path d="M61130 56291
L61130 55503
L61430 55503
L61505 55541
L61543 55578
L61580 55653
L61580 55766
L61543 55841
L61505 55878
L61430 55916
L61130 55916
" />
<path d="M61880 56253
L61993 56291
L62180 56291
L62255 56253
L62293 56216
L62330 56141
L62330 56066
L62293 55991
L62255 55953
L62180 55916
L62030 55878
L61955 55841
L61918 55803
L61880 55728
L61880 55653
L61918 55578
L61955 55541
L62030 55503
L62218 55503
L62330 55541
" />
</g>
<g style="fill:#000000; fill-opacity:0.0; 
stroke:#000000; stroke-width:118.11; stroke-opacity:1; 
stroke-linecap:round; stroke-linejoin:round;">
<text x="45564.7" y="56013.7"
textLength="1472.67" font-size="1049.87" lengthAdjust="spacingAndGlyphs"
text-anchor="middle" opacity="0">J7</text>
<path d="M45302 55188
L45302 55751
L45264 55863
L45189 55938
L45077 55976
L45002 55976
" />
<path d="M45602 55188
L46127 55188
L45789 55976
" />
<text x="60013.6" y="25856.2"
textLength="1503.37" font-size="1049.87" lengthAdjust="spacingAndGlyphs"
text-anchor="middle" opacity="0">J5</text>
<path d="M59751 25031
L59751 25593
L59713 25706
L59638 25781
L59526 25818
L59451 25818
" />
<path d="M60500 25031
L60126 25031
L60088 25406
L60126 25368
L60201 25331
L60388 25331
L60463 25368
L60500 25406
L60538 25481
L60538 25668
L60500 25743
L60463 25781
L60388 25818
L60201 25818
L60126 25781
L60088 25743
" />
<text x="13871.8" y="28927.1"
textLength="1503.37" font-size="1049.87" lengthAdjust="spacingAndGlyphs"
text-anchor="middle" opacity="0">J3</text>
<path d="M13609 28102
L13609 28664
L13571 28777
L13496 28852
L13384 28889
L13309 28889
" />
<path d="M13909 28102
L14396 28102
L14134 28402
L14246 28402
L14321 28439
L14359 28477
L14396 28552
L14396 28739
L14359 28814
L14321 28852
L14246 28889
L14021 28889
L13946 28852
L13909 28814
" />
<text x="18753.7" y="25777.5"
textLength="1503.37" font-size="1049.87" lengthAdjust="spacingAndGlyphs"
text-anchor="middle" opacity="0">J1</text>
<path d="M18491 24952
L18491 25515
L18453 25627
L18378 25702
L18266 25739
L18191 25739
" />
<path d="M19278 25739
L18828 25739
" />
<path d="M19053 25739
L19053 24952
L18978 25065
L18903 25140
L18828 25177
" />
<text x="18911.2" y="57746"
textLength="1503.37" font-size="1049.87" lengthAdjust="spacingAndGlyphs"
text-anchor="middle" opacity="0">J4</text>
<path d="M18648 56921
L18648 57483
L18611 57596
L18536 57671
L18423 57708
L18348 57708
" />
<path d="M19361 57183
L19361 57708
" />
<path d="M19173 56883
L18986 57446
L19473 57446
" />
<text x="52493.9" y="52234.2"
textLength="2590.74" font-size="1049.87" lengthAdjust="spacingAndGlyphs"
text-anchor="middle" opacity="0">T.SE</text>
<path d="M51350 51409
L51800 51409
" />
<path d="M51575 52196
L51575 51409
" />
<path d="M52062 52121
L52100 52159
L52062 52196
L52025 52159
L52062 52121
L52062 52196
" />
<path d="M52400 52159
L52512 52196
L52700 52196
L52775 52159
L52812 52121
L52850 52046
L52850 51971
L52812 51896
L52775 51859
L52700 51821
L52550 51784
L52475 51746
L52437 51709
L52400 51634
L52400 51559
L52437 51484
L52475 51446
L52550 51409
L52737 51409
L52850 51446
" />
<path d="M53187 51784
L53450 51784
" />
<path d="M53562 52196
L53187 52196
L53187 51409
L53562 51409
" />
<text x="47572.6" y="52234.2"
textLength="2628.23" font-size="1049.87" lengthAdjust="spacingAndGlyphs"
text-anchor="middle" opacity="0">T.TM</text>
<path d="M46410 51409
L46860 51409
" />
<path d="M46635 52196
L46635 51409
" />
<path d="M47122 52121
L47160 52159
L47122 52196
L47085 52159
L47122 52121
L47122 52196
" />
<path d="M47385 51409
L47835 51409
" />
<path d="M47610 52196
L47610 51409
" />
<path d="M48097 52196
L48097 51409
L48360 51971
L48622 51409
L48622 52196
" />
<text x="61509.6" y="43966.5"
textLength="1690.85" font-size="1049.87" lengthAdjust="spacingAndGlyphs"
text-anchor="middle" opacity="0">R2</text>
<path d="M61378 43928
L61115 43554
" />
<path d="M60928 43928
L60928 43141
L61228 43141
L61303 43179
L61340 43216
L61378 43291
L61378 43404
L61340 43479
L61303 43516
L61228 43554
L60928 43554
" />
<path d="M61678 43216
L61715 43179
L61790 43141
L61978 43141
L62053 43179
L62090 43216
L62128 43291
L62128 43366
L62090 43479
L61640 43928
L62128 43928
" />
<text x="53123.8" y="39242.1"
textLength="1690.85" font-size="1049.87" lengthAdjust="spacingAndGlyphs"
text-anchor="middle" opacity="0">R6</text>
<path d="M52992 39204
L52730 38829
" />
<path d="M52542 39204
L52542 38417
L52842 38417
L52917 38454
L52955 38492
L52992 38567
L52992 38679
L52955 38754
L52917 38792
L52842 38829
L52542 38829
" />
<path d="M53667 38417
L53517 38417
L53442 38454
L53405 38492
L53330 38604
L53292 38754
L53292 39054
L53330 39129
L53367 39167
L53442 39204
L53592 39204
L53667 39167
L53704 39129
L53742 39054
L53742 38867
L53704 38792
L53667 38754
L53592 38717
L53442 38717
L53367 38754
L53330 38792
L53292 38867
" />
<text x="61706.5" y="34753.9"
textLength="1690.85" font-size="1049.87" lengthAdjust="spacingAndGlyphs"
text-anchor="middle" opacity="0">R1</text>
<path d="M61575 34716
L61312 34341
" />
<path d="M61125 34716
L61125 33928
L61425 33928
L61500 33966
L61537 34003
L61575 34078
L61575 34191
L61537 34266
L61500 34303
L61425 34341
L61125 34341
" />
<path d="M62325 34716
L61875 34716
" />
<path d="M62100 34716
L62100 33928
L62025 34041
L61950 34116
L61875 34153
" />
<text x="53163.2" y="30541.3"
textLength="1690.85" font-size="1049.87" lengthAdjust="spacingAndGlyphs"
text-anchor="middle" opacity="0">R5</text>
<path d="M53031 30503
L52769 30128
" />
<path d="M52581 30503
L52581 29716
L52881 29716
L52956 29753
L52994 29791
L53031 29866
L53031 29978
L52994 30053
L52956 30091
L52881 30128
L52581 30128
" />
<path d="M53744 29716
L53369 29716
L53331 30091
L53369 30053
L53444 30016
L53631 30016
L53706 30053
L53744 30091
L53781 30166
L53781 30353
L53744 30428
L53706 30466
L53631 30503
L53444 30503
L53369 30466
L53331 30428
" />
<text x="54304.9" y="43218.4"
textLength="1728.35" font-size="1049.87" lengthAdjust="spacingAndGlyphs"
text-anchor="middle" opacity="0">Q2</text>
<path d="M54229 43255
L54154 43218
L54079 43143
L53967 43030
L53892 42993
L53817 42993
" />
<path d="M53854 43180
L53779 43143
L53704 43068
L53667 42918
L53667 42656
L53704 42506
L53779 42431
L53854 42393
L54004 42393
L54079 42431
L54154 42506
L54192 42656
L54192 42918
L54154 43068
L54079 43143
L54004 43180
L53854 43180
" />
<path d="M54492 42468
L54529 42431
L54604 42393
L54792 42393
L54867 42431
L54904 42468
L54942 42543
L54942 42618
L54904 42731
L54454 43180
L54942 43180
" />
<text x="54344.3" y="34438.9"
textLength="1728.35" font-size="1049.87" lengthAdjust="spacingAndGlyphs"
text-anchor="middle" opacity="0">Q1</text>
<path d="M54269 34476
L54194 34438
L54119 34363
L54006 34251
L53931 34213
L53856 34213
" />
<path d="M53894 34401
L53819 34363
L53744 34288
L53706 34138
L53706 33876
L53744 33726
L53819 33651
L53894 33614
L54044 33614
L54119 33651
L54194 33726
L54231 33876
L54231 34138
L54194 34288
L54119 34363
L54044 34401
L53894 34401
" />
<path d="M54981 34401
L54531 34401
" />
<path d="M54756 34401
L54756 33614
L54681 33726
L54606 33801
L54531 33838
" />
<g transform="rotate(-90 65840.3 31525.5)">
<text x="65840.3" y="31919.2"
textLength="6377.77" font-size="1049.87" lengthAdjust="spacingAndGlyphs"
text-anchor="middle" opacity="0">USB-UART</text>
</g>
<path d="M65409 34450
L66046 34450
L66121 34412
L66159 34375
L66196 34300
L66196 34150
L66159 34075
L66121 34037
L66046 34000
L65409 34000
" />
<path d="M66159 33662
L66196 33550
L66196 33362
L66159 33287
L66121 33250
L66046 33212
L65971 33212
L65896 33250
L65859 33287
L65821 33362
L65784 33512
L65746 33587
L65709 33625
L65634 33662
L65559 33662
L65484 33625
L65446 33587
L65409 33512
L65409 33325
L65446 33212
" />
<path d="M65784 32612
L65821 32500
L65859 32462
L65934 32425
L66046 32425
L66121 32462
L66159 32500
L66196 32575
L66196 32875
L65409 32875
L65409 32612
L65446 32537
L65484 32500
L65559 32462
L65634 32462
L65709 32500
L65746 32537
L65784 32612
L65784 32875
" />
<path d="M65896 32087
L65896 31488
" />
<path d="M65409 31113
L66046 31113
L66121 31075
L66159 31038
L66196 30963
L66196 30813
L66159 30738
L66121 30700
L66046 30663
L65409 30663
" />
<path d="M65971 30325
L65971 29950
" />
<path d="M66196 30400
L65409 30138
L66196 29875
" />
<path d="M66196 29163
L65821 29425
" />
<path d="M66196 29613
L65409 29613
L65409 29313
L65446 29238
L65484 29200
L65559 29163
L65671 29163
L65746 29200
L65784 29238
L65821 29313
L65821 29613
" />
<path d="M65409 28938
L65409 28488
" />
<path d="M66196 28713
L65409 28713
" />
<text x="57966.3" y="43730.3"
textLength="1690.85" font-size="1049.87" lengthAdjust="spacingAndGlyphs"
text-anchor="middle" opacity="0">D1</text>
<path d="M57385 43692
L57385 42905
L57572 42905
L57685 42942
L57760 43017
L57797 43092
L57835 43242
L57835 43355
L57797 43505
L57760 43580
L57685 43655
L57572 43692
L57385 43692
" />
<path d="M58584 43692
L58135 43692
" />
<path d="M58360 43692
L58360 42905
L58285 43017
L58210 43092
L58135 43130
" />
<text x="58478.1" y="38887.7"
textLength="4465.5" font-size="1049.87" lengthAdjust="spacingAndGlyphs"
text-anchor="middle" opacity="0">1V8_On</text>
<path d="M56922 38850
L56472 38850
" />
<path d="M56697 38850
L56697 38062
L56622 38175
L56547 38250
L56472 38287
" />
<path d="M57147 38062
L57409 38850
L57671 38062
" />
<path d="M58046 38400
L57971 38362
L57934 38325
L57896 38250
L57896 38212
L57934 38137
L57971 38100
L58046 38062
L58196 38062
L58271 38100
L58309 38137
L58346 38212
L58346 38250
L58309 38325
L58271 38362
L58196 38400
L58046 38400
L57971 38437
L57934 38475
L57896 38550
L57896 38700
L57934 38775
L57971 38812
L58046 38850
L58196 38850
L58271 38812
L58309 38775
L58346 38700
L58346 38550
L58309 38475
L58271 38437
L58196 38400
" />
<path d="M58496 38925
L59096 38925
" />
<path d="M59434 38062
L59584 38062
L59659 38100
L59734 38175
L59771 38325
L59771 38587
L59734 38737
L59659 38812
L59584 38850
L59434 38850
L59359 38812
L59284 38737
L59246 38587
L59246 38325
L59284 38175
L59359 38100
L59434 38062
" />
<path d="M60109 38325
L60109 38850
" />
<path d="M60109 38400
L60146 38362
L60221 38325
L60334 38325
L60409 38362
L60446 38437
L60446 38850
" />
<text x="57808.8" y="34753.9"
textLength="1690.85" font-size="1049.87" lengthAdjust="spacingAndGlyphs"
text-anchor="middle" opacity="0">D2</text>
<path d="M57227 34716
L57227 33928
L57415 33928
L57527 33966
L57602 34041
L57640 34116
L57677 34266
L57677 34378
L57640 34528
L57602 34603
L57527 34678
L57415 34716
L57227 34716
" />
<path d="M57977 34003
L58015 33966
L58090 33928
L58277 33928
L58352 33966
L58390 34003
L58427 34078
L58427 34153
L58390 34266
L57940 34716
L58427 34716
" />
<text x="58399.4" y="30305.1"
textLength="4465.5" font-size="1049.87" lengthAdjust="spacingAndGlyphs"
text-anchor="middle" opacity="0">3V3_On</text>
<path d="M56355 29480
L56843 29480
L56580 29780
L56693 29780
L56768 29817
L56805 29855
L56843 29930
L56843 30117
L56805 30192
L56768 30230
L56693 30267
L56468 30267
L56393 30230
L56355 30192
" />
<path d="M57068 29480
L57330 30267
L57593 29480
" />
<path d="M57780 29480
L58268 29480
L58005 29780
L58118 29780
L58193 29817
L58230 29855
L58268 29930
L58268 30117
L58230 30192
L58193 30230
L58118 30267
L57893 30267
L57818 30230
L57780 30192
" />
<path d="M58418 30342
L59018 30342
" />
<path d="M59355 29480
L59505 29480
L59580 29517
L59655 29592
L59692 29742
L59692 30005
L59655 30155
L59580 30230
L59505 30267
L59355 30267
L59280 30230
L59205 30155
L59168 30005
L59168 29742
L59205 29592
L59280 29517
L59355 29480
" />
<path d="M60030 29742
L60030 30267
" />
<path d="M60030 29817
L60067 29780
L60142 29742
L60255 29742
L60330 29780
L60367 29855
L60367 30267
" />
<text x="54501.7" y="50580.6"
textLength="1690.85" font-size="1049.87" lengthAdjust="spacingAndGlyphs"
text-anchor="middle" opacity="0">R4</text>
<path d="M54370 50543
L54108 50168
" />
<path d="M53920 50543
L53920 49755
L54220 49755
L54295 49793
L54333 49830
L54370 49905
L54370 50018
L54333 50093
L54295 50130
L54220 50168
L53920 50168
" />
<path d="M55045 50018
L55045 50543
" />
<path d="M54857 49718
L54670 50280
L55157 50280
" />
<text x="54619.9" y="48415.3"
textLength="1690.85" font-size="1049.87" lengthAdjust="spacingAndGlyphs"
text-anchor="middle" opacity="0">R3</text>
<path d="M54488 48377
L54226 48002
" />
<path d="M54038 48377
L54038 47590
L54338 47590
L54413 47627
L54451 47665
L54488 47740
L54488 47852
L54451 47927
L54413 47965
L54338 48002
L54038 48002
" />
<path d="M54751 47590
L55238 47590
L54976 47890
L55088 47890
L55163 47927
L55201 47965
L55238 48040
L55238 48227
L55201 48302
L55163 48340
L55088 48377
L54863 48377
L54788 48340
L54751 48302
" />
<g transform="rotate(-90 51037.2 48690.9)">
<text x="51037.2" y="49084.6"
textLength="2440.76" font-size="1049.87" lengthAdjust="spacingAndGlyphs"
text-anchor="middle" opacity="0">C18</text>
</g>
<path d="M51318 49197
L51355 49234
L51393 49347
L51393 49422
L51355 49534
L51280 49609
L51205 49647
L51055 49684
L50943 49684
L50793 49647
L50718 49609
L50643 49534
L50605 49422
L50605 49347
L50643 49234
L50680 49197
" />
<path d="M51393 48447
L51393 48897
" />
<path d="M51393 48672
L50605 48672
L50718 48747
L50793 48822
L50830 48897
" />
<path d="M50943 47997
L50905 48072
L50868 48109
L50793 48147
L50755 48147
L50680 48109
L50643 48072
L50605 47997
L50605 47847
L50643 47772
L50680 47734
L50755 47697
L50793 47697
L50868 47734
L50905 47772
L50943 47847
L50943 47997
L50980 48072
L51018 48109
L51093 48147
L51243 48147
L51318 48109
L51355 48072
L51393 47997
L51393 47847
L51355 47772
L51318 47734
L51243 47697
L51093 47697
L51018 47734
L50980 47772
L50943 47847
" />
<g transform="rotate(-90 51037.2 43494)">
<text x="51037.2" y="43887.7"
textLength="2440.76" font-size="1049.87" lengthAdjust="spacingAndGlyphs"
text-anchor="middle" opacity="0">C17</text>
</g>
<path d="M51318 44000
L51355 44037
L51393 44150
L51393 44225
L51355 44337
L51280 44412
L51205 44450
L51055 44487
L50943 44487
L50793 44450
L50718 44412
L50643 44337
L50605 44225
L50605 44150
L50643 44037
L50680 44000
" />
<path d="M51393 43250
L51393 43700
" />
<path d="M51393 43475
L50605 43475
L50718 43550
L50793 43625
L50830 43700
" />
<path d="M50605 42987
L50605 42462
L51393 42800
" />
<text x="56115.9" y="54124"
textLength="2440.76" font-size="1049.87" lengthAdjust="spacingAndGlyphs"
text-anchor="middle" opacity="0">C19</text>
<path d="M55609 54011
L55572 54048
L55459 54086
L55384 54086
L55272 54048
L55197 53973
L55159 53898
L55122 53748
L55122 53636
L55159 53486
L55197 53411
L55272 53336
L55384 53299
L55459 53299
L55572 53336
L55609 53374
" />
<path d="M56359 54086
L55909 54086
" />
<path d="M56134 54086
L56134 53299
L56059 53411
L55984 53486
L55909 53524
" />
<path d="M56734 54086
L56884 54086
L56959 54048
L56997 54011
L57072 53898
L57109 53748
L57109 53449
L57072 53374
L57034 53336
L56959 53299
L56809 53299
L56734 53336
L56697 53374
L56659 53449
L56659 53636
L56697 53711
L56734 53748
L56809 53786
L56959 53786
L57034 53748
L57072 53711
L57109 53636
" />
<g transform="rotate(-90 46312.8 40344.4)">
<text x="46312.8" y="40738.1"
textLength="1578.37" font-size="1049.87" lengthAdjust="spacingAndGlyphs"
text-anchor="middle" opacity="0">Y1</text>
</g>
<path d="M46294 40719
L46668 40719
" />
<path d="M45881 40981
L46294 40719
L45881 40456
" />
<path d="M46668 39781
L46668 40231
" />
<path d="M46668 40006
L45881 40006
L45994 40081
L46069 40156
L46106 40231
" />
<g transform="rotate(-90 47730.1 39084.6)">
<text x="47730.1" y="39478.3"
textLength="4615.49" font-size="1049.87" lengthAdjust="spacingAndGlyphs"
text-anchor="middle" opacity="0">25 MHz</text>
</g>
<path d="M47373 41165
L47336 41128
L47298 41053
L47298 40865
L47336 40790
L47373 40753
L47448 40715
L47523 40715
L47636 40753
L48086 41203
L48086 40715
" />
<path d="M47298 40003
L47298 40378
L47673 40415
L47636 40378
L47598 40303
L47598 40115
L47636 40040
L47673 40003
L47748 39965
L47936 39965
L48011 40003
L48048 40040
L48086 40115
L48086 40303
L48048 40378
L48011 40415
" />
<path d="M48086 39028
L47298 39028
L47861 38765
L47298 38503
L48086 38503
" />
<path d="M48086 38128
L47298 38128
" />
<path d="M47673 38128
L47673 37678
" />
<path d="M48086 37678
L47298 37678
" />
<path d="M47561 37378
L47561 36966
L48086 37378
L48086 36966
" />
<text x="63005.7" y="47824.7"
textLength="3715.6" font-size="1049.87" lengthAdjust="spacingAndGlyphs"
text-anchor="middle" opacity="0">RESET</text>
<path d="M61862 47787
L61599 47412
" />
<path d="M61412 47787
L61412 46999
L61712 46999
L61787 47037
L61824 47074
L61862 47149
L61862 47262
L61824 47337
L61787 47374
L61712 47412
L61412 47412
" />
<path d="M62199 47374
L62462 47374
" />
<path d="M62574 47787
L62199 47787
L62199 46999
L62574 46999
" />
<path d="M62874 47749
L62986 47787
L63174 47787
L63249 47749
L63286 47712
L63324 47637
L63324 47562
L63286 47487
L63249 47449
L63174 47412
L63024 47374
L62949 47337
L62911 47299
L62874 47224
L62874 47149
L62911 47074
L62949 47037
L63024 46999
L63211 46999
L63324 47037
" />
<path d="M63661 47374
L63924 47374
" />
<path d="M64036 47787
L63661 47787
L63661 46999
L64036 46999
" />
<path d="M64261 46999
L64711 46999
" />
<path d="M64486 47787
L64486 46999
" />
<g >
</g>
</g> 
</svg>
