<?xml version="1.0" standalone="no"?>
 <!DOCTYPE svg PUBLIC "-//W3C//DTD SVG 1.1//EN" 
 "http://www.w3.org/Graphics/SVG/1.1/DTD/svg11.dtd"> 
<svg
  xmlns:svg="http://www.w3.org/2000/svg"
  xmlns="http://www.w3.org/2000/svg"
  xmlns:xlink="http://www.w3.org/1999/xlink"
  version="1.1"
  width="29.700220cm" height="21.000720cm" viewBox="0 0 116930 82680">
<title>SVG Picture created as board-Dwgs_User.svg date 2021/03/29 15:50:39 </title>
  <desc>Picture generated by PCBNEW </desc>
<g style="fill:#000000; fill-opacity:1;stroke:#000000; stroke-opacity:1;
stroke-linecap:round; stroke-linejoin:round;"
 transform="translate(0 0) scale(1 1)">
</g>
<g style="fill:#000000; fill-opacity:0.0; 
stroke:#000000; stroke-width:-0.000787402; stroke-opacity:1; 
stroke-linecap:round; stroke-linejoin:round;">
</g>
<g style="fill:#000000; fill-opacity:0.0; 
stroke:#000000; stroke-width:118.11; stroke-opacity:1; 
stroke-linecap:round; stroke-linejoin:round;">
<path d="M97651.4 34124 A787.402 787.402 0.0 0 0 96864 33336.5" />
<path d="M96864 45698.8 A787.402 787.402 0.0 0 0 97651.4 44911.4" />
<path d="M97651 34123
L97651 44911
" />
</g>
<g style="fill:#000000; fill-opacity:0.0; 
stroke:#000000; stroke-width:78.7402; stroke-opacity:1; 
stroke-linecap:round; stroke-linejoin:round;">
</g>
<g style="fill:#000000; fill-opacity:1.0; 
stroke:#000000; stroke-width:78.7402; stroke-opacity:1; 
stroke-linecap:round; stroke-linejoin:round;">
<path style="fill:#000000; fill-opacity:1.0; 
stroke:#000000; stroke-width:78.7402; stroke-opacity:1; 
stroke-linecap:round; stroke-linejoin:round;fill-rule:evenodd;"
d="M 76234,42903.5
73871.8,42903.5
73871.8,42116.1
76234,42116.1
Z" /> 
<path style="fill:#000000; fill-opacity:1.0; 
stroke:#000000; stroke-width:78.7402; stroke-opacity:1; 
stroke-linecap:round; stroke-linejoin:round;fill-rule:evenodd;"
d="M 76234,40895.6
73871.8,40895.6
73871.8,40108.2
76234,40108.2
Z" /> 
<path style="fill:#000000; fill-opacity:1.0; 
stroke:#000000; stroke-width:78.7402; stroke-opacity:1; 
stroke-linecap:round; stroke-linejoin:round;fill-rule:evenodd;"
d="M 76234,38887.7
73871.8,38887.7
73871.8,38100.3
76234,38100.3
Z" /> 
<path style="fill:#000000; fill-opacity:1.0; 
stroke:#000000; stroke-width:78.7402; stroke-opacity:1; 
stroke-linecap:round; stroke-linejoin:round;fill-rule:evenodd;"
d="M 76234,36919.2
73871.8,36919.2
73871.8,36131.8
76234,36131.8
Z" /> 
</g>
<g style="fill:#000000; fill-opacity:0.0; 
stroke:#000000; stroke-width:118.11; stroke-opacity:1; 
stroke-linecap:round; stroke-linejoin:round;">
<path d="M82375.8 33336.5 A787.402 787.402 0.0 0 0 81588.4 34124" />
<path d="M80801 35147.6 A787.402 787.402 0.0 0 0 81588.4 34360.2" />
<path d="M81588.4 44911.4 A787.402 787.402 0.0 0 0 82375.8 45698.8" />
<path d="M81588.4 44753.9 A787.402 787.402 0.0 0 0 80801 43966.5" />
<path d="M73871.8 43179.1 A787.402 787.402 0.0 0 0 74659.2 43966.5" />
<path d="M74659.2 35147.6 A787.402 787.402 0.0 0 0 73871.8 35935" />
<path d="M81588 44911
L81588 44753
" />
<text x="88989.9" y="39301.1"
textLength="6377.77" font-size="1049.87" lengthAdjust="spacingAndGlyphs"
text-anchor="middle" opacity="0">USB-UART</text>
<path d="M86065 38476
L86065 39113
L86102 39188
L86140 39226
L86215 39263
L86365 39263
L86440 39226
L86477 39188
L86515 39113
L86515 38476
" />
<path d="M86852 39226
L86965 39263
L87152 39263
L87227 39226
L87265 39188
L87302 39113
L87302 39038
L87265 38963
L87227 38926
L87152 38888
L87002 38851
L86927 38813
L86890 38776
L86852 38701
L86852 38626
L86890 38551
L86927 38513
L87002 38476
L87190 38476
L87302 38513
" />
<path d="M87902 38851
L88015 38888
L88052 38926
L88090 39001
L88090 39113
L88052 39188
L88015 39226
L87940 39263
L87640 39263
L87640 38476
L87902 38476
L87977 38513
L88015 38551
L88052 38626
L88052 38701
L88015 38776
L87977 38813
L87902 38851
L87640 38851
" />
<path d="M88427 38963
L89027 38963
" />
<path d="M89402 38476
L89402 39113
L89439 39188
L89477 39226
L89552 39263
L89702 39263
L89777 39226
L89814 39188
L89852 39113
L89852 38476
" />
<path d="M90189 39038
L90564 39038
" />
<path d="M90114 39263
L90377 38476
L90639 39263
" />
<path d="M91352 39263
L91089 38888
" />
<path d="M90902 39263
L90902 38476
L91202 38476
L91277 38513
L91314 38551
L91352 38626
L91352 38738
L91314 38813
L91277 38851
L91202 38888
L90902 38888
" />
<path d="M91577 38476
L92027 38476
" />
<path d="M91802 39263
L91802 38476
" />
<text x="88989.9" y="40600.3"
textLength="4727.97" font-size="1049.87" lengthAdjust="spacingAndGlyphs"
text-anchor="middle" opacity="0">DONGLE</text>
<path d="M86890 40562
L86890 39775
L87077 39775
L87190 39812
L87265 39887
L87302 39962
L87340 40112
L87340 40225
L87302 40375
L87265 40450
L87190 40525
L87077 40562
L86890 40562
" />
<path d="M87827 39775
L87977 39775
L88052 39812
L88127 39887
L88165 40037
L88165 40300
L88127 40450
L88052 40525
L87977 40562
L87827 40562
L87752 40525
L87677 40450
L87640 40300
L87640 40037
L87677 39887
L87752 39812
L87827 39775
" />
<path d="M88502 40562
L88502 39775
L88952 40562
L88952 39775
" />
<path d="M89739 39812
L89664 39775
L89552 39775
L89439 39812
L89364 39887
L89327 39962
L89289 40112
L89289 40225
L89327 40375
L89364 40450
L89439 40525
L89552 40562
L89627 40562
L89739 40525
L89777 40487
L89777 40225
L89627 40225
" />
<path d="M90489 40562
L90114 40562
L90114 39775
" />
<path d="M90752 40150
L91014 40150
" />
<path d="M91127 40562
L90752 40562
L90752 39775
L91127 39775
" />
<path d="M96942 45698
L82375 45698
" />
<path d="M82375 33336
L96863 33336
" />
<path d="M81588 34360
L81588 34123
" />
<text x="76706.5" y="42982.2"
textLength="4465.5" font-size="1049.87" lengthAdjust="spacingAndGlyphs"
text-anchor="start" opacity="0">USB_TX</text>
<path d="M76970 42157
L76970 42794
L77008 42869
L77045 42907
L77120 42944
L77270 42944
L77345 42907
L77383 42869
L77420 42794
L77420 42157
" />
<path d="M77758 42907
L77870 42944
L78058 42944
L78133 42907
L78170 42869
L78208 42794
L78208 42719
L78170 42644
L78133 42607
L78058 42569
L77908 42532
L77833 42494
L77795 42457
L77758 42382
L77758 42307
L77795 42232
L77833 42194
L77908 42157
L78095 42157
L78208 42194
" />
<path d="M78807 42532
L78920 42569
L78957 42607
L78995 42682
L78995 42794
L78957 42869
L78920 42907
L78845 42944
L78545 42944
L78545 42157
L78807 42157
L78882 42194
L78920 42232
L78957 42307
L78957 42382
L78920 42457
L78882 42494
L78807 42532
L78545 42532
" />
<path d="M79145 43019
L79745 43019
" />
<path d="M79820 42157
L80270 42157
" />
<path d="M80045 42944
L80045 42157
" />
<path d="M80457 42157
L80982 42944
" />
<path d="M80982 42157
L80457 42944
" />
<text x="76706.5" y="40987.5"
textLength="4652.98" font-size="1049.87" lengthAdjust="spacingAndGlyphs"
text-anchor="start" opacity="0">USB_RX</text>
<path d="M76970 40162
L76970 40799
L77008 40874
L77045 40912
L77120 40949
L77270 40949
L77345 40912
L77383 40874
L77420 40799
L77420 40162
" />
<path d="M77758 40912
L77870 40949
L78058 40949
L78133 40912
L78170 40874
L78208 40799
L78208 40725
L78170 40650
L78133 40612
L78058 40575
L77908 40537
L77833 40500
L77795 40462
L77758 40387
L77758 40312
L77795 40237
L77833 40200
L77908 40162
L78095 40162
L78208 40200
" />
<path d="M78807 40537
L78920 40575
L78957 40612
L78995 40687
L78995 40799
L78957 40874
L78920 40912
L78845 40949
L78545 40949
L78545 40162
L78807 40162
L78882 40200
L78920 40237
L78957 40312
L78957 40387
L78920 40462
L78882 40500
L78807 40537
L78545 40537
" />
<path d="M79145 41024
L79745 41024
" />
<path d="M80382 40949
L80120 40575
" />
<path d="M79932 40949
L79932 40162
L80232 40162
L80307 40200
L80345 40237
L80382 40312
L80382 40425
L80345 40500
L80307 40537
L80232 40575
L79932 40575
" />
<path d="M80645 40162
L81170 40949
" />
<path d="M81170 40162
L80645 40949
" />
<text x="76706.5" y="38992.7"
textLength="5515.37" font-size="1049.87" lengthAdjust="spacingAndGlyphs"
text-anchor="start" opacity="0">USB_GND</text>
<path d="M76970 38167
L76970 38805
L77008 38880
L77045 38917
L77120 38955
L77270 38955
L77345 38917
L77383 38880
L77420 38805
L77420 38167
" />
<path d="M77758 38917
L77870 38955
L78058 38955
L78133 38917
L78170 38880
L78208 38805
L78208 38730
L78170 38655
L78133 38617
L78058 38580
L77908 38542
L77833 38505
L77795 38467
L77758 38392
L77758 38317
L77795 38242
L77833 38205
L77908 38167
L78095 38167
L78208 38205
" />
<path d="M78807 38542
L78920 38580
L78957 38617
L78995 38692
L78995 38805
L78957 38880
L78920 38917
L78845 38955
L78545 38955
L78545 38167
L78807 38167
L78882 38205
L78920 38242
L78957 38317
L78957 38392
L78920 38467
L78882 38505
L78807 38542
L78545 38542
" />
<path d="M79145 39030
L79745 39030
" />
<path d="M80345 38205
L80270 38167
L80157 38167
L80045 38205
L79970 38280
L79932 38355
L79895 38505
L79895 38617
L79932 38767
L79970 38842
L80045 38917
L80157 38955
L80232 38955
L80345 38917
L80382 38880
L80382 38617
L80232 38617
" />
<path d="M80720 38955
L80720 38167
L81170 38955
L81170 38167
" />
<path d="M81545 38955
L81545 38167
L81732 38167
L81845 38205
L81920 38280
L81957 38355
L81995 38505
L81995 38617
L81957 38767
L81920 38842
L81845 38917
L81732 38955
L81545 38955
" />
<text x="76706.5" y="36998"
textLength="4540.5" font-size="1049.87" lengthAdjust="spacingAndGlyphs"
text-anchor="start" opacity="0">USB_5V</text>
<path d="M76970 36173
L76970 36810
L77008 36885
L77045 36922
L77120 36960
L77270 36960
L77345 36922
L77383 36885
L77420 36810
L77420 36173
" />
<path d="M77758 36922
L77870 36960
L78058 36960
L78133 36922
L78170 36885
L78208 36810
L78208 36735
L78170 36660
L78133 36623
L78058 36585
L77908 36548
L77833 36510
L77795 36473
L77758 36398
L77758 36323
L77795 36248
L77833 36210
L77908 36173
L78095 36173
L78208 36210
" />
<path d="M78807 36548
L78920 36585
L78957 36623
L78995 36698
L78995 36810
L78957 36885
L78920 36922
L78845 36960
L78545 36960
L78545 36173
L78807 36173
L78882 36210
L78920 36248
L78957 36323
L78957 36398
L78920 36473
L78882 36510
L78807 36548
L78545 36548
" />
<path d="M79145 37035
L79745 37035
" />
<path d="M80307 36173
L79932 36173
L79895 36548
L79932 36510
L80007 36473
L80195 36473
L80270 36510
L80307 36548
L80345 36623
L80345 36810
L80307 36885
L80270 36922
L80195 36960
L80007 36960
L79932 36922
L79895 36885
" />
<path d="M80570 36173
L80832 36960
L81095 36173
" />
<path d="M74659 35147
L80800 35147
" />
<path d="M74659 43966
L80800 43966
" />
<path d="M73871 35934
L73871 43179
" />
</g>
<g style="fill:#000000; fill-opacity:0.0; 
stroke:#000000; stroke-width:78.7402; stroke-opacity:1; 
stroke-linecap:round; stroke-linejoin:round;">
<path d="M11509.6 57352.3 A2362.2 2362.2 0.0 0 0 13871.8 59714.5" />
<path d="M13871.8 23100.3 A2362.2 2362.2 0.0 0 0 11509.6 25462.5" />
<path d="M68202.5 25462.5 A2362.2 2362.2 0.0 0 0 65840.3 23100.3" />
<path d="M65840.3 59714.5 A2362.21 2362.21 0.0 0 0 68202.5 57352.3" />
<path d="M13871 59714
L65840 59714
" />
<path d="M11509 25462
L11509 57352
" />
<path d="M65840 23100
L13871 23100
" />
<path d="M68202 57352
L68202 25462
" />
<g >
</g>
<g >
</g>
<g >
</g>
<g >
</g>
<g >
</g>
<g >
</g>
<g >
</g>
<g >
</g>
<g >
</g>
<g >
</g>
<g >
</g>
<g >
</g>
<g >
</g>
<g >
</g>
<g >
</g>
<g >
</g>
<g >
</g>
<g >
</g>
<g >
</g>
<g >
</g>
<g >
</g>
<g >
</g>
<g >
</g>
<g >
</g>
<g >
</g>
<g >
</g>
<g >
</g>
<g >
</g>
<g >
</g>
<g >
</g>
<g >
</g>
<g >
</g>
<g >
</g>
<g >
</g>
<g >
</g>
<g >
</g>
<g >
</g>
<g >
</g>
<g >
</g>
<g >
</g>
<g >
</g>
<g >
</g>
<g >
</g>
<g >
</g>
<g >
</g>
<g >
</g>
<g >
</g>
<g >
</g>
<g >
</g>
<g >
</g>
</g> 
</svg>
