<svg xmlns="http://www.w3.org/2000/svg" width="1em" height="1em" viewBox="0 0 32 32"><path fill="currentColor" d="M11 4C9.355 4 8 5.355 8 7c0 1.293.844 2.395 2 2.813v12.374c-1.156.418-2 1.52-2 2.813c0 1.645 1.355 3 3 3s3-1.355 3-3c0-1.27-.816-2.344-1.938-2.781c.145-1.23.622-1.836 1.376-2.344c.898-.605 2.277-.965 3.78-1.313c1.505-.347 3.118-.707 4.47-1.656c1.187-.832 2.085-2.195 2.28-4.093C25.142 12.402 26 11.3 26 10c0-1.645-1.355-3-3-3s-3 1.355-3 3c0 1.277.832 2.352 1.969 2.781c-.137 1.313-.645 1.965-1.407 2.5c-.898.63-2.285 1-3.78 1.344c-1.497.344-3.118.648-4.47 1.563c-.109.074-.21.167-.312.25V9.813c1.156-.418 2-1.52 2-2.813c0-1.645-1.355-3-3-3m0 2c.563 0 1 .438 1 1c0 .563-.438 1-1 1c-.563 0-1-.438-1-1c0-.563.438-1 1-1m12 3c.563 0 1 .438 1 1c0 .563-.438 1-1 1c-.563 0-1-.438-1-1c0-.563.438-1 1-1M11 24c.563 0 1 .438 1 1c0 .563-.438 1-1 1c-.563 0-1-.438-1-1c0-.563.438-1 1-1"/></svg>