<?xml version="1.0" standalone="no"?>
 <!DOCTYPE svg PUBLIC "-//W3C//DTD SVG 1.1//EN" 
 "http://www.w3.org/Graphics/SVG/1.1/DTD/svg11.dtd"> 
<svg
  xmlns:svg="http://www.w3.org/2000/svg"
  xmlns="http://www.w3.org/2000/svg"
  xmlns:xlink="http://www.w3.org/1999/xlink"
  version="1.1"
  width="29.700220cm" height="21.000720cm" viewBox="0 0 116930 82680">
<title>SVG Picture created as board-F_Mask.svg date 2021/03/29 15:50:43 </title>
  <desc>Picture generated by PCBNEW </desc>
<g style="fill:#000000; fill-opacity:1;stroke:#000000; stroke-opacity:1;
stroke-linecap:round; stroke-linejoin:round;"
 transform="translate(0 0) scale(1 1)">
</g>
<g style="fill:#000000; fill-opacity:0.0; 
stroke:#000000; stroke-width:-0.000787402; stroke-opacity:1; 
stroke-linecap:round; stroke-linejoin:round;">
</g>
<g style="fill:#000000; fill-opacity:0.0; 
stroke:#000000; stroke-width:78.7402; stroke-opacity:1; 
stroke-linecap:round; stroke-linejoin:round;">
<path d="M10289.1 57126.9 A2362.2 2362.2 0.0 0 0 12651.4 59489.1" />
<path d="M12651.4 22875 A2362.2 2362.2 0.0 0 0 10289.1 25237.2" />
<path d="M66982.1 25237.2 A2362.2 2362.2 0.0 0 0 64619.9 22875" />
<path d="M64619.9 59489.1 A2362.21 2362.21 0.0 0 0 66982.1 57126.9" />
<path d="M12651 59489
L64619 59489
" />
<path d="M10289 25237
L10289 57126
" />
<path d="M64619 22874
L12651 22874
" />
<path d="M66982 57126
L66982 25237
" />
<g >
</g>
<g >
</g>
<g style="fill:#000000; fill-opacity:0.0; 
stroke:#000000; stroke-width:78.7402; stroke-opacity:1; 
stroke-linecap:round; stroke-linejoin:round;">
</g>
<g style="fill:#000000; fill-opacity:1.0; 
stroke:#000000; stroke-width:0; stroke-opacity:1; 
stroke-linecap:round; stroke-linejoin:round;">
<circle cx="38013.6" cy="50985.2" r="560" /> 
</g>
<g style="fill:#000000; fill-opacity:1.0; 
stroke:#000000; stroke-width:118.11; stroke-opacity:1; 
stroke-linecap:round; stroke-linejoin:round;">
</g>
<g style="fill:#000000; fill-opacity:1.0; 
stroke:#000000; stroke-width:0; stroke-opacity:1; 
stroke-linecap:round; stroke-linejoin:round;">
<circle cx="36013.6" cy="50985.2" r="560" /> 
</g>
<g style="fill:#000000; fill-opacity:1.0; 
stroke:#000000; stroke-width:118.11; stroke-opacity:1; 
stroke-linecap:round; stroke-linejoin:round;">
</g>
<g style="fill:#000000; fill-opacity:1.0; 
stroke:#000000; stroke-width:0; stroke-opacity:1; 
stroke-linecap:round; stroke-linejoin:round;">
<circle cx="34013.6" cy="50985.2" r="560" /> 
</g>
<g style="fill:#000000; fill-opacity:1.0; 
stroke:#000000; stroke-width:118.11; stroke-opacity:1; 
stroke-linecap:round; stroke-linejoin:round;">
</g>
<g style="fill:#000000; fill-opacity:1.0; 
stroke:#000000; stroke-width:0; stroke-opacity:1; 
stroke-linecap:round; stroke-linejoin:round;">
<circle cx="32013.6" cy="50985.2" r="560" /> 
</g>
<g style="fill:#000000; fill-opacity:1.0; 
stroke:#000000; stroke-width:118.11; stroke-opacity:1; 
stroke-linecap:round; stroke-linejoin:round;">
</g>
<g style="fill:#000000; fill-opacity:1.0; 
stroke:#000000; stroke-width:0; stroke-opacity:1; 
stroke-linecap:round; stroke-linejoin:round;">
<circle cx="30013.6" cy="50985.2" r="560" /> 
</g>
<g style="fill:#000000; fill-opacity:1.0; 
stroke:#000000; stroke-width:118.11; stroke-opacity:1; 
stroke-linecap:round; stroke-linejoin:round;">
</g>
<g style="fill:#000000; fill-opacity:1.0; 
stroke:#000000; stroke-width:0; stroke-opacity:1; 
stroke-linecap:round; stroke-linejoin:round;">
<circle cx="28013.6" cy="50985.2" r="560" /> 
</g>
<g style="fill:#000000; fill-opacity:1.0; 
stroke:#000000; stroke-width:118.11; stroke-opacity:1; 
stroke-linecap:round; stroke-linejoin:round;">
</g>
<g style="fill:#000000; fill-opacity:1.0; 
stroke:#000000; stroke-width:0; stroke-opacity:1; 
stroke-linecap:round; stroke-linejoin:round;">
<circle cx="26013.6" cy="50985.2" r="560" /> 
</g>
<g style="fill:#000000; fill-opacity:1.0; 
stroke:#000000; stroke-width:118.11; stroke-opacity:1; 
stroke-linecap:round; stroke-linejoin:round;">
</g>
<g style="fill:#000000; fill-opacity:1.0; 
stroke:#000000; stroke-width:0; stroke-opacity:1; 
stroke-linecap:round; stroke-linejoin:round;">
<circle cx="24013.6" cy="50985.2" r="560" /> 
</g>
<g style="fill:#000000; fill-opacity:1.0; 
stroke:#000000; stroke-width:118.11; stroke-opacity:1; 
stroke-linecap:round; stroke-linejoin:round;">
</g>
<g style="fill:#000000; fill-opacity:1.0; 
stroke:#000000; stroke-width:0; stroke-opacity:1; 
stroke-linecap:round; stroke-linejoin:round;">
<circle cx="40013.6" cy="48985.2" r="560" /> 
</g>
<g style="fill:#000000; fill-opacity:1.0; 
stroke:#000000; stroke-width:118.11; stroke-opacity:1; 
stroke-linecap:round; stroke-linejoin:round;">
</g>
<g style="fill:#000000; fill-opacity:1.0; 
stroke:#000000; stroke-width:0; stroke-opacity:1; 
stroke-linecap:round; stroke-linejoin:round;">
<circle cx="36013.6" cy="48985.2" r="560" /> 
</g>
<g style="fill:#000000; fill-opacity:1.0; 
stroke:#000000; stroke-width:118.11; stroke-opacity:1; 
stroke-linecap:round; stroke-linejoin:round;">
</g>
<g style="fill:#000000; fill-opacity:1.0; 
stroke:#000000; stroke-width:0; stroke-opacity:1; 
stroke-linecap:round; stroke-linejoin:round;">
<circle cx="34013.6" cy="48985.2" r="560" /> 
</g>
<g style="fill:#000000; fill-opacity:1.0; 
stroke:#000000; stroke-width:118.11; stroke-opacity:1; 
stroke-linecap:round; stroke-linejoin:round;">
</g>
<g style="fill:#000000; fill-opacity:1.0; 
stroke:#000000; stroke-width:0; stroke-opacity:1; 
stroke-linecap:round; stroke-linejoin:round;">
<circle cx="32013.6" cy="48985.2" r="560" /> 
</g>
<g style="fill:#000000; fill-opacity:1.0; 
stroke:#000000; stroke-width:118.11; stroke-opacity:1; 
stroke-linecap:round; stroke-linejoin:round;">
</g>
<g style="fill:#000000; fill-opacity:1.0; 
stroke:#000000; stroke-width:0; stroke-opacity:1; 
stroke-linecap:round; stroke-linejoin:round;">
<circle cx="30013.6" cy="48985.2" r="560" /> 
</g>
<g style="fill:#000000; fill-opacity:1.0; 
stroke:#000000; stroke-width:118.11; stroke-opacity:1; 
stroke-linecap:round; stroke-linejoin:round;">
</g>
<g style="fill:#000000; fill-opacity:1.0; 
stroke:#000000; stroke-width:0; stroke-opacity:1; 
stroke-linecap:round; stroke-linejoin:round;">
<circle cx="28013.6" cy="48985.2" r="560" /> 
</g>
<g style="fill:#000000; fill-opacity:1.0; 
stroke:#000000; stroke-width:118.11; stroke-opacity:1; 
stroke-linecap:round; stroke-linejoin:round;">
</g>
<g style="fill:#000000; fill-opacity:1.0; 
stroke:#000000; stroke-width:0; stroke-opacity:1; 
stroke-linecap:round; stroke-linejoin:round;">
<circle cx="26013.6" cy="48985.2" r="560" /> 
</g>
<g style="fill:#000000; fill-opacity:1.0; 
stroke:#000000; stroke-width:118.11; stroke-opacity:1; 
stroke-linecap:round; stroke-linejoin:round;">
</g>
<g style="fill:#000000; fill-opacity:1.0; 
stroke:#000000; stroke-width:0; stroke-opacity:1; 
stroke-linecap:round; stroke-linejoin:round;">
<circle cx="24013.6" cy="48985.2" r="560" /> 
</g>
<g style="fill:#000000; fill-opacity:1.0; 
stroke:#000000; stroke-width:118.11; stroke-opacity:1; 
stroke-linecap:round; stroke-linejoin:round;">
</g>
<g style="fill:#000000; fill-opacity:1.0; 
stroke:#000000; stroke-width:0; stroke-opacity:1; 
stroke-linecap:round; stroke-linejoin:round;">
<circle cx="22013.6" cy="48985.2" r="560" /> 
</g>
<g style="fill:#000000; fill-opacity:1.0; 
stroke:#000000; stroke-width:118.11; stroke-opacity:1; 
stroke-linecap:round; stroke-linejoin:round;">
</g>
<g style="fill:#000000; fill-opacity:1.0; 
stroke:#000000; stroke-width:0; stroke-opacity:1; 
stroke-linecap:round; stroke-linejoin:round;">
<circle cx="20013.6" cy="48985.2" r="560" /> 
</g>
<g style="fill:#000000; fill-opacity:1.0; 
stroke:#000000; stroke-width:118.11; stroke-opacity:1; 
stroke-linecap:round; stroke-linejoin:round;">
</g>
<g style="fill:#000000; fill-opacity:1.0; 
stroke:#000000; stroke-width:0; stroke-opacity:1; 
stroke-linecap:round; stroke-linejoin:round;">
<circle cx="20013.6" cy="46985.2" r="560" /> 
</g>
<g style="fill:#000000; fill-opacity:1.0; 
stroke:#000000; stroke-width:118.11; stroke-opacity:1; 
stroke-linecap:round; stroke-linejoin:round;">
</g>
<g style="fill:#000000; fill-opacity:1.0; 
stroke:#000000; stroke-width:0; stroke-opacity:1; 
stroke-linecap:round; stroke-linejoin:round;">
<circle cx="20013.6" cy="44985.2" r="560" /> 
</g>
<g style="fill:#000000; fill-opacity:1.0; 
stroke:#000000; stroke-width:118.11; stroke-opacity:1; 
stroke-linecap:round; stroke-linejoin:round;">
</g>
<g style="fill:#000000; fill-opacity:1.0; 
stroke:#000000; stroke-width:0; stroke-opacity:1; 
stroke-linecap:round; stroke-linejoin:round;">
<circle cx="20013.6" cy="42985.2" r="560" /> 
</g>
<g style="fill:#000000; fill-opacity:1.0; 
stroke:#000000; stroke-width:118.11; stroke-opacity:1; 
stroke-linecap:round; stroke-linejoin:round;">
</g>
<g style="fill:#000000; fill-opacity:1.0; 
stroke:#000000; stroke-width:0; stroke-opacity:1; 
stroke-linecap:round; stroke-linejoin:round;">
<circle cx="20013.6" cy="40985.2" r="560" /> 
</g>
<g style="fill:#000000; fill-opacity:1.0; 
stroke:#000000; stroke-width:118.11; stroke-opacity:1; 
stroke-linecap:round; stroke-linejoin:round;">
</g>
<g style="fill:#000000; fill-opacity:1.0; 
stroke:#000000; stroke-width:0; stroke-opacity:1; 
stroke-linecap:round; stroke-linejoin:round;">
<circle cx="20013.6" cy="38985.2" r="560" /> 
</g>
<g style="fill:#000000; fill-opacity:1.0; 
stroke:#000000; stroke-width:118.11; stroke-opacity:1; 
stroke-linecap:round; stroke-linejoin:round;">
</g>
<g style="fill:#000000; fill-opacity:1.0; 
stroke:#000000; stroke-width:0; stroke-opacity:1; 
stroke-linecap:round; stroke-linejoin:round;">
<circle cx="20013.6" cy="36985.2" r="560" /> 
</g>
<g style="fill:#000000; fill-opacity:1.0; 
stroke:#000000; stroke-width:118.11; stroke-opacity:1; 
stroke-linecap:round; stroke-linejoin:round;">
</g>
<g style="fill:#000000; fill-opacity:1.0; 
stroke:#000000; stroke-width:0; stroke-opacity:1; 
stroke-linecap:round; stroke-linejoin:round;">
<circle cx="20013.6" cy="34985.2" r="560" /> 
</g>
<g style="fill:#000000; fill-opacity:1.0; 
stroke:#000000; stroke-width:118.11; stroke-opacity:1; 
stroke-linecap:round; stroke-linejoin:round;">
</g>
<g style="fill:#000000; fill-opacity:1.0; 
stroke:#000000; stroke-width:0; stroke-opacity:1; 
stroke-linecap:round; stroke-linejoin:round;">
<circle cx="20013.6" cy="32985.2" r="560" /> 
</g>
<g style="fill:#000000; fill-opacity:1.0; 
stroke:#000000; stroke-width:118.11; stroke-opacity:1; 
stroke-linecap:round; stroke-linejoin:round;">
</g>
<g style="fill:#000000; fill-opacity:1.0; 
stroke:#000000; stroke-width:0; stroke-opacity:1; 
stroke-linecap:round; stroke-linejoin:round;">
<circle cx="22013.6" cy="50985.2" r="560" /> 
</g>
<g style="fill:#000000; fill-opacity:1.0; 
stroke:#000000; stroke-width:118.11; stroke-opacity:1; 
stroke-linecap:round; stroke-linejoin:round;">
</g>
<g style="fill:#000000; fill-opacity:1.0; 
stroke:#000000; stroke-width:0; stroke-opacity:1; 
stroke-linecap:round; stroke-linejoin:round;">
<circle cx="22013.6" cy="46985.2" r="560" /> 
</g>
<g style="fill:#000000; fill-opacity:1.0; 
stroke:#000000; stroke-width:118.11; stroke-opacity:1; 
stroke-linecap:round; stroke-linejoin:round;">
</g>
<g style="fill:#000000; fill-opacity:1.0; 
stroke:#000000; stroke-width:0; stroke-opacity:1; 
stroke-linecap:round; stroke-linejoin:round;">
<circle cx="22013.6" cy="44985.2" r="560" /> 
</g>
<g style="fill:#000000; fill-opacity:1.0; 
stroke:#000000; stroke-width:118.11; stroke-opacity:1; 
stroke-linecap:round; stroke-linejoin:round;">
</g>
<g style="fill:#000000; fill-opacity:1.0; 
stroke:#000000; stroke-width:0; stroke-opacity:1; 
stroke-linecap:round; stroke-linejoin:round;">
<circle cx="22013.6" cy="42985.2" r="560" /> 
</g>
<g style="fill:#000000; fill-opacity:1.0; 
stroke:#000000; stroke-width:118.11; stroke-opacity:1; 
stroke-linecap:round; stroke-linejoin:round;">
</g>
<g style="fill:#000000; fill-opacity:1.0; 
stroke:#000000; stroke-width:0; stroke-opacity:1; 
stroke-linecap:round; stroke-linejoin:round;">
<circle cx="22013.6" cy="40985.2" r="560" /> 
</g>
<g style="fill:#000000; fill-opacity:1.0; 
stroke:#000000; stroke-width:118.11; stroke-opacity:1; 
stroke-linecap:round; stroke-linejoin:round;">
</g>
<g style="fill:#000000; fill-opacity:1.0; 
stroke:#000000; stroke-width:0; stroke-opacity:1; 
stroke-linecap:round; stroke-linejoin:round;">
<circle cx="22013.6" cy="38985.2" r="560" /> 
</g>
<g style="fill:#000000; fill-opacity:1.0; 
stroke:#000000; stroke-width:118.11; stroke-opacity:1; 
stroke-linecap:round; stroke-linejoin:round;">
</g>
<g style="fill:#000000; fill-opacity:1.0; 
stroke:#000000; stroke-width:0; stroke-opacity:1; 
stroke-linecap:round; stroke-linejoin:round;">
<circle cx="22013.6" cy="36985.2" r="560" /> 
</g>
<g style="fill:#000000; fill-opacity:1.0; 
stroke:#000000; stroke-width:118.11; stroke-opacity:1; 
stroke-linecap:round; stroke-linejoin:round;">
</g>
<g style="fill:#000000; fill-opacity:1.0; 
stroke:#000000; stroke-width:0; stroke-opacity:1; 
stroke-linecap:round; stroke-linejoin:round;">
<circle cx="22013.6" cy="34985.2" r="560" /> 
</g>
<g style="fill:#000000; fill-opacity:1.0; 
stroke:#000000; stroke-width:118.11; stroke-opacity:1; 
stroke-linecap:round; stroke-linejoin:round;">
</g>
<g style="fill:#000000; fill-opacity:1.0; 
stroke:#000000; stroke-width:0; stroke-opacity:1; 
stroke-linecap:round; stroke-linejoin:round;">
<circle cx="22013.6" cy="32985.2" r="560" /> 
</g>
<g style="fill:#000000; fill-opacity:1.0; 
stroke:#000000; stroke-width:118.11; stroke-opacity:1; 
stroke-linecap:round; stroke-linejoin:round;">
</g>
<g style="fill:#000000; fill-opacity:1.0; 
stroke:#000000; stroke-width:0; stroke-opacity:1; 
stroke-linecap:round; stroke-linejoin:round;">
<circle cx="22013.6" cy="30985.2" r="560" /> 
</g>
<g style="fill:#000000; fill-opacity:1.0; 
stroke:#000000; stroke-width:118.11; stroke-opacity:1; 
stroke-linecap:round; stroke-linejoin:round;">
</g>
<g style="fill:#000000; fill-opacity:1.0; 
stroke:#000000; stroke-width:0; stroke-opacity:1; 
stroke-linecap:round; stroke-linejoin:round;">
<circle cx="24013.6" cy="30985.2" r="560" /> 
</g>
<g style="fill:#000000; fill-opacity:1.0; 
stroke:#000000; stroke-width:118.11; stroke-opacity:1; 
stroke-linecap:round; stroke-linejoin:round;">
</g>
<g style="fill:#000000; fill-opacity:1.0; 
stroke:#000000; stroke-width:0; stroke-opacity:1; 
stroke-linecap:round; stroke-linejoin:round;">
<circle cx="26013.6" cy="30985.2" r="560" /> 
</g>
<g style="fill:#000000; fill-opacity:1.0; 
stroke:#000000; stroke-width:118.11; stroke-opacity:1; 
stroke-linecap:round; stroke-linejoin:round;">
</g>
<g style="fill:#000000; fill-opacity:1.0; 
stroke:#000000; stroke-width:0; stroke-opacity:1; 
stroke-linecap:round; stroke-linejoin:round;">
<circle cx="28013.6" cy="30985.2" r="560" /> 
</g>
<g style="fill:#000000; fill-opacity:1.0; 
stroke:#000000; stroke-width:118.11; stroke-opacity:1; 
stroke-linecap:round; stroke-linejoin:round;">
</g>
<g style="fill:#000000; fill-opacity:1.0; 
stroke:#000000; stroke-width:0; stroke-opacity:1; 
stroke-linecap:round; stroke-linejoin:round;">
<circle cx="30013.6" cy="30985.2" r="560" /> 
</g>
<g style="fill:#000000; fill-opacity:1.0; 
stroke:#000000; stroke-width:118.11; stroke-opacity:1; 
stroke-linecap:round; stroke-linejoin:round;">
</g>
<g style="fill:#000000; fill-opacity:1.0; 
stroke:#000000; stroke-width:0; stroke-opacity:1; 
stroke-linecap:round; stroke-linejoin:round;">
<circle cx="32013.6" cy="30985.2" r="560" /> 
</g>
<g style="fill:#000000; fill-opacity:1.0; 
stroke:#000000; stroke-width:118.11; stroke-opacity:1; 
stroke-linecap:round; stroke-linejoin:round;">
</g>
<g style="fill:#000000; fill-opacity:1.0; 
stroke:#000000; stroke-width:0; stroke-opacity:1; 
stroke-linecap:round; stroke-linejoin:round;">
<circle cx="34013.6" cy="30985.2" r="560" /> 
</g>
<g style="fill:#000000; fill-opacity:1.0; 
stroke:#000000; stroke-width:118.11; stroke-opacity:1; 
stroke-linecap:round; stroke-linejoin:round;">
</g>
<g style="fill:#000000; fill-opacity:1.0; 
stroke:#000000; stroke-width:0; stroke-opacity:1; 
stroke-linecap:round; stroke-linejoin:round;">
<circle cx="36013.6" cy="30985.2" r="560" /> 
</g>
<g style="fill:#000000; fill-opacity:1.0; 
stroke:#000000; stroke-width:118.11; stroke-opacity:1; 
stroke-linecap:round; stroke-linejoin:round;">
</g>
<g style="fill:#000000; fill-opacity:1.0; 
stroke:#000000; stroke-width:0; stroke-opacity:1; 
stroke-linecap:round; stroke-linejoin:round;">
<circle cx="38013.6" cy="30985.2" r="560" /> 
</g>
<g style="fill:#000000; fill-opacity:1.0; 
stroke:#000000; stroke-width:118.11; stroke-opacity:1; 
stroke-linecap:round; stroke-linejoin:round;">
</g>
<g style="fill:#000000; fill-opacity:1.0; 
stroke:#000000; stroke-width:0; stroke-opacity:1; 
stroke-linecap:round; stroke-linejoin:round;">
<circle cx="24013.6" cy="32985.2" r="560" /> 
</g>
<g style="fill:#000000; fill-opacity:1.0; 
stroke:#000000; stroke-width:118.11; stroke-opacity:1; 
stroke-linecap:round; stroke-linejoin:round;">
</g>
<g style="fill:#000000; fill-opacity:1.0; 
stroke:#000000; stroke-width:0; stroke-opacity:1; 
stroke-linecap:round; stroke-linejoin:round;">
<circle cx="26013.6" cy="32985.2" r="560" /> 
</g>
<g style="fill:#000000; fill-opacity:1.0; 
stroke:#000000; stroke-width:118.11; stroke-opacity:1; 
stroke-linecap:round; stroke-linejoin:round;">
</g>
<g style="fill:#000000; fill-opacity:1.0; 
stroke:#000000; stroke-width:0; stroke-opacity:1; 
stroke-linecap:round; stroke-linejoin:round;">
<circle cx="28013.6" cy="32985.2" r="560" /> 
</g>
<g style="fill:#000000; fill-opacity:1.0; 
stroke:#000000; stroke-width:118.11; stroke-opacity:1; 
stroke-linecap:round; stroke-linejoin:round;">
</g>
<g style="fill:#000000; fill-opacity:1.0; 
stroke:#000000; stroke-width:0; stroke-opacity:1; 
stroke-linecap:round; stroke-linejoin:round;">
<circle cx="30013.6" cy="32985.2" r="560" /> 
</g>
<g style="fill:#000000; fill-opacity:1.0; 
stroke:#000000; stroke-width:118.11; stroke-opacity:1; 
stroke-linecap:round; stroke-linejoin:round;">
</g>
<g style="fill:#000000; fill-opacity:1.0; 
stroke:#000000; stroke-width:0; stroke-opacity:1; 
stroke-linecap:round; stroke-linejoin:round;">
<circle cx="32013.6" cy="32985.2" r="560" /> 
</g>
<g style="fill:#000000; fill-opacity:1.0; 
stroke:#000000; stroke-width:118.11; stroke-opacity:1; 
stroke-linecap:round; stroke-linejoin:round;">
</g>
<g style="fill:#000000; fill-opacity:1.0; 
stroke:#000000; stroke-width:0; stroke-opacity:1; 
stroke-linecap:round; stroke-linejoin:round;">
<circle cx="34013.6" cy="32985.2" r="560" /> 
</g>
<g style="fill:#000000; fill-opacity:1.0; 
stroke:#000000; stroke-width:118.11; stroke-opacity:1; 
stroke-linecap:round; stroke-linejoin:round;">
</g>
<g style="fill:#000000; fill-opacity:1.0; 
stroke:#000000; stroke-width:0; stroke-opacity:1; 
stroke-linecap:round; stroke-linejoin:round;">
<circle cx="36013.6" cy="32985.2" r="560" /> 
</g>
<g style="fill:#000000; fill-opacity:1.0; 
stroke:#000000; stroke-width:118.11; stroke-opacity:1; 
stroke-linecap:round; stroke-linejoin:round;">
</g>
<g style="fill:#000000; fill-opacity:1.0; 
stroke:#000000; stroke-width:0; stroke-opacity:1; 
stroke-linecap:round; stroke-linejoin:round;">
<circle cx="38013.6" cy="32985.2" r="560" /> 
</g>
<g style="fill:#000000; fill-opacity:1.0; 
stroke:#000000; stroke-width:118.11; stroke-opacity:1; 
stroke-linecap:round; stroke-linejoin:round;">
</g>
<g style="fill:#000000; fill-opacity:1.0; 
stroke:#000000; stroke-width:0; stroke-opacity:1; 
stroke-linecap:round; stroke-linejoin:round;">
<circle cx="40013.6" cy="46985.2" r="560" /> 
</g>
<g style="fill:#000000; fill-opacity:1.0; 
stroke:#000000; stroke-width:118.11; stroke-opacity:1; 
stroke-linecap:round; stroke-linejoin:round;">
</g>
<g style="fill:#000000; fill-opacity:1.0; 
stroke:#000000; stroke-width:0; stroke-opacity:1; 
stroke-linecap:round; stroke-linejoin:round;">
<circle cx="40013.6" cy="44985.2" r="560" /> 
</g>
<g style="fill:#000000; fill-opacity:1.0; 
stroke:#000000; stroke-width:118.11; stroke-opacity:1; 
stroke-linecap:round; stroke-linejoin:round;">
</g>
<g style="fill:#000000; fill-opacity:1.0; 
stroke:#000000; stroke-width:0; stroke-opacity:1; 
stroke-linecap:round; stroke-linejoin:round;">
<circle cx="40013.6" cy="42985.2" r="560" /> 
</g>
<g style="fill:#000000; fill-opacity:1.0; 
stroke:#000000; stroke-width:118.11; stroke-opacity:1; 
stroke-linecap:round; stroke-linejoin:round;">
</g>
<g style="fill:#000000; fill-opacity:1.0; 
stroke:#000000; stroke-width:0; stroke-opacity:1; 
stroke-linecap:round; stroke-linejoin:round;">
<circle cx="40013.6" cy="32985.2" r="560" /> 
</g>
<g style="fill:#000000; fill-opacity:1.0; 
stroke:#000000; stroke-width:118.11; stroke-opacity:1; 
stroke-linecap:round; stroke-linejoin:round;">
</g>
<g style="fill:#000000; fill-opacity:1.0; 
stroke:#000000; stroke-width:0; stroke-opacity:1; 
stroke-linecap:round; stroke-linejoin:round;">
<circle cx="40013.6" cy="34985.2" r="560" /> 
</g>
<g style="fill:#000000; fill-opacity:1.0; 
stroke:#000000; stroke-width:118.11; stroke-opacity:1; 
stroke-linecap:round; stroke-linejoin:round;">
</g>
<g style="fill:#000000; fill-opacity:1.0; 
stroke:#000000; stroke-width:0; stroke-opacity:1; 
stroke-linecap:round; stroke-linejoin:round;">
<circle cx="40013.6" cy="36985.2" r="560" /> 
</g>
<g style="fill:#000000; fill-opacity:1.0; 
stroke:#000000; stroke-width:118.11; stroke-opacity:1; 
stroke-linecap:round; stroke-linejoin:round;">
</g>
<g style="fill:#000000; fill-opacity:1.0; 
stroke:#000000; stroke-width:0; stroke-opacity:1; 
stroke-linecap:round; stroke-linejoin:round;">
<circle cx="40013.6" cy="38985.2" r="560" /> 
</g>
<g style="fill:#000000; fill-opacity:1.0; 
stroke:#000000; stroke-width:118.11; stroke-opacity:1; 
stroke-linecap:round; stroke-linejoin:round;">
</g>
<g style="fill:#000000; fill-opacity:1.0; 
stroke:#000000; stroke-width:0; stroke-opacity:1; 
stroke-linecap:round; stroke-linejoin:round;">
<path style="fill:#000000; fill-opacity:1.0; 
stroke:#000000; stroke-width:0; stroke-opacity:1; 
stroke-linecap:round; stroke-linejoin:round;fill-rule:evenodd;"
d="M 39453.6,40425.2
40573.6,40425.2
40573.6,41545.2
39453.6,41545.2
Z" /> 
<circle cx="38013.6" cy="48985.2" r="560" /> 
</g>
<g style="fill:#000000; fill-opacity:1.0; 
stroke:#000000; stroke-width:118.11; stroke-opacity:1; 
stroke-linecap:round; stroke-linejoin:round;">
</g>
<g style="fill:#000000; fill-opacity:1.0; 
stroke:#000000; stroke-width:0; stroke-opacity:1; 
stroke-linecap:round; stroke-linejoin:round;">
<circle cx="38013.6" cy="46985.2" r="560" /> 
</g>
<g style="fill:#000000; fill-opacity:1.0; 
stroke:#000000; stroke-width:118.11; stroke-opacity:1; 
stroke-linecap:round; stroke-linejoin:round;">
</g>
<g style="fill:#000000; fill-opacity:1.0; 
stroke:#000000; stroke-width:0; stroke-opacity:1; 
stroke-linecap:round; stroke-linejoin:round;">
<circle cx="38013.6" cy="44985.2" r="560" /> 
</g>
<g style="fill:#000000; fill-opacity:1.0; 
stroke:#000000; stroke-width:118.11; stroke-opacity:1; 
stroke-linecap:round; stroke-linejoin:round;">
</g>
<g style="fill:#000000; fill-opacity:1.0; 
stroke:#000000; stroke-width:0; stroke-opacity:1; 
stroke-linecap:round; stroke-linejoin:round;">
<circle cx="38013.6" cy="42985.2" r="560" /> 
</g>
<g style="fill:#000000; fill-opacity:1.0; 
stroke:#000000; stroke-width:118.11; stroke-opacity:1; 
stroke-linecap:round; stroke-linejoin:round;">
</g>
<g style="fill:#000000; fill-opacity:1.0; 
stroke:#000000; stroke-width:0; stroke-opacity:1; 
stroke-linecap:round; stroke-linejoin:round;">
<circle cx="38013.6" cy="34985.2" r="560" /> 
</g>
<g style="fill:#000000; fill-opacity:1.0; 
stroke:#000000; stroke-width:118.11; stroke-opacity:1; 
stroke-linecap:round; stroke-linejoin:round;">
</g>
<g style="fill:#000000; fill-opacity:1.0; 
stroke:#000000; stroke-width:0; stroke-opacity:1; 
stroke-linecap:round; stroke-linejoin:round;">
<circle cx="38013.6" cy="36985.2" r="560" /> 
</g>
<g style="fill:#000000; fill-opacity:1.0; 
stroke:#000000; stroke-width:118.11; stroke-opacity:1; 
stroke-linecap:round; stroke-linejoin:round;">
</g>
<g style="fill:#000000; fill-opacity:1.0; 
stroke:#000000; stroke-width:0; stroke-opacity:1; 
stroke-linecap:round; stroke-linejoin:round;">
<circle cx="38013.6" cy="38985.2" r="560" /> 
</g>
<g style="fill:#000000; fill-opacity:1.0; 
stroke:#000000; stroke-width:118.11; stroke-opacity:1; 
stroke-linecap:round; stroke-linejoin:round;">
</g>
<g style="fill:#000000; fill-opacity:1.0; 
stroke:#000000; stroke-width:0; stroke-opacity:1; 
stroke-linecap:round; stroke-linejoin:round;">
<circle cx="38013.6" cy="40985.2" r="560" /> 
</g>
<g style="fill:#000000; fill-opacity:1.0; 
stroke:#000000; stroke-width:118.11; stroke-opacity:1; 
stroke-linecap:round; stroke-linejoin:round;">
</g>
<g >
</g>
<g style="fill:#000000; fill-opacity:1.0; 
stroke:#000000; stroke-width:118.11; stroke-opacity:1; 
stroke-linecap:round; stroke-linejoin:round;">
</g>
<g style="fill:#000000; fill-opacity:1.0; 
stroke:#000000; stroke-width:0; stroke-opacity:1; 
stroke-linecap:round; stroke-linejoin:round;">
<path style="fill:#000000; fill-opacity:1.0; 
stroke:#000000; stroke-width:0; stroke-opacity:1; 
stroke-linecap:round; stroke-linejoin:round;fill-rule:evenodd;"
d="M 37060.8,57796.2
35722.2,57796.2
35722.2,56457.6
37060.8,56457.6
Z" /> 
<circle cx="38391.5" cy="57126.9" r="669.291" /> 
<circle cx="40391.5" cy="57126.9" r="669.291" /> 
<circle cx="42391.5" cy="57126.9" r="669.291" /> 
<circle cx="44391.5" cy="57126.9" r="669.291" /> 
</g>
<g >
</g>
<g style="fill:#000000; fill-opacity:1.0; 
stroke:#000000; stroke-width:0; stroke-opacity:1; 
stroke-linecap:round; stroke-linejoin:round;">
<circle cx="46588.4" cy="25237.2" r="669.291" /> 
<circle cx="48588.4" cy="25237.2" r="669.291" /> 
<circle cx="50588.4" cy="25237.2" r="669.291" /> 
<circle cx="52588.4" cy="25237.2" r="669.291" /> 
<circle cx="54588.4" cy="25237.2" r="669.291" /> 
<path style="fill:#000000; fill-opacity:1.0; 
stroke:#000000; stroke-width:0; stroke-opacity:1; 
stroke-linecap:round; stroke-linejoin:round;fill-rule:evenodd;"
d="M 55919.1,24567.9
57257.7,24567.9
57257.7,25906.5
55919.1,25906.5
Z" /> 
</g>
<g >
</g>
<g style="fill:#000000; fill-opacity:1.0; 
stroke:#000000; stroke-width:0; stroke-opacity:1; 
stroke-linecap:round; stroke-linejoin:round;">
<circle cx="32966.3" cy="40386.8" r="669.291" /> 
<path style="fill:#000000; fill-opacity:1.0; 
stroke:#000000; stroke-width:0; stroke-opacity:1; 
stroke-linecap:round; stroke-linejoin:round;fill-rule:evenodd;"
d="M 33635.6,37717.5
33635.6,39056.1
32297,39056.1
32297,37717.5
Z" /> 
</g>
<g >
</g>
<g >
</g>
<g >
</g>
<g >
</g>
<g style="fill:#000000; fill-opacity:1.0; 
stroke:#000000; stroke-width:0; stroke-opacity:1; 
stroke-linecap:round; stroke-linejoin:round;">
<circle cx="12651.4" cy="52158.4" r="669.291" /> 
<circle cx="12651.4" cy="50158.4" r="669.291" /> 
<circle cx="12651.4" cy="48158.4" r="669.291" /> 
<circle cx="12651.4" cy="46158.4" r="669.291" /> 
<circle cx="12651.4" cy="44158.4" r="669.291" /> 
<circle cx="12651.4" cy="42158.4" r="669.291" /> 
<circle cx="12651.4" cy="40158.4" r="669.291" /> 
<circle cx="12651.4" cy="38158.4" r="669.291" /> 
<circle cx="12651.4" cy="36158.4" r="669.291" /> 
<circle cx="12651.4" cy="34158.4" r="669.291" /> 
<circle cx="12651.4" cy="32158.4" r="669.291" /> 
<path style="fill:#000000; fill-opacity:1.0; 
stroke:#000000; stroke-width:0; stroke-opacity:1; 
stroke-linecap:round; stroke-linejoin:round;fill-rule:evenodd;"
d="M 11982.1,30827.7
11982.1,29489.1
13320.6,29489.1
13320.6,30827.7
Z" /> 
</g>
<g >
</g>
<g style="fill:#000000; fill-opacity:1.0; 
stroke:#000000; stroke-width:0; stroke-opacity:1; 
stroke-linecap:round; stroke-linejoin:round;">
<circle cx="41934.8" cy="25237.2" r="669.291" /> 
<circle cx="39934.8" cy="25237.2" r="669.291" /> 
<circle cx="37934.8" cy="25237.2" r="669.291" /> 
<circle cx="35934.8" cy="25237.2" r="669.291" /> 
<circle cx="33934.8" cy="25237.2" r="669.291" /> 
<circle cx="31934.8" cy="25237.2" r="669.291" /> 
<circle cx="29934.8" cy="25237.2" r="669.291" /> 
<circle cx="27934.8" cy="25237.2" r="669.291" /> 
<circle cx="25934.8" cy="25237.2" r="669.291" /> 
<circle cx="23934.8" cy="25237.2" r="669.291" /> 
<circle cx="21934.8" cy="25237.2" r="669.291" /> 
<path style="fill:#000000; fill-opacity:1.0; 
stroke:#000000; stroke-width:0; stroke-opacity:1; 
stroke-linecap:round; stroke-linejoin:round;fill-rule:evenodd;"
d="M 20604.1,25906.5
19265.5,25906.5
19265.5,24567.9
20604.1,24567.9
Z" /> 
</g>
<g >
</g>
<g style="fill:#000000; fill-opacity:1.0; 
stroke:#000000; stroke-width:0; stroke-opacity:1; 
stroke-linecap:round; stroke-linejoin:round;">
<circle cx="33934.8" cy="57126.9" r="669.291" /> 
<circle cx="31934.8" cy="57126.9" r="669.291" /> 
<circle cx="29934.8" cy="57126.9" r="669.291" /> 
<circle cx="27934.8" cy="57126.9" r="669.291" /> 
<circle cx="25934.8" cy="57126.9" r="669.291" /> 
<circle cx="23934.8" cy="57126.9" r="669.291" /> 
<circle cx="21934.8" cy="57126.9" r="669.291" /> 
<path style="fill:#000000; fill-opacity:1.0; 
stroke:#000000; stroke-width:0; stroke-opacity:1; 
stroke-linecap:round; stroke-linejoin:round;fill-rule:evenodd;"
d="M 20604.1,57796.2
19265.5,57796.2
19265.5,56457.6
20604.1,56457.6
Z" /> 
</g>
<g >
</g>
<g style="fill:#000000; fill-opacity:1.0; 
stroke:#000000; stroke-width:0; stroke-opacity:1; 
stroke-linecap:round; stroke-linejoin:round;">
<path style="fill:#000000; fill-opacity:1.0; 
stroke:#000000; stroke-width:0; stroke-opacity:1; 
stroke-linecap:round; stroke-linejoin:round;fill-rule:evenodd;"
d="M 50682.8,53662.4
50249.8,53662.4
50249.8,53661.9
50230.5,53661.9
50192,53658.1
50154.1,53650.6
50117.1,53639.4
50081.4,53624.6
50047.4,53606.4
50015.2,53584.9
49985.4,53560.4
49958.1,53533.1
49933.6,53503.2
49912.1,53471.1
49893.9,53437
49879.1,53401.3
49867.9,53364.3
49860.3,53326.4
49856.6,53288
49856.6,53268.7
49856.1,53268.7
49856.1,52875
49856.6,52875
49856.6,52855.6
49860.3,52817.2
49867.9,52779.3
49879.1,52742.3
49893.9,52706.6
49912.1,52672.6
49933.6,52640.4
49958.1,52610.6
49985.4,52583.3
50015.2,52558.7
50047.4,52537.3
50081.4,52519.1
50117.1,52504.3
50154.1,52493.1
50192,52485.5
50230.5,52481.7
50249.8,52481.7
50249.8,52481.3
50682.8,52481.3
Z" /> 
<path style="fill:#000000; fill-opacity:1.0; 
stroke:#000000; stroke-width:0; stroke-opacity:1; 
stroke-linecap:round; stroke-linejoin:round;fill-rule:evenodd;"
d="M 50879.7,53662.4
50879.7,52481.3
51667.1,52481.3
51667.1,53662.4
Z" /> 
<path style="fill:#000000; fill-opacity:1.0; 
stroke:#000000; stroke-width:0; stroke-opacity:1; 
stroke-linecap:round; stroke-linejoin:round;fill-rule:evenodd;"
d="M 52297,52481.7
52316.3,52481.7
52354.8,52485.5
52392.7,52493.1
52429.7,52504.3
52465.4,52519.1
52499.4,52537.3
52531.5,52558.7
52561.4,52583.3
52588.7,52610.6
52613.2,52640.4
52634.7,52672.6
52652.9,52706.6
52667.7,52742.3
52678.9,52779.3
52686.5,52817.2
52690.2,52855.6
52690.2,52875
52690.7,52875
52690.7,53268.7
52690.2,53268.7
52690.2,53288
52686.5,53326.4
52678.9,53364.3
52667.7,53401.3
52652.9,53437
52634.7,53471.1
52613.2,53503.2
52588.7,53533.1
52561.4,53560.4
52531.5,53584.9
52499.4,53606.4
52465.4,53624.6
52429.7,53639.4
52392.7,53650.6
52354.8,53658.1
52316.3,53661.9
52297,53661.9
52297,53662.4
51864,53662.4
51864,52481.3
52297,52481.3
Z" /> 
</g>
<g >
</g>
<g style="fill:#000000; fill-opacity:1.0; 
stroke:#000000; stroke-width:0; stroke-opacity:1; 
stroke-linecap:round; stroke-linejoin:round;">
<path style="fill:#000000; fill-opacity:1.0; 
stroke:#000000; stroke-width:0; stroke-opacity:1; 
stroke-linecap:round; stroke-linejoin:round;fill-rule:evenodd;"
d="M 45879.7,53662.4
45446.6,53662.4
45446.6,53661.9
45427.3,53661.9
45388.9,53658.1
45351,53650.6
45314,53639.4
45278.3,53624.6
45244.2,53606.4
45212.1,53584.9
45182.2,53560.4
45154.9,53533.1
45130.4,53503.2
45108.9,53471.1
45090.7,53437
45075.9,53401.3
45064.7,53364.3
45057.2,53326.4
45053.4,53288
45053.4,53268.7
45052.9,53268.7
45052.9,52875
45053.4,52875
45053.4,52855.6
45057.2,52817.2
45064.7,52779.3
45075.9,52742.3
45090.7,52706.6
45108.9,52672.6
45130.4,52640.4
45154.9,52610.6
45182.2,52583.3
45212.1,52558.7
45244.2,52537.3
45278.3,52519.1
45314,52504.3
45351,52493.1
45388.9,52485.5
45427.3,52481.7
45446.6,52481.7
45446.6,52481.3
45879.7,52481.3
Z" /> 
<path style="fill:#000000; fill-opacity:1.0; 
stroke:#000000; stroke-width:0; stroke-opacity:1; 
stroke-linecap:round; stroke-linejoin:round;fill-rule:evenodd;"
d="M 46076.5,53662.4
46076.5,52481.3
46864,52481.3
46864,53662.4
Z" /> 
<path style="fill:#000000; fill-opacity:1.0; 
stroke:#000000; stroke-width:0; stroke-opacity:1; 
stroke-linecap:round; stroke-linejoin:round;fill-rule:evenodd;"
d="M 47493.9,52481.7
47513.2,52481.7
47551.6,52485.5
47589.5,52493.1
47626.5,52504.3
47662.2,52519.1
47696.3,52537.3
47728.4,52558.7
47758.3,52583.3
47785.6,52610.6
47810.1,52640.4
47831.6,52672.6
47849.8,52706.6
47864.6,52742.3
47875.8,52779.3
47883.3,52817.2
47887.1,52855.6
47887.1,52875
47887.6,52875
47887.6,53268.7
47887.1,53268.7
47887.1,53288
47883.3,53326.4
47875.8,53364.3
47864.6,53401.3
47849.8,53437
47831.6,53471.1
47810.1,53503.2
47785.6,53533.1
47758.3,53560.4
47728.4,53584.9
47696.3,53606.4
47662.2,53624.6
47626.5,53639.4
47589.5,53650.6
47551.6,53658.1
47513.2,53661.9
47493.9,53661.9
47493.9,53662.4
47060.8,53662.4
47060.8,52481.3
47493.9,52481.3
Z" /> 
</g>
<g >
</g>
<g style="fill:#000000; fill-opacity:1.0; 
stroke:#000000; stroke-width:0; stroke-opacity:1; 
stroke-linecap:round; stroke-linejoin:round;">
<circle cx="12651.4" cy="57126.9" r="984.252" /> 
</g>
<g style="fill:#000000; fill-opacity:1.0; 
stroke:#000000; stroke-width:118.11; stroke-opacity:1; 
stroke-linecap:round; stroke-linejoin:round;">
</g>
<g >
</g>
<g style="fill:#000000; fill-opacity:1.0; 
stroke:#000000; stroke-width:118.11; stroke-opacity:1; 
stroke-linecap:round; stroke-linejoin:round;">
</g>
<g style="fill:#000000; fill-opacity:1.0; 
stroke:#000000; stroke-width:0; stroke-opacity:1; 
stroke-linecap:round; stroke-linejoin:round;">
<circle cx="64619.9" cy="57050.7" r="984.252" /> 
</g>
<g style="fill:#000000; fill-opacity:1.0; 
stroke:#000000; stroke-width:118.11; stroke-opacity:1; 
stroke-linecap:round; stroke-linejoin:round;">
</g>
<g >
</g>
<g style="fill:#000000; fill-opacity:1.0; 
stroke:#000000; stroke-width:118.11; stroke-opacity:1; 
stroke-linecap:round; stroke-linejoin:round;">
</g>
<g style="fill:#000000; fill-opacity:1.0; 
stroke:#000000; stroke-width:0; stroke-opacity:1; 
stroke-linecap:round; stroke-linejoin:round;">
<circle cx="12651.4" cy="25237.2" r="984.252" /> 
</g>
<g style="fill:#000000; fill-opacity:1.0; 
stroke:#000000; stroke-width:118.11; stroke-opacity:1; 
stroke-linecap:round; stroke-linejoin:round;">
</g>
<g >
</g>
<g style="fill:#000000; fill-opacity:1.0; 
stroke:#000000; stroke-width:118.11; stroke-opacity:1; 
stroke-linecap:round; stroke-linejoin:round;">
</g>
<g style="fill:#000000; fill-opacity:1.0; 
stroke:#000000; stroke-width:0; stroke-opacity:1; 
stroke-linecap:round; stroke-linejoin:round;">
<circle cx="64619.9" cy="25237.2" r="984.252" /> 
</g>
<g style="fill:#000000; fill-opacity:1.0; 
stroke:#000000; stroke-width:118.11; stroke-opacity:1; 
stroke-linecap:round; stroke-linejoin:round;">
</g>
<g >
</g>
<g style="fill:#000000; fill-opacity:1.0; 
stroke:#000000; stroke-width:118.11; stroke-opacity:1; 
stroke-linecap:round; stroke-linejoin:round;">
</g>
<g style="fill:#000000; fill-opacity:1.0; 
stroke:#000000; stroke-width:0; stroke-opacity:1; 
stroke-linecap:round; stroke-linejoin:round;">
<path style="fill:#000000; fill-opacity:1.0; 
stroke:#000000; stroke-width:0; stroke-opacity:1; 
stroke-linecap:round; stroke-linejoin:round;fill-rule:evenodd;"
d="M 59875.4,39450.7
59894.5,39453.6
59913.2,39458.2
59931.4,39464.8
59948.9,39473
59965.4,39482.9
59981,39494.5
59995.3,39507.4
60008.2,39521.7
60019.8,39537.3
60029.7,39553.8
60037.9,39571.3
60044.5,39589.5
60049.1,39608.2
60052,39627.3
60052.9,39646.6
60052.9,40197.8
60052,40217.1
60049.1,40236.2
60044.5,40254.9
60037.9,40273.1
60029.7,40290.6
60019.8,40307.2
60008.2,40322.7
59995.3,40337
59981,40350
59965.4,40361.5
59948.9,40371.4
59931.4,40379.7
59913.2,40386.2
59894.5,40390.9
59875.4,40393.7
59856.1,40394.6
59147.4,40394.6
59128.1,40393.7
59109,40390.9
59090.3,40386.2
59072.1,40379.7
59054.6,40371.4
59038.1,40361.5
59022.5,40350
59008.2,40337
58995.2,40322.7
58983.7,40307.2
58973.8,40290.6
58965.5,40273.1
58959,40254.9
58954.3,40236.2
58951.5,40217.1
58950.6,40197.8
58950.6,39646.6
58951.5,39627.3
58954.3,39608.2
58959,39589.5
58965.5,39571.3
58973.8,39553.8
58983.7,39537.3
58995.2,39521.7
59008.2,39507.4
59022.5,39494.5
59038.1,39482.9
59054.6,39473
59072.1,39464.8
59090.3,39458.2
59109,39453.6
59128.1,39450.7
59147.4,39449.8
59856.1,39449.8
Z" /> 
<path style="fill:#000000; fill-opacity:1.0; 
stroke:#000000; stroke-width:0; stroke-opacity:1; 
stroke-linecap:round; stroke-linejoin:round;fill-rule:evenodd;"
d="M 59875.4,41025.5
59894.5,41028.4
59913.2,41033
59931.4,41039.6
59948.9,41047.8
59965.4,41057.7
59981,41069.3
59995.3,41082.2
60008.2,41096.5
60019.8,41112.1
60029.7,41128.6
60037.9,41146.1
60044.5,41164.3
60049.1,41183
60052,41202.1
60052.9,41221.4
60052.9,41772.6
60052,41791.9
60049.1,41811
60044.5,41829.7
60037.9,41847.9
60029.7,41865.4
60019.8,41882
60008.2,41897.5
59995.3,41911.8
59981,41924.8
59965.4,41936.3
59948.9,41946.2
59931.4,41954.5
59913.2,41961
59894.5,41965.7
59875.4,41968.5
59856.1,41969.5
59147.4,41969.5
59128.1,41968.5
59109,41965.7
59090.3,41961
59072.1,41954.5
59054.6,41946.2
59038.1,41936.3
59022.5,41924.8
59008.2,41911.8
58995.2,41897.5
58983.7,41882
58973.8,41865.4
58965.5,41847.9
58959,41829.7
58954.3,41811
58951.5,41791.9
58950.6,41772.6
58950.6,41221.4
58951.5,41202.1
58954.3,41183
58959,41164.3
58965.5,41146.1
58973.8,41128.6
58983.7,41112.1
58995.2,41096.5
59008.2,41082.2
59022.5,41069.3
59038.1,41057.7
59054.6,41047.8
59072.1,41039.6
59090.3,41033
59109,41028.4
59128.1,41025.5
59147.4,41024.6
59856.1,41024.6
Z" /> 
</g>
<g >
</g>
<g style="fill:#000000; fill-opacity:1.0; 
stroke:#000000; stroke-width:0; stroke-opacity:1; 
stroke-linecap:round; stroke-linejoin:round;">
<path style="fill:#000000; fill-opacity:1.0; 
stroke:#000000; stroke-width:0; stroke-opacity:1; 
stroke-linecap:round; stroke-linejoin:round;fill-rule:evenodd;"
d="M 52276.9,41025.5
52296.1,41028.4
52314.8,41033
52333,41039.6
52350.4,41047.8
52367,41057.7
52382.5,41069.3
52396.8,41082.2
52409.8,41096.5
52421.3,41112.1
52431.3,41128.6
52439.5,41146.1
52446,41164.3
52450.7,41183
52453.6,41202.1
52454.5,41221.4
52454.5,41772.6
52453.6,41791.9
52450.7,41811
52446,41829.7
52439.5,41847.9
52431.3,41865.4
52421.3,41882
52409.8,41897.5
52396.8,41911.8
52382.5,41924.8
52367,41936.3
52350.4,41946.2
52333,41954.5
52314.8,41961
52296.1,41965.7
52276.9,41968.5
52257.7,41969.5
51549,41969.5
51529.7,41968.5
51510.6,41965.7
51491.8,41961
51473.7,41954.5
51456.2,41946.2
51439.6,41936.3
51424.1,41924.8
51409.8,41911.8
51396.8,41897.5
51385.3,41882
51375.4,41865.4
51367.1,41847.9
51360.6,41829.7
51355.9,41811
51353.1,41791.9
51352.1,41772.6
51352.1,41221.4
51353.1,41202.1
51355.9,41183
51360.6,41164.3
51367.1,41146.1
51375.4,41128.6
51385.3,41112.1
51396.8,41096.5
51409.8,41082.2
51424.1,41069.3
51439.6,41057.7
51456.2,41047.8
51473.7,41039.6
51491.8,41033
51510.6,41028.4
51529.7,41025.5
51549,41024.6
52257.7,41024.6
Z" /> 
<path style="fill:#000000; fill-opacity:1.0; 
stroke:#000000; stroke-width:0; stroke-opacity:1; 
stroke-linecap:round; stroke-linejoin:round;fill-rule:evenodd;"
d="M 52276.9,39450.7
52296.1,39453.6
52314.8,39458.2
52333,39464.8
52350.4,39473
52367,39482.9
52382.5,39494.5
52396.8,39507.4
52409.8,39521.7
52421.3,39537.3
52431.3,39553.8
52439.5,39571.3
52446,39589.5
52450.7,39608.2
52453.6,39627.3
52454.5,39646.6
52454.5,40197.8
52453.6,40217.1
52450.7,40236.2
52446,40254.9
52439.5,40273.1
52431.3,40290.6
52421.3,40307.2
52409.8,40322.7
52396.8,40337
52382.5,40350
52367,40361.5
52350.4,40371.4
52333,40379.7
52314.8,40386.2
52296.1,40390.9
52276.9,40393.7
52257.7,40394.6
51549,40394.6
51529.7,40393.7
51510.6,40390.9
51491.8,40386.2
51473.7,40379.7
51456.2,40371.4
51439.6,40361.5
51424.1,40350
51409.8,40337
51396.8,40322.7
51385.3,40307.2
51375.4,40290.6
51367.1,40273.1
51360.6,40254.9
51355.9,40236.2
51353.1,40217.1
51352.1,40197.8
51352.1,39646.6
51353.1,39627.3
51355.9,39608.2
51360.6,39589.5
51367.1,39571.3
51375.4,39553.8
51385.3,39537.3
51396.8,39521.7
51409.8,39507.4
51424.1,39494.5
51439.6,39482.9
51456.2,39473
51473.7,39464.8
51491.8,39458.2
51510.6,39453.6
51529.7,39450.7
51549,39449.8
52257.7,39449.8
Z" /> 
</g>
<g >
</g>
<g style="fill:#000000; fill-opacity:1.0; 
stroke:#000000; stroke-width:0; stroke-opacity:1; 
stroke-linecap:round; stroke-linejoin:round;">
<path style="fill:#000000; fill-opacity:1.0; 
stroke:#000000; stroke-width:0; stroke-opacity:1; 
stroke-linecap:round; stroke-linejoin:round;fill-rule:evenodd;"
d="M 59875.4,32246
59894.5,32248.8
59913.2,32253.5
59931.4,32260
59948.9,32268.3
59965.4,32278.2
59981,32289.7
59995.3,32302.7
60008.2,32317
60019.8,32332.5
60029.7,32349.1
60037.9,32366.6
60044.5,32384.8
60049.1,32403.5
60052,32422.6
60052.9,32441.9
60052.9,32993.1
60052,33012.4
60049.1,33031.5
60044.5,33050.2
60037.9,33068.4
60029.7,33085.9
60019.8,33102.4
60008.2,33118
59995.3,33132.3
59981,33145.2
59965.4,33156.8
59948.9,33166.7
59931.4,33174.9
59913.2,33181.4
59894.5,33186.1
59875.4,33189
59856.1,33189.9
59147.4,33189.9
59128.1,33189
59109,33186.1
59090.3,33181.4
59072.1,33174.9
59054.6,33166.7
59038.1,33156.8
59022.5,33145.2
59008.2,33132.3
58995.2,33118
58983.7,33102.4
58973.8,33085.9
58965.5,33068.4
58959,33050.2
58954.3,33031.5
58951.5,33012.4
58950.6,32993.1
58950.6,32441.9
58951.5,32422.6
58954.3,32403.5
58959,32384.8
58965.5,32366.6
58973.8,32349.1
58983.7,32332.5
58995.2,32317
59008.2,32302.7
59022.5,32289.7
59038.1,32278.2
59054.6,32268.3
59072.1,32260
59090.3,32253.5
59109,32248.8
59128.1,32246
59147.4,32245
59856.1,32245
Z" /> 
<path style="fill:#000000; fill-opacity:1.0; 
stroke:#000000; stroke-width:0; stroke-opacity:1; 
stroke-linecap:round; stroke-linejoin:round;fill-rule:evenodd;"
d="M 59875.4,30671.2
59894.5,30674
59913.2,30678.7
59931.4,30685.2
59948.9,30693.5
59965.4,30703.4
59981,30714.9
59995.3,30727.9
60008.2,30742.2
60019.8,30757.7
60029.7,30774.3
60037.9,30791.8
60044.5,30809.9
60049.1,30828.7
60052,30847.8
60052.9,30867.1
60052.9,31418.3
60052,31437.6
60049.1,31456.7
60044.5,31475.4
60037.9,31493.6
60029.7,31511.1
60019.8,31527.6
60008.2,31543.2
59995.3,31557.5
59981,31570.4
59965.4,31581.9
59948.9,31591.9
59931.4,31600.1
59913.2,31606.6
59894.5,31611.3
59875.4,31614.2
59856.1,31615.1
59147.4,31615.1
59128.1,31614.2
59109,31611.3
59090.3,31606.6
59072.1,31600.1
59054.6,31591.9
59038.1,31581.9
59022.5,31570.4
59008.2,31557.5
58995.2,31543.2
58983.7,31527.6
58973.8,31511.1
58965.5,31493.6
58959,31475.4
58954.3,31456.7
58951.5,31437.6
58950.6,31418.3
58950.6,30867.1
58951.5,30847.8
58954.3,30828.7
58959,30809.9
58965.5,30791.8
58973.8,30774.3
58983.7,30757.7
58995.2,30742.2
59008.2,30727.9
59022.5,30714.9
59038.1,30703.4
59054.6,30693.5
59072.1,30685.2
59090.3,30678.7
59109,30674
59128.1,30671.2
59147.4,30670.2
59856.1,30670.2
Z" /> 
</g>
<g >
</g>
<g style="fill:#000000; fill-opacity:1.0; 
stroke:#000000; stroke-width:0; stroke-opacity:1; 
stroke-linecap:round; stroke-linejoin:round;">
<path style="fill:#000000; fill-opacity:1.0; 
stroke:#000000; stroke-width:0; stroke-opacity:1; 
stroke-linecap:round; stroke-linejoin:round;fill-rule:evenodd;"
d="M 52276.9,30671.2
52296.1,30674
52314.8,30678.7
52333,30685.2
52350.4,30693.5
52367,30703.4
52382.5,30714.9
52396.8,30727.9
52409.8,30742.2
52421.3,30757.7
52431.3,30774.3
52439.5,30791.8
52446,30809.9
52450.7,30828.7
52453.6,30847.8
52454.5,30867.1
52454.5,31418.3
52453.6,31437.6
52450.7,31456.7
52446,31475.4
52439.5,31493.6
52431.3,31511.1
52421.3,31527.6
52409.8,31543.2
52396.8,31557.5
52382.5,31570.4
52367,31581.9
52350.4,31591.9
52333,31600.1
52314.8,31606.6
52296.1,31611.3
52276.9,31614.2
52257.7,31615.1
51549,31615.1
51529.7,31614.2
51510.6,31611.3
51491.8,31606.6
51473.7,31600.1
51456.2,31591.9
51439.6,31581.9
51424.1,31570.4
51409.8,31557.5
51396.8,31543.2
51385.3,31527.6
51375.4,31511.1
51367.1,31493.6
51360.6,31475.4
51355.9,31456.7
51353.1,31437.6
51352.1,31418.3
51352.1,30867.1
51353.1,30847.8
51355.9,30828.7
51360.6,30809.9
51367.1,30791.8
51375.4,30774.3
51385.3,30757.7
51396.8,30742.2
51409.8,30727.9
51424.1,30714.9
51439.6,30703.4
51456.2,30693.5
51473.7,30685.2
51491.8,30678.7
51510.6,30674
51529.7,30671.2
51549,30670.2
52257.7,30670.2
Z" /> 
<path style="fill:#000000; fill-opacity:1.0; 
stroke:#000000; stroke-width:0; stroke-opacity:1; 
stroke-linecap:round; stroke-linejoin:round;fill-rule:evenodd;"
d="M 52276.9,32246
52296.1,32248.8
52314.8,32253.5
52333,32260
52350.4,32268.3
52367,32278.2
52382.5,32289.7
52396.8,32302.7
52409.8,32317
52421.3,32332.5
52431.3,32349.1
52439.5,32366.6
52446,32384.8
52450.7,32403.5
52453.6,32422.6
52454.5,32441.9
52454.5,32993.1
52453.6,33012.4
52450.7,33031.5
52446,33050.2
52439.5,33068.4
52431.3,33085.9
52421.3,33102.4
52409.8,33118
52396.8,33132.3
52382.5,33145.2
52367,33156.8
52350.4,33166.7
52333,33174.9
52314.8,33181.4
52296.1,33186.1
52276.9,33189
52257.7,33189.9
51549,33189.9
51529.7,33189
51510.6,33186.1
51491.8,33181.4
51473.7,33174.9
51456.2,33166.7
51439.6,33156.8
51424.1,33145.2
51409.8,33132.3
51396.8,33118
51385.3,33102.4
51375.4,33085.9
51367.1,33068.4
51360.6,33050.2
51355.9,33031.5
51353.1,33012.4
51352.1,32993.1
51352.1,32441.9
51353.1,32422.6
51355.9,32403.5
51360.6,32384.8
51367.1,32366.6
51375.4,32349.1
51385.3,32332.5
51396.8,32317
51409.8,32302.7
51424.1,32289.7
51439.6,32278.2
51456.2,32268.3
51473.7,32260
51491.8,32253.5
51510.6,32248.8
51529.7,32246
51549,32245
52257.7,32245
Z" /> 
</g>
<g >
</g>
<g style="fill:#000000; fill-opacity:1.0; 
stroke:#000000; stroke-width:0; stroke-opacity:1; 
stroke-linecap:round; stroke-linejoin:round;">
<path style="fill:#000000; fill-opacity:1.0; 
stroke:#000000; stroke-width:0; stroke-opacity:1; 
stroke-linecap:round; stroke-linejoin:round;fill-rule:evenodd;"
d="M 55604.1,41142.7
55604.1,41772.6
54895.4,41772.6
54895.4,41142.7
Z" /> 
<path style="fill:#000000; fill-opacity:1.0; 
stroke:#000000; stroke-width:0; stroke-opacity:1; 
stroke-linecap:round; stroke-linejoin:round;fill-rule:evenodd;"
d="M 55604.1,39646.6
55604.1,40276.5
54895.4,40276.5
54895.4,39646.6
Z" /> 
<path style="fill:#000000; fill-opacity:1.0; 
stroke:#000000; stroke-width:0; stroke-opacity:1; 
stroke-linecap:round; stroke-linejoin:round;fill-rule:evenodd;"
d="M 54029.3,40394.6
54029.3,41024.6
53320.6,41024.6
53320.6,40394.6
Z" /> 
</g>
<g >
</g>
<g style="fill:#000000; fill-opacity:1.0; 
stroke:#000000; stroke-width:0; stroke-opacity:1; 
stroke-linecap:round; stroke-linejoin:round;">
<path style="fill:#000000; fill-opacity:1.0; 
stroke:#000000; stroke-width:0; stroke-opacity:1; 
stroke-linecap:round; stroke-linejoin:round;fill-rule:evenodd;"
d="M 54029.3,31615.1
54029.3,32245
53320.6,32245
53320.6,31615.1
Z" /> 
<path style="fill:#000000; fill-opacity:1.0; 
stroke:#000000; stroke-width:0; stroke-opacity:1; 
stroke-linecap:round; stroke-linejoin:round;fill-rule:evenodd;"
d="M 55604.1,30867.1
55604.1,31497
54895.4,31497
54895.4,30867.1
Z" /> 
<path style="fill:#000000; fill-opacity:1.0; 
stroke:#000000; stroke-width:0; stroke-opacity:1; 
stroke-linecap:round; stroke-linejoin:round;fill-rule:evenodd;"
d="M 55604.1,32363.2
55604.1,32993.1
54895.4,32993.1
54895.4,32363.2
Z" /> 
</g>
<g >
</g>
<g style="fill:#000000; fill-opacity:1.0; 
stroke:#000000; stroke-width:0; stroke-opacity:1; 
stroke-linecap:round; stroke-linejoin:round;">
<circle cx="63635.6" cy="42260.8" r="669.291" /> 
<circle cx="63635.6" cy="40260.8" r="669.291" /> 
<circle cx="63635.6" cy="38260.8" r="669.291" /> 
<path style="fill:#000000; fill-opacity:1.0; 
stroke:#000000; stroke-width:0; stroke-opacity:1; 
stroke-linecap:round; stroke-linejoin:round;fill-rule:evenodd;"
d="M 62966.3,36930.1
62966.3,35591.5
64304.9,35591.5
64304.9,36930.1
Z" /> 
</g>
<g >
</g>
<g style="fill:#000000; fill-opacity:1.0; 
stroke:#000000; stroke-width:0; stroke-opacity:1; 
stroke-linecap:round; stroke-linejoin:round;">
<path style="fill:#000000; fill-opacity:1.0; 
stroke:#000000; stroke-width:0; stroke-opacity:1; 
stroke-linecap:round; stroke-linejoin:round;fill-rule:evenodd;"
d="M 57670.6,39468.4
57689.8,39471.3
57708.5,39476
57726.7,39482.5
57744.1,39490.7
57760.7,39500.7
57776.2,39512.2
57790.5,39525.1
57803.5,39539.5
57815,39555
57825,39571.5
57833.2,39589
57839.7,39607.2
57844.4,39625.9
57847.3,39645
57848.2,39664.3
57848.2,40176.1
57847.3,40195.4
57844.4,40214.5
57839.7,40233.3
57833.2,40251.5
57825,40268.9
57815,40285.5
57803.5,40301
57790.5,40315.3
57776.2,40328.3
57760.7,40339.8
57744.1,40349.8
57726.7,40358
57708.5,40364.5
57689.8,40369.2
57670.6,40372
57651.4,40373
56942.7,40373
56923.4,40372
56904.3,40369.2
56885.5,40364.5
56867.4,40358
56849.9,40349.8
56833.3,40339.8
56817.8,40328.3
56803.5,40315.3
56790.5,40301
56779,40285.5
56769.1,40268.9
56760.8,40251.5
56754.3,40233.3
56749.6,40214.5
56746.8,40195.4
56745.8,40176.1
56745.8,39664.3
56746.8,39645
56749.6,39625.9
56754.3,39607.2
56760.8,39589
56769.1,39571.5
56779,39555
56790.5,39539.5
56803.5,39525.1
56817.8,39512.2
56833.3,39500.7
56849.9,39490.7
56867.4,39482.5
56885.5,39476
56904.3,39471.3
56923.4,39468.4
56942.7,39467.5
57651.4,39467.5
Z" /> 
<path style="fill:#000000; fill-opacity:1.0; 
stroke:#000000; stroke-width:0; stroke-opacity:1; 
stroke-linecap:round; stroke-linejoin:round;fill-rule:evenodd;"
d="M 57670.6,41082.6
57689.8,41085.4
57708.5,41090.1
57726.7,41096.6
57744.1,41104.9
57760.7,41114.8
57776.2,41126.3
57790.5,41139.3
57803.5,41153.6
57815,41169.1
57825,41185.7
57833.2,41203.2
57839.7,41221.4
57844.4,41240.1
57847.3,41259.2
57848.2,41278.5
57848.2,41790.3
57847.3,41809.6
57844.4,41828.7
57839.7,41847.5
57833.2,41865.7
57825,41883.1
57815,41899.7
57803.5,41915.2
57790.5,41929.5
57776.2,41942.5
57760.7,41954
57744.1,41963.9
57726.7,41972.2
57708.5,41978.7
57689.8,41983.4
57670.6,41986.2
57651.4,41987.2
56942.7,41987.2
56923.4,41986.2
56904.3,41983.4
56885.5,41978.7
56867.4,41972.2
56849.9,41963.9
56833.3,41954
56817.8,41942.5
56803.5,41929.5
56790.5,41915.2
56779,41899.7
56769.1,41883.1
56760.8,41865.7
56754.3,41847.5
56749.6,41828.7
56746.8,41809.6
56745.8,41790.3
56745.8,41278.5
56746.8,41259.2
56749.6,41240.1
56754.3,41221.4
56760.8,41203.2
56769.1,41185.7
56779,41169.1
56790.5,41153.6
56803.5,41139.3
56817.8,41126.3
56833.3,41114.8
56849.9,41104.9
56867.4,41096.6
56885.5,41090.1
56904.3,41085.4
56923.4,41082.6
56942.7,41081.7
57651.4,41081.7
Z" /> 
</g>
<g >
</g>
<g style="fill:#000000; fill-opacity:1.0; 
stroke:#000000; stroke-width:0; stroke-opacity:1; 
stroke-linecap:round; stroke-linejoin:round;">
<path style="fill:#000000; fill-opacity:1.0; 
stroke:#000000; stroke-width:0; stroke-opacity:1; 
stroke-linecap:round; stroke-linejoin:round;fill-rule:evenodd;"
d="M 57670.6,32303.1
57689.8,32305.9
57708.5,32310.6
57726.7,32317.1
57744.1,32325.4
57760.7,32335.3
57776.2,32346.8
57790.5,32359.8
57803.5,32374.1
57815,32389.6
57825,32406.2
57833.2,32423.6
57839.7,32441.8
57844.4,32460.6
57847.3,32479.7
57848.2,32499
57848.2,33010.8
57847.3,33030.1
57844.4,33049.2
57839.7,33067.9
57833.2,33086.1
57825,33103.6
57815,33120.2
57803.5,33135.7
57790.5,33150
57776.2,33163
57760.7,33174.5
57744.1,33184.4
57726.7,33192.7
57708.5,33199.2
57689.8,33203.9
57670.6,33206.7
57651.4,33207.6
56942.7,33207.6
56923.4,33206.7
56904.3,33203.9
56885.5,33199.2
56867.4,33192.7
56849.9,33184.4
56833.3,33174.5
56817.8,33163
56803.5,33150
56790.5,33135.7
56779,33120.2
56769.1,33103.6
56760.8,33086.1
56754.3,33067.9
56749.6,33049.2
56746.8,33030.1
56745.8,33010.8
56745.8,32499
56746.8,32479.7
56749.6,32460.6
56754.3,32441.8
56760.8,32423.6
56769.1,32406.2
56779,32389.6
56790.5,32374.1
56803.5,32359.8
56817.8,32346.8
56833.3,32335.3
56849.9,32325.4
56867.4,32317.1
56885.5,32310.6
56904.3,32305.9
56923.4,32303.1
56942.7,32302.1
57651.4,32302.1
Z" /> 
<path style="fill:#000000; fill-opacity:1.0; 
stroke:#000000; stroke-width:0; stroke-opacity:1; 
stroke-linecap:round; stroke-linejoin:round;fill-rule:evenodd;"
d="M 57670.6,30688.9
57689.8,30691.7
57708.5,30696.4
57726.7,30702.9
57744.1,30711.2
57760.7,30721.1
57776.2,30732.6
57790.5,30745.6
57803.5,30759.9
57815,30775.4
57825,30792
57833.2,30809.5
57839.7,30827.7
57844.4,30846.4
57847.3,30865.5
57848.2,30884.8
57848.2,31396.6
57847.3,31415.9
57844.4,31435
57839.7,31453.8
57833.2,31471.9
57825,31489.4
57815,31506
57803.5,31521.5
57790.5,31535.8
57776.2,31548.8
57760.7,31560.3
57744.1,31570.2
57726.7,31578.5
57708.5,31585
57689.8,31589.7
57670.6,31592.5
57651.4,31593.5
56942.7,31593.5
56923.4,31592.5
56904.3,31589.7
56885.5,31585
56867.4,31578.5
56849.9,31570.2
56833.3,31560.3
56817.8,31548.8
56803.5,31535.8
56790.5,31521.5
56779,31506
56769.1,31489.4
56760.8,31471.9
56754.3,31453.8
56749.6,31435
56746.8,31415.9
56745.8,31396.6
56745.8,30884.8
56746.8,30865.5
56749.6,30846.4
56754.3,30827.7
56760.8,30809.5
56769.1,30792
56779,30775.4
56790.5,30759.9
56803.5,30745.6
56817.8,30732.6
56833.3,30721.1
56849.9,30711.2
56867.4,30702.9
56885.5,30696.4
56904.3,30691.7
56923.4,30688.9
56942.7,30688
57651.4,30688
Z" /> 
</g>
<g >
</g>
<g style="fill:#000000; fill-opacity:1.0; 
stroke:#000000; stroke-width:0; stroke-opacity:1; 
stroke-linecap:round; stroke-linejoin:round;">
<path style="fill:#000000; fill-opacity:1.0; 
stroke:#000000; stroke-width:0; stroke-opacity:1; 
stroke-linecap:round; stroke-linejoin:round;fill-rule:evenodd;"
d="M 56883.2,49411.3
56902.4,49414.2
56921.1,49418.9
56939.3,49425.4
56956.7,49433.6
56973.3,49443.6
56988.8,49455.1
57003.1,49468.1
57016.1,49482.4
57027.6,49497.9
57037.6,49514.5
57045.8,49531.9
57052.3,49550.1
57057,49568.8
57059.9,49588
57060.8,49607.2
57060.8,50315.9
57059.9,50335.2
57057,50354.3
57052.3,50373.1
57045.8,50391.2
57037.6,50408.7
57027.6,50425.3
57016.1,50440.8
57003.1,50455.1
56988.8,50468.1
56973.3,50479.6
56956.7,50489.5
56939.3,50497.8
56921.1,50504.3
56902.4,50509
56883.2,50511.8
56864,50512.8
56312.8,50512.8
56293.5,50511.8
56274.4,50509
56255.6,50504.3
56237.4,50497.8
56220,50489.5
56203.4,50479.6
56187.9,50468.1
56173.6,50455.1
56160.6,50440.8
56149.1,50425.3
56139.2,50408.7
56130.9,50391.2
56124.4,50373.1
56119.7,50354.3
56116.9,50335.2
56115.9,50315.9
56115.9,49607.2
56116.9,49588
56119.7,49568.8
56124.4,49550.1
56130.9,49531.9
56139.2,49514.5
56149.1,49497.9
56160.6,49482.4
56173.6,49468.1
56187.9,49455.1
56203.4,49443.6
56220,49433.6
56237.4,49425.4
56255.6,49418.9
56274.4,49414.2
56293.5,49411.3
56312.8,49410.4
56864,49410.4
Z" /> 
<path style="fill:#000000; fill-opacity:1.0; 
stroke:#000000; stroke-width:0; stroke-opacity:1; 
stroke-linecap:round; stroke-linejoin:round;fill-rule:evenodd;"
d="M 55308.4,49411.3
55327.6,49414.2
55346.3,49418.9
55364.5,49425.4
55381.9,49433.6
55398.5,49443.6
55414,49455.1
55428.3,49468.1
55441.3,49482.4
55452.8,49497.9
55462.8,49514.5
55471,49531.9
55477.5,49550.1
55482.2,49568.8
55485,49588
55486,49607.2
55486,50315.9
55485,50335.2
55482.2,50354.3
55477.5,50373.1
55471,50391.2
55462.8,50408.7
55452.8,50425.3
55441.3,50440.8
55428.3,50455.1
55414,50468.1
55398.5,50479.6
55381.9,50489.5
55364.5,50497.8
55346.3,50504.3
55327.6,50509
55308.4,50511.8
55289.1,50512.8
54738,50512.8
54718.7,50511.8
54699.6,50509
54680.8,50504.3
54662.6,50497.8
54645.2,50489.5
54628.6,50479.6
54613.1,50468.1
54598.8,50455.1
54585.8,50440.8
54574.3,50425.3
54564.4,50408.7
54556.1,50391.2
54549.6,50373.1
54544.9,50354.3
54542.1,50335.2
54541.1,50315.9
54541.1,49607.2
54542.1,49588
54544.9,49568.8
54549.6,49550.1
54556.1,49531.9
54564.4,49514.5
54574.3,49497.9
54585.8,49482.4
54598.8,49468.1
54613.1,49455.1
54628.6,49443.6
54645.2,49433.6
54662.6,49425.4
54680.8,49418.9
54699.6,49414.2
54718.7,49411.3
54738,49410.4
55289.1,49410.4
Z" /> 
</g>
<g >
</g>
<g >
</g>
<g >
</g>
<g style="fill:#000000; fill-opacity:1.0; 
stroke:#000000; stroke-width:0; stroke-opacity:1; 
stroke-linecap:round; stroke-linejoin:round;">
<path style="fill:#000000; fill-opacity:1.0; 
stroke:#000000; stroke-width:0; stroke-opacity:1; 
stroke-linecap:round; stroke-linejoin:round;fill-rule:evenodd;"
d="M 55308.4,47246
55327.6,47248.8
55346.3,47253.5
55364.5,47260
55381.9,47268.3
55398.5,47278.2
55414,47289.7
55428.3,47302.7
55441.3,47317
55452.8,47332.5
55462.8,47349.1
55471,47366.6
55477.5,47384.8
55482.2,47403.5
55485,47422.6
55486,47441.9
55486,48150.6
55485,48169.9
55482.2,48189
55477.5,48207.7
55471,48225.9
55462.8,48243.4
55452.8,48259.9
55441.3,48275.4
55428.3,48289.7
55414,48302.7
55398.5,48314.2
55381.9,48324.2
55364.5,48332.4
55346.3,48338.9
55327.6,48343.6
55308.4,48346.5
55289.1,48347.4
54738,48347.4
54718.7,48346.5
54699.6,48343.6
54680.8,48338.9
54662.6,48332.4
54645.2,48324.2
54628.6,48314.2
54613.1,48302.7
54598.8,48289.7
54585.8,48275.4
54574.3,48259.9
54564.4,48243.4
54556.1,48225.9
54549.6,48207.7
54544.9,48189
54542.1,48169.9
54541.1,48150.6
54541.1,47441.9
54542.1,47422.6
54544.9,47403.5
54549.6,47384.8
54556.1,47366.6
54564.4,47349.1
54574.3,47332.5
54585.8,47317
54598.8,47302.7
54613.1,47289.7
54628.6,47278.2
54645.2,47268.3
54662.6,47260
54680.8,47253.5
54699.6,47248.8
54718.7,47246
54738,47245
55289.1,47245
Z" /> 
<path style="fill:#000000; fill-opacity:1.0; 
stroke:#000000; stroke-width:0; stroke-opacity:1; 
stroke-linecap:round; stroke-linejoin:round;fill-rule:evenodd;"
d="M 56883.2,47246
56902.4,47248.8
56921.1,47253.5
56939.3,47260
56956.7,47268.3
56973.3,47278.2
56988.8,47289.7
57003.1,47302.7
57016.1,47317
57027.6,47332.5
57037.6,47349.1
57045.8,47366.6
57052.3,47384.8
57057,47403.5
57059.9,47422.6
57060.8,47441.9
57060.8,48150.6
57059.9,48169.9
57057,48189
57052.3,48207.7
57045.8,48225.9
57037.6,48243.4
57027.6,48259.9
57016.1,48275.4
57003.1,48289.7
56988.8,48302.7
56973.3,48314.2
56956.7,48324.2
56939.3,48332.4
56921.1,48338.9
56902.4,48343.6
56883.2,48346.5
56864,48347.4
56312.8,48347.4
56293.5,48346.5
56274.4,48343.6
56255.6,48338.9
56237.4,48332.4
56220,48324.2
56203.4,48314.2
56187.9,48302.7
56173.6,48289.7
56160.6,48275.4
56149.1,48259.9
56139.2,48243.4
56130.9,48225.9
56124.4,48207.7
56119.7,48189
56116.9,48169.9
56115.9,48150.6
56115.9,47441.9
56116.9,47422.6
56119.7,47403.5
56124.4,47384.8
56130.9,47366.6
56139.2,47349.1
56149.1,47332.5
56160.6,47317
56173.6,47302.7
56187.9,47289.7
56203.4,47278.2
56220,47268.3
56237.4,47260
56255.6,47253.5
56274.4,47248.8
56293.5,47246
56312.8,47245
56864,47245
Z" /> 
</g>
<g >
</g>
<g >
</g>
<g style="fill:#000000; fill-opacity:1.0; 
stroke:#000000; stroke-width:0; stroke-opacity:1; 
stroke-linecap:round; stroke-linejoin:round;">
<path style="fill:#000000; fill-opacity:1.0; 
stroke:#000000; stroke-width:0; stroke-opacity:1; 
stroke-linecap:round; stroke-linejoin:round;fill-rule:evenodd;"
d="M 48761.2,47836.5
48780.3,47839.4
48799,47844.1
48817.2,47850.6
48834.7,47858.8
48851.3,47868.8
48866.8,47880.3
48881.1,47893.3
48894.1,47907.6
48905.6,47923.1
48915.5,47939.7
48923.8,47957.1
48930.3,47975.3
48935,47994
48937.8,48013.2
48938.8,48032.4
48938.8,48563.9
48937.8,48583.2
48935,48602.3
48930.3,48621.1
48923.8,48639.3
48915.5,48656.7
48905.6,48673.3
48894.1,48688.8
48881.1,48703.1
48866.8,48716.1
48851.3,48727.6
48834.7,48737.5
48817.2,48745.8
48799,48752.3
48780.3,48757
48761.2,48759.8
48741.9,48760.8
47993.9,48760.8
47974.6,48759.8
47955.5,48757
47936.7,48752.3
47918.5,48745.8
47901.1,48737.5
47884.5,48727.6
47869,48716.1
47854.7,48703.1
47841.7,48688.8
47830.2,48673.3
47820.3,48656.7
47812,48639.3
47805.5,48621.1
47800.8,48602.3
47798,48583.2
47797,48563.9
47797,48032.4
47798,48013.2
47800.8,47994
47805.5,47975.3
47812,47957.1
47820.3,47939.7
47830.2,47923.1
47841.7,47907.6
47854.7,47893.3
47869,47880.3
47884.5,47868.8
47901.1,47858.8
47918.5,47850.6
47936.7,47844.1
47955.5,47839.4
47974.6,47836.5
47993.9,47835.6
48741.9,47835.6
Z" /> 
<path style="fill:#000000; fill-opacity:1.0; 
stroke:#000000; stroke-width:0; stroke-opacity:1; 
stroke-linecap:round; stroke-linejoin:round;fill-rule:evenodd;"
d="M 48761.2,46202.7
48780.3,46205.5
48799,46210.2
48817.2,46216.7
48834.7,46225
48851.3,46234.9
48866.8,46246.4
48881.1,46259.4
48894.1,46273.7
48905.6,46289.2
48915.5,46305.8
48923.8,46323.3
48930.3,46341.4
48935,46360.2
48937.8,46379.3
48938.8,46398.6
48938.8,46930.1
48937.8,46949.4
48935,46968.5
48930.3,46987.2
48923.8,47005.4
48915.5,47022.9
48905.6,47039.4
48894.1,47055
48881.1,47069.3
48866.8,47082.3
48851.3,47093.8
48834.7,47103.7
48817.2,47111.9
48799,47118.5
48780.3,47123.2
48761.2,47126
48741.9,47126.9
47993.9,47126.9
47974.6,47126
47955.5,47123.2
47936.7,47118.5
47918.5,47111.9
47901.1,47103.7
47884.5,47093.8
47869,47082.3
47854.7,47069.3
47841.7,47055
47830.2,47039.4
47820.3,47022.9
47812,47005.4
47805.5,46987.2
47800.8,46968.5
47798,46949.4
47797,46930.1
47797,46398.6
47798,46379.3
47800.8,46360.2
47805.5,46341.4
47812,46323.3
47820.3,46305.8
47830.2,46289.2
47841.7,46273.7
47854.7,46259.4
47869,46246.4
47884.5,46234.9
47901.1,46225
47918.5,46216.7
47936.7,46210.2
47955.5,46205.5
47974.6,46202.7
47993.9,46201.7
48741.9,46201.7
Z" /> 
</g>
<g >
</g>
<g >
</g>
<g style="fill:#000000; fill-opacity:1.0; 
stroke:#000000; stroke-width:0; stroke-opacity:1; 
stroke-linecap:round; stroke-linejoin:round;">
<path style="fill:#000000; fill-opacity:1.0; 
stroke:#000000; stroke-width:0; stroke-opacity:1; 
stroke-linecap:round; stroke-linejoin:round;fill-rule:evenodd;"
d="M 48761.2,43053.1
48780.3,43055.9
48799,43060.6
48817.2,43067.1
48834.7,43075.4
48851.3,43085.3
48866.8,43096.8
48881.1,43109.8
48894.1,43124.1
48905.6,43139.6
48915.5,43156.2
48923.8,43173.6
48930.3,43191.8
48935,43210.6
48937.8,43229.7
48938.8,43249
48938.8,43780.5
48937.8,43799.8
48935,43818.9
48930.3,43837.6
48923.8,43855.8
48915.5,43873.3
48905.6,43889.8
48894.1,43905.4
48881.1,43919.7
48866.8,43932.6
48851.3,43944.2
48834.7,43954.1
48817.2,43962.3
48799,43968.9
48780.3,43973.5
48761.2,43976.4
48741.9,43977.3
47993.9,43977.3
47974.6,43976.4
47955.5,43973.5
47936.7,43968.9
47918.5,43962.3
47901.1,43954.1
47884.5,43944.2
47869,43932.6
47854.7,43919.7
47841.7,43905.4
47830.2,43889.8
47820.3,43873.3
47812,43855.8
47805.5,43837.6
47800.8,43818.9
47798,43799.8
47797,43780.5
47797,43249
47798,43229.7
47800.8,43210.6
47805.5,43191.8
47812,43173.6
47820.3,43156.2
47830.2,43139.6
47841.7,43124.1
47854.7,43109.8
47869,43096.8
47884.5,43085.3
47901.1,43075.4
47918.5,43067.1
47936.7,43060.6
47955.5,43055.9
47974.6,43053.1
47993.9,43052.1
48741.9,43052.1
Z" /> 
<path style="fill:#000000; fill-opacity:1.0; 
stroke:#000000; stroke-width:0; stroke-opacity:1; 
stroke-linecap:round; stroke-linejoin:round;fill-rule:evenodd;"
d="M 48761.2,44686.9
48780.3,44689.8
48799,44694.5
48817.2,44701
48834.7,44709.2
48851.3,44719.2
48866.8,44730.7
48881.1,44743.6
48894.1,44758
48905.6,44773.5
48915.5,44790
48923.8,44807.5
48930.3,44825.7
48935,44844.4
48937.8,44863.5
48938.8,44882.8
48938.8,45414.3
48937.8,45433.6
48935,45452.7
48930.3,45471.5
48923.8,45489.7
48915.5,45507.1
48905.6,45523.7
48894.1,45539.2
48881.1,45553.5
48866.8,45566.5
48851.3,45578
48834.7,45587.9
48817.2,45596.2
48799,45602.7
48780.3,45607.4
48761.2,45610.2
48741.9,45611.2
47993.9,45611.2
47974.6,45610.2
47955.5,45607.4
47936.7,45602.7
47918.5,45596.2
47901.1,45587.9
47884.5,45578
47869,45566.5
47854.7,45553.5
47841.7,45539.2
47830.2,45523.7
47820.3,45507.1
47812,45489.7
47805.5,45471.5
47800.8,45452.7
47798,45433.6
47797,45414.3
47797,44882.8
47798,44863.5
47800.8,44844.4
47805.5,44825.7
47812,44807.5
47820.3,44790
47830.2,44773.5
47841.7,44758
47854.7,44743.6
47869,44730.7
47884.5,44719.2
47901.1,44709.2
47918.5,44701
47936.7,44694.5
47955.5,44689.8
47974.6,44686.9
47993.9,44686
48741.9,44686
Z" /> 
</g>
<g >
</g>
<g >
</g>
<g >
</g>
<g >
</g>
<g style="fill:#000000; fill-opacity:1.0; 
stroke:#000000; stroke-width:0; stroke-opacity:1; 
stroke-linecap:round; stroke-linejoin:round;">
<path style="fill:#000000; fill-opacity:1.0; 
stroke:#000000; stroke-width:0; stroke-opacity:1; 
stroke-linecap:round; stroke-linejoin:round;fill-rule:evenodd;"
d="M 55269.1,51557
55288.2,51559.8
55306.9,51564.5
55325.1,51571.1
55342.6,51579.3
55359.1,51589.2
55374.7,51600.7
55389,51613.7
55401.9,51628
55413.5,51643.6
55423.4,51660.1
55431.6,51677.6
55438.2,51695.8
55442.8,51714.5
55445.7,51733.6
55446.6,51752.9
55446.6,52500.9
55445.7,52520.2
55442.8,52539.4
55438.2,52558.1
55431.6,52576.3
55423.4,52593.7
55413.5,52610.3
55401.9,52625.8
55389,52640.1
55374.7,52653.1
55359.1,52664.6
55342.6,52674.6
55325.1,52682.8
55306.9,52689.3
55288.2,52694
55269.1,52696.9
55249.8,52697.8
54718.3,52697.8
54699,52696.9
54679.9,52694
54661.1,52689.3
54642.9,52682.8
54625.5,52674.6
54608.9,52664.6
54593.4,52653.1
54579.1,52640.1
54566.1,52625.8
54554.6,52610.3
54544.7,52593.7
54536.4,52576.3
54529.9,52558.1
54525.2,52539.4
54522.4,52520.2
54521.4,52500.9
54521.4,51752.9
54522.4,51733.6
54525.2,51714.5
54529.9,51695.8
54536.4,51677.6
54544.7,51660.1
54554.6,51643.6
54566.1,51628
54579.1,51613.7
54593.4,51600.7
54608.9,51589.2
54625.5,51579.3
54642.9,51571.1
54661.1,51564.5
54679.9,51559.8
54699,51557
54718.3,51556.1
55249.8,51556.1
Z" /> 
<path style="fill:#000000; fill-opacity:1.0; 
stroke:#000000; stroke-width:0; stroke-opacity:1; 
stroke-linecap:round; stroke-linejoin:round;fill-rule:evenodd;"
d="M 56902.9,51557
56922,51559.8
56940.8,51564.5
56959,51571.1
56976.4,51579.3
56993,51589.2
57008.5,51600.7
57022.8,51613.7
57035.8,51628
57047.3,51643.6
57057.2,51660.1
57065.5,51677.6
57072,51695.8
57076.7,51714.5
57079.5,51733.6
57080.5,51752.9
57080.5,52500.9
57079.5,52520.2
57076.7,52539.4
57072,52558.1
57065.5,52576.3
57057.2,52593.7
57047.3,52610.3
57035.8,52625.8
57022.8,52640.1
57008.5,52653.1
56993,52664.6
56976.4,52674.6
56959,52682.8
56940.8,52689.3
56922,52694
56902.9,52696.9
56883.6,52697.8
56352.1,52697.8
56332.8,52696.9
56313.7,52694
56295,52689.3
56276.8,52682.8
56259.3,52674.6
56242.8,52664.6
56227.3,52653.1
56212.9,52640.1
56200,52625.8
56188.5,52610.3
56178.5,52593.7
56170.3,52576.3
56163.8,52558.1
56159.1,52539.4
56156.2,52520.2
56155.3,52500.9
56155.3,51752.9
56156.2,51733.6
56159.1,51714.5
56163.8,51695.8
56170.3,51677.6
56178.5,51660.1
56188.5,51643.6
56200,51628
56212.9,51613.7
56227.3,51600.7
56242.8,51589.2
56259.3,51579.3
56276.8,51571.1
56295,51564.5
56313.7,51559.8
56332.8,51557
56352.1,51556.1
56883.6,51556.1
Z" /> 
</g>
<g >
</g>
<g >
</g>
<g >
</g>
<g >
</g>
<g >
</g>
<g >
</g>
<g >
</g>
<g >
</g>
<g >
</g>
<g style="fill:#000000; fill-opacity:1.0; 
stroke:#000000; stroke-width:0; stroke-opacity:1; 
stroke-linecap:round; stroke-linejoin:round;">
<circle cx="45029.3" cy="43835.6" r="590.551" /> 
</g>
<g style="fill:#000000; fill-opacity:1.0; 
stroke:#000000; stroke-width:118.11; stroke-opacity:1; 
stroke-linecap:round; stroke-linejoin:round;">
</g>
<g style="fill:#000000; fill-opacity:1.0; 
stroke:#000000; stroke-width:0; stroke-opacity:1; 
stroke-linecap:round; stroke-linejoin:round;">
<circle cx="45029.3" cy="47678.1" r="590.551" /> 
</g>
<g style="fill:#000000; fill-opacity:1.0; 
stroke:#000000; stroke-width:118.11; stroke-opacity:1; 
stroke-linecap:round; stroke-linejoin:round;">
</g>
<g >
</g>
<g style="fill:#000000; fill-opacity:1.0; 
stroke:#000000; stroke-width:118.11; stroke-opacity:1; 
stroke-linecap:round; stroke-linejoin:round;">
</g>
<g style="fill:#000000; fill-opacity:1.0; 
stroke:#000000; stroke-width:0; stroke-opacity:1; 
stroke-linecap:round; stroke-linejoin:round;">
<circle cx="59344.3" cy="52914.3" r="787.402" /> 
</g>
<g style="fill:#000000; fill-opacity:1.0; 
stroke:#000000; stroke-width:118.11; stroke-opacity:1; 
stroke-linecap:round; stroke-linejoin:round;">
</g>
<g style="fill:#000000; fill-opacity:1.0; 
stroke:#000000; stroke-width:0; stroke-opacity:1; 
stroke-linecap:round; stroke-linejoin:round;">
<circle cx="59344.3" cy="49371" r="787.402" /> 
</g>
<g style="fill:#000000; fill-opacity:1.0; 
stroke:#000000; stroke-width:118.11; stroke-opacity:1; 
stroke-linecap:round; stroke-linejoin:round;">
</g>
<g style="fill:#000000; fill-opacity:1.0; 
stroke:#000000; stroke-width:0; stroke-opacity:1; 
stroke-linecap:round; stroke-linejoin:round;">
<circle cx="64462.4" cy="52914.3" r="787.402" /> 
</g>
<g style="fill:#000000; fill-opacity:1.0; 
stroke:#000000; stroke-width:118.11; stroke-opacity:1; 
stroke-linecap:round; stroke-linejoin:round;">
</g>
<g style="fill:#000000; fill-opacity:1.0; 
stroke:#000000; stroke-width:0; stroke-opacity:1; 
stroke-linecap:round; stroke-linejoin:round;">
<circle cx="64462.4" cy="49371" r="787.402" /> 
</g>
<g style="fill:#000000; fill-opacity:1.0; 
stroke:#000000; stroke-width:118.11; stroke-opacity:1; 
stroke-linecap:round; stroke-linejoin:round;">
</g>
<g >
</g>
<g >
</g>
<g >
</g>
</g> 
</svg>
