<?xml version="1.0" standalone="no"?>
 <!DOCTYPE svg PUBLIC "-//W3C//DTD SVG 1.1//EN" 
 "http://www.w3.org/Graphics/SVG/1.1/DTD/svg11.dtd"> 
<svg
  xmlns:svg="http://www.w3.org/2000/svg"
  xmlns="http://www.w3.org/2000/svg"
  xmlns:xlink="http://www.w3.org/1999/xlink"
  version="1.1"
  width="29.700220cm" height="21.000720cm" viewBox="0 0 116930 82680">
<title>SVG Picture created as board-F_SilkS.svg date 2021/03/29 15:50:43 </title>
  <desc>Picture generated by PCBNEW </desc>
<g style="fill:#000000; fill-opacity:1;stroke:#000000; stroke-opacity:1;
stroke-linecap:round; stroke-linejoin:round;"
 transform="translate(0 0) scale(1 1)">
</g>
<g style="fill:#000000; fill-opacity:0.0; 
stroke:#000000; stroke-width:-0.000787402; stroke-opacity:1; 
stroke-linecap:round; stroke-linejoin:round;">
</g>
<g style="fill:#000000; fill-opacity:0.0; 
stroke:#000000; stroke-width:78.7402; stroke-opacity:1; 
stroke-linecap:round; stroke-linejoin:round;">
<text x="57808.8" y="58308"
textLength="6809.15" font-size="839.894" lengthAdjust="spacingAndGlyphs"
text-anchor="middle" opacity="0">January, 2021</text>
<path d="M54734 57648
L54734 58098
L54704 58188
L54644 58248
L54554 58278
L54494 58278
" />
<path d="M55304 58278
L55304 57948
L55274 57888
L55214 57858
L55094 57858
L55034 57888
" />
<path d="M55304 58248
L55244 58278
L55094 58278
L55034 58248
L55004 58188
L55004 58128
L55034 58068
L55094 58038
L55244 58038
L55304 58008
" />
<path d="M55604 57858
L55604 58278
" />
<path d="M55604 57918
L55634 57888
L55694 57858
L55784 57858
L55844 57888
L55874 57948
L55874 58278
" />
<path d="M56444 57858
L56444 58278
" />
<path d="M56174 57858
L56174 58188
L56204 58248
L56264 58278
L56354 58278
L56414 58248
L56444 58218
" />
<path d="M57013 58278
L57013 57948
L56983 57888
L56923 57858
L56803 57858
L56743 57888
" />
<path d="M57013 58248
L56953 58278
L56803 58278
L56743 58248
L56713 58188
L56713 58128
L56743 58068
L56803 58038
L56953 58038
L57013 58008
" />
<path d="M57313 58278
L57313 57858
" />
<path d="M57313 57978
L57343 57918
L57373 57888
L57433 57858
L57493 57858
" />
<path d="M57643 57858
L57793 58278
" />
<path d="M57943 57858
L57793 58278
L57733 58428
L57703 58458
L57643 58488
" />
<path d="M58213 58248
L58213 58278
L58183 58338
L58153 58368
" />
<path d="M58933 57708
L58963 57678
L59023 57648
L59173 57648
L59233 57678
L59263 57708
L59293 57768
L59293 57828
L59263 57918
L58903 58278
L59293 58278
" />
<path d="M59683 57648
L59743 57648
L59803 57678
L59833 57708
L59863 57768
L59893 57888
L59893 58038
L59863 58158
L59833 58218
L59803 58248
L59743 58278
L59683 58278
L59623 58248
L59593 58218
L59563 58158
L59533 58038
L59533 57888
L59563 57768
L59593 57708
L59623 57678
L59683 57648
" />
<path d="M60133 57708
L60163 57678
L60223 57648
L60373 57648
L60433 57678
L60463 57708
L60493 57768
L60493 57828
L60463 57918
L60103 58278
L60493 58278
" />
<path d="M61093 58278
L60733 58278
" />
<path d="M60913 58278
L60913 57648
L60853 57738
L60793 57798
L60733 57828
" />
</g>
<g style="fill:#000000; fill-opacity:0.0; 
stroke:#000000; stroke-width:118.11; stroke-opacity:1; 
stroke-linecap:round; stroke-linejoin:round;">
<text x="61169.3" y="42481.3"
textLength="1639.67" font-size="1049.87" lengthAdjust="spacingAndGlyphs"
text-anchor="start" opacity="0">RX</text>
<path d="M61883 42443
L61621 42068
" />
<path d="M61433 42443
L61433 41656
L61733 41656
L61808 41693
L61846 41731
L61883 41806
L61883 41918
L61846 41993
L61808 42031
L61733 42068
L61433 42068
" />
<path d="M62146 41656
L62670 42443
" />
<path d="M62670 41656
L62146 42443
" />
<text x="60879.7" y="36654.5"
textLength="1578.37" font-size="1049.87" lengthAdjust="spacingAndGlyphs"
text-anchor="start" opacity="0">5V</text>
<path d="M61518 35829
L61143 35829
L61106 36204
L61143 36167
L61218 36129
L61406 36129
L61481 36167
L61518 36204
L61556 36279
L61556 36467
L61518 36542
L61481 36579
L61406 36616
L61218 36616
L61143 36579
L61106 36542
" />
<path d="M61781 35829
L62043 36616
L62306 35829
" />
<text x="60307" y="38701.7"
textLength="2553.24" font-size="1049.87" lengthAdjust="spacingAndGlyphs"
text-anchor="start" opacity="0">GND</text>
<path d="M60983 37914
L60908 37876
L60796 37876
L60683 37914
L60608 37989
L60571 38064
L60533 38214
L60533 38326
L60571 38476
L60608 38551
L60683 38626
L60796 38664
L60871 38664
L60983 38626
L61021 38589
L61021 38326
L60871 38326
" />
<path d="M61358 38664
L61358 37876
L61808 38664
L61808 37876
" />
<path d="M62183 38664
L62183 37876
L62370 37876
L62483 37914
L62558 37989
L62595 38064
L62633 38214
L62633 38326
L62595 38476
L62558 38551
L62483 38626
L62370 38664
L62183 38664
" />
<text x="61356.8" y="40749"
textLength="1503.37" font-size="1049.87" lengthAdjust="spacingAndGlyphs"
text-anchor="start" opacity="0">TX</text>
<path d="M61508 39924
L61958 39924
" />
<path d="M61733 40711
L61733 39924
" />
<path d="M62146 39924
L62670 40711
" />
<path d="M62670 39924
L62146 40711
" />
<text x="46037.2" y="27441.9"
textLength="940.945" font-size="1049.87" lengthAdjust="spacingAndGlyphs"
text-anchor="start" opacity="0">G</text>
<path d="M46713 26654
L46638 26616
L46526 26616
L46413 26654
L46338 26729
L46301 26804
L46263 26954
L46263 27066
L46301 27216
L46338 27291
L46413 27366
L46526 27404
L46601 27404
L46713 27366
L46751 27329
L46751 27066
L46601 27066
" />
<text x="50131.7" y="27441.9"
textLength="940.945" font-size="1049.87" lengthAdjust="spacingAndGlyphs"
text-anchor="start" opacity="0">G</text>
<path d="M50808 26654
L50733 26616
L50620 26616
L50508 26654
L50433 26729
L50395 26804
L50358 26954
L50358 27066
L50395 27216
L50433 27291
L50508 27366
L50620 27404
L50695 27404
L50808 27366
L50845 27329
L50845 27066
L50695 27066
" />
<text x="54068.7" y="27441.9"
textLength="940.945" font-size="1049.87" lengthAdjust="spacingAndGlyphs"
text-anchor="start" opacity="0">G</text>
<path d="M54745 26654
L54670 26616
L54557 26616
L54445 26654
L54370 26729
L54332 26804
L54295 26954
L54295 27066
L54332 27216
L54370 27291
L54445 27366
L54557 27404
L54632 27404
L54745 27366
L54782 27329
L54782 27066
L54632 27066
" />
<text x="55958.4" y="27441.9"
textLength="1578.37" font-size="1049.87" lengthAdjust="spacingAndGlyphs"
text-anchor="start" opacity="0">5V</text>
<path d="M56597 26616
L56222 26616
L56185 26991
L56222 26954
L56297 26916
L56485 26916
L56560 26954
L56597 26991
L56635 27066
L56635 27254
L56597 27329
L56560 27366
L56485 27404
L56297 27404
L56222 27366
L56185 27329
" />
<path d="M56860 26616
L57122 27404
L57385 26616
" />
<text x="51391.5" y="27441.9"
textLength="2328.27" font-size="1049.87" lengthAdjust="spacingAndGlyphs"
text-anchor="start" opacity="0">1V8</text>
<path d="M52068 27404
L51618 27404
" />
<path d="M51843 27404
L51843 26616
L51768 26729
L51693 26804
L51618 26841
" />
<path d="M52293 26616
L52555 27404
L52818 26616
" />
<path d="M53193 26954
L53118 26916
L53080 26879
L53043 26804
L53043 26766
L53080 26691
L53118 26654
L53193 26616
L53343 26616
L53418 26654
L53455 26691
L53493 26766
L53493 26804
L53455 26879
L53418 26916
L53343 26954
L53193 26954
L53118 26991
L53080 27029
L53043 27104
L53043 27254
L53080 27329
L53118 27366
L53193 27404
L53343 27404
L53418 27366
L53455 27329
L53493 27254
L53493 27104
L53455 27029
L53418 26991
L53343 26954
" />
<text x="47454.5" y="27441.9"
textLength="2328.27" font-size="1049.87" lengthAdjust="spacingAndGlyphs"
text-anchor="start" opacity="0">3V3</text>
<path d="M47643 26616
L48131 26616
L47868 26916
L47981 26916
L48056 26954
L48093 26991
L48131 27066
L48131 27254
L48093 27329
L48056 27366
L47981 27404
L47756 27404
L47681 27366
L47643 27329
" />
<path d="M48356 26616
L48618 27404
L48881 26616
" />
<path d="M49068 26616
L49556 26616
L49293 26916
L49406 26916
L49481 26954
L49518 26991
L49556 27066
L49556 27254
L49518 27329
L49481 27366
L49406 27404
L49181 27404
L49106 27366
L49068 27329
" />
<g transform="rotate(-90 23904 27935.9)">
<text x="23904" y="28329.6"
textLength="1690.85" font-size="1049.87" lengthAdjust="spacingAndGlyphs"
text-anchor="start" opacity="0">B9</text>
</g>
<path d="M23847 27409
L23885 27296
L23922 27259
L23997 27221
L24110 27221
L24185 27259
L24222 27296
L24260 27371
L24260 27671
L23472 27671
L23472 27409
L23510 27334
L23547 27296
L23622 27259
L23697 27259
L23772 27296
L23810 27334
L23847 27409
L23847 27671
" />
<path d="M24260 26846
L24260 26696
L24222 26621
L24185 26584
L24072 26509
L23922 26471
L23622 26471
L23547 26509
L23510 26546
L23472 26621
L23472 26771
L23510 26846
L23547 26884
L23622 26921
L23810 26921
L23885 26884
L23922 26846
L23960 26771
L23960 26621
L23922 26546
L23885 26509
L23810 26471
" />
<g transform="rotate(-90 25908.3 27935.9)">
<text x="25908.3" y="28329.6"
textLength="1690.85" font-size="1049.87" lengthAdjust="spacingAndGlyphs"
text-anchor="start" opacity="0">B8</text>
</g>
<path d="M25852 27409
L25889 27296
L25927 27259
L26002 27221
L26114 27221
L26189 27259
L26227 27296
L26264 27371
L26264 27671
L25477 27671
L25477 27409
L25514 27334
L25552 27296
L25627 27259
L25702 27259
L25777 27296
L25814 27334
L25852 27409
L25852 27671
" />
<path d="M25814 26771
L25777 26846
L25739 26884
L25664 26921
L25627 26921
L25552 26884
L25514 26846
L25477 26771
L25477 26621
L25514 26546
L25552 26509
L25627 26471
L25664 26471
L25739 26509
L25777 26546
L25814 26621
L25814 26771
L25852 26846
L25889 26884
L25964 26921
L26114 26921
L26189 26884
L26227 26846
L26264 26771
L26264 26621
L26227 26546
L26189 26509
L26114 26471
L25964 26471
L25889 26509
L25852 26546
L25814 26621
" />
<g transform="rotate(-90 21899.7 28685.8)">
<text x="21899.7" y="29079.5"
textLength="2440.76" font-size="1049.87" lengthAdjust="spacingAndGlyphs"
text-anchor="start" opacity="0">B10</text>
</g>
<path d="M21843 28159
L21880 28046
L21918 28009
L21993 27971
L22105 27971
L22180 28009
L22218 28046
L22255 28121
L22255 28421
L21468 28421
L21468 28159
L21506 28084
L21543 28046
L21618 28009
L21693 28009
L21768 28046
L21806 28084
L21843 28159
L21843 28421
" />
<path d="M22255 27221
L22255 27671
" />
<path d="M22255 27446
L21468 27446
L21581 27521
L21656 27596
L21693 27671
" />
<path d="M21468 26734
L21468 26659
L21506 26584
L21543 26546
L21618 26509
L21768 26471
L21955 26471
L22105 26509
L22180 26546
L22218 26584
L22255 26659
L22255 26734
L22218 26809
L22180 26846
L22105 26884
L21955 26921
L21768 26921
L21618 26884
L21543 26846
L21506 26809
L21468 26734
" />
<g transform="rotate(-90 27912.6 27935.9)">
<text x="27912.6" y="28329.6"
textLength="1690.85" font-size="1049.87" lengthAdjust="spacingAndGlyphs"
text-anchor="start" opacity="0">B7</text>
</g>
<path d="M27856 27409
L27893 27296
L27931 27259
L28006 27221
L28118 27221
L28193 27259
L28231 27296
L28268 27371
L28268 27671
L27481 27671
L27481 27409
L27518 27334
L27556 27296
L27631 27259
L27706 27259
L27781 27296
L27818 27334
L27856 27409
L27856 27671
" />
<path d="M27481 26959
L27481 26434
L28268 26771
" />
<g transform="rotate(-90 19895.4 28685.8)">
<text x="19895.4" y="29079.5"
textLength="2440.76" font-size="1049.87" lengthAdjust="spacingAndGlyphs"
text-anchor="start" opacity="0">B11</text>
</g>
<path d="M19839 28159
L19876 28046
L19914 28009
L19989 27971
L20101 27971
L20176 28009
L20214 28046
L20251 28121
L20251 28421
L19464 28421
L19464 28159
L19501 28084
L19539 28046
L19614 28009
L19689 28009
L19764 28046
L19801 28084
L19839 28159
L19839 28421
" />
<path d="M20251 27221
L20251 27671
" />
<path d="M20251 27446
L19464 27446
L19576 27521
L19651 27596
L19689 27671
" />
<path d="M20251 26471
L20251 26921
" />
<path d="M20251 26696
L19464 26696
L19576 26771
L19651 26846
L19689 26921
" />
<g transform="rotate(-90 31921.2 27935.9)">
<text x="31921.2" y="28329.6"
textLength="1690.85" font-size="1049.87" lengthAdjust="spacingAndGlyphs"
text-anchor="start" opacity="0">B5</text>
</g>
<path d="M31864 27409
L31902 27296
L31939 27259
L32014 27221
L32127 27221
L32202 27259
L32239 27296
L32277 27371
L32277 27671
L31490 27671
L31490 27409
L31527 27334
L31565 27296
L31639 27259
L31714 27259
L31789 27296
L31827 27334
L31864 27409
L31864 27671
" />
<path d="M31490 26509
L31490 26884
L31864 26921
L31827 26884
L31789 26809
L31789 26621
L31827 26546
L31864 26509
L31939 26471
L32127 26471
L32202 26509
L32239 26546
L32277 26621
L32277 26809
L32239 26884
L32202 26921
" />
<g transform="rotate(-90 37934.1 27935.9)">
<text x="37934.1" y="28329.6"
textLength="1690.85" font-size="1049.87" lengthAdjust="spacingAndGlyphs"
text-anchor="start" opacity="0">B2</text>
</g>
<path d="M37877 27409
L37915 27296
L37952 27259
L38027 27221
L38140 27221
L38215 27259
L38252 27296
L38290 27371
L38290 27671
L37502 27671
L37502 27409
L37540 27334
L37577 27296
L37652 27259
L37727 27259
L37802 27296
L37840 27334
L37877 27409
L37877 27671
" />
<path d="M37577 26921
L37540 26884
L37502 26809
L37502 26621
L37540 26546
L37577 26509
L37652 26471
L37727 26471
L37840 26509
L38290 26959
L38290 26471
" />
<g transform="rotate(-90 29916.9 27935.9)">
<text x="29916.9" y="28329.6"
textLength="1690.85" font-size="1049.87" lengthAdjust="spacingAndGlyphs"
text-anchor="start" opacity="0">B6</text>
</g>
<path d="M29860 27409
L29898 27296
L29935 27259
L30010 27221
L30123 27221
L30198 27259
L30235 27296
L30273 27371
L30273 27671
L29485 27671
L29485 27409
L29523 27334
L29560 27296
L29635 27259
L29710 27259
L29785 27296
L29823 27334
L29860 27409
L29860 27671
" />
<path d="M29485 26546
L29485 26696
L29523 26771
L29560 26809
L29673 26884
L29823 26921
L30123 26921
L30198 26884
L30235 26846
L30273 26771
L30273 26621
L30235 26546
L30198 26509
L30123 26471
L29935 26471
L29860 26509
L29823 26546
L29785 26621
L29785 26771
L29823 26846
L29860 26884
L29935 26921
" />
<g transform="rotate(-90 39938.4 27935.9)">
<text x="39938.4" y="28329.6"
textLength="1690.85" font-size="1049.87" lengthAdjust="spacingAndGlyphs"
text-anchor="start" opacity="0">B1</text>
</g>
<path d="M39882 27409
L39919 27296
L39957 27259
L40032 27221
L40144 27221
L40219 27259
L40257 27296
L40294 27371
L40294 27671
L39507 27671
L39507 27409
L39544 27334
L39582 27296
L39657 27259
L39732 27259
L39807 27296
L39844 27334
L39882 27409
L39882 27671
" />
<path d="M40294 26471
L40294 26921
" />
<path d="M40294 26696
L39507 26696
L39619 26771
L39694 26846
L39732 26921
" />
<g transform="rotate(-90 35929.8 27935.9)">
<text x="35929.8" y="28329.6"
textLength="1690.85" font-size="1049.87" lengthAdjust="spacingAndGlyphs"
text-anchor="start" opacity="0">B3</text>
</g>
<path d="M35873 27409
L35911 27296
L35948 27259
L36023 27221
L36136 27221
L36211 27259
L36248 27296
L36286 27371
L36286 27671
L35498 27671
L35498 27409
L35536 27334
L35573 27296
L35648 27259
L35723 27259
L35798 27296
L35836 27334
L35873 27409
L35873 27671
" />
<path d="M35498 26959
L35498 26471
L35798 26734
L35798 26621
L35836 26546
L35873 26509
L35948 26471
L36136 26471
L36211 26509
L36248 26546
L36286 26621
L36286 26846
L36248 26921
L36211 26959
" />
<g transform="rotate(-90 41942.7 27935.9)">
<text x="41942.7" y="28329.6"
textLength="1690.85" font-size="1049.87" lengthAdjust="spacingAndGlyphs"
text-anchor="start" opacity="0">B0</text>
</g>
<path d="M41886 27409
L41923 27296
L41961 27259
L42036 27221
L42148 27221
L42223 27259
L42261 27296
L42298 27371
L42298 27671
L41511 27671
L41511 27409
L41548 27334
L41586 27296
L41661 27259
L41736 27259
L41811 27296
L41848 27334
L41886 27409
L41886 27671
" />
<path d="M41511 26734
L41511 26659
L41548 26584
L41586 26546
L41661 26509
L41811 26471
L41998 26471
L42148 26509
L42223 26546
L42261 26584
L42298 26659
L42298 26734
L42261 26809
L42223 26846
L42148 26884
L41998 26921
L41811 26921
L41661 26884
L41586 26846
L41548 26809
L41511 26734
" />
<g transform="rotate(-90 33925.5 27935.9)">
<text x="33925.5" y="28329.6"
textLength="1690.85" font-size="1049.87" lengthAdjust="spacingAndGlyphs"
text-anchor="start" opacity="0">B4</text>
</g>
<path d="M33869 27409
L33906 27296
L33944 27259
L34019 27221
L34131 27221
L34206 27259
L34244 27296
L34281 27371
L34281 27671
L33494 27671
L33494 27409
L33531 27334
L33569 27296
L33644 27259
L33719 27259
L33794 27296
L33831 27334
L33869 27409
L33869 27671
" />
<path d="M33756 26546
L34281 26546
" />
<path d="M33456 26734
L34019 26921
L34019 26434
" />
<g transform="rotate(-90 33911.2 55967.4)">
<text x="33911.2" y="56361.1"
textLength="1578.37" font-size="1049.87" lengthAdjust="spacingAndGlyphs"
text-anchor="start" opacity="0">A0</text>
</g>
<path d="M34042 55740
L34042 55365
" />
<path d="M34267 55815
L33479 55553
L34267 55290
" />
<path d="M33479 54878
L33479 54803
L33517 54728
L33554 54690
L33629 54653
L33779 54615
L33967 54615
L34117 54653
L34192 54690
L34229 54728
L34267 54803
L34267 54878
L34229 54953
L34192 54990
L34117 55028
L33967 55065
L33779 55065
L33629 55028
L33554 54990
L33517 54953
L33479 54878
" />
<g transform="rotate(-90 26037.2 55967.4)">
<text x="26037.2" y="56361.1"
textLength="1578.37" font-size="1049.87" lengthAdjust="spacingAndGlyphs"
text-anchor="start" opacity="0">A4</text>
</g>
<path d="M26168 55740
L26168 55365
" />
<path d="M26393 55815
L25605 55553
L26393 55290
" />
<path d="M25868 54690
L26393 54690
" />
<path d="M25568 54878
L26130 55065
L26130 54578
" />
<g transform="rotate(-90 22100.2 55967.4)">
<text x="22100.2" y="56361.1"
textLength="1578.37" font-size="1049.87" lengthAdjust="spacingAndGlyphs"
text-anchor="start" opacity="0">A6</text>
</g>
<path d="M22231 55740
L22231 55365
" />
<path d="M22456 55815
L21668 55553
L22456 55290
" />
<path d="M21668 54690
L21668 54840
L21706 54915
L21743 54953
L21856 55028
L22006 55065
L22306 55065
L22381 55028
L22418 54990
L22456 54915
L22456 54765
L22418 54690
L22381 54653
L22306 54615
L22118 54615
L22043 54653
L22006 54690
L21968 54765
L21968 54915
L22006 54990
L22043 55028
L22118 55065
" />
<g transform="rotate(-90 31942.7 55967.4)">
<text x="31942.7" y="56361.1"
textLength="1578.37" font-size="1049.87" lengthAdjust="spacingAndGlyphs"
text-anchor="start" opacity="0">A1</text>
</g>
<path d="M32073 55740
L32073 55365
" />
<path d="M32298 55815
L31511 55553
L32298 55290
" />
<path d="M32298 54615
L32298 55065
" />
<path d="M32298 54840
L31511 54840
L31623 54915
L31698 54990
L31736 55065
" />
<g transform="rotate(-90 19895.4 55867.1)">
<text x="19895.4" y="56260.8"
textLength="1578.37" font-size="1049.87" lengthAdjust="spacingAndGlyphs"
text-anchor="start" opacity="0">A7</text>
</g>
<path d="M20026 55640
L20026 55265
" />
<path d="M20251 55715
L19464 55452
L20251 55190
" />
<path d="M19464 55002
L19464 54477
L20251 54815
" />
<g transform="rotate(-90 29974.2 55967.4)">
<text x="29974.2" y="56361.1"
textLength="1503.37" font-size="1049.87" lengthAdjust="spacingAndGlyphs"
text-anchor="start" opacity="0">TX</text>
</g>
<path d="M29542 55815
L29542 55365
" />
<path d="M30330 55590
L29542 55590
" />
<path d="M29542 55178
L30330 54653
" />
<path d="M29542 54653
L30330 55178
" />
<g transform="rotate(-90 28005.7 55967.4)">
<text x="28005.7" y="56361.1"
textLength="1690.85" font-size="1049.87" lengthAdjust="spacingAndGlyphs"
text-anchor="start" opacity="0">RX</text>
</g>
<path d="M28361 55253
L27986 55515
" />
<path d="M28361 55703
L27574 55703
L27574 55403
L27611 55328
L27649 55290
L27724 55253
L27836 55253
L27911 55290
L27949 55328
L27986 55403
L27986 55703
" />
<path d="M27574 54990
L28361 54465
" />
<path d="M27574 54465
L28361 54990
" />
<g transform="rotate(-90 24068.7 55967.4)">
<text x="24068.7" y="56361.1"
textLength="1578.37" font-size="1049.87" lengthAdjust="spacingAndGlyphs"
text-anchor="start" opacity="0">A5</text>
</g>
<path d="M24199 55740
L24199 55365
" />
<path d="M24424 55815
L23637 55553
L24424 55290
" />
<path d="M23637 54653
L23637 55028
L24012 55065
L23974 55028
L23937 54953
L23937 54765
L23974 54690
L24012 54653
L24087 54615
L24274 54615
L24349 54653
L24387 54690
L24424 54765
L24424 54953
L24387 55028
L24349 55065
" />
<text x="13968.4" y="52323.8"
textLength="1578.37" font-size="1049.87" lengthAdjust="spacingAndGlyphs"
text-anchor="start" opacity="0">A8</text>
<path d="M14195 52061
L14570 52061
" />
<path d="M14120 52286
L14382 51498
L14645 52286
" />
<path d="M15020 51836
L14945 51798
L14907 51761
L14870 51686
L14870 51648
L14907 51573
L14945 51536
L15020 51498
L15170 51498
L15244 51536
L15282 51573
L15319 51648
L15319 51686
L15282 51761
L15244 51798
L15170 51836
L15020 51836
L14945 51873
L14907 51911
L14870 51986
L14870 52136
L14907 52211
L14945 52248
L15020 52286
L15170 52286
L15244 52248
L15282 52211
L15319 52136
L15319 51986
L15282 51911
L15244 51873
L15170 51836
" />
<text x="13968.4" y="50276.5"
textLength="1578.37" font-size="1049.87" lengthAdjust="spacingAndGlyphs"
text-anchor="start" opacity="0">A9</text>
<path d="M14195 50014
L14570 50014
" />
<path d="M14120 50239
L14382 49451
L14645 50239
" />
<path d="M14945 50239
L15095 50239
L15170 50201
L15207 50164
L15282 50051
L15319 49901
L15319 49601
L15282 49526
L15244 49489
L15170 49451
L15020 49451
L14945 49489
L14907 49526
L14870 49601
L14870 49789
L14907 49864
L14945 49901
L15020 49939
L15170 49939
L15244 49901
L15282 49864
L15319 49789
" />
<text x="13968.4" y="48544.3"
textLength="2328.27" font-size="1049.87" lengthAdjust="spacingAndGlyphs"
text-anchor="start" opacity="0">A10</text>
<path d="M14195 48281
L14570 48281
" />
<path d="M14120 48506
L14382 47719
L14645 48506
" />
<path d="M15319 48506
L14870 48506
" />
<path d="M15095 48506
L15095 47719
L15020 47831
L14945 47906
L14870 47944
" />
<path d="M15807 47719
L15882 47719
L15957 47756
L15994 47794
L16032 47869
L16069 48019
L16069 48206
L16032 48356
L15994 48431
L15957 48469
L15882 48506
L15807 48506
L15732 48469
L15694 48431
L15657 48356
L15619 48206
L15619 48019
L15657 47869
L15694 47794
L15732 47756
L15807 47719
" />
<text x="13968.4" y="46497"
textLength="2328.27" font-size="1049.87" lengthAdjust="spacingAndGlyphs"
text-anchor="start" opacity="0">A11</text>
<path d="M14195 46234
L14570 46234
" />
<path d="M14120 46459
L14382 45672
L14645 46459
" />
<path d="M15319 46459
L14870 46459
" />
<path d="M15095 46459
L15095 45672
L15020 45784
L14945 45859
L14870 45897
" />
<path d="M16069 46459
L15619 46459
" />
<path d="M15844 46459
L15844 45672
L15769 45784
L15694 45859
L15619 45897
" />
<text x="13968.4" y="44449.8"
textLength="2328.27" font-size="1049.87" lengthAdjust="spacingAndGlyphs"
text-anchor="start" opacity="0">A12</text>
<path d="M14195 44187
L14570 44187
" />
<path d="M14120 44412
L14382 43624
L14645 44412
" />
<path d="M15319 44412
L14870 44412
" />
<path d="M15095 44412
L15095 43624
L15020 43737
L14945 43812
L14870 43849
" />
<path d="M15619 43699
L15657 43662
L15732 43624
L15919 43624
L15994 43662
L16032 43699
L16069 43774
L16069 43849
L16032 43962
L15582 44412
L16069 44412
" />
<text x="13968.4" y="42560"
textLength="2328.27" font-size="1049.87" lengthAdjust="spacingAndGlyphs"
text-anchor="start" opacity="0">A13</text>
<path d="M14195 42297
L14570 42297
" />
<path d="M14120 42522
L14382 41735
L14645 42522
" />
<path d="M15319 42522
L14870 42522
" />
<path d="M15095 42522
L15095 41735
L15020 41847
L14945 41922
L14870 41960
" />
<path d="M15582 41735
L16069 41735
L15807 42035
L15919 42035
L15994 42072
L16032 42110
L16069 42185
L16069 42372
L16032 42447
L15994 42485
L15919 42522
L15694 42522
L15619 42485
L15582 42447
" />
<text x="13968.4" y="40512.8"
textLength="2328.27" font-size="1049.87" lengthAdjust="spacingAndGlyphs"
text-anchor="start" opacity="0">A14</text>
<path d="M14195 40250
L14570 40250
" />
<path d="M14120 40475
L14382 39687
L14645 40475
" />
<path d="M15319 40475
L14870 40475
" />
<path d="M15095 40475
L15095 39687
L15020 39800
L14945 39875
L14870 39912
" />
<path d="M15994 39950
L15994 40475
" />
<path d="M15807 39650
L15619 40212
L16107 40212
" />
<text x="13968.4" y="38623"
textLength="2328.27" font-size="1049.87" lengthAdjust="spacingAndGlyphs"
text-anchor="start" opacity="0">A15</text>
<path d="M14195 38360
L14570 38360
" />
<path d="M14120 38585
L14382 37798
L14645 38585
" />
<path d="M15319 38585
L14870 38585
" />
<path d="M15095 38585
L15095 37798
L15020 37910
L14945 37985
L14870 38023
" />
<path d="M16032 37798
L15657 37798
L15619 38173
L15657 38135
L15732 38098
L15919 38098
L15994 38135
L16032 38173
L16069 38248
L16069 38435
L16032 38510
L15994 38548
L15919 38585
L15732 38585
L15657 38548
L15619 38510
" />
<text x="13968.4" y="36418.3"
textLength="2440.76" font-size="1049.87" lengthAdjust="spacingAndGlyphs"
text-anchor="start" opacity="0">B15</text>
<path d="M14495 35968
L14607 36005
L14645 36043
L14682 36118
L14682 36230
L14645 36305
L14607 36343
L14532 36380
L14232 36380
L14232 35593
L14495 35593
L14570 35630
L14607 35668
L14645 35743
L14645 35818
L14607 35893
L14570 35930
L14495 35968
L14232 35968
" />
<path d="M15432 36380
L14982 36380
" />
<path d="M15207 36380
L15207 35593
L15132 35705
L15057 35780
L14982 35818
" />
<path d="M16144 35593
L15769 35593
L15732 35968
L15769 35930
L15844 35893
L16032 35893
L16107 35930
L16144 35968
L16182 36043
L16182 36230
L16144 36305
L16107 36343
L16032 36380
L15844 36380
L15769 36343
L15732 36305
" />
<text x="13968.4" y="34528.5"
textLength="2440.76" font-size="1049.87" lengthAdjust="spacingAndGlyphs"
text-anchor="start" opacity="0">B14</text>
<path d="M14495 34078
L14607 34116
L14645 34153
L14682 34228
L14682 34341
L14645 34416
L14607 34453
L14532 34491
L14232 34491
L14232 33703
L14495 33703
L14570 33741
L14607 33778
L14645 33853
L14645 33928
L14607 34003
L14570 34041
L14495 34078
L14232 34078
" />
<path d="M15432 34491
L14982 34491
" />
<path d="M15207 34491
L15207 33703
L15132 33816
L15057 33891
L14982 33928
" />
<path d="M16107 33966
L16107 34491
" />
<path d="M15919 33666
L15732 34228
L16219 34228
" />
<text x="13968.4" y="32638.7"
textLength="2440.76" font-size="1049.87" lengthAdjust="spacingAndGlyphs"
text-anchor="start" opacity="0">B13</text>
<path d="M14495 32188
L14607 32226
L14645 32263
L14682 32338
L14682 32451
L14645 32526
L14607 32563
L14532 32601
L14232 32601
L14232 31813
L14495 31813
L14570 31851
L14607 31888
L14645 31963
L14645 32038
L14607 32113
L14570 32151
L14495 32188
L14232 32188
" />
<path d="M15432 32601
L14982 32601
" />
<path d="M15207 32601
L15207 31813
L15132 31926
L15057 32001
L14982 32038
" />
<path d="M15694 31813
L16182 31813
L15919 32113
L16032 32113
L16107 32151
L16144 32188
L16182 32263
L16182 32451
L16144 32526
L16107 32563
L16032 32601
L15807 32601
L15732 32563
L15694 32526
" />
<text x="15171" y="30591.5"
textLength="2440.76" font-size="1049.87" lengthAdjust="spacingAndGlyphs"
text-anchor="middle" opacity="0">B12</text>
<path d="M14477 30141
L14589 30179
L14627 30216
L14664 30291
L14664 30404
L14627 30479
L14589 30516
L14514 30554
L14214 30554
L14214 29766
L14477 29766
L14552 29804
L14589 29841
L14627 29916
L14627 29991
L14589 30066
L14552 30104
L14477 30141
L14214 30141
" />
<path d="M15414 30554
L14964 30554
" />
<path d="M15189 30554
L15189 29766
L15114 29879
L15039 29954
L14964 29991
" />
<path d="M15714 29841
L15752 29804
L15827 29766
L16014 29766
L16089 29804
L16127 29841
L16164 29916
L16164 29991
L16127 30104
L15677 30554
L16164 30554
" />
</g>
<g style="fill:#000000; fill-opacity:0.0; 
stroke:#000000; stroke-width:94.4882; stroke-opacity:1; 
stroke-linecap:round; stroke-linejoin:round;">
<text x="54029.3" y="57284.4"
textLength="14551.7" font-size="1049.87" lengthAdjust="spacingAndGlyphs"
text-anchor="middle" opacity="0">ASSoC Evaluation Board</text>
<path d="M46980 57021
L47355 57021
" />
<path d="M46905 57246
L47167 56459
L47430 57246
" />
<path d="M47655 57209
L47767 57246
L47955 57246
L48030 57209
L48067 57171
L48105 57096
L48105 57021
L48067 56946
L48030 56909
L47955 56871
L47805 56834
L47730 56796
L47692 56759
L47655 56684
L47655 56609
L47692 56534
L47730 56497
L47805 56459
L47992 56459
L48105 56497
" />
<path d="M48405 57209
L48517 57246
L48704 57246
L48779 57209
L48817 57171
L48854 57096
L48854 57021
L48817 56946
L48779 56909
L48704 56871
L48554 56834
L48479 56796
L48442 56759
L48405 56684
L48405 56609
L48442 56534
L48479 56497
L48554 56459
L48742 56459
L48854 56497
" />
<path d="M49304 57246
L49229 57209
L49192 57171
L49154 57096
L49154 56871
L49192 56796
L49229 56759
L49304 56721
L49417 56721
L49492 56759
L49529 56796
L49567 56871
L49567 57096
L49529 57171
L49492 57209
L49417 57246
L49304 57246
" />
<path d="M50354 57171
L50317 57209
L50204 57246
L50129 57246
L50017 57209
L49942 57134
L49904 57059
L49867 56909
L49867 56796
L49904 56646
L49942 56572
L50017 56497
L50129 56459
L50204 56459
L50317 56497
L50354 56534
" />
<path d="M51292 56834
L51554 56834
" />
<path d="M51667 57246
L51292 57246
L51292 56459
L51667 56459
" />
<path d="M51929 56721
L52117 57246
L52304 56721
" />
<path d="M52941 57246
L52941 56834
L52904 56759
L52829 56721
L52679 56721
L52604 56759
" />
<path d="M52941 57209
L52866 57246
L52679 57246
L52604 57209
L52566 57134
L52566 57059
L52604 56984
L52679 56946
L52866 56946
L52941 56909
" />
<path d="M53429 57246
L53354 57209
L53316 57134
L53316 56459
" />
<path d="M54066 56721
L54066 57246
" />
<path d="M53729 56721
L53729 57134
L53766 57209
L53841 57246
L53954 57246
L54029 57209
L54066 57171
" />
<path d="M54779 57246
L54779 56834
L54741 56759
L54666 56721
L54516 56721
L54441 56759
" />
<path d="M54779 57209
L54704 57246
L54516 57246
L54441 57209
L54404 57134
L54404 57059
L54441 56984
L54516 56946
L54704 56946
L54779 56909
" />
<path d="M55041 56721
L55341 56721
" />
<path d="M55154 56459
L55154 57134
L55191 57209
L55266 57246
L55341 57246
" />
<path d="M55604 57246
L55604 56721
" />
<path d="M55604 56459
L55566 56497
L55604 56534
L55641 56497
L55604 56459
L55604 56534
" />
<path d="M56091 57246
L56016 57209
L55979 57171
L55941 57096
L55941 56871
L55979 56796
L56016 56759
L56091 56721
L56204 56721
L56279 56759
L56316 56796
L56354 56871
L56354 57096
L56316 57171
L56279 57209
L56204 57246
L56091 57246
" />
<path d="M56691 56721
L56691 57246
" />
<path d="M56691 56796
L56728 56759
L56803 56721
L56916 56721
L56991 56759
L57028 56834
L57028 57246
" />
<path d="M58266 56834
L58378 56871
L58416 56909
L58453 56984
L58453 57096
L58416 57171
L58378 57209
L58303 57246
L58003 57246
L58003 56459
L58266 56459
L58341 56497
L58378 56534
L58416 56609
L58416 56684
L58378 56759
L58341 56796
L58266 56834
L58003 56834
" />
<path d="M58903 57246
L58828 57209
L58791 57171
L58753 57096
L58753 56871
L58791 56796
L58828 56759
L58903 56721
L59016 56721
L59091 56759
L59128 56796
L59166 56871
L59166 57096
L59128 57171
L59091 57209
L59016 57246
L58903 57246
" />
<path d="M59841 57246
L59841 56834
L59803 56759
L59728 56721
L59578 56721
L59503 56759
" />
<path d="M59841 57209
L59766 57246
L59578 57246
L59503 57209
L59466 57134
L59466 57059
L59503 56984
L59578 56946
L59766 56946
L59841 56909
" />
<path d="M60216 57246
L60216 56721
" />
<path d="M60216 56871
L60253 56796
L60291 56759
L60366 56721
L60441 56721
" />
<path d="M61040 57246
L61040 56459
" />
<path d="M61040 57209
L60965 57246
L60815 57246
L60740 57209
L60703 57171
L60665 57096
L60665 56871
L60703 56796
L60740 56759
L60815 56721
L60965 56721
L61040 56759
" />
</g>
<g style="fill:#000000; fill-opacity:0.0; 
stroke:#000000; stroke-width:78.7402; stroke-opacity:1; 
stroke-linecap:round; stroke-linejoin:round;">
<path d="M10289.1 57126.9 A2362.2 2362.2 0.0 0 0 12651.4 59489.1" />
<path d="M12651.4 22875 A2362.2 2362.2 0.0 0 0 10289.1 25237.2" />
<path d="M66982.1 25237.2 A2362.2 2362.2 0.0 0 0 64619.9 22875" />
<path d="M64619.9 59489.1 A2362.21 2362.21 0.0 0 0 66982.1 57126.9" />
<path d="M12651 59489
L64619 59489
" />
<path d="M10289 25237
L10289 57126
" />
<path d="M64619 22874
L12651 22874
" />
<path d="M66982 57126
L66982 25237
" />
</g>
<g style="fill:#000000; fill-opacity:0.0; 
stroke:#000000; stroke-width:94.4882; stroke-opacity:1; 
stroke-linecap:round; stroke-linejoin:round;">
<path d="M42316 40197
L42316 29469
" />
<path d="M42316 29469
L41529 28682
" />
<path d="M41529 28682
L17710 28682
" />
<path d="M17710 28682
L17710 53288
" />
<path d="M17710 53288
L42316 53288
" />
<path d="M42316 53288
L42316 41772
" />
<path d="M37391 58174
L37391 56079
" />
<path d="M37391 58174
L45438 58174
" />
<path d="M45438 58174
L45438 56079
" />
<path d="M37391 56079
L45438 56079
" />
<path d="M35344 56079
L36391 56079
" />
<path d="M35344 57126
L35344 56079
" />
<path d="M57635 25237
L57635 26284
" />
<path d="M57635 26284
L56588 26284
" />
<path d="M55588 26284
L45541 26284
" />
<path d="M45541 24189
L45541 26284
" />
<path d="M55588 24189
L45541 24189
" />
<path d="M55588 24189
L55588 26284
" />
<path d="M12651 29111
L13698 29111
" />
<path d="M13698 29111
L13698 30158
" />
<path d="M13698 31158
L13698 53205
" />
<path d="M11604 53205
L13698 53205
" />
<path d="M11604 31158
L11604 53205
" />
<path d="M11604 31158
L13698 31158
" />
<path d="M18887 25237
L18887 24189
" />
<path d="M18887 24189
L19934 24189
" />
<path d="M20934 24189
L42982 24189
" />
<path d="M42982 26284
L42982 24189
" />
<path d="M20934 26284
L42982 26284
" />
<path d="M20934 26284
L20934 24189
" />
<path d="M18887 57126
L18887 56079
" />
<path d="M18887 56079
L19934 56079
" />
<path d="M20934 56079
L34982 56079
" />
<path d="M34982 58174
L34982 56079
" />
<path d="M20934 58174
L34982 58174
" />
<path d="M20934 58174
L20934 56079
" />
<path d="M50171 52284
L52375 52284
" />
<path d="M52887 52835
L52887 53308
" />
<path d="M52375 53859
L50171 53859
" />
<path d="M49659 53308
L49659 52835
" />
<path d="M50328 54016
L50092 54252
" />
<path d="M50092 54252
L50564 54252
" />
<path d="M50328 54016
L50564 54252
" />
<path d="M50210.4 52284.4 A551.181 551.181 0.0 0 0 49659.2 52835.6" />
<path d="M49659.2 53308 A551.181 551.181 0.0 0 0 50210.4 53859.2" />
<path d="M52336.4 53859.2 A551.181 551.181 0.0 0 0 52887.6 53308" />
<path d="M52887.6 52835.6 A551.181 551.181 0.0 0 0 52336.4 52284.4" />
<path d="M45367 52284
L47572 52284
" />
<path d="M48084 52835
L48084 53308
" />
<path d="M47572 53859
L45367 53859
" />
<path d="M44856 53308
L44856 52835
" />
<path d="M45525 54016
L45289 54252
" />
<path d="M45289 54252
L45761 54252
" />
<path d="M45525 54016
L45761 54252
" />
<path d="M45407.3 52284.4 A551.181 551.181 0.0 0 0 44856.1 52835.6" />
<path d="M44856.1 53308 A551.181 551.181 0.0 0 0 45407.3 53859.2" />
<path d="M47533.2 53859.2 A551.181 551.181 0.0 0 0 48084.4 53308" />
<path d="M48084.4 52835.6 A551.181 551.181 0.0 0 0 47533.2 52284.4" />
<path d="M58923 40530
L58923 40888
" />
<path d="M60080 40530
L60080 40888
" />
<path d="M52482 40888
L52482 40530
" />
<path d="M51324 40888
L51324 40530
" />
<path d="M60080 31751
L60080 32108
" />
<path d="M58923 31751
L58923 32108
" />
<path d="M51324 32108
L51324 31751
" />
<path d="M52482 32108
L52482 31751
" />
<path d="M53863 39465
L55013 39465
" />
<path d="M53863 41953
L55564 41953
" />
<path d="M53863 41953
L53863 41221
" />
<path d="M53863 39465
L53863 40197
" />
<path d="M53863 30685
L53863 31418
" />
<path d="M53863 33174
L53863 32441
" />
<path d="M53863 33174
L55564 33174
" />
<path d="M53863 30685
L55013 30685
" />
<path d="M64769 35213
L64769 43308
" />
<path d="M64769 43308
L66863 43308
" />
<path d="M66863 43308
L66863 35213
" />
<path d="M66863 35213
L64769 35213
" />
<path d="M66863 35961
L71588 35961
" />
<path d="M71588 35961
L71588 36560
" />
<path d="M71588 36560
L66863 36560
" />
<path d="M66863 36008
L71588 36008
" />
<path d="M66863 36103
L71588 36103
" />
<path d="M66863 36197
L71588 36197
" />
<path d="M66863 36292
L71588 36292
" />
<path d="M66863 36386
L71588 36386
" />
<path d="M66863 36481
L71588 36481
" />
<path d="M64509 35961
L64769 35961
" />
<path d="M64509 36560
L64769 36560
" />
<path d="M64769 37260
L66863 37260
" />
<path d="M66863 37961
L71588 37961
" />
<path d="M71588 37961
L71588 38560
" />
<path d="M71588 38560
L66863 38560
" />
<path d="M64456 37961
L64769 37961
" />
<path d="M64456 38560
L64769 38560
" />
<path d="M64769 39260
L66863 39260
" />
<path d="M66863 39961
L71588 39961
" />
<path d="M71588 39961
L71588 40560
" />
<path d="M71588 40560
L66863 40560
" />
<path d="M64456 39961
L64769 39961
" />
<path d="M64456 40560
L64769 40560
" />
<path d="M64769 41260
L66863 41260
" />
<path d="M66863 41961
L71588 41961
" />
<path d="M71588 41961
L71588 42560
" />
<path d="M71588 42560
L66863 42560
" />
<path d="M64456 41961
L64769 41961
" />
<path d="M64456 42560
L64769 42560
" />
<path d="M62635 36260
L62635 35260
" />
<path d="M62635 35260
L63635 35260
" />
<path d="M56541 39262
L56541 41514
" />
<path d="M58052 39262
L56541 39262
" />
<path d="M58052 41514
L58052 39262
" />
<path d="M58052 32735
L58052 30483
" />
<path d="M58052 30483
L56541 30483
" />
<path d="M56541 30483
L56541 32735
" />
<path d="M55622 49382
L55979 49382
" />
<path d="M55622 50540
L55979 50540
" />
<path d="M55979 48374
L55622 48374
" />
<path d="M55979 47217
L55622 47217
" />
<path d="M48946 47275
L48946 47686
" />
<path d="M47789 47275
L47789 47686
" />
<path d="M47789 44537
L47789 44125
" />
<path d="M48946 44537
L48946 44125
" />
<path d="M56006 52705
L55595 52705
" />
<path d="M56006 51548
L55595 51548
" />
<path d="M43041 48276
L43041 43237
" />
<path d="M47017 48276
L47017 43237
" />
<path d="M47017.5 43237.2 A1988.19 1988.19 0.0 0 0 43041.1 43237.2" />
<path d="M43041.1 48276.5 A1988.19 1988.19 0.0 0 0 47017.5 48276.5" />
<path d="M63674 48583
L60131 48583
" />
<path d="M64659 51733
L64659 50552
" />
<path d="M60131 53701
L63674 53701
" />
<path d="M59147 50552
L59147 51733
" />
<g >
</g>
<g >
</g>
<g >
</g>
<g >
</g>
<g >
</g>
<g >
</g>
<g >
</g>
<g >
</g>
<g >
</g>
<g >
</g>
<g >
</g>
<g >
</g>
<g >
</g>
<g >
</g>
<g >
</g>
<g >
</g>
<g >
</g>
<g >
</g>
<g >
</g>
<g >
</g>
<g >
</g>
<g >
</g>
<g >
</g>
<g >
</g>
<g >
</g>
<g >
</g>
<g >
</g>
<g >
</g>
<g >
</g>
<g >
</g>
<g >
</g>
<g >
</g>
<g >
</g>
<g >
</g>
<g >
</g>
<g >
</g>
<g >
</g>
<g >
</g>
<g >
</g>
<g >
</g>
<g >
</g>
<g >
</g>
<g >
</g>
<g >
</g>
<g >
</g>
<g >
</g>
<g >
</g>
<g >
</g>
</g>
<g style="fill:#000000; fill-opacity:0.0; 
stroke:#000000; stroke-width:94.4882; stroke-opacity:1; 
stroke-linecap:round; stroke-linejoin:round;">
</g>
<g style="fill:#000000; fill-opacity:0.0; 
stroke:#000000; stroke-width:118.11; stroke-opacity:1; 
stroke-linecap:round; stroke-linejoin:round;">
<g transform="rotate(-90 43202.5 28990.4)">
<text x="43202.5" y="29384.2"
textLength="1697.64" font-size="1049.87" lengthAdjust="spacingAndGlyphs"
text-anchor="middle" opacity="0">U1</text>
</g>
<path d="M42771 29590
L43408 29590
L43483 29552
L43521 29515
L43558 29440
L43558 29290
L43521 29215
L43483 29177
L43408 29140
L42771 29140
" />
<path d="M43558 28353
L43558 28802
" />
<path d="M43558 28578
L42771 28578
L42883 28652
L42958 28727
L42996 28802
" />
<g transform="rotate(-90 44777.3 30040.3)">
<text x="44777.3" y="30434"
textLength="3828.08" font-size="1049.87" lengthAdjust="spacingAndGlyphs"
text-anchor="middle" opacity="0">ASSoC</text>
</g>
<path d="M44908 31727
L44908 31352
" />
<path d="M45133 31802
L44346 31540
L45133 31277
" />
<path d="M45096 31052
L45133 30940
L45133 30752
L45096 30677
L45058 30640
L44983 30602
L44908 30602
L44833 30640
L44796 30677
L44758 30752
L44721 30902
L44683 30977
L44646 31015
L44571 31052
L44496 31052
L44421 31015
L44383 30977
L44346 30902
L44346 30715
L44383 30602
" />
<path d="M45096 30302
L45133 30190
L45133 30002
L45096 29927
L45058 29890
L44983 29852
L44908 29852
L44833 29890
L44796 29927
L44758 30002
L44721 30152
L44683 30227
L44646 30265
L44571 30302
L44496 30302
L44421 30265
L44383 30227
L44346 30152
L44346 29965
L44383 29852
" />
<path d="M45133 29402
L45096 29477
L45058 29515
L44983 29552
L44758 29552
L44683 29515
L44646 29477
L44608 29402
L44608 29290
L44646 29215
L44683 29177
L44758 29140
L44983 29140
L45058 29177
L45096 29215
L45133 29290
L45133 29402
" />
<path d="M45058 28353
L45096 28390
L45133 28503
L45133 28578
L45096 28690
L45021 28765
L44946 28802
L44796 28840
L44683 28840
L44533 28802
L44458 28765
L44383 28690
L44346 28578
L44346 28503
L44383 28390
L44421 28353
" />
</g>
<g style="fill:#000000; fill-opacity:0.0; 
stroke:#000000; stroke-width:94.4882; stroke-opacity:1; 
stroke-linecap:round; stroke-linejoin:round;">
<text x="56667.1" y="56103.3"
textLength="9339.9" font-size="1049.87" lengthAdjust="spacingAndGlyphs"
text-anchor="middle" opacity="0">GAPH - PUCRS</text>
<path d="M52673 55315
L52598 55278
L52486 55278
L52373 55315
L52298 55390
L52261 55465
L52223 55615
L52223 55728
L52261 55878
L52298 55953
L52373 56028
L52486 56065
L52561 56065
L52673 56028
L52711 55990
L52711 55728
L52561 55728
" />
<path d="M53011 55840
L53386 55840
" />
<path d="M52936 56065
L53198 55278
L53461 56065
" />
<path d="M53723 56065
L53723 55278
L54023 55278
L54098 55315
L54136 55353
L54173 55428
L54173 55540
L54136 55615
L54098 55653
L54023 55690
L53723 55690
" />
<path d="M54511 56065
L54511 55278
" />
<path d="M54511 55653
L54961 55653
" />
<path d="M54961 56065
L54961 55278
" />
<path d="M55935 55765
L56535 55765
" />
<path d="M57510 56065
L57510 55278
L57810 55278
L57885 55315
L57923 55353
L57960 55428
L57960 55540
L57923 55615
L57885 55653
L57810 55690
L57510 55690
" />
<path d="M58298 55278
L58298 55915
L58335 55990
L58373 56028
L58448 56065
L58598 56065
L58673 56028
L58710 55990
L58748 55915
L58748 55278
" />
<path d="M59572 55990
L59535 56028
L59423 56065
L59348 56065
L59235 56028
L59160 55953
L59123 55878
L59085 55728
L59085 55615
L59123 55465
L59160 55390
L59235 55315
L59348 55278
L59423 55278
L59535 55315
L59572 55353
" />
<path d="M60360 56065
L60097 55690
" />
<path d="M59910 56065
L59910 55278
L60210 55278
L60285 55315
L60322 55353
L60360 55428
L60360 55540
L60322 55615
L60285 55653
L60210 55690
L59910 55690
" />
<path d="M60660 56028
L60772 56065
L60960 56065
L61035 56028
L61072 55990
L61110 55915
L61110 55840
L61072 55765
L61035 55728
L60960 55690
L60810 55653
L60735 55615
L60697 55578
L60660 55503
L60660 55428
L60697 55353
L60735 55315
L60810 55278
L60997 55278
L61110 55315
" />
</g>
<g style="fill:#000000; fill-opacity:0.0; 
stroke:#000000; stroke-width:118.11; stroke-opacity:1; 
stroke-linecap:round; stroke-linejoin:round;">
<text x="44344.3" y="55788.4"
textLength="1472.67" font-size="1049.87" lengthAdjust="spacingAndGlyphs"
text-anchor="middle" opacity="0">J7</text>
<path d="M44081 54963
L44081 55525
L44044 55638
L43969 55713
L43856 55750
L43781 55750
" />
<path d="M44381 54963
L44906 54963
L44569 55750
" />
<text x="58793.1" y="25630.9"
textLength="1503.37" font-size="1049.87" lengthAdjust="spacingAndGlyphs"
text-anchor="middle" opacity="0">J5</text>
<path d="M58530 24805
L58530 25368
L58493 25480
L58418 25555
L58305 25593
L58230 25593
" />
<path d="M59280 24805
L58905 24805
L58868 25180
L58905 25143
L58980 25105
L59168 25105
L59243 25143
L59280 25180
L59318 25255
L59318 25443
L59280 25518
L59243 25555
L59168 25593
L58980 25593
L58905 25555
L58868 25518
" />
<text x="12651.4" y="28701.7"
textLength="1503.37" font-size="1049.87" lengthAdjust="spacingAndGlyphs"
text-anchor="middle" opacity="0">J3</text>
<path d="M12388 27876
L12388 28439
L12351 28551
L12276 28626
L12163 28664
L12088 28664
" />
<path d="M12688 27876
L13176 27876
L12913 28176
L13026 28176
L13101 28214
L13138 28251
L13176 28326
L13176 28514
L13138 28589
L13101 28626
L13026 28664
L12801 28664
L12726 28626
L12688 28589
" />
<text x="17533.2" y="25552.1"
textLength="1503.37" font-size="1049.87" lengthAdjust="spacingAndGlyphs"
text-anchor="middle" opacity="0">J1</text>
<path d="M17270 24727
L17270 25289
L17233 25402
L17158 25477
L17045 25514
L16970 25514
" />
<path d="M18058 25514
L17608 25514
" />
<path d="M17833 25514
L17833 24727
L17758 24839
L17683 24914
L17608 24952
" />
<text x="17690.7" y="57520.6"
textLength="1503.37" font-size="1049.87" lengthAdjust="spacingAndGlyphs"
text-anchor="middle" opacity="0">J4</text>
<path d="M17428 56695
L17428 57258
L17390 57370
L17315 57445
L17203 57483
L17128 57483
" />
<path d="M18140 56958
L18140 57483
" />
<path d="M17953 56658
L17765 57220
L18253 57220
" />
<text x="51273.4" y="52008.8"
textLength="2590.74" font-size="1049.87" lengthAdjust="spacingAndGlyphs"
text-anchor="middle" opacity="0">T.SE</text>
<path d="M50129 51183
L50579 51183
" />
<path d="M50354 51971
L50354 51183
" />
<path d="M50842 51896
L50879 51933
L50842 51971
L50804 51933
L50842 51896
L50842 51971
" />
<path d="M51179 51933
L51292 51971
L51479 51971
L51554 51933
L51592 51896
L51629 51821
L51629 51746
L51592 51671
L51554 51633
L51479 51596
L51329 51558
L51254 51521
L51217 51483
L51179 51408
L51179 51333
L51217 51258
L51254 51221
L51329 51183
L51517 51183
L51629 51221
" />
<path d="M51967 51558
L52229 51558
" />
<path d="M52342 51971
L51967 51971
L51967 51183
L52342 51183
" />
<text x="46352.1" y="52008.8"
textLength="2628.23" font-size="1049.87" lengthAdjust="spacingAndGlyphs"
text-anchor="middle" opacity="0">T.TM</text>
<path d="M45189 51183
L45639 51183
" />
<path d="M45414 51971
L45414 51183
" />
<path d="M45902 51896
L45939 51933
L45902 51971
L45864 51933
L45902 51896
L45902 51971
" />
<path d="M46164 51183
L46614 51183
" />
<path d="M46389 51971
L46389 51183
" />
<path d="M46877 51971
L46877 51183
L47139 51746
L47402 51183
L47402 51971
" />
<text x="60289.1" y="43741.1"
textLength="1690.85" font-size="1049.87" lengthAdjust="spacingAndGlyphs"
text-anchor="middle" opacity="0">R2</text>
<path d="M60157 43703
L59895 43328
" />
<path d="M59707 43703
L59707 42916
L60007 42916
L60082 42953
L60120 42991
L60157 43066
L60157 43178
L60120 43253
L60082 43291
L60007 43328
L59707 43328
" />
<path d="M60457 42991
L60495 42953
L60570 42916
L60757 42916
L60832 42953
L60870 42991
L60907 43066
L60907 43141
L60870 43253
L60420 43703
L60907 43703
" />
<text x="51903.3" y="39016.7"
textLength="1690.85" font-size="1049.87" lengthAdjust="spacingAndGlyphs"
text-anchor="middle" opacity="0">R6</text>
<path d="M51772 38979
L51509 38604
" />
<path d="M51322 38979
L51322 38191
L51622 38191
L51697 38229
L51734 38266
L51772 38341
L51772 38454
L51734 38529
L51697 38566
L51622 38604
L51322 38604
" />
<path d="M52447 38191
L52297 38191
L52222 38229
L52184 38266
L52109 38379
L52072 38529
L52072 38829
L52109 38904
L52147 38941
L52222 38979
L52372 38979
L52447 38941
L52484 38904
L52521 38829
L52521 38641
L52484 38566
L52447 38529
L52372 38491
L52222 38491
L52147 38529
L52109 38566
L52072 38641
" />
<text x="60486" y="34528.5"
textLength="1690.85" font-size="1049.87" lengthAdjust="spacingAndGlyphs"
text-anchor="middle" opacity="0">R1</text>
<path d="M60354 34491
L60092 34116
" />
<path d="M59904 34491
L59904 33703
L60204 33703
L60279 33741
L60317 33778
L60354 33853
L60354 33966
L60317 34041
L60279 34078
L60204 34116
L59904 34116
" />
<path d="M61104 34491
L60654 34491
" />
<path d="M60879 34491
L60879 33703
L60804 33816
L60729 33891
L60654 33928
" />
<text x="51942.7" y="30315.9"
textLength="1690.85" font-size="1049.87" lengthAdjust="spacingAndGlyphs"
text-anchor="middle" opacity="0">R5</text>
<path d="M51811 30278
L51548 29903
" />
<path d="M51361 30278
L51361 29491
L51661 29491
L51736 29528
L51773 29566
L51811 29640
L51811 29753
L51773 29828
L51736 29865
L51661 29903
L51361 29903
" />
<path d="M52523 29491
L52148 29491
L52111 29865
L52148 29828
L52223 29790
L52411 29790
L52486 29828
L52523 29865
L52561 29940
L52561 30128
L52523 30203
L52486 30240
L52411 30278
L52223 30278
L52148 30240
L52111 30203
" />
<text x="53084.4" y="42993.1"
textLength="1728.35" font-size="1049.87" lengthAdjust="spacingAndGlyphs"
text-anchor="middle" opacity="0">Q2</text>
<path d="M53009 43030
L52934 42993
L52859 42918
L52746 42805
L52671 42768
L52596 42768
" />
<path d="M52634 42955
L52559 42918
L52484 42843
L52447 42693
L52447 42430
L52484 42280
L52559 42205
L52634 42168
L52784 42168
L52859 42205
L52934 42280
L52971 42430
L52971 42693
L52934 42843
L52859 42918
L52784 42955
L52634 42955
" />
<path d="M53271 42243
L53309 42205
L53384 42168
L53571 42168
L53646 42205
L53684 42243
L53721 42318
L53721 42393
L53684 42505
L53234 42955
L53721 42955
" />
<text x="53123.8" y="34213.5"
textLength="1728.35" font-size="1049.87" lengthAdjust="spacingAndGlyphs"
text-anchor="middle" opacity="0">Q1</text>
<path d="M53048 34251
L52973 34213
L52898 34138
L52786 34026
L52711 33988
L52636 33988
" />
<path d="M52673 34176
L52598 34138
L52523 34063
L52486 33913
L52486 33651
L52523 33501
L52598 33426
L52673 33388
L52823 33388
L52898 33426
L52973 33501
L53011 33651
L53011 33913
L52973 34063
L52898 34138
L52823 34176
L52673 34176
" />
<path d="M53761 34176
L53311 34176
" />
<path d="M53536 34176
L53536 33388
L53461 33501
L53386 33576
L53311 33613
" />
<g transform="rotate(-90 64619.9 31300.2)">
<text x="64619.9" y="31693.9"
textLength="6377.77" font-size="1049.87" lengthAdjust="spacingAndGlyphs"
text-anchor="middle" opacity="0">USB-UART</text>
</g>
<path d="M64188 34224
L64826 34224
L64901 34187
L64938 34149
L64976 34074
L64976 33924
L64938 33849
L64901 33812
L64826 33774
L64188 33774
" />
<path d="M64938 33437
L64976 33324
L64976 33137
L64938 33062
L64901 33024
L64826 32987
L64751 32987
L64676 33024
L64638 33062
L64601 33137
L64563 33287
L64526 33362
L64488 33399
L64413 33437
L64338 33437
L64263 33399
L64226 33362
L64188 33287
L64188 33099
L64226 32987
" />
<path d="M64563 32387
L64601 32275
L64638 32237
L64713 32200
L64826 32200
L64901 32237
L64938 32275
L64976 32350
L64976 32649
L64188 32649
L64188 32387
L64226 32312
L64263 32275
L64338 32237
L64413 32237
L64488 32275
L64526 32312
L64563 32387
L64563 32649
" />
<path d="M64676 31862
L64676 31262
" />
<path d="M64188 30887
L64826 30887
L64901 30850
L64938 30812
L64976 30737
L64976 30587
L64938 30512
L64901 30475
L64826 30437
L64188 30437
" />
<path d="M64751 30100
L64751 29725
" />
<path d="M64976 30175
L64188 29912
L64976 29650
" />
<path d="M64976 28937
L64601 29200
" />
<path d="M64976 29387
L64188 29387
L64188 29087
L64226 29012
L64263 28975
L64338 28937
L64451 28937
L64526 28975
L64563 29012
L64601 29087
L64601 29387
" />
<path d="M64188 28712
L64188 28263
" />
<path d="M64976 28488
L64188 28488
" />
<text x="56745.8" y="43504.9"
textLength="1690.85" font-size="1049.87" lengthAdjust="spacingAndGlyphs"
text-anchor="middle" opacity="0">D1</text>
<path d="M56164 43467
L56164 42679
L56352 42679
L56464 42717
L56539 42792
L56577 42867
L56614 43017
L56614 43129
L56577 43279
L56539 43354
L56464 43429
L56352 43467
L56164 43467
" />
<path d="M57364 43467
L56914 43467
" />
<path d="M57139 43467
L57139 42679
L57064 42792
L56989 42867
L56914 42904
" />
<text x="57257.7" y="38662.4"
textLength="4465.5" font-size="1049.87" lengthAdjust="spacingAndGlyphs"
text-anchor="middle" opacity="0">1V8_On</text>
<path d="M55701 38624
L55251 38624
" />
<path d="M55476 38624
L55476 37837
L55401 37949
L55326 38024
L55251 38062
" />
<path d="M55926 37837
L56189 38624
L56451 37837
" />
<path d="M56826 38174
L56751 38137
L56713 38099
L56676 38024
L56676 37987
L56713 37912
L56751 37874
L56826 37837
L56976 37837
L57051 37874
L57088 37912
L57126 37987
L57126 38024
L57088 38099
L57051 38137
L56976 38174
L56826 38174
L56751 38212
L56713 38249
L56676 38324
L56676 38474
L56713 38549
L56751 38587
L56826 38624
L56976 38624
L57051 38587
L57088 38549
L57126 38474
L57126 38324
L57088 38249
L57051 38212
L56976 38174
" />
<path d="M57276 38699
L57876 38699
" />
<path d="M58213 37837
L58363 37837
L58438 37874
L58513 37949
L58551 38099
L58551 38362
L58513 38512
L58438 38587
L58363 38624
L58213 38624
L58138 38587
L58063 38512
L58026 38362
L58026 38099
L58063 37949
L58138 37874
L58213 37837
" />
<path d="M58888 38099
L58888 38624
" />
<path d="M58888 38174
L58926 38137
L59001 38099
L59113 38099
L59188 38137
L59226 38212
L59226 38624
" />
<text x="56588.4" y="34528.5"
textLength="1690.85" font-size="1049.87" lengthAdjust="spacingAndGlyphs"
text-anchor="middle" opacity="0">D2</text>
<path d="M56007 34491
L56007 33703
L56194 33703
L56307 33741
L56382 33816
L56419 33891
L56457 34041
L56457 34153
L56419 34303
L56382 34378
L56307 34453
L56194 34491
L56007 34491
" />
<path d="M56757 33778
L56794 33741
L56869 33703
L57057 33703
L57132 33741
L57169 33778
L57207 33853
L57207 33928
L57169 34041
L56719 34491
L57207 34491
" />
<text x="57178.9" y="30079.7"
textLength="4465.5" font-size="1049.87" lengthAdjust="spacingAndGlyphs"
text-anchor="middle" opacity="0">3V3_On</text>
<path d="M55135 29254
L55622 29254
L55360 29554
L55472 29554
L55547 29592
L55585 29629
L55622 29704
L55622 29892
L55585 29967
L55547 30004
L55472 30042
L55247 30042
L55172 30004
L55135 29967
" />
<path d="M55847 29254
L56110 30042
L56372 29254
" />
<path d="M56560 29254
L57047 29254
L56785 29554
L56897 29554
L56972 29592
L57010 29629
L57047 29704
L57047 29892
L57010 29967
L56972 30004
L56897 30042
L56672 30042
L56597 30004
L56560 29967
" />
<path d="M57197 30117
L57797 30117
" />
<path d="M58135 29254
L58285 29254
L58360 29292
L58435 29367
L58472 29517
L58472 29779
L58435 29929
L58360 30004
L58285 30042
L58135 30042
L58060 30004
L57985 29929
L57947 29779
L57947 29517
L57985 29367
L58060 29292
L58135 29254
" />
<path d="M58809 29517
L58809 30042
" />
<path d="M58809 29592
L58847 29554
L58922 29517
L59034 29517
L59109 29554
L59147 29629
L59147 30042
" />
<text x="53281.3" y="50355.3"
textLength="1690.85" font-size="1049.87" lengthAdjust="spacingAndGlyphs"
text-anchor="middle" opacity="0">R4</text>
<path d="M53150 50317
L52887 49942
" />
<path d="M52700 50317
L52700 49530
L53000 49530
L53075 49567
L53112 49605
L53150 49680
L53150 49792
L53112 49867
L53075 49905
L53000 49942
L52700 49942
" />
<path d="M53824 49792
L53824 50317
" />
<path d="M53637 49492
L53450 50055
L53937 50055
" />
<text x="53399.4" y="48189.9"
textLength="1690.85" font-size="1049.87" lengthAdjust="spacingAndGlyphs"
text-anchor="middle" opacity="0">R3</text>
<path d="M53268 48152
L53005 47777
" />
<path d="M52818 48152
L52818 47365
L53118 47365
L53193 47402
L53230 47440
L53268 47515
L53268 47627
L53230 47702
L53193 47739
L53118 47777
L52818 47777
" />
<path d="M53530 47365
L54018 47365
L53755 47664
L53868 47664
L53943 47702
L53980 47739
L54018 47814
L54018 48002
L53980 48077
L53943 48114
L53868 48152
L53643 48152
L53568 48114
L53530 48077
" />
<g transform="rotate(-90 49816.7 48465.5)">
<text x="49816.7" y="48859.2"
textLength="2440.76" font-size="1049.87" lengthAdjust="spacingAndGlyphs"
text-anchor="middle" opacity="0">C18</text>
</g>
<path d="M50097 48971
L50135 49009
L50172 49121
L50172 49196
L50135 49309
L50060 49384
L49985 49421
L49835 49459
L49722 49459
L49572 49421
L49497 49384
L49423 49309
L49385 49196
L49385 49121
L49423 49009
L49460 48971
" />
<path d="M50172 48221
L50172 48671
" />
<path d="M50172 48446
L49385 48446
L49497 48521
L49572 48596
L49610 48671
" />
<path d="M49722 47771
L49685 47846
L49647 47884
L49572 47921
L49535 47921
L49460 47884
L49423 47846
L49385 47771
L49385 47621
L49423 47546
L49460 47509
L49535 47471
L49572 47471
L49647 47509
L49685 47546
L49722 47621
L49722 47771
L49760 47846
L49797 47884
L49872 47921
L50022 47921
L50097 47884
L50135 47846
L50172 47771
L50172 47621
L50135 47546
L50097 47509
L50022 47471
L49872 47471
L49797 47509
L49760 47546
L49722 47621
" />
<g transform="rotate(-90 49816.7 43268.7)">
<text x="49816.7" y="43662.4"
textLength="2440.76" font-size="1049.87" lengthAdjust="spacingAndGlyphs"
text-anchor="middle" opacity="0">C17</text>
</g>
<path d="M50097 43774
L50135 43812
L50172 43924
L50172 43999
L50135 44112
L50060 44187
L49985 44224
L49835 44262
L49722 44262
L49572 44224
L49497 44187
L49423 44112
L49385 43999
L49385 43924
L49423 43812
L49460 43774
" />
<path d="M50172 43024
L50172 43474
" />
<path d="M50172 43249
L49385 43249
L49497 43324
L49572 43399
L49610 43474
" />
<path d="M49385 42762
L49385 42237
L50172 42575
" />
<text x="54895.4" y="53898.6"
textLength="2440.76" font-size="1049.87" lengthAdjust="spacingAndGlyphs"
text-anchor="middle" opacity="0">C19</text>
<path d="M54389 53786
L54351 53823
L54239 53861
L54164 53861
L54051 53823
L53976 53748
L53939 53673
L53901 53523
L53901 53411
L53939 53261
L53976 53186
L54051 53111
L54164 53073
L54239 53073
L54351 53111
L54389 53148
" />
<path d="M55139 53861
L54689 53861
" />
<path d="M54914 53861
L54914 53073
L54839 53186
L54764 53261
L54689 53298
" />
<path d="M55514 53861
L55664 53861
L55739 53823
L55776 53786
L55851 53673
L55889 53523
L55889 53223
L55851 53148
L55814 53111
L55739 53073
L55589 53073
L55514 53111
L55476 53148
L55439 53223
L55439 53411
L55476 53486
L55514 53523
L55589 53561
L55739 53561
L55814 53523
L55851 53486
L55889 53411
" />
<g transform="rotate(-90 45092.3 40119.1)">
<text x="45092.3" y="40512.8"
textLength="1578.37" font-size="1049.87" lengthAdjust="spacingAndGlyphs"
text-anchor="middle" opacity="0">Y1</text>
</g>
<path d="M45073 40494
L45448 40494
" />
<path d="M44661 40756
L45073 40494
L44661 40231
" />
<path d="M45448 39556
L45448 40006
" />
<path d="M45448 39781
L44661 39781
L44773 39856
L44848 39931
L44886 40006
" />
<g transform="rotate(-90 46509.6 38859.2)">
<text x="46509.6" y="39252.9"
textLength="4615.49" font-size="1049.87" lengthAdjust="spacingAndGlyphs"
text-anchor="middle" opacity="0">25 MHz</text>
</g>
<path d="M46153 40940
L46115 40902
L46078 40827
L46078 40640
L46115 40565
L46153 40527
L46228 40490
L46303 40490
L46415 40527
L46865 40977
L46865 40490
" />
<path d="M46078 39777
L46078 40152
L46453 40190
L46415 40152
L46378 40077
L46378 39890
L46415 39815
L46453 39777
L46528 39740
L46715 39740
L46790 39777
L46828 39815
L46865 39890
L46865 40077
L46828 40152
L46790 40190
" />
<path d="M46865 38802
L46078 38802
L46640 38540
L46078 38278
L46865 38278
" />
<path d="M46865 37903
L46078 37903
" />
<path d="M46453 37903
L46453 37453
" />
<path d="M46865 37453
L46078 37453
" />
<path d="M46340 37153
L46340 36740
L46865 37153
L46865 36740
" />
<text x="61785.2" y="47599.4"
textLength="3715.6" font-size="1049.87" lengthAdjust="spacingAndGlyphs"
text-anchor="middle" opacity="0">RESET</text>
<path d="M60641 47561
L60379 47186
" />
<path d="M60191 47561
L60191 46774
L60491 46774
L60566 46811
L60604 46849
L60641 46924
L60641 47036
L60604 47111
L60566 47149
L60491 47186
L60191 47186
" />
<path d="M60979 47149
L61241 47149
" />
<path d="M61354 47561
L60979 47561
L60979 46774
L61354 46774
" />
<path d="M61653 47524
L61766 47561
L61953 47561
L62028 47524
L62066 47486
L62103 47411
L62103 47336
L62066 47261
L62028 47224
L61953 47186
L61803 47149
L61728 47111
L61691 47074
L61653 46999
L61653 46924
L61691 46849
L61728 46811
L61803 46774
L61991 46774
L62103 46811
" />
<path d="M62441 47149
L62703 47149
" />
<path d="M62816 47561
L62441 47561
L62441 46774
L62816 46774
" />
<path d="M63041 46774
L63491 46774
" />
<path d="M63266 47561
L63266 46774
" />
<g >
</g>
</g> 
</svg>
