<!DOCTYPE svg PUBLIC "-//W3C//DTD SVG 1.1//EN"
"http://www.w3.org/Graphics/SVG/1.1/DTD/svg11.dtd">
<svg xmlns="http://www.w3.org/2000/svg" xmlns:xlink="http://www.w3.org/1999/xlink" width="29.7002cm" height="21.0007cm" viewBox="0 0 11693 8268" font-family="Verdana, sans-serif" style="stroke-opacity:1.000000;fill-opacity:1.000000;"><rect fill="#FFFFFF00" width="11693" height="8268" style="stroke-opacity:1.0;fill-opacity:1.0;"></rect><text x="6225" y="3334" font-size="50.000000" text-anchor="middle" transform="rotate(0 6225 3334)" fill="#000000">U?A</text><text x="6225" y="3425" font-size="50.000000" text-anchor="middle" transform="rotate(0 6225 3425)" fill="#000000">74HC36</text><text x="6725" y="3800" font-size="50.000000" text-anchor="end" transform="rotate(0 6725 3800)" fill="#000000">3</text><polyline points="6425, 3800 6725, 3800" stroke-width="10px" stroke="#000000"></polyline><text x="5725" y="3900" font-size="50.000000" text-anchor="start" transform="rotate(0 5725 3900)" fill="#000000">2</text><polyline points="6025, 3900 5725, 3900" stroke-width="10px" stroke="#000000"></polyline><text x="5725" y="3700" font-size="50.000000" text-anchor="start" transform="rotate(0 5725 3700)" fill="#000000">1</text><polyline points="6025, 3700 5725, 3700" stroke-width="10px" stroke="#000000"></polyline><polyline points="6175, 3850 6175, 3850" stroke-width="10px" stroke="#000000"></polyline><polyline points="6225, 3800 6175, 3850" stroke-width="10px" stroke="#000000"></polyline><polyline points="6175, 3750 6225, 3800" stroke-width="10px" stroke="#000000"></polyline><polyline points="6225, 3820 6225, 3820" stroke-width="10px" stroke="#000000"></polyline><polyline points="6175, 3870 6225, 3820" stroke-width="10px" stroke="#000000"></polyline><polyline points="6425, 3550 6025, 3550" stroke-width="10px" stroke="#000000"></polyline><polyline points="6425, 4050 6425, 3550" stroke-width="10px" stroke="#000000"></polyline><polyline points="6025, 4050 6425, 4050" stroke-width="10px" stroke="#000000"></polyline><polyline points="6025, 3550 6025, 4050" stroke-width="10px" stroke="#000000"></polyline><text x="6325" y="3800" font-size="100.000000" text-anchor="start" transform="rotate(0 6325 3800)" fill="#000000">1</text><text x="7693" y="7968" font-size="50.000000" text-anchor="start" transform="rotate(0 7693 7968)" fill="#000000">Page: 2 2</text><rect x="7593" y="7618" width="4000" height="400" fill="none" stroke-width="5px" stroke="#000000"></rect><rect x="7593" y="7918" width="4000" height="100" fill="none" stroke-width="5px" stroke="#000000"></rect><rect x="7593" y="8018" width="4000" height="150" fill="none" stroke-width="5px" stroke="#000000"></rect><rect x="100" y="100" width="11493" height="8068" fill="none" stroke-width="5px" stroke="#000000"></rect></svg>