<?xml version="1.0" standalone="no"?>
 <!DOCTYPE svg PUBLIC "-//W3C//DTD SVG 1.1//EN" 
 "http://www.w3.org/Graphics/SVG/1.1/DTD/svg11.dtd"> 
<svg
  xmlns:svg="http://www.w3.org/2000/svg"
  xmlns="http://www.w3.org/2000/svg"
  xmlns:xlink="http://www.w3.org/1999/xlink"
  version="1.1"
  width="29.700220cm" height="21.000720cm" viewBox="0 0 116930 82680">
<title>SVG Picture created as board-F_Fab.svg date 2021/03/29 15:50:43 </title>
  <desc>Picture generated by PCBNEW </desc>
<g style="fill:#000000; fill-opacity:1;stroke:#000000; stroke-opacity:1;
stroke-linecap:round; stroke-linejoin:round;"
 transform="translate(0 0) scale(1 1)">
</g>
<g style="fill:#000000; fill-opacity:0.0; 
stroke:#000000; stroke-width:-0.000787402; stroke-opacity:1; 
stroke-linecap:round; stroke-linejoin:round;">
</g>
<g style="fill:#000000; fill-opacity:0.0; 
stroke:#000000; stroke-width:78.7402; stroke-opacity:1; 
stroke-linecap:round; stroke-linejoin:round;">
<path d="M10289.1 57126.9 A2362.2 2362.2 0.0 0 0 12651.4 59489.1" />
<path d="M12651.4 22875 A2362.2 2362.2 0.0 0 0 10289.1 25237.2" />
<path d="M66982.1 25237.2 A2362.2 2362.2 0.0 0 0 64619.9 22875" />
<path d="M64619.9 59489.1 A2362.21 2362.21 0.0 0 0 66982.1 57126.9" />
<path d="M12651 59489
L64619 59489
" />
<path d="M10289 25237
L10289 57126
" />
<path d="M64619 22874
L12651 22874
" />
<path d="M66982 57126
L66982 25237
" />
<path d="M42237 29548
L41450 28760
" />
<path d="M41450 28760
L17789 28760
" />
<path d="M17789 28760
L17789 53209
" />
<path d="M17789 53209
L42237 53209
" />
<path d="M42237 53209
L42237 29548
" />
<path d="M40237 30760
L19789 30760
" />
<path d="M19789 30760
L19789 51209
" />
<path d="M19789 51209
L40237 51209
" />
<path d="M40237 51209
L40237 30760
" />
<path d="M42237 40591
L41450 40985
" />
<path d="M41450 40985
L42237 41378
" />
<path d="M35391 58126
L35391 56626
" />
<path d="M35391 56626
L35891 56126
" />
<path d="M35891 56126
L45391 56126
" />
<path d="M45391 56126
L45391 58126
" />
<path d="M45391 58126
L35391 58126
" />
<path d="M45588 24237
L57588 24237
" />
<path d="M45588 26237
L45588 24237
" />
<path d="M57088 26237
L45588 26237
" />
<path d="M57588 25737
L57088 26237
" />
<path d="M57588 24237
L57588 25737
" />
<path d="M11651 53158
L11651 29158
" />
<path d="M13651 53158
L11651 53158
" />
<path d="M13651 29658
L13651 53158
" />
<path d="M13151 29158
L13651 29658
" />
<path d="M11651 29158
L13151 29158
" />
<path d="M42934 26237
L18934 26237
" />
<path d="M42934 24237
L42934 26237
" />
<path d="M19434 24237
L42934 24237
" />
<path d="M18934 24737
L19434 24237
" />
<path d="M18934 26237
L18934 24737
" />
<path d="M34934 58126
L18934 58126
" />
<path d="M34934 56126
L34934 58126
" />
<path d="M19434 56126
L34934 56126
" />
<path d="M18934 56626
L19434 56126
" />
<path d="M18934 58126
L18934 56626
" />
<path d="M59009 41497
L59009 39922
" />
<path d="M59993 41497
L59009 41497
" />
<path d="M59993 39922
L59993 41497
" />
<path d="M59009 39922
L59993 39922
" />
<path d="M52395 39922
L52395 41497
" />
<path d="M51411 39922
L52395 39922
" />
<path d="M51411 41497
L51411 39922
" />
<path d="M52395 41497
L51411 41497
" />
<path d="M59009 31142
L59993 31142
" />
<path d="M59993 31142
L59993 32717
" />
<path d="M59993 32717
L59009 32717
" />
<path d="M59009 32717
L59009 31142
" />
<path d="M52395 32717
L51411 32717
" />
<path d="M51411 32717
L51411 31142
" />
<path d="M51411 31142
L52395 31142
" />
<path d="M52395 31142
L52395 32717
" />
<path d="M55013 39512
L53911 39512
" />
<path d="M53911 41906
L53911 39512
" />
<path d="M55013 41457
L54580 41906
" />
<path d="M54580 41906
L53911 41906
" />
<path d="M55013 41457
L55013 39528
" />
<path d="M55013 32678
L55013 30748
" />
<path d="M54580 33126
L53911 33126
" />
<path d="M55013 32678
L54580 33126
" />
<path d="M53911 33126
L53911 30733
" />
<path d="M55013 30733
L53911 30733
" />
<path d="M65316 35260
L66816 35260
" />
<path d="M66816 35260
L66816 43260
" />
<path d="M66816 43260
L64816 43260
" />
<path d="M64816 43260
L64816 35760
" />
<path d="M64816 35760
L65316 35260
" />
<path d="M63383 36008
L64816 36008
" />
<path d="M63383 36008
L63383 36512
" />
<path d="M63383 36512
L64816 36512
" />
<path d="M66816 36008
L71541 36008
" />
<path d="M71541 36008
L71541 36512
" />
<path d="M66816 36512
L71541 36512
" />
<path d="M63383 38008
L64816 38008
" />
<path d="M63383 38008
L63383 38512
" />
<path d="M63383 38512
L64816 38512
" />
<path d="M66816 38008
L71541 38008
" />
<path d="M71541 38008
L71541 38512
" />
<path d="M66816 38512
L71541 38512
" />
<path d="M63383 40008
L64816 40008
" />
<path d="M63383 40008
L63383 40512
" />
<path d="M63383 40512
L64816 40512
" />
<path d="M66816 40008
L71541 40008
" />
<path d="M71541 40008
L71541 40512
" />
<path d="M66816 40512
L71541 40512
" />
<path d="M63383 42008
L64816 42008
" />
<path d="M63383 42008
L63383 42512
" />
<path d="M63383 42512
L64816 42512
" />
<path d="M66816 42008
L71541 42008
" />
<path d="M71541 42008
L71541 42512
" />
<path d="M66816 42512
L71541 42512
" />
<path d="M56824 41514
L57769 41514
" />
<path d="M56824 39939
L56824 41514
" />
<path d="M57533 39939
L56824 39939
" />
<path d="M57769 40176
L57533 39939
" />
<path d="M57769 41514
L57769 40176
" />
<path d="M57769 32735
L57769 31396
" />
<path d="M57769 31396
L57533 31160
" />
<path d="M57533 31160
L56824 31160
" />
<path d="M56824 31160
L56824 32735
" />
<path d="M56824 32735
L57769 32735
" />
<path d="M55013 50453
L55013 49469
" />
<path d="M55013 49469
L56588 49469
" />
<path d="M56588 49469
L56588 50453
" />
<path d="M56588 50453
L55013 50453
" />
<path d="M56588 47304
L56588 48288
" />
<path d="M56588 48288
L55013 48288
" />
<path d="M55013 48288
L55013 47304
" />
<path d="M55013 47304
L56588 47304
" />
<path d="M47875 46693
L48860 46693
" />
<path d="M48860 46693
L48860 48268
" />
<path d="M48860 48268
L47875 48268
" />
<path d="M47875 48268
L47875 46693
" />
<path d="M48860 45119
L47875 45119
" />
<path d="M47875 45119
L47875 43544
" />
<path d="M47875 43544
L48860 43544
" />
<path d="M48860 43544
L48860 45119
" />
<path d="M56588 51634
L56588 52619
" />
<path d="M56588 52619
L55013 52619
" />
<path d="M55013 52619
L55013 51634
" />
<path d="M55013 51634
L56588 51634
" />
<path d="M43198 48276
L43198 43237
" />
<path d="M46860 48276
L46860 43237
" />
<path d="M43454 48119
L43454 43394
" />
<path d="M46604 48119
L46604 43394
" />
<path d="M46604.1 43394.6 A1574.8 1574.8 0.0 0 0 43454.5 43394.6" />
<path d="M43454.5 48119.1 A1574.8 1574.8 0.0 0 0 46604.1 48119.1" />
<path d="M46860 43237.2 A1830.71 1830.71 0.0 0 0 43198.6 43237.2" />
<path d="M43198.6 48276.5 A1830.71 1830.71 0.0 0 0 46860 48276.5" />
<path d="M61903 53504
L59541 53504
" />
<path d="M59541 53504
L59541 48780
" />
<path d="M59541 48780
L64265 48780
" />
<path d="M64265 48780
L64265 53504
" />
<path d="M64265 53504
L61903 53504
" />
<circle cx="61903.3" cy="51142.7" r="1587.06" /> 
<g >
</g>
<g >
</g>
<g >
</g>
<g >
</g>
<g >
</g>
<g >
</g>
<g >
</g>
<g >
</g>
<g >
</g>
<g >
</g>
<g >
</g>
<g >
</g>
<g >
</g>
<g >
</g>
<g >
</g>
<g >
</g>
<g >
</g>
<g >
</g>
<g >
</g>
<g >
</g>
<g >
</g>
<g >
</g>
<g >
</g>
<g >
</g>
<g >
</g>
<g >
</g>
<g >
</g>
<g >
</g>
<g >
</g>
<g >
</g>
<g >
</g>
<g >
</g>
<g >
</g>
<g >
</g>
<g >
</g>
<g >
</g>
<g >
</g>
<g >
</g>
<g >
</g>
<g >
</g>
<g >
</g>
<g >
</g>
<g >
</g>
<g >
</g>
<g >
</g>
<g >
</g>
<g >
</g>
<g >
</g>
</g>
<g style="fill:#000000; fill-opacity:0.0; 
stroke:#000000; stroke-width:78.7402; stroke-opacity:1; 
stroke-linecap:round; stroke-linejoin:round;">
</g>
<g style="fill:#000000; fill-opacity:0.0; 
stroke:#000000; stroke-width:94.4882; stroke-opacity:1; 
stroke-linecap:round; stroke-linejoin:round;">
<g transform="rotate(-90 18664 30052.6)">
<text x="18664" y="30446.3"
textLength="1728.35" font-size="1049.87" lengthAdjust="spacingAndGlyphs"
text-anchor="middle" opacity="0">U1</text>
</g>
<path d="M18232 30652
L18870 30652
L18945 30615
L18982 30577
L19020 30502
L19020 30352
L18982 30277
L18945 30240
L18870 30202
L18232 30202
" />
<path d="M19020 29415
L19020 29865
" />
<path d="M19020 29640
L18232 29640
L18345 29715
L18420 29790
L18457 29865
" />
</g>
<g style="fill:#000000; fill-opacity:0.0; 
stroke:#000000; stroke-width:118.11; stroke-opacity:1; 
stroke-linecap:round; stroke-linejoin:round;">
<g transform="rotate(-90 46572.6 57126.9)">
<text x="46572.6" y="57520.6"
textLength="1697.64" font-size="1049.87" lengthAdjust="spacingAndGlyphs"
text-anchor="middle" opacity="0">H4</text>
</g>
<path d="M46928 57726
L46141 57726
" />
<path d="M46516 57726
L46516 57276
" />
<path d="M46928 57276
L46141 57276
" />
<path d="M46403 56564
L46928 56564
" />
<path d="M46103 56751
L46666 56939
L46666 56452
" />
<text x="40391.5" y="57520.6"
textLength="1503.37" font-size="1049.87" lengthAdjust="spacingAndGlyphs"
text-anchor="middle" opacity="0">J7</text>
<path d="M40129 56695
L40129 57258
L40091 57370
L40016 57445
L39904 57483
L39829 57483
" />
<path d="M40429 56695
L40953 56695
L40616 57483
" />
<g transform="rotate(-90 44407.3 25237.2)">
<text x="44407.3" y="25630.9"
textLength="2628.23" font-size="1049.87" lengthAdjust="spacingAndGlyphs"
text-anchor="middle" opacity="0">PWR</text>
</g>
<path d="M44763 26287
L43976 26287
L43976 25987
L44013 25912
L44051 25874
L44126 25837
L44238 25837
L44313 25874
L44351 25912
L44388 25987
L44388 26287
" />
<path d="M43976 25574
L44763 25387
L44201 25237
L44763 25087
L43976 24899
" />
<path d="M44763 24149
L44388 24412
" />
<path d="M44763 24599
L43976 24599
L43976 24299
L44013 24224
L44051 24187
L44126 24149
L44238 24149
L44313 24187
L44351 24224
L44388 24299
L44388 24599
" />
<text x="51588.4" y="25630.9"
textLength="1503.37" font-size="1049.87" lengthAdjust="spacingAndGlyphs"
text-anchor="middle" opacity="0">J5</text>
<path d="M51325 24805
L51325 25368
L51288 25480
L51213 25555
L51100 25593
L51025 25593
" />
<path d="M52075 24805
L51700 24805
L51663 25180
L51700 25143
L51775 25105
L51963 25105
L52038 25143
L52075 25180
L52113 25255
L52113 25443
L52075 25518
L52038 25555
L51963 25593
L51775 25593
L51700 25555
L51663 25518
" />
<text x="12651.4" y="54733.2"
textLength="1728.35" font-size="1049.87" lengthAdjust="spacingAndGlyphs"
text-anchor="middle" opacity="0">H2</text>
<path d="M12051 54695
L12051 53908
" />
<path d="M12051 54283
L12501 54283
" />
<path d="M12501 54695
L12501 53908
" />
<path d="M12838 53983
L12876 53945
L12951 53908
L13138 53908
L13213 53945
L13251 53983
L13288 54058
L13288 54133
L13251 54245
L12801 54695
L13288 54695
" />
<g transform="rotate(-90 12651.4 41158.4)">
<text x="12651.4" y="41552.1"
textLength="1503.37" font-size="1049.87" lengthAdjust="spacingAndGlyphs"
text-anchor="middle" opacity="0">J3</text>
</g>
<path d="M12220 41420
L12782 41420
L12895 41458
L12970 41533
L13007 41645
L13007 41720
" />
<path d="M12220 41120
L12220 40633
L12520 40895
L12520 40783
L12557 40708
L12595 40670
L12670 40633
L12857 40633
L12932 40670
L12970 40708
L13007 40783
L13007 41008
L12970 41083
L12932 41120
" />
<g transform="rotate(-90 44115.9 25237.2)">
<text x="44115.9" y="25630.9"
textLength="1728.35" font-size="1049.87" lengthAdjust="spacingAndGlyphs"
text-anchor="middle" opacity="0">H3</text>
</g>
<path d="M44472 25837
L43684 25837
" />
<path d="M44059 25837
L44059 25387
" />
<path d="M44472 25387
L43684 25387
" />
<path d="M43684 25087
L43684 24599
L43984 24862
L43984 24749
L44022 24674
L44059 24637
L44134 24599
L44322 24599
L44397 24637
L44434 24674
L44472 24749
L44472 24974
L44434 25049
L44397 25087
" />
<text x="30934.8" y="25630.9"
textLength="1503.37" font-size="1049.87" lengthAdjust="spacingAndGlyphs"
text-anchor="middle" opacity="0">J1</text>
<path d="M30672 24805
L30672 25368
L30634 25480
L30559 25555
L30447 25593
L30372 25593
" />
<path d="M31459 25593
L31009 25593
" />
<path d="M31234 25593
L31234 24805
L31159 24918
L31084 24993
L31009 25030
" />
<g transform="rotate(-90 36115.9 57126.9)">
<text x="36115.9" y="57520.6"
textLength="1728.35" font-size="1049.87" lengthAdjust="spacingAndGlyphs"
text-anchor="middle" opacity="0">H1</text>
</g>
<path d="M36472 57726
L35684 57726
" />
<path d="M36059 57726
L36059 57276
" />
<path d="M36472 57276
L35684 57276
" />
<path d="M36472 56489
L36472 56939
" />
<path d="M36472 56714
L35684 56714
L35797 56789
L35872 56864
L35909 56939
" />
<text x="26934.8" y="57520.6"
textLength="1503.37" font-size="1049.87" lengthAdjust="spacingAndGlyphs"
text-anchor="middle" opacity="0">J4</text>
<path d="M26672 56695
L26672 57258
L26634 57370
L26559 57445
L26447 57483
L26372 57483
" />
<path d="M27384 56958
L27384 57483
" />
<path d="M27197 56658
L27009 57220
L27497 57220
" />
<g transform="rotate(-90 58202.5 40709.6)">
<text x="58202.5" y="41103.3"
textLength="2403.26" font-size="1049.87" lengthAdjust="spacingAndGlyphs"
text-anchor="middle" opacity="0">330</text>
</g>
<path d="M57771 41721
L57771 41234
L58071 41497
L58071 41384
L58108 41309
L58146 41272
L58221 41234
L58408 41234
L58483 41272
L58521 41309
L58558 41384
L58558 41609
L58521 41684
L58483 41721
" />
<path d="M57771 40972
L57771 40484
L58071 40747
L58071 40634
L58108 40559
L58146 40522
L58221 40484
L58408 40484
L58483 40522
L58521 40559
L58558 40634
L58558 40859
L58521 40934
L58483 40972
" />
<path d="M57771 39997
L57771 39922
L57808 39847
L57846 39809
L57921 39772
L58071 39734
L58258 39734
L58408 39772
L58483 39809
L58521 39847
L58558 39922
L58558 39997
L58521 40072
L58483 40109
L58408 40147
L58258 40184
L58071 40184
L57921 40147
L57846 40109
L57808 40072
L57771 39997
" />
</g>
<g style="fill:#000000; fill-opacity:0.0; 
stroke:#000000; stroke-width:62.9921; stroke-opacity:1; 
stroke-linecap:round; stroke-linejoin:round;">
<g transform="rotate(-90 59501.7 40709.6)">
<text x="59501.7" y="41103.3"
textLength="1690.85" font-size="1049.87" lengthAdjust="spacingAndGlyphs"
text-anchor="middle" opacity="0">R2</text>
</g>
<path d="M59857 40840
L59482 41103
" />
<path d="M59857 41290
L59070 41290
L59070 40990
L59108 40915
L59145 40878
L59220 40840
L59333 40840
L59408 40878
L59445 40915
L59482 40990
L59482 41290
" />
<path d="M59145 40540
L59108 40503
L59070 40428
L59070 40240
L59108 40165
L59145 40128
L59220 40090
L59295 40090
L59408 40128
L59857 40578
L59857 40090
" />
</g>
<g style="fill:#000000; fill-opacity:0.0; 
stroke:#000000; stroke-width:118.11; stroke-opacity:1; 
stroke-linecap:round; stroke-linejoin:round;">
<g transform="rotate(-90 53202.5 40709.6)">
<text x="53202.5" y="41103.3"
textLength="1469.22" font-size="1049.87" lengthAdjust="spacingAndGlyphs"
text-anchor="middle" opacity="0">1k</text>
</g>
<path d="M53558 40803
L53558 41253
" />
<path d="M53558 41028
L52771 41028
L52883 41103
L52958 41178
L52996 41253
" />
<path d="M53558 40465
L52771 40465
" />
<path d="M53258 40390
L53558 40165
" />
<path d="M53033 40165
L53333 40465
" />
</g>
<g style="fill:#000000; fill-opacity:0.0; 
stroke:#000000; stroke-width:62.9921; stroke-opacity:1; 
stroke-linecap:round; stroke-linejoin:round;">
<g transform="rotate(-90 51903.3 40709.6)">
<text x="51903.3" y="41103.3"
textLength="1690.85" font-size="1049.87" lengthAdjust="spacingAndGlyphs"
text-anchor="middle" opacity="0">R6</text>
</g>
<path d="M52259 40840
L51884 41103
" />
<path d="M52259 41290
L51472 41290
L51472 40990
L51509 40915
L51547 40878
L51622 40840
L51734 40840
L51809 40878
L51847 40915
L51884 40990
L51884 41290
" />
<path d="M51472 40165
L51472 40315
L51509 40390
L51547 40428
L51659 40503
L51809 40540
L52109 40540
L52184 40503
L52222 40465
L52259 40390
L52259 40240
L52222 40165
L52184 40128
L52109 40090
L51922 40090
L51847 40128
L51809 40165
L51772 40240
L51772 40390
L51809 40465
L51847 40503
L51922 40540
" />
</g>
<g style="fill:#000000; fill-opacity:0.0; 
stroke:#000000; stroke-width:118.11; stroke-opacity:1; 
stroke-linecap:round; stroke-linejoin:round;">
<g transform="rotate(-90 58202.5 31930.1)">
<text x="58202.5" y="32323.8"
textLength="2331.61" font-size="1049.87" lengthAdjust="spacingAndGlyphs"
text-anchor="middle" opacity="0">330</text>
</g>
<path d="M57771 32942
L57771 32455
L58071 32717
L58071 32604
L58108 32530
L58146 32492
L58221 32455
L58408 32455
L58483 32492
L58521 32530
L58558 32604
L58558 32829
L58521 32904
L58483 32942
" />
<path d="M57771 32192
L57771 31705
L58071 31967
L58071 31855
L58108 31780
L58146 31742
L58221 31705
L58408 31705
L58483 31742
L58521 31780
L58558 31855
L58558 32080
L58521 32155
L58483 32192
" />
<path d="M57771 31217
L57771 31142
L57808 31067
L57846 31030
L57921 30992
L58071 30955
L58258 30955
L58408 30992
L58483 31030
L58521 31067
L58558 31142
L58558 31217
L58521 31292
L58483 31330
L58408 31367
L58258 31405
L58071 31405
L57921 31367
L57846 31330
L57808 31292
L57771 31217
" />
</g>
<g style="fill:#000000; fill-opacity:0.0; 
stroke:#000000; stroke-width:62.9921; stroke-opacity:1; 
stroke-linecap:round; stroke-linejoin:round;">
<g transform="rotate(-90 59501.7 31930.1)">
<text x="59501.7" y="32323.8"
textLength="1690.85" font-size="1049.87" lengthAdjust="spacingAndGlyphs"
text-anchor="middle" opacity="0">R1</text>
</g>
<path d="M59857 32061
L59482 32323
" />
<path d="M59857 32511
L59070 32511
L59070 32211
L59108 32136
L59145 32098
L59220 32061
L59333 32061
L59408 32098
L59445 32136
L59482 32211
L59482 32511
" />
<path d="M59857 31311
L59857 31761
" />
<path d="M59857 31536
L59070 31536
L59183 31611
L59258 31686
L59295 31761
" />
</g>
<g style="fill:#000000; fill-opacity:0.0; 
stroke:#000000; stroke-width:118.11; stroke-opacity:1; 
stroke-linecap:round; stroke-linejoin:round;">
<g transform="rotate(-90 53202.5 31930.1)">
<text x="53202.5" y="32323.8"
textLength="1469.22" font-size="1049.87" lengthAdjust="spacingAndGlyphs"
text-anchor="middle" opacity="0">1k</text>
</g>
<path d="M53558 32023
L53558 32473
" />
<path d="M53558 32248
L52771 32248
L52883 32323
L52958 32398
L52996 32473
" />
<path d="M53558 31686
L52771 31686
" />
<path d="M53258 31611
L53558 31386
" />
<path d="M53033 31386
L53333 31686
" />
</g>
<g style="fill:#000000; fill-opacity:0.0; 
stroke:#000000; stroke-width:62.9921; stroke-opacity:1; 
stroke-linecap:round; stroke-linejoin:round;">
<g transform="rotate(-90 51903.3 31930.1)">
<text x="51903.3" y="32323.8"
textLength="1690.85" font-size="1049.87" lengthAdjust="spacingAndGlyphs"
text-anchor="middle" opacity="0">R5</text>
</g>
<path d="M52259 32061
L51884 32323
" />
<path d="M52259 32511
L51472 32511
L51472 32211
L51509 32136
L51547 32098
L51622 32061
L51734 32061
L51809 32098
L51847 32136
L51884 32211
L51884 32511
" />
<path d="M51472 31348
L51472 31723
L51847 31761
L51809 31723
L51772 31648
L51772 31461
L51809 31386
L51847 31348
L51922 31311
L52109 31311
L52184 31348
L52222 31386
L52259 31461
L52259 31648
L52222 31723
L52184 31761
" />
</g>
<g style="fill:#000000; fill-opacity:0.0; 
stroke:#000000; stroke-width:118.11; stroke-opacity:1; 
stroke-linecap:round; stroke-linejoin:round;">
<text x="54462.4" y="39134.8"
textLength="6831.05" font-size="1049.87" lengthAdjust="spacingAndGlyphs"
text-anchor="middle" opacity="0">Q_NPN_BCE</text>
<path d="M51800 39172
L51725 39134
L51650 39059
L51537 38947
L51462 38909
L51387 38909
" />
<path d="M51425 39097
L51350 39059
L51275 38984
L51237 38834
L51237 38572
L51275 38422
L51350 38347
L51425 38309
L51575 38309
L51650 38347
L51725 38422
L51762 38572
L51762 38834
L51725 38984
L51650 39059
L51575 39097
L51425 39097
" />
<path d="M51912 39172
L52512 39172
" />
<path d="M52700 39097
L52700 38309
L53150 39097
L53150 38309
" />
<path d="M53524 39097
L53524 38309
L53824 38309
L53899 38347
L53937 38384
L53974 38459
L53974 38572
L53937 38647
L53899 38684
L53824 38722
L53524 38722
" />
<path d="M54312 39097
L54312 38309
L54762 39097
L54762 38309
" />
<path d="M54949 39172
L55549 39172
" />
<path d="M55999 38684
L56112 38722
L56149 38759
L56187 38834
L56187 38947
L56149 39022
L56112 39059
L56037 39097
L55737 39097
L55737 38309
L55999 38309
L56074 38347
L56112 38384
L56149 38459
L56149 38534
L56112 38609
L56074 38647
L55999 38684
L55737 38684
" />
<path d="M56974 39022
L56937 39059
L56824 39097
L56749 39097
L56637 39059
L56562 38984
L56524 38909
L56487 38759
L56487 38647
L56524 38497
L56562 38422
L56637 38347
L56749 38309
L56824 38309
L56937 38347
L56974 38384
" />
<path d="M57312 38684
L57574 38684
" />
<path d="M57686 39097
L57312 39097
L57312 38309
L57686 38309
" />
</g>
<g style="fill:#000000; fill-opacity:0.0; 
stroke:#000000; stroke-width:59.0551; stroke-opacity:1; 
stroke-linecap:round; stroke-linejoin:round;">
<g transform="rotate(-90 54462.4 40709.6)">
<text x="54462.4" y="41103.3"
textLength="1728.35" font-size="1049.87" lengthAdjust="spacingAndGlyphs"
text-anchor="middle" opacity="0">Q2</text>
</g>
<path d="M54893 40784
L54856 40859
L54781 40934
L54668 41047
L54631 41122
L54631 41197
" />
<path d="M54818 41159
L54781 41234
L54706 41309
L54556 41347
L54293 41347
L54143 41309
L54068 41234
L54031 41159
L54031 41009
L54068 40934
L54143 40859
L54293 40822
L54556 40822
L54706 40859
L54781 40934
L54818 41009
L54818 41159
" />
<path d="M54106 40522
L54068 40484
L54031 40409
L54031 40222
L54068 40147
L54106 40109
L54181 40072
L54256 40072
L54368 40109
L54818 40559
L54818 40072
" />
</g>
<g style="fill:#000000; fill-opacity:0.0; 
stroke:#000000; stroke-width:118.11; stroke-opacity:1; 
stroke-linecap:round; stroke-linejoin:round;">
<text x="54462.4" y="30355.3"
textLength="6825.93" font-size="1049.87" lengthAdjust="spacingAndGlyphs"
text-anchor="middle" opacity="0">Q_NPN_BCE</text>
<path d="M51800 30392
L51725 30355
L51650 30280
L51537 30167
L51462 30130
L51387 30130
" />
<path d="M51425 30317
L51350 30280
L51275 30205
L51237 30055
L51237 29792
L51275 29642
L51350 29567
L51425 29530
L51575 29530
L51650 29567
L51725 29642
L51762 29792
L51762 30055
L51725 30205
L51650 30280
L51575 30317
L51425 30317
" />
<path d="M51912 30392
L52512 30392
" />
<path d="M52700 30317
L52700 29530
L53150 30317
L53150 29530
" />
<path d="M53524 30317
L53524 29530
L53824 29530
L53899 29567
L53937 29605
L53974 29680
L53974 29792
L53937 29867
L53899 29905
L53824 29942
L53524 29942
" />
<path d="M54312 30317
L54312 29530
L54762 30317
L54762 29530
" />
<path d="M54949 30392
L55549 30392
" />
<path d="M55999 29905
L56112 29942
L56149 29980
L56187 30055
L56187 30167
L56149 30242
L56112 30280
L56037 30317
L55737 30317
L55737 29530
L55999 29530
L56074 29567
L56112 29605
L56149 29680
L56149 29755
L56112 29830
L56074 29867
L55999 29905
L55737 29905
" />
<path d="M56974 30242
L56937 30280
L56824 30317
L56749 30317
L56637 30280
L56562 30205
L56524 30130
L56487 29980
L56487 29867
L56524 29717
L56562 29642
L56637 29567
L56749 29530
L56824 29530
L56937 29567
L56974 29605
" />
<path d="M57312 29905
L57574 29905
" />
<path d="M57686 30317
L57312 30317
L57312 29530
L57686 29530
" />
</g>
<g style="fill:#000000; fill-opacity:0.0; 
stroke:#000000; stroke-width:59.0551; stroke-opacity:1; 
stroke-linecap:round; stroke-linejoin:round;">
<g transform="rotate(-90 54462.4 31930.1)">
<text x="54462.4" y="32323.8"
textLength="1728.35" font-size="1049.87" lengthAdjust="spacingAndGlyphs"
text-anchor="middle" opacity="0">Q1</text>
</g>
<path d="M54893 32005
L54856 32080
L54781 32155
L54668 32267
L54631 32342
L54631 32417
" />
<path d="M54818 32380
L54781 32455
L54706 32530
L54556 32567
L54293 32567
L54143 32530
L54068 32455
L54031 32380
L54031 32230
L54068 32155
L54143 32080
L54293 32042
L54556 32042
L54706 32080
L54781 32155
L54818 32230
L54818 32380
" />
<path d="M54818 31292
L54818 31742
" />
<path d="M54818 31517
L54031 31517
L54143 31592
L54218 31667
L54256 31742
" />
</g>
<g style="fill:#000000; fill-opacity:0.0; 
stroke:#000000; stroke-width:118.11; stroke-opacity:1; 
stroke-linecap:round; stroke-linejoin:round;">
<g transform="rotate(-90 65816.7 39260.8)">
<text x="65816.7" y="39654.5"
textLength="1426.6" font-size="1049.87" lengthAdjust="spacingAndGlyphs"
text-anchor="middle" opacity="0">J2</text>
</g>
<path d="M65385 39523
L65947 39523
L66060 39560
L66135 39635
L66172 39748
L66172 39823
" />
<path d="M65460 39185
L65423 39148
L65385 39073
L65385 38885
L65423 38810
L65460 38773
L65535 38735
L65610 38735
L65722 38773
L66172 39223
L66172 38735
" />
</g>
<g style="fill:#000000; fill-opacity:0.0; 
stroke:#000000; stroke-width:62.9921; stroke-opacity:1; 
stroke-linecap:round; stroke-linejoin:round;">
<g transform="rotate(-90 57297 40727.3)">
<text x="57297" y="41121"
textLength="1690.85" font-size="1049.87" lengthAdjust="spacingAndGlyphs"
text-anchor="middle" opacity="0">D1</text>
</g>
<path d="M57653 41308
L56865 41308
L56865 41121
L56903 41008
L56978 40933
L57053 40896
L57203 40858
L57315 40858
L57465 40896
L57540 40933
L57615 41008
L57653 41121
L57653 41308
" />
<path d="M57653 40108
L57653 40558
" />
<path d="M57653 40333
L56865 40333
L56978 40408
L57053 40483
L57090 40558
" />
<g transform="rotate(-90 57297 31947.8)">
<text x="57297" y="32341.5"
textLength="1619.2" font-size="1049.87" lengthAdjust="spacingAndGlyphs"
text-anchor="middle" opacity="0">D2</text>
</g>
<path d="M57653 32528
L56865 32528
L56865 32341
L56903 32229
L56978 32154
L57053 32116
L57203 32079
L57315 32079
L57465 32116
L57540 32154
L57615 32229
L57653 32341
L57653 32528
" />
<path d="M56940 31779
L56903 31741
L56865 31666
L56865 31479
L56903 31404
L56940 31366
L57015 31329
L57090 31329
L57203 31366
L57653 31816
L57653 31329
" />
</g>
<g style="fill:#000000; fill-opacity:0.0; 
stroke:#000000; stroke-width:118.11; stroke-opacity:1; 
stroke-linecap:round; stroke-linejoin:round;">
<text x="55801" y="51654.5"
textLength="1619.2" font-size="1049.87" lengthAdjust="spacingAndGlyphs"
text-anchor="middle" opacity="0">1K</text>
<path d="M55632 51616
L55182 51616
" />
<path d="M55407 51616
L55407 50829
L55332 50942
L55257 51017
L55182 51054
" />
<path d="M55969 51616
L55969 50829
" />
<path d="M56419 51616
L56082 51167
" />
<path d="M56419 50829
L55969 51279
" />
</g>
<g style="fill:#000000; fill-opacity:0.0; 
stroke:#000000; stroke-width:62.9921; stroke-opacity:1; 
stroke-linecap:round; stroke-linejoin:round;">
<text x="55801" y="50355.3"
textLength="1690.85" font-size="1049.87" lengthAdjust="spacingAndGlyphs"
text-anchor="middle" opacity="0">R4</text>
<path d="M55669 50317
L55407 49942
" />
<path d="M55219 50317
L55219 49530
L55519 49530
L55594 49567
L55632 49605
L55669 49680
L55669 49792
L55632 49867
L55594 49905
L55519 49942
L55219 49942
" />
<path d="M56344 49792
L56344 50317
" />
<path d="M56157 49492
L55969 50055
L56457 50055
" />
</g>
<g style="fill:#000000; fill-opacity:0.0; 
stroke:#000000; stroke-width:118.11; stroke-opacity:1; 
stroke-linecap:round; stroke-linejoin:round;">
<text x="55801" y="46890.7"
textLength="2369.1" font-size="1049.87" lengthAdjust="spacingAndGlyphs"
text-anchor="middle" opacity="0">10K</text>
<path d="M55257 46853
L54807 46853
" />
<path d="M55032 46853
L55032 46065
L54957 46178
L54882 46253
L54807 46290
" />
<path d="M55744 46065
L55819 46065
L55894 46103
L55932 46140
L55969 46215
L56007 46365
L56007 46553
L55969 46703
L55932 46778
L55894 46815
L55819 46853
L55744 46853
L55669 46815
L55632 46778
L55594 46703
L55557 46553
L55557 46365
L55594 46215
L55632 46140
L55669 46103
L55744 46065
" />
<path d="M56344 46853
L56344 46065
" />
<path d="M56794 46853
L56457 46403
" />
<path d="M56794 46065
L56344 46515
" />
</g>
<g style="fill:#000000; fill-opacity:0.0; 
stroke:#000000; stroke-width:62.9921; stroke-opacity:1; 
stroke-linecap:round; stroke-linejoin:round;">
<text x="55801" y="48189.9"
textLength="1690.85" font-size="1049.87" lengthAdjust="spacingAndGlyphs"
text-anchor="middle" opacity="0">R3</text>
<path d="M55669 48152
L55407 47777
" />
<path d="M55219 48152
L55219 47365
L55519 47365
L55594 47402
L55632 47440
L55669 47515
L55669 47627
L55632 47702
L55594 47739
L55519 47777
L55219 47777
" />
<path d="M55932 47365
L56419 47365
L56157 47664
L56269 47664
L56344 47702
L56382 47739
L56419 47814
L56419 48002
L56382 48077
L56344 48114
L56269 48152
L56044 48152
L55969 48114
L55932 48077
" />
</g>
<g style="fill:#000000; fill-opacity:0.0; 
stroke:#000000; stroke-width:118.11; stroke-opacity:1; 
stroke-linecap:round; stroke-linejoin:round;">
<g transform="rotate(-90 47045.1 47481.3)">
<text x="47045.1" y="47875"
textLength="2294.11" font-size="1049.87" lengthAdjust="spacingAndGlyphs"
text-anchor="middle" opacity="0">18p</text>
</g>
<path d="M47401 47987
L47401 48437
" />
<path d="M47401 48212
L46613 48212
L46726 48287
L46801 48362
L46838 48437
" />
<path d="M46951 47537
L46913 47612
L46876 47649
L46801 47687
L46763 47687
L46688 47649
L46651 47612
L46613 47537
L46613 47387
L46651 47312
L46688 47275
L46763 47237
L46801 47237
L46876 47275
L46913 47312
L46951 47387
L46951 47537
L46988 47612
L47026 47649
L47101 47687
L47251 47687
L47326 47649
L47363 47612
L47401 47537
L47401 47387
L47363 47312
L47326 47275
L47251 47237
L47101 47237
L47026 47275
L46988 47312
L46951 47387
" />
<path d="M46876 46900
L47663 46900
" />
<path d="M46913 46900
L46876 46825
L46876 46675
L46913 46600
L46951 46562
L47026 46525
L47251 46525
L47326 46562
L47363 46600
L47401 46675
L47401 46825
L47363 46900
" />
</g>
<g style="fill:#000000; fill-opacity:0.0; 
stroke:#000000; stroke-width:62.9921; stroke-opacity:1; 
stroke-linecap:round; stroke-linejoin:round;">
<g transform="rotate(-90 48367.9 47481.3)">
<text x="48367.9" y="47875"
textLength="2440.76" font-size="1049.87" lengthAdjust="spacingAndGlyphs"
text-anchor="middle" opacity="0">C18</text>
</g>
<path d="M48649 47987
L48686 48024
L48724 48137
L48724 48212
L48686 48324
L48611 48399
L48536 48437
L48386 48474
L48274 48474
L48124 48437
L48049 48399
L47974 48324
L47936 48212
L47936 48137
L47974 48024
L48011 47987
" />
<path d="M48724 47237
L48724 47687
" />
<path d="M48724 47462
L47936 47462
L48049 47537
L48124 47612
L48161 47687
" />
<path d="M48274 46787
L48236 46862
L48199 46900
L48124 46937
L48086 46937
L48011 46900
L47974 46862
L47936 46787
L47936 46637
L47974 46562
L48011 46525
L48086 46487
L48124 46487
L48199 46525
L48236 46562
L48274 46637
L48274 46787
L48311 46862
L48349 46900
L48424 46937
L48574 46937
L48649 46900
L48686 46862
L48724 46787
L48724 46637
L48686 46562
L48649 46525
L48574 46487
L48424 46487
L48349 46525
L48311 46562
L48274 46637
" />
</g>
<g style="fill:#000000; fill-opacity:0.0; 
stroke:#000000; stroke-width:118.11; stroke-opacity:1; 
stroke-linecap:round; stroke-linejoin:round;">
<g transform="rotate(-90 49690.7 44331.7)">
<text x="49690.7" y="44725.4"
textLength="2294.11" font-size="1049.87" lengthAdjust="spacingAndGlyphs"
text-anchor="middle" opacity="0">18p</text>
</g>
<path d="M50046 44837
L50046 45287
" />
<path d="M50046 45062
L49259 45062
L49372 45137
L49447 45212
L49484 45287
" />
<path d="M49596 44387
L49559 44462
L49521 44500
L49447 44537
L49409 44537
L49334 44500
L49297 44462
L49259 44387
L49259 44237
L49297 44162
L49334 44125
L49409 44087
L49447 44087
L49521 44125
L49559 44162
L49596 44237
L49596 44387
L49634 44462
L49671 44500
L49746 44537
L49896 44537
L49971 44500
L50009 44462
L50046 44387
L50046 44237
L50009 44162
L49971 44125
L49896 44087
L49746 44087
L49671 44125
L49634 44162
L49596 44237
" />
<path d="M49521 43750
L50309 43750
" />
<path d="M49559 43750
L49521 43675
L49521 43525
L49559 43450
L49596 43413
L49671 43375
L49896 43375
L49971 43413
L50009 43450
L50046 43525
L50046 43675
L50009 43750
" />
</g>
<g style="fill:#000000; fill-opacity:0.0; 
stroke:#000000; stroke-width:62.9921; stroke-opacity:1; 
stroke-linecap:round; stroke-linejoin:round;">
<g transform="rotate(-90 48367.9 44331.7)">
<text x="48367.9" y="44725.4"
textLength="2440.76" font-size="1049.87" lengthAdjust="spacingAndGlyphs"
text-anchor="middle" opacity="0">C17</text>
</g>
<path d="M48649 44837
L48686 44875
L48724 44987
L48724 45062
L48686 45175
L48611 45250
L48536 45287
L48386 45325
L48274 45325
L48124 45287
L48049 45250
L47974 45175
L47936 45062
L47936 44987
L47974 44875
L48011 44837
" />
<path d="M48724 44087
L48724 44537
" />
<path d="M48724 44312
L47936 44312
L48049 44387
L48124 44462
L48161 44537
" />
<path d="M47936 43825
L47936 43300
L48724 43637
" />
</g>
<g style="fill:#000000; fill-opacity:0.0; 
stroke:#000000; stroke-width:118.11; stroke-opacity:1; 
stroke-linecap:round; stroke-linejoin:round;">
<text x="55801" y="51197.8"
textLength="3044.02" font-size="1049.87" lengthAdjust="spacingAndGlyphs"
text-anchor="middle" opacity="0">100n</text>
<path d="M54919 51160
L54469 51160
" />
<path d="M54694 51160
L54694 50372
L54619 50485
L54544 50560
L54469 50597
" />
<path d="M55407 50372
L55482 50372
L55557 50410
L55594 50447
L55632 50522
L55669 50672
L55669 50860
L55632 51010
L55594 51085
L55557 51122
L55482 51160
L55407 51160
L55332 51122
L55294 51085
L55257 51010
L55219 50860
L55219 50672
L55257 50522
L55294 50447
L55332 50410
L55407 50372
" />
<path d="M56157 50372
L56232 50372
L56307 50410
L56344 50447
L56382 50522
L56419 50672
L56419 50860
L56382 51010
L56344 51085
L56307 51122
L56232 51160
L56157 51160
L56082 51122
L56044 51085
L56007 51010
L55969 50860
L55969 50672
L56007 50522
L56044 50447
L56082 50410
L56157 50372
" />
<path d="M56757 50635
L56757 51160
" />
<path d="M56757 50710
L56794 50672
L56869 50635
L56982 50635
L57057 50672
L57094 50747
L57094 51160
" />
</g>
<g style="fill:#000000; fill-opacity:0.0; 
stroke:#000000; stroke-width:62.9921; stroke-opacity:1; 
stroke-linecap:round; stroke-linejoin:round;">
<text x="55801" y="52520.6"
textLength="2440.76" font-size="1049.87" lengthAdjust="spacingAndGlyphs"
text-anchor="middle" opacity="0">C19</text>
<path d="M55294 52408
L55257 52445
L55144 52483
L55069 52483
L54957 52445
L54882 52370
L54844 52295
L54807 52145
L54807 52033
L54844 51883
L54882 51808
L54957 51733
L55069 51695
L55144 51695
L55257 51733
L55294 51770
" />
<path d="M56044 52483
L55594 52483
" />
<path d="M55819 52483
L55819 51695
L55744 51808
L55669 51883
L55594 51920
" />
<path d="M56419 52483
L56569 52483
L56644 52445
L56682 52408
L56757 52295
L56794 52145
L56794 51845
L56757 51770
L56719 51733
L56644 51695
L56494 51695
L56419 51733
L56382 51770
L56344 51845
L56344 52033
L56382 52108
L56419 52145
L56494 52183
L56644 52183
L56719 52145
L56757 52108
L56794 52033
" />
</g>
<g style="fill:#000000; fill-opacity:0.0; 
stroke:#000000; stroke-width:118.11; stroke-opacity:1; 
stroke-linecap:round; stroke-linejoin:round;">
<g transform="rotate(-90 45029.3 45756.9)">
<text x="45029.3" y="46150.6"
textLength="1506.71" font-size="1049.87" lengthAdjust="spacingAndGlyphs"
text-anchor="middle" opacity="0">Y1</text>
</g>
<path d="M45010 46131
L45385 46131
" />
<path d="M44598 46394
L45010 46131
L44598 45869
" />
<path d="M45385 45194
L45385 45644
" />
<path d="M45385 45419
L44598 45419
L44710 45494
L44785 45569
L44823 45644
" />
</g>
<g style="fill:#000000; fill-opacity:0.0; 
stroke:#000000; stroke-width:94.4882; stroke-opacity:1; 
stroke-linecap:round; stroke-linejoin:round;">
<text x="61903.3" y="51536.4"
textLength="2553.24" font-size="1049.87" lengthAdjust="spacingAndGlyphs"
text-anchor="middle" opacity="0">SW1</text>
<path d="M60853 51461
L60965 51498
L61153 51498
L61228 51461
L61265 51423
L61303 51348
L61303 51273
L61265 51198
L61228 51161
L61153 51123
L61003 51086
L60928 51048
L60890 51011
L60853 50936
L60853 50861
L60890 50786
L60928 50748
L61003 50711
L61190 50711
L61303 50748
" />
<path d="M61565 50711
L61753 51498
L61903 50936
L62053 51498
L62240 50711
" />
<path d="M62953 51498
L62503 51498
" />
<path d="M62728 51498
L62728 50711
L62653 50823
L62578 50898
L62503 50936
" />
<g >
</g>
</g> 
</svg>
