<?xml version="1.0" standalone="no"?>
 <!DOCTYPE svg PUBLIC "-//W3C//DTD SVG 1.1//EN" 
 "http://www.w3.org/Graphics/SVG/1.1/DTD/svg11.dtd"> 
<svg
  xmlns:svg="http://www.w3.org/2000/svg"
  xmlns="http://www.w3.org/2000/svg"
  xmlns:xlink="http://www.w3.org/1999/xlink"
  version="1.1"
  width="29.700220cm" height="21.000720cm" viewBox="0 0 116930 82680">
<title>SVG Picture created as board-F_CrtYd.svg date 2021/03/29 15:50:43 </title>
  <desc>Picture generated by PCBNEW </desc>
<g style="fill:#000000; fill-opacity:1;stroke:#000000; stroke-opacity:1;
stroke-linecap:round; stroke-linejoin:round;"
 transform="translate(0 0) scale(1 1)">
</g>
<g style="fill:#000000; fill-opacity:0.0; 
stroke:#000000; stroke-width:-0.000787402; stroke-opacity:1; 
stroke-linecap:round; stroke-linejoin:round;">
</g>
<g style="fill:#000000; fill-opacity:0.0; 
stroke:#000000; stroke-width:78.7402; stroke-opacity:1; 
stroke-linecap:round; stroke-linejoin:round;">
<path d="M10289.1 57126.9 A2362.2 2362.2 0.0 0 0 12651.4 59489.1" />
<path d="M12651.4 22875 A2362.2 2362.2 0.0 0 0 10289.1 25237.2" />
<path d="M66982.1 25237.2 A2362.2 2362.2 0.0 0 0 64619.9 22875" />
<path d="M64619.9 59489.1 A2362.21 2362.21 0.0 0 0 66982.1 57126.9" />
<path d="M12651 59489
L64619 59489
" />
<path d="M10289 25237
L10289 57126
" />
<path d="M64619 22874
L12651 22874
" />
<path d="M66982 57126
L66982 25237
" />
</g>
<g style="fill:#000000; fill-opacity:0.0; 
stroke:#000000; stroke-width:39.3701; stroke-opacity:1; 
stroke-linecap:round; stroke-linejoin:round;">
<path d="M42611 28386
L17415 28386
" />
<path d="M17415 28386
L17415 53583
" />
<path d="M17415 53583
L42611 53583
" />
<path d="M42611 53583
L42611 28386
" />
<path d="M34974 58544
L34974 55748
" />
<path d="M34974 55748
L45761 55748
" />
<path d="M45761 55748
L45761 58544
" />
<path d="M45761 58544
L34974 58544
" />
<path d="M45210 23819
L58005 23819
" />
<path d="M45210 26615
L45210 23819
" />
<path d="M58005 26615
L45210 26615
" />
<path d="M58005 23819
L58005 26615
" />
<path d="M11234 53544
L11234 28741
" />
<path d="M14029 53544
L11234 53544
" />
<path d="M14029 28741
L14029 53544
" />
<path d="M11234 28741
L14029 28741
" />
<path d="M43320 26654
L18517 26654
" />
<path d="M43320 23859
L43320 26654
" />
<path d="M18517 23859
L43320 23859
" />
<path d="M18517 26654
L18517 23859
" />
<path d="M35328 58544
L18517 58544
" />
<path d="M35328 55748
L35328 58544
" />
<path d="M18517 55748
L35328 55748
" />
<path d="M18517 58544
L18517 55748
" />
<path d="M53084 54056
L49462 54056
" />
<path d="M53084 54056
L53084 52087
" />
<path d="M49462 52087
L49462 54056
" />
<path d="M49462 52087
L53084 52087
" />
<path d="M48281 54056
L44659 54056
" />
<path d="M48281 54056
L48281 52087
" />
<path d="M44659 52087
L44659 54056
" />
<path d="M44659 52087
L48281 52087
" />
<circle cx="12651.4" cy="57126.9" r="2165.35" /> 
<circle cx="64619.9" cy="57050.7" r="2165.35" /> 
<circle cx="12651.4" cy="25237.2" r="2165.35" /> 
<circle cx="64619.9" cy="25237.2" r="2165.35" /> 
<path d="M58753 42166
L58753 39252
" />
<path d="M60249 42166
L58753 42166
" />
<path d="M60249 39252
L60249 42166
" />
<path d="M58753 39252
L60249 39252
" />
<path d="M52651 39252
L52651 42166
" />
<path d="M51155 39252
L52651 39252
" />
<path d="M51155 42166
L51155 39252
" />
<path d="M52651 42166
L51155 42166
" />
<path d="M58753 30473
L60249 30473
" />
<path d="M60249 30473
L60249 33386
" />
<path d="M60249 33386
L58753 33386
" />
<path d="M58753 33386
L58753 30473
" />
<path d="M52651 33386
L51155 33386
" />
<path d="M51155 33386
L51155 30473
" />
<path d="M51155 30473
L52651 30473
" />
<path d="M52651 30473
L52651 33386
" />
<path d="M55800 39331
L55800 42087
" />
<path d="M53123 39331
L55800 39331
" />
<path d="M53123 42087
L53123 39331
" />
<path d="M55800 42087
L53123 42087
" />
<path d="M55800 33308
L53123 33308
" />
<path d="M53123 33308
L53123 30552
" />
<path d="M53123 30552
L55800 30552
" />
<path d="M55800 30552
L55800 33308
" />
<path d="M62218 34843
L62218 43662
" />
<path d="M62218 43662
L71942 43662
" />
<path d="M71942 43662
L71942 34843
" />
<path d="M71942 34843
L62218 34843
" />
<path d="M56548 42184
L56548 39270
" />
<path d="M58045 42184
L56548 42184
" />
<path d="M58045 39270
L58045 42184
" />
<path d="M56548 39270
L58045 39270
" />
<path d="M56548 30491
L58045 30491
" />
<path d="M58045 30491
L58045 33404
" />
<path d="M58045 33404
L56548 33404
" />
<path d="M56548 33404
L56548 30491
" />
<path d="M54344 50709
L54344 49213
" />
<path d="M54344 49213
L57257 49213
" />
<path d="M57257 49213
L57257 50709
" />
<path d="M57257 50709
L54344 50709
" />
<path d="M57257 47048
L57257 48544
" />
<path d="M57257 48544
L54344 48544
" />
<path d="M54344 48544
L54344 47048
" />
<path d="M54344 47048
L57257 47048
" />
<path d="M47596 46000
L49139 46000
" />
<path d="M49139 46000
L49139 48961
" />
<path d="M49139 48961
L47596 48961
" />
<path d="M47596 48961
L47596 46000
" />
<path d="M49139 45811
L47596 45811
" />
<path d="M47596 45811
L47596 42851
" />
<path d="M47596 42851
L49139 42851
" />
<path d="M49139 42851
L49139 45811
" />
<path d="M57281 51355
L57281 52898
" />
<path d="M57281 52898
L54320 52898
" />
<path d="M54320 52898
L54320 51355
" />
<path d="M54320 51355
L57281 51355
" />
<path d="M42824 50512
L47234 50512
" />
<path d="M47234 50512
L47234 40985
" />
<path d="M47234 40985
L42824 40985
" />
<path d="M42824 40985
L42824 50512
" />
<path d="M58360 48189
L58163 48189
" />
<path d="M58163 48189
L58163 48386
" />
<path d="M58360 54095
L58163 54095
" />
<path d="M58163 54095
L58163 53898
" />
<path d="M65643 53898
L65643 54095
" />
<path d="M65643 54095
L65446 54095
" />
<path d="M65643 48386
L65643 48189
" />
<path d="M65643 48189
L65446 48189
" />
<path d="M65446 54095
L58360 54095
" />
<path d="M65643 48386
L65643 53898
" />
<path d="M58360 48189
L65446 48189
" />
<path d="M58163 53898
L58163 48386
" />
<g >
</g>
<g >
</g>
<g >
</g>
<g >
</g>
<g >
</g>
<g >
</g>
<g >
</g>
<g >
</g>
<g >
</g>
<g >
</g>
<g >
</g>
<g >
</g>
<g >
</g>
<g >
</g>
<g >
</g>
<g >
</g>
<g >
</g>
<g >
</g>
<g >
</g>
<g >
</g>
<g >
</g>
<g >
</g>
<g >
</g>
<g >
</g>
<g >
</g>
<g >
</g>
<g >
</g>
<g >
</g>
<g >
</g>
<g >
</g>
<g >
</g>
<g >
</g>
<g >
</g>
<g >
</g>
<g >
</g>
<g >
</g>
<g >
</g>
<g >
</g>
<g >
</g>
<g >
</g>
<g >
</g>
<g >
</g>
<g >
</g>
<g >
</g>
<g >
</g>
<g >
</g>
<g >
</g>
<g >
</g>
<g >
</g>
</g> 
</svg>
