<?xml version="1.0" standalone="no"?>
 <!DOCTYPE svg PUBLIC "-//W3C//DTD SVG 1.1//EN" 
 "http://www.w3.org/Graphics/SVG/1.1/DTD/svg11.dtd"> 
<svg
  xmlns:svg="http://www.w3.org/2000/svg"
  xmlns="http://www.w3.org/2000/svg"
  xmlns:xlink="http://www.w3.org/1999/xlink"
  version="1.1"
  width="29.700220cm" height="21.000720cm" viewBox="0 0 116930 82680">
<title>SVG Picture created as board-B_SilkS.svg date 2021/03/29 15:50:44 </title>
  <desc>Picture generated by PCBNEW </desc>
<g style="fill:#000000; fill-opacity:1;stroke:#000000; stroke-opacity:1;
stroke-linecap:round; stroke-linejoin:round;"
 transform="translate(0 0) scale(1 1)">
</g>
<g style="fill:#000000; fill-opacity:0.0; 
stroke:#000000; stroke-width:-0.000787402; stroke-opacity:1; 
stroke-linecap:round; stroke-linejoin:round;">
</g>
<g style="fill:#000000; fill-opacity:0.0; 
stroke:#000000; stroke-width:118.11; stroke-opacity:1; 
stroke-linecap:round; stroke-linejoin:round;">
<g transform="rotate(-180 60942.5 42008.8)">
<text x="60942.5" y="42402.5"
transform="scale(-1 1) translate(-121885.006299 0)"
textLength="1383.76" font-size="1049.87" lengthAdjust="spacingAndGlyphs"
text-anchor="start" opacity="0">RX</text>
</g>
<path d="M61656 41652
L61394 42027
" />
<path d="M61206 41652
L61206 42440
L61506 42440
L61581 42402
L61619 42365
L61656 42290
L61656 42177
L61619 42102
L61581 42065
L61506 42027
L61206 42027
" />
<path d="M61919 42440
L62444 41652
" />
<path d="M62444 42440
L61919 41652
" />
<g transform="rotate(-180 61055 36182.1)">
<text x="61055" y="36575.8"
transform="scale(-1 1) translate(-122109.977953 0)"
textLength="1271.28" font-size="1049.87" lengthAdjust="spacingAndGlyphs"
text-anchor="start" opacity="0">5V</text>
</g>
<path d="M61694 36613
L61319 36613
L61281 36238
L61319 36275
L61394 36313
L61581 36313
L61656 36275
L61694 36238
L61731 36163
L61731 35975
L61694 35900
L61656 35863
L61581 35825
L61394 35825
L61319 35863
L61281 35900
" />
<path d="M61956 36613
L62219 35825
L62481 36613
" />
<g transform="rotate(-180 61130 40276.5)">
<text x="61130" y="40670.2"
transform="scale(-1 1) translate(-122259.959055 0)"
textLength="1196.29" font-size="1049.87" lengthAdjust="spacingAndGlyphs"
text-anchor="start" opacity="0">TX</text>
</g>
<path d="M61281 40707
L61731 40707
" />
<path d="M61506 39920
L61506 40707
" />
<path d="M61919 40707
L62444 39920
" />
<path d="M62444 40707
L61919 39920
" />
<g transform="rotate(-180 60080.1 38229.3)">
<text x="60080.1" y="38623"
transform="scale(-1 1) translate(-120160.222047 0)"
textLength="2246.16" font-size="1049.87" lengthAdjust="spacingAndGlyphs"
text-anchor="start" opacity="0">GND</text>
</g>
<path d="M60756 38622
L60681 38660
L60569 38660
L60456 38622
L60381 38548
L60344 38473
L60306 38323
L60306 38210
L60344 38060
L60381 37985
L60456 37910
L60569 37873
L60644 37873
L60756 37910
L60794 37948
L60794 38210
L60644 38210
" />
<path d="M61131 37873
L61131 38660
L61581 37873
L61581 38660
" />
<path d="M61956 37873
L61956 38660
L62144 38660
L62256 38622
L62331 38548
L62369 38473
L62406 38323
L62406 38210
L62369 38060
L62331 37985
L62256 37910
L62144 37873
L61956 37873
" />
<text x="51037.2" y="27441.9"
transform="scale(-1 1) translate(-102074.357480 0)"
textLength="633.858" font-size="1049.87" lengthAdjust="spacingAndGlyphs"
text-anchor="start" opacity="0">G</text>
<path d="M50360 26654
L50435 26616
L50547 26616
L50660 26654
L50735 26729
L50772 26804
L50810 26954
L50810 27066
L50772 27216
L50735 27291
L50660 27366
L50547 27404
L50472 27404
L50360 27366
L50322 27329
L50322 27066
L50472 27066
" />
<text x="46942.7" y="27441.9"
transform="scale(-1 1) translate(-93885.381102 0)"
textLength="633.858" font-size="1049.87" lengthAdjust="spacingAndGlyphs"
text-anchor="start" opacity="0">G</text>
<path d="M46265 26654
L46340 26616
L46453 26616
L46565 26654
L46640 26729
L46678 26804
L46715 26954
L46715 27066
L46678 27216
L46640 27291
L46565 27366
L46453 27404
L46378 27404
L46265 27366
L46228 27329
L46228 27066
L46378 27066
" />
<text x="49747.3" y="27441.9"
transform="scale(-1 1) translate(-99494.680315 0)"
textLength="2021.19" font-size="1049.87" lengthAdjust="spacingAndGlyphs"
text-anchor="start" opacity="0">3V3</text>
<path d="M49558 26616
L49070 26616
L49333 26916
L49220 26916
L49145 26954
L49108 26991
L49070 27066
L49070 27254
L49108 27329
L49145 27366
L49220 27404
L49445 27404
L49520 27366
L49558 27329
" />
<path d="M48845 26616
L48583 27404
L48320 26616
" />
<path d="M48133 26616
L47645 26616
L47908 26916
L47795 26916
L47720 26954
L47683 26991
L47645 27066
L47645 27254
L47683 27329
L47720 27366
L47795 27404
L48020 27404
L48095 27366
L48133 27329
" />
<text x="54974.2" y="27441.9"
transform="scale(-1 1) translate(-109948.373228 0)"
textLength="633.858" font-size="1049.87" lengthAdjust="spacingAndGlyphs"
text-anchor="start" opacity="0">G</text>
<path d="M54297 26654
L54372 26616
L54484 26616
L54597 26654
L54672 26729
L54709 26804
L54747 26954
L54747 27066
L54709 27216
L54672 27291
L54597 27366
L54484 27404
L54409 27404
L54297 27366
L54259 27329
L54259 27066
L54409 27066
" />
<text x="57501.4" y="27441.9"
transform="scale(-1 1) translate(-115002.741732 0)"
textLength="1271.28" font-size="1049.87" lengthAdjust="spacingAndGlyphs"
text-anchor="start" opacity="0">5V</text>
<path d="M56862 26616
L57237 26616
L57274 26991
L57237 26954
L57162 26916
L56974 26916
L56899 26954
L56862 26991
L56824 27066
L56824 27254
L56862 27329
L56899 27366
L56974 27404
L57162 27404
L57237 27366
L57274 27329
" />
<path d="M56599 26616
L56337 27404
L56074 26616
" />
<text x="53684.3" y="27441.9"
transform="scale(-1 1) translate(-107368.696063 0)"
textLength="2021.19" font-size="1049.87" lengthAdjust="spacingAndGlyphs"
text-anchor="start" opacity="0">1V8</text>
<path d="M53007 27404
L53457 27404
" />
<path d="M53232 27404
L53232 26616
L53307 26729
L53382 26804
L53457 26841
" />
<path d="M52782 26616
L52520 27404
L52257 26616
" />
<path d="M51882 26954
L51957 26916
L51995 26879
L52032 26804
L52032 26766
L51995 26691
L51957 26654
L51882 26616
L51732 26616
L51657 26654
L51620 26691
L51582 26766
L51582 26804
L51620 26879
L51657 26916
L51732 26954
L51882 26954
L51957 26991
L51995 27029
L52032 27104
L52032 27254
L51995 27329
L51957 27366
L51882 27404
L51732 27404
L51657 27366
L51620 27329
L51582 27254
L51582 27104
L51620 27029
L51657 26991
L51732 26954
" />
<g transform="rotate(-90 24194.3 54349.5)">
<text x="24194.3" y="54743.2"
transform="scale(-1 1) translate(-48388.568504 0)"
textLength="1271.28" font-size="1049.87" lengthAdjust="spacingAndGlyphs"
text-anchor="start" opacity="0">A5</text>
</g>
<path d="M24325 54576
L24325 54951
" />
<path d="M24550 54501
L23763 54763
L24550 55026
" />
<path d="M23763 55663
L23763 55288
L24138 55251
L24100 55288
L24063 55363
L24063 55551
L24100 55626
L24138 55663
L24213 55701
L24400 55701
L24475 55663
L24512 55626
L24550 55551
L24550 55363
L24512 55288
L24475 55251
" />
<g transform="rotate(-90 30024.8 54424.5)">
<text x="30024.8" y="54818.2"
transform="scale(-1 1) translate(-60049.611024 0)"
textLength="1196.29" font-size="1049.87" lengthAdjust="spacingAndGlyphs"
text-anchor="start" opacity="0">TX</text>
</g>
<path d="M29593 54576
L29593 55026
" />
<path d="M30381 54801
L29593 54801
" />
<path d="M29593 55213
L30381 55738
" />
<path d="M29593 55738
L30381 55213
" />
<g transform="rotate(-90 22225.8 54349.5)">
<text x="22225.8" y="54743.2"
transform="scale(-1 1) translate(-44451.560630 0)"
textLength="1271.28" font-size="1049.87" lengthAdjust="spacingAndGlyphs"
text-anchor="start" opacity="0">A6</text>
</g>
<path d="M22357 54576
L22357 54951
" />
<path d="M22581 54501
L21794 54763
L22581 55026
" />
<path d="M21794 55626
L21794 55476
L21832 55401
L21869 55363
L21982 55288
L22132 55251
L22432 55251
L22506 55288
L22544 55326
L22581 55401
L22581 55551
L22544 55626
L22506 55663
L22432 55701
L22244 55701
L22169 55663
L22132 55626
L22094 55551
L22094 55401
L22132 55326
L22169 55288
L22244 55251
" />
<g transform="rotate(-90 32068.3 54349.5)">
<text x="32068.3" y="54743.2"
transform="scale(-1 1) translate(-64136.600000 0)"
textLength="1271.28" font-size="1049.87" lengthAdjust="spacingAndGlyphs"
text-anchor="start" opacity="0">A1</text>
</g>
<path d="M32199 54576
L32199 54951
" />
<path d="M32424 54501
L31637 54763
L32424 55026
" />
<path d="M32424 55701
L32424 55251
" />
<path d="M32424 55476
L31637 55476
L31749 55401
L31824 55326
L31862 55251
" />
<g transform="rotate(-90 20021.1 54349.5)">
<text x="20021.1" y="54743.2"
transform="scale(-1 1) translate(-40042.111811 0)"
textLength="1271.28" font-size="1049.87" lengthAdjust="spacingAndGlyphs"
text-anchor="start" opacity="0">A7</text>
</g>
<path d="M20152 54576
L20152 54951
" />
<path d="M20377 54501
L19589 54763
L20377 55026
" />
<path d="M19589 55213
L19589 55738
L20377 55401
" />
<g transform="rotate(-90 28243.8 54237)">
<text x="28243.8" y="54630.7"
transform="scale(-1 1) translate(-56487.555906 0)"
textLength="1383.76" font-size="1049.87" lengthAdjust="spacingAndGlyphs"
text-anchor="start" opacity="0">RX</text>
</g>
<path d="M28599 54951
L28225 54688
" />
<path d="M28599 54501
L27812 54501
L27812 54801
L27850 54876
L27887 54913
L27962 54951
L28075 54951
L28150 54913
L28187 54876
L28225 54801
L28225 54501
" />
<path d="M27812 55213
L28599 55738
" />
<path d="M27812 55738
L28599 55213
" />
<g transform="rotate(-90 34036.8 54349.5)">
<text x="34036.8" y="54743.2"
transform="scale(-1 1) translate(-68073.607874 0)"
textLength="1271.28" font-size="1049.87" lengthAdjust="spacingAndGlyphs"
text-anchor="start" opacity="0">A0</text>
</g>
<path d="M34168 54576
L34168 54951
" />
<path d="M34393 54501
L33605 54763
L34393 55026
" />
<path d="M33605 55438
L33605 55513
L33643 55588
L33680 55626
L33755 55663
L33905 55701
L34093 55701
L34243 55663
L34318 55626
L34355 55588
L34393 55513
L34393 55438
L34355 55363
L34318 55326
L34243 55288
L34093 55251
L33905 55251
L33755 55288
L33680 55326
L33643 55363
L33605 55438
" />
<g transform="rotate(-90 26162.8 54349.5)">
<text x="26162.8" y="54743.2"
transform="scale(-1 1) translate(-52325.576378 0)"
textLength="1271.28" font-size="1049.87" lengthAdjust="spacingAndGlyphs"
text-anchor="start" opacity="0">A4</text>
</g>
<path d="M26294 54576
L26294 54951
" />
<path d="M26518 54501
L25731 54763
L26518 55026
" />
<path d="M25994 55626
L26518 55626
" />
<path d="M25694 55438
L26256 55251
L26256 55738
" />
<g transform="rotate(-90 39861.5 26198)">
<text x="39861.5" y="26591.7"
transform="scale(-1 1) translate(-79723.051969 0)"
textLength="1383.76" font-size="1049.87" lengthAdjust="spacingAndGlyphs"
text-anchor="start" opacity="0">B1</text>
</g>
<path d="M39805 26724
L39842 26837
L39880 26874
L39955 26912
L40067 26912
L40142 26874
L40180 26837
L40217 26762
L40217 26462
L39430 26462
L39430 26724
L39467 26799
L39505 26837
L39580 26874
L39655 26874
L39730 26837
L39767 26799
L39805 26724
L39805 26462
" />
<path d="M40217 27662
L40217 27212
" />
<path d="M40217 27437
L39430 27437
L39542 27362
L39617 27287
L39655 27212
" />
<g transform="rotate(-90 33848.6 26198)">
<text x="33848.6" y="26591.7"
transform="scale(-1 1) translate(-67697.285039 0)"
textLength="1383.76" font-size="1049.87" lengthAdjust="spacingAndGlyphs"
text-anchor="start" opacity="0">B4</text>
</g>
<path d="M33792 26724
L33829 26837
L33867 26874
L33942 26912
L34054 26912
L34129 26874
L34167 26837
L34204 26762
L34204 26462
L33417 26462
L33417 26724
L33454 26799
L33492 26837
L33567 26874
L33642 26874
L33717 26837
L33754 26799
L33792 26724
L33792 26462
" />
<path d="M33679 27587
L34204 27587
" />
<path d="M33379 27399
L33942 27212
L33942 27699
" />
<g transform="rotate(-90 23827.2 26198)">
<text x="23827.2" y="26591.7"
transform="scale(-1 1) translate(-47654.340157 0)"
textLength="1383.76" font-size="1049.87" lengthAdjust="spacingAndGlyphs"
text-anchor="start" opacity="0">B9</text>
</g>
<path d="M23770 26724
L23808 26837
L23845 26874
L23920 26912
L24033 26912
L24108 26874
L24145 26837
L24183 26762
L24183 26462
L23395 26462
L23395 26724
L23433 26799
L23470 26837
L23545 26874
L23620 26874
L23695 26837
L23733 26799
L23770 26724
L23770 26462
" />
<path d="M24183 27287
L24183 27437
L24145 27512
L24108 27549
L23995 27624
L23845 27662
L23545 27662
L23470 27624
L23433 27587
L23395 27512
L23395 27362
L23433 27287
L23470 27249
L23545 27212
L23733 27212
L23808 27249
L23845 27287
L23883 27362
L23883 27512
L23845 27587
L23808 27624
L23733 27662
" />
<g transform="rotate(-90 27835.8 26198)">
<text x="27835.8" y="26591.7"
transform="scale(-1 1) translate(-55671.518110 0)"
textLength="1383.76" font-size="1049.87" lengthAdjust="spacingAndGlyphs"
text-anchor="start" opacity="0">B7</text>
</g>
<path d="M27779 26724
L27817 26837
L27854 26874
L27929 26912
L28041 26912
L28116 26874
L28154 26837
L28191 26762
L28191 26462
L27404 26462
L27404 26724
L27442 26799
L27479 26837
L27554 26874
L27629 26874
L27704 26837
L27742 26799
L27779 26724
L27779 26462
" />
<path d="M27404 27174
L27404 27699
L28191 27362
" />
<g transform="rotate(-90 29840.1 26198)">
<text x="29840.1" y="26591.7"
transform="scale(-1 1) translate(-59680.107087 0)"
textLength="1383.76" font-size="1049.87" lengthAdjust="spacingAndGlyphs"
text-anchor="start" opacity="0">B6</text>
</g>
<path d="M29783 26724
L29821 26837
L29858 26874
L29933 26912
L30046 26912
L30121 26874
L30158 26837
L30196 26762
L30196 26462
L29408 26462
L29408 26724
L29446 26799
L29483 26837
L29558 26874
L29633 26874
L29708 26837
L29746 26799
L29783 26724
L29783 26462
" />
<path d="M29408 27587
L29408 27437
L29446 27362
L29483 27324
L29596 27249
L29746 27212
L30046 27212
L30121 27249
L30158 27287
L30196 27362
L30196 27512
L30158 27587
L30121 27624
L30046 27662
L29858 27662
L29783 27624
L29746 27587
L29708 27512
L29708 27362
L29746 27287
L29783 27249
L29858 27212
" />
<g transform="rotate(-90 19938.6 26198)">
<text x="19938.6" y="26591.7"
transform="scale(-1 1) translate(-39877.132283 0)"
textLength="2133.67" font-size="1049.87" lengthAdjust="spacingAndGlyphs"
text-anchor="start" opacity="0">B11</text>
</g>
<path d="M19882 26724
L19919 26837
L19957 26874
L20032 26912
L20144 26912
L20219 26874
L20257 26837
L20294 26762
L20294 26462
L19507 26462
L19507 26724
L19544 26799
L19582 26837
L19657 26874
L19732 26874
L19807 26837
L19844 26799
L19882 26724
L19882 26462
" />
<path d="M20294 27662
L20294 27212
" />
<path d="M20294 27437
L19507 27437
L19619 27362
L19694 27287
L19732 27212
" />
<path d="M20294 28411
L20294 27962
" />
<path d="M20294 28187
L19507 28187
L19619 28112
L19694 28037
L19732 27962
" />
<g transform="rotate(-90 31844.3 26198)">
<text x="31844.3" y="26591.7"
transform="scale(-1 1) translate(-63688.696063 0)"
textLength="1383.76" font-size="1049.87" lengthAdjust="spacingAndGlyphs"
text-anchor="start" opacity="0">B5</text>
</g>
<path d="M31788 26724
L31825 26837
L31863 26874
L31938 26912
L32050 26912
L32125 26874
L32163 26837
L32200 26762
L32200 26462
L31413 26462
L31413 26724
L31450 26799
L31488 26837
L31563 26874
L31638 26874
L31713 26837
L31750 26799
L31788 26724
L31788 26462
" />
<path d="M31413 27624
L31413 27249
L31788 27212
L31750 27249
L31713 27324
L31713 27512
L31750 27587
L31788 27624
L31863 27662
L32050 27662
L32125 27624
L32163 27587
L32200 27512
L32200 27324
L32163 27249
L32125 27212
" />
<g transform="rotate(-90 25831.5 26198)">
<text x="25831.5" y="26591.7"
transform="scale(-1 1) translate(-51662.929134 0)"
textLength="1383.76" font-size="1049.87" lengthAdjust="spacingAndGlyphs"
text-anchor="start" opacity="0">B8</text>
</g>
<path d="M25775 26724
L25812 26837
L25850 26874
L25925 26912
L26037 26912
L26112 26874
L26150 26837
L26187 26762
L26187 26462
L25400 26462
L25400 26724
L25437 26799
L25475 26837
L25550 26874
L25625 26874
L25700 26837
L25737 26799
L25775 26724
L25775 26462
" />
<path d="M25737 27362
L25700 27287
L25662 27249
L25587 27212
L25550 27212
L25475 27249
L25437 27287
L25400 27362
L25400 27512
L25437 27587
L25475 27624
L25550 27662
L25587 27662
L25662 27624
L25700 27587
L25737 27512
L25737 27362
L25775 27287
L25812 27249
L25887 27212
L26037 27212
L26112 27249
L26150 27287
L26187 27362
L26187 27512
L26150 27587
L26112 27624
L26037 27662
L25887 27662
L25812 27624
L25775 27587
L25737 27512
" />
<g transform="rotate(-90 35852.9 26198)">
<text x="35852.9" y="26591.7"
transform="scale(-1 1) translate(-71705.874016 0)"
textLength="1383.76" font-size="1049.87" lengthAdjust="spacingAndGlyphs"
text-anchor="start" opacity="0">B3</text>
</g>
<path d="M35796 26724
L35834 26837
L35871 26874
L35946 26912
L36059 26912
L36134 26874
L36171 26837
L36209 26762
L36209 26462
L35421 26462
L35421 26724
L35459 26799
L35496 26837
L35571 26874
L35646 26874
L35721 26837
L35759 26799
L35796 26724
L35796 26462
" />
<path d="M35421 27174
L35421 27662
L35721 27399
L35721 27512
L35759 27587
L35796 27624
L35871 27662
L36059 27662
L36134 27624
L36171 27587
L36209 27512
L36209 27287
L36171 27212
L36134 27174
" />
<g transform="rotate(-90 21942.7 26198)">
<text x="21942.7" y="26591.7"
transform="scale(-1 1) translate(-43885.381102 0)"
textLength="2133.67" font-size="1049.87" lengthAdjust="spacingAndGlyphs"
text-anchor="start" opacity="0">B10</text>
</g>
<path d="M21886 26724
L21923 26837
L21961 26874
L22036 26912
L22148 26912
L22223 26874
L22261 26837
L22298 26762
L22298 26462
L21511 26462
L21511 26724
L21548 26799
L21586 26837
L21661 26874
L21736 26874
L21811 26837
L21848 26799
L21886 26724
L21886 26462
" />
<path d="M22298 27662
L22298 27212
" />
<path d="M22298 27437
L21511 27437
L21623 27362
L21698 27287
L21736 27212
" />
<path d="M21511 28149
L21511 28224
L21548 28299
L21586 28337
L21661 28374
L21811 28411
L21998 28411
L22148 28374
L22223 28337
L22261 28299
L22298 28224
L22298 28149
L22261 28074
L22223 28037
L22148 27999
L21998 27962
L21811 27962
L21661 27999
L21586 28037
L21548 28074
L21511 28149
" />
<g transform="rotate(-90 37857.2 26198)">
<text x="37857.2" y="26591.7"
transform="scale(-1 1) translate(-75714.462992 0)"
textLength="1383.76" font-size="1049.87" lengthAdjust="spacingAndGlyphs"
text-anchor="start" opacity="0">B2</text>
</g>
<path d="M37800 26724
L37838 26837
L37875 26874
L37950 26912
L38063 26912
L38138 26874
L38175 26837
L38213 26762
L38213 26462
L37426 26462
L37426 26724
L37463 26799
L37501 26837
L37576 26874
L37651 26874
L37725 26837
L37763 26799
L37800 26724
L37800 26462
" />
<path d="M37501 27212
L37463 27249
L37426 27324
L37426 27512
L37463 27587
L37501 27624
L37576 27662
L37651 27662
L37763 27624
L38213 27174
L38213 27662
" />
<g transform="rotate(-90 41865.8 26198)">
<text x="41865.8" y="26591.7"
transform="scale(-1 1) translate(-83731.650394 0)"
textLength="1383.76" font-size="1049.87" lengthAdjust="spacingAndGlyphs"
text-anchor="start" opacity="0">B0</text>
</g>
<path d="M41809 26724
L41847 26837
L41884 26874
L41959 26912
L42072 26912
L42147 26874
L42184 26837
L42222 26762
L42222 26462
L41434 26462
L41434 26724
L41472 26799
L41509 26837
L41584 26874
L41659 26874
L41734 26837
L41772 26799
L41809 26724
L41809 26462
" />
<path d="M41434 27399
L41434 27474
L41472 27549
L41509 27587
L41584 27624
L41734 27662
L41922 27662
L42072 27624
L42147 27587
L42184 27549
L42222 27474
L42222 27399
L42184 27324
L42147 27287
L42072 27249
L41922 27212
L41734 27212
L41584 27249
L41509 27287
L41472 27324
L41434 27399
" />
<g transform="rotate(-180 13968.4 36024.6)">
<text x="13968.4" y="36418.3"
transform="scale(-1 1) translate(-27936.749606 0)"
textLength="2133.67" font-size="1049.87" lengthAdjust="spacingAndGlyphs"
text-anchor="start" opacity="0">B15</text>
</g>
<path d="M14495 36080
L14607 36043
L14645 36005
L14682 35930
L14682 35818
L14645 35743
L14607 35705
L14532 35668
L14232 35668
L14232 36455
L14495 36455
L14570 36418
L14607 36380
L14645 36305
L14645 36230
L14607 36155
L14570 36118
L14495 36080
L14232 36080
" />
<path d="M15432 35668
L14982 35668
" />
<path d="M15207 35668
L15207 36455
L15132 36343
L15057 36268
L14982 36230
" />
<path d="M16144 36455
L15769 36455
L15732 36080
L15769 36118
L15844 36155
L16032 36155
L16107 36118
L16144 36080
L16182 36005
L16182 35818
L16144 35743
L16107 35705
L16032 35668
L15844 35668
L15769 35705
L15732 35743
" />
<g transform="rotate(-180 13968.4 48150.6)">
<text x="13968.4" y="48544.3"
transform="scale(-1 1) translate(-27936.749606 0)"
textLength="2021.19" font-size="1049.87" lengthAdjust="spacingAndGlyphs"
text-anchor="start" opacity="0">A10</text>
</g>
<path d="M14195 48019
L14570 48019
" />
<path d="M14120 47794
L14382 48581
L14645 47794
" />
<path d="M15319 47794
L14870 47794
" />
<path d="M15095 47794
L15095 48581
L15020 48469
L14945 48394
L14870 48356
" />
<path d="M15807 48581
L15882 48581
L15957 48544
L15994 48506
L16032 48431
L16069 48281
L16069 48094
L16032 47944
L15994 47869
L15957 47831
L15882 47794
L15807 47794
L15732 47831
L15694 47869
L15657 47944
L15619 48094
L15619 48281
L15657 48431
L15694 48506
L15732 48544
L15807 48581
" />
<g transform="rotate(-180 13968.4 46103.3)">
<text x="13968.4" y="46497"
transform="scale(-1 1) translate(-27936.749606 0)"
textLength="2021.19" font-size="1049.87" lengthAdjust="spacingAndGlyphs"
text-anchor="start" opacity="0">A11</text>
</g>
<path d="M14195 45972
L14570 45972
" />
<path d="M14120 45747
L14382 46534
L14645 45747
" />
<path d="M15319 45747
L14870 45747
" />
<path d="M15095 45747
L15095 46534
L15020 46422
L14945 46347
L14870 46309
" />
<path d="M16069 45747
L15619 45747
" />
<path d="M15844 45747
L15844 46534
L15769 46422
L15694 46347
L15619 46309
" />
<g transform="rotate(-180 13968.4 49882.8)">
<text x="13968.4" y="50276.5"
transform="scale(-1 1) translate(-27936.749606 0)"
textLength="1271.28" font-size="1049.87" lengthAdjust="spacingAndGlyphs"
text-anchor="start" opacity="0">A9</text>
</g>
<path d="M14195 49751
L14570 49751
" />
<path d="M14120 49526
L14382 50314
L14645 49526
" />
<path d="M14945 49526
L15095 49526
L15170 49564
L15207 49601
L15282 49714
L15319 49864
L15319 50164
L15282 50239
L15244 50276
L15170 50314
L15020 50314
L14945 50276
L14907 50239
L14870 50164
L14870 49976
L14907 49901
L14945 49864
L15020 49826
L15170 49826
L15244 49864
L15282 49901
L15319 49976
" />
<g transform="rotate(-180 13968.4 32245)">
<text x="13968.4" y="32638.7"
transform="scale(-1 1) translate(-27936.749606 0)"
textLength="2133.67" font-size="1049.87" lengthAdjust="spacingAndGlyphs"
text-anchor="start" opacity="0">B13</text>
</g>
<path d="M14495 32301
L14607 32263
L14645 32226
L14682 32151
L14682 32038
L14645 31963
L14607 31926
L14532 31888
L14232 31888
L14232 32676
L14495 32676
L14570 32638
L14607 32601
L14645 32526
L14645 32451
L14607 32376
L14570 32338
L14495 32301
L14232 32301
" />
<path d="M15432 31888
L14982 31888
" />
<path d="M15207 31888
L15207 32676
L15132 32563
L15057 32488
L14982 32451
" />
<path d="M15694 32676
L16182 32676
L15919 32376
L16032 32376
L16107 32338
L16144 32301
L16182 32226
L16182 32038
L16144 31963
L16107 31926
L16032 31888
L15807 31888
L15732 31926
L15694 31963
" />
<g transform="rotate(-180 13968.4 44056.1)">
<text x="13968.4" y="44449.8"
transform="scale(-1 1) translate(-27936.749606 0)"
textLength="2021.19" font-size="1049.87" lengthAdjust="spacingAndGlyphs"
text-anchor="start" opacity="0">A12</text>
</g>
<path d="M14195 43924
L14570 43924
" />
<path d="M14120 43699
L14382 44487
L14645 43699
" />
<path d="M15319 43699
L14870 43699
" />
<path d="M15095 43699
L15095 44487
L15020 44374
L14945 44299
L14870 44262
" />
<path d="M15619 44412
L15657 44449
L15732 44487
L15919 44487
L15994 44449
L16032 44412
L16069 44337
L16069 44262
L16032 44149
L15582 43699
L16069 43699
" />
<g transform="rotate(-180 13968.4 42166.3)">
<text x="13968.4" y="42560"
transform="scale(-1 1) translate(-27936.749606 0)"
textLength="2021.19" font-size="1049.87" lengthAdjust="spacingAndGlyphs"
text-anchor="start" opacity="0">A13</text>
</g>
<path d="M14195 42035
L14570 42035
" />
<path d="M14120 41810
L14382 42597
L14645 41810
" />
<path d="M15319 41810
L14870 41810
" />
<path d="M15095 41810
L15095 42597
L15020 42485
L14945 42410
L14870 42372
" />
<path d="M15582 42597
L16069 42597
L15807 42297
L15919 42297
L15994 42260
L16032 42222
L16069 42147
L16069 41960
L16032 41885
L15994 41847
L15919 41810
L15694 41810
L15619 41847
L15582 41885
" />
<g transform="rotate(-180 15171 30197.8)">
<text x="15171" y="30591.5"
transform="scale(-1 1) translate(-30342.074016 0)"
textLength="2133.67" font-size="1049.87" lengthAdjust="spacingAndGlyphs"
text-anchor="middle" opacity="0">B12</text>
</g>
<path d="M14477 30254
L14589 30216
L14627 30179
L14664 30104
L14664 29991
L14627 29916
L14589 29879
L14514 29841
L14214 29841
L14214 30628
L14477 30628
L14552 30591
L14589 30554
L14627 30479
L14627 30404
L14589 30329
L14552 30291
L14477 30254
L14214 30254
" />
<path d="M15414 29841
L14964 29841
" />
<path d="M15189 29841
L15189 30628
L15114 30516
L15039 30441
L14964 30404
" />
<path d="M15714 30554
L15752 30591
L15827 30628
L16014 30628
L16089 30591
L16127 30554
L16164 30479
L16164 30404
L16127 30291
L15677 29841
L16164 29841
" />
<g transform="rotate(-180 13968.4 40119.1)">
<text x="13968.4" y="40512.8"
transform="scale(-1 1) translate(-27936.749606 0)"
textLength="2021.19" font-size="1049.87" lengthAdjust="spacingAndGlyphs"
text-anchor="start" opacity="0">A14</text>
</g>
<path d="M14195 39987
L14570 39987
" />
<path d="M14120 39762
L14382 40550
L14645 39762
" />
<path d="M15319 39762
L14870 39762
" />
<path d="M15095 39762
L15095 40550
L15020 40437
L14945 40362
L14870 40325
" />
<path d="M15994 40287
L15994 39762
" />
<path d="M15807 40587
L15619 40025
L16107 40025
" />
<g transform="rotate(-180 13968.4 38229.3)">
<text x="13968.4" y="38623"
transform="scale(-1 1) translate(-27936.749606 0)"
textLength="2021.19" font-size="1049.87" lengthAdjust="spacingAndGlyphs"
text-anchor="start" opacity="0">A15</text>
</g>
<path d="M14195 38098
L14570 38098
" />
<path d="M14120 37873
L14382 38660
L14645 37873
" />
<path d="M15319 37873
L14870 37873
" />
<path d="M15095 37873
L15095 38660
L15020 38548
L14945 38473
L14870 38435
" />
<path d="M16032 38660
L15657 38660
L15619 38285
L15657 38323
L15732 38360
L15919 38360
L15994 38323
L16032 38285
L16069 38210
L16069 38023
L16032 37948
L15994 37910
L15919 37873
L15732 37873
L15657 37910
L15619 37948
" />
<g transform="rotate(-180 13968.4 34134.8)">
<text x="13968.4" y="34528.5"
transform="scale(-1 1) translate(-27936.749606 0)"
textLength="2133.67" font-size="1049.87" lengthAdjust="spacingAndGlyphs"
text-anchor="start" opacity="0">B14</text>
</g>
<path d="M14495 34191
L14607 34153
L14645 34116
L14682 34041
L14682 33928
L14645 33853
L14607 33816
L14532 33778
L14232 33778
L14232 34566
L14495 34566
L14570 34528
L14607 34491
L14645 34416
L14645 34341
L14607 34266
L14570 34228
L14495 34191
L14232 34191
" />
<path d="M15432 33778
L14982 33778
" />
<path d="M15207 33778
L15207 34566
L15132 34453
L15057 34378
L14982 34341
" />
<path d="M16107 34303
L16107 33778
" />
<path d="M15919 34603
L15732 34041
L16219 34041
" />
<g transform="rotate(-180 13968.4 51930.1)">
<text x="13968.4" y="52323.8"
transform="scale(-1 1) translate(-27936.749606 0)"
textLength="1271.28" font-size="1049.87" lengthAdjust="spacingAndGlyphs"
text-anchor="start" opacity="0">A8</text>
</g>
<path d="M14195 51798
L14570 51798
" />
<path d="M14120 51573
L14382 52361
L14645 51573
" />
<path d="M15020 52023
L14945 52061
L14907 52098
L14870 52173
L14870 52211
L14907 52286
L14945 52323
L15020 52361
L15170 52361
L15244 52323
L15282 52286
L15319 52211
L15319 52173
L15282 52098
L15244 52061
L15170 52023
L15020 52023
L14945 51986
L14907 51948
L14870 51873
L14870 51723
L14907 51648
L14945 51611
L15020 51573
L15170 51573
L15244 51611
L15282 51648
L15319 51723
L15319 51873
L15282 51948
L15244 51986
L15170 52023
" />
</g>
<g style="fill:#000000; fill-opacity:0.0; 
stroke:#000000; stroke-width:94.4882; stroke-opacity:1; 
stroke-linecap:round; stroke-linejoin:round;">
<g transform="rotate(-90 65879.7 39331.7)">
<text x="65879.7" y="39646.6"
transform="scale(-1 1) translate(-131759.396850 0)"
textLength="6325.65" font-size="839.894" lengthAdjust="spacingAndGlyphs"
text-anchor="middle" opacity="0">JLCJLCJLCJLC</text>
</g>
<path d="M65534 36422
L65984 36422
L66074 36392
L66134 36332
L66164 36242
L66164 36182
" />
<path d="M66164 37021
L66164 36721
L65534 36721
" />
<path d="M66104 37591
L66134 37561
L66164 37471
L66164 37411
L66134 37321
L66074 37261
L66014 37231
L65894 37201
L65804 37201
L65684 37231
L65624 37261
L65564 37321
L65534 37411
L65534 37471
L65564 37561
L65594 37591
" />
<path d="M65534 38041
L65984 38041
L66074 38011
L66134 37951
L66164 37861
L66164 37801
" />
<path d="M66164 38641
L66164 38341
L65534 38341
" />
<path d="M66104 39211
L66134 39181
L66164 39091
L66164 39031
L66134 38941
L66074 38881
L66014 38851
L65894 38821
L65804 38821
L65684 38851
L65624 38881
L65564 38941
L65534 39031
L65534 39091
L65564 39181
L65594 39211
" />
<path d="M65534 39661
L65984 39661
L66074 39631
L66134 39571
L66164 39481
L66164 39421
" />
<path d="M66164 40261
L66164 39961
L65534 39961
" />
<path d="M66104 40831
L66134 40801
L66164 40711
L66164 40651
L66134 40561
L66074 40501
L66014 40471
L65894 40441
L65804 40441
L65684 40471
L65624 40501
L65564 40561
L65534 40651
L65534 40711
L65564 40801
L65594 40831
" />
<path d="M65534 41281
L65984 41281
L66074 41251
L66134 41191
L66164 41101
L66164 41041
" />
<path d="M66164 41881
L66164 41581
L65534 41581
" />
<path d="M66104 42451
L66134 42421
L66164 42331
L66164 42271
L66134 42181
L66074 42121
L66014 42091
L65894 42061
L65804 42061
L65684 42091
L65624 42121
L65564 42181
L65534 42271
L65534 42331
L65564 42421
L65594 42451
" />
<text x="60840.3" y="56489.1"
transform="scale(-1 1) translate(-121680.656693 0)"
textLength="11065.8" font-size="839.894" lengthAdjust="spacingAndGlyphs"
text-anchor="start" opacity="0">Board by Leandro Heck</text>
<path d="M60418 56129
L60328 56159
L60298 56189
L60268 56249
L60268 56339
L60298 56399
L60328 56429
L60388 56459
L60628 56459
L60628 55829
L60418 55829
L60358 55859
L60328 55889
L60298 55949
L60298 56009
L60328 56069
L60358 56099
L60418 56129
L60628 56129
" />
<path d="M59909 56459
L59969 56429
L59999 56399
L60029 56339
L60029 56159
L59999 56099
L59969 56069
L59909 56039
L59819 56039
L59759 56069
L59729 56099
L59699 56159
L59699 56339
L59729 56399
L59759 56429
L59819 56459
L59909 56459
" />
<path d="M59159 56459
L59159 56129
L59189 56069
L59249 56039
L59369 56039
L59429 56069
" />
<path d="M59159 56429
L59219 56459
L59369 56459
L59429 56429
L59459 56369
L59459 56309
L59429 56249
L59369 56219
L59219 56219
L59159 56189
" />
<path d="M58859 56459
L58859 56039
" />
<path d="M58859 56159
L58829 56099
L58799 56069
L58739 56039
L58679 56039
" />
<path d="M58199 56459
L58199 55829
" />
<path d="M58199 56429
L58259 56459
L58379 56459
L58439 56429
L58469 56399
L58499 56339
L58499 56159
L58469 56099
L58439 56069
L58379 56039
L58259 56039
L58199 56069
" />
<path d="M57419 56459
L57419 55829
" />
<path d="M57419 56069
L57359 56039
L57239 56039
L57179 56069
L57149 56099
L57119 56159
L57119 56339
L57149 56399
L57179 56429
L57239 56459
L57359 56459
L57419 56429
" />
<path d="M56909 56039
L56759 56459
" />
<path d="M56609 56039
L56759 56459
L56819 56609
L56849 56639
L56909 56669
" />
<path d="M55589 56459
L55889 56459
L55889 55829
" />
<path d="M55139 56429
L55199 56459
L55319 56459
L55379 56429
L55409 56369
L55409 56129
L55379 56069
L55319 56039
L55199 56039
L55139 56069
L55109 56129
L55109 56189
L55409 56249
" />
<path d="M54569 56459
L54569 56129
L54599 56069
L54659 56039
L54779 56039
L54839 56069
" />
<path d="M54569 56429
L54629 56459
L54779 56459
L54839 56429
L54869 56369
L54869 56309
L54839 56249
L54779 56219
L54629 56219
L54569 56189
" />
<path d="M54269 56039
L54269 56459
" />
<path d="M54269 56099
L54239 56069
L54179 56039
L54089 56039
L54029 56069
L53999 56129
L53999 56459
" />
<path d="M53429 56459
L53429 55829
" />
<path d="M53429 56429
L53489 56459
L53609 56459
L53669 56429
L53699 56399
L53729 56339
L53729 56159
L53699 56099
L53669 56069
L53609 56039
L53489 56039
L53429 56069
" />
<path d="M53129 56459
L53129 56039
" />
<path d="M53129 56159
L53099 56099
L53069 56069
L53009 56039
L52949 56039
" />
<path d="M52649 56459
L52709 56429
L52739 56399
L52769 56339
L52769 56159
L52739 56099
L52709 56069
L52649 56039
L52559 56039
L52499 56069
L52469 56099
L52439 56159
L52439 56339
L52469 56399
L52499 56429
L52559 56459
L52649 56459
" />
<path d="M51690 56459
L51690 55829
" />
<path d="M51690 56129
L51330 56129
" />
<path d="M51330 56459
L51330 55829
" />
<path d="M50790 56429
L50850 56459
L50970 56459
L51030 56429
L51060 56369
L51060 56129
L51030 56069
L50970 56039
L50850 56039
L50790 56069
L50760 56129
L50760 56189
L51060 56249
" />
<path d="M50220 56429
L50280 56459
L50400 56459
L50460 56429
L50490 56399
L50520 56339
L50520 56159
L50490 56099
L50460 56069
L50400 56039
L50280 56039
L50220 56069
" />
<path d="M49950 56459
L49950 55829
" />
<path d="M49890 56219
L49710 56459
" />
<path d="M49710 56039
L49950 56279
" />
<text x="60840.3" y="57528.5"
transform="scale(-1 1) translate(-121680.656693 0)"
textLength="9146.01" font-size="839.894" lengthAdjust="spacingAndGlyphs"
text-anchor="start" opacity="0">leoheck@gmail.com</text>
<path d="M60538 57498
L60598 57468
L60628 57408
L60628 56868
" />
<path d="M60059 57468
L60118 57498
L60238 57498
L60298 57468
L60328 57408
L60328 57168
L60298 57108
L60238 57078
L60118 57078
L60059 57108
L60029 57168
L60029 57228
L60328 57288
" />
<path d="M59669 57498
L59729 57468
L59759 57438
L59789 57378
L59789 57198
L59759 57138
L59729 57108
L59669 57078
L59579 57078
L59519 57108
L59489 57138
L59459 57198
L59459 57378
L59489 57438
L59519 57468
L59579 57498
L59669 57498
" />
<path d="M59189 57498
L59189 56868
" />
<path d="M58919 57498
L58919 57168
L58949 57108
L59009 57078
L59099 57078
L59159 57108
L59189 57138
" />
<path d="M58379 57468
L58439 57498
L58559 57498
L58619 57468
L58649 57408
L58649 57168
L58619 57108
L58559 57078
L58439 57078
L58379 57108
L58349 57168
L58349 57228
L58649 57288
" />
<path d="M57809 57468
L57869 57498
L57989 57498
L58049 57468
L58079 57438
L58109 57378
L58109 57198
L58079 57138
L58049 57108
L57989 57078
L57869 57078
L57809 57108
" />
<path d="M57539 57498
L57539 56868
" />
<path d="M57479 57258
L57299 57498
" />
<path d="M57299 57078
L57539 57318
" />
<path d="M56639 57198
L56669 57168
L56729 57138
L56789 57138
L56849 57168
L56879 57198
L56909 57258
L56909 57318
L56879 57378
L56849 57408
L56789 57438
L56729 57438
L56669 57408
L56639 57378
" />
<path d="M56639 57138
L56639 57378
L56609 57408
L56579 57408
L56519 57378
L56489 57318
L56489 57168
L56549 57078
L56639 57018
L56759 56988
L56879 57018
L56969 57078
L57029 57168
L57059 57288
L57029 57408
L56969 57498
L56879 57558
L56759 57588
L56639 57558
L56549 57498
" />
<path d="M55949 57078
L55949 57588
L55979 57648
L56009 57678
L56069 57708
L56159 57708
L56219 57678
" />
<path d="M55949 57468
L56009 57498
L56129 57498
L56189 57468
L56219 57438
L56249 57378
L56249 57198
L56219 57138
L56189 57108
L56129 57078
L56009 57078
L55949 57108
" />
<path d="M55649 57498
L55649 57078
" />
<path d="M55649 57138
L55619 57108
L55559 57078
L55469 57078
L55409 57108
L55379 57168
L55379 57498
" />
<path d="M55379 57168
L55349 57108
L55289 57078
L55199 57078
L55139 57108
L55109 57168
L55109 57498
" />
<path d="M54539 57498
L54539 57168
L54569 57108
L54629 57078
L54749 57078
L54809 57108
" />
<path d="M54539 57468
L54599 57498
L54749 57498
L54809 57468
L54839 57408
L54839 57348
L54809 57288
L54749 57258
L54599 57258
L54539 57228
" />
<path d="M54239 57498
L54239 57078
" />
<path d="M54239 56868
L54269 56898
L54239 56928
L54209 56898
L54239 56868
L54239 56928
" />
<path d="M53849 57498
L53909 57468
L53939 57408
L53939 56868
" />
<path d="M53609 57438
L53579 57468
L53609 57498
L53639 57468
L53609 57438
L53609 57498
" />
<path d="M53039 57468
L53099 57498
L53219 57498
L53279 57468
L53309 57438
L53339 57378
L53339 57198
L53309 57138
L53279 57108
L53219 57078
L53099 57078
L53039 57108
" />
<path d="M52679 57498
L52739 57468
L52769 57438
L52799 57378
L52799 57198
L52769 57138
L52739 57108
L52679 57078
L52589 57078
L52529 57108
L52499 57138
L52469 57198
L52469 57378
L52499 57438
L52529 57468
L52589 57498
L52679 57498
" />
<path d="M52199 57498
L52199 57078
" />
<path d="M52199 57138
L52169 57108
L52109 57078
L52020 57078
L51960 57108
L51930 57168
L51930 57498
" />
<path d="M51930 57168
L51900 57108
L51840 57078
L51750 57078
L51690 57108
L51660 57168
L51660 57498
" />
</g>
<g style="fill:#000000; fill-opacity:0.0; 
stroke:#000000; stroke-width:78.7402; stroke-opacity:1; 
stroke-linecap:round; stroke-linejoin:round;">
<path d="M10289.1 57126.9 A2362.2 2362.2 0.0 0 0 12651.4 59489.1" />
<path d="M12651.4 22875 A2362.2 2362.2 0.0 0 0 10289.1 25237.2" />
<path d="M66982.1 25237.2 A2362.2 2362.2 0.0 0 0 64619.9 22875" />
<path d="M64619.9 59489.1 A2362.21 2362.21 0.0 0 0 66982.1 57126.9" />
<path d="M12651 59489
L64619 59489
" />
<path d="M10289 25237
L10289 57126
" />
<path d="M64619 22874
L12651 22874
" />
<path d="M66982 57126
L66982 25237
" />
</g>
<g style="fill:#000000; fill-opacity:0.0; 
stroke:#000000; stroke-width:94.4882; stroke-opacity:1; 
stroke-linecap:round; stroke-linejoin:round;">
<path d="M30752 53768
L31164 53768
" />
<path d="M30752 52611
L31164 52611
" />
<path d="M32966 37339
L31919 37339
" />
<path d="M31919 37339
L31919 38386
" />
<path d="M31919 39386
L31919 41434
" />
<path d="M34013 41434
L31919 41434
" />
<path d="M34013 39386
L34013 41434
" />
<path d="M34013 39386
L31919 39386
" />
<path d="M32887 34489
L31785 34489
" />
<path d="M31234 35040
L31234 35512
" />
<path d="M31785 36063
L32887 36063
" />
<path d="M33438 35512
L33438 35040
" />
<path d="M33438.8 35040.3 A551.181 551.181 0.0 0 0 32887.6 34489.1" />
<path d="M32887.6 36063.9 A551.181 551.181 0.0 0 0 33438.8 35512.8" />
<path d="M31234 35512.8 A551.181 551.181 0.0 0 0 31785.2 36063.9" />
<path d="M31785.2 34489.1 A551.181 551.181 0.0 0 0 31234 35040.3" />
<path d="M52919 42213
L52919 41221
" />
<path d="M52919 36843
L52919 37835
" />
<path d="M55879 42213
L52919 42213
" />
<path d="M57651 36843
L52919 36843
" />
<path d="M52919 33552
L52919 32560
" />
<path d="M52919 28182
L52919 29174
" />
<path d="M55879 33552
L52919 33552
" />
<path d="M57651 28182
L52919 28182
" />
<path d="M50277 37962
L50277 37551
" />
<path d="M49119 37962
L49119 37551
" />
<path d="M50474 29301
L50474 28889
" />
<path d="M49316 29301
L49316 28889
" />
<path d="M36458 36072
L36458 35661
" />
<path d="M35300 36072
L35300 35661
" />
<path d="M26618 35461
L27030 35461
" />
<path d="M26618 34304
L27030 34304
" />
<path d="M18151 46899
L18151 46488
" />
<path d="M16993 46899
L16993 46488
" />
<path d="M41797 47866
L41797 48277
" />
<path d="M42954 47866
L42954 48277
" />
<path d="M56370 42689
L55959 42689
" />
<path d="M56370 43847
L55959 43847
" />
<path d="M41797 38614
L41797 39025
" />
<path d="M42954 38614
L42954 39025
" />
<path d="M25258 28201
L24847 28201
" />
<path d="M25258 29359
L24847 29359
" />
<path d="M23293 41763
L23293 42175
" />
<path d="M24450 41763
L24450 42175
" />
<path d="M16993 42944
L16993 43356
" />
<path d="M18151 42944
L18151 43356
" />
<path d="M42915 42175
L42915 41763
" />
<path d="M41757 42175
L41757 41763
" />
<path d="M36458 42175
L36458 41763
" />
<path d="M35300 42175
L35300 41763
" />
<path d="M29274 46311
L28862 46311
" />
<path d="M29274 47469
L28862 47469
" />
<path d="M56203 34028
L55792 34028
" />
<path d="M56203 35185
L55792 35185
" />
<g >
</g>
<g >
</g>
<g >
</g>
<g >
</g>
<g >
</g>
<g >
</g>
<g >
</g>
<g >
</g>
<g >
</g>
<g >
</g>
<g >
</g>
<g >
</g>
<g >
</g>
<g >
</g>
<g >
</g>
<g >
</g>
<g >
</g>
<g >
</g>
<g >
</g>
<g >
</g>
<g >
</g>
<g >
</g>
<g >
</g>
<g >
</g>
<g >
</g>
<g >
</g>
<g >
</g>
<g >
</g>
<g >
</g>
<g >
</g>
<g >
</g>
<g >
</g>
<g >
</g>
<g >
</g>
<g >
</g>
<g >
</g>
<g >
</g>
<g >
</g>
<g >
</g>
<g >
</g>
<g >
</g>
<g >
</g>
<g >
</g>
<g >
</g>
<g >
</g>
<g >
</g>
<g >
</g>
<g >
</g>
</g>
<g style="fill:#000000; fill-opacity:0.0; 
stroke:#000000; stroke-width:94.4882; stroke-opacity:1; 
stroke-linecap:round; stroke-linejoin:round;">
</g>
<g style="fill:#000000; fill-opacity:0.0; 
stroke:#000000; stroke-width:118.11; stroke-opacity:1; 
stroke-linecap:round; stroke-linejoin:round;">
<text x="28084.4" y="53583.6"
transform="scale(-1 1) translate(-56168.845669 0)"
textLength="1414.47" font-size="1049.87" lengthAdjust="spacingAndGlyphs"
text-anchor="middle" opacity="0">C8</text>
<path d="M28215 53471
L28253 53508
L28365 53546
L28440 53546
L28553 53508
L28628 53433
L28665 53358
L28703 53208
L28703 53096
L28665 52946
L28628 52871
L28553 52796
L28440 52758
L28365 52758
L28253 52796
L28215 52833
" />
<path d="M27765 53096
L27840 53058
L27878 53021
L27915 52946
L27915 52908
L27878 52833
L27840 52796
L27765 52758
L27615 52758
L27540 52796
L27503 52833
L27465 52908
L27465 52946
L27503 53021
L27540 53058
L27615 53096
L27765 53096
L27840 53133
L27878 53171
L27915 53246
L27915 53396
L27878 53471
L27840 53508
L27765 53546
L27615 53546
L27540 53508
L27503 53471
L27465 53396
L27465 53246
L27503 53171
L27540 53133
L27615 53096
" />
<text x="30761.6" y="40827.7"
transform="scale(-1 1) translate(-61523.176378 0)"
textLength="1271.28" font-size="1049.87" lengthAdjust="spacingAndGlyphs"
text-anchor="middle" opacity="0">DL</text>
<path d="M31286 40790
L31286 40002
L31099 40002
L30986 40040
L30911 40115
L30874 40190
L30836 40340
L30836 40452
L30874 40602
L30911 40677
L30986 40752
L31099 40790
L31286 40790
" />
<path d="M30124 40790
L30499 40790
L30499 40002
" />
<text x="29895.4" y="35630.9"
transform="scale(-1 1) translate(-59790.892913 0)"
textLength="1983.69" font-size="1049.87" lengthAdjust="spacingAndGlyphs"
text-anchor="middle" opacity="0">JP1</text>
<path d="M30551 34805
L30551 35368
L30589 35480
L30664 35555
L30776 35593
L30851 35593
" />
<path d="M30176 35593
L30176 34805
L29876 34805
L29801 34843
L29764 34880
L29726 34955
L29726 35068
L29764 35143
L29801 35180
L29876 35218
L30176 35218
" />
<path d="M28976 35593
L29426 35593
" />
<path d="M29201 35593
L29201 34805
L29276 34918
L29351 34993
L29426 35030
" />
<text x="52060.8" y="43308"
transform="scale(-1 1) translate(-104121.601575 0)"
textLength="1421.26" font-size="1049.87" lengthAdjust="spacingAndGlyphs"
text-anchor="middle" opacity="0">U2</text>
<path d="M52660 42483
L52660 43120
L52623 43195
L52585 43233
L52510 43270
L52360 43270
L52285 43233
L52248 43195
L52210 43120
L52210 42483
" />
<path d="M51873 42558
L51835 42520
L51760 42483
L51573 42483
L51498 42520
L51460 42558
L51423 42633
L51423 42708
L51460 42820
L51910 43270
L51423 43270
" />
<text x="52021.4" y="34686"
transform="scale(-1 1) translate(-104042.861417 0)"
textLength="1421.26" font-size="1049.87" lengthAdjust="spacingAndGlyphs"
text-anchor="middle" opacity="0">U3</text>
<path d="M52621 33861
L52621 34498
L52583 34573
L52546 34610
L52471 34648
L52321 34648
L52246 34610
L52208 34573
L52171 34498
L52171 33861
" />
<path d="M51871 33861
L51384 33861
L51646 34161
L51533 34161
L51459 34198
L51421 34236
L51384 34311
L51384 34498
L51421 34573
L51459 34610
L51533 34648
L51758 34648
L51833 34610
L51871 34573
" />
<g transform="rotate(-90 48281.3 38662.4)">
<text x="48281.3" y="39056.1"
transform="scale(-1 1) translate(-96562.546457 0)"
textLength="2133.67" font-size="1049.87" lengthAdjust="spacingAndGlyphs"
text-anchor="middle" opacity="0">C14</text>
</g>
<path d="M48562 38156
L48599 38118
L48637 38006
L48637 37931
L48599 37818
L48524 37743
L48450 37706
L48300 37668
L48187 37668
L48037 37706
L47962 37743
L47887 37818
L47850 37931
L47850 38006
L47887 38118
L47925 38156
" />
<path d="M48637 38906
L48637 38456
" />
<path d="M48637 38681
L47850 38681
L47962 38606
L48037 38531
L48075 38456
" />
<path d="M48112 39581
L48637 39581
" />
<path d="M47812 39393
L48375 39206
L48375 39693
" />
<g transform="rotate(-90 48399.4 30079.7)">
<text x="48399.4" y="30473.4"
transform="scale(-1 1) translate(-96798.766929 0)"
textLength="2133.67" font-size="1049.87" lengthAdjust="spacingAndGlyphs"
text-anchor="middle" opacity="0">C16</text>
</g>
<path d="M48680 29573
L48718 29536
L48755 29423
L48755 29348
L48718 29236
L48643 29161
L48568 29123
L48418 29086
L48305 29086
L48155 29123
L48080 29161
L48005 29236
L47968 29348
L47968 29423
L48005 29536
L48043 29573
" />
<path d="M48755 30323
L48755 29873
" />
<path d="M48755 30098
L47968 30098
L48080 30023
L48155 29948
L48193 29873
" />
<path d="M47968 30998
L47968 30848
L48005 30773
L48043 30735
L48155 30660
L48305 30623
L48605 30623
L48680 30660
L48718 30698
L48755 30773
L48755 30923
L48718 30998
L48680 31035
L48605 31073
L48418 31073
L48343 31035
L48305 30998
L48268 30923
L48268 30773
L48305 30698
L48343 30660
L48418 30623
" />
<g transform="rotate(-90 34541.1 35867.1)">
<text x="34541.1" y="36260.8"
transform="scale(-1 1) translate(-69082.231496 0)"
textLength="2133.67" font-size="1049.87" lengthAdjust="spacingAndGlyphs"
text-anchor="middle" opacity="0">C12</text>
</g>
<path d="M34822 35360
L34859 35323
L34897 35210
L34897 35135
L34859 35023
L34784 34948
L34709 34910
L34559 34873
L34447 34873
L34297 34910
L34222 34948
L34147 35023
L34109 35135
L34109 35210
L34147 35323
L34184 35360
" />
<path d="M34897 36110
L34897 35660
" />
<path d="M34897 35885
L34109 35885
L34222 35810
L34297 35735
L34334 35660
" />
<path d="M34184 36410
L34147 36448
L34109 36523
L34109 36710
L34147 36785
L34184 36823
L34259 36860
L34334 36860
L34447 36823
L34897 36373
L34897 36860
" />
<text x="25407.3" y="36890.7"
transform="scale(-1 1) translate(-50814.514961 0)"
textLength="2133.67" font-size="1049.87" lengthAdjust="spacingAndGlyphs"
text-anchor="middle" opacity="0">C11</text>
<path d="M25913 36778
L25950 36815
L26063 36853
L26138 36853
L26250 36815
L26325 36740
L26363 36665
L26400 36515
L26400 36403
L26363 36253
L26325 36178
L26250 36103
L26138 36065
L26063 36065
L25950 36103
L25913 36140
" />
<path d="M25163 36853
L25613 36853
" />
<path d="M25388 36853
L25388 36065
L25463 36178
L25538 36253
L25613 36290
" />
<path d="M24413 36853
L24863 36853
" />
<path d="M24638 36853
L24638 36065
L24713 36178
L24788 36253
L24863 36290
" />
<g transform="rotate(-90 17572.6 49725.4)">
<text x="17572.6" y="50119.1"
transform="scale(-1 1) translate(-35145.223622 0)"
textLength="2133.67" font-size="1049.87" lengthAdjust="spacingAndGlyphs"
text-anchor="middle" opacity="0">C10</text>
</g>
<path d="M17853 49219
L17891 49181
L17928 49069
L17928 48994
L17891 48881
L17816 48806
L17741 48769
L17591 48731
L17478 48731
L17328 48769
L17253 48806
L17178 48881
L17141 48994
L17141 49069
L17178 49181
L17216 49219
" />
<path d="M17928 49969
L17928 49519
" />
<path d="M17928 49744
L17141 49744
L17253 49669
L17328 49594
L17366 49519
" />
<path d="M17141 50456
L17141 50531
L17178 50606
L17216 50643
L17291 50681
L17441 50718
L17628 50718
L17778 50681
L17853 50643
L17891 50606
L17928 50531
L17928 50456
L17891 50381
L17853 50344
L17778 50306
L17628 50269
L17441 50269
L17291 50306
L17216 50344
L17178 50381
L17141 50456
" />
<g transform="rotate(-90 42612 51142.7)">
<text x="42612" y="51536.4"
transform="scale(-1 1) translate(-85223.963780 0)"
textLength="1383.76" font-size="1049.87" lengthAdjust="spacingAndGlyphs"
text-anchor="middle" opacity="0">C9</text>
</g>
<path d="M42893 51011
L42930 50973
L42968 50861
L42968 50786
L42930 50673
L42855 50598
L42780 50561
L42630 50524
L42518 50524
L42368 50561
L42293 50598
L42218 50673
L42180 50786
L42180 50861
L42218 50973
L42255 51011
" />
<path d="M42968 51386
L42968 51536
L42930 51611
L42893 51648
L42780 51723
L42630 51761
L42330 51761
L42255 51723
L42218 51686
L42180 51611
L42180 51461
L42218 51386
L42255 51348
L42330 51311
L42518 51311
L42593 51348
L42630 51386
L42668 51461
L42668 51611
L42630 51686
L42593 51723
L42518 51761
" />
<text x="58793.1" y="44922.2"
transform="scale(-1 1) translate(-117586.168504 0)"
textLength="2133.67" font-size="1049.87" lengthAdjust="spacingAndGlyphs"
text-anchor="middle" opacity="0">C13</text>
<path d="M59299 44809
L59336 44847
L59449 44884
L59524 44884
L59636 44847
L59711 44772
L59749 44697
L59786 44547
L59786 44434
L59749 44284
L59711 44209
L59636 44134
L59524 44097
L59449 44097
L59336 44134
L59299 44172
" />
<path d="M58549 44884
L58999 44884
" />
<path d="M58774 44884
L58774 44097
L58849 44209
L58924 44284
L58999 44322
" />
<path d="M58286 44097
L57799 44097
L58061 44397
L57949 44397
L57874 44434
L57836 44472
L57799 44547
L57799 44734
L57836 44809
L57874 44847
L57949 44884
L58174 44884
L58249 44847
L58286 44809
" />
<g transform="rotate(-90 43832.5 37756.9)">
<text x="43832.5" y="38150.6"
transform="scale(-1 1) translate(-87664.908661 0)"
textLength="1383.76" font-size="1049.87" lengthAdjust="spacingAndGlyphs"
text-anchor="middle" opacity="0">C7</text>
</g>
<path d="M44113 37625
L44151 37588
L44188 37475
L44188 37400
L44151 37288
L44076 37213
L44001 37175
L43851 37138
L43738 37138
L43588 37175
L43513 37213
L43438 37288
L43401 37400
L43401 37475
L43438 37588
L43476 37625
" />
<path d="M43401 37888
L43401 38413
L44188 38075
" />
<text x="27612" y="29331.7"
transform="scale(-1 1) translate(-55223.963780 0)"
textLength="1383.76" font-size="1049.87" lengthAdjust="spacingAndGlyphs"
text-anchor="middle" opacity="0">C6</text>
<path d="M27743 29219
L27780 29256
L27893 29294
L27968 29294
L28080 29256
L28155 29181
L28193 29106
L28230 28956
L28230 28844
L28193 28694
L28155 28619
L28080 28544
L27968 28506
L27893 28506
L27780 28544
L27743 28581
" />
<path d="M27068 28506
L27218 28506
L27293 28544
L27330 28581
L27405 28694
L27443 28844
L27443 29144
L27405 29219
L27368 29256
L27293 29294
L27143 29294
L27068 29256
L27030 29219
L26993 29144
L26993 28956
L27030 28881
L27068 28844
L27143 28806
L27293 28806
L27368 28844
L27405 28881
L27443 28956
" />
<g transform="rotate(-90 23989.9 44528.5)">
<text x="23989.9" y="44922.2"
transform="scale(-1 1) translate(-47979.869291 0)"
textLength="1383.76" font-size="1049.87" lengthAdjust="spacingAndGlyphs"
text-anchor="middle" opacity="0">C5</text>
</g>
<path d="M24271 44397
L24308 44359
L24346 44247
L24346 44172
L24308 44059
L24233 43984
L24158 43947
L24008 43909
L23896 43909
L23746 43947
L23671 43984
L23596 44059
L23558 44172
L23558 44247
L23596 44359
L23633 44397
" />
<path d="M23558 45109
L23558 44734
L23933 44697
L23896 44734
L23858 44809
L23858 44997
L23896 45072
L23933 45109
L24008 45147
L24196 45147
L24271 45109
L24308 45072
L24346 44997
L24346 44809
L24308 44734
L24271 44697
" />
<g transform="rotate(-90 17572.6 40591.5)">
<text x="17572.6" y="40985.2"
transform="scale(-1 1) translate(-35145.223622 0)"
textLength="1383.76" font-size="1049.87" lengthAdjust="spacingAndGlyphs"
text-anchor="middle" opacity="0">C4</text>
</g>
<path d="M17853 40460
L17891 40422
L17928 40310
L17928 40235
L17891 40122
L17816 40047
L17741 40010
L17591 39972
L17478 39972
L17328 40010
L17253 40047
L17178 40122
L17141 40235
L17141 40310
L17178 40422
L17216 40460
" />
<path d="M17403 41135
L17928 41135
" />
<path d="M17103 40947
L17666 40760
L17666 41247
" />
<g transform="rotate(-90 43832.5 42481.3)">
<text x="43832.5" y="42875"
transform="scale(-1 1) translate(-87664.908661 0)"
textLength="1383.76" font-size="1049.87" lengthAdjust="spacingAndGlyphs"
text-anchor="middle" opacity="0">C3</text>
</g>
<path d="M44113 42350
L44151 42312
L44188 42200
L44188 42125
L44151 42012
L44076 41937
L44001 41900
L43851 41862
L43738 41862
L43588 41900
L43513 41937
L43438 42012
L43401 42125
L43401 42200
L43438 42312
L43476 42350
" />
<path d="M43401 42612
L43401 43099
L43701 42837
L43701 42949
L43738 43024
L43776 43062
L43851 43099
L44038 43099
L44113 43062
L44151 43024
L44188 42949
L44188 42724
L44151 42649
L44113 42612
" />
<g transform="rotate(-90 35958.4 44528.5)">
<text x="35958.4" y="44922.2"
transform="scale(-1 1) translate(-71916.877165 0)"
textLength="1383.76" font-size="1049.87" lengthAdjust="spacingAndGlyphs"
text-anchor="middle" opacity="0">C2</text>
</g>
<path d="M36239 44397
L36277 44359
L36314 44247
L36314 44172
L36277 44059
L36202 43984
L36127 43947
L35977 43909
L35864 43909
L35714 43947
L35639 43984
L35564 44059
L35527 44172
L35527 44247
L35564 44359
L35602 44397
" />
<path d="M35602 44697
L35564 44734
L35527 44809
L35527 44997
L35564 45072
L35602 45109
L35677 45147
L35752 45147
L35864 45109
L36314 44659
L36314 45147
" />
<text x="26509.6" y="47284.4"
transform="scale(-1 1) translate(-53019.239370 0)"
textLength="1383.76" font-size="1049.87" lengthAdjust="spacingAndGlyphs"
text-anchor="middle" opacity="0">C1</text>
<path d="M26640 47171
L26678 47209
L26790 47246
L26865 47246
L26978 47209
L27053 47134
L27090 47059
L27128 46909
L27128 46796
L27090 46646
L27053 46572
L26978 46497
L26865 46459
L26790 46459
L26678 46497
L26640 46534
" />
<path d="M25890 47246
L26340 47246
" />
<path d="M26115 47246
L26115 46459
L26190 46572
L26265 46646
L26340 46684
" />
<text x="58163.2" y="36103.3"
transform="scale(-1 1) translate(-116326.325984 0)"
textLength="2133.67" font-size="1049.87" lengthAdjust="spacingAndGlyphs"
text-anchor="middle" opacity="0">C15</text>
<path d="M58669 35990
L58706 36028
L58819 36065
L58894 36065
L59006 36028
L59081 35953
L59119 35878
L59156 35728
L59156 35615
L59119 35465
L59081 35390
L59006 35315
L58894 35278
L58819 35278
L58706 35315
L58669 35353
" />
<path d="M57919 36065
L58369 36065
" />
<path d="M58144 36065
L58144 35278
L58219 35390
L58294 35465
L58369 35503
" />
<path d="M57207 35278
L57581 35278
L57619 35653
L57581 35615
L57506 35578
L57319 35578
L57244 35615
L57207 35653
L57169 35728
L57169 35915
L57207 35990
L57244 36028
L57319 36065
L57506 36065
L57581 36028
L57619 35990
" />
<g >
</g>
</g> 
</svg>
