<!DOCTYPE svg PUBLIC "-//W3C//DTD SVG 1.1//EN"
"http://www.w3.org/Graphics/SVG/1.1/DTD/svg11.dtd">
<svg xmlns="http://www.w3.org/2000/svg" xmlns:xlink="http://www.w3.org/1999/xlink" width="29.7002cm" height="21.0007cm" viewBox="0 0 11693 8268" font-family="Verdana, sans-serif" style="stroke-opacity:1.000000;fill-opacity:1.000000;"><rect fill="#FFFFFF00" width="11693" height="8268" style="stroke-opacity:1.0;fill-opacity:1.0;"></rect><text x="5250" y="3609" font-size="50.000000" text-anchor="middle" transform="rotate(0 5250 3609)" fill="#000000">U?A</text><text x="5250" y="3700" font-size="50.000000" text-anchor="middle" transform="rotate(0 5250 3700)" fill="#000000">74HC36</text><text x="5750" y="4075" font-size="50.000000" text-anchor="end" transform="rotate(0 5750 4075)" fill="#000000">3</text><polyline points="5450, 4075 5750, 4075" stroke-width="10px" stroke="#000000"></polyline><text x="4750" y="4175" font-size="50.000000" text-anchor="start" transform="rotate(0 4750 4175)" fill="#000000">2</text><polyline points="5050, 4175 4750, 4175" stroke-width="10px" stroke="#000000"></polyline><text x="4750" y="3975" font-size="50.000000" text-anchor="start" transform="rotate(0 4750 3975)" fill="#000000">1</text><polyline points="5050, 3975 4750, 3975" stroke-width="10px" stroke="#000000"></polyline><polyline points="5200, 4125 5200, 4125" stroke-width="10px" stroke="#000000"></polyline><polyline points="5250, 4075 5200, 4125" stroke-width="10px" stroke="#000000"></polyline><polyline points="5200, 4025 5250, 4075" stroke-width="10px" stroke="#000000"></polyline><polyline points="5250, 4095 5250, 4095" stroke-width="10px" stroke="#000000"></polyline><polyline points="5200, 4145 5250, 4095" stroke-width="10px" stroke="#000000"></polyline><polyline points="5450, 3825 5050, 3825" stroke-width="10px" stroke="#000000"></polyline><polyline points="5450, 4325 5450, 3825" stroke-width="10px" stroke="#000000"></polyline><polyline points="5050, 4325 5450, 4325" stroke-width="10px" stroke="#000000"></polyline><polyline points="5050, 3825 5050, 4325" stroke-width="10px" stroke="#000000"></polyline><text x="5350" y="4075" font-size="100.000000" text-anchor="start" transform="rotate(0 5350 4075)" fill="#000000">1</text><text x="7693" y="7968" font-size="50.000000" text-anchor="start" transform="rotate(0 7693 7968)" fill="#000000">Page: 2 2</text><rect x="7593" y="7618" width="4000" height="400" fill="none" stroke-width="5px" stroke="#000000"></rect><rect x="7593" y="7918" width="4000" height="100" fill="none" stroke-width="5px" stroke="#000000"></rect><rect x="7593" y="8018" width="4000" height="150" fill="none" stroke-width="5px" stroke="#000000"></rect><rect x="100" y="100" width="11493" height="8068" fill="none" stroke-width="5px" stroke="#000000"></rect></svg>