<?xml version="1.0" encoding="UTF-8" standalone="no"?>
<!-- Created with Inkscape (http://www.inkscape.org/) -->

<svg
   width="24mm"
   height="24mm"
   viewBox="0 0 24 24"
   version="1.1"
   id="svg827"
   inkscape:version="1.1.1 (3bf5ae0d25, 2021-09-20)"
   sodipodi:docname="kiri.svg"
   inkscape:export-filename="/home/lheck/Documents/kiri/kicad_plugin/kiri/kiri.png"
   inkscape:export-xdpi="25.4"
   inkscape:export-ydpi="25.4"
   xmlns:inkscape="http://www.inkscape.org/namespaces/inkscape"
   xmlns:sodipodi="http://sodipodi.sourceforge.net/DTD/sodipodi-0.dtd"
   xmlns="http://www.w3.org/2000/svg"
   xmlns:svg="http://www.w3.org/2000/svg">
  <sodipodi:namedview
     id="namedview829"
     pagecolor="#ffffff"
     bordercolor="#666666"
     borderopacity="1.0"
     inkscape:pageshadow="2"
     inkscape:pageopacity="0.0"
     inkscape:pagecheckerboard="0"
     inkscape:document-units="mm"
     showgrid="false"
     inkscape:zoom="4.3994184"
     inkscape:cx="29.435709"
     inkscape:cy="48.415491"
     inkscape:window-width="2048"
     inkscape:window-height="1083"
     inkscape:window-x="0"
     inkscape:window-y="32"
     inkscape:window-maximized="1"
     inkscape:current-layer="g40186"
     fit-margin-top="0"
     fit-margin-left="0"
     fit-margin-right="0"
     fit-margin-bottom="0" />
  <defs
     id="defs824">
    <marker
       style="overflow:visible"
       id="marker39503"
       refX="0"
       refY="0"
       orient="auto"
       inkscape:stockid="DotS"
       inkscape:isstock="true">
      <path
         transform="matrix(0.2,0,0,0.2,1.48,0.2)"
         style="fill:context-stroke;fill-rule:evenodd;stroke:context-stroke;stroke-width:1pt"
         d="m -2.5,-1 c 0,2.76 -2.24,5 -5,5 -2.76,0 -5,-2.24 -5,-5 0,-2.76 2.24,-5 5,-5 2.76,0 5,2.24 5,5 z"
         id="path39501" />
    </marker>
    <marker
       style="overflow:visible"
       id="marker38866"
       refX="0"
       refY="0"
       orient="auto"
       inkscape:stockid="DotS"
       inkscape:isstock="true">
      <path
         transform="matrix(0.2,0,0,0.2,1.48,0.2)"
         style="fill:context-stroke;fill-rule:evenodd;stroke:context-stroke;stroke-width:1pt"
         d="m -2.5,-1 c 0,2.76 -2.24,5 -5,5 -2.76,0 -5,-2.24 -5,-5 0,-2.76 2.24,-5 5,-5 2.76,0 5,2.24 5,5 z"
         id="path38864" />
    </marker>
    <marker
       style="overflow:visible"
       id="DotS"
       refX="0"
       refY="0"
       orient="auto"
       inkscape:stockid="DotS"
       inkscape:isstock="true">
      <path
         transform="matrix(0.2,0,0,0.2,1.48,0.2)"
         style="fill:context-stroke;fill-rule:evenodd;stroke:context-stroke;stroke-width:1pt"
         d="m -2.5,-1 c 0,2.76 -2.24,5 -5,5 -2.76,0 -5,-2.24 -5,-5 0,-2.76 2.24,-5 5,-5 2.76,0 5,2.24 5,5 z"
         id="path38663" />
    </marker>
  </defs>
  <g
     inkscape:label="Layer 1"
     inkscape:groupmode="layer"
     id="layer1"
     transform="translate(-88.573532,-63.285007)">
    <g
       id="g40186"
       transform="translate(1.6026606,2.5516162)"
       inkscape:export-filename="/home/lheck/Documents/kiri/kicad_plugin/kiri/kiri.png"
       inkscape:export-xdpi="25.4"
       inkscape:export-ydpi="25.4">
      <rect
         style="fill:#ff0000;stroke-width:2;stroke-linecap:round;stroke-linejoin:round;paint-order:stroke fill markers"
         id="rect1117"
         width="10.945007"
         height="24"
         x="87.080429"
         y="60.752972"
         rx="0.96002167"
         ry="1.0108891" />
      <rect
         style="fill:#0000ff;stroke-width:2;stroke-linecap:round;stroke-linejoin:round;paint-order:stroke fill markers"
         id="rect1117-6"
         width="10.945007"
         height="24"
         x="100.13541"
         y="60.752972"
         rx="0.96002167"
         ry="1.0108891" />
      <text
         xml:space="preserve"
         style="font-style:normal;font-weight:normal;font-size:9.19365px;line-height:1.25;font-family:sans-serif;letter-spacing:0px;word-spacing:0px;fill:#ffffff;fill-opacity:1;stroke:none;stroke-width:0.264583"
         x="103.02071"
         y="68.305519"
         id="text4379"><tspan
           sodipodi:role="line"
           id="tspan4377"
           style="font-style:normal;font-variant:normal;font-weight:normal;font-stretch:normal;font-family:'Ubuntu Mono';-inkscape-font-specification:'Ubuntu Mono';fill:#ffffff;stroke-width:0.264583"
           x="103.02071"
           y="68.305519">+</tspan></text>
      <text
         xml:space="preserve"
         style="font-style:normal;font-weight:normal;font-size:12.1745px;line-height:1.25;font-family:sans-serif;letter-spacing:0px;word-spacing:0px;fill:#ffffff;fill-opacity:1;stroke:none;stroke-width:0.264583"
         x="77.412613"
         y="96.105759"
         id="text4379-7"
         transform="scale(1.1503512,0.86929976)"><tspan
           sodipodi:role="line"
           id="tspan4377-5"
           style="font-style:normal;font-variant:normal;font-weight:normal;font-stretch:normal;font-family:'Ubuntu Mono';-inkscape-font-specification:'Ubuntu Mono';fill:#ffffff;stroke-width:0.264583"
           x="77.412613"
           y="96.105759">-</tspan></text>
      <path
         style="fill:#ffffff;fill-opacity:0;stroke:#ffffff;stroke-width:2;stroke-linecap:butt;stroke-linejoin:miter;stroke-miterlimit:4;stroke-dasharray:none;stroke-opacity:1"
         d="m 92.110924,65.917845 3.80079,-0.04694 6.607916,14.94294 3.85977,0.04975"
         id="path14692-3"
         sodipodi:nodetypes="cccc" />
      <path
         style="fill:#ffffff;fill-opacity:1;stroke:none;stroke-width:1.09926;stroke-linecap:round;stroke-linejoin:round;stroke-miterlimit:4;stroke-dasharray:none;paint-order:stroke fill markers"
         id="path39826"
         sodipodi:type="arc"
         sodipodi:cx="105.60791"
         sodipodi:cy="80.875313"
         sodipodi:rx="1.9"
         sodipodi:ry="1.9"
         sodipodi:start="4.202506"
         sodipodi:end="4.1887902"
         sodipodi:arc-type="arc"
         d="m 104.68057,79.21699 a 1.9,1.9 0 0 1 2.58247,0.725299 1.9,1.9 0 0 1 -0.71644,2.584948 1.9,1.9 0 0 1 -2.58739,-0.707572 1.9,1.9 0 0 1 0.6987,-2.5898"
         sodipodi:open="true" />
      <path
         style="fill:#ffffff;fill-opacity:1;stroke:none;stroke-width:1.09927;stroke-linecap:round;stroke-linejoin:round;stroke-miterlimit:4;stroke-dasharray:none;paint-order:stroke fill markers"
         id="path39826-5"
         sodipodi:type="arc"
         sodipodi:cx="92.552933"
         sodipodi:cy="65.892189"
         sodipodi:rx="1.9000001"
         sodipodi:ry="1.9"
         sodipodi:start="4.202506"
         sodipodi:end="4.1887902"
         sodipodi:arc-type="arc"
         sodipodi:open="true"
         d="m 91.62559,64.233866 a 1.9000001,1.9 0 0 1 2.582476,0.725299 1.9000001,1.9 0 0 1 -0.71644,2.584949 1.9000001,1.9 0 0 1 -2.587389,-0.707573 1.9000001,1.9 0 0 1 0.698696,-2.5898" />
      <path
         style="fill:#000000;fill-opacity:0;stroke:#69962e;stroke-width:1;stroke-linecap:butt;stroke-linejoin:miter;stroke-miterlimit:4;stroke-dasharray:none;stroke-opacity:1;marker-start:url(#DotS);marker-end:url(#marker38866)"
         d="m 92.659687,65.871247 3.252027,-3.42e-4 6.607916,14.94294 3.07794,0.04975"
         id="path14692"
         sodipodi:nodetypes="cccc" />
    </g>
  </g>
</svg>
